<?xml version="1.0" encoding="UTF-8" standalone="no"?>
<!-- Generator: Adobe Illustrator 20.1.0, SVG Export Plug-In . SVG Version: 6.00 Build 0)  -->

<svg
   xmlns:dc="http://purl.org/dc/elements/1.1/"
   xmlns:cc="http://creativecommons.org/ns#"
   xmlns:rdf="http://www.w3.org/1999/02/22-rdf-syntax-ns#"
   xmlns:svg="http://www.w3.org/2000/svg"
   xmlns="http://www.w3.org/2000/svg"
   xmlns:sodipodi="http://sodipodi.sourceforge.net/DTD/sodipodi-0.dtd"
   xmlns:inkscape="http://www.inkscape.org/namespaces/inkscape"
   version="1.1"
   id="Camada_1"
   x="0px"
   y="0px"
   viewBox="0 0 28.000001 28"
   xml:space="preserve"
   inkscape:version="0.91 r13725"
   sodipodi:docname="cb1.svg"
   width="28"
   height="28"><metadata
     id="metadata13"><rdf:RDF><cc:Work
         rdf:about=""><dc:format>image/svg+xml</dc:format><dc:type
           rdf:resource="http://purl.org/dc/dcmitype/StillImage" /><dc:title></dc:title></cc:Work></rdf:RDF></metadata><defs
     id="defs11" /><sodipodi:namedview
     pagecolor="#00ffff"
     bordercolor="#666666"
     borderopacity="1"
     objecttolerance="10"
     gridtolerance="10"
     guidetolerance="10"
     inkscape:pageopacity="0"
     inkscape:pageshadow="2"
     inkscape:window-width="1855"
     inkscape:window-height="1056"
     id="namedview9"
     showgrid="false"
     inkscape:zoom="23.461379"
     inkscape:cx="-6.8838361"
     inkscape:cy="28.5"
     inkscape:window-x="65"
     inkscape:window-y="24"
     inkscape:window-maximized="1"
     inkscape:current-layer="Camada_1" /><style
     type="text/css"
     id="style3">
	.st0{fill:none;stroke:#582983;stroke-width:2;stroke-miterlimit:10;}
	.st1{fill:#582983;stroke:#582983;stroke-width:2;stroke-miterlimit:10;}
</style><g
     id="g4141"
     transform="translate(-28.599999,15.050002)"><path
       style="fill:none;stroke:#ffffff;stroke-width:2;stroke-miterlimit:10;stroke-opacity:1"
       inkscape:connector-curvature="0"
       id="path5"
       d="m 52.3,11.399998 -19.4,0 c -1.5,0 -2.8,-1.2 -2.8,-2.7999997 l 0,-19.3000003 c 0,-1.5 1.2,-2.8 2.8,-2.8 l 19.4,0 c 1.5,0 2.8,1.2 2.8,2.8 l 0,19.4000003 C 55,10.199998 53.8,11.399998 52.3,11.399998 Z"
       class="st0" /><path
       style="fill:#ffffff;stroke:#ffffff;stroke-width:2;stroke-miterlimit:10;stroke-opacity:1;fill-opacity:1"
       inkscape:connector-curvature="0"
       id="path7"
       d="m 46.8,5.9999983 -8.4,0 c -1.5,0 -2.8,-1.2 -2.8,-2.8 l 0,-8.4 c 0,-1.5 1.2,-2.8 2.8,-2.8 l 8.4,0 c 1.5,0 2.8,1.2 2.8,2.8 l 0,8.4 c 0,1.6 -1.3,2.8 -2.8,2.8 z"
       class="st1" /></g></svg>