<?xml version="1.0" encoding="UTF-8" standalone="no"?>
<!-- Generator: Adobe Illustrator 20.1.0, SVG Export Plug-In . SVG Version: 6.00 Build 0)  -->

<svg
   xmlns:dc="http://purl.org/dc/elements/1.1/"
   xmlns:cc="http://creativecommons.org/ns#"
   xmlns:rdf="http://www.w3.org/1999/02/22-rdf-syntax-ns#"
   xmlns:svg="http://www.w3.org/2000/svg"
   xmlns="http://www.w3.org/2000/svg"
   xmlns:sodipodi="http://sodipodi.sourceforge.net/DTD/sodipodi-0.dtd"
   xmlns:inkscape="http://www.inkscape.org/namespaces/inkscape"
   version="1.1"
   id="Camada_1"
   x="0px"
   y="0px"
   viewBox="0 0 68.999999 68.999999"
   xml:space="preserve"
   inkscape:version="0.91 r13725"
   sodipodi:docname="f21.svg"
   width="69"
   height="69"><metadata
     id="metadata83"><rdf:RDF><cc:Work
         rdf:about=""><dc:format>image/svg+xml</dc:format><dc:type
           rdf:resource="http://purl.org/dc/dcmitype/StillImage" /><dc:title /></cc:Work></rdf:RDF></metadata><defs
     id="defs81" /><sodipodi:namedview
     pagecolor="#ffffff"
     bordercolor="#666666"
     borderopacity="1"
     objecttolerance="10"
     gridtolerance="10"
     guidetolerance="10"
     inkscape:pageopacity="0"
     inkscape:pageshadow="2"
     inkscape:window-width="1855"
     inkscape:window-height="1056"
     id="namedview79"
     showgrid="false"
     inkscape:zoom="13.318841"
     inkscape:cx="34.5"
     inkscape:cy="34.5"
     inkscape:window-x="65"
     inkscape:window-y="24"
     inkscape:window-maximized="1"
     inkscape:current-layer="Camada_1" /><style
     type="text/css"
     id="style3">
	.st0{fill:#582983;stroke:#582983;stroke-width:0.75;stroke-miterlimit:10;}
	.st1{fill:#582983;}
</style><g
     id="g4206"
     style="stroke:#097eff;stroke-opacity:0;fill:#097e74;fill-opacity:1"><g
       transform="translate(-39.2,-20.4)"
       id="g7"
       style="stroke:#097eff;stroke-opacity:0;fill:#097e74;fill-opacity:1"><g
         id="g9"
         style="stroke:#097eff;stroke-opacity:0;fill:#097e74;fill-opacity:1"><g
           id="g11"
           style="stroke:#097eff;stroke-opacity:0;fill:#097e74;fill-opacity:1"><g
             id="g13"
             style="stroke:#097eff;stroke-opacity:0;fill:#097e74;fill-opacity:1"><g
               id="g15"
               style="stroke:#097eff;stroke-opacity:0;fill:#097e74;fill-opacity:1"><g
                 id="g17"
                 style="stroke:#097eff;stroke-opacity:0;fill:#097e74;fill-opacity:1"><path
                   class="st0"
                   d="M 103.7,51.2"
                   id="path19"
                   inkscape:connector-curvature="0"
                   style="fill:#097e74;stroke:#097eff;stroke-width:0.75;stroke-miterlimit:10;stroke-opacity:0;fill-opacity:1" /></g></g></g><g
             id="g21"
             style="stroke:#097eff;stroke-opacity:0;fill:#097e74;fill-opacity:1"><g
               id="g23"
               style="stroke:#097eff;stroke-opacity:0;fill:#097e74;fill-opacity:1"><g
                 id="g25"
                 style="stroke:#097eff;stroke-opacity:0;fill:#097e74;fill-opacity:1"><path
                   class="st1"
                   d="m 64.1,50.4 c 0,1.2 -1,2.2 -2.2,2.2 -1.2,0 -2.2,-1 -2.2,-2.2 0,-1.2 1,-2.2 2.2,-2.2 1.2,0 2.2,1 2.2,2.2 l 0,0 z m 0,0"
                   id="path27"
                   inkscape:connector-curvature="0"
                   style="fill:#097e74;stroke:#097eff;stroke-opacity:0;fill-opacity:1" /><path
                   class="st1"
                   d="M 61.9,53.3 C 60.3,53.3 59,52 59,50.4 c 0,-1.6 1.3,-2.9 2.9,-2.9 1.6,0 2.9,1.3 2.9,2.9 0,1.6 -1.3,2.9 -2.9,2.9 z m 0,-4.4 c -0.8,0 -1.5,0.7 -1.5,1.5 0,0.8 0.7,1.5 1.5,1.5 0.8,0 1.5,-0.7 1.5,-1.5 0,-0.8 -0.7,-1.5 -1.5,-1.5 z"
                   id="path29"
                   inkscape:connector-curvature="0"
                   style="fill:#097e74;stroke:#097eff;stroke-opacity:0;fill-opacity:1" /></g></g></g><g
             id="g31"
             style="stroke:#097eff;stroke-opacity:0;fill:#097e74;fill-opacity:1"><g
               id="g33"
               style="stroke:#097eff;stroke-opacity:0;fill:#097e74;fill-opacity:1"><g
                 id="g35"
                 style="stroke:#097eff;stroke-opacity:0;fill:#097e74;fill-opacity:1"><path
                   class="st1"
                   d="m 88.8,50.4 c 0,1.2 -1,2.2 -2.2,2.2 -1.2,0 -2.2,-1 -2.2,-2.2 0,-1.2 1,-2.2 2.2,-2.2 1.2,0 2.2,1 2.2,2.2 l 0,0 z m 0,0"
                   id="path37"
                   inkscape:connector-curvature="0"
                   style="fill:#097e74;stroke:#097eff;stroke-opacity:0;fill-opacity:1" /><path
                   class="st1"
                   d="m 86.5,53.3 c -1.6,0 -2.9,-1.3 -2.9,-2.9 0,-1.6 1.3,-2.9 2.9,-2.9 1.6,0 2.9,1.3 2.9,2.9 0,1.6 -1.2,2.9 -2.9,2.9 z m 0,-4.4 c -0.8,0 -1.5,0.7 -1.5,1.5 0,0.8 0.7,1.5 1.5,1.5 0.8,0 1.5,-0.7 1.5,-1.5 0,-0.8 -0.6,-1.5 -1.5,-1.5 z"
                   id="path39"
                   inkscape:connector-curvature="0"
                   style="fill:#097e74;stroke:#097eff;stroke-opacity:0;fill-opacity:1" /></g></g></g><g
             id="g41"
             style="stroke:#097eff;stroke-opacity:0;fill:#097e74;fill-opacity:1"><g
               id="g43"
               style="stroke:#097eff;stroke-opacity:0;fill:#097e74;fill-opacity:1"><g
                 id="g45"
                 style="stroke:#097eff;stroke-opacity:0;fill:#097e74;fill-opacity:1"><g
                   id="g47"
                   style="stroke:#097eff;stroke-opacity:0;fill:#097e74;fill-opacity:1"><path
                     class="st1"
                     d="m 58,67.3 c 11.2,0 22.5,0 33.7,0 2,0 2,-3.2 0,-3.2 -11.2,0 -22.5,0 -33.7,0 -2,0 -2,3.2 0,3.2 l 0,0 z"
                     id="path49"
                     inkscape:connector-curvature="0"
                     style="fill:#097e74;stroke:#097eff;stroke-opacity:0;fill-opacity:1" /><path
                     class="st1"
                     d="M 91.8,68 58,68 c -1.5,0 -2.2,-1.1 -2.2,-2.3 0,-1.1 0.8,-2.3 2.2,-2.3 l 33.7,0 c 1.5,0 2.2,1.1 2.2,2.3 C 94,66.8 93.3,68 91.8,68 Z M 58,64.8 c -0.8,0 -0.8,0.7 -0.8,0.9 0,0.1 0,0.9 0.8,0.9 l 33.7,0 c 0.8,0 0.8,-0.7 0.8,-0.9 0,-0.1 0,-0.9 -0.8,-0.9 l -33.7,0 z"
                     id="path51"
                     inkscape:connector-curvature="0"
                     style="fill:#097e74;stroke:#097eff;stroke-opacity:0;fill-opacity:1" /></g></g></g></g></g><g
           id="g53"
           style="stroke:#097eff;stroke-opacity:0;fill:#097e74;fill-opacity:1"><g
             id="g55"
             style="stroke:#097eff;stroke-opacity:0;fill:#097e74;fill-opacity:1"><g
               id="g57"
               style="stroke:#097eff;stroke-opacity:0;fill:#097e74;fill-opacity:1"><path
                 class="st1"
                 d="m 73.8,87.9 c -18.2,0 -33,-14.8 -33,-33 0,-18.2 14.8,-33 33,-33 18.2,0 33,14.8 33,33 0,18.2 -14.8,33 -33,33 z m 0,-63.8 c -17,0 -30.8,13.8 -30.8,30.8 0,17 13.8,30.8 30.8,30.8 17,0 30.8,-13.8 30.8,-30.8 0,-17 -13.8,-30.8 -30.8,-30.8 z"
                 id="path59"
                 inkscape:connector-curvature="0"
                 style="fill:#097e74;stroke:#097eff;stroke-opacity:0;fill-opacity:1" /><path
                 class="st1"
                 d="M 73.8,88.6 C 55.2,88.6 40,73.5 40,54.9 40,36.3 55.1,21.2 73.7,21.2 c 18.6,0 33.7,15.1 33.7,33.7 0,18.6 -15,33.7 -33.6,33.7 z m 0,-66 c -17.8,0 -32.3,14.5 -32.3,32.3 0,17.8 14.5,32.3 32.3,32.3 17.8,0 32.3,-14.5 32.3,-32.3 0,-17.8 -14.5,-32.3 -32.3,-32.3 z m 0,63.8 c -17.4,0 -31.5,-14.1 -31.5,-31.5 0,-17.4 14.1,-31.5 31.5,-31.5 17.4,0 31.5,14.1 31.5,31.5 0,17.4 -14.2,31.5 -31.5,31.5 z m 0,-61.6 C 57.2,24.8 43.7,38.3 43.7,54.9 43.7,71.5 57.2,85 73.8,85 90.4,85 103.9,71.5 103.9,54.9 103.9,38.3 90.4,24.8 73.8,24.8 Z"
                 id="path61"
                 inkscape:connector-curvature="0"
                 style="fill:#097e74;stroke:#097eff;stroke-opacity:0;fill-opacity:1" /></g></g></g></g></g><g
       transform="matrix(0.93969262,0.34202014,-0.34202014,0.93969262,-18.93655,-47.419738)"
       id="g63"
       style="stroke:#097eff;stroke-opacity:0;fill:#097e74;fill-opacity:1"><g
         id="g65"
         style="stroke:#097eff;stroke-opacity:0;fill:#097e74;fill-opacity:1"><path
           class="st1"
           d="m 83.4,45.3 c 0.2,0.1 0.4,0.1 0.6,0.1 l 5.5,-0.2 c 0.7,0 1.3,-0.6 1.3,-1.4 0,-0.7 -0.6,-1.3 -1.4,-1.3 l -5.5,0.2 c -0.7,0 -1.3,0.6 -1.3,1.4 0.1,0.5 0.4,1 0.8,1.2 l 0,0 z m 0,0"
           id="path67"
           inkscape:connector-curvature="0"
           style="fill:#097e74;stroke:#097eff;stroke-opacity:0;fill-opacity:1" /><path
           class="st1"
           d="m 84,46.1 c -0.3,0 -0.5,-0.1 -0.8,-0.2 l 0,0 C 82.5,45.6 82,44.9 82,44.1 82,43 82.8,42 83.9,42 l 5.5,-0.2 c 0.5,0 1.1,0.2 1.5,0.5 0.4,0.4 0.6,0.9 0.6,1.4 0,1.1 -0.8,2.1 -1.9,2.1 L 84,46.1 c 0,0 0,0 0,0 z m 5.5,-2.9 c 0,0 0,0 0,0 l -5.6,0.2 c -0.3,0 -0.6,0.3 -0.6,0.6 0,0.2 0.2,0.5 0.4,0.5 l 0,0 c 0.1,0 0.2,0.1 0.3,0 l 5.5,-0.2 c 0.3,0 0.6,-0.3 0.6,-0.6 0,-0.2 -0.1,-0.3 -0.2,-0.4 -0.1,0 -0.2,-0.1 -0.4,-0.1 z"
           id="path69"
           inkscape:connector-curvature="0"
           style="fill:#097e74;stroke:#097eff;stroke-opacity:0;fill-opacity:1" /></g></g><g
       transform="matrix(0.93969262,-0.34202014,0.34202014,0.93969262,-50.537958,3.1992431)"
       id="g71"
       style="stroke:#097eff;stroke-opacity:0;fill:#097e74;fill-opacity:1"><g
         id="g73"
         style="stroke:#097eff;stroke-opacity:0;fill:#097e74;fill-opacity:1"><path
           class="st1"
           d="m 58,45.3 c 0.2,0.1 0.4,0.1 0.6,0.1 l 5.5,-0.2 c 0.7,0 1.3,-0.6 1.3,-1.4 0,-0.7 -0.6,-1.3 -1.4,-1.3 l -5.5,0.2 c -0.7,0 -1.3,0.6 -1.3,1.4 0,0.5 0.3,1 0.8,1.2 l 0,0 z m 0,0"
           id="path75"
           inkscape:connector-curvature="0"
           style="fill:#097e74;stroke:#097eff;stroke-opacity:0;fill-opacity:1" /><path
           class="st1"
           d="M 58.5,46.1 C 58.2,46.1 58,46 57.7,45.9 l 0,0 C 57,45.6 56.5,44.9 56.5,44.1 56.5,43 57.3,42 58.4,42 l 5.5,-0.2 c 0.5,0 1.1,0.2 1.5,0.5 0.4,0.4 0.6,0.9 0.6,1.4 0,1.1 -0.8,2.1 -1.9,2.1 l -5.6,0.3 c 0,0 0,0 0,0 z M 64,43.2 c 0,0 0,0 0,0 l -5.6,0.2 c -0.3,0 -0.6,0.3 -0.6,0.6 0,0.2 0.2,0.5 0.4,0.5 l 0,0 c 0.1,0 0.2,0.1 0.3,0 L 64,44.3 c 0.3,0 0.6,-0.3 0.6,-0.6 0,-0.2 -0.1,-0.3 -0.2,-0.4 -0.1,0 -0.2,-0.1 -0.4,-0.1 z"
           id="path77"
           inkscape:connector-curvature="0"
           style="fill:#097e74;stroke:#097eff;stroke-opacity:0;fill-opacity:1" /></g></g></g></svg>