<?xml version="1.0" encoding="UTF-8" standalone="no"?>
<!-- Generator: Adobe Illustrator 20.1.0, SVG Export Plug-In . SVG Version: 6.00 Build 0)  -->

<svg
   xmlns:dc="http://purl.org/dc/elements/1.1/"
   xmlns:cc="http://creativecommons.org/ns#"
   xmlns:rdf="http://www.w3.org/1999/02/22-rdf-syntax-ns#"
   xmlns:svg="http://www.w3.org/2000/svg"
   xmlns="http://www.w3.org/2000/svg"
   xmlns:sodipodi="http://sodipodi.sourceforge.net/DTD/sodipodi-0.dtd"
   xmlns:inkscape="http://www.inkscape.org/namespaces/inkscape"
   version="1.1"
   id="Camada_1"
   x="0px"
   y="0px"
   viewBox="0 0 68.999999 68.999999"
   xml:space="preserve"
   inkscape:version="0.91 r13725"
   sodipodi:docname="CARINHA MUITO FELI.svg"
   width="69"
   height="69"><metadata
     id="metadata55"><rdf:RDF><cc:Work
         rdf:about=""><dc:format>image/svg+xml</dc:format><dc:type
           rdf:resource="http://purl.org/dc/dcmitype/StillImage" /><dc:title></dc:title></cc:Work></rdf:RDF></metadata><defs
     id="defs53" /><sodipodi:namedview
     pagecolor="#ffffff"
     bordercolor="#666666"
     borderopacity="1"
     objecttolerance="10"
     gridtolerance="10"
     guidetolerance="10"
     inkscape:pageopacity="0"
     inkscape:pageshadow="2"
     inkscape:window-width="1855"
     inkscape:window-height="1056"
     id="namedview51"
     showgrid="false"
     inkscape:zoom="7.29623"
     inkscape:cx="73.900002"
     inkscape:cy="49.450001"
     inkscape:window-x="65"
     inkscape:window-y="24"
     inkscape:window-maximized="1"
     inkscape:current-layer="Camada_1" /><style
     type="text/css"
     id="style3">
	.st0{fill:#582983;}
</style><g
     id="g5"
     transform="translate(-37.8,-20.3)"><g
       id="g7"><path
         class="st0"
         d="m 62.6,50.3 c 0,1.2 -1,2.2 -2.2,2.2 -1.2,0 -2.2,-1 -2.2,-2.2 0,-1.2 1,-2.2 2.2,-2.2 1.2,0 2.2,1 2.2,2.2 l 0,0 z m 0,0"
         id="path9"
         inkscape:connector-curvature="0"
         style="fill:#582983" /><path
         class="st0"
         d="m 60.4,53 c -1.5,0 -2.8,-1.2 -2.8,-2.8 0,-1.5 1.2,-2.8 2.8,-2.8 1.5,0 2.8,1.2 2.8,2.8 0,1.6 -1.3,2.8 -2.8,2.8 z m 0,-4.4 c -0.9,0 -1.7,0.8 -1.7,1.7 0,0.9 0.8,1.7 1.7,1.7 0.9,0 1.7,-0.8 1.7,-1.7 0,-1 -0.7,-1.7 -1.7,-1.7 z"
         id="path11"
         inkscape:connector-curvature="0"
         style="fill:#582983" /></g><g
       id="g13"><path
         class="st0"
         d="m 87.3,50.3 c 0,1.2 -1,2.2 -2.2,2.2 -1.2,0 -2.2,-1 -2.2,-2.2 0,-1.2 1,-2.2 2.2,-2.2 1.2,0 2.2,1 2.2,2.2 l 0,0 z m 0,0"
         id="path15"
         inkscape:connector-curvature="0"
         style="fill:#582983" /><path
         class="st0"
         d="m 85.1,53 c -1.5,0 -2.8,-1.2 -2.8,-2.8 0,-1.5 1.2,-2.8 2.8,-2.8 1.6,0 2.8,1.2 2.8,2.8 -0.1,1.6 -1.3,2.8 -2.8,2.8 z m 0,-4.4 c -0.9,0 -1.7,0.8 -1.7,1.7 0,0.9 0.8,1.7 1.7,1.7 0.9,0 1.7,-0.8 1.7,-1.7 0,-1 -0.8,-1.7 -1.7,-1.7 z"
         id="path17"
         inkscape:connector-curvature="0"
         style="fill:#582983" /></g><g
       id="g19"><g
         id="g21"><path
           class="st0"
           d="m 72.3,87.8 c -18.2,0 -33,-14.8 -33,-33 0,-18.2 14.8,-33 33,-33 18.2,0 33,14.8 33,33 0,18.2 -14.8,33 -33,33 z m 0,-63.8 c -17,0 -30.8,13.8 -30.8,30.8 0,17 13.8,30.8 30.8,30.8 17,0 30.8,-13.8 30.8,-30.8 C 103.1,37.8 89.3,24 72.3,24 Z"
           id="path23"
           inkscape:connector-curvature="0"
           style="fill:#582983" /><path
           class="st0"
           d="m 72.3,88.3 c -18.5,0 -33.5,-15 -33.5,-33.5 0,-18.5 15,-33.5 33.5,-33.5 18.5,0 33.5,15 33.5,33.5 0,18.5 -15,33.5 -33.5,33.5 z m 0,-66 c -17.9,0 -32.5,14.6 -32.5,32.5 0,17.9 14.6,32.5 32.5,32.5 17.9,0 32.5,-14.6 32.5,-32.5 0,-17.9 -14.6,-32.5 -32.5,-32.5 z m 0,63.8 C 55,86.1 41,72 41,54.8 41,37.5 55.1,23.5 72.3,23.5 c 17.3,0 31.3,14.1 31.3,31.3 0,17.3 -14,31.3 -31.3,31.3 z m 0,-61.6 C 55.6,24.5 42,38.1 42,54.8 42,71.5 55.6,85.1 72.3,85.1 89,85.1 102.6,71.5 102.6,54.8 102.6,38.1 89,24.5 72.3,24.5 Z"
           id="path25"
           inkscape:connector-curvature="0"
           style="fill:#582983" /></g></g><g
       id="g27"><g
         id="g29"><path
           class="st0"
           d="m 71.7,80.9 c -3.4,0 -5.9,-0.8 -7.5,-1.4 C 63.7,79.3 63.3,79.2 63,79.1 62.4,79 56.2,74.8 54.3,63.8 c -0.2,-1.1 0.2,-2.1 1,-2.7 0.8,-0.6 1.8,-0.7 2.7,-0.3 l 0,0 c 5.5,2.4 14.7,4.3 27.3,-0.7 0.9,-0.4 2.1,-0.1 3.1,0.6 0.9,0.7 1.4,1.6 1.3,2.5 -0.4,4.1 -4.1,13.5 -7.9,15.2 -3.9,1.9 -7.3,2.5 -10.1,2.5 z m -8.2,-3.8 c 0.4,0.1 0.8,0.2 1.3,0.4 2.9,1 8.2,2.7 16.1,-1 2.7,-1.3 6.3,-9.7 6.7,-13.5 0,-0.1 -0.1,-0.4 -0.5,-0.6 -0.4,-0.3 -0.8,-0.4 -1,-0.3 -13.3,5.3 -23.1,3.3 -28.9,0.7 l 0,0 c -0.3,-0.1 -0.5,0 -0.6,0.1 -0.2,0.2 -0.3,0.4 -0.3,0.7 1.7,9.4 6.6,13.1 7.2,13.5 z"
           id="path31"
           inkscape:connector-curvature="0"
           style="fill:#582983" /><path
           class="st0"
           d="M 71.7,81.4 C 68.2,81.4 65.6,80.5 64,80 63.5,79.8 63.1,79.7 62.9,79.7 62.1,79.6 55.7,75.4 53.8,64 c -0.2,-1.2 0.3,-2.5 1.2,-3.2 0.9,-0.7 2.2,-0.9 3.3,-0.4 5.4,2.4 14.4,4.2 26.9,-0.7 1.1,-0.4 2.5,-0.2 3.6,0.7 1,0.8 1.6,1.9 1.5,3 -0.4,4.3 -4.2,13.8 -8.2,15.7 -3.6,1.5 -7.1,2.3 -10.4,2.3 z M 57,61.1 c -0.5,0 -0.9,0.2 -1.3,0.5 -0.7,0.5 -1,1.4 -0.8,2.2 1.8,10.5 7.5,14.6 8.3,14.9 0.3,0.1 0.6,0.2 1.1,0.3 1.7,0.6 4.2,1.4 7.5,1.4 3.2,0 6.6,-0.8 10,-2.4 3.5,-1.6 7.2,-10.8 7.6,-14.8 0.1,-0.7 -0.3,-1.5 -1.1,-2.1 -0.8,-0.6 -1.8,-0.8 -2.6,-0.5 -12.8,5.1 -22.1,3.2 -27.7,0.7 -0.4,-0.2 -0.7,-0.2 -1,-0.2 z m 14.7,18.2 c -3.1,0 -5.4,-0.8 -7,-1.3 -0.5,-0.2 -0.9,-0.3 -1.2,-0.4 l -0.2,-0.1 c -0.6,-0.4 -5.7,-4.2 -7.4,-14 -0.1,-0.5 0.1,-0.9 0.5,-1.2 0.3,-0.3 0.7,-0.3 1.1,-0.1 5.8,2.6 15.4,4.5 28.5,-0.7 0.4,-0.2 1,0 1.5,0.4 0.4,0.3 0.7,0.8 0.7,1.1 -0.4,4 -4.1,12.6 -7,14 -3.7,1.8 -6.9,2.3 -9.5,2.3 z m -7.9,-2.7 c 0.4,0.1 0.7,0.2 1.2,0.4 2.8,0.9 8,2.7 15.8,-0.9 2.5,-1.2 6,-9.4 6.4,-13.1 0,0.1 -0.1,-0.1 -0.3,-0.2 -0.3,-0.2 -0.5,-0.3 -0.6,-0.2 -13.4,5.3 -23.3,3.2 -29.3,0.6 -0.1,0.1 -0.1,0.2 -0.1,0.2 1.5,9 6,12.6 6.9,13.2 z"
           id="path33"
           inkscape:connector-curvature="0"
           style="fill:#582983" /></g></g><g
       id="g35"><g
         id="g37"><path
           class="st0"
           d="m 56.2,45.8 c -0.1,0.3 0.3,-0.6 0.4,-0.8 0.4,-0.7 0.8,-1.4 1.3,-1.9 1.8,-2 3.5,-0.9 5,0.9 0.8,1.1 2.3,-0.4 1.5,-1.5 -1.8,-2.3 -4.5,-3.7 -7.1,-1.6 -1.4,1.1 -2.4,2.8 -3.1,4.4 -0.6,1.2 1.5,1.7 2,0.5 l 0,0 z"
           id="path39"
           inkscape:connector-curvature="0"
           style="fill:#582983" /><path
           class="st0"
           d="m 55.1,47 c -0.2,0 -0.5,0 -0.7,-0.1 -0.8,-0.3 -1.1,-1.1 -0.8,-1.9 0.8,-2 1.9,-3.6 3.2,-4.6 2.5,-1.9 5.5,-1.3 7.9,1.7 0.6,0.8 0.4,1.9 -0.3,2.4 -0.7,0.5 -1.5,0.4 -2,-0.2 -0.9,-1.1 -1.7,-1.7 -2.5,-1.8 -0.5,0 -1.1,0.3 -1.7,0.9 -0.4,0.5 -0.8,1.1 -1.3,1.8 0,0.1 -0.1,0.3 -0.2,0.5 -0.1,0.1 -0.1,0.2 -0.2,0.3 -0.2,0.7 -0.8,1 -1.4,1 z m 4.8,-6.6 c -0.7,0 -1.5,0.2 -2.3,0.9 -1.1,0.9 -2.1,2.3 -2.9,4.2 0,0.1 -0.5,0.3 -0.1,0.5 0.1,0 0.4,0 0.4,-0.4 l 0,0 0,0 0.4,0 0.1,0 c 0,0 0.2,-0.2 0.2,-0.3 0.1,-0.2 0.2,-0.4 0.3,-0.5 0.5,-0.9 0.9,-1.5 1.4,-2.1 0.8,-0.8 1.6,-1.3 2.5,-1.2 1.1,0 2.1,0.7 3.3,2.2 0.1,0.1 0.2,0.3 0.5,0.1 0.2,-0.2 0.4,-0.5 0.1,-0.9 -0.6,-0.9 -2.1,-2.5 -3.9,-2.5 z"
           id="path41"
           inkscape:connector-curvature="0"
           style="fill:#582983" /></g></g><g
       id="g43"><g
         id="g45"><path
           class="st0"
           d="m 89.9,45.2 c -0.7,-1.6 -1.7,-3.3 -3.1,-4.4 -2.6,-2 -5.3,-0.7 -7.1,1.6 -0.8,1.1 0.6,2.6 1.5,1.5 1.5,-1.8 3.2,-2.9 5,-0.9 0.5,0.6 0.9,1.2 1.3,1.9 0.1,0.2 0.2,0.5 0.4,0.7 0.1,0.1 0.2,0.4 0.1,0.2 0.4,1.2 2.4,0.7 1.9,-0.6 l 0,0 z"
           id="path47"
           inkscape:connector-curvature="0"
           style="fill:#582983" /><path
           class="st0"
           d="M 88.9,47 C 88.5,47 88,46.8 87.7,46.5 l -0.1,0 -0.3,-0.7 c -0.1,-0.2 -0.2,-0.5 -0.4,-0.7 -0.4,-0.7 -0.8,-1.3 -1.2,-1.7 -0.6,-0.6 -1.1,-0.9 -1.7,-0.9 -0.7,0 -1.6,0.6 -2.5,1.8 -0.3,0.4 -0.8,0.6 -1.3,0.5 -0.5,-0.1 -1,-0.5 -1.3,-1.1 -0.2,-0.6 -0.1,-1.2 0.2,-1.6 2.4,-3 5.4,-3.7 7.9,-1.7 1.3,1 2.4,2.6 3.2,4.6 l 0,0 c 0.3,0.8 0,1.5 -0.8,1.9 0,0.1 -0.2,0.1 -0.5,0.1 z m -0.5,-1.4 c 0.2,0.4 0.6,0.4 0.9,0.3 0.3,-0.1 0.2,-0.4 0.2,-0.5 -0.7,-1.8 -1.7,-3.3 -2.9,-4.2 -2.9,-2.3 -5.4,0.3 -6.4,1.6 C 80,43 80,43.3 80,43.4 c 0.1,0.2 0.3,0.4 0.4,0.4 0,0 0.2,0 0.3,-0.2 1.1,-1.4 2.2,-2.1 3.3,-2.2 0.9,0 1.7,0.4 2.5,1.2 0.5,0.5 0.9,1.1 1.4,2 0.1,0.2 0.3,0.5 0.4,0.7 l 0.1,0.3 0,0 z"
           id="path49"
           inkscape:connector-curvature="0"
           style="fill:#582983" /></g></g></g></svg>