<?xml version="1.0" encoding="UTF-8" standalone="no"?>
<!-- Generator: Adobe Illustrator 20.1.0, SVG Export Plug-In . SVG Version: 6.00 Build 0)  -->

<svg
   xmlns:dc="http://purl.org/dc/elements/1.1/"
   xmlns:cc="http://creativecommons.org/ns#"
   xmlns:rdf="http://www.w3.org/1999/02/22-rdf-syntax-ns#"
   xmlns:svg="http://www.w3.org/2000/svg"
   xmlns="http://www.w3.org/2000/svg"
   xmlns:sodipodi="http://sodipodi.sourceforge.net/DTD/sodipodi-0.dtd"
   xmlns:inkscape="http://www.inkscape.org/namespaces/inkscape"
   version="1.1"
   id="Camada_1"
   x="0px"
   y="0px"
   viewBox="0 0 33.000001 22"
   xml:space="preserve"
   inkscape:version="0.91 r13725"
   sodipodi:docname="RADIO BUTTON_01.svg"
   width="33"
   height="22"><metadata
     id="metadata21"><rdf:RDF><cc:Work
         rdf:about=""><dc:format>image/svg+xml</dc:format><dc:type
           rdf:resource="http://purl.org/dc/dcmitype/StillImage" /><dc:title></dc:title></cc:Work></rdf:RDF></metadata><defs
     id="defs19" /><sodipodi:namedview
     pagecolor="#ffffff"
     bordercolor="#666666"
     borderopacity="1"
     objecttolerance="10"
     gridtolerance="10"
     guidetolerance="10"
     inkscape:pageopacity="0"
     inkscape:pageshadow="2"
     inkscape:window-width="1855"
     inkscape:window-height="1056"
     id="namedview17"
     showgrid="false"
     inkscape:zoom="12.899316"
     inkscape:cx="41.799999"
     inkscape:cy="28.5"
     inkscape:window-x="65"
     inkscape:window-y="24"
     inkscape:window-maximized="1"
     inkscape:current-layer="Camada_1" /><style
     type="text/css"
     id="style3">
	.st0{fill:#D4AE12;}
</style><g
     id="g5"
     transform="translate(-25.75,-17.3)"><g
       id="g7"><g
         id="g9"><path
           class="st0"
           d="m 49.5,37.2 -14.5,0 c -4.3,0 -7.9,-4 -7.9,-8.9 0,-4.9 3.5,-8.9 7.9,-8.9 l 14.5,0 c 4.3,0 7.9,4 7.9,8.9 0,4.9 -3.6,8.9 -7.9,8.9 z M 35,19.9 c -4.1,0 -7.4,3.7 -7.4,8.4 0,4.7 3.3,8.4 7.4,8.4 l 14.5,0 c 4.1,0 7.4,-3.7 7.4,-8.4 0,-4.6 -3.3,-8.4 -7.4,-8.4 l -14.5,0 z"
           id="path11"
           inkscape:connector-curvature="0"
           style="fill:#d4ae12" /><path
           class="st0"
           d="m 49.5,37.6 -14.5,0 c -4.6,0 -8.3,-4.2 -8.3,-9.3 0,-5.1 3.7,-9.3 8.3,-9.3 l 14.5,0 c 4.6,0 8.3,4.2 8.3,9.3 0,5.1 -3.7,9.3 -8.3,9.3 z M 35,20.4 c -3.9,0 -7,3.5 -7,7.9 0,4.4 3.1,7.9 7,7.9 l 14.5,0 c 3.9,0 7,-3.5 7,-7.9 0,-4.4 -3.1,-7.9 -7,-7.9 l -14.5,0 z"
           id="path13"
           inkscape:connector-curvature="0"
           style="fill:#d4ae12" /></g></g><circle
       class="st0"
       cx="36"
       cy="28.4"
       r="5.5"
       id="circle15"
       style="fill:#d4ae12" /></g></svg>