<?xml version="1.0" encoding="UTF-8" standalone="no"?>
<!-- Generator: Adobe Illustrator 20.1.0, SVG Export Plug-In . SVG Version: 6.00 Build 0)  -->

<svg
   xmlns:dc="http://purl.org/dc/elements/1.1/"
   xmlns:cc="http://creativecommons.org/ns#"
   xmlns:rdf="http://www.w3.org/1999/02/22-rdf-syntax-ns#"
   xmlns:svg="http://www.w3.org/2000/svg"
   xmlns="http://www.w3.org/2000/svg"
   xmlns:sodipodi="http://sodipodi.sourceforge.net/DTD/sodipodi-0.dtd"
   xmlns:inkscape="http://www.inkscape.org/namespaces/inkscape"
   version="1.1"
   id="Camada_1"
   x="0px"
   y="0px"
   viewBox="0 0 67.999999 67.999999"
   xml:space="preserve"
   inkscape:version="0.91 r13725"
   sodipodi:docname="SADFACE.svg"
   width="68"
   height="68"><metadata
     id="metadata4310"><rdf:RDF><cc:Work
         rdf:about=""><dc:format>image/svg+xml</dc:format><dc:type
           rdf:resource="http://purl.org/dc/dcmitype/StillImage" /><dc:title></dc:title></cc:Work></rdf:RDF></metadata><defs
     id="defs4308" /><sodipodi:namedview
     pagecolor="#ffffff"
     bordercolor="#666666"
     borderopacity="1"
     objecttolerance="10"
     gridtolerance="10"
     guidetolerance="10"
     inkscape:pageopacity="0"
     inkscape:pageshadow="2"
     inkscape:window-width="1855"
     inkscape:window-height="1056"
     id="namedview4306"
     showgrid="false"
     inkscape:zoom="6.2816724"
     inkscape:cx="63.13325"
     inkscape:cy="36.152554"
     inkscape:window-x="65"
     inkscape:window-y="24"
     inkscape:window-maximized="1"
     inkscape:current-layer="Camada_1" /><style
     type="text/css"
     id="style4256">
	.st0{fill:#582983;stroke:#582983;stroke-width:0.75;stroke-miterlimit:10;}
	.st1{fill:#582983;}
</style><g
     id="g4258"
     style="fill:#d8b212;fill-opacity:1"
     transform="translate(-39.9,-16.1)"><g
       id="g4260"
       style="fill:#d8b212;fill-opacity:1"><g
         id="g4262"
         style="fill:#d8b212;fill-opacity:1"><g
           id="g4264"
           style="fill:#d8b212;fill-opacity:1"><path
             class="st0"
             d="M 103.8,46.3"
             id="path4266"
             style="fill:#d8b212;fill-opacity:1;stroke:#582983;stroke-width:0.75;stroke-miterlimit:10"
             inkscape:connector-curvature="0" /></g><g
           id="g4268"
           style="fill:#d8b212;fill-opacity:1"><path
             class="st1"
             d="m 64.3,45.6 c 0,1.2 -1,2.2 -2.2,2.2 -1.2,0 -2.2,-1 -2.2,-2.2 0,-1.2 1,-2.2 2.2,-2.2 1.2,-0.1 2.2,0.9 2.2,2.2 l 0,0 z m 0,0"
             id="path4270"
             style="fill:#d8b212;fill-opacity:1"
             inkscape:connector-curvature="0" /><path
             class="st1"
             d="m 62,48.5 c -1.6,0 -2.9,-1.3 -2.9,-2.9 0,-1.6 1.3,-2.9 2.9,-2.9 1.6,0 3,1.3 3,2.9 0,1.6 -1.4,2.9 -3,2.9 z M 62,44 c -0.8,0 -1.5,0.7 -1.5,1.5 0,0.8 0.7,1.5 1.5,1.5 0.8,0 1.5,-0.7 1.5,-1.5 C 63.5,44.7 62.9,44 62,44 Z"
             id="path4272"
             style="fill:#d8b212;fill-opacity:1"
             inkscape:connector-curvature="0" /></g><g
           id="g4274"
           style="fill:#d8b212;fill-opacity:1"><path
             class="st1"
             d="m 88.9,45.6 c 0,1.2 -1,2.2 -2.2,2.2 -1.2,0 -2.2,-1 -2.2,-2.2 0,-1.2 1,-2.2 2.2,-2.2 1.2,-0.1 2.2,0.9 2.2,2.2 l 0,0 z m 0,0"
             id="path4276"
             style="fill:#d8b212;fill-opacity:1"
             inkscape:connector-curvature="0" /><path
             class="st1"
             d="m 86.7,48.5 c -1.6,0 -2.9,-1.3 -2.9,-2.9 0,-1.6 1.3,-2.9 2.9,-2.9 1.6,0 2.9,1.3 2.9,2.9 0,1.6 -1.3,2.9 -2.9,2.9 z m 0,-4.5 c -0.8,0 -1.5,0.7 -1.5,1.5 0,0.8 0.7,1.5 1.5,1.5 0.8,0 1.5,-0.7 1.5,-1.5 0,-0.8 -0.7,-1.5 -1.5,-1.5 z"
             id="path4278"
             style="fill:#d8b212;fill-opacity:1"
             inkscape:connector-curvature="0" /></g><g
           id="g4280"
           style="fill:#d8b212;fill-opacity:1"><path
             class="st1"
             d="m 58.5,42.5 c 0.2,0 0.4,0 0.6,-0.1 l 5,-2.4 c 0.7,-0.3 0.9,-1.1 0.6,-1.8 -0.3,-0.7 -1.1,-0.9 -1.8,-0.6 L 58,40 c -0.7,0.3 -0.9,1.1 -0.6,1.8 0.2,0.4 0.6,0.7 1.1,0.7 l 0,0 z m 0,0"
             id="path4282"
             style="fill:#d8b212;fill-opacity:1"
             inkscape:connector-curvature="0" /><path
             class="st1"
             d="m 58.5,43.2 c -0.8,0 -1.5,-0.5 -1.8,-1.2 -0.2,-0.5 -0.3,-1 -0.1,-1.5 0.2,-0.5 0.5,-0.9 1,-1.2 l 5,-2.4 c 0.5,-0.2 1,-0.3 1.5,-0.1 0.5,0.2 0.9,0.6 1.2,1 0.5,1 0,2.2 -1,2.7 l -5,2.4 c -0.2,0.3 -0.5,0.3 -0.8,0.3 z m 5,-5 c -0.1,0 -0.2,0 -0.3,0.1 l -5,2.4 c -0.1,0.1 -0.3,0.2 -0.3,0.4 -0.1,0.2 0,0.3 0,0.5 0.1,0.3 0.5,0.4 0.8,0.3 l 5,-2.4 C 64,39.4 64.1,39 64,38.7 c -0.1,-0.1 -0.2,-0.3 -0.4,-0.3 0.1,-0.2 0,-0.2 -0.1,-0.2 z"
             id="path4284"
             style="fill:#d8b212;fill-opacity:1"
             inkscape:connector-curvature="0" /></g><g
           id="g4286"
           style="fill:#d8b212;fill-opacity:1"><path
             class="st1"
             d="m 84.2,40 5,2.4 c 0.2,0.1 0.4,0.1 0.6,0.1 0.5,0 1,-0.3 1.2,-0.8 0.3,-0.7 0,-1.4 -0.6,-1.8 l -5,-2.4 c -0.7,-0.3 -1.4,0 -1.8,0.6 -0.4,0.8 -0.1,1.6 0.6,1.9 l 0,0 z m 0,0"
             id="path4288"
             style="fill:#d8b212;fill-opacity:1"
             inkscape:connector-curvature="0" /><path
             class="st1"
             d="m 89.8,43.2 c -0.3,0 -0.6,-0.1 -0.9,-0.2 l -5,-2.4 C 83.4,40.4 83,40 82.9,39.4 82.7,38.9 82.7,38.3 83,37.9 c 0.2,-0.5 0.6,-0.9 1.2,-1 0.5,-0.2 1.1,-0.2 1.5,0.1 l 5,2.4 c 0.5,0.2 0.9,0.6 1,1.2 0.2,0.5 0.2,1.1 -0.1,1.5 -0.4,0.7 -1.1,1.1 -1.8,1.1 z m -5.3,-3.8 5,2.4 c 0.3,0.1 0.7,0 0.8,-0.3 0.1,-0.1 0.1,-0.3 0,-0.5 -0.1,-0.2 -0.2,-0.3 -0.3,-0.4 l -5,-2.4 c -0.2,-0.1 -0.3,-0.1 -0.5,0 -0.2,0.1 -0.3,0.2 -0.4,0.3 -0.1,0.1 -0.1,0.3 0,0.5 0.1,0.2 0.2,0.3 0.4,0.4 l 0,0 z"
             id="path4290"
             style="fill:#d8b212;fill-opacity:1"
             inkscape:connector-curvature="0" /></g><g
           id="g4292"
           style="fill:#d8b212;fill-opacity:1"><path
             class="st1"
             d="m 89.3,60.5 c 0.3,0.2 0.6,0.2 1,0.2 0.3,-0.1 0.7,-0.3 0.9,-0.6 0.4,-0.6 0.2,-1.4 -0.4,-1.8 C 87,56 82.7,54.8 78.2,54.8 l -8.2,0 c -4.4,0 -8.8,1.2 -12.6,3.5 -0.6,0.4 -0.8,1.2 -0.4,1.8 0.4,0.6 1.2,0.8 1.8,0.4 3.4,-2.1 7.2,-3.1 11.2,-3.1 l 8.2,0 c 3.9,-0.1 7.7,1 11.1,3.1 l 0,0 z m 0,0"
             id="path4294"
             style="fill:#d8b212;fill-opacity:1"
             inkscape:connector-curvature="0" /><path
             class="st1"
             d="m 90,61.3 c -0.4,0 -0.7,-0.1 -1.1,-0.3 l 0,0 c -3.3,-2 -7,-3 -10.8,-3 l -8.2,0 c -3.8,0 -7.6,1.1 -10.8,3 -1,0.6 -2.2,0.3 -2.8,-0.7 -0.3,-0.5 -0.4,-1 -0.2,-1.5 0.1,-0.5 0.5,-1 0.9,-1.3 3.9,-2.4 8.4,-3.6 12.9,-3.6 l 8.2,0 c 4.6,0 9,1.3 12.9,3.6 0.5,0.3 0.8,0.7 0.9,1.3 0.1,0.6 0,1.1 -0.2,1.5 -0.3,0.5 -0.8,0.8 -1.3,0.9 -0.1,0.1 -0.3,0.1 -0.4,0.1 z m -0.3,-1.4 c 0.1,0.1 0.3,0.1 0.5,0.1 0.2,0 0.3,-0.1 0.4,-0.3 0.1,-0.1 0.1,-0.3 0.1,-0.5 0,-0.2 -0.1,-0.3 -0.3,-0.4 -3.7,-2.2 -7.9,-3.4 -12.2,-3.4 l -8.2,0 c -4.3,0 -8.5,1.2 -12.2,3.4 -0.1,0.1 -0.2,0.2 -0.3,0.4 0,0.2 0,0.3 0.1,0.5 0.2,0.3 0.6,0.4 0.9,0.2 C 62,57.8 66,56.7 70,56.7 l 8.2,0 c 4,-0.1 8,1 11.5,3.2 l 0,0 z"
             id="path4296"
             style="fill:#d8b212;fill-opacity:1"
             inkscape:connector-curvature="0" /></g></g><g
         id="g4298"
         style="fill:#d8b212;fill-opacity:1"><g
           id="g4300"
           style="fill:#d8b212;fill-opacity:1"><path
             class="st1"
             d="m 73.9,83.1 c -18.2,0 -33,-14.8 -33,-33 0,-18.2 14.8,-33 33,-33 18.2,0 33,14.8 33,33 0,18.2 -14.8,33 -33,33 z m 0,-63.8 c -17,0 -30.8,13.8 -30.8,30.8 0,17 13.8,30.8 30.8,30.8 17,0 30.8,-13.8 30.8,-30.8 0,-17 -13.8,-30.8 -30.8,-30.8 z"
             id="path4302"
             style="fill:#d8b212;fill-opacity:1"
             inkscape:connector-curvature="0" /><path
             class="st1"
             d="m 73.9,83.8 c -18.6,0 -33.7,-15.1 -33.7,-33.7 0,-18.6 15.1,-33.7 33.7,-33.7 18.6,0 33.7,15.1 33.7,33.7 0,18.6 -15.1,33.7 -33.7,33.7 z m 0,-66 c -17.8,0 -32.3,14.5 -32.3,32.3 0,17.8 14.5,32.3 32.3,32.3 17.8,0 32.3,-14.5 32.3,-32.3 0,-17.8 -14.5,-32.3 -32.3,-32.3 z m 0,63.8 c -17.4,0 -31.5,-14.1 -31.5,-31.5 0,-17.4 14.1,-31.5 31.5,-31.5 17.4,0 31.5,14.1 31.5,31.5 0,17.4 -14.1,31.5 -31.5,31.5 z M 73.9,20 C 57.3,20 43.8,33.5 43.8,50.1 43.8,66.7 57.3,80.2 73.9,80.2 90.5,80.2 104,66.7 104,50.1 104,33.5 90.5,20 73.9,20 Z"
             id="path4304"
             style="fill:#d8b212;fill-opacity:1"
             inkscape:connector-curvature="0" /></g></g></g></g></svg>