<?xml version="1.0" encoding="UTF-8" standalone="no"?>
<svg width="222px" height="122px" viewBox="0 0 222 122" version="1.1" xmlns="http://www.w3.org/2000/svg" xmlns:xlink="http://www.w3.org/1999/xlink">
    <!-- Generator: Sketch 41.2 (35397) - http://www.bohemiancoding.com/sketch -->
    <title>Group 4</title>
    <desc>Created with Sketch.</desc>
    <defs>
        <polygon id="path-1" points="221.520345 0.000675 0 0.000675 0 52.915275 221.520345 52.915275 221.520345 0.000675"></polygon>
        <polygon id="path-3" points="30.7220926 97.0748112 0 97.0748112 0 0.151419031 30.7220926 0.151419031"></polygon>
        <polygon id="path-5" points="25.3617429 96.3318011 25.3617429 0.0730215818 0.0951965439 0.0730215818 0.0951965439 96.3318011 25.3617429 96.3318011"></polygon>
    </defs>
    <g id="Page-1" stroke="none" stroke-width="1" fill="none" fill-rule="evenodd">
        <g id="Paso-1-Copy-25" transform="translate(-958.000000, -403.000000)">
            <g id="Group-4" transform="translate(958.000000, 403.000000)">
                <g id="Page-1">
                    <mask id="mask-2" fill="white">
                        <use xlink:href="#path-1"></use>
                    </mask>
                    <g id="Clip-2"></g>
                    <path d="M112.366982,25.5592125 L110.316845,25.5592125 L110.305073,25.5592125 L108.2583,25.5592125 L108.2583,19.70865 L110.306755,18.247275 L110.316845,18.247275 L112.3653,19.70865 L112.366982,19.70865 L112.366982,25.5592125 Z M95.8767545,25.5592125 L91.7781636,25.5592125 L91.7781636,19.70865 L91.7798455,19.70865 L93.8283,18.247275 L95.8767545,19.70865 L95.8767545,25.5592125 Z M92.3920273,39.813525 L95.2628909,39.813525 L95.2628909,33.873525 L92.3920273,33.873525 L92.3920273,39.813525 Z M92.3920273,48.5598375 L95.2628909,48.5598375 L95.2628909,42.6198375 L92.3920273,42.6198375 L92.3920273,48.5598375 Z M77.2169818,39.813525 L80.0878455,39.813525 L80.0878455,33.873525 L77.2169818,33.873525 L77.2169818,39.813525 Z M77.2169818,48.5598375 L80.0878455,48.5598375 L80.0878455,42.6198375 L77.2169818,42.6198375 L77.2169818,48.5598375 Z M63.4277545,39.813525 L66.2986182,39.813525 L66.2986182,33.873525 L63.4277545,33.873525 L63.4277545,39.813525 Z M63.4277545,48.5598375 L66.2986182,48.5598375 L66.2986182,42.6198375 L63.4277545,42.6198375 L63.4277545,48.5598375 Z M49.4451182,39.813525 L52.3143,39.813525 L52.3143,33.873525 L49.4451182,33.873525 L49.4451182,39.813525 Z M49.4451182,48.5598375 L52.3143,48.5598375 L52.3143,42.6198375 L49.4451182,42.6198375 L49.4451182,48.5598375 Z M35.5398455,39.813525 L38.4090273,39.813525 L38.4090273,33.873525 L35.5398455,33.873525 L35.5398455,39.813525 Z M35.5398455,48.5598375 L38.4090273,48.5598375 L38.4090273,42.6198375 L35.5398455,42.6198375 L35.5398455,48.5598375 Z M21.5538455,39.813525 L24.4247091,39.813525 L24.4247091,33.873525 L21.5538455,33.873525 L21.5538455,39.813525 Z M21.5538455,48.5598375 L24.4247091,48.5598375 L24.4247091,42.6198375 L21.5538455,42.6198375 L21.5538455,48.5598375 Z M7.57120909,39.813525 L10.4420727,39.813525 L10.4420727,33.873525 L7.57120909,33.873525 L7.57120909,39.813525 Z M7.57120909,48.5598375 L10.4420727,48.5598375 L10.4420727,42.6198375 L7.57120909,42.6198375 L7.57120909,48.5598375 Z M124.746845,19.70865 L126.7953,18.247275 L128.843755,19.70865 L128.845436,19.70865 L128.845436,25.5592125 L124.746845,25.5592125 L124.746845,19.70865 Z M125.360709,39.813525 L128.231573,39.813525 L128.231573,33.873525 L125.360709,33.873525 L125.360709,39.813525 Z M125.360709,48.5598375 L128.231573,48.5598375 L128.231573,42.6198375 L125.360709,42.6198375 L125.360709,48.5598375 Z M140.535755,48.5598375 L143.406618,48.5598375 L143.406618,42.6198375 L140.535755,42.6198375 L140.535755,48.5598375 Z M140.535755,39.813525 L143.406618,39.813525 L143.406618,33.873525 L140.535755,33.873525 L140.535755,39.813525 Z M154.3233,48.5598375 L157.194164,48.5598375 L157.194164,42.6198375 L154.3233,42.6198375 L154.3233,48.5598375 Z M154.3233,39.813525 L157.194164,39.813525 L157.194164,33.873525 L154.3233,33.873525 L154.3233,39.813525 Z M168.3093,48.5598375 L171.180164,48.5598375 L171.180164,42.6198375 L168.3093,42.6198375 L168.3093,48.5598375 Z M168.3093,39.813525 L171.180164,39.813525 L171.180164,33.873525 L168.3093,33.873525 L168.3093,39.813525 Z M182.212891,48.5598375 L185.083755,48.5598375 L185.083755,42.6198375 L182.212891,42.6198375 L182.212891,48.5598375 Z M182.212891,39.813525 L185.083755,39.813525 L185.083755,33.873525 L182.212891,33.873525 L182.212891,39.813525 Z M196.198891,48.5598375 L199.069755,48.5598375 L199.069755,42.6198375 L196.198891,42.6198375 L196.198891,48.5598375 Z M196.198891,39.813525 L199.069755,39.813525 L199.069755,33.873525 L196.198891,33.873525 L196.198891,39.813525 Z M210.183209,48.5598375 L213.052391,48.5598375 L213.052391,42.6198375 L210.183209,42.6198375 L210.183209,48.5598375 Z M210.183209,39.813525 L213.052391,39.813525 L213.052391,33.873525 L210.183209,33.873525 L210.183209,39.813525 Z M221.520345,52.314525 L220.324573,19.961775 L220.264027,19.961775 L220.264027,16.559775 L217.199755,16.559775 L217.0568,19.95165 L206.785936,19.92465 L206.785936,16.4095875 L203.5703,16.708275 L203.5703,19.9162125 L192.3593,19.8858375 L192.3593,16.559775 L189.293345,16.559775 L189.153755,20.0259 L179.052755,19.8487125 L179.052755,16.4095875 L175.8388,16.708275 L175.8388,19.840275 L164.030755,20.1085875 L164.030755,16.559775 L160.9648,16.559775 L160.826891,19.7980875 L149.748755,19.7694 L149.748755,16.4095875 L146.533118,16.708275 L146.533118,19.759275 L136.664209,19.7339625 L136.749982,7.5569625 L136.712982,7.5569625 L136.712982,4.27815 L133.647027,4.27815 L133.5108,7.2194625 L120.834936,7.3764 L120.834936,4.1279625 L117.620982,4.4283375 L117.620982,7.3409625 L110.3118,7.2565875 L110.3118,4.1279625 L116.299073,4.1279625 L116.448755,0.0003375 L110.093164,0.150525 L109.950209,7.2532125 L103.850255,7.184025 L103.850255,4.27815 L100.7843,4.27815 L100.661527,7.4489625 L87.0253455,6.995025 L87.0253455,4.1279625 L83.8113909,4.4283375 L83.8113909,6.9579 L83.7239364,6.9562125 L84.1544818,19.5888375 L73.7305727,19.712025 L73.7305727,16.559775 L70.6663,16.559775 L70.5401636,19.7035875 L60.2524818,19.5247125 L60.2524818,16.4095875 L57.0385273,16.708275 L57.0385273,19.3660875 L45.8275273,19.4859 L45.8275273,16.559775 L42.7615727,16.559775 L42.6371182,19.4774625 L32.5193,19.448775 L32.5193,16.4095875 L29.3070273,16.708275 L29.3070273,19.590525 L17.4973,19.408275 L17.4973,16.559775 L14.4330273,16.559775 L14.1605727,19.550025 L3.2153,19.3694625 L3.2153,16.4095875 L-0.000336363637,16.708275 L-0.000336363637,19.361025 L-0.000336363637,20.083275 L0.00975454545,20.083275 L-0.000336363637,52.915275 L106.505845,51.038775 L106.505845,39.1824 C106.505845,37.0983375 108.231391,35.4074625 110.305073,35.4024 L110.3118,35.4024 L110.316845,35.4024 C112.393891,35.4074625 114.117755,37.0983375 114.117755,39.1824 L114.117755,51.4927125 L221.520345,52.314525 Z" id="Fill-1" fill="#437EBB" mask="url(#mask-2)"></path>
                </g>
                <g id="Page-1" transform="translate(80.000000, 24.000000)">
                    <g id="Group-3" transform="translate(0.000000, 0.083677)">
                        <mask id="mask-4" fill="white">
                            <use xlink:href="#path-3"></use>
                        </mask>
                        <g id="Clip-2"></g>
                        <path d="M29.5539882,55.749641 L29.556082,55.6866481 C29.7833841,55.6699597 29.9260004,55.6549166 29.9260004,55.6549166 C29.9260004,55.6549166 32.8183433,29.0181056 27.5769024,23.0699817 C24.7797147,19.8956588 18.190282,18.6590715 18.1900494,18.6590715 C17.9215678,17.8838833 17.5335024,16.9596747 17.513029,16.7241566 C17.513029,16.7241566 19.6257514,14.3243168 20.2236698,10.2224947 C20.2681065,9.9185777 20.3125433,9.63087899 20.356282,9.35140695 L20.2594984,10.997918 C21.5104739,10.0017847 21.4678984,7.90445165 21.5193147,7.68773743 C21.5286208,7.64848442 21.8122249,5.3762757 21.6084208,4.33642348 C21.5946943,4.26731938 21.5830616,4.19774518 21.5677065,4.12911118 C21.5618902,4.12276488 21.5509555,4.07199452 21.5509555,4.05342573 C21.4637106,3.68275508 21.349478,3.32078121 21.2096535,2.97008964 C20.9621106,2.61422702 18.1072249,1.0128452 17.8433963,1.06455576 C17.6258657,0.789079537 15.4552127,0.258576271 15.1778902,0.18688664 C14.589278,0.0345755562 12.4353759,0.410417259 12.0494045,0.602451449 C11.7597514,0.842200378 11.48778,1.10474896 11.2351188,1.38727662 C11.226278,1.40349493 11.094829,1.55345553 11.0501596,1.60751656 C10.3768616,2.42101759 9.54512694,4.55125733 9.53535551,4.59051034 C9.13821673,6.15922048 8.8008698,6.14911342 9.26617592,7.34691787 C9.21103714,7.76201258 9.17404531,8.19661628 9.16031878,8.64861352 C9.16031878,8.64861352 8.75503714,12.8839429 11.835829,17.0485228 C11.835829,17.0485228 10.9461637,18.3281239 10.5215718,19.1505568 C9.79546163,19.3306035 5.71798408,20.3643445 4.86275143,21.0706636 C-2.7587302,27.3652482 0.85693102,53.941417 0.85693102,53.941417 L1.24104122,53.878189 C1.08144122,54.4418341 0.818077959,55.4421982 0.65475551,56.4449129 C0.357657551,58.2693552 -0.168138367,59.7071436 0.0526493878,59.7910558 C0.513767755,59.9668716 1.40552694,57.3630102 1.40552694,57.3630102 C1.40552694,57.3630102 0.571698367,61.4989143 0.881126939,61.629601 C1.64888204,61.9534971 2.03671469,57.5997035 2.03671469,57.5997035 C2.03671469,57.5997035 2.10232286,61.6841321 2.45409429,61.6502852 C3.1697351,61.5816512 2.85076776,57.7665876 2.85076776,57.7665876 L2.99059224,57.7602413 C2.99059224,57.7602413 3.60316776,61.0107197 4.07103306,60.9352693 C4.81878,60.8156299 3.73647796,57.97437 3.48311878,57.0172547 C3.40471469,56.7203891 3.27884939,55.89208 3.76067388,55.8203904 C4.27158,55.7444699 4.26134327,57.749194 4.8569351,57.7005391 C5.37202898,57.6582305 4.9292902,55.7296619 4.49515959,54.931674 C4.35626571,54.676647 4.00612286,53.6358546 4.00612286,53.6358546 L4.04218408,53.4184352 L4.79528204,53.295035 L6.50900449,34.3560449 C6.50900449,34.3560449 5.51208612,51.8577167 6.01624531,52.5370053 C6.04695551,52.5786088 6.08092286,52.6192721 6.1148902,52.6599354 L5.55745347,92.5015064 L7.55664122,92.5015064 L7.55664122,94.8096774 C7.55664122,94.8096774 2.47410245,93.514093 1.84710245,94.8096774 C0.999547347,96.56196 3.24139224,97.0748347 3.24139224,97.0748347 L12.1138494,97.0748347 L11.51058,92.5015064 L11.9312167,92.5015064 L15.3802984,61.2925422 L16.6787351,92.5015064 L17.6295882,92.5015064 L17.0544698,96.8611761 L25.9271596,96.8611761 C25.9271596,96.8611761 28.1692371,96.3483014 27.3214494,94.5960188 C26.694682,93.3004344 21.6119106,94.5960188 21.6119106,94.5960188 L21.6119106,92.5015064 L22.7540045,92.5015064 L25.0528494,51.6908326 C25.4274208,48.086137 24.7499351,36.7253285 25.2927147,36.7253285 C26.1386412,36.7253285 26.1958739,55.1624912 26.1958739,55.1624912 C26.3094086,55.3580511 26.5716086,55.4889728 26.9056984,55.5754704 L26.9161678,55.7226105 C26.9161678,55.7226105 26.4718004,56.7257952 26.3103392,56.9669544 C25.8045514,57.7205182 25.1863922,59.5992566 25.6952045,59.689515 C26.2835841,59.7938763 26.4578412,57.7969088 26.9596739,57.920544 C27.4326576,58.0371278 27.2314127,58.8499237 27.1257882,59.1383275 C26.7856494,60.0674722 25.446731,62.7947338 26.1798208,62.9844175 C26.6388453,63.1031167 27.5480535,59.924563 27.5480535,59.924563 L27.6867147,59.944072 C27.6867147,59.944072 27.0180698,63.7125961 27.7241718,63.8482187 C28.0710576,63.9147373 28.5124004,59.8542837 28.5124004,59.8542837 C28.5124004,59.8542837 28.4979759,64.2254707 29.2920208,63.9751447 C29.6123841,63.874074 29.1624331,59.6779977 29.1624331,59.6779977 C29.1624331,59.6779977 29.8108371,62.3544889 30.2861473,62.222627 C30.513682,62.1596341 30.1225922,60.6788319 29.9946331,58.8341755 C29.8883106,57.3035431 29.5539882,55.749641 29.5539882,55.749641" id="Fill-1" fill="#2E4358" mask="url(#mask-4)"></path>
                    </g>
                    <g id="Group-6" transform="translate(31.408163, 0.318725)">
                        <mask id="mask-6" fill="white">
                            <use xlink:href="#path-5"></use>
                        </mask>
                        <g id="Clip-5"></g>
                        <path d="M22.8504624,52.9696816 C22.7094747,53.4395425 22.2741808,54.5231137 22.1666951,55.2209711 C22.1194665,54.6002094 22.0675849,53.9735715 22.0115155,53.3452883 C22.2804624,53.0272684 22.362589,52.020793 22.6743441,52.0779096 C23.0289073,52.1430179 22.9156053,52.7522623 22.8504624,52.9696816 M19.9436951,29.8762187 C19.9436951,29.877864 19.9434624,29.8785692 19.9436951,29.8804496 C20.0807278,34.3552928 22.1632053,50.1683799 22.1632053,50.1683799 L22.5249808,50.2064577 L22.5461522,50.4567838 C22.5461522,50.4567838 22.2620829,51.217399 22.1532012,51.4026168 C22.0613033,51.5584536 21.9680094,51.7751679 21.8865808,52.0088055 C21.2163073,45.1301267 20.1595971,38.5045946 20.1595971,38.5045946 C20.1595971,38.5045946 19.7610624,32.0104542 19.9436951,29.8762187 M24.9555073,52.6171097 C24.8289441,51.6381349 24.5744216,50.6546942 24.510442,50.4149453 L25.1895563,50.4863998 C25.1895563,50.4863998 25.0453114,24.3624634 21.364042,21.5082759 C20.0148869,20.4625475 18.0112788,19.7167403 16.5330012,19.2677987 C17.1334788,19.1387574 17.6655563,18.9824505 18.0961971,18.8024037 C19.3064584,18.2968155 22.9130461,17.2743569 22.1320298,13.8746231 C21.9789441,13.207792 23.1145237,10.7705796 21.4319767,6.2602441 C20.9031563,4.84290485 19.2022298,2.97286321 18.5275359,2.2103676 C16.4397073,-0.148338773 15.5160747,0.131603358 13.6983563,0.0756619412 C11.8811033,0.0197205246 8.99038898,0.852260431 8.11770735,2.61559029 C7.22013184,4.42875033 7.22245837,5.46437168 5.96659714,7.09207886 C3.89900939,9.77209581 5.17674,12.5588245 5.12648694,14.7800278 C5.09484612,16.1837343 5.28934408,18.2728407 7.16010735,18.9267441 C8.26497673,19.3126929 9.60063796,19.5350482 10.9758502,19.6236613 C9.4328951,19.9762333 6.70503796,20.6726804 5.9672951,21.3397466 C1.17347878,25.6740311 1.24885837,49.9131179 1.24885837,49.9131179 L1.2586298,49.913823 L1.22815224,50.271566 C1.22815224,50.271566 0.848462449,51.383813 0.638144082,52.4986455 C0.384784898,53.8424147 -0.0302681633,54.8956647 0.131658367,54.9624183 C0.469237959,55.1008616 1.17650327,53.191802 1.17650327,53.191802 C1.17650327,53.191802 0.483895102,56.234968 0.710499184,56.3372139 C1.27212367,56.5910657 1.6387849,53.3786651 1.6387849,53.3786651 C1.6387849,53.3786651 1.61272776,56.4004418 1.87329918,56.3821081 C2.40374816,56.3447354 2.23763388,53.5173434 2.23763388,53.5173434 L2.34139714,53.515228 C2.34139714,53.515228 2.73481347,55.9305809 3.08216449,55.8835713 C3.63727469,55.8088261 2.88906245,53.6875181 2.71922571,52.9748527 C2.66664612,52.7539076 2.58894,52.1392572 2.9462951,52.0950681 C3.32575224,52.0482936 3.28131551,53.5307411 3.72265837,53.5058261 C4.10420939,53.4842016 3.81246245,52.0497039 3.50605837,51.4515068 C3.40787878,51.2604128 3.16801347,50.4840494 3.16801347,50.4840494 L3.24990735,50.0553219 L4.16330327,50.1199601 C4.16330327,50.1199601 6.13759714,34.0685343 6.89674408,31.5189689 C7.02098082,31.1017588 6.91256449,30.7672855 7.11846245,30.7672855 C7.24200122,30.7672855 7.36716857,30.8514327 7.35437265,31.097998 C7.21966653,33.6574354 6.39956449,38.5767543 6.39956449,38.5767543 C6.39956449,38.5767543 1.27933592,63.1665326 4.10769918,66.2907902 C4.53903796,66.7669974 6.00335633,67.1047613 7.91646245,67.3134839 C7.63588286,72.9776699 8.81310735,85.0464429 9.50245837,91.4263499 L9.49664204,91.4263499 C9.49664204,91.4263499 9.48756857,94.0595923 8.91338082,94.753689 C8.35966653,95.4224005 6.5372951,94.7818947 5.99986653,95.2968848 C5.81397673,95.4750512 5.99986653,96.3318011 5.99986653,96.3318011 L11.9055318,96.3318011 L11.8834298,94.7029186 C11.8848257,94.6693068 11.885989,94.6392206 11.8876176,94.6041985 L12.1142216,91.4263499 L12.0104584,91.4263499 C12.2435767,85.1860614 12.6346665,73.4919549 12.5353237,67.5675708 C12.728891,67.5699213 12.9229237,67.5713316 13.1167237,67.5720367 C12.9771318,73.4588131 13.9931278,85.1766595 14.5887196,91.4263499 L14.5519604,91.4263499 L14.7166788,94.6678965 L14.5905808,96.3318011 L20.8675604,96.3318011 C20.8675604,96.3318011 21.0532176,95.4750512 20.8675604,95.2968848 C20.3301318,94.7818947 18.5077604,95.4224005 17.9540461,94.753689 C17.4736176,94.1731205 17.4794339,92.2363252 17.4943237,91.6183841 C17.4961849,91.5563315 17.4982788,91.4914582 17.5003727,91.4282303 L17.5003727,91.4263499 C17.6976624,85.2032199 17.9996461,73.5337934 17.7276747,67.4025671 C19.9211278,67.2180545 21.5536543,66.8856966 21.7746747,66.4188914 C22.5619727,64.7563971 22.5424298,60.4858105 22.2069441,55.7712184 C22.2350951,55.8111765 22.2699931,55.8424379 22.3202461,55.8520749 C22.6641073,55.9192986 23.1964176,53.5314463 23.1964176,53.5314463 L23.2997155,53.539673 C23.2997155,53.539673 22.9709767,56.352492 23.4981686,56.421126 C23.7571114,56.4547379 23.9055441,53.4364869 23.9055441,53.4364869 C23.9055441,53.4364869 24.0863155,56.6651058 24.6614339,56.4446308 C24.8936216,56.3557827 24.3778298,53.2773594 24.3778298,53.2773594 C24.3778298,53.2773594 24.9736543,55.2247319 25.3189114,55.1062677 C25.4840951,55.0496211 25.1306951,53.9735715 24.9555073,52.6171097" id="Fill-4" fill="#2E4358" mask="url(#mask-6)"></path>
                    </g>
                    <path d="M52.5864318,46.062515 C52.5864318,46.062515 52.4738278,45.1947179 52.3249298,44.0820008 C48.8695665,41.1490723 39.1804971,25.8780057 36.8528033,22.1715343 C36.4947502,22.561949 36.2225461,23.042387 36.1499584,23.630007 C36.1499584,23.630007 47.4680645,43.0851624 52.5864318,46.062515" id="Fill-7" fill="#893732"></path>
                    <path d="M38.0721845,21.2632384 C37.6529437,21.4853588 37.2099722,21.7826944 36.8528498,22.1716988 C39.1805437,25.8781703 48.8696131,41.1490018 52.3249763,44.0819303 C52.2181886,43.2825322 52.0927886,42.3569133 51.97716,41.5347155 C48.1223314,37.5149251 40.2414416,24.8063515 38.0721845,21.2632384" id="Fill-9" fill="#FEFEFE"></path>
                    <path d="M51.696022,39.6527569 L39.4614955,20.7191729 C39.4614955,20.7191729 38.80332,20.8759499 38.0720914,21.263309 C40.2415812,24.806422 48.122471,37.5147606 51.9770669,41.534786 C51.8656261,40.7426743 51.7634914,40.0462272 51.696022,39.6527569" id="Fill-11" fill="#6F9AB6"></path>
                    <path d="M3.21489306,23.0728022 C3.21489306,23.0728022 20.0524604,44.5686441 25.1708278,47.5459968 L25.1708278,45.5292852 C20.6345584,42.1850227 7.53037469,25.9175878 4.17551755,21.7139899 C3.77930939,22.0799596 3.42963184,22.5284311 3.21489306,23.0728022" id="Fill-13" fill="#893732"></path>
                    <path d="M5.52325347,20.7996768 C5.09354327,21.0163911 4.60706571,21.315137 4.17549429,21.7140134 C7.53035143,25.9176113 20.6345351,42.1850462 25.1708045,45.5290736 L25.1708045,43.2331251 C20.9818861,39.8416179 8.97047388,25.0756695 5.52325347,20.7996768" id="Fill-15" fill="#FEFEFE"></path>
                    <path d="M25.170851,43.2332191 L25.170851,41.1410571 L6.68423878,20.3357862 C6.68423878,20.3357862 6.16844694,20.4742294 5.5233,20.7997709 C8.97052041,25.0757635 20.9819327,39.8414769 25.170851,43.2332191" id="Fill-17" fill="#6F9AB6"></path>
                </g>
            </g>
        </g>
    </g>
</svg>