<?xml version="1.0" encoding="UTF-8" standalone="no"?>
<svg width="170px" height="170px" viewBox="0 0 170 170" version="1.1" xmlns="http://www.w3.org/2000/svg" xmlns:xlink="http://www.w3.org/1999/xlink">
    <!-- Generator: Sketch 41.2 (35397) - http://www.bohemiancoding.com/sketch -->
    <title>Group 16</title>
    <desc>Created with Sketch.</desc>
    <defs></defs>
    <g id="Page-1" stroke="none" stroke-width="1" fill="none" fill-rule="evenodd">
        <g id="Group-16">
            <ellipse id="Oval-2-Copy-5" fill="#F3F8FF" cx="85" cy="85.2787856" rx="85" ry="84.502924"></ellipse>
            <path d="M55.1270213,134.250927 C49.1625532,134.250927 44.3085106,129.42617 44.3085106,123.494784 L44.3085106,42.0968925 C44.3085106,36.1664054 49.1625532,31.340749 55.1270213,31.340749 L115.232872,31.340749 C121.198245,31.340749 126.052287,36.1664054 126.052287,42.0968925 L126.052287,100.524372 C126.052287,101.496155 125.26016,102.283651 124.28266,102.283651 C123.304255,102.283651 122.513032,101.496155 122.513032,100.524372 L122.513032,42.0968925 C122.513032,38.1063768 119.247766,34.859307 115.232872,34.859307 L55.1270213,34.859307 C51.1130319,34.859307 47.847766,38.1063768 47.847766,42.0968925 L47.847766,123.494784 C47.847766,127.486198 51.1130319,130.732369 55.1270213,130.732369 L100.240319,130.732369 C101.218723,130.732369 102.009947,131.519864 102.009947,132.491648 C102.009947,133.463432 101.218723,134.250927 100.240319,134.250927 L55.1270213,134.250927 Z" id="Fill-1" fill="#233346"></path>
            <path d="M60.5073404,59.2428954 L110.178989,59.2428954 L110.178989,51.9387862 L60.5073404,51.9387862 L60.5073404,59.2428954 Z M111.948617,62.7614533 L58.7377128,62.7614533 C57.7593085,62.7614533 56.9680851,61.9739579 56.9680851,61.0021743 L56.9680851,50.1804062 C56.9680851,49.2086226 57.7593085,48.4211273 58.7377128,48.4211273 L111.948617,48.4211273 C112.927021,48.4211273 113.718245,49.2086226 113.718245,50.1804062 L113.718245,61.0021743 C113.718245,61.9739579 112.927021,62.7614533 111.948617,62.7614533 L111.948617,62.7614533 Z" id="Fill-4" fill="#233346"></path>
            <path d="M111.948617,79.8076708 L58.7377128,79.8076708 C57.7593085,79.8076708 56.9680851,79.0201754 56.9680851,78.0483918 C56.9680851,77.0775072 57.7593085,76.2891129 58.7377128,76.2891129 L111.948617,76.2891129 C112.927021,76.2891129 113.718245,77.0775072 113.718245,78.0483918 C113.718245,79.0201754 112.927021,79.8076708 111.948617,79.8076708" id="Fill-6" fill="#233346"></path>
            <path d="M111.948617,86.999409 L58.7377128,86.999409 C57.7593085,86.999409 56.9680851,86.2119136 56.9680851,85.24013 C56.9680851,84.2683464 57.7593085,83.4808511 58.7377128,83.4808511 L111.948617,83.4808511 C112.927021,83.4808511 113.718245,84.2683464 113.718245,85.24013 C113.718245,86.2119136 112.927021,86.999409 111.948617,86.999409" id="Fill-7" fill="#233346"></path>
            <path d="M111.948617,95.0901145 L58.7377128,95.0901145 C57.7593085,95.0901145 56.9680851,94.3026191 56.9680851,93.3308355 C56.9680851,92.3590519 57.7593085,91.5715566 58.7377128,91.5715566 L111.948617,91.5715566 C112.927021,91.5715566 113.718245,92.3590519 113.718245,93.3308355 C113.718245,94.3026191 112.927021,95.0901145 111.948617,95.0901145" id="Fill-8" fill="#233346"></path>
            <path d="M111.948617,102.281853 L58.7377128,102.281853 C57.7593085,102.281853 56.9680851,101.494357 56.9680851,100.522574 C56.9680851,99.5507901 57.7593085,98.7632948 58.7377128,98.7632948 L111.948617,98.7632948 C112.927021,98.7632948 113.718245,99.5507901 113.718245,100.522574 C113.718245,101.494357 112.927021,102.281853 111.948617,102.281853" id="Fill-9" fill="#233346"></path>
            <path d="M95.1602128,109.473591 L58.7377128,109.473591 C57.7593085,109.473591 56.9680851,108.686096 56.9680851,107.714312 C56.9680851,106.742528 57.7593085,105.955033 58.7377128,105.955033 L95.1602128,105.955033 C96.138617,105.955033 96.9298404,106.742528 96.9298404,107.714312 C96.9298404,108.686096 96.138617,109.473591 95.1602128,109.473591" id="Fill-10" fill="#233346"></path>
            <path d="M92.653617,117.564296 L58.7377128,117.564296 C57.7593085,117.564296 56.9680851,116.776801 56.9680851,115.805017 C56.9680851,114.834133 57.7593085,114.045738 58.7377128,114.045738 L92.653617,114.045738 C93.631117,114.045738 94.4232447,114.834133 94.4232447,115.805017 C94.4232447,116.776801 93.631117,117.564296 92.653617,117.564296" id="Fill-11" fill="#233346"></path>
            <path d="M108.193245,107.675656 C107.834255,107.675656 99.3894149,107.771846 99.3894149,116.11606 C99.3894149,126.310349 114.008511,135.975146 117.779255,138.298078 C121.548191,135.975146 136.167287,126.310349 136.167287,116.11606 C136.167287,107.771846 127.722447,107.675656 127.361649,107.675656 C121.76883,107.675656 119.472926,112.27747 119.377074,112.472546 C119.081383,113.081147 118.46016,113.473096 117.781064,113.473096 L117.772021,113.473096 C117.0875,113.468601 116.467181,113.079349 116.176915,112.464455 C116.085585,112.27747 113.787872,107.675656 108.193245,107.675656 M117.779255,142.111497 C117.47633,142.111497 117.174309,142.034186 116.903032,141.880462 C116.043989,141.394121 95.8510638,129.80014 95.8510638,116.11606 C95.8510638,106.657126 103.923351,104.157098 108.193245,104.157098 C113.038245,104.157098 116.104574,106.626562 117.779255,108.593502 C119.451223,106.626562 122.517553,104.157098 127.361649,104.157098 C131.632447,104.157098 139.705638,106.657126 139.705638,116.11606 C139.705638,129.80014 119.514521,141.394121 118.654574,141.879563 C118.384202,142.033287 118.081277,142.111497 117.779255,142.111497" id="Fill-12" fill="#233346"></path>
        </g>
    </g>
</svg>