<?xml version="1.0" encoding="UTF-8" standalone="no"?>
<svg width="17px" height="9px" viewBox="0 0 17 9" version="1.1" xmlns="http://www.w3.org/2000/svg" xmlns:xlink="http://www.w3.org/1999/xlink">
    <!-- Generator: Sketch 39.1 (31720) - http://www.bohemiancoding.com/sketch -->
    <title>Arrow_</title>
    <desc>Created with Sketch.</desc>
    <defs></defs>
    <g id="Page-1" stroke="none" stroke-width="1" fill="none" fill-rule="evenodd">
        <g id="Mobile-paso04" transform="translate(-260.000000, -788.000000)" fill="#5E6D82">
            <g id="Group-6" transform="translate(30.000000, 774.000000)">
                <g id="Arrow_" transform="translate(238.000000, 18.000000) rotate(-270.000000) translate(-238.000000, -18.000000) translate(233.000000, 9.000000)">
                    <path d="M9.701,9.227 L2.56,16.725 C2.201,17.103 1.62,17.103 1.262,16.725 C0.903,16.35 0.903,15.739 1.262,15.363 L7.789,8.508 L1.262,1.652 C0.903,1.275 0.903,0.665 1.262,0.289 C1.62,-0.087 2.201,-0.087 2.56,0.289 L9.701,7.787 C9.889,7.986 9.972,8.248 9.962,8.507 C9.972,8.766 9.889,9.028 9.701,9.227 L9.701,9.227 Z" id="Shape"></path>
                </g>
            </g>
        </g>
    </g>
</svg>