<?xml version="1.0" encoding="UTF-8" standalone="no"?>
<svg width="551px" height="270px" viewBox="0 0 551 270" version="1.1" xmlns="http://www.w3.org/2000/svg" xmlns:xlink="http://www.w3.org/1999/xlink">
    <!-- Generator: Sketch 41.2 (35397) - http://www.bohemiancoding.com/sketch -->
    <title>Group 6</title>
    <desc>Created with Sketch.</desc>
    <defs>
        <rect id="path-1" x="0" y="0" width="603" height="308"></rect>
        <polygon id="path-3" points="1.17963494e-19 0.267918402 1.17963494e-19 54.4597016 10.5522556 54.4597016 10.5522556 0.267918402 0 0.267918402"></polygon>
    </defs>
    <g id="Page-1" stroke="none" stroke-width="1" fill="none" fill-rule="evenodd">
        <g id="Paso-1-Copy-23" transform="translate(-640.000000, -192.000000)">
            <g id="Group-6" transform="translate(620.000000, 154.000000)">
                <mask id="mask-2" fill="white">
                    <use xlink:href="#path-1"></use>
                </mask>
                <g id="Mask"></g>
                <g mask="url(#mask-2)">
                    <g transform="translate(20.000000, 38.000000)">
                        <polygon id="Fill-5" stroke="none" fill="#141F2C" fill-rule="evenodd" points="480.604439 238.402392 488.145732 371.661152 502.770477 371.676912 507.237457 264.724937 516.254977 371.661152 530.301766 371.676912 532.712821 238.402392"></polygon>
                        <path d="M442.506811,263.420542 C445.937995,275.888379 441.357861,367.670569 441.357861,367.670569 L433.536294,367.577761 C433.536294,367.577761 424.631929,273.906133 429.830059,264.353879 C431.351548,261.560873 441.662507,260.350862 442.506811,263.420542" id="Fill-7" stroke="none" fill="#5E6E84" fill-rule="evenodd"></path>
                        <path d="M425.690008,264.077905 C428.193327,271.884312 423.071794,367.462888 423.071794,367.462888 L416.848312,367.392844 C416.848312,367.392844 406.368492,272.006889 413.081148,264.589226 C415.204965,262.241 424.723845,261.060759 425.690008,264.077905" id="Fill-9" stroke="none" fill="#5E6E84" fill-rule="evenodd"></path>
                        <path d="M97.7026247,262.302989 C94.1339152,274.734053 97.7026247,366.560021 97.7026247,366.560021 L105.525932,366.560021 C105.525932,366.560021 115.455649,272.988206 110.372414,263.374663 C108.88226,260.565898 98.5869683,259.240314 97.7026247,262.302989" id="Fill-15" stroke="none" fill="#5E6E84" fill-rule="evenodd"></path>
                        <path d="M114.512639,263.14772 C111.92576,270.931363 115.981903,366.555468 115.981903,366.555468 L122.212348,366.555468 C122.212348,366.555468 133.74015,271.299094 127.112795,263.79913 C125.020313,261.433393 115.508396,260.139329 114.512639,263.14772" id="Fill-17" stroke="none" fill="#5E6E84" fill-rule="evenodd"></path>
                        <path d="M146.197731,203.922344 L149.294675,239.896956 C149.294675,239.896956 150.414031,243.14875 151.028545,246.41105 C151.766659,250.337018 152.992206,253.413702 152.522181,253.611576 C151.524683,254.017832 149.446127,248.438825 149.446127,248.438825 C149.446127,248.438825 151.47768,257.332665 150.816164,257.630352 C149.165853,258.37457 148.093499,248.981666 148.093499,248.981666 C148.093499,248.981666 148.168355,257.814218 147.398907,257.761685 C145.847824,257.654868 146.335257,249.387922 146.335257,249.387922 L146.030611,249.379166 C146.030611,249.379166 144.872957,256.437853 143.852828,256.308271 C142.226889,256.085882 144.423821,249.885234 144.919959,247.803175 C145.073152,247.151766 145.299461,245.362141 144.249738,245.230809 C143.139086,245.094223 143.267908,249.426446 141.974468,249.356402 C140.848149,249.288109 141.708121,245.094223 142.606391,243.348375 C142.89711,242.789774 143.603889,240.516846 143.603889,240.516846 L136.746744,204.733104 L146.197731,203.922344 Z" id="Fill-19" stroke="none" fill="#E0AD97" fill-rule="evenodd"></path>
                        <path d="M94.0731601,205.409203 L89.902122,241.276998 C89.902122,241.276998 90.3442938,244.689894 90.2990321,248.004727 C90.238103,251.998988 90.8178006,255.268293 90.3146996,255.35935 C89.263236,255.558975 88.3440757,249.673526 88.3440757,249.673526 C88.3440757,249.673526 88.5564574,258.796761 87.8409747,258.950857 C86.0844733,259.348357 86.9061469,249.925685 86.9061469,249.925685 C86.9061469,249.925685 85.2088338,258.598886 84.4707202,258.390505 C82.9718622,257.970241 85.1026429,249.971213 85.1026429,249.971213 L84.8067012,249.90292 C84.8067012,249.90292 82.2563795,256.58512 81.2902167,256.240154 C79.7391337,255.697312 83.1320189,250.071026 84.0355117,248.127304 C84.3175268,247.530179 84.8972245,245.815851 83.8997267,245.477889 C82.8343363,245.118913 82.0892594,249.389848 80.8410815,249.053636 C79.7530603,248.762954 81.4347059,244.828231 82.6585121,243.304773 C83.0554223,242.814465 84.2043726,240.732406 84.2043726,240.732406 L84.6535078,204.292001 L94.0731601,205.409203 Z" id="Fill-21" stroke="none" fill="#E0AD97" fill-rule="evenodd"></path>
                        <path d="M100.460106,144.809038 C96.9070636,143.331109 86.3227934,140.338478 88.61199,130.402733 C89.0611251,128.452007 85.7204649,121.325027 90.666174,108.146243 C92.2189979,104.00489 97.2117095,98.5327006 99.1892968,96.3053005 C105.322255,89.4164705 108.039696,90.2272301 113.373612,90.0661289 C118.705786,89.9050276 127.19061,92.3390575 129.754859,97.4907957 C132.38874,102.787875 132.381777,105.81903 136.070604,110.580273 C142.142633,118.409444 138.392876,126.560818 138.537366,133.052148 C138.627889,137.154977 138.058636,143.262816 132.571528,145.169765 C122.937753,148.521371 107.33814,147.672087 100.460106,144.809038" id="Fill-23" stroke="none" fill="#8A3833" fill-rule="evenodd"></path>
                        <path d="M107.809384,136.681129 C109.962796,137.982197 114.809277,139.176447 118.606036,136.765182 C118.759229,136.665369 122.785778,132.891747 124.79296,126.561518 C126.808845,120.224285 126.086399,113.013252 125.905353,110.236007 C125.797421,108.558452 123.644009,99.2601078 117.831365,98.6927512 C116.567519,98.5701741 114.14776,100.745041 113.24949,102.41384 C106.90241,114.116446 99.5909072,110.281535 99.5909072,110.281535 C99.0669162,110.610742 98.9276495,118.103702 99.3489313,121.341487 C99.8955531,125.68947 103.645309,134.170051 107.809384,136.681129" id="Fill-25" stroke="none" fill="#E0AD97" fill-rule="evenodd"></path>
                        <path d="M107.501605,135.707342 L107.501605,146.322514 C107.501605,146.322514 105.727695,158.792102 112.948674,158.792102 C118.435782,158.792102 118.047576,147.977304 118.047576,147.977304 L118.329592,145.259596 L118.390521,135.707342 L107.501605,135.707342 Z" id="Fill-27" stroke="none" fill="#E0AD97" fill-rule="evenodd"></path>
                        <path d="M92.3831585,146.520739 C96.1572864,142.755872 107.524932,141.354992 107.524932,141.354992 C107.524932,141.354992 109.030753,148.925 113.301019,148.925 C117.64614,148.925 118.361623,141.736732 118.361623,141.736732 C118.361623,141.736732 130.535274,140.939981 133.74015,143.550872 C143.958845,151.886111 148.067213,212.453181 148.067213,212.453181 L137.643099,213.188643 C137.643099,213.188643 136.137278,190.187936 132.612089,176.434791 C132.293517,175.193261 132.559864,174.228405 131.957536,174.228405 C131.591961,174.228405 131.228126,174.482314 131.266425,175.200265 C131.661594,182.679216 134.07439,197.061006 134.07439,197.061006 L129.10605,200.475652 L105.174806,201.195355 L93.6678939,196.847372 C93.6678939,196.847372 94.8394751,177.865441 94.3015575,171.626269 C94.2771858,171.267293 94.3154841,171.290058 94.3015575,171.642029 C93.9046473,184.722751 91.5458174,216.258323 91.5458174,216.258323 L84.4762909,217.872838 C84.4762909,217.872838 77.4763977,161.415601 92.3831585,146.520739" id="Fill-29" stroke="none" fill="#9BA9C1" fill-rule="evenodd"></path>
                        <path d="M131.431282,142.56115 L129.020227,142.070842 L125.846686,141.711866 L114.844616,166.610766 L99.8229604,142.836073 L95.8277465,143.869222 L92.3808954,146.518637 L95.5544356,172.75713 L93.2948332,196.246394 C93.2948332,196.246394 77.1694887,248.028192 79.8329646,270.309197 C81.8645178,287.270358 146.240556,288.900633 147.746377,271.885187 C149.649108,250.407938 136.476218,202.944354 136.476218,202.944354 L132.938844,177.777535 L131.431282,142.56115 Z" id="Fill-31" stroke="none" fill="#9BA9C1" fill-rule="evenodd"></path>
                        <path d="M336.722254,152.039157 C337.042567,158.315102 344.026793,161.193912 347.710397,160.871709 C355.107201,160.2203 360.754466,157.000026 360.409781,151.632902 C360.296626,149.818762 357.793307,144.308048 357.702784,143.283654 C357.702784,143.283654 363.849668,136.331784 365.592243,124.454069 C366.917018,115.390372 368.431543,110.224625 364.420662,105.846873 C353.897321,94.3579015 342.902214,100.879 340.710504,101.353549 C338.518794,101.828097 333.731501,109.175715 333.405965,119.892451 C333.405965,119.892451 332.22568,132.160663 341.189234,144.223995 C341.189234,144.223995 336.654361,150.715325 336.722254,152.039157" id="Fill-41" stroke="none" fill="#F4C9BC" fill-rule="evenodd"></path>
                        <polygon id="Fill-43" stroke="none" fill="#9BA8BF" fill-rule="evenodd" points="379.641295 244.573971 372.95127 362.792528 355.276584 362.792528 351.502456 272.388454 341.464808 362.792528 322.921445 362.792528 324.587423 244.573971"></polygon>
                        <path d="M393.819517,245.756489 L391.848893,256.932013 C391.848893,256.932013 392.169206,261.523399 391.840189,265.964191 C391.445019,271.298043 391.963788,275.714319 391.284863,275.800123 C389.862601,275.975233 389.101857,268.030489 389.101857,268.030489 C389.101857,268.030489 388.659685,280.246168 387.700486,280.400265 C385.303357,280.789009 387.153864,268.259884 387.153864,268.259884 C387.153864,268.259884 384.208373,279.719086 383.235247,279.381124 C381.255919,278.699946 384.741068,268.175831 384.741068,268.175831 L384.345899,268.060258 C384.345899,268.060258 380.420318,276.794748 379.147769,276.258912 C377.116216,275.409628 382.09326,268.153067 383.456333,265.626228 C383.881096,264.845237 384.793293,262.603829 383.484186,262.067992 C382.086296,261.500635 380.761522,267.158441 379.111211,266.606845 C377.680246,266.139301 380.23579,261.010327 382.0097,259.059601 C382.571989,258.439711 384.262339,255.744767 384.262339,255.744767 L385.061381,244.570994 L393.819517,245.756489 Z" id="Fill-45" stroke="none" fill="#F4C9BC" fill-rule="evenodd"></path>
                        <path d="M309.247891,239.319793 L311.218515,250.493567 C311.218515,250.493567 310.898201,255.095459 311.225478,259.527495 C311.620647,264.861348 311.10362,269.277623 311.780804,269.361676 C313.21177,269.538537 313.972514,261.593794 313.972514,261.593794 C313.972514,261.593794 314.405982,273.809472 315.373885,273.961818 C317.762309,274.352313 315.913544,261.823188 315.913544,261.823188 C315.913544,261.823188 318.859035,273.28064 319.832161,272.944428 C321.809748,272.26325 318.324599,261.739135 318.324599,261.739135 L318.719768,261.623562 C318.719768,261.623562 322.647089,270.358052 323.917898,269.820465 C325.958155,268.971181 320.972407,261.716371 319.611075,259.189532 C319.184571,258.408542 318.272374,256.167133 319.581481,255.629545 C320.981111,255.063939 322.304145,260.719994 323.956196,260.170149 C325.387162,259.702605 322.829877,254.573631 321.064671,252.622905 C320.502382,252.003015 318.803328,249.308071 318.803328,249.308071 L318.004285,238.132547 L309.247891,239.319793 Z" id="Fill-47" stroke="none" fill="#F4C9BC" fill-rule="evenodd"></path>
                        <path d="M359.674278,148.891029 C359.674278,148.891029 378.849564,152.472029 386.984481,161.665308 C402.232445,178.894387 393.815513,256.056638 393.815513,256.056638 C393.815513,256.056638 384.395861,257.074028 382.966636,254.632993 C382.966636,254.632993 382.806479,201.222672 380.341459,201.222672 C378.628478,201.222672 381.079572,239.729376 379.312626,246.649725 C375.820513,260.343333 332.341445,257.862023 324.260494,247.026212 C322.79123,245.057975 325.69146,194.356606 325.69146,194.356606 L320.705711,249.222092 L309.247543,251.088766 C309.247543,251.088766 298.731165,174.112132 320.904166,155.879671 C323.637276,153.629507 337.691028,150.237625 337.691028,150.237625 L350.178029,159.399384 L359.674278,148.891029 Z" id="Fill-49" stroke="none" fill="#7AB7FF" fill-rule="evenodd"></path>
                        <path d="M334.493464,108.139414 C334.524799,108.025592 336.944558,101.854714 338.908219,99.4977321 C339.037041,99.3453864 339.416542,98.9093623 339.440914,98.8620826 C340.179028,98.0425675 340.969366,97.2773365 341.806707,96.5891539 C342.933027,96.0305528 349.20177,94.9431193 350.916491,95.3791434 C351.720756,95.5945288 358.036502,97.1249907 358.670165,97.928746 C359.437873,97.7764002 367.73991,102.413315 368.462356,103.446464 C368.873193,104.456849 369.20047,105.50751 369.45115,106.586188 C369.45115,106.638721 369.489448,106.784062 369.503375,106.799822 C369.543414,106.999447 369.579971,107.206077 369.61827,107.405703 C370.213635,110.412343 369.390221,116.99473 369.358886,117.110303 C369.207433,117.737197 369.337996,123.815267 365.699653,126.701081 L366.322871,116.138442 C366.460397,115.593849 365.539496,113.756945 365.508161,113.229864 C365.403711,110.886891 363.074475,111.438488 360.693014,110.825602 C360.464965,110.766065 354.826404,110.473631 352.619027,109.908026 C350.41339,109.340669 345.330155,106.868115 345.093402,106.815582 C342.720645,106.195692 339.456582,105.927774 338.237998,107.924029 C337.962946,108.384568 337.066417,109.363433 336.928891,109.908026 L334.028661,116.910677 C332.218194,112.625734 333.25399,113.007474 334.493464,108.139414" id="Fill-51" stroke="none" fill="#233346" fill-rule="evenodd"></path>
                        <path d="M79.0569781,231.685325 L79.5148174,238.887602 C79.5148174,238.887602 79.9848426,243.098999 79.8490575,247.177312 C79.6958641,252.099656 80.3347502,256.125437 79.7115317,256.232254 C78.4180921,256.454644 77.4153717,249.182323 77.4153717,249.182323 C77.4153717,249.182323 77.4745601,260.419135 76.6006615,260.603001 C74.4159149,261.047781 75.6327578,249.474756 75.6327578,249.474756 C75.6327578,249.474756 73.3644512,260.105688 72.4609584,259.83777 C70.6191562,259.279169 73.4114537,249.488765 73.4114537,249.488765 L73.0458786,249.397708 C73.0458786,249.397708 69.7748517,257.564841 68.5858621,257.120062 C66.6848715,256.423124 70.9829904,249.565814 72.140645,247.200077 C72.4975159,246.466365 73.251297,244.368547 72.0274908,243.925518 C70.725347,243.464979 69.7208859,248.70077 68.1837295,248.264746 C66.8519916,247.89001 69.007144,243.083239 70.558227,241.221819 C71.0526238,240.624694 72.5062201,238.092602 72.5062201,238.092602 L73.8832197,230.606647 L79.0569781,231.685325 Z" id="Fill-53" stroke="none" fill="#893632" fill-rule="evenodd"></path>
                        <path d="M8.23903771,188.838834 L4.42661146,233.132925 C4.42661146,233.132925 3.04961184,237.137693 2.28886742,241.147713 C1.37667045,245.984253 -0.123928379,249.773635 0.460991814,250.011785 C1.67957555,250.516102 4.23686056,243.643031 4.23686056,243.643031 C4.23686056,243.643031 1.7335414,254.596166 2.54651084,254.963897 C4.58502734,255.87447 5.90283861,244.317205 5.90283861,244.317205 C5.90283861,244.317205 5.81057441,255.193291 6.75410639,255.124999 C8.67250536,254.986662 8.07017683,244.814518 8.07017683,244.814518 L8.44445612,244.805762 C8.44445612,244.805762 9.86845825,253.501728 11.1218587,253.333623 C13.1325218,253.065704 10.4307476,245.425652 9.81275157,242.862041 C9.62300067,242.06529 9.34272641,239.85365 10.636166,239.694299 C12.0044615,239.524443 11.8443047,244.860046 13.4423903,244.775994 C14.8211307,244.698945 13.7627037,239.533198 12.659015,237.381095 C12.3021441,236.692913 11.4352088,233.898156 11.4352088,233.898156 L19.8747716,189.842215 L8.23903771,188.838834 Z" id="Fill-59" stroke="none" fill="#893632" fill-rule="evenodd"></path>
                        <path d="M58.2302662,131.540155 C61.5482956,130.162039 71.4327505,127.369034 69.2932657,118.091702 C68.8667614,116.270558 68.5255579,114.992254 67.3696442,111.477795 C66.0831679,107.551827 61.2575763,102.508658 59.4105516,100.426599 C53.6884305,93.9895528 51.1537763,94.7547838 46.1767322,94.6006869 C41.1927247,94.4483412 33.2719304,96.7212698 30.8817655,101.528041 C28.4254488,106.480154 28.4254488,109.304679 24.985561,113.743719 C19.315665,121.061569 22.8234453,114.501946 22.6876603,120.564256 C22.5953961,124.390411 23.1280913,130.093746 28.256588,131.876367 C37.2427726,135.007335 51.8083299,134.210584 58.2302662,131.540155" id="Fill-61" stroke="none" fill="#233346" fill-rule="evenodd"></path>
                        <path d="M48.9493978,142.144395 C46.6654238,143.223073 41.6970838,143.920011 38.1510051,141.111245 C38.0152201,141.004428 34.3768772,136.817547 33.0155451,130.280688 C31.6472496,123.743829 33.0991051,116.609845 33.5708711,113.862368 C33.8528862,112.193569 36.9480889,103.122868 42.81644,103.161392 C44.0872487,103.170147 46.2789586,105.588417 47.0170722,107.348273 C52.1612364,119.695284 59.8539814,116.616849 59.8539814,116.616849 C60.3483783,117.00034 59.7164556,124.502056 58.9713786,127.694312 C57.9738808,131.988011 53.3624118,140.062336 48.9493978,142.144395" id="Fill-63" stroke="none" fill="#893632" fill-rule="evenodd"></path>
                        <polygon id="Fill-65" stroke="none" fill="#5E6E84" fill-rule="evenodd" points="67.5887108 213.471134 60.0178241 351.36856 48.961788 351.36856 43.0568793 245.917278 39.0076997 351.36856 25.1071409 351.36856 19.5974016 213.471134"></polygon>
                        <path d="M76.6242211,157.337038 C73.1234041,153.678989 48.5706827,142.787143 48.5706827,142.787143 C48.5706827,142.787143 49.6656672,151.696743 45.6861209,151.696743 C41.6230146,151.696743 41.6230146,144.51723 41.6230146,144.51723 C41.6230146,144.51723 21.2587395,151.152151 18.3985494,153.731522 C5.25699423,165.558456 4.61114485,233.220986 4.61114485,233.220986 L15.4913568,233.856635 C15.4913568,233.856635 21.6034246,191.949294 22.7889325,182.61943 C22.9403851,181.440939 22.835935,180.56714 23.3982244,180.56714 C23.7324645,180.56714 24.0736679,180.796534 24.0440738,181.470708 C23.6802395,188.459351 21.2831112,198.999225 19.8451824,212.347866 C19.4482722,215.953382 33.831042,216.848195 33.831042,216.848195 L51.1801927,216.848195 C51.1801927,216.848195 68.3169617,216.65032 68.3848542,212.316346 C68.6198668,197.337431 66.3741911,190.312015 66.8685879,184.486103 C66.8999229,184.149892 67.9113474,184.172656 67.9200516,184.501863 C68.3012942,196.717541 71.6715486,238.49355 71.6715486,238.49355 L79.4391495,239.948715 C79.4391495,239.948715 90.3054348,171.612011 76.6242211,157.337038" id="Fill-71" stroke="none" fill="#7AB7FF" fill-rule="evenodd"></path>
                        <path d="M49.6758586,133.148417 L49.6758586,144.889547 C49.6758586,144.889547 51.7230793,156.52386 44.8224137,156.52386 C39.5703178,156.52386 40.1204213,146.427013 40.1204213,146.427013 L39.9358929,142.984349 L39.9759321,133.148417 L49.6758586,133.148417 Z" id="Fill-73" stroke="none" fill="#893632" fill-rule="evenodd"></path>
                        <path d="M46.8480006,163.267288 C45.8888011,162.892552 44.6632541,163.337332 44.3133464,164.347717 C43.9477713,165.387871 44.6789216,166.513829 45.6746786,166.804511 C46.5590222,167.063674 47.6627109,166.65917 48.0195818,165.724082 C48.4008245,164.736461 47.7828284,163.635019 46.8480006,163.267288" id="Fill-75" stroke="none" fill="#141F2C" fill-rule="evenodd"></path>
                        <path d="M45.7814276,169.693105 C44.8135239,169.31837 43.5897177,169.763149 43.2398101,170.773534 C42.8811983,171.813688 43.6123485,172.939646 44.6081055,173.230329 C45.4924491,173.489491 46.5874337,173.084987 46.9530088,172.149899 C47.3342514,171.162279 46.7162554,170.060836 45.7814276,169.693105" id="Fill-77" stroke="none" fill="#141F2C" fill-rule="evenodd"></path>
                        <path d="M496.462392,150.442854 C496.782705,156.589217 503.613737,159.406738 507.229449,159.09154 C514.459133,158.448886 519.998466,155.303909 519.655522,150.045354 C519.542368,148.276743 517.098237,142.872846 517.007713,141.869465 C517.007713,141.869465 523.027517,135.066439 524.730053,123.432126 C526.032196,114.552295 527.515387,109.493365 523.581102,105.206671 C513.278847,93.9628532 502.511789,100.347366 500.365341,100.813159 C498.220634,101.271947 493.532568,108.475975 493.213996,118.968571 C493.213996,118.968571 492.056341,130.97937 500.838848,142.788793 C500.838848,142.788793 496.394499,149.148791 496.462392,150.442854" id="Fill-79" stroke="none" fill="#E0AD97" fill-rule="evenodd"></path>
                        <path d="M465.163068,242.214888 L467.095394,253.159267 C467.095394,253.159267 466.776821,257.661347 467.095394,262.000574 C467.4836,267.229361 466.98224,271.545824 467.652461,271.629877 C469.043387,271.804987 469.781501,264.0301 469.781501,264.0301 C469.781501,264.0301 470.214968,275.99362 471.1585,276.145966 C473.503404,276.520701 471.691196,264.250739 471.691196,264.250739 C471.691196,264.250739 474.575757,275.471792 475.526253,275.142585 C477.467282,274.470162 474.050026,264.166686 474.050026,264.166686 L474.438231,264.052864 C474.438231,264.052864 478.288956,272.601738 479.537134,272.081661 C481.521685,271.248137 476.645609,264.143922 475.305167,261.671367 C474.896071,260.906136 474.004764,258.710256 475.29124,258.190179 C476.654313,257.629827 477.954716,263.172061 479.566728,262.636224 C480.968099,262.170431 478.46478,257.148274 476.736132,255.241326 C476.180806,254.630192 474.521792,251.996536 474.521792,251.996536 L473.738416,241.059161 L465.163068,242.214888 Z" id="Fill-81" stroke="none" fill="#E0AD97" fill-rule="evenodd"></path>
                        <path d="M547.981849,235.911626 L546.049523,246.856005 C546.049523,246.856005 546.368096,251.358085 546.049523,255.697312 C545.659576,260.926099 546.162677,265.242562 545.492456,265.326615 C544.10153,265.501725 543.363417,257.726838 543.363417,257.726838 C543.363417,257.726838 542.928208,269.690358 541.984676,269.835699 C539.648477,270.217439 541.451981,257.947477 541.451981,257.947477 C541.451981,257.947477 538.56916,269.16853 537.616924,268.839323 C535.677635,268.1669 539.094892,257.863424 539.094892,257.863424 L538.704945,257.749602 C538.704945,257.749602 534.85422,266.298476 533.614747,265.778399 C531.621492,264.944875 536.497568,257.84066 537.83801,255.368105 C538.248847,254.602874 539.147117,252.406994 537.853677,251.886917 C536.490604,251.326565 535.188461,256.868799 533.576448,256.332962 C532.176818,255.867169 534.680137,250.845012 536.408785,248.938064 C536.96237,248.32693 538.630089,245.693274 538.630089,245.693274 L539.40476,234.7559 L547.981849,235.911626 Z" id="Fill-83" stroke="none" fill="#E0AD97" fill-rule="evenodd"></path>
                        <path d="M495.170345,148.429263 C495.170345,148.429263 479.823153,150.872049 471.86232,159.872706 C456.924224,176.741059 465.167072,252.304555 465.167072,252.304555 C465.167072,252.304555 474.395233,253.29918 475.796604,250.903674 C475.796604,250.903674 475.956761,198.610555 478.369557,198.610555 C480.035535,198.610555 477.64537,236.313504 479.372277,243.097268 C482.789534,256.505445 525.372072,254.073167 533.285903,243.456243 C534.715128,241.533535 531.877569,191.889831 531.877569,191.889831 L536.762348,245.606595 L547.978541,247.443499 C547.978541,247.443499 558.280796,172.058616 536.563893,154.200891 C533.893454,151.996255 520.12868,148.674417 520.12868,148.674417 L506.818264,162.13863 L495.170345,148.429263 Z" id="Fill-85" stroke="none" fill="#141F2C" fill-rule="evenodd"></path>
                        <polygon id="Fill-87" stroke="none" fill="#FEFEFE" fill-rule="evenodd" points="507.735336 150.659991 517.010499 141.872967 520.12311 148.677745 516.195789 160.096672 506.274776 208.556632 504.40338 208.556632 499.898101 160.096672 495.171737 148.43259 500.832929 142.790544"></polygon>
                        <path d="M494.067004,105.997468 C494.089635,105.883646 496.462392,99.8440999 498.380791,97.5396514 C498.502649,97.3873056 498.883892,96.958286 498.904782,96.9127573 C499.627228,96.1090021 500.40538,95.3665355 501.225313,94.6853573 C502.322039,94.140765 508.463701,93.0778469 510.136642,93.5068666 C510.928721,93.7117453 517.113904,95.2124386 517.7319,95.9934295 C518.483941,95.8480881 526.618857,100.393945 527.325636,101.397326 C527.722546,102.391951 528.049823,103.425101 528.300503,104.47401 C528.300503,104.528294 528.331838,104.673635 528.345765,104.687644 C528.392767,104.880265 528.420621,105.079891 528.46066,105.277765 C529.038617,108.224868 528.23261,114.670669 528.208239,114.784491 C528.056786,115.397376 528.178645,121.344114 524.616898,124.175644 L525.22619,113.835394 C525.363716,113.299557 524.458483,111.501177 524.434111,110.9811 C524.32792,108.683656 522.05265,109.228248 519.723414,108.631123 C519.490143,108.569834 513.97344,108.286156 511.809583,107.727555 C509.649209,107.175958 504.680869,104.757688 504.445856,104.6964 C502.11662,104.099274 498.920449,103.831356 497.726237,105.790838 C497.459889,106.235617 496.58425,107.200474 496.446724,107.727555 L493.609165,114.593621 C491.836996,110.390979 492.857125,110.75871 494.067004,105.997468" id="Fill-89" stroke="none" fill="#8A3833" fill-rule="evenodd"></path>
                        <polygon id="Fill-91" stroke="none" fill="#FEFEFE" fill-rule="evenodd" points="504.302934 210.156437 500.452209 252.506807 510.6622 251.902677 506.273557 210.156437"></polygon>
                        <polyline id="Stroke-93" stroke="#1D1C1B" stroke-width="0.743" fill="none" points="517.31323 164.514874 507.733421 154.120341 498.473925 163.359148"></polyline>
                        <path d="M456.885577,219.294906 L459.905924,254.343186 C459.905924,254.343186 460.993945,257.512678 461.594533,260.689175 C462.316979,264.51533 463.505969,267.516717 463.048129,267.707587 C462.073262,268.098082 460.057377,262.664417 460.057377,262.664417 C460.057377,262.664417 462.036705,271.328863 461.389115,271.619545 C459.775362,272.346252 458.734343,263.200253 458.734343,263.200253 C458.734343,263.200253 458.803976,271.803411 458.057158,271.749127 C456.542633,271.64231 457.021362,263.588998 457.021362,263.588998 L456.725421,263.581993 C456.725421,263.581993 455.599101,270.463819 454.601603,270.332486 C453.010481,270.118852 455.15867,264.072302 455.637399,262.044527 C455.788852,261.415882 456.016901,259.66303 454.989809,259.540453 C453.901788,259.403867 454.03061,263.627522 452.768505,263.559229 C451.680484,263.497941 452.516084,259.410872 453.391724,257.703548 C453.673739,257.160707 454.359627,254.949067 454.359627,254.949067 L447.678307,220.091657 L456.885577,219.294906 Z" id="Fill-95" stroke="none" fill="#8A3833" fill-rule="evenodd"></path>
                        <path d="M397.731345,222.851917 L400.722097,257.908953 C400.722097,257.908953 400.180698,261.215031 400.128473,264.44406 C400.067544,268.34201 399.41299,271.502747 399.900424,271.609564 C400.918812,271.831954 401.984202,266.128619 401.984202,266.128619 C401.984202,266.128619 401.512436,275.008451 402.196584,275.183561 C403.902601,275.619585 403.376869,266.428057 403.376869,266.428057 C403.376869,266.428057 404.769536,274.915642 405.500686,274.740532 C406.96995,274.372801 405.135111,266.519115 405.135111,266.519115 L405.42409,266.457826 C405.42409,266.457826 407.706323,273.040213 408.665523,272.742526 C410.187011,272.259222 407.051769,266.67146 406.231837,264.759258 C405.970712,264.162133 405.455425,262.477574 406.444218,262.178136 C407.486978,261.857685 408.078862,266.044566 409.311372,265.753884 C410.378503,265.508729 408.863978,261.621286 407.706323,260.097828 C407.342489,259.60752 406.291025,257.548226 406.291025,257.548226 L406.938615,222.049913 L397.731345,222.851917 Z" id="Fill-97" stroke="none" fill="#8A3833" fill-rule="evenodd"></path>
                        <path d="M405.849027,194.702624 C402.38825,193.263219 402.449179,159.593055 401.436013,149.70459 C400.765792,143.144967 402.873942,135.023362 405.370298,126.863233 C406.632403,122.746395 409.812906,118.659326 411.746973,116.484459 C417.719774,109.77249 420.360619,110.56749 425.557008,110.406389 C430.755138,110.247039 438.44092,112.962996 441.522196,117.640186 C450.09058,130.62985 449.937387,145.960737 450.081876,152.28221 C450.17414,156.278222 455.462794,192.842955 450.106248,194.702624 C440.723153,197.970178 412.55472,197.488625 405.849027,194.702624" id="Fill-99" stroke="none" fill="#233346" fill-rule="evenodd"></path>
                        <path d="M401.62942,173.033629 C404.945709,168.908035 424.077473,163.794821 424.077473,163.794821 C424.077473,163.794821 421.861392,172.904047 426.016762,172.904047 C430.253952,172.904047 430.253952,165.409336 430.253952,165.409336 C430.253952,165.409336 441.934948,168.655877 445.230346,170.96733 C461.742156,182.570123 461.742156,253.915217 461.742156,253.915217 L452.595814,254.734732 C452.595814,254.734732 446.257438,209.696423 445.016224,199.960304 C444.864771,198.72928 444.970962,197.816956 444.386042,197.816956 C444.02743,197.816956 443.668818,198.055106 443.708857,198.759048 C444.097063,206.054134 444.751617,219.686453 444.751617,219.686453 L441.600707,223.383026 L418.283978,224.086969 L408.333371,219.654933 C408.333371,219.654933 407.586554,196.976428 407.060822,190.898358 C407.031228,190.546386 407.708412,194.946902 407.692745,195.291869 C407.306279,208.03638 406.787511,250.241408 406.787511,250.241408 L399.641388,251.481187 C399.641388,251.481187 392.490042,184.393019 401.62942,173.033629" id="Fill-101" stroke="none" fill="#FEFEFE" fill-rule="evenodd"></path>
                        <path d="M441.469797,168.550636 C440.261658,168.121616 436.745173,167.142751 436.745173,167.142751 C436.745173,167.142751 436.296038,178.875125 433.495037,181.095521 C430.749741,183.268637 422.256213,183.19334 419.517881,181.004464 C416.619393,178.684255 416.077993,166.514106 416.077993,166.514106 L408.970168,168.925371 C408.970168,168.925371 408.926648,200.658818 408.331282,211.223208 C407.319858,229.308576 400.965814,285.743048 400.965814,285.743048 L452.153294,285.743048 C452.153294,285.743048 448.387871,229.982749 444.749528,211.223208 C443.349897,204.012175 442.892058,181.999089 442.892058,181.999089 L444.810457,170.135382 C444.810457,170.135382 443.205408,169.170525 441.469797,168.550636" id="Fill-103" stroke="none" fill="#233346" fill-rule="evenodd"></path>
                        <path d="M421.972109,157.225742 C424.193413,158.274652 429.001596,158.947074 432.450188,156.222362 C432.587714,156.115545 436.109421,152.058244 437.434196,145.714007 C438.75897,139.368018 437.348895,132.456424 436.892796,129.785995 C436.892796,129.785995 436.048492,129.18887 430.355965,129.18887 C426.90215,129.18887 422.72589,129.295687 420.882347,129.441028 C413.045112,130.083682 411.821306,130.090687 411.821306,130.090687 C411.652445,130.871677 411.76734,140.064956 412.254774,143.211684 C413.494248,151.254489 417.69488,155.204972 421.972109,157.225742" id="Fill-105" stroke="none" fill="#8A3833" fill-rule="evenodd"></path>
                        <path d="M424.671794,153.856975 L424.671794,163.799725 C424.671794,163.799725 420.935964,175.94711 428.141276,175.94711 C433.621421,175.94711 432.251385,165.414239 432.251385,165.414239 L432.044226,162.966201 L431.610758,153.856975 L424.671794,153.856975 Z" id="Fill-107" stroke="none" fill="#8A3833" fill-rule="evenodd"></path>
                        <polygon id="Fill-109" stroke="none" fill="#5E6D82" fill-rule="evenodd" points="243.943969 205.974347 249.885435 345.134317 258.566974 345.143072 263.514424 231.631474 266.392022 345.134317 277.301828 345.143072 281.631282 205.974347"></polygon>
                        <g id="Group-113" stroke="none" stroke-width="1" fill="none" fill-rule="evenodd" transform="translate(228.957712, 190.980773)">
                            <mask id="mask-4" fill="white">
                                <use xlink:href="#path-3"></use>
                            </mask>
                            <g id="Clip-112"></g>
                            <path d="M2.50175241,0.55159671 L1.78626967,36.6487858 C1.78626967,36.6487858 1.0481561,40.009148 0.804439349,43.3152261 C0.51546092,47.3024823 -0.34451103,50.5017432 0.149885799,50.6400801 C1.17697781,50.932514 2.60968411,45.1451263 2.60968411,45.1451263 C2.60968411,45.1451263 1.60348211,54.2158277 2.29633401,54.4364664 C4.01627791,54.9880631 4.01627791,45.5356217 4.01627791,45.5356217 C4.01627791,45.5356217 4.95110572,54.3138893 5.7048868,54.1773035 C7.2350798,53.8866208 5.81107767,45.7334961 5.81107767,45.7334961 L6.1157236,45.6879675 C6.1157236,45.6879675 8.06371674,52.5697931 9.06121457,52.3176346 C10.6593001,51.9113792 7.76603415,46.0031656 7.03662474,43.9964042 C6.8085755,43.3695102 6.37510785,41.6079029 7.40045903,41.3644999 C8.49718439,41.0948304 8.85405534,45.4200491 10.1335683,45.1994104 C11.2442203,45.0067893 9.91422319,40.9354803 8.82446116,39.3052055 C8.47629438,38.7833775 7.5170949,36.6102616 7.5170949,36.6102616 L10.2467225,0.267918402 L2.50175241,0.55159671 Z" id="Fill-111" fill="#E2AE96" mask="url(#mask-4)"></path>
                        </g>
                        <path d="M311.155071,181.744701 L317.348958,169.697128 C317.348958,169.697128 319.60856,167.117757 321.419027,164.347516 C323.59507,160.994158 325.886007,158.614412 325.520432,158.253685 C324.759688,157.49721 320.719212,161.866206 320.719212,161.866206 C320.719212,161.866206 325.969567,154.420526 325.468207,153.891694 C324.226993,152.567861 319.678194,160.841812 319.678194,160.841812 C319.678194,160.841812 323.09371,152.706198 322.362559,152.459293 C320.879369,151.961981 318.200226,159.792903 318.200226,159.792903 L317.919951,159.67733 C317.919951,159.67733 319.525,152.713203 318.527502,152.445284 C316.945084,152.023269 316.626512,158.598652 316.290531,160.71048 C316.193044,161.368893 315.728241,163.121745 314.701149,162.839818 C313.620092,162.533375 315.385297,158.575888 314.161491,158.146868 C313.09436,157.779137 312.304021,161.981779 312.471141,163.94126 C312.523366,164.57691 312.319689,166.940896 312.319689,166.940896 L304.959443,178.202224" id="Fill-114" stroke="none" fill="#E2AE96" fill-rule="evenodd"></path>
                        <path d="M193.355007,145.71103 C193.04862,151.657768 186.436933,154.375476 182.951783,154.069033 C175.958854,153.449144 170.611012,150.410984 170.936548,145.320534 C171.049702,143.613211 173.410273,138.39318 173.502537,137.430075 C173.502537,137.430075 167.681188,130.847687 166.037841,119.602119 C164.780959,111.021726 163.351734,106.130901 167.139789,101.991299 C177.100841,91.1222177 187.502323,97.2913453 189.579138,97.7431293 C191.655953,98.1949133 196.185603,105.143281 196.497212,115.29266 C196.497212,115.29266 197.614827,126.897204 189.130003,138.317883 C189.130003,138.317883 193.422899,144.455491 193.355007,145.71103" id="Fill-124" stroke="none" fill="#F4C9BC" fill-rule="evenodd"></path>
                        <polygon id="Fill-126" stroke="none" fill="#233346" fill-rule="evenodd" points="210.185389 233.286726 202.652801 366.545487 188.019351 366.561247 183.552371 259.609271 174.541815 366.545487 160.496767 366.561247 158.075267 233.286726"></polygon>
                        <path d="M223.605478,234.405855 L221.742785,244.984254 C221.742785,244.984254 222.038727,249.332237 221.734081,253.526123 C221.361543,258.586804 221.847235,262.756174 221.208349,262.833223 C219.853981,263.003079 219.140239,255.485604 219.140239,255.485604 C219.140239,255.485604 218.720698,267.051624 217.815464,267.196966 C215.547157,267.555941 217.298436,255.707994 217.298436,255.707994 C217.298436,255.707994 214.504398,266.545556 213.592201,266.232109 C211.720805,265.582451 215.014462,255.623941 215.014462,255.623941 L214.641924,255.517124 C214.641924,255.517124 210.921762,263.775315 209.718846,263.269247 C207.793483,262.465492 212.511143,255.601177 213.797619,253.212676 C214.201493,252.470209 215.061465,250.349626 213.82025,249.843558 C212.50418,249.309472 211.247298,254.659085 209.680547,254.139008 C208.334883,253.694228 210.752901,248.841928 212.427583,246.996268 C212.960278,246.407898 214.567068,243.858296 214.567068,243.858296 L215.319108,233.288652 L223.605478,234.405855 Z" id="Fill-128" stroke="none" fill="#F4C9BC" fill-rule="evenodd"></path>
                        <path d="M143.567853,228.314651 L145.430546,238.89305 C145.430546,238.89305 145.127641,243.239282 145.43925,247.433168 C145.804825,252.493849 145.317391,256.664971 145.964982,256.742019 C147.310646,256.910125 148.033092,249.394401 148.033092,249.394401 C148.033092,249.394401 148.44567,260.960421 149.357867,261.105762 C151.626174,261.464738 149.874895,249.61679 149.874895,249.61679 C149.874895,249.61679 152.66197,260.454352 153.58113,260.140905 C155.452526,259.489496 152.158869,249.530987 152.158869,249.530987 L152.529666,249.424169 C152.529666,249.424169 156.251569,257.68236 157.454485,257.178043 C159.379848,256.374288 154.662188,249.508222 153.375712,247.119721 C152.971838,246.377254 152.104903,244.256671 153.353081,243.752354 C154.669151,243.216518 155.926033,248.56613 157.48408,248.047804 C158.838448,247.603025 156.42043,242.750725 154.745748,240.905065 C154.213053,240.316695 152.606263,237.767092 152.606263,237.767092 L151.854223,227.197449 L143.567853,228.314651 Z" id="Fill-130" stroke="none" fill="#F4C9BC" fill-rule="evenodd"></path>
                        <path d="M191.64133,142.503013 C191.64133,142.503013 209.432652,146.122538 217.139324,154.825509 C231.567356,171.130007 224.635355,236.663198 224.635355,236.663198 C224.635355,236.663198 215.511644,236.932868 214.164239,234.61266 C214.164239,234.61266 213.175445,192.26229 210.84621,192.26229 C209.232457,192.26229 211.547766,228.69569 209.873083,235.255313 C206.570722,248.215209 165.419149,245.863481 157.771665,235.607285 C156.378998,233.747616 159.126034,185.763955 159.126034,185.763955 L153.89831,234.047054 L142.819643,233.38864 C142.819643,233.38864 133.612372,166.598159 154.592903,149.346315 C157.186745,147.216976 170.488457,144.001956 170.488457,144.001956 L178.659931,149.346315 L191.64133,142.503013 Z" id="Fill-132" stroke="none" fill="#5E6E84" fill-rule="evenodd"></path>
                        <polygon id="Fill-134" stroke="none" fill="#9BA8BF" fill-rule="evenodd" points="182.182335 144.679982 176.428879 152.21847 181.75583 154.68402 187.798265 152.21847"></polygon>
                        <polyline id="Fill-136" stroke="none" fill="#FEFEFE" fill-rule="evenodd" points="182.141599 144.683309 182.141599 144.676304 171.99776 142.142462 168.641432 143.075798 174.288698 155.039318 180.024745 147.476314"></polyline>
                        <path d="M252.968297,0.230093798 C239.851114,-0.13063294 226.457138,1.53116159 214.502831,7.32555369 C202.550266,13.1111903 192.126152,23.3848979 187.643505,36.572437 C183.153894,49.7599761 185.429164,65.8420846 194.780924,75.6850215 C201.918343,83.2007455 212.030847,86.393002 221.823038,88.6204021 C252.345079,95.5862805 284.20408,95.7929104 314.809681,89.2332873 C325.188533,87.0058873 335.993889,83.6525295 343.1992,75.3715745 C355.252734,61.516866 352.315948,37.7964564 340.408644,23.8051621 C328.499599,9.80511224 310.198212,4.04223995 292.560083,2.5958308 C274.921954,1.14767055 270.630798,1.22471898 252.968297,0.230093798" id="Fill-156" stroke="none" fill="#FEFEFE" fill-rule="evenodd"></path>
                        <path d="M296.436572,82.6920688 C303.077853,91.4475722 312.135412,98.3223934 322.322772,102.348174 C318.51905,94.9392669 316.266411,86.7336092 315.765051,78.4141299" id="Fill-158" stroke="none" fill="#FEFEFE" fill-rule="evenodd" transform="translate(309.379672, 90.381152) scale(-1, 1) translate(-309.379672, -90.381152) "></path>
                        <polygon id="Fill-138" stroke="none" fill="#FEFEFE" fill-rule="evenodd" points="192.697146 142.273969 182.180768 144.678231 182.187731 144.685235 184.304585 147.478241 190.042374 155.041244 196.821181 144.739519"></polygon>
                        <path d="M195.672231,102.75618 C195.6496,102.649363 193.360403,96.8094424 191.502934,94.5820424 C191.381075,94.4279455 191.0155,94.0234412 190.992869,93.9761615 C190.293054,93.1969217 189.546236,92.4842238 188.747194,91.8258099 C187.690507,91.2987286 181.756005,90.2655792 180.133547,90.6858434 C179.374544,90.8854689 173.400002,92.3388824 172.799414,93.0883535 C172.068264,92.9517676 164.208399,97.3365237 163.531214,98.3171401 C163.143008,99.273241 162.831399,100.269617 162.587682,101.287007 C162.587682,101.332535 162.558088,101.477877 162.542421,101.493637 C162.504122,101.677502 162.465824,101.868372 162.427526,102.059242 C161.8722,104.908283 162.655575,111.136948 162.679947,111.245516 C162.815732,111.840891 162.702577,117.589754 166.149429,120.323222 L165.554063,110.326188 C165.425242,109.813116 166.300881,108.076024 166.325253,107.571707 C166.42274,105.358316 168.630117,105.878393 170.882756,105.297027 C171.102101,105.242743 176.429053,104.96782 178.521535,104.433735 C180.614018,103.889142 185.415237,101.554925 185.643287,101.500641 C187.895926,100.919276 190.985906,100.658362 192.134856,102.556555 C192.3925,102.985574 193.245508,103.911907 193.376071,104.433735 L196.114403,111.061651 C197.825642,107.00435 196.845553,107.363326 195.672231,102.75618" id="Fill-140" stroke="none" fill="#233346" fill-rule="evenodd"></path>
                        <path d="M194.060567,121.346215 C193.832518,123.880058 192.880281,124.990256 192.121278,126.114462 C189.442134,130.078954 184.435496,127.324473 183.476297,127.285949 C183.155983,127.270189 183.444962,127.217656 182.813039,127.315717 C182.182857,127.408526 181.634494,127.445299 181.336812,127.553867 C180.440282,127.87607 179.070246,129.788271 177.076991,130.094714 C175.593801,130.324108 173.835558,130.026421 172.442891,129.161377 C171.293941,128.441675 169.795083,127.660684 169.170124,125.20389 C168.973409,124.400135 168.919444,122.747096 166.63721,123.099067 C166.63721,123.099067 166.766032,124.154981 167.13857,126.389385 C168.82892,136.554524 176.481626,140.95504 184.708807,139.685492 C192.934247,138.414193 197.446489,127.43129 196.562145,121.636898 C196.273167,119.7317 196.243573,119.561844 196.243573,119.561844 C194.669859,119.799993 194.060567,121.346215 194.060567,121.346215" id="Fill-142" stroke="none" fill="#233346" fill-rule="evenodd"></path>
                        <path d="M244.536715,141.731549 C240.762587,142.053751 236.097153,123.45356 240.168963,114.107936 C240.952338,112.3008 236.42617,105.702653 241.295283,92.7059834 C242.816771,88.6189145 246.439447,84.7472309 248.38744,82.5495996 C254.429874,75.7518268 257.107277,76.555582 262.364595,76.3944807 C267.623655,76.2351306 275.993584,78.6306363 278.512571,83.7123304 C281.115117,88.941117 278.512571,92.7059834 282.149173,97.3989332 C288.130678,105.121287 283.762926,112.164214 283.907415,118.562736 C283.997938,122.611281 286.090421,124.861445 283.183228,129.829318 C283.183228,129.829318 280.939293,138.516528 278.589167,139.197706 C274.113483,140.507529 252.976278,141.011846 244.536715,141.731549" id="Fill-144" stroke="none" fill="#893632" fill-rule="evenodd"></path>
                        <path d="M259.041954,124.289128 C259.041954,124.289128 259.3466,125.04035 259.041954,124.289128 C259.041954,124.289128 266.156743,126.02622 269.641892,123.278743 C269.777677,123.16317 273.339423,119.062093 274.685088,112.647811 C276.02553,106.226525 276.239653,96.1366826 276.291878,95.709414 C276.33888,95.3574428 270.813473,85.9960587 265.068721,86.0258274 C263.811839,86.0328318 261.005615,86.2552216 260.290132,87.985309 C255.236491,100.101175 248.335826,99.2291264 248.335826,99.2291264 C247.855356,99.6126174 249.09657,108.8129 249.211465,110.105213 C249.211465,110.105213 250.421345,123.868864 259.041954,124.289128" id="Fill-146" stroke="none" fill="#E2AE96" fill-rule="evenodd"></path>
                        <polygon id="Fill-148" stroke="none" fill="#E2AE96" fill-rule="evenodd" points="259.630705 122.438721 259.630705 133.544202 254.648438 144.206654 262.257623 147.896223 271.973217 143.311841 266.99095 135.358342 266.99095 122.438721"></polygon>
                        <path d="M238.864798,142.655143 C244.144747,135.734793 259.606834,133.148417 259.606834,133.148417 C259.606834,133.148417 256.358438,144.59186 262.225048,144.95784 C271.188602,145.518192 266.958376,134.939793 266.958376,134.939793 C266.958376,134.939793 280.045965,136.760938 283.50152,138.904285 C294.214612,145.556716 294.214612,183.175612 294.214612,183.175612 C299.69998,178.62275 305.65015,169.277126 305.65015,169.277126 L316.608699,177.19035 C316.608699,177.19035 292.93684,202.602323 288.194808,197.343767 C282.168041,190.668572 283.196874,161.637074 283.196874,161.637074 L285.594003,239.042728 C285.594003,239.042728 285.594003,248.4654 262.985793,248.4654 C244.144747,248.4654 240.546444,239.387694 240.546444,239.387694 L242.943572,163.873229 C243.749578,170.294515 239.190334,218.164354 239.190334,218.164354 L228.957712,218.223892 C228.957712,218.223892 229.998731,154.282451 238.864798,142.655143" id="Fill-150" stroke="none" fill="#B2E1FF" fill-rule="evenodd"></path>
                        <rect id="Rectangle" stroke="none" fill="#2E4358" fill-rule="evenodd" x="177.041037" y="196.335621" width="176.62374" height="184.206764"></rect>
                    </g>
                </g>
            </g>
        </g>
    </g>
</svg>