<?xml version="1.0" encoding="UTF-8" standalone="no"?>
<svg width="199px" height="179px" viewBox="0 0 199 179" version="1.1" xmlns="http://www.w3.org/2000/svg" xmlns:xlink="http://www.w3.org/1999/xlink">
    <!-- Generator: Sketch 41.2 (35397) - http://www.bohemiancoding.com/sketch -->
    <title>Group 2</title>
    <desc>Created with Sketch.</desc>
    <defs>
        <polygon id="path-1" points="46.0284313 0.478946308 46.0284313 147.518505 0.247273799 147.518505 0.247273799 0.478946308 46.0284313 0.478946308"></polygon>
    </defs>
    <g id="Page-1" stroke="none" stroke-width="1" fill="none" fill-rule="evenodd">
        <g id="Paso-1-Copy-23" transform="translate(-217.000000, -1342.000000)">
            <g id="Group-2" transform="translate(217.000000, 1342.000000)">
                <g id="Group-3" transform="translate(152.855072, 0.000000)">
                    <mask id="mask-2" fill="white">
                        <use xlink:href="#path-1"></use>
                    </mask>
                    <g id="Clip-2"></g>
                    <path d="M42.3179779,147.518505 C42.3179779,147.518505 33.5665662,93.9209832 33.6119574,79.2071886 C33.6228512,75.1724968 38.7193684,68.231444 40.4932541,64.6044072 C41.907642,61.7107852 44.146333,55.5977814 44.7109988,52.4257166 C45.6696597,47.0752458 46.0291575,30.7253719 46.0291575,30.7253719 C46.0291575,30.7253719 45.9765038,28.5014688 44.2697969,27.6333822 C42.5540119,26.7616558 41.0125288,29.1766472 40.6439527,30.2303624 C39.2749559,34.1340222 38.6358487,43.9978152 37.8188082,46.536559 C37.6626627,47.0170094 35.8996708,47.1171032 35.8143354,46.6220937 C35.3222955,43.6538563 31.7981274,16.8323468 31.7981274,16.8323468 L30.745053,6.93397591 C30.745053,6.93397591 30.3801082,2.18952786 27.4932317,2.41883375 C24.6372212,2.64449986 25.3598482,9.05414544 25.3598482,9.05414544 C25.3598482,9.05414544 26.1914138,17.7495704 26.4964423,20.6431923 C27.2481196,27.7225567 27.0084544,30.2667601 26.4764702,32.4124081 C26.3475594,32.9365358 24.796998,33.8046224 24.3376397,32.1339652 C23.9527228,30.7308316 23.8746501,27.9518626 23.7893147,26.5541886 C23.5205992,22.1664386 21.5124952,2.99937802 21.5124952,2.99937802 C21.5124952,2.99937802 20.7916839,0.134874289 18.2261767,0.513410995 C16.2398604,0.806412966 16.2398604,4.05855285 16.2398604,4.05855285 C16.2398604,4.05855285 18.2933555,30.2940584 18.1753386,31.8355036 C18.1408413,32.2722767 16.8299452,32.4779241 16.4740787,32.2267795 C15.1232383,31.2622389 14.6820365,10.9504688 13.029799,4.72463186 C12.8500501,4.05673296 12.2036802,3.23414358 10.7275604,3.42887159 C8.56875778,3.71459401 8.77937267,6.15688372 8.77937267,6.15688372 C8.77937267,6.15688372 10.9527004,32.7618266 10.5369176,33.8355605 C10.4334258,34.1049039 9.50744655,34.672709 9.3022786,34.4670617 C7.20157665,32.3541717 5.96693765,22.2392341 5.21344474,18.0061746 C4.96470129,16.6085006 4.43090149,13.6530025 3.38508963,12.9705444 C2.72964157,12.5428708 1.12097958,12.9359666 0.699749809,13.5984058 C-0.435028682,15.3873557 0.87223614,20.1518225 1.28620333,22.2319545 C1.85086911,25.1128373 2.2884397,30.854584 2.64067494,33.7263672 C2.87307758,35.6627281 4.66330412,55.9562993 5.79626697,60.6516104 C6.54068166,63.7490598 9.77434645,69.4070916 10.4025598,72.5336592 C11.7425063,79.2017289 11.4120588,93.3622775 11.1614997,100.161379 C10.9018624,107.288061 10.3208558,121.232043 10.355353,128.26045 C10.3735095,132.071296 10.8927841,143.494733 10.8927841,143.494733" id="Fill-1" fill="#E2AE96" mask="url(#mask-2)"></path>
                </g>
                <polygon id="Fill-4" fill="#EAEDF2" points="160.346439 87.3346774 189.051796 89.5804192 191.361297 102.709091 159.344203 100.204925"></polygon>
                <path d="M181.782046,95.7539453 C181.498806,96.7730826 181.920035,98.0433644 182.927719,98.5820513 C184.147832,99.2353911 185.783729,98.5911507 186.359289,97.3117694 C186.88401,96.1361218 186.424652,94.6310744 185.331633,94.0632693 C183.993503,93.369892 182.183304,94.312594 181.782046,95.7539453" id="Fill-6" fill="#5E6D82"></path>
                <polygon id="Fill-8" fill="#9BA9C1" points="159.171107 99.6048387 157.181159 152.792886 197.18891 149.866506 191.25538 102.114464"></polygon>
                <g id="Group" transform="translate(49.028986, 1.443548)">
                    <path d="M11.9142969,176.945937 C11.9142969,176.945937 17.8959705,97.87433 16.6578174,82.6610773 C16.3195802,78.4888324 10.5326492,71.7278473 8.41917913,68.1214359 C6.73414288,65.24667 3.94624837,59.10748 3.10783009,55.8700003 C1.69338361,50.4168575 0.00219760231,33.5330487 0.00219760231,33.5330487 C0.00219760231,33.5330487 -0.124897589,31.2303343 1.55398889,30.1940092 C3.24312497,29.1493935 5.0183578,31.522578 5.48164027,32.5817023 C7.20357512,36.5073018 8.65492021,46.65707 9.70038065,49.2147204 C9.8971732,49.6955753 11.7154544,49.6603402 11.7605527,49.1380324 C12.0249927,46.0311296 13.470188,17.9985352 13.470188,17.9985352 L13.7469275,7.67466435 C13.7469275,7.67466435 13.7366779,2.73761149 16.7131653,2.73761149 C19.6609538,2.73761149 19.4416121,9.42398115 19.4416121,9.42398115 C19.4416121,9.42398115 19.2919677,18.485608 19.2140707,21.5054594 C19.0152282,28.8861669 19.4682611,31.4997788 20.1857339,33.6760616 C20.3620272,34.20666 22.0204145,34.9776859 22.3566018,33.2138606 C22.6374411,31.7319157 22.4898467,28.8509318 22.4672976,27.3959314 C22.3894005,22.8340282 22.8936814,2.8495346 22.8936814,2.8495346 C22.8936814,2.8495346 23.4020622,-0.174462094 26.0608116,0.00793112647 C28.1230336,0.146798692 28.3854237,3.51071003 28.3854237,3.51071003 C28.3854237,3.51071003 28.403873,30.8137316 28.6519136,32.399309 C28.719561,32.8490741 30.0827594,32.9547793 30.4250965,32.6646083 C31.732947,31.5557404 30.5398921,10.5100499 31.732947,3.93353068 C31.8600422,3.2288296 32.4606695,2.32515409 33.9858117,2.4080601 C36.224327,2.52620116 36.2058777,5.07141566 36.2058777,5.07141566 C36.2058777,5.07141566 36.1300306,32.7661681 36.6425112,33.8398009 C36.7737063,34.1113181 37.7679186,34.6211901 37.9626613,34.3911259 C39.9449363,32.0345226 40.3918194,21.472297 40.8223031,17.0326802 C40.9657976,15.5652438 41.2712361,12.4645591 42.2900475,11.6728067 C42.9255235,11.1753706 44.6064599,11.4531057 45.0922915,12.1018453 C46.400142,13.8594527 45.4448782,18.8959927 45.1947876,21.0805661 C44.8442509,24.1066354 44.8586003,30.0800134 44.7335551,33.0791383 C44.6495083,35.0999723 44.4568156,56.2389321 43.677845,61.1863482 C43.1633145,64.452845 40.3036727,70.5713085 39.9162374,73.8502411 C39.0819189,80.8599442 40.5681127,95.480419 41.3737322,102.490122 C42.2183003,109.83974 44.4219669,124.194915 44.4732149,131.486499 C44.5654614,143.702699 49.9608573,173.843179 49.9608573,173.843179" id="Fill-10" fill="#893632"></path>
                    <path d="M14.6528752,86.9011886 L15.4092966,84.9093717 C19.759232,86.5985817 24.3100598,87.444223 28.9428845,87.4276418 C34.3321306,87.4089879 39.7746746,86.1736884 44.6883387,83.8461022 L45.5821049,85.7778122 C40.3917013,88.2339027 34.6416689,89.5438177 28.9490342,89.5645442 C24.0558694,89.5811254 19.2467514,88.6836678 14.6528752,86.9011886" id="Fill-12" fill="#FEC70D"></path>
                    <path d="M14.6528752,92.6553329 L15.4092966,90.663516 C19.759232,92.3527259 24.3121097,93.1983672 28.9428845,93.181786 C34.3321306,93.1631322 39.7746746,91.9278326 44.6883387,89.6002464 L45.5821049,91.5319564 C40.3958011,93.9901196 34.6416689,95.2979619 28.9510842,95.3186884 C24.0558694,95.3352696 19.2467514,94.4378121 14.6528752,92.6553329" id="Fill-14" fill="#233346"></path>
                </g>
                <path d="M35.5313972,142.040721 C35.5313972,142.040721 29.8629517,92.8928257 30.5365562,79.5057295 C30.7199364,75.8331955 35.6530454,69.7347507 37.4232999,66.513549 C38.8340565,63.9402273 41.1326638,58.4732837 41.7862962,55.6105999 C42.8829462,50.782437 43.9142328,35.9212315 43.9142328,35.9212315 C43.9142328,35.9212315 43.959624,33.8956961 42.4435599,33.0330692 C40.9220489,32.1649826 39.4150631,34.2978914 39.0337775,35.2387735 C37.6193896,38.7311386 36.6171532,47.6813478 35.7619842,49.9562078 C35.604023,50.3838815 33.9917297,50.4002605 33.9372603,49.9471084 C33.6177067,47.2263758 31.5587646,22.6651672 31.5587646,22.6651672 L31.0231492,13.6148641 C31.0231492,13.6148641 30.896054,9.28171072 28.2597366,9.36542557 C25.6506539,9.44732053 26.0319395,15.3109997 26.0319395,15.3109997 C26.0319395,15.3109997 26.4150407,23.2584507 26.5711862,25.9063877 C26.9488405,32.3815493 26.6238399,34.6855275 26.0482803,36.6164287 C25.9066599,37.0877797 24.4595904,37.8102752 24.1146177,36.27065 C23.8259301,34.9748897 23.8713212,32.4452454 23.8549804,31.167684 C23.7968797,27.1621105 22.7910121,9.63840877 22.7910121,9.63840877 C22.7910121,9.63840877 22.2572123,6.99775127 19.9095825,7.23251682 C18.08849,7.41268573 17.9486853,10.3736435 17.9486853,10.3736435 C17.9486853,10.3736435 18.6949157,34.3342891 18.5169824,35.7319631 C18.46796,36.1286987 17.2678182,36.2615505 16.9555272,36.0158656 C15.7662793,35.0822631 16.2347159,16.5776418 14.9982612,10.8395349 C14.8657191,10.2244127 14.3083159,9.44914042 12.9592912,9.56197348 C10.9820532,9.73122306 11.0710198,11.9624058 11.0710198,11.9624058 C11.0710198,11.9624058 11.9080325,36.2651903 11.4831714,37.2242713 C11.3760483,37.4626766 10.5081697,37.9413072 10.3320521,37.7447592 C8.50914391,35.7319631 7.81919859,26.4741928 7.31626476,22.5905518 C7.14922537,21.3075307 6.79154319,18.5958976 5.86737958,17.9298186 C5.29000429,17.5094244 3.80843749,17.7987866 3.39810159,18.3847906 C2.29055778,19.9644534 3.27463769,24.357663 3.55969404,26.2685454 C3.95368914,28.9146626 4.10620337,34.1559401 4.2986618,36.7838584 C4.43301957,38.5546094 5.18832814,57.1010882 6.01807817,61.4233222 C6.56277184,64.2732668 9.26626812,69.5618614 9.70202306,72.4300049 C10.6352649,78.5575678 9.7274421,91.4314556 9.21179875,97.6045158 C8.66892072,104.079677 7.54140481,116.744278 7.27087362,123.141184 C7.12380633,126.611711 7.10928117,137.02693 7.10928117,137.02693" id="Fill-16" fill="#E2AE96"></path>
                <polygon id="Fill-18" fill="#FEC70D" points="0 151.309267 42.6658556 149.14724 35.425061 97.8664354 3.32444707 94.5524194"></polygon>
                <path d="M10.1221681,104.68855 C8.1703491,104.968813 6.85037476,107.096262 6.55805582,108.874292 C6.08598797,111.773374 8.09772328,115.354913 10.78851,115.424069 C13.1107207,115.484126 15.2586295,112.919903 15.3657526,110.3757 C15.496479,107.341947 12.7185413,104.315473 10.1221681,104.68855" id="Fill-20" fill="#FFFFFF"></path>
                <path d="M36.4588419,115.484661 C35.5891477,115.435524 34.608699,117.686726 34.608699,119.57759 C34.6050677,122.844289 37.5264415,125.386672 38.4251861,124.989937 C39.8377583,124.362075 38.1419453,115.577476 36.4588419,115.484661" id="Fill-22" fill="#FFFFFF"></path>
                <path d="M23.617404,123.75356 C21.7636298,122.934611 19.3978436,123.720802 18.0451877,125.213111 C16.1823353,127.262304 15.9426701,130.956677 18.2467243,132.887578 C20.282063,134.592813 23.4267612,134.192438 25.0898926,132.525421 C27.5482767,130.059472 26.547856,125.047501 23.617404,123.75356" id="Fill-24" fill="#FFFFFF"></path>
                <path d="M6.09547384,140.746055 C4.29435342,140.731496 2.23178004,142.544104 2.16460115,144.647895 C2.08834404,147.124762 4.82815323,148.691686 6.83262595,148.94829 C7.23388363,149.001067 9.33276992,149.27223 10.1661512,148.114781 C11.5478575,146.203899 9.19114957,140.771533 6.09547384,140.746055" id="Fill-26" fill="#3C3B3B"></path>
                <g id="Group-30" transform="translate(100.942029, 0.721774)" fill="#F5CABC">
                    <path d="M11.7910296,152.102418 C11.7910296,152.102418 17.1871283,96.806941 16.1685511,81.791045 C15.8889417,77.6689986 10.2295744,70.9226738 8.18152615,67.3393143 C6.54381384,64.4766304 3.85665837,58.3854653 3.06685254,55.1842822 C1.73961561,49.7864944 0.292546082,33.1181401 0.292546082,33.1181401 C0.292546082,33.1181401 0.199948157,30.8450999 1.88305162,29.8459814 C3.5752333,28.8432231 5.30917484,31.2036179 5.75582365,32.2555132 C7.41350807,36.1500735 8.71351031,46.1758366 9.71756232,48.7145803 C9.90457382,49.1932109 11.7165881,49.1804717 11.7674262,48.6690831 C12.0742703,45.6062116 13.9026254,17.9912309 13.9026254,17.9912309 L14.3238552,7.81805692 C14.3238552,7.81805692 14.3837715,2.94985648 17.3432738,2.98989402 C20.2773571,3.03175144 19.9632504,9.62520571 19.9632504,9.62520571 C19.9632504,9.62520571 19.6890879,18.5535763 19.5674396,21.5309131 C19.2696737,28.8086453 19.6800097,31.3874266 20.364508,33.542174 C20.5315474,34.0699415 22.1710754,34.8543132 22.5269419,33.1181401 C22.8265235,31.6585899 22.7230317,28.8195646 22.721216,27.3836729 C22.7085065,22.8885496 23.4892341,3.1900817 23.4892341,3.1900817 C23.4892341,3.1900817 24.0375591,0.218204573 26.6793234,0.43113147 C28.7273716,0.600381056 28.9398021,3.91985679 28.9398021,3.91985679 C28.9398021,3.91985679 28.576673,30.8396403 28.8018131,32.404744 C28.8653607,32.8487966 30.216201,32.972549 30.5629893,32.6922863 C31.8793323,31.6185524 30.9878504,10.8518102 32.2642492,4.38574812 C32.4004226,3.6905509 33.0086639,2.80790522 34.5283593,2.90981894 C36.7507095,3.06086965 36.6962401,5.56685544 36.6962401,5.56685544 C36.6962401,5.56685544 36.2350661,32.8706353 36.7271061,33.9389096 C36.8523856,34.208253 37.8364655,34.7232813 38.0325552,34.501255 C40.037028,32.2063762 40.6325597,21.7984366 41.1191527,17.4270656 C41.2825608,15.9838944 41.6311648,12.9319422 42.6533733,12.1657694 C43.2942961,11.6816792 44.9628744,11.9801408 45.4367579,12.6280209 C46.7131568,14.3769333 45.6909483,19.3324884 45.4113389,21.4799562 C45.0209751,24.457293 44.9519806,30.3500904 44.7867568,33.3055885 C44.6723711,35.2947261 44.1857781,56.1324439 43.3396873,61.0006443 C42.7840997,64.2145666 39.8554634,70.2019981 39.4215241,73.4359391 C38.4955449,80.3296749 39.7664968,94.7668465 40.4709673,101.689701 C41.2063037,108.947414 42.7169209,123.148 43.1490445,130.321999 C43.3814471,134.214739 43.6029559,145.911159 43.6029559,145.911159" id="Fill-28"></path>
                </g>
                <polygon id="Fill-31" fill="#233346" points="141.934875 88.0564516 111.288594 88.9718553 104.547101 164.009478 148.507512 165.661936"></polygon>
                <polygon id="Fill-33" fill="#EAEDF2" points="142.973235 97.6484261 110.534911 101.963381 110.315217 100.310922 142.753541 95.9959677"></polygon>
                <polygon id="Fill-35" fill="#EAEDF2" points="108.873188 113.086324 108.893161 114.749702 145.672693 114.261972 145.652721 112.596774"></polygon>
                <polygon id="Fill-37" fill="#EAEDF2" points="106.710145 126.605306 106.72467 128.272323 146.029766 127.977501 146.018872 126.310484"></polygon>
                <polygon id="Fill-39" fill="#D9D9D9" points="105.98913 139.498967 105.998209 141.162345 146.545206 140.969437 146.536128 139.302419"></polygon>
            </g>
        </g>
    </g>
</svg>