<?xml version="1.0" encoding="UTF-8" standalone="no"?>
<svg width="268px" height="206px" viewBox="0 0 268 206" version="1.1" xmlns="http://www.w3.org/2000/svg" xmlns:xlink="http://www.w3.org/1999/xlink">
    <!-- Generator: Sketch 41.2 (35397) - http://www.bohemiancoding.com/sketch -->
    <title>Page 1</title>
    <desc>Created with Sketch.</desc>
    <defs>
        <polygon id="path-1" points="5.85818916e-20 0.132428571 5.85818916e-20 26.9187202 5.24035933 26.9187202 5.24035933 0.132428571 0 0.132428571"></polygon>
    </defs>
    <g id="Page-1" stroke="none" stroke-width="1" fill="none" fill-rule="evenodd">
        <g id="Paso-1-Copy-23" transform="translate(-826.000000, -1335.000000)">
            <g id="Page-1" transform="translate(826.000000, 1335.000000)">
                <path d="M237.067872,197.057782 L237.85804,201.469471 C237.85804,201.469471 231.112221,200.996018 230.609937,202.770387 C229.926105,205.165354 232.888801,205.301245 232.888801,205.301245 L244.153446,203.277597 L242.302517,197.477572 L237.067872,197.057782 Z" id="Fill-1" fill="#141F2C"></path>
                <path d="M250.716939,197.057782 L251.506243,201.469471 C251.506243,201.469471 244.761288,200.996018 244.258139,202.770387 C243.574307,205.165354 246.541326,205.301245 246.541326,205.301245 L257.801649,203.277597 L255.95072,197.477572 L250.716939,197.057782 Z" id="Fill-3" fill="#141F2C"></path>
                <polygon id="Fill-5" fill="#141F2C" points="232.473401 135.136173 236.218485 201.00424 243.481285 201.01203 245.699634 148.147064 250.177827 201.00424 257.153608 201.01203 258.350963 135.136173"></polygon>
                <path d="M213.553725,147.502318 C215.257686,153.665008 212.983145,199.031747 212.983145,199.031747 L209.098874,198.985873 C209.098874,198.985873 204.676874,152.685209 207.258319,147.963655 C208.013906,146.583108 213.134435,145.985016 213.553725,147.502318" id="Fill-7" fill="#5E6E84"></path>
                <path d="M205.202326,147.827245 C206.445501,151.68585 203.902094,198.929093 203.902094,198.929093 L200.811449,198.894471 C200.811449,198.894471 195.607062,151.746438 198.940636,148.079984 C199.995346,146.919287 204.72252,146.335908 205.202326,147.827245" id="Fill-9" fill="#5E6E84"></path>
                <path d="M198.663559,194.301364 L205.899559,193.730103 L205.336759,199.927414 L205.661817,203.064154 L193.520552,204.020582 C193.520552,204.020582 193.040746,202.432305 193.369262,202.068776 C194.314178,201.017137 197.881172,201.951061 198.833004,200.604271 C199.827197,199.208145 198.663559,194.301364 198.663559,194.301364" id="Fill-11" fill="#141F2C"></path>
                <path d="M207.167804,194.389303 L214.411585,193.965186 L213.724294,200.151245 L213.985378,203.295774 C213.985378,203.295774 204.681455,206.075908 202.142372,204.68411 C201.430875,204.293749 201.379004,202.40253 201.714436,202.046791 C202.682694,201.014194 206.226346,202.019959 207.209301,200.696539 C208.230294,199.318589 207.167804,194.389303 207.167804,194.389303" id="Fill-13" fill="#141F2C"></path>
                <path d="M42.3203987,146.949927 C40.5481406,153.094439 42.3203987,198.482818 42.3203987,198.482818 L46.2055342,198.482818 C46.2055342,198.482818 51.1367342,152.23149 48.6123471,147.479641 C47.8723213,146.091305 42.7595729,145.436087 42.3203987,146.949927" id="Fill-15" fill="#5E6E84"></path>
                <path d="M50.6684258,147.367466 C49.3837548,151.214819 51.3980774,198.480567 51.3980774,198.480567 L54.4921806,198.480567 C54.4921806,198.480567 60.2170065,151.396584 56.9257935,147.68945 C55.8866452,146.520097 51.162929,145.880458 50.6684258,147.367466" id="Fill-17" fill="#5E6E84"></path>
                <path d="M66.4035703,118.093135 L67.9415445,135.874917 C67.9415445,135.874917 68.4974284,137.482236 68.8026026,139.094749 C69.1691574,141.035303 69.7777768,142.556068 69.5443574,142.653875 C69.0489897,142.854682 68.0167574,140.097051 68.0167574,140.097051 C68.0167574,140.097051 69.0256477,144.493161 68.6971316,144.640303 C67.8775703,145.008161 67.3450284,140.365371 67.3450284,140.365371 C67.3450284,140.365371 67.3822026,144.731186 67.0000865,144.705219 C66.2298026,144.652421 66.4718671,140.566177 66.4718671,140.566177 L66.3205768,140.56185 C66.3205768,140.56185 65.7456735,144.050866 65.2390671,143.986816 C64.431609,143.876892 65.5226284,140.811992 65.7690155,139.782858 C65.8450929,139.460875 65.95748,138.576287 65.4361768,138.511371 C64.8846155,138.443858 64.9485897,140.585219 64.3062542,140.550597 C63.7469123,140.516841 64.1739832,138.443858 64.6200735,137.580908 C64.7644477,137.304799 65.1154413,136.18132 65.1154413,136.18132 L61.7101123,118.493883 L66.4035703,118.093135 Z" id="Fill-19" fill="#E0AD97"></path>
                <path d="M40.517969,118.828071 L38.4465884,136.557054 C38.4465884,136.557054 38.6661755,138.244003 38.6436981,139.882482 C38.61344,141.856793 38.9013239,143.472768 38.6514787,143.517776 C38.129311,143.616449 37.6728465,140.707348 37.6728465,140.707348 C37.6728465,140.707348 37.7783174,145.216844 37.4230013,145.293012 C36.5507045,145.489491 36.9587561,140.831987 36.9587561,140.831987 C36.9587561,140.831987 36.1158529,145.119037 35.7492981,145.016037 C35.0049497,144.808306 36.0631174,140.854491 36.0631174,140.854491 L35.9161497,140.820734 C35.9161497,140.820734 34.6496335,144.123659 34.1698271,143.953146 C33.3995432,143.684827 35.0844852,140.903827 35.533169,139.943071 C35.6732206,139.647919 35.9611045,138.80055 35.4657368,138.633499 C34.9366529,138.456062 34.56664,140.567129 33.9467819,140.400945 C33.4064594,140.257264 34.2415819,138.312382 34.8493368,137.559356 C35.0464465,137.317003 35.6170271,136.287869 35.6170271,136.287869 L35.8400723,118.275852 L40.517969,118.828071 Z" id="Fill-21" fill="#E0AD97"></path>
                <path d="M43.6897923,88.8741992 C41.9253148,88.1436782 36.6690568,86.6644597 37.8058955,81.7533504 C38.0289406,80.7891319 36.3699342,77.2663588 38.8260245,70.752258 C39.5971729,68.7052412 42.0766052,66.0004092 43.0586955,64.8994345 C46.1043858,61.4943756 47.4538955,61.8951235 50.1027729,61.8154933 C52.7507858,61.735863 56.9644374,62.9389723 58.2378697,65.4854092 C59.5458826,68.1036866 59.5424245,69.6019471 61.3743342,71.9553672 C64.3897665,75.8252244 62.5275987,79.854342 62.5993535,83.0629218 C62.6443084,85.0908966 62.3616116,88.1099218 59.6366568,89.0525017 C54.8524245,90.7091571 47.1054955,90.2893672 43.6897923,88.8741992" id="Fill-23" fill="#8A3833"></path>
                <path d="M47.33952,84.8566798 C48.4089265,85.4997807 50.8157394,86.0900832 52.701249,84.8982261 C52.7773265,84.8488899 54.7769523,82.9836378 55.7737394,79.8546882 C56.774849,76.7222765 56.4160748,73.1579571 56.3261652,71.7852008 C56.2725652,70.9560076 55.2031587,66.3599571 52.3165394,66.0795202 C51.6889006,66.0189319 50.4872232,67.0939403 50.0411329,67.9188059 C46.8891071,73.7032513 43.2581394,71.807705 43.2581394,71.807705 C42.99792,71.9704277 42.9287587,75.6741 43.1379716,77.274495 C43.4094297,79.4236462 45.2715974,83.6154866 47.33952,84.8566798" id="Fill-25" fill="#E0AD97"></path>
                <path d="M47.1866735,84.3753496 L47.1866735,89.6222908 C47.1866735,89.6222908 46.3057316,95.7858454 49.8917445,95.7858454 C52.6166994,95.7858454 52.4239123,90.4402319 52.4239123,90.4402319 L52.5639639,89.0969042 L52.5942219,84.3753496 L47.1866735,84.3753496 Z" id="Fill-27" fill="#E0AD97"></path>
                <path d="M39.6786968,89.7202706 C41.5529677,87.8593462 47.1982581,87.1669092 47.1982581,87.1669092 C47.1982581,87.1669092 47.9460645,90.9086655 50.0667226,90.9086655 C52.2245548,90.9086655 52.579871,87.3555983 52.579871,87.3555983 C52.579871,87.3555983 58.6254323,86.9617748 60.2170065,88.2523042 C65.2917161,92.3723042 67.3319742,122.309817 67.3319742,122.309817 L62.1552516,122.673346 C62.1552516,122.673346 61.4074452,111.304397 59.6568,104.506397 C59.4985935,103.892724 59.6308645,103.415808 59.3317419,103.415808 C59.1501935,103.415808 58.9695097,103.541313 58.988529,103.896187 C59.1847742,107.592934 60.3829935,114.701666 60.3829935,114.701666 L57.9156645,116.389481 L46.0311613,116.74522 L40.3167097,114.596069 C40.3167097,114.596069 40.898529,105.213548 40.6313935,102.129607 C40.6192903,101.95217 40.6383097,101.963422 40.6313935,102.137397 C40.4342839,108.603027 39.2628645,124.190649 39.2628645,124.190649 L35.7520645,124.988682 C35.7520645,124.988682 32.2758452,97.0826067 39.6786968,89.7202706" id="Fill-29" fill="#9BA9C1"></path>
                <path d="M59.0703987,87.7630975 L57.8730439,87.5207445 L56.297031,87.3433076 L50.833289,99.6505092 L43.3733794,87.8989882 L41.3893148,88.4096605 L39.6775729,89.7192319 L41.2535858,102.688576 L40.1314439,114.299013 C40.1314439,114.299013 32.123431,139.894081 33.4461406,150.907291 C34.455031,159.290971 66.4248374,160.096795 67.1726439,151.686282 C68.11756,141.070358 61.5757665,117.609728 61.5757665,117.609728 L59.8190697,105.170097 L59.0703987,87.7630975 Z" id="Fill-31" fill="#9BA9C1"></path>
                <path d="M56.6913368,193.911695 L49.4622529,193.260804 L49.9567561,199.462443 L49.5945239,202.594855 L61.7236852,203.688039 C61.7236852,203.688039 62.222511,202.106687 61.8974529,201.736233 C60.96464,200.672476 57.3907303,201.569182 56.4492723,200.214603 C55.4740981,198.807224 56.6913368,193.911695 56.6913368,193.911695" id="Fill-33" fill="#9BA8BF"></path>
                <path d="M48.1863135,193.904944 L40.9425329,193.401196 L41.5701716,199.595045 L41.267591,202.731784 C41.267591,202.731784 50.5447135,205.621843 53.0959006,204.256011 C53.809991,203.874305 53.8852039,201.982221 53.5523652,201.623019 C52.5970748,200.578305 49.0404555,201.547717 48.0730619,200.212179 C47.0676297,198.822977 48.1863135,193.904944 48.1863135,193.904944" id="Fill-35" fill="#9BA8BF"></path>
                <path d="M177.363092,194.599285 L177.363092,199.615991 C177.363092,199.615991 184.704563,197.761991 185.612305,199.615991 C186.836459,202.128671 183.597982,202.861789 183.597982,202.861789 L170.776343,202.861789 L171.679763,196.097545 L177.363092,194.599285 Z" id="Fill-37" fill="#141F2C"></path>
                <path d="M157.055348,194.905688 L157.055348,199.922394 C157.055348,199.922394 149.713013,198.068394 148.806135,199.922394 C147.581981,202.434209 150.819594,203.168192 150.819594,203.168192 L163.641232,203.168192 L162.738677,196.403949 L157.055348,194.905688 Z" id="Fill-39" fill="#141F2C"></path>
                <path d="M161.020019,92.4479529 C161.17909,95.5500706 164.647529,96.9730286 166.476845,96.8137681 C170.150174,96.4917849 172.954665,94.9000454 172.78349,92.2471462 C172.727297,91.3504403 171.484123,88.6265664 171.439168,88.1202218 C171.439168,88.1202218 174.491774,84.6840034 175.357155,78.8130034 C176.015052,74.3329361 176.767181,71.7795748 174.775335,69.6157092 C169.549335,63.9368605 164.089052,67.1601546 163.000626,67.3947176 C161.9122,67.6292807 159.534781,71.2611126 159.373116,76.5582555 C159.373116,76.5582555 158.786974,82.6222723 163.238368,88.5850202 C163.238368,88.5850202 160.986303,91.7936 161.020019,92.4479529" id="Fill-41" fill="#F4C9BC"></path>
                <polygon id="Fill-43" fill="#9BA8BF" points="182.334059 138.186704 179.011724 196.620595 170.234292 196.620595 168.360021 151.93504 163.375221 196.620595 154.166395 196.620595 154.993737 138.186704"></polygon>
                <path d="M189.375111,138.771208 L188.396479,144.295124 C188.396479,144.295124 188.55555,146.564586 188.392156,148.759611 C188.195911,151.396065 188.453537,153.578972 188.116375,153.621384 C187.410066,153.707939 187.032272,149.780955 187.032272,149.780955 C187.032272,149.780955 186.812685,155.819006 186.336337,155.895174 C185.145898,156.087325 186.064879,149.894342 186.064879,149.894342 C186.064879,149.894342 184.602117,155.558476 184.118853,155.391426 C183.135898,155.054729 184.866659,149.852796 184.866659,149.852796 L184.670414,149.79567 C184.670414,149.79567 182.72093,154.113014 182.088969,153.848157 C181.080079,153.428367 183.55173,149.841544 184.228646,148.592561 C184.439588,148.206527 184.892595,147.098628 184.242479,146.833771 C183.548272,146.553334 182.890375,149.349913 182.070814,149.077266 C181.360182,148.846166 182.629292,146.310981 183.510234,145.346762 C183.789472,145.040359 184.628917,143.708283 184.628917,143.708283 L185.02573,138.185233 L189.375111,138.771208 Z" id="Fill-45" fill="#F4C9BC"></path>
                <path d="M147.375966,135.589633 L148.354599,141.112683 C148.354599,141.112683 148.195528,143.387339 148.358057,145.578036 C148.554302,148.21449 148.297541,150.397397 148.633837,150.438944 C149.34447,150.526364 149.722263,146.599381 149.722263,146.599381 C149.722263,146.599381 149.937528,152.637431 150.418199,152.712734 C151.604315,152.90575 150.686199,146.712767 150.686199,146.712767 C150.686199,146.712767 152.14896,152.376036 152.632225,152.209851 C153.614315,151.873154 151.883554,146.671221 151.883554,146.671221 L152.079799,146.614095 C152.079799,146.614095 154.030147,150.931439 154.661244,150.665717 C155.674457,150.245927 153.198483,146.659969 152.522431,145.410986 C152.310625,145.024952 151.857618,143.917053 152.507734,143.65133 C153.202805,143.371759 153.859837,146.167473 154.680263,145.895692 C155.390895,145.664591 154.120921,143.129406 153.244302,142.165187 C152.965063,141.858784 152.121295,140.526708 152.121295,140.526708 L151.724483,135.002792 L147.375966,135.589633 Z" id="Fill-47" fill="#F4C9BC"></path>
                <path d="M172.418232,90.8918739 C172.418232,90.8918739 181.940877,92.661916 185.980761,97.2060336 C193.553058,105.722143 189.373123,143.862437 189.373123,143.862437 C189.373123,143.862437 184.695226,144.365319 183.985458,143.158748 C183.985458,143.158748 183.905923,116.758723 182.681768,116.758723 C181.831084,116.758723 183.048323,135.792084 182.170839,139.212723 C180.436619,145.981294 158.844465,144.754815 154.831381,139.398815 C154.101729,138.425941 155.542013,113.364916 155.542013,113.364916 L153.066039,140.48421 L147.375794,141.406882 C147.375794,141.406882 142.153252,103.358336 153.164594,94.3462689 C154.521884,93.234042 161.501123,91.557479 161.501123,91.557479 L167.702297,96.0860168 L172.418232,90.8918739 Z" id="Fill-49" fill="#FEC70D"></path>
                <path d="M159.913179,70.7488824 C159.928741,70.6926218 161.130418,67.642437 162.105592,66.4774118 C162.169566,66.4021092 162.358031,66.1865882 162.370134,66.1632185 C162.736689,65.7581429 163.129179,65.3798992 163.545012,65.0397395 C164.104354,64.7636303 167.217476,64.2261261 168.069025,64.4416471 C168.468431,64.5481092 171.604895,65.3045966 171.919579,65.7018824 C172.300831,65.6265798 176.423708,67.9185462 176.782483,68.4292185 C176.986508,68.9286387 177.149037,69.4479664 177.273528,69.9811429 C177.273528,70.0071092 177.292547,70.0789496 177.299463,70.0867395 C177.319347,70.1854118 177.337502,70.2875462 177.356521,70.3862185 C177.652186,71.8723613 177.24327,75.1259496 177.227708,75.1830756 C177.152495,75.4929412 177.217334,78.4972521 175.410495,79.9236723 L175.719992,74.7026975 C175.788289,74.4335126 175.33096,73.5255546 175.315399,73.2650252 C175.263528,72.1069244 174.106805,72.3795714 172.924147,72.0766303 C172.810895,72.0472017 170.010728,71.9026555 168.914521,71.623084 C167.819179,71.3426471 165.294792,70.1204958 165.177218,70.0945294 C163.998883,69.7881261 162.377915,69.6556975 161.772754,70.6424202 C161.63616,70.8700588 161.190934,71.3538992 161.122637,71.623084 L159.682354,75.0844034 C158.783257,72.9664118 159.297644,73.1551008 159.913179,70.7488824" id="Fill-51" fill="#141F2C"></path>
                <path d="M143.386052,131.7061 L143.613419,135.266092 C143.613419,135.266092 143.846839,137.34773 143.779406,139.363587 C143.703329,141.796638 144.020606,143.786529 143.71111,143.839327 C143.068774,143.949251 142.570813,140.354638 142.570813,140.354638 C142.570813,140.354638 142.600206,145.908848 142.166219,145.99973 C141.081252,146.219579 141.685548,140.499184 141.685548,140.499184 C141.685548,140.499184 140.559084,145.753915 140.1104,145.621487 C139.195742,145.345377 140.582426,140.506108 140.582426,140.506108 L140.400877,140.4611 C140.400877,140.4611 138.776452,144.498008 138.185987,144.278159 C137.241935,143.933671 139.376426,140.544192 139.951329,139.374839 C140.128555,139.012176 140.50289,137.975251 139.895135,137.756268 C139.248477,137.528629 138.749652,140.116613 137.986284,139.901092 C137.324929,139.715865 138.3952,137.33994 139.165484,136.419865 C139.411006,136.124713 140.132877,134.873134 140.132877,134.873134 L140.81671,131.172924 L143.386052,131.7061 Z" id="Fill-53" fill="#E0AD97"></path>
                <polygon id="Fill-55" fill="#9BA8BF" points="117.036032 187.909132 117.036032 195.486989 121.812484 195.486989 123.006381 187.909132"></polygon>
                <polygon id="Fill-57" fill="#9BA8BF" points="128.533059 188.637749 128.533059 194.758892 133.484143 194.758892 134.35644 188.637749"></polygon>
                <path d="M107.994923,110.751226 L106.101632,132.645218 C106.101632,132.645218 105.4178,134.624722 105.040006,136.606823 C104.587,138.997461 103.841787,140.870503 104.132265,140.988218 C104.737426,141.237495 106.0074,137.840226 106.0074,137.840226 C106.0074,137.840226 104.764226,143.254218 105.167955,143.435982 C106.180303,143.886066 106.834742,138.173461 106.834742,138.173461 C106.834742,138.173461 106.788923,143.549369 107.25749,143.515613 C108.210187,143.447234 107.911065,138.419276 107.911065,138.419276 L108.096935,138.414949 C108.096935,138.414949 108.80411,142.713251 109.426561,142.630159 C110.425077,142.49773 109.083348,138.721352 108.776445,137.454192 C108.682213,137.060369 108.543026,135.967184 109.185361,135.888419 C109.864871,135.804461 109.785335,138.441781 110.578961,138.400234 C111.263658,138.36215 110.738032,135.808789 110.189929,134.745033 C110.012703,134.404873 109.582174,133.023461 109.582174,133.023461 L113.773348,111.247184 L107.994923,110.751226 Z" id="Fill-59" fill="#E0AD97"></path>
                <path d="M132.81008,82.0537815 C134.457848,81.3725966 139.36657,79.9920504 138.30408,75.4063866 C138.092274,74.5062185 137.922828,73.8743697 137.34879,72.1372185 C136.709912,70.1966639 134.313474,67.7038908 133.396222,66.6747563 C130.554557,63.4930084 129.295822,63.8712521 126.82417,63.795084 C124.349061,63.7197815 120.415512,64.8432605 119.228532,67.2191849 C118.008699,69.6669496 118.008699,71.0630756 116.300415,73.2572353 C113.484686,76.8743529 115.226686,73.6320168 115.159254,76.6285378 C115.113435,78.5197563 115.377977,81.3388403 117.924841,82.2199664 C122.387474,83.767563 129.62088,83.3737395 132.81008,82.0537815" id="Fill-61" fill="#8A3833"></path>
                <path d="M128.322895,87.3260832 C127.18865,87.8592597 124.721321,88.2037471 122.960302,86.8154109 C122.89287,86.7626126 121.086031,84.6930916 120.409979,81.4620076 C119.73047,78.2309235 120.451476,74.7046882 120.68576,73.3466462 C120.825812,72.5217807 122.362921,68.0382513 125.277205,68.0572933 C125.908302,68.061621 126.996728,69.2569403 127.363283,70.1268143 C129.917928,76.2297807 133.738225,74.7081504 133.738225,74.7081504 C133.983747,74.897705 133.669928,78.605705 133.299915,80.1835958 C132.804547,82.3059151 130.514444,86.2969487 128.322895,87.3260832" id="Fill-63" fill="#E0AD97"></path>
                <polygon id="Fill-65" fill="#5E6E84" points="137.784419 122.810535 134.024639 190.971434 128.534097 190.971434 125.601658 138.848241 123.590794 190.971434 116.687632 190.971434 113.951439 122.810535"></polygon>
                <path d="M116.097254,193.469661 L123.143925,193.469661 L122.128119,199.424618 L122.20679,202.48519 L110.380209,202.48519 C110.380209,202.48519 110.035267,200.911627 110.380209,200.581854 C111.376996,199.636677 114.758983,200.812955 115.783435,199.583013 C116.848519,198.308064 116.097254,193.469661 116.097254,193.469661" id="Fill-67" fill="#141F2C"></path>
                <path d="M134.945175,193.469661 L127.89764,193.469661 L128.913446,199.424618 L128.838234,202.48519 L140.662221,202.48519 C140.662221,202.48519 141.006298,200.911627 140.662221,200.581854 C139.664569,199.636677 136.282582,200.812955 135.25813,199.583013 C134.193046,198.308064 134.945175,193.469661 134.945175,193.469661" id="Fill-69" fill="#141F2C"></path>
                <path d="M141.972741,95.0889941 C140.234199,93.2808681 128.041063,87.8971706 128.041063,87.8971706 C128.041063,87.8971706 128.584844,92.3010697 126.60856,92.3010697 C124.590779,92.3010697 124.590779,88.7523303 124.590779,88.7523303 C124.590779,88.7523303 114.47767,92.0318849 113.05727,93.3068345 C106.531037,99.1527336 106.210302,132.597439 106.210302,132.597439 L111.613528,132.911633 C111.613528,132.911633 114.648844,112.197381 115.237579,107.58575 C115.312792,107.003238 115.260921,106.57133 115.54016,106.57133 C115.706147,106.57133 115.875592,106.684717 115.860895,107.017952 C115.680212,110.472347 114.489773,115.68207 113.775683,122.280129 C113.578573,124.062288 120.721205,124.504582 120.721205,124.504582 L129.336973,124.504582 C129.336973,124.504582 137.84727,124.406776 137.880986,122.264549 C137.997695,114.860666 136.88247,111.388095 137.127992,108.508423 C137.143554,108.342238 137.645837,108.35349 137.65016,108.516213 C137.839489,114.554263 139.513192,135.203599 139.513192,135.203599 L143.370663,135.922868 C143.370663,135.922868 148.766973,102.144927 141.972741,95.0889941" id="Fill-71" fill="#84B1DF"></path>
                <path d="M128.765268,83.2790487 L128.765268,89.0825361 C128.765268,89.0825361 129.781939,94.8332252 126.354997,94.8332252 C123.746752,94.8332252 124.019939,89.8424857 124.019939,89.8424857 L123.928301,88.1408218 L123.948185,83.2790487 L128.765268,83.2790487 Z" id="Fill-73" fill="#E0AD97"></path>
                <path d="M127.029493,97.8969126 C126.553145,97.7116857 125.944525,97.9315345 125.770757,98.4309546 C125.589209,98.9450891 125.952306,99.5016353 126.446809,99.645316 C126.885983,99.7734168 127.434086,99.5734756 127.611312,99.1112739 C127.800641,98.6231059 127.493738,98.0786773 127.029493,97.8969126" id="Fill-75" fill="#141F2C"></path>
                <path d="M126.976325,101.051482 C126.495654,100.866255 125.887899,101.086104 125.714132,101.585524 C125.536041,102.099659 125.899138,102.656205 126.393641,102.799886 C126.832815,102.927987 127.376596,102.728045 127.558145,102.265844 C127.747474,101.777676 127.44057,101.233247 126.976325,101.051482" id="Fill-77" fill="#141F2C"></path>
                <path d="M240.348625,91.658921 C240.507695,94.6969882 243.900057,96.0896521 245.695657,95.9338538 C249.285992,95.6161983 252.036883,94.0616773 251.866573,91.462442 C251.810379,90.5882403 250.596599,87.9171647 250.551644,87.4212067 C250.551644,87.4212067 253.541141,84.0585597 254.386637,78.3078706 C255.033295,73.9186857 255.769863,71.4181227 253.816057,69.2992655 C248.69985,63.7415933 243.352818,66.8973748 242.28687,67.1276101 C241.221786,67.3543832 238.893644,70.9152403 238.735437,76.1015933 C238.735437,76.1015933 238.160534,82.0383748 242.522018,87.8756185 C242.522018,87.8756185 240.314908,91.0192824 240.348625,91.658921" id="Fill-79" fill="#E0AD97"></path>
                <path d="M224.805057,137.02064 L225.76467,142.430304 C225.76467,142.430304 225.606463,144.655624 225.76467,146.800447 C225.957457,149.384968 225.708476,151.518539 226.041315,151.560086 C226.732063,151.64664 227.098618,147.803615 227.098618,147.803615 C227.098618,147.803615 227.313883,153.717027 227.78245,153.792329 C228.946954,153.977556 228.046992,147.912674 228.046992,147.912674 C228.046992,147.912674 229.479495,153.459094 229.951521,153.296371 C230.915457,152.964002 229.218412,147.871128 229.218412,147.871128 L229.411199,147.814867 C229.411199,147.814867 231.323508,152.040464 231.943366,151.783397 C232.928915,151.371397 230.507405,147.859876 229.841728,146.637724 C229.638566,146.259481 229.195934,145.174086 229.834812,144.917018 C230.511728,144.640044 231.157521,147.379497 231.958063,147.11464 C232.653999,146.884405 231.410825,144.402018 230.55236,143.459439 C230.276579,143.157363 229.452695,141.855582 229.452695,141.855582 L229.063663,136.44938 L224.805057,137.02064 Z" id="Fill-81" fill="#E0AD97"></path>
                <path d="M265.93372,133.90502 L264.974107,139.314684 C264.974107,139.314684 265.132314,141.540003 264.974107,143.684827 C264.780455,146.269348 265.030301,148.402919 264.697462,148.444466 C264.006714,148.53102 263.640159,144.687995 263.640159,144.687995 C263.640159,144.687995 263.42403,150.601407 262.955462,150.673247 C261.795281,150.861936 262.69092,144.797054 262.69092,144.797054 C262.69092,144.797054 261.259281,150.343474 260.786391,150.180751 C259.82332,149.848382 261.520365,144.755508 261.520365,144.755508 L261.326714,144.699247 C261.326714,144.699247 259.414404,148.924844 258.798868,148.667776 C257.808997,148.255776 260.230507,144.744255 260.896185,143.522104 C261.10021,143.143861 261.546301,142.058466 260.903965,141.801398 C260.227049,141.524424 259.580391,144.263877 258.779849,143.99902 C258.084778,143.768785 259.327952,141.286398 260.186417,140.343818 C260.461333,140.041743 261.289539,138.739961 261.289539,138.739961 L261.674249,133.33376 L265.93372,133.90502 Z" id="Fill-83" fill="#E0AD97"></path>
                <path d="M239.706981,90.6636294 C239.706981,90.6636294 232.085406,91.8710664 228.131974,96.3199739 C220.713561,104.657781 224.807045,142.007831 224.807045,142.007831 C224.807045,142.007831 229.389845,142.499461 230.085781,141.315394 C230.085781,141.315394 230.165316,115.467587 231.363535,115.467587 C232.190877,115.467587 231.003897,134.103663 231.861497,137.456789 C233.558542,144.084276 254.705471,142.882033 258.635561,137.634226 C259.345329,136.683856 257.936168,112.145621 257.936168,112.145621 L260.362,138.697117 L265.932077,139.605075 C265.932077,139.605075 271.048284,102.34331 260.263445,93.5164697 C258.937277,92.4267471 252.101548,90.7848059 252.101548,90.7848059 L245.491458,97.4399908 L239.706981,90.6636294 Z" id="Fill-85" fill="#141F2C"></path>
                <polygon id="Fill-87" fill="#FEFEFE" points="245.946885 91.7662487 250.553027 87.4229378 252.098782 90.7864504 250.148434 96.4306773 245.221556 120.383803 244.292201 120.383803 242.054834 96.4306773 239.707672 90.6652739 242.519079 87.876484"></polygon>
                <path d="M239.15905,69.6901462 C239.170289,69.6338857 240.348625,66.6486168 241.301321,65.509558 C241.361837,65.4342555 241.551166,65.2221966 241.561541,65.1996924 C241.920315,64.8024067 242.306754,64.4354151 242.713941,64.0987176 C243.258586,63.8295328 246.308599,63.3041462 247.139399,63.516205 C247.532754,63.6174739 250.604379,64.3592471 250.911283,64.7452807 C251.284754,64.6734403 255.324637,66.9203983 255.675631,67.4163563 C255.872741,67.9079866 256.03527,68.4186588 256.15976,68.937121 C256.15976,68.9639529 256.175321,69.0357933 256.182237,69.0427176 C256.205579,69.1379277 256.219412,69.2366 256.239295,69.3344067 C256.526315,70.791121 256.126044,73.9771966 256.113941,74.0334571 C256.038728,74.3363983 256.099244,77.2757933 254.330444,78.6753815 L254.633025,73.5643311 C254.701321,73.2994739 254.251773,72.410558 254.23967,72.1534908 C254.186934,71.0178941 253.057012,71.287079 251.900289,70.9919277 C251.784444,70.9616336 249.044792,70.8214151 247.970199,70.5453059 C246.897334,70.2726588 244.430005,69.0773395 244.313295,69.0470454 C243.156573,68.7518941 241.569321,68.6194655 240.976263,69.5880118 C240.843992,69.8078605 240.409141,70.2847765 240.340844,70.5453059 L238.931683,73.9391126 C238.051605,71.8618017 238.558212,72.0435664 239.15905,69.6901462" id="Fill-89" fill="#8A3833"></path>
                <polygon id="Fill-91" fill="#FEFEFE" points="244.242319 121.174566 242.330009 142.107802 247.400396 141.809188 245.220951 121.174566"></polygon>
                <polyline id="Stroke-93" stroke="#1D1C1B" stroke-width="0.743" points="250.703366 98.614537 245.945934 93.4766546 241.347573 98.0432765"></polyline>
                <path d="M220.694369,125.691592 L222.194305,143.0155 C222.194305,143.0155 222.734627,144.582139 223.032885,146.152239 C223.391659,148.043458 223.982124,149.527004 223.754756,149.621349 C223.270627,149.814366 222.269517,147.128576 222.269517,147.128576 C222.269517,147.128576 223.252472,151.411298 222.930872,151.554979 C222.129466,151.914181 221.612485,147.393433 221.612485,147.393433 C221.612485,147.393433 221.647066,151.645861 221.276188,151.619029 C220.524059,151.566231 220.761801,147.585584 220.761801,147.585584 L220.614834,147.582122 C220.614834,147.582122 220.055492,150.983718 219.560124,150.918803 C218.769956,150.813206 219.836769,147.824475 220.074511,146.822172 C220.149724,146.511441 220.262975,145.645029 219.752911,145.584441 C219.212588,145.516929 219.276563,147.604626 218.649788,147.57087 C218.109466,147.540576 218.524434,145.520391 218.959285,144.676483 C219.099337,144.408164 219.439956,143.314979 219.439956,143.314979 L216.121943,126.085416 L220.694369,125.691592 Z" id="Fill-95" fill="#8A3833"></path>
                <path d="M191.317765,127.449776 L192.803004,144.778012 C192.803004,144.778012 192.534139,146.412163 192.508204,148.00823 C192.477946,149.934936 192.152888,151.497247 192.394952,151.550045 C192.900694,151.65997 193.429778,148.840886 193.429778,148.840886 C193.429778,148.840886 193.195494,153.230071 193.535249,153.316625 C194.382475,153.532146 194.121391,148.988894 194.121391,148.988894 C194.121391,148.988894 194.813004,153.184197 195.176101,153.097642 C195.905752,152.915877 194.994552,149.033903 194.994552,149.033903 L195.138062,149.003608 C195.138062,149.003608 196.271443,152.257197 196.747791,152.110054 C197.503378,151.871163 195.946385,149.109205 195.539197,148.164029 C195.40952,147.868877 195.153623,147.036222 195.644668,146.888213 C196.162514,146.729818 196.456449,148.799339 197.068526,148.655659 C197.598475,148.534482 196.846346,146.61297 196.271443,145.859945 C196.090759,145.617592 195.568591,144.599709 195.568591,144.599709 L195.890191,127.053356 L191.317765,127.449776 Z" id="Fill-97" fill="#8A3833"></path>
                <path d="M195.34909,113.535948 C193.630432,112.824469 193.66069,96.1817462 193.157542,91.2940067 C192.824703,88.0516706 193.871632,84.0372672 195.111348,80.0038218 C195.738123,77.9689227 197.317594,75.9487378 198.278071,74.8737294 C201.244226,71.5560908 202.555697,71.9490487 205.136277,71.8694185 C207.717723,71.7906538 211.534561,73.133116 213.064755,75.4449899 C217.319903,81.8656118 217.243826,89.4434689 217.315581,92.5680908 C217.3614,94.5432672 219.9878,112.616738 217.327684,113.535948 C212.667942,115.151057 198.679206,114.913032 195.34909,113.535948" id="Fill-99" fill="#141F2C"></path>
                <path d="M193.25359,102.825246 C194.900493,100.786019 204.401525,98.2586244 204.401525,98.2586244 C204.401525,98.2586244 203.300996,102.761196 205.364596,102.761196 C207.468828,102.761196 207.468828,99.056658 207.468828,99.056658 C207.468828,99.056658 213.269732,100.661381 214.906261,101.803902 C223.106196,107.539011 223.106196,142.803961 223.106196,142.803961 L218.564028,143.209036 C218.564028,143.209036 215.416325,120.947187 214.799925,116.13475 C214.724712,115.526271 214.777448,115.075322 214.48697,115.075322 C214.30888,115.075322 214.13079,115.193036 214.150674,115.540986 C214.343461,119.146851 214.668519,125.885129 214.668519,125.885129 L213.103745,127.712297 L201.524415,128.060246 L196.582841,125.869549 C196.582841,125.869549 196.211964,114.65986 195.95088,111.655549 C195.936183,111.481574 196.27248,113.656692 196.264699,113.827204 C196.072777,120.12665 195.815151,140.988045 195.815151,140.988045 L192.266312,141.600851 C192.266312,141.600851 188.71488,108.440045 193.25359,102.825246" id="Fill-101" fill="#FEFEFE"></path>
                <path d="M213.038733,100.609361 C212.438759,100.397303 210.692436,99.9134622 210.692436,99.9134622 C210.692436,99.9134622 210.469391,105.712622 209.078385,106.810134 C207.715043,107.884277 203.497068,107.847059 202.137185,106.765126 C200.697765,105.618277 200.428901,99.6027311 200.428901,99.6027311 L196.899081,100.794588 C196.899081,100.794588 196.877468,116.480017 196.581804,121.701857 C196.07952,130.641218 192.924036,158.536042 192.924036,158.536042 L218.344268,158.536042 C218.344268,158.536042 216.47432,130.974454 214.667481,121.701857 C213.97241,118.137538 213.745043,107.256756 213.745043,107.256756 L214.697739,101.392681 C214.697739,101.392681 213.900655,100.915765 213.038733,100.609361" id="Fill-103" fill="#141F2C"></path>
                <path d="M203.355979,95.0116143 C204.459102,95.5300765 206.846895,95.8624462 208.559502,94.5156563 C208.627799,94.462858 210.376715,92.4573874 211.034612,89.3215134 C211.692508,86.1847739 210.99225,82.768463 210.765747,81.448505 C210.765747,81.448505 210.346457,81.1533538 207.519489,81.1533538 C205.804289,81.1533538 203.730315,81.2061521 202.814792,81.2779924 C198.922741,81.5956479 198.314986,81.5991101 198.314986,81.5991101 C198.231128,81.9851437 198.288186,86.5292613 198.53025,88.0846479 C199.145786,92.0601017 201.231863,94.0127739 203.355979,95.0116143" id="Fill-105" fill="#8A3833"></path>
                <path d="M204.696671,93.3464765 L204.696671,98.2610479 C204.696671,98.2610479 202.841419,104.265342 206.419652,104.265342 C209.141148,104.265342 208.460774,99.0590815 208.460774,99.0590815 L208.357897,97.8490479 L208.142632,93.3464765 L204.696671,93.3464765 Z" id="Fill-107" fill="#8A3833"></path>
                <polygon id="Fill-109" fill="#84B1DF" points="7.54394065 129.536695 10.4945342 198.321653 14.8058761 198.325981 17.262831 142.218678 18.6918761 198.321653 24.1097987 198.325981 26.2598503 129.536695"></polygon>
                <g id="Group-113" transform="translate(0.000000, 119.612429)">
                    <mask id="mask-2" fill="white">
                        <use xlink:href="#path-1"></use>
                    </mask>
                    <g id="Clip-112"></g>
                    <path d="M1.24239613,0.272647059 L0.88708,18.1150168 C0.88708,18.1150168 0.520525161,19.776 0.399492903,21.4101513 C0.255983226,23.381 -0.171087742,24.9623529 0.0744348387,25.0307311 C0.584499355,25.1752773 1.29599613,22.3146471 1.29599613,22.3146471 C1.29599613,22.3146471 0.796305806,26.7981765 1.14038323,26.9072353 C1.99452516,27.1798824 1.99452516,22.5076639 1.99452516,22.5076639 C1.99452516,22.5076639 2.45877032,26.8466471 2.83310581,26.7791345 C3.59301548,26.6354538 2.88584129,22.6054706 2.88584129,22.6054706 L3.03713161,22.5829664 C3.03713161,22.5829664 4.00452516,25.984563 4.4998929,25.8599244 C5.29351871,25.6591176 3.8566929,22.7387647 3.49446065,21.7468487 C3.38120903,21.4369832 3.16594452,20.5662437 3.67514452,20.4459328 C4.21978968,20.3126387 4.39701548,22.4505378 5.03243484,22.341479 C5.58399613,22.2462689 4.92350581,20.2338739 4.38231871,19.4280504 C4.20941548,19.1701176 3.7330671,18.0959748 3.7330671,18.0959748 L5.08862839,0.132428571 L1.24239613,0.272647059 Z" id="Fill-111" fill="#8A3833" mask="url(#mask-2)"></path>
                </g>
                <path d="M40.6124606,115.065022 L43.688409,109.110064 C43.688409,109.110064 44.810551,107.835114 45.7096477,106.46582 C46.7902929,104.808299 47.9279961,103.632022 47.7464477,103.453719 C47.3686542,103.079803 45.3621123,105.239341 45.3621123,105.239341 C45.3621123,105.239341 47.9694929,101.559039 47.7205123,101.297644 C47.1041123,100.643291 44.8451316,104.732997 44.8451316,104.732997 C44.8451316,104.732997 46.5413123,100.711669 46.1782155,100.589627 C45.4416477,100.343812 44.1111574,104.214534 44.1111574,104.214534 L43.9719703,104.157408 C43.9719703,104.157408 44.7690542,100.715131 44.2736865,100.582703 C43.4878413,100.374106 43.3296348,103.624232 43.1627832,104.668081 C43.1143703,104.993526 42.8835445,105.859938 42.37348,105.720585 C41.8366155,105.569114 42.7132348,103.61298 42.10548,103.400921 C41.5755316,103.219156 41.1830413,105.296467 41.2660348,106.265013 C41.2919703,106.579207 41.1908219,107.747694 41.1908219,107.747694 L37.5356477,113.314022" id="Fill-114" fill="#8A3833"></path>
                <path d="M25.3027445,193.98267 L18.0745252,193.332645 L18.5690284,199.533418 L18.2059316,202.665829 L30.3359574,203.759014 C30.3359574,203.759014 30.8347832,202.177661 30.5097252,201.807208 C29.5769123,200.743451 26.0021381,201.640157 25.0615445,200.285577 C24.0863703,198.878199 25.3027445,193.98267 25.3027445,193.98267" id="Fill-116" fill="#141F2C"></path>
                <path d="M16.7969432,193.975918 L9.55229806,193.473036 L10.1799368,199.666019 L9.87735613,202.802759 C9.87735613,202.802759 19.1553432,205.692818 21.7056658,204.326986 C22.4240787,203.94528 22.4958335,202.054061 22.1629948,201.693994 C21.20684,200.64928 17.6502206,201.618692 16.6836916,200.283154 C15.6817174,198.894818 16.7969432,193.975918 16.7969432,193.975918" id="Fill-118" fill="#141F2C"></path>
                <path d="M94.0157832,195.444577 L93.22648,199.856266 C93.22648,199.856266 99.9714348,199.382813 100.474583,201.158048 C101.158415,203.556476 98.1957187,203.688905 98.1957187,203.688905 L86.9310735,201.667855 L88.7863252,195.864367 L94.0157832,195.444577 Z" id="Fill-120" fill="#9BA8BF"></path>
                <path d="M80.3675806,195.444577 L79.5782774,199.856266 C79.5782774,199.856266 86.3232323,199.382813 86.8263806,201.158048 C87.5102129,203.556476 84.5475161,203.688905 84.5475161,203.688905 L73.282871,201.667855 L75.1372581,195.864367 L80.3675806,195.444577 Z" id="Fill-122" fill="#9BA8BF"></path>
                <path d="M89.8223613,89.320042 C89.6702065,92.259437 86.3867742,93.6027647 84.6560129,93.4512941 C81.1832516,93.1448908 78.5274581,91.6431681 78.6891226,89.1270252 C78.7453161,88.2831176 79.9176,85.7029244 79.9634194,85.2268739 C79.9634194,85.2268739 77.0724774,81.9732857 76.2563742,76.4147479 C75.6321935,72.1735714 74.9224258,69.7561008 76.8036129,67.7099496 C81.7503742,62.3375042 86.9158581,65.3868235 87.9472258,65.6101345 C88.9785935,65.8334454 91.2280645,69.2679328 91.3828129,74.2846387 C91.3828129,74.2846387 91.9378323,80.0206134 87.7241806,85.6657059 C87.7241806,85.6657059 89.8560774,88.6994454 89.8223613,89.320042" id="Fill-124" fill="#F4C9BC"></path>
                <polygon id="Fill-126" fill="#141F2C" points="98.1805032 132.607566 94.4397419 198.475634 87.1726194 198.483424 84.954271 145.618457 80.4795355 198.475634 73.5046194 198.483424 72.3020774 132.607566"></polygon>
                <path d="M104.845058,133.160737 L103.920026,138.389502 C103.920026,138.389502 104.066994,140.538653 103.915703,142.611636 C103.730697,145.113065 103.971897,147.17393 103.654619,147.212014 C102.982026,147.295972 102.627574,143.580182 102.627574,143.580182 C102.627574,143.580182 102.419226,149.297115 101.969677,149.368955 C100.843213,149.546392 101.712916,143.690107 101.712916,143.690107 C101.712916,143.690107 100.325368,149.046972 99.8723613,148.892039 C98.9430065,148.570922 100.578671,143.648561 100.578671,143.648561 L100.393665,143.595762 C100.393665,143.595762 98.5461935,147.677678 97.9488129,147.427535 C96.9926581,147.03025 99.3354968,143.637308 99.9743742,142.456703 C100.174942,142.089712 100.602013,141.041535 99.9856129,140.791392 C99.3320387,140.527401 98.7078581,143.171645 97.9297935,142.914577 C97.2615226,142.694729 98.4623355,140.2963 99.294,139.384014 C99.5585419,139.093191 100.35649,137.832955 100.35649,137.832955 L100.729961,132.608518 L104.845058,133.160737 Z" id="Fill-128" fill="#F4C9BC"></path>
                <path d="M65.0975458,130.149934 L66.0225781,135.378699 C66.0225781,135.378699 65.8721523,137.526985 66.0269006,139.599968 C66.208449,142.101397 65.9663845,144.163128 66.2879845,144.201212 C66.9562555,144.284304 67.3150297,140.56938 67.3150297,140.56938 C67.3150297,140.56938 67.51992,146.286313 67.9729265,146.358153 C69.099391,146.53559 68.2296877,140.679304 68.2296877,140.679304 C68.2296877,140.679304 69.6137781,146.03617 70.0702426,145.881237 C70.9995974,145.559254 69.3639329,140.636892 69.3639329,140.636892 L69.5480748,140.584094 C69.5480748,140.584094 71.3964103,144.66601 71.993791,144.416733 C72.9499458,144.019447 70.6071071,140.62564 69.9682297,139.445035 C69.7676619,139.078044 69.3371329,138.029867 69.956991,137.78059 C70.6105652,137.515733 71.2347458,140.159976 72.0084877,139.903775 C72.6810813,139.683926 71.4802684,137.285497 70.6486039,136.373212 C70.3840619,136.082388 69.5861135,134.822153 69.5861135,134.822153 L69.2126426,129.597716 L65.0975458,130.149934 Z" id="Fill-130" fill="#F4C9BC"></path>
                <path d="M88.9713316,87.7343613 C88.9713316,87.7343613 97.8066865,89.5234454 101.633899,93.8252101 C108.799009,101.884311 105.356506,134.276513 105.356506,134.276513 C105.356506,134.276513 100.825577,134.409807 100.156441,133.262958 C100.156441,133.262958 99.6653961,112.329723 98.5086735,112.329723 C97.7072671,112.329723 98.8570735,130.338277 98.025409,133.580613 C96.3854219,139.986521 75.9491252,138.824092 72.1513058,133.754588 C71.4596929,132.835378 72.8238994,109.117681 72.8238994,109.117681 L70.2277574,132.983387 L64.7259768,132.657941 C64.7259768,132.657941 60.153551,99.6442773 70.5726994,91.116916 C71.8608284,90.0644118 78.4665961,88.4752689 78.4665961,88.4752689 L82.5246348,91.116916 L88.9713316,87.7343613 Z" id="Fill-132" fill="#5E6E84"></path>
                <polygon id="Fill-134" fill="#9BA8BF" points="84.2738968 88.8104084 81.416671 92.5365849 84.0620903 93.7552739 87.0628258 92.5365849"></polygon>
                <polyline id="Fill-136" fill="#FEFEFE" points="84.2536671 88.8120529 84.2536671 88.8085908 79.2161316 87.5561454 77.5493445 88.0174815 80.3538348 93.9308933 83.2024155 90.1925992"></polyline>
                <polygon id="Fill-138" fill="#FEFEFE" points="89.4956606 87.6211479 84.2731187 88.8095429 84.2765768 88.813005 85.3278284 90.1935513 88.1772735 93.9318454 91.5436994 88.839837"></polygon>
                <path d="M90.9731187,68.0880202 C90.96188,68.0352218 89.8250413,65.1486252 88.9026026,64.0476504 C88.8420865,63.9714824 88.6605381,63.7715412 88.6492994,63.7481714 C88.3017639,63.3630034 87.9308865,63.0107261 87.5340735,62.6852807 C87.0093123,62.4247513 84.0621768,61.914079 83.2564477,62.1218101 C82.8795187,62.2204824 79.9124994,62.9388857 79.6142413,63.3093395 C79.2511445,63.2418269 75.3478542,65.4091546 75.0115574,65.8938605 C74.8187703,66.3664487 74.6640219,66.8589445 74.5429897,67.3618269 C74.5429897,67.3843311 74.5282929,67.4561714 74.5205123,67.4639613 C74.5014929,67.5548437 74.4824735,67.6491882 74.4634542,67.7435328 C74.1876735,69.1517765 74.5767058,72.2305244 74.588809,72.2841882 C74.6562413,72.5784739 74.6000477,75.4200622 76.3117897,76.7711798 L76.0161252,71.8297765 C75.952151,71.5761714 76.3870026,70.7175496 76.3991058,70.4682723 C76.4475187,69.3742218 77.5437252,69.6312891 78.662409,69.3439277 C78.7713381,69.3170958 81.4167574,69.181205 82.4559058,68.9172134 C83.4950542,68.6480286 85.8793897,67.4942555 85.9926413,67.4674235 C87.1113252,67.1800622 88.6458413,67.0510958 89.2164219,67.9893479 C89.3443703,68.2014067 89.7679832,68.6592807 89.8328219,68.9172134 L91.1927058,72.1933059 C92.0425252,70.1878353 91.5558026,70.3652723 90.9731187,68.0880202" id="Fill-140" fill="#141F2C"></path>
                <path d="M90.1727497,77.2768319 C90.0594981,78.5292773 89.5866077,79.0780336 89.2096787,79.6337143 C87.8791884,81.5933109 85.39284,80.2318067 84.9164916,80.2127647 C84.7574206,80.2049748 84.9009303,80.1790084 84.587111,80.227479 C84.2741561,80.2733529 84.0018335,80.2915294 83.8540013,80.3451933 C83.4087755,80.5044538 82.7284013,81.4496303 81.7385303,81.6011008 C81.0019626,81.7144874 80.1288013,81.5673445 79.4371884,81.1397647 C78.8666077,80.7840252 78.1222594,80.3979916 77.8118981,79.1836303 C77.7142077,78.7863445 77.6874077,77.9692689 76.5540271,78.1432437 C76.5540271,78.1432437 76.6180013,78.6651681 76.8030077,79.769605 C77.6424529,84.7941008 81.4428658,86.9692185 85.528569,86.3416975 C89.6134077,85.7133109 91.8542335,80.284605 91.4150594,77.4205126 C91.2715497,76.4787983 91.2568529,76.3948403 91.2568529,76.3948403 C90.4753303,76.5125546 90.1727497,77.2768319 90.1727497,77.2768319" id="Fill-142" fill="#141F2C"></path>
                <path d="M7.87565548,95.3028706 C6.00138452,95.4621311 3.68448129,86.2682992 5.70658452,81.648879 C6.09561677,80.7556353 3.84787484,77.4942571 6.26592645,71.0701731 C7.02151355,69.0499882 8.82057161,67.1362655 9.78796516,66.050005 C12.7887006,62.6899546 14.1183265,63.0872403 16.7291652,63.0076101 C19.3408684,62.9288454 23.4974619,64.1129126 24.7484168,66.6247277 C26.0408684,69.2092487 24.7484168,71.0701731 26.554391,73.389837 C29.5248684,77.2068958 27.3557974,80.6881227 27.4275523,83.8508286 C27.4725071,85.8519714 28.5116555,86.9641983 27.0679135,89.4197529 C27.0679135,89.4197529 25.9535523,93.7137277 24.7864555,94.0504252 C22.5637845,94.6978538 12.0668297,94.9471311 7.87565548,95.3028706" id="Fill-144" fill="#141F2C"></path>
                <path d="M14.9260439,86.4216739 C14.9260439,86.4216739 15.0773342,86.7929933 14.9260439,86.4216739 C14.9260439,86.4216739 18.4593213,87.2802958 20.1900826,85.9222538 C20.2575148,85.8651277 22.0263148,83.8380185 22.6945858,80.6675227 C23.3602632,77.4935647 23.4665987,72.5062874 23.4925342,72.2950941 C23.5158761,72.1211193 20.7719019,67.4939092 17.9189987,67.5086235 C17.2948181,67.5120857 15.9012181,67.6220101 15.5459019,68.4771697 C13.0362116,74.465884 9.60926968,74.034842 9.60926968,74.034842 C9.37066323,74.2243966 9.98706323,78.7719765 10.0441213,79.4107496 C10.0441213,79.4107496 10.64496,86.2139429 14.9260439,86.4216739" id="Fill-146" fill="#8A3833"></path>
                <polygon id="Fill-148" fill="#8A3833" points="15.220671 85.586595 15.220671 91.0758891 12.7464258 96.3462 16.5252258 98.1699059 21.3500903 95.9039059 18.8758452 91.972595 18.8758452 85.586595"></polygon>
                <path d="M4.92160387,95.7871437 C7.54368129,92.366505 15.2223135,91.0880933 15.2223135,91.0880933 C15.2223135,91.0880933 13.6091265,96.7444378 16.5225458,96.925337 C20.9739394,97.2023118 18.8731652,91.9735471 18.8731652,91.9735471 C18.8731652,91.9735471 25.3725974,92.8737151 27.0886619,93.9331437 C32.4088942,97.2213538 32.4088942,115.815883 32.4088942,115.815883 C35.1329845,113.565463 38.0879006,108.946043 38.0879006,108.946043 L43.5300297,112.857446 C43.5300297,112.857446 31.7743394,125.418253 29.4193974,122.819018 C26.4264426,119.519555 26.9373716,105.169665 26.9373716,105.169665 L28.1278103,143.43027 C28.1278103,143.43027 28.1278103,148.087774 16.9003394,148.087774 C7.54368129,148.087774 5.75672645,143.600782 5.75672645,143.600782 L6.94716516,106.274967 C7.34743613,109.448925 5.08326839,133.110362 5.08326839,133.110362 L0.00164258065,133.139791 C0.00164258065,133.139791 0.518623226,101.534371 4.92160387,95.7871437" id="Fill-150" fill="#FEC70D"></path>
                <path d="M54.6296387,46.3504328 C48.1146452,46.5321975 41.4639226,45.7073319 35.5272903,42.8467017 C29.5906581,39.9834748 24.4139355,34.9096429 22.188671,28.3868866 C19.9590839,21.868458 21.0881419,13.9192815 25.7323226,9.05404622 C29.2777032,5.34258403 34.2988129,3.76123109 39.1625806,2.6602563 C54.3201419,-0.782886555 70.1416516,-0.885021008 85.3398452,2.36164286 C90.4940903,3.45828992 95.8601419,5.11581092 99.4392387,9.20897899 C105.425148,16.0571807 103.965845,27.7818697 98.0525548,34.697584 C92.1384,41.6176261 83.0506065,44.4661387 74.2904645,45.1810798 C65.5311871,45.8968866 63.4036129,45.8588025 54.6296387,46.3504328" id="Fill-152" fill="#9DCBEE"></path>
                <path d="M48.1390245,43.4300798 C44.840031,47.7578109 40.3428181,51.1559454 35.2828052,53.1492983 C37.1717729,49.4871723 38.2904568,45.4277605 38.5403019,41.3155504" id="Fill-154" fill="#9DCBEE"></path>
                <path d="M119.426938,14.7638815 C112.912809,14.585579 106.261222,15.4069824 100.32459,18.2710748 C94.3888219,21.1308395 89.2120994,26.2089992 86.9859703,32.7274277 C84.7563832,39.2458563 85.8863058,47.1950328 90.5304865,52.0602681 C94.0750026,55.7751924 99.0969768,57.3530832 103.95988,58.454058 C119.117441,61.8972008 134.938951,61.9993353 150.138009,58.7569992 C155.292254,57.6560244 160.658306,55.9985034 164.236538,51.9053353 C170.222448,45.0571336 168.764009,33.3324445 162.850719,26.4167303 C156.936564,19.4966882 147.847906,16.6481756 139.088628,15.9332345 C130.329351,15.2174277 128.198319,15.2555118 119.426938,14.7638815" id="Fill-156" fill="#FEFEFE"></path>
                <path d="M141.013733,58.1705916 C144.311862,62.4983227 148.809939,65.8964571 153.869088,67.8863479 C151.98012,64.2242218 150.861436,60.1682723 150.612455,56.0560622" id="Fill-158" fill="#FEFEFE"></path>
                <path d="M196.668601,19.8232588 C190.153608,19.6423597 183.502885,20.4663597 177.566253,23.3269899 C171.629621,26.1910824 166.452898,31.2640487 164.227634,37.786805 C161.998046,44.3052336 163.127105,52.2544101 167.771285,57.1196454 C171.316666,60.8311076 176.337775,62.4089983 181.201543,63.5134353 C196.362563,66.9565782 212.180614,67.0587126 227.378808,63.8163765 C232.533053,62.7154017 237.899105,61.0587462 241.478201,56.9647126 C247.464111,50.1173765 246.004808,38.3926874 240.091517,31.4761076 C234.177363,24.5560655 225.089569,21.7075529 216.329427,20.9926118 C207.57015,20.2776706 205.442575,20.3148891 196.668601,19.8232588" id="Fill-160" fill="#D4DDE4"></path>
                <path d="M218.254532,63.2303151 C221.553525,67.5580462 226.050738,70.9561807 231.110751,72.9495336 C229.221783,69.2839454 228.105693,65.2279958 227.853254,61.1157857" id="Fill-162" fill="#D4DDE4"></path>
            </g>
        </g>
    </g>
</svg>