<?xml version="1.0" encoding="UTF-8" standalone="no"?>
<svg width="201px" height="197px" viewBox="0 0 201 197" version="1.1" xmlns="http://www.w3.org/2000/svg" xmlns:xlink="http://www.w3.org/1999/xlink">
    <!-- Generator: Sketch 41.2 (35397) - http://www.bohemiancoding.com/sketch -->
    <title>Group 42</title>
    <desc>Created with Sketch.</desc>
    <defs></defs>
    <g id="Page-1" stroke="none" stroke-width="1" fill="none" fill-rule="evenodd">
        <g id="Group-42">
            <polygon id="Page-1-Copy-11" fill="#FF645B" points="0.907368864 1.83870352 0.907368864 195.591639 200.907369 196.67236 200.907369 0.791755467"></polygon>
            <path d="M47.0294392,132.285896 L53.0352986,132.285896 L53.0352986,134.397712 L51.4239704,134.397712 L46.1383259,150.791755 L42.4029743,150.791755 L37.3858845,134.666267 L32.7594196,150.791755 L29.0606892,150.791755 L23.6651814,134.397712 L22.0294392,134.397712 L22.0294392,132.285896 L28.0352986,132.285896 L28.0352986,134.397712 L26.4239704,134.397712 L30.9039509,148.618904 L35.628072,132.285896 L39.2779743,132.285896 L44.3072712,148.618904 L48.8727009,134.397712 L47.0294392,134.397712 L47.0294392,132.285896 Z M67.9034626,132.285896 L73.909322,132.285896 L73.909322,134.385505 L72.1515095,134.385505 L72.1515095,148.692146 L73.909322,148.692146 L73.909322,150.791755 L67.9034626,150.791755 L67.9034626,148.692146 L69.7589314,148.692146 L69.7589314,142.039314 L59.053365,142.039314 L59.053365,148.692146 L60.9088337,148.692146 L60.9088337,150.791755 L54.9029743,150.791755 L54.9029743,148.692146 L56.6607868,148.692146 L56.6607868,134.385505 L54.9029743,134.385505 L54.9029743,132.285896 L60.9088337,132.285896 L60.9088337,134.385505 L59.053365,134.385505 L59.053365,139.988533 L69.7589314,139.988533 L69.7589314,134.385505 L67.9034626,134.385505 L67.9034626,132.285896 Z M88.35024,148.692146 L89.8883259,148.692146 L88.4234821,144.492927 L81.3067829,144.492927 L79.8785603,148.692146 L81.7828571,148.692146 L81.7828571,150.791755 L75.7769978,150.791755 L75.7769978,148.692146 L77.3883259,148.692146 L83.1500446,132.285896 L86.7511189,132.285896 L92.5006306,148.692146 L94.3560993,148.692146 L94.3560993,150.791755 L88.35024,150.791755 L88.35024,148.692146 Z M82.0025837,142.46656 L87.7154743,142.46656 L84.834615,134.190193 L82.0025837,142.46656 Z M100.007955,148.692146 L101.704732,148.692146 L101.704732,134.287849 L97.4810993,134.287849 L97.4810993,137.168709 L94.9786579,137.168709 L94.9786579,132.285896 L111.482564,132.285896 L111.482564,137.168709 L108.980123,137.168709 L108.980123,134.287849 L104.09731,134.287849 L104.09731,148.692146 L106.001607,148.692146 L106.001607,150.791755 L100.007955,150.791755 L100.007955,148.692146 Z M122.822896,135.703865 C122.562478,135.34579 122.275616,135.071135 121.962301,134.87989 C121.648985,134.688646 121.305157,134.542163 120.930806,134.440437 C120.556456,134.338711 120.18211,134.287849 119.807759,134.287849 C119.189267,134.287849 118.648094,134.359056 118.184224,134.501472 C117.720355,134.643888 117.335837,134.837164 117.03066,135.081306 C116.725483,135.325448 116.495586,135.610276 116.340963,135.935798 C116.186339,136.261321 116.109029,136.603114 116.109029,136.961189 C116.109029,137.498301 116.20465,137.931646 116.395894,138.261238 C116.587139,138.590829 116.829242,138.855312 117.122213,139.054695 C117.415183,139.254077 117.738666,139.410733 118.092672,139.524666 C118.446677,139.638598 118.786436,139.75253 119.111959,139.866462 L121.577779,140.672127 C122.318343,140.90813 122.971412,141.176682 123.537008,141.477791 C124.102603,141.778899 124.576638,142.134934 124.959127,142.545906 C125.341616,142.956878 125.632547,143.430913 125.831929,143.968025 C126.031312,144.505137 126.131002,145.127689 126.131002,145.835701 C126.131002,146.600679 125.974346,147.308679 125.661031,147.959724 C125.347716,148.610769 124.910301,149.176356 124.348775,149.656502 C123.787249,150.136647 123.117903,150.513027 122.340718,150.785652 C121.563534,151.058277 120.711084,151.194587 119.783345,151.194587 C118.831192,151.194587 118.017398,151.08676 117.341939,150.871101 C116.66648,150.655443 116.098859,150.366546 115.639058,150.004402 C115.179258,149.642258 114.811016,149.229258 114.534322,148.765388 C114.257628,148.301519 114.041973,147.825449 113.887349,147.337166 L112.959615,147.337166 L112.959615,145.237556 L116.035787,145.237556 C116.035787,146.140881 116.131408,146.779709 116.322652,147.15406 C116.513897,147.528411 116.780414,147.839687 117.122213,148.087898 C117.464011,148.336109 117.870908,148.523282 118.342916,148.649421 C118.814923,148.775561 119.335751,148.83863 119.905416,148.83863 C120.458804,148.83863 120.957253,148.773527 121.400777,148.643318 C121.844301,148.513109 122.222716,148.323902 122.536031,148.075691 C122.849346,147.82748 123.089416,147.526376 123.256246,147.172371 C123.423076,146.818365 123.50649,146.417572 123.50649,145.969978 C123.50649,145.473556 123.402731,145.052418 123.195211,144.70655 C122.98769,144.360683 122.721173,144.065682 122.39565,143.821541 C122.070128,143.577399 121.714093,143.378019 121.327535,143.223396 C120.940977,143.068773 120.568666,142.934497 120.210592,142.820564 L117.537252,142.063728 C116.951311,141.884691 116.416242,141.656828 115.932027,141.380134 C115.447812,141.10344 115.032777,140.765716 114.68691,140.366951 C114.341042,139.968186 114.074525,139.502289 113.887349,138.969246 C113.700174,138.436203 113.606588,137.819754 113.606588,137.11988 C113.606588,136.411869 113.744933,135.748627 114.021627,135.130134 C114.298321,134.511642 114.705218,133.970469 115.24233,133.506599 C115.779442,133.04273 116.43658,132.678557 117.213765,132.41407 C117.99095,132.149583 118.88002,132.017341 119.881002,132.017341 C120.540185,132.017341 121.148496,132.094652 121.705953,132.249275 C122.26341,132.403898 122.767962,132.621588 123.219625,132.902351 C123.671287,133.183114 124.070046,133.520839 124.415914,133.915535 C124.761781,134.310231 125.052713,134.743576 125.288717,135.215584 L126.204244,135.215584 L126.204244,137.315193 L123.213521,137.315193 C123.213521,136.599044 123.083314,136.06194 122.822896,135.703865 Z M139.448873,148.692146 L140.986959,148.692146 L139.522115,144.492927 L132.405416,144.492927 L130.977193,148.692146 L132.88149,148.692146 L132.88149,150.791755 L126.875631,150.791755 L126.875631,148.692146 L128.486959,148.692146 L134.248677,132.285896 L137.849752,132.285896 L143.599263,148.692146 L145.454732,148.692146 L145.454732,150.791755 L139.448873,150.791755 L139.448873,148.692146 Z M133.101217,142.46656 L138.814107,142.46656 L135.933248,134.190193 L133.101217,142.46656 Z M147.322408,132.285896 L154.805318,132.285896 C155.6354,132.285896 156.398332,132.393724 157.094136,132.609382 C157.789941,132.825041 158.392148,133.142421 158.900777,133.561531 C159.409406,133.980641 159.804096,134.503504 160.084859,135.130134 C160.365622,135.756765 160.506002,136.476973 160.506002,137.290779 C160.506002,137.966238 160.367657,138.603032 160.090963,139.201179 C159.814269,139.799327 159.423647,140.322189 158.919088,140.769783 C158.414528,141.217376 157.810286,141.571377 157.106343,141.831795 C156.402401,142.092212 155.619124,142.22242 154.75649,142.22242 L151.472799,142.22242 L151.472799,148.692146 L153.328267,148.692146 L153.328267,150.791755 L147.322408,150.791755 L147.322408,148.692146 L149.08022,148.692146 L149.08022,134.397712 L147.322408,134.397712 L147.322408,132.285896 Z M151.472799,134.397712 L151.472799,140.220466 L154.805318,140.220466 C155.269188,140.220466 155.694395,140.157397 156.080953,140.031257 C156.467511,139.905117 156.801166,139.719979 157.081929,139.475837 C157.362693,139.231696 157.582417,138.926523 157.741109,138.56031 C157.899801,138.194097 157.979146,137.770925 157.979146,137.290779 C157.979146,136.379316 157.702456,135.669281 157.149068,135.160652 C156.59568,134.652023 155.712713,134.397712 154.500142,134.397712 L151.472799,134.397712 Z M162.849752,132.285896 L170.332662,132.285896 C171.162744,132.285896 171.925676,132.393724 172.62148,132.609382 C173.317284,132.825041 173.919492,133.142421 174.428121,133.561531 C174.93675,133.980641 175.33144,134.503504 175.612203,135.130134 C175.892966,135.756765 176.033345,136.476973 176.033345,137.290779 C176.033345,137.966238 175.895,138.603032 175.618306,139.201179 C175.341612,139.799327 174.950991,140.322189 174.446431,140.769783 C173.941872,141.217376 173.33763,141.571377 172.633687,141.831795 C171.929745,142.092212 171.146468,142.22242 170.283834,142.22242 L167.000142,142.22242 L167.000142,148.692146 L168.855611,148.692146 L168.855611,150.791755 L162.849752,150.791755 L162.849752,148.692146 L164.607564,148.692146 L164.607564,134.397712 L162.849752,134.397712 L162.849752,132.285896 Z M167.000142,134.397712 L167.000142,140.220466 L170.332662,140.220466 C170.796531,140.220466 171.221739,140.157397 171.608297,140.031257 C171.994855,139.905117 172.32851,139.719979 172.609273,139.475837 C172.890036,139.231696 173.109761,138.926523 173.268453,138.56031 C173.427145,138.194097 173.50649,137.770925 173.50649,137.290779 C173.50649,136.379316 173.2298,135.669281 172.676412,135.160652 C172.123024,134.652023 171.240057,134.397712 170.027486,134.397712 L167.000142,134.397712 Z M32.8082478,171.447029 L34.6515095,171.447029 L33.8214314,168.785896 L28.1329548,168.785896 L27.3028767,171.447029 L29.2560017,171.447029 L29.2560017,174.791755 L22.2369587,174.791755 L22.2369587,171.447029 L23.6163532,171.447029 L28.6578571,156.285896 L33.5528767,156.285896 L38.4845173,171.447029 L39.8272907,171.447029 L39.8272907,174.791755 L32.8082478,174.791755 L32.8082478,171.447029 Z M29.0973103,165.660896 L32.8326618,165.660896 L30.952779,159.64283 L29.0973103,165.660896 Z M53.609029,161.913337 C53.1532976,161.262293 52.7423316,160.800465 52.3761189,160.527839 C52.0099061,160.255214 51.615216,160.059904 51.1920368,159.941902 C50.7688576,159.8239 50.3253399,159.7649 49.8614704,159.7649 C49.1778733,159.7649 48.543114,159.917486 47.9571736,160.222664 C47.3712331,160.527841 46.8646464,160.942876 46.4373982,161.467781 C46.0101499,161.992686 45.6744599,162.603031 45.4303181,163.298836 C45.1861762,163.99464 45.0641071,164.733158 45.0641071,165.514412 C45.0641071,166.303804 45.1841418,167.046391 45.4242146,167.742195 C45.6642874,168.437999 45.9959084,169.04631 46.4190876,169.567146 C46.8422668,170.087982 47.3468191,170.500982 47.9327595,170.80616 C48.5186999,171.111337 49.1615971,171.263923 49.8614704,171.263923 C50.3497541,171.263923 50.8054787,171.184579 51.2286579,171.025886 C51.6518371,170.867194 52.0363548,170.657642 52.3822224,170.397224 C52.72809,170.136806 53.0312282,169.837737 53.2916462,169.500007 C53.5520642,169.162278 53.7555127,168.810312 53.9019978,168.444099 L57.8326618,169.542732 C57.5803819,170.340262 57.2101057,171.07878 56.721822,171.758308 C56.2335383,172.437836 55.6455722,173.025802 54.957906,173.522224 C54.2702398,174.018646 53.4971355,174.409267 52.63857,174.694099 C51.7800045,174.978931 50.8543139,175.121345 49.8614704,175.121345 C49.0232501,175.121345 48.2216631,175.007414 47.4566853,174.779548 C46.6917075,174.551683 45.9776033,174.230234 45.3143513,173.815193 C44.6510993,173.400152 44.0488918,172.899669 43.5077107,172.313728 C42.9665296,171.727788 42.5047015,171.078787 42.1222126,170.366707 C41.7397237,169.654626 41.4426889,168.88966 41.2310993,168.071785 C41.0195097,167.25391 40.9137165,166.40146 40.9137165,165.514412 C40.9137165,164.187908 41.1456478,162.944837 41.6095173,161.785164 C42.0733868,160.62549 42.7081461,159.612316 43.5138142,158.745613 C44.3194823,157.878909 45.2655177,157.195322 46.3519489,156.694832 C47.4383802,156.194341 48.608209,155.944099 49.8614704,155.944099 C50.862452,155.944099 51.7047287,156.068203 52.3883259,156.316414 C53.0719231,156.564625 53.8246825,157.054935 54.6466267,157.787361 L57.3810017,157.787361 L57.3810017,161.913337 L53.609029,161.913337 Z M59.7003376,156.285896 L67.1222126,156.285896 L67.1222126,159.64283 L65.4254353,159.64283 L65.4254353,167.321052 C65.4254353,168.020926 65.5047802,168.614995 65.6634724,169.103279 C65.8221646,169.591563 66.0439234,169.990322 66.3287556,170.299568 C66.6135877,170.608814 66.9513122,170.834642 67.3419392,170.977058 C67.7325661,171.119474 68.159808,171.190681 68.6236775,171.190681 C69.1038231,171.190681 69.5412373,171.129647 69.9359333,171.007576 C70.3306293,170.885505 70.6683538,170.675953 70.9491169,170.378914 C71.22988,170.081874 71.4455354,169.68515 71.5960896,169.188728 C71.7466437,168.692306 71.8219196,168.069754 71.8219196,167.321052 L71.8219196,159.64283 L69.8565876,159.64283 L69.8565876,156.285896 L77.2784626,156.285896 L77.2784626,159.64283 L75.8014118,159.64283 L75.8014118,166.844978 C75.8014118,168.147068 75.6142392,169.30469 75.2398884,170.317879 C74.8655376,171.331067 74.3508129,172.187585 73.6956989,172.887459 C73.040585,173.587332 72.2715497,174.120367 71.38857,174.48658 C70.5055904,174.852792 69.5595549,175.035896 68.5504353,175.035896 C67.5494537,175.035896 66.6135907,174.854827 65.7428181,174.492683 C64.8720455,174.130539 64.1131826,173.605642 63.4662068,172.917976 C62.8192309,172.23031 62.3085752,171.394137 61.9342243,170.409431 C61.5598735,169.424726 61.3727009,168.309828 61.3727009,167.064705 L61.3727009,159.64283 L59.7003376,159.64283 L59.7003376,156.285896 Z M88.4112751,161.498298 C88.3705848,161.213466 88.270895,160.944914 88.1122028,160.692634 C87.9535106,160.440354 87.7500622,160.222665 87.5018513,160.039558 C87.2536404,159.856452 86.9728815,159.712003 86.6595661,159.606209 C86.3462508,159.500414 86.0186987,159.447517 85.6769001,159.447517 C85.3676538,159.447517 85.0787569,159.480069 84.8102009,159.545173 C84.5416449,159.610278 84.3076791,159.709968 84.1082966,159.844246 C83.9089141,159.978524 83.7502243,160.151455 83.6322224,160.363045 C83.5142205,160.574634 83.4552204,160.82691 83.4552204,161.11988 C83.4552204,161.486093 83.5345653,161.777025 83.6932575,161.992683 C83.8519497,162.208342 84.0553982,162.385342 84.3036091,162.523689 C84.55182,162.662036 84.8264754,162.771898 85.1275837,162.853279 C85.428692,162.93466 85.7216578,163.024177 86.00649,163.121834 L89.3634236,164.24488 C89.8272931,164.407642 90.2626728,164.631435 90.6695759,164.916267 C91.076479,165.201099 91.4284449,165.546962 91.7254841,165.953865 C92.0225233,166.360768 92.2564891,166.828699 92.4273884,167.357673 C92.5982877,167.886647 92.6837361,168.480717 92.6837361,169.1399 C92.6837361,170.035087 92.5189428,170.85295 92.1893513,171.593513 C91.8597598,172.334077 91.3979317,172.968836 90.8038532,173.49781 C90.2097747,174.026784 89.497705,174.43775 88.6676228,174.73072 C87.8375405,175.023691 86.9179533,175.170173 85.9088337,175.170173 C85.2008224,175.170173 84.5314768,175.090829 83.9007771,174.932136 C83.2700773,174.773444 82.6943181,174.543547 82.1734821,174.242439 C81.6526462,173.941331 81.1969216,173.581227 80.8062946,173.162117 C80.4156677,172.743007 80.110495,172.268972 79.8907673,171.739998 L78.6334431,171.739998 L78.6334431,168.065681 L83.0523884,168.065681 L83.0523884,168.822517 C83.0523884,169.18873 83.1113885,169.526454 83.2293903,169.835701 C83.3473922,170.144947 83.5243924,170.413499 83.7603962,170.641365 C83.9964,170.869231 84.2934348,171.046231 84.6515095,171.172371 C85.0095842,171.298511 85.4286881,171.36158 85.9088337,171.36158 C86.6412592,171.36158 87.1987081,171.192717 87.581197,170.854988 C87.9636859,170.517258 88.1549275,170.047292 88.1549275,169.445076 C88.1549275,169.135829 88.0877895,168.87745 87.9535114,168.669929 C87.8192334,168.462409 87.6463022,168.287443 87.4347126,168.145027 C87.223123,168.002611 86.9871228,167.882576 86.7267048,167.78492 C86.4662868,167.687263 86.2099417,167.597745 85.9576618,167.516365 L83.1622517,166.613045 C82.6332777,166.450283 82.122622,166.222421 81.6302693,165.929451 C81.1379165,165.636481 80.7025368,165.270273 80.3241169,164.830818 C79.9456971,164.391363 79.6445933,163.876638 79.4207966,163.286629 C79.1969999,162.696619 79.0851032,162.023205 79.0851032,161.266365 C79.0851032,160.387454 79.247862,159.604178 79.5733845,158.916511 C79.8989069,158.228845 80.3546316,157.649017 80.940572,157.177009 C81.5265124,156.705002 82.2223062,156.346932 83.0279743,156.102791 C83.8336424,155.858649 84.7166089,155.73658 85.6769001,155.73658 C86.4337398,155.73658 87.1336026,155.824063 87.7765095,155.999031 C88.4194163,156.173999 88.9951756,156.407965 89.5038044,156.700935 C90.0124333,156.993905 90.443744,157.329595 90.7977497,157.708015 C91.1517554,158.086435 91.4223419,158.479091 91.6095173,158.885994 L92.8302204,158.885994 L92.8302204,162.572517 L88.4112751,162.572517 L88.4112751,161.498298 Z M94.7101032,156.285896 L109.431783,156.285896 L109.431783,162.596931 L105.452291,162.596931 L105.452291,159.97242 L100.703756,159.97242 L100.703756,163.622322 L104.378072,163.622322 L104.378072,167.162361 L100.703756,167.162361 L100.703756,171.447029 L105.452291,171.447029 L105.452291,168.163337 L109.431783,168.163337 L109.431783,174.791755 L94.7101032,174.791755 L94.7101032,171.447029 L96.6510212,171.447029 L96.6510212,159.97242 L94.7101032,159.97242 L94.7101032,156.285896 Z M114.729634,171.447029 L116.646138,171.447029 L116.646138,159.520759 L114.400045,159.520759 L114.400045,161.913337 L110.420552,161.913337 L110.420552,156.285896 L127.254049,156.285896 L127.254049,161.913337 L123.250142,161.913337 L123.250142,159.520759 L120.698873,159.520759 L120.698873,171.447029 L122.651998,171.447029 L122.651998,174.791755 L114.729634,174.791755 L114.729634,171.447029 Z M129.011861,156.285896 L143.733541,156.285896 L143.733541,162.596931 L139.754049,162.596931 L139.754049,159.97242 L135.005513,159.97242 L135.005513,163.622322 L138.67983,163.622322 L138.67983,167.162361 L135.005513,167.162361 L135.005513,171.447029 L139.754049,171.447029 L139.754049,168.163337 L143.733541,168.163337 L143.733541,174.791755 L129.011861,174.791755 L129.011861,171.447029 L130.952779,171.447029 L130.952779,159.97242 L129.011861,159.97242 L129.011861,156.285896 Z" id="WHATSAPP-ACUSETE-Copy" fill="#FFFFFF"></path>
            <path d="M132.774725,47.9007796 L144.366025,49.6157634 L138.121805,82.9405583 L129.106867,81.608064 L132.774725,47.9007796 Z M126.124692,92.8837329 C126.238195,92.1078699 126.486969,91.4004196 126.871013,90.7613821 C127.253503,90.1223446 127.735502,89.5859263 128.313901,89.1459078 C128.890745,88.7074441 129.542221,88.3933673 130.266775,88.1990128 C130.991328,88.0062132 131.751643,87.9688971 132.547719,88.0870646 C133.300259,88.197458 133.995271,88.4508962 134.634308,88.8442696 C135.268681,89.2391979 135.80199,89.7289712 136.22957,90.3151443 C136.655595,90.9028722 136.965007,91.5590129 137.157807,92.2835663 C137.350606,93.006565 137.389477,93.7559958 137.275974,94.5318588 C137.160916,95.306167 136.905923,96.0120625 136.51255,96.6495451 C136.117622,97.2870278 135.634068,97.8187816 135.057224,98.2479163 C134.478825,98.6754961 133.828903,98.9849085 133.105905,99.1777081 C132.381351,99.3720626 131.641249,99.4124883 130.888709,99.3020949 C130.092633,99.1823726 129.375854,98.9258247 128.738371,98.5324512 C128.100888,98.1390778 127.569135,97.653969 127.141555,97.0786798 C126.713975,96.5002809 126.407672,95.8503596 126.224202,95.1273609 C126.042286,94.4059171 126.008079,93.659596 126.124692,92.8837329 L126.124692,92.8837329 Z" id="Fill-1-Copy" fill="#FF645B" style="mix-blend-mode: multiply;"></path>
            <path d="M115.151594,55.6430842 C115.103394,55.143982 115.14693,54.6650925 115.28842,54.2095257 C115.428355,53.752404 115.642922,53.3434822 115.936786,52.9796506 C116.225986,52.6189287 116.582043,52.3204002 117.001849,52.0887297 C117.423209,51.8555043 117.88966,51.7171239 118.402756,51.6642595 C118.887865,51.6176145 119.35898,51.6673692 119.817656,51.8135238 C120.276333,51.9596783 120.6837,52.180465 121.039757,52.4821031 C121.397369,52.7790768 121.689679,53.1413535 121.921349,53.5596043 C122.15302,53.9809648 122.292955,54.4411962 122.34271,54.9402985 C122.39091,55.4394008 122.34271,55.919845 122.195,56.3754119 C122.0504,56.8340884 121.832723,57.2399006 121.53886,57.595958 C121.248105,57.9504605 120.888938,58.2458793 120.469133,58.475995 C120.046217,58.7092204 119.595315,58.8507104 119.110206,58.8973555 C118.59711,58.9471102 118.112002,58.8989103 117.653325,58.7512009 C117.194648,58.6066012 116.791946,58.3873694 116.435889,58.0935054 C116.079831,57.8027511 115.787522,57.4451389 115.563626,57.0253332 C115.33662,56.6024179 115.201349,56.1437414 115.151594,55.6430842 L115.151594,55.6430842 Z M112.318683,26.639178 L119.791224,25.9084052 L121.073964,47.6014737 L115.260433,48.1689887 L112.318683,26.639178 Z" id="Fill-3-Copy" fill="#FF645B" style="mix-blend-mode: multiply;"></path>
            <path d="M97.5206896,53.4793748 C90.587677,51.8374682 84.3761081,53.9022901 81.9225773,54.7185789 C79.3353306,55.5784031 70.1913415,58.7673712 64.5908231,68.0886116 C59.5687036,76.4458538 58.2937382,88.2548314 63.8989212,98.1715739 L58.2377642,115.633934 L75.1839191,109.254443 C82.1480285,113.108881 90.6078898,114.247021 98.51112,111.910103 C110.133517,108.47547 118.33994,98.2135544 119.803041,86.9036791 C121.858534,71.0256963 110.180162,56.4770981 97.5206896,53.4793748" id="Fill-22-Copy" fill="#FF645B" style="mix-blend-mode: multiply;"></path>
            <path d="M78.8125948,51.6087519 C76.2253481,52.4685761 67.081359,55.6575442 61.4823954,64.9787846 C56.3965276,73.438646 55.1417752,85.4404232 60.9864028,95.4317978 C67.8214608,107.114834 82.379388,112.650049 95.4011375,108.800276 C107.02509,105.365643 115.229958,95.1037274 116.693058,83.7938521 C118.748551,67.9158693 107.07018,53.3672711 94.4107071,50.3695478 C87.4776945,48.7276412 81.2661256,50.794018 78.8125948,51.6087519" id="Fill-25-Copy" fill="#FFA6A1"></path>
            <polyline id="Fill-27-Copy" fill="#FFA6A1" points="61.2706268 93.578589 55.1290255 112.524263 73.9720801 105.429547"></polyline>
            <path d="M80.0782311,55.7858182 C77.8890224,56.5134813 70.1552693,59.2126762 65.4192396,67.0941386 C61.1185639,74.2510476 60.056611,84.4025703 64.9994339,92.8531027 C70.7818681,102.734084 83.0946125,107.417249 94.109069,104.161423 C103.940296,101.255435 110.881082,92.5747871 112.118732,83.0109923 C113.857038,69.580321 103.979166,57.273796 93.2710125,54.7394137 C87.406172,53.3509454 82.152382,55.0970259 80.0782311,55.7858182" id="Fill-29-Copy" fill="#FEFEFE"></path>
            <polyline id="Fill-31-Copy" fill="#FEFEFE" points="67.7283261 86.8461502 61.5867249 105.791824 80.4297795 98.6986632"></polyline>
            <path d="M75.3431343,66.0121284 C75.3431343,66.0121284 70.8916395,70.6921841 72.4324817,75.7702777 C73.973324,80.8483713 81.3930002,90.1493988 88.7535927,92.0338597 C88.7535927,92.0338597 96.2852171,95.3425502 100.166087,91.6342669 L101.930826,89.5228 L101.930826,86.7831793 L94.9729357,83.018922 L90.7515567,87.2403011 L83.9600341,83.1883991 L79.5085393,77.0250301 L82.1346569,73.5453077 L79.0529724,66.0121284 L75.3431343,66.0121284 Z" id="Fill-33-Copy" fill="#FF645B"></path>
            <path d="M130.174573,45.595891 L141.765873,47.3108749 L135.521653,80.6356697 L126.506715,79.3031755 L130.174573,45.595891 Z M123.52454,90.5788444 C123.638043,89.8029814 123.886817,89.0955311 124.270861,88.4564936 C124.653351,87.8174561 125.13535,87.2810378 125.713749,86.8410192 C126.290593,86.4025556 126.942069,86.0884787 127.666623,85.8941243 C128.391176,85.7013246 129.151491,85.6640086 129.947567,85.7821761 C130.700107,85.8925694 131.395119,86.1460077 132.034156,86.5393811 C132.668529,86.9343094 133.201838,87.4240826 133.629418,88.0102557 C134.055443,88.5979836 134.364855,89.2541243 134.557655,89.9786778 C134.750454,90.7016764 134.789325,91.4511073 134.675822,92.2269703 C134.560764,93.0012785 134.305771,93.7071739 133.912398,94.3446566 C133.51747,94.9821393 133.033916,95.5138931 132.457072,95.9430278 C131.878673,96.3706076 131.228751,96.6800199 130.505753,96.8728196 C129.781199,97.067174 129.041098,97.1075998 128.288557,96.9972064 C127.492481,96.8774841 126.775702,96.6209362 126.138219,96.2275627 C125.500737,95.8341893 124.968983,95.3490805 124.541403,94.7737913 C124.113823,94.1953924 123.80752,93.545471 123.62405,92.8224724 C123.442134,92.1010286 123.407928,91.3547074 123.52454,90.5788444 L123.52454,90.5788444 Z" id="Fill-40-Copy" fill="#FFA6A1"></path>
            <path d="M112.551287,53.3381957 C112.503087,52.8390934 112.546622,52.360204 112.688112,51.9046371 C112.828048,51.4475154 113.042615,51.0385936 113.336479,50.6747621 C113.625678,50.3140402 113.981736,50.0155117 114.401541,49.7838412 C114.822902,49.5506158 115.289353,49.4122354 115.802448,49.359371 C116.287557,49.3127259 116.758672,49.3624807 117.217349,49.5086352 C117.676026,49.6547898 118.083393,49.8755765 118.43945,50.1772146 C118.797062,50.4741882 119.089371,50.836465 119.321042,51.2547158 C119.552712,51.6760763 119.692648,52.1363077 119.742402,52.6354099 C119.790602,53.1345122 119.742402,53.6149565 119.594693,54.0705234 C119.450093,54.5291999 119.232416,54.935012 118.938552,55.2910694 C118.647798,55.645572 118.288631,55.9409908 117.868825,56.1711065 C117.44591,56.4043318 116.995008,56.5458219 116.509899,56.592467 C115.996803,56.6422217 115.511694,56.5940218 115.053018,56.4463124 C114.594341,56.3017127 114.191639,56.0824808 113.835581,55.7886169 C113.479524,55.4978626 113.187215,55.1402504 112.963318,54.7204447 C112.736312,54.2975294 112.601042,53.8388528 112.551287,53.3381957 L112.551287,53.3381957 Z M109.718376,24.3342895 L117.190917,23.6035166 L118.473656,45.2965852 L112.660125,45.8641002 L109.718376,24.3342895 Z" id="Fill-42-Copy" fill="#FFA6A1"></path>
        </g>
    </g>
</svg>