<?xml version="1.0" encoding="UTF-8" standalone="no"?>
<svg width="201px" height="197px" viewBox="0 0 201 197" version="1.1" xmlns="http://www.w3.org/2000/svg" xmlns:xlink="http://www.w3.org/1999/xlink">
    <!-- Generator: Sketch 41.2 (35397) - http://www.bohemiancoding.com/sketch -->
    <title>Group 44</title>
    <desc>Created with Sketch.</desc>
    <defs></defs>
    <g id="Page-1" stroke="none" stroke-width="1" fill="none" fill-rule="evenodd">
        <g id="Group-44">
            <polygon id="Page-1-Copy-8" fill="#93D5FF" points="0.546910131 1.5746549 0.546910131 195.32759 200.54691 196.408311 200.54691 0.527706842"></polygon>
            <path d="M18.2607773,135.845839 L25.232457,135.845839 L25.232457,138.789198 L23.513707,138.789198 L23.513707,149.187636 L25.232457,149.187636 L25.232457,152.130995 L18.2607773,152.130995 L18.2607773,149.187636 L19.9473008,149.187636 L19.9473008,138.789198 L18.2607773,138.789198 L18.2607773,135.845839 Z M37.2529648,135.845839 L43.4404648,135.845839 L43.4404648,138.79994 L42.1191758,138.79994 L42.1191758,152.130995 L38.5527695,152.130995 L31.7744492,141.603651 L31.7744492,149.187636 L33.138707,149.187636 L33.138707,152.130995 L26.9619492,152.130995 L26.9619492,149.187636 L28.3047226,149.187636 L28.3047226,138.79994 L26.9834336,138.79994 L26.9834336,135.845839 L31.9033554,135.845839 L38.638707,146.512831 L38.638707,138.79994 L37.2529648,138.79994 L37.2529648,135.845839 Z M45.2021836,135.845839 L57.8027695,135.845839 L57.8027695,141.39955 L54.3115586,141.39955 L54.3115586,139.111464 L50.4551133,139.111464 L50.4551133,142.538222 L53.7959336,142.538222 L53.7959336,145.664198 L50.4551133,145.664198 L50.4551133,149.187636 L52.1738633,149.187636 L52.1738633,152.130995 L45.2021836,152.130995 L45.2021836,149.187636 L46.888707,149.187636 L46.888707,139.111464 L45.2021836,139.111464 L45.2021836,135.845839 Z M66.3857773,152.421034 C65.6481434,152.421034 64.9427468,152.320775 64.2695664,152.120253 C63.5963859,151.919731 62.9679742,151.636856 62.3843125,151.27162 C61.8006507,150.906384 61.2707081,150.467749 60.7944687,149.955702 C60.3182294,149.443655 59.9118207,148.874325 59.5752304,148.247694 C59.2386402,147.621064 58.9772496,146.949684 58.7910508,146.233534 C58.6048519,145.517385 58.5117539,144.76902 58.5117539,143.988417 C58.5117539,143.207814 58.6048519,142.457659 58.7910508,141.737929 C58.9772496,141.018199 59.2386402,140.345028 59.5752304,139.718398 C59.9118207,139.091767 60.3182294,138.522437 60.7944687,138.01039 C61.2707081,137.498343 61.8006507,137.059708 62.3843125,136.694472 C62.9679742,136.329236 63.5963859,136.046361 64.2695664,135.845839 C64.9427468,135.645317 65.6481434,135.545058 66.3857773,135.545058 C67.1234112,135.545058 67.8305982,135.645317 68.5073593,135.845839 C69.1841205,136.046361 69.8143226,136.329236 70.3979843,136.694472 C70.9816461,137.059708 71.5115887,137.498343 71.9878281,138.01039 C72.4640675,138.522437 72.8722665,139.091767 73.2124375,139.718398 C73.5526084,140.345028 73.8157894,141.018199 74.0019883,141.737929 C74.1881871,142.457659 74.2812851,143.207814 74.2812851,143.988417 C74.2812851,144.761858 74.1881871,145.508433 74.0019883,146.228163 C73.8157894,146.947893 73.5526084,147.621064 73.2124375,148.247694 C72.8722665,148.874325 72.4640675,149.443655 71.9878281,149.955702 C71.5115887,150.467749 70.9816461,150.906384 70.3979843,151.27162 C69.8143226,151.636856 69.1841205,151.919731 68.5073593,152.120253 C67.8305982,152.320775 67.1234112,152.421034 66.3857773,152.421034 Z M66.3857773,149.047987 C67.0088273,149.047987 67.5799479,148.913711 68.0991562,148.645155 C68.6183645,148.376599 69.0641609,148.011369 69.4365586,147.549452 C69.8089563,147.087536 70.0972021,146.550432 70.3013047,145.938124 C70.5054072,145.325816 70.607457,144.67592 70.607457,143.988417 C70.607457,143.293752 70.5036169,142.638485 70.2959336,142.022597 C70.0882502,141.406708 69.7964237,140.867814 69.4204453,140.405898 C69.0444668,139.943981 68.5986705,139.57875 68.0830429,139.310194 C67.5674154,139.041638 67.0016658,138.907362 66.3857773,138.907362 C65.7698888,138.907362 65.2041393,139.041638 64.6885117,139.310194 C64.1728841,139.57875 63.7288781,139.943981 63.3564804,140.405898 C62.9840827,140.867814 62.6922562,141.406708 62.4809922,142.022597 C62.2697281,142.638485 62.1640976,143.293752 62.1640976,143.988417 C62.1640976,144.67592 62.2697281,145.325816 62.4809922,145.938124 C62.6922562,146.550432 62.9840827,147.087536 63.3564804,147.549452 C63.7288781,148.011369 64.1728841,148.376599 64.6885117,148.645155 C65.2041393,148.913711 65.7698888,149.047987 66.3857773,149.047987 Z M88.2246445,152.130995 L88.2246445,149.338026 C87.7806319,150.118629 87.347368,150.69154 86.9248398,151.056776 C86.5023117,151.422013 86.0242891,151.715629 85.4907578,151.937636 C84.9572265,152.159642 84.2428781,152.267063 83.3476914,152.259901 C82.9036787,152.25274 82.4596728,152.20082 82.0156601,152.10414 C81.5716475,152.00746 81.1419643,151.871393 80.7265976,151.695937 C80.311231,151.52048 79.9048223,151.309219 79.5073593,151.062148 C79.1098964,150.815076 78.7500367,150.530411 78.4277695,150.208144 C77.6328437,149.406056 77.0151741,148.476866 76.5747422,147.420546 C76.1343103,146.364226 75.9140976,145.213033 75.9140976,143.966933 C75.9140976,143.200653 76.0071957,142.459449 76.1933945,141.7433 C76.3795934,141.02715 76.640984,140.357561 76.9775742,139.734511 C77.3141644,139.111461 77.7205731,138.543921 78.1968125,138.031874 C78.6730518,137.519827 79.2029945,137.081192 79.7866562,136.715956 C80.370318,136.35072 80.9987297,136.067845 81.6719101,135.867323 C82.3450906,135.666801 83.0504872,135.566542 83.7881211,135.566542 C84.6331774,135.566542 85.3672195,135.679334 85.9902695,135.904921 C86.6133195,136.130508 87.2829092,136.551239 87.9990586,137.167128 L90.4053086,137.167128 L90.4053086,140.797987 L87.0859726,140.797987 C86.7565439,140.289521 86.4468139,139.92071 86.1567734,139.691542 C85.8667329,139.462374 85.5516319,139.272597 85.2114609,139.122206 C84.8712899,138.971815 84.3968481,138.89662 83.7881211,138.89662 C83.1865556,138.89662 82.6279674,139.032687 82.1123398,139.304823 C81.5967122,139.57696 81.1509159,139.943981 80.7749375,140.405898 C80.398959,140.867814 80.1035518,141.412079 79.888707,142.03871 C79.6738622,142.665341 79.5664414,143.308075 79.5664414,143.966933 C79.5664414,144.618629 79.6631201,145.238089 79.8564804,145.825331 C80.0498408,146.412574 80.3434576,146.940726 80.7373398,147.409804 C81.131222,147.878882 81.5895507,148.238741 82.1123398,148.489394 C82.6351289,148.740046 83.1937171,148.86537 83.7881211,148.86537 C84.5472394,148.86537 85.2096677,148.643367 85.7754258,148.199355 C86.3411838,147.755342 86.7493828,147.150205 87.0000351,146.383925 L83.8955429,146.383925 L83.8955429,143.440565 L91.4365586,143.440565 L91.4365586,152.130995 L88.2246445,152.130995 Z M93.9931992,135.845839 L102.608434,135.845839 C103.446328,135.845839 104.194693,135.971163 104.853551,136.221815 C105.512408,136.472468 106.067416,136.807263 106.51859,137.22621 C106.969764,137.645157 107.315301,138.132132 107.555211,138.687148 C107.795121,139.242163 107.915074,139.820445 107.915074,140.422011 C107.915074,140.973446 107.855993,141.456839 107.737828,141.872206 C107.619663,142.287573 107.44779,142.656384 107.222203,142.978651 C106.996616,143.300919 106.719112,143.585584 106.389684,143.832655 C106.060255,144.079727 105.684282,144.30352 105.261754,144.504042 C105.62699,144.690241 105.949252,144.974906 106.228551,145.358046 C106.507849,145.741186 106.71911,146.237112 106.86234,146.845839 L107.410191,148.96205 L108.752965,148.96205 L108.774449,152.130995 L104.047887,152.130995 L103.403355,148.263808 C103.338902,147.805472 103.240433,147.409805 103.107945,147.076796 C102.975458,146.743786 102.798213,146.471654 102.576207,146.26039 C102.354201,146.049126 102.083858,145.893365 101.765172,145.793105 C101.446485,145.692844 101.068722,145.642714 100.631871,145.642714 L99.2461289,145.642714 L99.2461289,149.187636 L100.739293,149.187636 L100.739293,152.130995 L93.9931992,152.130995 L93.9931992,149.187636 L95.6797226,149.187636 L95.6797226,138.79994 L93.9931992,138.79994 L93.9931992,135.845839 Z M99.2461289,138.79994 L99.2461289,142.742323 L101.383824,142.742323 C101.792029,142.742323 102.15905,142.704726 102.484898,142.62953 C102.810746,142.554335 103.09004,142.436172 103.322789,142.275038 C103.555538,142.113905 103.734572,141.911595 103.859898,141.668105 C103.985225,141.424614 104.047887,141.134578 104.047887,140.797987 C104.047887,140.167776 103.822303,139.677221 103.371129,139.326308 C102.919955,138.975394 102.257526,138.79994 101.383824,138.79994 L99.2461289,138.79994 Z M118.807652,149.187636 L120.429723,149.187636 L119.699254,146.845839 L114.693395,146.845839 L113.962926,149.187636 L115.681676,149.187636 L115.681676,152.130995 L109.504918,152.130995 L109.504918,149.187636 L110.718785,149.187636 L115.155309,135.845839 L119.462926,135.845839 L123.80277,149.187636 L124.98441,149.187636 L124.98441,152.130995 L118.807652,152.130995 L118.807652,149.187636 Z M115.542027,144.095839 L118.829137,144.095839 L117.17484,138.79994 L115.542027,144.095839 Z M126.445348,135.845839 L139.045934,135.845839 L139.045934,141.39955 L135.554723,141.39955 L135.554723,139.111464 L131.698277,139.111464 L131.698277,142.538222 L135.039098,142.538222 L135.039098,145.664198 L131.698277,145.664198 L131.698277,149.187636 L133.417027,149.187636 L133.417027,152.130995 L126.445348,152.130995 L126.445348,149.187636 L128.131871,149.187636 L128.131871,139.111464 L126.445348,139.111464 L126.445348,135.845839 Z M140.259801,135.845839 L147.23148,135.845839 L147.23148,138.789198 L145.51273,138.789198 L145.51273,149.187636 L147.23148,149.187636 L147.23148,152.130995 L140.259801,152.130995 L140.259801,149.187636 L141.946324,149.187636 L141.946324,138.789198 L140.259801,138.789198 L140.259801,135.845839 Z M142.794957,130.979628 L146.29691,130.979628 L146.29691,131.248183 L143.009801,134.320448 L140.485387,134.320448 L142.794957,130.979628 Z M157.339879,149.187636 L158.961949,149.187636 L158.23148,146.845839 L153.225621,146.845839 L152.495152,149.187636 L154.213902,149.187636 L154.213902,152.130995 L148.037145,152.130995 L148.037145,149.187636 L149.251012,149.187636 L153.687535,135.845839 L157.995152,135.845839 L162.334996,149.187636 L163.516637,149.187636 L163.516637,152.130995 L157.339879,152.130995 L157.339879,149.187636 Z M154.074254,144.095839 L157.361363,144.095839 L155.707066,138.79994 L154.074254,144.095839 Z M172.808629,140.432753 C172.772821,140.182101 172.685094,139.945775 172.545445,139.723769 C172.405796,139.501762 172.226761,139.310195 172.008336,139.149062 C171.78991,138.987928 171.542842,138.860813 171.267125,138.767714 C170.991407,138.674615 170.703162,138.628065 170.402379,138.628065 C170.130242,138.628065 169.876013,138.656711 169.639684,138.714003 C169.403354,138.771295 169.197464,138.859022 169.022008,138.977187 C168.846551,139.095351 168.706904,139.247531 168.603062,139.43373 C168.499221,139.619928 168.447301,139.841931 168.447301,140.099745 C168.447301,140.422012 168.517124,140.678032 168.656773,140.867812 C168.796423,141.057591 168.975457,141.213351 169.193883,141.335097 C169.412308,141.456842 169.654005,141.553521 169.91898,141.625136 C170.183956,141.696751 170.441766,141.775526 170.692418,141.861464 L173.64652,142.849745 C174.054725,142.992975 174.437859,143.189913 174.795934,143.440565 C175.154008,143.691218 175.463738,143.995577 175.725133,144.353651 C175.986527,144.711726 176.192417,145.123506 176.342809,145.589003 C176.4932,146.0545 176.568395,146.577281 176.568395,147.157362 C176.568395,147.945127 176.423376,148.664846 176.133336,149.316542 C175.843295,149.968238 175.436887,150.526826 174.914098,150.992323 C174.391309,151.45782 173.764687,151.81947 173.034215,152.077284 C172.303742,152.335098 171.494506,152.464003 170.60648,152.464003 C169.98343,152.464003 169.394406,152.394179 168.839391,152.25453 C168.284375,152.114881 167.777707,151.912572 167.319371,151.647597 C166.861035,151.382621 166.459998,151.06573 166.116246,150.696913 C165.772494,150.328096 165.503942,149.910945 165.310582,149.445448 L164.204137,149.445448 L164.204137,146.21205 L168.092809,146.21205 L168.092809,146.878065 C168.092809,147.200333 168.144729,147.49753 168.24857,147.769667 C168.352412,148.041804 168.508172,148.27813 168.715855,148.478651 C168.923539,148.679173 169.184929,148.834933 169.500035,148.945937 C169.815141,149.05694 170.183952,149.11244 170.60648,149.11244 C171.251015,149.11244 171.74157,148.963842 172.07816,148.66664 C172.41475,148.369438 172.583043,147.955868 172.583043,147.425917 C172.583043,147.15378 172.523962,146.926406 172.405797,146.743788 C172.287632,146.56117 172.135453,146.4072 171.949254,146.281874 C171.763055,146.156548 171.555375,146.050917 171.326207,145.96498 C171.097039,145.879042 170.871456,145.800266 170.649449,145.728651 L168.189488,144.93373 C167.723991,144.7905 167.274614,144.589981 166.841344,144.332167 C166.408073,144.074353 166.024939,143.752091 165.69193,143.36537 C165.35892,142.978649 165.093949,142.525692 164.897008,142.006483 C164.700067,141.487275 164.601598,140.89467 164.601598,140.228651 C164.601598,139.45521 164.744825,138.765927 165.031285,138.16078 C165.317745,137.555634 165.718783,137.045385 166.23441,136.630019 C166.750038,136.214652 167.362336,135.899551 168.071324,135.684706 C168.780312,135.469861 169.557323,135.36244 170.402379,135.36244 C171.068398,135.36244 171.684277,135.439425 172.250035,135.593398 C172.815793,135.74737 173.322461,135.95326 173.770055,136.211073 C174.217648,136.468887 174.597202,136.764294 174.908727,137.097304 C175.220252,137.430313 175.458368,137.77585 175.623082,138.133925 L176.697301,138.133925 L176.697301,141.378065 L172.808629,141.378065 L172.808629,140.432753 Z M18.5830429,159.845839 L30.2490586,159.845839 L30.2490586,164.454237 L28.0469101,164.454237 L28.0469101,161.704237 L22.2353867,161.704237 L22.2353867,166.914198 L27.123082,166.914198 L27.123082,168.761855 L22.2353867,168.761855 L22.2353867,174.283339 L28.0469101,174.283339 L28.0469101,171.533339 L30.2490586,171.533339 L30.2490586,176.130995 L18.5830429,176.130995 L18.5830429,174.283339 L20.1299179,174.283339 L20.1299179,161.704237 L18.5830429,161.704237 L18.5830429,159.845839 Z M32.3974961,159.845839 L37.6826523,159.845839 L37.6826523,161.704237 L36.0498398,161.704237 L36.0498398,174.283339 L41.6680039,174.283339 C41.7825878,174.283339 41.89717,174.256484 42.0117539,174.202773 C42.1263378,174.149061 42.2301779,174.079238 42.3232773,173.9933 C42.4163767,173.907362 42.4915713,173.808893 42.5488633,173.69789 C42.6061552,173.586887 42.6348008,173.474095 42.6348008,173.359511 L42.6348008,171.307753 L44.6758164,171.307753 L44.6758164,176.130995 L32.3974961,176.130995 L32.3974961,174.283339 L33.9443711,174.283339 L33.9443711,161.704237 L32.3974961,161.704237 L32.3974961,159.845839 Z M46.3193711,159.845839 L57.9853867,159.845839 L57.9853867,164.454237 L55.7832383,164.454237 L55.7832383,161.704237 L49.9717148,161.704237 L49.9717148,166.914198 L54.8594101,166.914198 L54.8594101,168.761855 L49.9717148,168.761855 L49.9717148,174.283339 L55.7832383,174.283339 L55.7832383,171.533339 L57.9853867,171.533339 L57.9853867,176.130995 L46.3193711,176.130995 L46.3193711,174.283339 L47.8662461,174.283339 L47.8662461,161.704237 L46.3193711,161.704237 L46.3193711,159.845839 Z M71.6924179,164.142714 C71.2125978,163.326304 70.5770248,162.685359 69.7856797,162.219862 C68.9943346,161.754365 68.1116936,161.52162 67.1377304,161.52162 C66.3069971,161.52162 65.5478901,161.697074 64.8603867,162.047987 C64.1728833,162.398901 63.5838592,162.869762 63.0932968,163.460585 C62.6027345,164.051408 62.2213907,164.735321 61.9492539,165.512343 C61.6771171,166.289365 61.5410508,167.107553 61.5410508,167.966933 C61.5410508,168.983865 61.6914399,169.884409 61.9922226,170.668593 C62.2930054,171.452776 62.6850913,172.104463 63.1684922,172.623671 C63.651893,173.142879 64.2265943,173.576143 64.8926133,173.923476 C65.5586322,174.270808 66.3069971,174.444472 67.1377304,174.444472 C68.2692465,174.444472 69.2539372,174.170549 70.091832,173.622694 C70.9297268,173.07484 71.6458655,172.174296 72.2402695,170.921034 L74.1308945,171.812636 C73.8587577,172.586077 73.3968483,173.332652 72.7451523,174.052382 C72.0934564,174.772112 71.2895907,175.352184 70.3335312,175.792616 C69.3774718,176.233048 68.3193769,176.453261 67.1592148,176.453261 C66.0491832,176.453261 65.0286856,176.24379 64.0976914,175.824843 C63.1666971,175.405895 62.3377666,174.80971 61.610875,174.036269 C60.8839833,173.262827 60.3289758,172.34617 59.9458359,171.286269 C59.562696,170.226367 59.3711289,169.119933 59.3711289,167.966933 C59.3711289,166.806771 59.562696,165.711078 59.9458359,164.679823 C60.3289758,163.648568 60.8660799,162.751604 61.557164,161.988905 C62.2482482,161.226206 63.0718077,160.62465 64.0278672,160.184218 C64.9839266,159.743786 66.0205374,159.523573 67.1377304,159.523573 C68.1331781,159.523573 68.9925445,159.665011 69.7158554,159.94789 C70.4391664,160.230769 71.0532553,160.567354 71.5581406,160.957655 C72.0630259,161.347957 72.4980802,161.772269 72.8633164,162.230605 L74.0019883,162.230605 L74.0019883,164.142714 L71.6924179,164.142714 Z M79.6738633,174.283339 L81.1670273,174.283339 L81.1670273,161.607558 L77.4502304,161.607558 L77.4502304,164.142714 L75.248082,164.142714 L75.248082,159.845839 L89.7715195,159.845839 L89.7715195,164.142714 L87.5693711,164.142714 L87.5693711,161.607558 L83.2724961,161.607558 L83.2724961,174.283339 L84.9482773,174.283339 L84.9482773,176.130995 L79.6738633,176.130995 L79.6738633,174.283339 Z M98.794957,176.453261 C97.6706024,176.453261 96.6429434,176.24379 95.7119492,175.824843 C94.780955,175.405895 93.9502341,174.80971 93.2197617,174.036269 C92.4892893,173.262827 91.9342818,172.34617 91.5547226,171.286269 C91.1751634,170.226367 90.9853867,169.127095 90.9853867,167.988417 C90.9853867,166.813932 91.1769538,165.711078 91.5600937,164.679823 C91.9432337,163.648568 92.4803377,162.751604 93.1714218,161.988905 C93.862506,161.226206 94.6860655,160.62465 95.642125,160.184218 C96.5981844,159.743786 97.6491179,159.523573 98.794957,159.523573 C99.9479576,159.523573 101.004262,159.743786 101.963902,160.184218 C102.923543,160.62465 103.747102,161.226206 104.434605,161.988905 C105.122109,162.751604 105.655632,163.648568 106.035191,164.679823 C106.414751,165.711078 106.604527,166.813932 106.604527,167.988417 C106.604527,169.162902 106.41296,170.263965 106.02982,171.29164 C105.64668,172.319314 105.109576,173.216278 104.418492,173.982558 C103.727408,174.748838 102.903849,175.352184 101.947789,175.792616 C100.99173,176.233048 99.9407961,176.453261 98.794957,176.453261 Z M98.794957,174.455214 C99.6471748,174.455214 100.418814,174.27976 101.109898,173.928847 C101.800983,173.577934 102.390007,173.107072 102.876988,172.516249 C103.36397,171.925426 103.739943,171.239723 104.004918,170.45912 C104.269893,169.678517 104.402379,168.854958 104.402379,167.988417 C104.402379,167.100392 104.257361,166.242816 103.96732,165.415663 C103.67728,164.588511 103.272661,163.888485 102.753453,163.315565 C102.234245,162.742646 101.630898,162.30043 100.943395,161.988905 C100.255891,161.67738 99.5397524,161.52162 98.794957,161.52162 C97.9427392,161.52162 97.1693094,161.697074 96.4746445,162.047987 C95.7799796,162.398901 95.1891652,162.869762 94.7021836,163.460585 C94.215202,164.051408 93.8392292,164.738901 93.5742539,165.523085 C93.3092786,166.307269 93.1767929,167.129038 93.1767929,167.988417 C93.1767929,168.991026 93.3236014,169.884409 93.6172226,170.668593 C93.9108439,171.452776 94.2993491,172.104463 94.78275,172.623671 C95.2661508,173.142879 95.8426425,173.577934 96.5122422,173.928847 C97.1818419,174.27976 97.9427392,174.455214 98.794957,174.455214 Z M108.903355,159.845839 L115.681676,159.845839 C116.404987,159.845839 117.072786,159.940727 117.685094,160.130507 C118.297401,160.320286 118.827344,160.599581 119.274937,160.968398 C119.722531,161.337214 120.071648,161.797334 120.322301,162.348769 C120.572953,162.900204 120.698277,163.533986 120.698277,164.250136 C120.698277,164.658341 120.624873,165.061169 120.478062,165.458632 C120.331252,165.856095 120.127152,166.224906 119.865758,166.565077 C119.604363,166.905248 119.294633,167.207817 118.936559,167.472792 C118.578484,167.737767 118.188188,167.941867 117.76566,168.085097 C117.944697,168.163873 118.125522,168.276665 118.308141,168.423476 C118.490759,168.570286 118.662632,168.749321 118.823766,168.960585 C118.984899,169.171849 119.131708,169.411756 119.264195,169.680312 C119.396683,169.948868 119.502313,170.237113 119.58109,170.545058 L120.483434,174.08998 L121.89066,174.08998 L121.912145,176.130995 L118.743199,176.130995 L117.529332,171.178847 C117.307326,170.290821 116.96895,169.637345 116.514195,169.218398 C116.05944,168.79945 115.43819,168.58998 114.650426,168.58998 L112.555699,168.58998 L112.555699,174.283339 L114.188512,174.283339 L114.188512,176.130995 L108.903355,176.130995 L108.903355,174.283339 L110.45023,174.283339 L110.45023,161.704237 L108.903355,161.704237 L108.903355,159.845839 Z M112.555699,161.704237 L112.555699,166.828261 L115.681676,166.828261 C116.089881,166.828261 116.464063,166.77455 116.804234,166.667128 C117.144405,166.559706 117.438022,166.398574 117.685094,166.18373 C117.932165,165.968885 118.125523,165.702123 118.265172,165.383437 C118.404821,165.06475 118.474645,164.694148 118.474645,164.27162 C118.474645,163.462371 118.231157,162.832169 117.744176,162.380995 C117.257194,161.929821 116.483764,161.704237 115.423863,161.704237 L112.555699,161.704237 Z M134.201207,174.283339 L135.554723,174.283339 L134.26566,170.588026 L128.002965,170.588026 L126.746129,174.283339 L128.42191,174.283339 L128.42191,176.130995 L123.136754,176.130995 L123.136754,174.283339 L124.554723,174.283339 L129.625035,159.845839 L132.79398,159.845839 L137.853551,174.283339 L139.486363,174.283339 L139.486363,176.130995 L134.201207,176.130995 L134.201207,174.283339 Z M128.61527,168.804823 L133.642613,168.804823 L131.107457,161.52162 L128.61527,168.804823 Z M141.129918,159.845839 L146.415074,159.845839 L146.415074,161.704237 L144.782262,161.704237 L144.782262,174.283339 L150.400426,174.283339 C150.51501,174.283339 150.629592,174.256484 150.744176,174.202773 C150.85876,174.149061 150.9626,174.079238 151.055699,173.9933 C151.148799,173.907362 151.223993,173.808893 151.281285,173.69789 C151.338577,173.586887 151.367223,173.474095 151.367223,173.359511 L151.367223,171.307753 L153.408238,171.307753 L153.408238,176.130995 L141.129918,176.130995 L141.129918,174.283339 L142.676793,174.283339 L142.676793,161.704237 L141.129918,161.704237 L141.129918,159.845839 Z M155.051793,159.845839 L166.717809,159.845839 L166.717809,164.454237 L164.51566,164.454237 L164.51566,161.704237 L158.704137,161.704237 L158.704137,166.914198 L163.591832,166.914198 L163.591832,168.761855 L158.704137,168.761855 L158.704137,174.283339 L164.51566,174.283339 L164.51566,171.533339 L166.717809,171.533339 L166.717809,176.130995 L155.051793,176.130995 L155.051793,174.283339 L156.598668,174.283339 L156.598668,161.704237 L155.051793,161.704237 L155.051793,159.845839 Z M176.869176,162.853651 C176.640008,162.538546 176.387569,162.296849 176.111852,162.128554 C175.836134,161.960259 175.533565,161.831354 175.204137,161.741835 C174.874708,161.652316 174.545284,161.607558 174.215855,161.607558 C173.671582,161.607558 173.19535,161.67022 172.787145,161.795546 C172.378939,161.920872 172.040564,162.090955 171.772008,162.3058 C171.503452,162.520645 171.301143,162.771293 171.165074,163.057753 C171.029006,163.344213 170.960973,163.644991 170.960973,163.960097 C170.960973,164.432755 171.045119,164.814099 171.213414,165.10414 C171.381709,165.39418 171.59476,165.626925 171.852574,165.802382 C172.110388,165.977839 172.395053,166.115695 172.706578,166.215956 C173.018103,166.316217 173.317091,166.416476 173.603551,166.516737 L175.773473,167.225722 C176.425169,167.433405 176.99987,167.669731 177.497594,167.934706 C177.995318,168.199681 178.412468,168.512992 178.749059,168.874648 C179.085649,169.236303 179.341668,169.653454 179.517125,170.126112 C179.692582,170.598771 179.780309,171.146617 179.780309,171.769667 C179.780309,172.442848 179.642452,173.065888 179.366734,173.638808 C179.091017,174.211727 178.706092,174.709444 178.211949,175.131972 C177.717806,175.5545 177.128782,175.885714 176.444859,176.125624 C175.760937,176.365534 175.010781,176.485487 174.194371,176.485487 C173.356476,176.485487 172.640338,176.390599 172.045934,176.200819 C171.45153,176.01104 170.952023,175.756811 170.547398,175.438124 C170.142774,175.119438 169.818721,174.755997 169.57523,174.347792 C169.33174,173.939587 169.141963,173.520646 169.005895,173.090956 L168.189488,173.090956 L168.189488,171.2433 L170.89652,171.2433 C170.89652,172.038226 170.980666,172.600395 171.148961,172.929823 C171.317256,173.259252 171.551791,173.533175 171.852574,173.751601 C172.153357,173.970026 172.511426,174.134738 172.926793,174.245741 C173.34216,174.356744 173.800488,174.412245 174.301793,174.412245 C174.788775,174.412245 175.227409,174.354954 175.617711,174.24037 C176.008012,174.125786 176.341017,173.959284 176.616734,173.740858 C176.892452,173.522433 177.103713,173.257462 177.250523,172.945937 C177.397334,172.634412 177.470738,172.281713 177.470738,171.887831 C177.470738,171.45098 177.379431,171.080378 177.196812,170.776015 C177.014194,170.471651 176.779659,170.212051 176.493199,169.997206 C176.206739,169.782361 175.893429,169.606907 175.553258,169.470839 C175.213087,169.334771 174.885453,169.216608 174.570348,169.116347 L172.217809,168.450331 C171.702181,168.292778 171.23132,168.092259 170.805211,167.848769 C170.379102,167.605278 170.013871,167.30808 169.709508,166.957167 C169.405144,166.606254 169.170609,166.196264 169.005895,165.727187 C168.84118,165.258109 168.758824,164.715634 168.758824,164.099745 C168.758824,163.476695 168.880568,162.893042 169.124059,162.348769 C169.367549,161.804495 169.725619,161.328263 170.198277,160.920058 C170.670936,160.511853 171.249218,160.19138 171.933141,159.958632 C172.617063,159.725883 173.399445,159.609511 174.280309,159.609511 C174.86039,159.609511 175.395703,159.677544 175.886266,159.813612 C176.376828,159.949681 176.820834,160.141248 177.218297,160.388319 C177.61576,160.635391 177.966668,160.932588 178.271031,161.279921 C178.575395,161.627253 178.831414,162.008597 179.039098,162.423964 L179.844762,162.423964 L179.844762,164.27162 L177.212926,164.27162 C177.212926,163.641409 177.098344,163.168757 176.869176,162.853651 Z" id="INFOGRAFÃAS-ELECTORA-Copy" fill="#FFFFFF"></path>
            <g id="Group-Copy" transform="translate(101.870118, 72.960123) rotate(7.000000) translate(-101.870118, -72.960123) translate(65.370118, 23.960123)">
                <g id="Group-3-Copy" transform="translate(2.831134, 4.574773)" fill="#95D4FD">
                    <path d="M68.5703553,84.7978025 C67.4999781,78.8414851 66.5377926,72.6904225 65.7112075,66.3503849 C62.7380978,43.5536583 62.0384577,22.3235484 62.6731827,3.12023101 C57.0198022,1.76278497 50.6076368,0.0692231722 43.4756355,0.0822061843 C29.2664501,0.109614765 26.8645928,3.22265255 -0.000144255691,4.39112364 C1.32700809,16.0152471 2.54741122,27.6494685 3.66395026,39.2937878 C5.36760996,57.0949399 6.82603498,74.9191729 8.03489766,92.7664868 C28.4542905,90.653141 48.8736834,88.5412377 69.2916337,86.4278918 L68.5703553,84.7978025 Z" id="Fill-1" style="mix-blend-mode: multiply;"></path>
                </g>
                <g id="Group-3" transform="translate(0.176792, 0.868206)" fill="#FFFFFF">
                    <path d="M68.5703553,84.7978025 C67.4999781,78.8414851 66.5377926,72.6904225 65.7112075,66.3503849 C62.7380978,43.5536583 62.0384577,22.3235484 62.6731827,3.12023101 C57.0198022,1.76278497 50.6076368,0.0692231722 43.4756355,0.0822061843 C29.2664501,0.109614765 26.8645928,3.22265255 -0.000144255691,4.39112364 C1.32700809,16.0152471 2.54741122,27.6494685 3.66395026,39.2937878 C5.36760996,57.0949399 6.82603498,74.9191729 8.03489766,92.7664868 C28.4542905,90.653141 48.8736834,88.5412377 69.2916337,86.4278918 L68.5703553,84.7978025 Z" id="Fill-1"></path>
                </g>
                <polygon id="Fill-4" fill="#B2E1FF" points="22.4276555 65.9400524 13.0048738 66.6497904 9.93511274 25.8975581 19.3593369 25.1878201"></polygon>
                <polygon id="Fill-6" fill="#B2E1FF" points="22.7262647 69.9070839 13.3034831 70.6168219 13.1520146 68.5986848 22.5747963 67.8903893"></polygon>
                <polygon id="Fill-8" fill="#B2E1FF" points="34.7668544 65.0110458 25.3440727 65.7207838 22.7893045 31.8019434 32.2120861 31.0922054"></polygon>
                <polygon id="Fill-10" fill="#B2E1FF" points="35.066185 68.9780772 25.6434033 69.6878152 25.4904923 67.6696781 34.9147165 66.9599401"></polygon>
                <polygon id="Fill-12" fill="#6EC6FF" points="47.1067746 64.0811736 37.683993 64.7909116 35.821652 40.0683715 45.2444337 39.3586335"></polygon>
                <polygon id="Fill-14" fill="#6EC6FF" points="47.4053839 68.0489263 37.9826022 68.7586643 37.8311338 66.7405272 47.2539154 66.0307892"></polygon>
                <polygon id="Fill-16" fill="#6EC6FF" points="59.4474161 63.172507 50.0246344 63.882245 48.3296301 41.3740297 57.7524117 40.6642917"></polygon>
                <polygon id="Fill-18" fill="#6EC6FF" points="59.7445828 67.1191984 50.3218012 67.8289364 50.1703327 65.8107993 59.5931143 65.1010613"></polygon>
            </g>
        </g>
    </g>
</svg>