<?xml version="1.0" encoding="UTF-8" standalone="no"?>
<svg width="201px" height="197px" viewBox="0 0 201 197" version="1.1" xmlns="http://www.w3.org/2000/svg" xmlns:xlink="http://www.w3.org/1999/xlink">
    <!-- Generator: Sketch 41.2 (35397) - http://www.bohemiancoding.com/sketch -->
    <title>Group 39</title>
    <desc>Created with Sketch.</desc>
    <defs></defs>
    <g id="Page-1" stroke="none" stroke-width="1" fill="none" fill-rule="evenodd">
        <g id="Group-39">
            <polygon id="Page-1-Copy-6" fill="#FF8E00" points="0.682308158 1.23541519 0.682308158 194.988351 200.682308 196.069071 200.682308 0.188467131"></polygon>
            <g id="Group-Copy-8" transform="translate(49.638466, 21.272722)">
                <g id="Group-4" transform="translate(6.366451, 0.911233)" fill="#FEC70D">
                    <path d="M42.7693806,36.377447 C42.7693806,36.377447 33.684851,8.52187713 17.52378,11.8220863 C5.20454281,14.3374642 -1.66856769,32.0175377 0.509012289,39.9400581 C9.16095471,71.4199807 60.476565,93.5304123 60.476565,93.5304123 C60.476565,93.5304123 90.8599799,41.1992313 87.0737533,22.6569517 C82.3334996,-0.556517932 62.2813205,-1.60177215 52.8728451,1.82172236 C40.8080942,6.21171094 42.7693806,36.377447 42.7693806,36.377447" id="Fill-2" style="mix-blend-mode: multiply;"></path>
                </g>
                <g id="Group-29" transform="translate(0.627645, 0.520547)">
                    <path d="M17.5738462,11.695429 C5.25460894,14.2110049 -1.61850156,31.8910784 0.559078423,39.8135988 C9.21102084,71.2935214 60.5266311,93.4039529 60.5266311,93.4039529 C60.5266311,93.4039529 90.910046,41.0727719 87.1238194,22.5304924 C82.3835658,-0.682977262 62.3313866,-1.72823148 52.9229113,1.69526303 C40.8581604,6.08525161 42.8194467,36.2509877 42.8194467,36.2509877 C42.8194467,36.2509877 33.7347192,8.3954178 17.5738462,11.695429 Z" id="Fill-5" fill="#FFFFFF"></path>
                    <path d="M46.2238647,31.5891776 C46.2238647,31.5891776 38.5560285,8.07768584 24.9152828,10.8631835 C14.5171603,12.9863437 8.71601916,27.9090199 10.5540201,34.596114 C17.8565516,61.166785 61.169694,79.8289858 61.169694,79.8289858 C61.169694,79.8289858 86.8146363,35.6589804 83.618913,20.0084653 C79.6179759,0.415192708 62.6928522,-0.467198162 54.7517302,2.42238952 C44.5683181,6.12787709 46.2238647,31.5891776 46.2238647,31.5891776" id="Fill-7" fill="#FFCF01"></path>
                    <path d="M57.4719835,1.66490673 C56.4851068,1.86655649 55.5714493,2.1240112 54.7517895,2.4224291 C44.5683775,6.12791667 46.223924,31.5892172 46.223924,31.5892172 C46.223924,31.5892172 38.5560879,8.07772542 24.9151443,10.8630252 C14.5172197,12.9863833 8.71607852,27.9090595 10.5538816,34.5961535 C17.856611,61.1668246 61.1697534,79.8288275 61.1697534,79.8288275 C61.1697534,79.8288275 86.8146957,35.65902 83.6189724,20.008307 C80.0310314,2.43727084 66.0471447,-0.0862206105 57.4719835,1.66490673" id="Fill-9" fill="#FFD379"></path>
                    <path d="M72.6122,8.23700697 C76.4736248,10.9144567 79.0382773,15.2575454 80.2473843,21.178212 C80.9057639,24.4028272 48.3212201,40.9424615 48.653873,36.8255609 C58.3837214,27.1087731 66.632958,17.550891 72.6122,8.23700697" id="Fill-11" fill="#FFA800"></path>
                    <path d="M49.0069678,38.692157 C55.7662917,38.742421 72.246361,31.5247842 78.2673578,26.870019 C82.0478456,23.9473837 76.4873385,46.0231846 72.2129176,50.2483309 C67.9384967,54.4736751 48.6436421,40.3093129 49.0069678,38.692157" id="Fill-13" fill="#FFA800"></path>
                    <path d="M33.7789278,59.5200644 C28.2081305,57.9583176 12.7214682,41.5803594 17.2438451,42.2567469 C24.4464422,43.3338614 43.1383265,41.8530516 45.9651831,39.5680175 C48.1061534,37.8374707 39.3497252,61.0816132 33.7789278,59.5200644" id="Fill-15" fill="#FFA800"></path>
                    <path d="M58.1797761,5.1310663 C60.1424477,4.73033934 62.2616502,4.6298113 64.3082271,4.8403661 C66.6599502,5.08258329 68.8385196,5.71800762 70.783579,6.72942267 C69.7496045,11.635508 48.0389104,35.9130314 48.0389104,35.9130314 C48.4831732,30.4130786 49.7221616,22.4179326 50.1905669,18.744899 C51.1166914,11.4819455 53.2200627,6.74406652 55.9614309,5.74650376 C56.6376205,5.50052666 57.384061,5.29333598 58.1797761,5.1310663" id="Fill-17" fill="#FFA800"></path>
                    <path d="M45.6990806,37.9771215 C47.3136639,40.8912476 15.670878,41.4971863 14.474238,38.3808168 C11.745139,33.6079114 12.0843222,25.6189 16.1238478,22.4684935 C23.9697849,27.3498426 34.7126315,34.0280316 45.6990806,37.9771215" id="Fill-19" fill="#FFA800"></path>
                    <path d="M26.6847545,15.4628957 C27.3763796,15.3216024 28.0428726,15.2293857 28.6658299,15.1886204 C31.1914981,15.0235802 34.4299656,17.8138272 37.5506887,22.8435937 C39.1288603,25.387072 47.340102,35.3589398 46.6761815,36.7200262 C46.0122611,38.0813105 19.5330151,24.0267771 17.0971889,20.7629797 C18.3264807,19.3834896 19.8660638,18.2036702 21.6733918,17.2561736 C23.2462204,16.4313687 24.978944,15.8113798 26.6847545,15.4628957" id="Fill-21" fill="#FFA800"></path>
                    <path d="M69.561906,54.9527467 C72.1142893,53.5995758 65.276799,70.636903 60.7850951,74.7156109 C54.2351387,67.8998884 48.2727173,40.331061 48.2727173,40.331061 C48.2727173,40.331061 67.0095226,56.3059175 69.561906,54.9527467" id="Fill-23" fill="#FFA800"></path>
                    <path d="M37.2596916,60.5504768 C34.3811858,60.3062808 52.530654,73.4059956 58.26194,75.3971633 C52.2631069,70.4655502 47.5899379,40.4703952 47.5899379,40.4703952 C47.5899379,40.4703952 40.1381975,60.794475 37.2596916,60.5504768" id="Fill-25" fill="#FFA800"></path>
                    <path d="M62.2032727,0.0162665462 C60.5105229,0.0162665462 58.8391451,0.182296136 57.2360394,0.509605959 C56.2137404,0.718379757 55.2422991,0.989093081 54.3486285,1.31422612 C49.6762511,3.01429787 46.6988003,8.71174473 45.4989941,18.2482548 C45.1746527,20.8269575 45.0278184,23.3251191 44.9718156,25.4532266 C44.2400189,23.9201739 43.341401,22.2104055 42.2789304,20.4923258 C40.3312984,17.3421172 38.2342596,14.8221877 36.0461915,13.0023926 C33.2165644,10.6486907 30.2224909,9.45501904 27.1476783,9.45462326 C26.3317784,9.45462326 25.5018283,9.53971589 24.6793981,9.70792227 C20.2181692,10.6188093 16.0935509,13.837092 13.0652424,18.7700904 C9.77750035,24.1255836 8.27729734,30.7620178 9.41694503,34.9086018 C11.1334416,41.1538078 14.9224387,47.4676816 20.6788568,53.6750906 C25.240218,58.5938409 31.0469,63.464306 37.9372269,68.1515252 C49.6360795,76.1096658 60.5938345,80.8647611 60.7030697,80.9118589 L61.6640229,81.3260424 L62.1894204,80.4210921 C62.2537346,80.3100759 68.6972262,69.1819377 74.6630118,56.2826852 C82.7491871,38.7985227 86.1511116,26.5149057 84.774194,19.7724025 C83.3569068,12.8314158 80.2664609,7.5827831 75.5889384,4.17274509 C70.876983,0.737377184 65.7088915,0.0162665462 62.2032727,0.0162665462 M62.2032727,1.1954922 C70.4738814,1.1954922 80.6369107,5.40460945 83.618913,20.0082872 C86.8148342,35.6590002 61.169694,79.8288077 61.169694,79.8288077 C61.169694,79.8288077 17.8565516,61.1668048 10.5540201,34.5961338 C8.71601916,27.9090397 14.5171603,12.9863635 24.9152828,10.8632033 C25.6787419,10.7070682 26.4216204,10.633651 27.1474804,10.6338489 C39.3883533,10.6358278 46.2238647,31.5891974 46.2238647,31.5891974 C46.2238647,31.5891974 44.5683181,6.12789688 54.7517302,2.42221142 C55.5713899,2.12399141 56.4850474,1.86653671 57.4719241,1.66488694 C58.92028,1.3692395 60.5225942,1.1954922 62.2032727,1.1954922" id="Fill-27" fill="#FFB100"></path>
                </g>
            </g>
            <path d="M16.5861168,148.447029 L18.5270347,148.447029 L18.5270347,138.791267 L15.6827964,140.488045 L15.6827964,136.239998 L20.7853355,133.237068 L22.555355,133.261482 L22.555355,148.447029 L24.50848,148.447029 L24.50848,151.791755 L16.5861168,151.791755 L16.5861168,148.447029 Z M32.8580894,132.797615 L35.9830894,132.797615 L28.9274253,151.791755 L25.7291832,151.791755 L32.8580894,132.797615 Z M36.5324058,148.617927 L42.9288902,141.818611 C43.4822784,141.281499 43.9095202,140.744395 44.2106285,140.207283 C44.5117367,139.670171 44.6622886,139.124929 44.6622886,138.571541 C44.6622886,138.335537 44.613461,138.101571 44.5158043,137.869636 C44.4181475,137.637702 44.2777681,137.430184 44.0946617,137.247078 C43.9115553,137.063971 43.687762,136.917488 43.423275,136.807625 C43.158788,136.697761 42.8597187,136.64283 42.5260582,136.64283 C42.1272931,136.64283 41.7793962,136.705899 41.482357,136.832039 C41.1853177,136.958179 40.9371106,137.13111 40.7377281,137.350837 C40.5383456,137.570565 40.3857592,137.82691 40.2799644,138.11988 C40.1741696,138.412851 40.117204,138.722092 40.109066,139.047615 L36.4347496,139.047615 C36.4347496,138.087324 36.5934394,137.230805 36.9108238,136.478035 C37.2282082,135.725264 37.6656224,135.090505 38.2230796,134.573738 C38.7805369,134.056971 39.4336065,133.664315 40.1823082,133.395759 C40.9310098,133.127203 41.7325969,132.992927 42.5870933,132.992927 C43.3927614,132.992927 44.1597622,133.114996 44.8881187,133.359138 C45.6164752,133.60328 46.2593724,133.961349 46.8168296,134.433357 C47.3742869,134.905365 47.8157701,135.487227 48.1412925,136.178962 C48.466815,136.870698 48.6295738,137.668216 48.6295738,138.571541 C48.6295738,139.295828 48.4810564,139.965174 48.1840171,140.579597 C47.8869779,141.194021 47.4861844,141.781987 46.9816246,142.343513 L41.7081871,148.044197 L48.6051597,148.044197 L48.6051597,151.791755 L36.5324058,151.791755 L36.5324058,148.617927 Z M67.4406089,133.285896 L74.4718589,133.285896 L74.4718589,136.64283 L72.9703941,136.64283 L72.9703941,151.791755 L68.9176597,151.791755 L61.215023,139.828865 L61.215023,148.447029 L62.765316,148.447029 L62.765316,151.791755 L55.746273,151.791755 L55.746273,148.447029 L57.2721519,148.447029 L57.2721519,136.64283 L55.7706871,136.64283 L55.7706871,133.285896 L61.3615074,133.285896 L69.015316,145.407478 L69.015316,136.64283 L67.4406089,136.64283 L67.4406089,133.285896 Z M85.9952964,148.447029 L87.8385582,148.447029 L87.00848,145.785896 L81.3200035,145.785896 L80.4899253,148.447029 L82.4430503,148.447029 L82.4430503,151.791755 L75.4240074,151.791755 L75.4240074,148.447029 L76.8034019,148.447029 L81.8449058,133.285896 L86.7399253,133.285896 L91.671566,148.447029 L93.0143394,148.447029 L93.0143394,151.791755 L85.9952964,151.791755 L85.9952964,148.447029 Z M82.2843589,142.660896 L86.0197105,142.660896 L84.1398277,136.64283 L82.2843589,142.660896 Z M94.6744957,133.285896 L104.464535,133.285896 C105.416688,133.285896 106.267103,133.42831 107.015804,133.713142 C107.764506,133.997974 108.395196,134.378423 108.907894,134.8545 C109.420592,135.330576 109.813248,135.883956 110.085873,136.514656 C110.358498,137.145356 110.494808,137.802494 110.494808,138.486091 C110.494808,139.112722 110.42767,139.662033 110.293392,140.134041 C110.159114,140.606048 109.963804,141.025152 109.707455,141.391365 C109.451106,141.757578 109.135761,142.081061 108.76141,142.361824 C108.387059,142.642587 107.959817,142.896898 107.479671,143.124763 C107.894713,143.336353 108.26092,143.659836 108.578304,144.095222 C108.895689,144.530609 109.135758,145.094161 109.298519,145.785896 L109.921078,148.190681 L111.446957,148.190681 L111.471371,151.791755 L106.100277,151.791755 L105.367855,147.397224 C105.294612,146.876388 105.182716,146.426767 105.032162,146.048347 C104.881608,145.669927 104.680194,145.360686 104.427914,145.120613 C104.175634,144.88054 103.868427,144.70354 103.506283,144.589607 C103.144139,144.475674 102.714863,144.418709 102.218441,144.418709 L100.643734,144.418709 L100.643734,148.447029 L102.340511,148.447029 L102.340511,151.791755 L94.6744957,151.791755 L94.6744957,148.447029 L96.5909996,148.447029 L96.5909996,136.64283 L94.6744957,136.64283 L94.6744957,133.285896 Z M100.643734,136.64283 L100.643734,141.12281 L103.072933,141.12281 C103.536803,141.12281 103.953872,141.080086 104.324154,140.994636 C104.694436,140.909187 105.011815,140.774911 105.276302,140.591804 C105.540789,140.408698 105.744238,140.178801 105.886654,139.902107 C106.02907,139.625413 106.100277,139.295826 106.100277,138.913337 C106.100277,138.197188 105.843932,137.639739 105.331234,137.240974 C104.818536,136.842209 104.065777,136.64283 103.072933,136.64283 L100.643734,136.64283 Z M122.872738,148.447029 L124.716,148.447029 L123.885921,145.785896 L118.197445,145.785896 L117.367367,148.447029 L119.320492,148.447029 L119.320492,151.791755 L112.301449,151.791755 L112.301449,148.447029 L113.680843,148.447029 L118.722347,133.285896 L123.617367,133.285896 L128.549007,148.447029 L129.891781,148.447029 L129.891781,151.791755 L122.872738,151.791755 L122.872738,148.447029 Z M119.1618,142.660896 L122.897152,142.660896 L121.017269,136.64283 L119.1618,142.660896 Z M143.246273,133.285896 L150.277523,133.285896 L150.277523,136.64283 L148.776058,136.64283 L148.776058,151.791755 L144.723324,151.791755 L137.020687,139.828865 L137.020687,148.447029 L138.57098,148.447029 L138.57098,151.791755 L131.551937,151.791755 L131.551937,148.447029 L133.077816,148.447029 L133.077816,136.64283 L131.576351,136.64283 L131.576351,133.285896 L137.167171,133.285896 L144.82098,145.407478 L144.82098,136.64283 L143.246273,136.64283 L143.246273,133.285896 Z M151.901058,133.285896 L158.895687,133.285896 L158.895687,136.996834 L157.601742,136.996834 L157.601742,149.692146 C157.422704,150.351329 157.16229,150.955571 156.820492,151.50489 C156.478693,152.054209 156.143003,152.552658 155.813412,153.000252 C155.48382,153.447845 155.021992,154.013432 154.427914,154.697029 L151.022152,154.513923 C151.502298,153.781498 151.878677,153.177256 152.151302,152.701179 C152.423927,152.225103 152.698583,151.700206 152.975277,151.126472 C153.251971,150.552739 153.467626,149.940359 153.62225,149.289314 L153.62225,136.996834 L151.901058,136.996834 L151.901058,133.285896 Z M170.174984,148.447029 L172.018246,148.447029 L171.188168,145.785896 L165.499691,145.785896 L164.669613,148.447029 L166.622738,148.447029 L166.622738,151.791755 L159.603695,151.791755 L159.603695,148.447029 L160.983089,148.447029 L166.024593,133.285896 L170.919613,133.285896 L175.851253,148.447029 L177.194027,148.447029 L177.194027,151.791755 L170.174984,151.791755 L170.174984,148.447029 Z M166.464046,142.660896 L170.199398,142.660896 L168.319515,136.64283 L166.464046,142.660896 Z M16.9279136,157.285896 L24.4108238,157.285896 C25.2409061,157.285896 26.0038379,157.393724 26.6996421,157.609382 C27.3954464,157.825041 27.9976539,158.142421 28.5062828,158.561531 C29.0149116,158.980641 29.4096017,159.503504 29.6903648,160.130134 C29.9711279,160.756765 30.1115074,161.476973 30.1115074,162.290779 C30.1115074,162.966238 29.9731624,163.603032 29.6964683,164.201179 C29.4197742,164.799327 29.0291531,165.322189 28.5245933,165.769783 C28.0200335,166.217376 27.4157915,166.571377 26.7118492,166.831795 C26.0079069,167.092212 25.2246302,167.22242 24.3619957,167.22242 L21.0783043,167.22242 L21.0783043,173.692146 L22.933773,173.692146 L22.933773,175.791755 L16.9279136,175.791755 L16.9279136,173.692146 L18.6857261,173.692146 L18.6857261,159.397712 L16.9279136,159.397712 L16.9279136,157.285896 Z M21.0783043,159.397712 L21.0783043,165.220466 L24.4108238,165.220466 C24.8746933,165.220466 25.2999006,165.157397 25.6864585,165.031257 C26.0730165,164.905117 26.406672,164.719979 26.6874351,164.475837 C26.9681982,164.231696 27.1879226,163.926523 27.3466148,163.56031 C27.505307,163.194097 27.5846519,162.770925 27.5846519,162.290779 C27.5846519,161.379316 27.307962,160.669281 26.7545738,160.160652 C26.2011856,159.652023 25.3182192,159.397712 24.105648,159.397712 L21.0783043,159.397712 Z M40.4630699,176.157966 C39.1853942,176.157966 38.0175999,175.919932 36.9596519,175.443855 C35.9017039,174.967778 34.9577029,174.290295 34.1276207,173.411384 C33.2975384,172.532474 32.6668481,171.490817 32.2355308,170.286384 C31.8042136,169.081951 31.5885582,167.832778 31.5885582,166.538826 C31.5885582,165.204184 31.806248,163.950941 32.2416343,162.77906 C32.6770206,161.607179 33.2873661,160.587902 34.072689,159.721199 C34.858012,158.854495 35.793875,158.170908 36.8803062,157.670418 C37.9667374,157.169927 39.16098,156.919685 40.4630699,156.919685 C41.7732978,156.919685 42.9736439,157.169927 44.0641441,157.670418 C45.1546443,158.170908 46.0905074,158.854495 46.8717613,159.721199 C47.6530152,160.587902 48.2592917,161.607179 48.6906089,162.77906 C49.1219262,163.950941 49.3375816,165.204184 49.3375816,166.538826 C49.3375816,167.873468 49.1198917,169.124676 48.6845054,170.292488 C48.2491191,171.4603 47.6387737,172.479577 46.8534507,173.350349 C46.0681278,174.221122 45.1322648,174.906743 44.0458335,175.407234 C42.9594023,175.907725 41.7651597,176.157966 40.4630699,176.157966 Z M40.4630699,173.887459 C41.4314992,173.887459 42.3083622,173.688079 43.0936851,173.289314 C43.879008,172.890549 44.5483536,172.35548 45.1017418,171.684089 C45.6551299,171.012699 46.0823718,170.233492 46.38348,169.346443 C46.6845883,168.459394 46.8351402,167.523531 46.8351402,166.538826 C46.8351402,165.529706 46.6703469,164.555188 46.3407554,163.615242 C46.0111639,162.675296 45.5513704,161.879812 44.9613609,161.228767 C44.3713514,160.577722 43.68573,160.075205 42.9044761,159.721199 C42.1232222,159.367193 41.3094283,159.190193 40.4630699,159.190193 C39.4946406,159.190193 38.6157431,159.389572 37.8263511,159.788337 C37.0369592,160.187103 36.3655792,160.722172 35.812191,161.393562 C35.2588028,162.064952 34.831561,162.846194 34.5304527,163.737312 C34.2293444,164.62843 34.0787925,165.562258 34.0787925,166.538826 C34.0787925,167.678154 34.2456203,168.693362 34.5792808,169.58448 C34.9129413,170.475598 35.3544246,171.21615 35.9037437,171.80616 C36.4530629,172.396169 37.108167,172.890549 37.8690757,173.289314 C38.6299845,173.688079 39.4946406,173.887459 40.4630699,173.887459 Z M51.9498863,157.285896 L57.9557457,157.285896 L57.9557457,159.397712 L56.1002769,159.397712 L56.1002769,173.692146 L62.4845543,173.692146 C62.6147632,173.692146 62.7449703,173.661629 62.8751793,173.600593 C63.0053882,173.539558 63.1233884,173.460213 63.2291832,173.362556 C63.334978,173.2649 63.4204263,173.153003 63.4855308,173.026863 C63.5506353,172.900723 63.5831871,172.77255 63.5831871,172.642341 L63.5831871,170.310798 L65.902523,170.310798 L65.902523,175.791755 L51.9498863,175.791755 L51.9498863,173.692146 L53.7076988,173.692146 L53.7076988,159.397712 L51.9498863,159.397712 L51.9498863,157.285896 Z M67.7701988,157.285896 L73.6784019,157.285896 L73.6784019,159.397712 L71.9205894,159.397712 L71.9205894,173.692146 L73.6784019,173.692146 L73.6784019,175.791755 L67.7701988,175.791755 L67.7701988,173.692146 L69.5280113,173.692146 L69.5280113,159.397712 L67.7701988,159.397712 L67.7701988,157.285896 Z M70.5656089,151.902595 L73.4952964,151.902595 L73.4952964,152.110115 L69.8453941,155.552498 L67.9655113,155.552498 L70.5656089,151.902595 Z M80.9537925,173.692146 L82.6505699,173.692146 L82.6505699,159.287849 L78.4269371,159.287849 L78.4269371,162.168709 L75.9244957,162.168709 L75.9244957,157.285896 L92.4284019,157.285896 L92.4284019,162.168709 L89.9259605,162.168709 L89.9259605,159.287849 L85.043148,159.287849 L85.043148,173.692146 L86.9474449,173.692146 L86.9474449,175.791755 L80.9537925,175.791755 L80.9537925,173.692146 Z M94.6744957,157.285896 L100.582699,157.285896 L100.582699,159.397712 L98.8248863,159.397712 L98.8248863,173.692146 L100.582699,173.692146 L100.582699,175.791755 L94.6744957,175.791755 L94.6744957,173.692146 L96.4323082,173.692146 L96.4323082,159.397712 L94.6744957,159.397712 L94.6744957,157.285896 Z M117.208675,162.168709 C116.663425,161.24097 115.941183,160.512624 115.041927,159.98365 C114.142672,159.454676 113.13967,159.190193 112.032894,159.190193 C111.088879,159.190193 110.226257,159.389572 109.445003,159.788337 C108.66375,160.187103 107.994404,160.722172 107.436947,161.393562 C106.87949,162.064952 106.446144,162.842125 106.136898,163.725105 C105.827652,164.608085 105.673031,165.537844 105.673031,166.514412 C105.673031,167.670016 105.843928,168.693362 106.185726,169.58448 C106.527525,170.475598 106.973077,171.21615 107.522396,171.80616 C108.071715,172.396169 108.724785,172.888515 109.481625,173.283211 C110.238464,173.677907 111.088879,173.875252 112.032894,173.875252 C113.318708,173.875252 114.437674,173.563975 115.389828,172.941414 C116.341981,172.318852 117.155775,171.295506 117.831234,169.871345 L119.979671,170.884529 C119.670425,171.76344 119.145528,172.61182 118.404964,173.429695 C117.664401,174.24757 116.750917,174.906743 115.664486,175.407234 C114.578055,175.907725 113.375674,176.157966 112.057308,176.157966 C110.795909,176.157966 109.636252,175.919932 108.578304,175.443855 C107.520356,174.967778 106.57839,174.290295 105.752377,173.411384 C104.926363,172.532474 104.295673,171.490817 103.860287,170.286384 C103.4249,169.081951 103.207211,167.82464 103.207211,166.514412 C103.207211,165.196046 103.4249,163.950941 103.860287,162.77906 C104.295673,161.607179 104.906018,160.587902 105.691341,159.721199 C106.476664,158.854495 107.412527,158.170908 108.498959,157.670418 C109.58539,157.169927 110.763356,156.919685 112.032894,156.919685 C113.164085,156.919685 114.140637,157.080409 114.962582,157.401863 C115.784526,157.723316 116.482354,158.105799 117.056087,158.549324 C117.629821,158.992848 118.124201,159.475021 118.539242,159.995857 L119.833187,159.995857 L119.833187,162.168709 L117.208675,162.168709 Z M133.444027,173.692146 L134.982113,173.692146 L133.517269,169.492927 L126.40057,169.492927 L124.972347,173.692146 L126.876644,173.692146 L126.876644,175.791755 L120.870785,175.791755 L120.870785,173.692146 L122.482113,173.692146 L128.243832,157.285896 L131.844906,157.285896 L137.594418,173.692146 L139.449886,173.692146 L139.449886,175.791755 L133.444027,175.791755 L133.444027,173.692146 Z M127.096371,167.46656 L132.809261,167.46656 L129.928402,159.190193 L127.096371,167.46656 Z" id="1/2-NARANJA-POLÃTICA-Copy" fill="#FFFFFF"></path>
        </g>
    </g>
</svg>