<?xml version="1.0" encoding="UTF-8" standalone="no"?>
<svg width="200px" height="196px" viewBox="0 0 200 196" version="1.1" xmlns="http://www.w3.org/2000/svg" xmlns:xlink="http://www.w3.org/1999/xlink">
    <!-- Generator: Sketch 41.2 (35397) - http://www.bohemiancoding.com/sketch -->
    <title>Group 68</title>
    <desc>Created with Sketch.</desc>
    <defs>
        <polygon id="path-1" points="96.6167294 80.9529295 147.46526 80.9529295 147.46526 20.4173463 96.6167294 20.4173463"></polygon>
    </defs>
    <g id="Page-1" stroke="none" stroke-width="1" fill="none" fill-rule="evenodd">
        <g id="Group-68">
            <g id="Group-67-Copy">
                <polygon id="Page-1-Copy-42" fill="#FF645B" points="0 1.04694806 0 194.799884 200 195.880604 200 0"></polygon>
                <path d="M15.354437,140.871094 L21.8485776,140.871094 C22.572214,140.871094 23.2370837,140.983967 23.8432065,141.209717 C24.4493293,141.435467 24.9719478,141.74007 25.4110776,142.123535 C25.8502074,142.507001 26.1934657,142.949216 26.4408628,143.450195 C26.6882598,143.951174 26.8119565,144.473793 26.8119565,145.018066 C26.8119565,145.673669 26.7145454,146.287513 26.5197202,146.859619 C26.324895,147.431725 26.0233843,147.928058 25.6151792,148.348633 C25.206974,148.769208 24.6905404,149.101643 24.0658628,149.345947 C23.4411851,149.590252 22.7020975,149.712402 21.8485776,149.712402 L19.8910581,149.712402 L19.8910581,152.393555 L21.1806088,152.393555 L21.1806088,154.935547 L15.354437,154.935547 L15.354437,152.393555 L16.8109799,152.393555 L16.8109799,143.422363 L15.354437,143.422363 L15.354437,140.871094 Z M19.8910581,143.422363 L19.8910581,147.198242 L21.1620542,147.198242 C21.8671358,147.198242 22.4268633,147.049806 22.8412534,146.75293 C23.2556435,146.456053 23.4628354,145.986006 23.4628354,145.342773 C23.4628354,144.742836 23.2680131,144.272788 22.8783628,143.932617 C22.4887124,143.592446 21.9166152,143.422363 21.1620542,143.422363 L19.8910581,143.422363 Z M28.3427182,140.871094 L39.5311948,140.871094 L39.5311948,145.66748 L36.5067807,145.66748 L36.5067807,143.672852 L32.897894,143.672852 L32.897894,146.446777 L35.6903745,146.446777 L35.6903745,149.137207 L32.897894,149.137207 L32.897894,152.393555 L36.5067807,152.393555 L36.5067807,149.897949 L39.5311948,149.897949 L39.5311948,154.935547 L28.3427182,154.935547 L28.3427182,152.393555 L29.8178159,152.393555 L29.8178159,143.672852 L28.3427182,143.672852 L28.3427182,140.871094 Z M41.1454526,140.871094 L48.5858823,140.871094 C49.3095187,140.871094 49.9558339,140.979328 50.5248471,141.195801 C51.0938604,141.412273 51.573185,141.701414 51.9628354,142.063232 C52.3524858,142.425051 52.650904,142.845619 52.8580991,143.324951 C53.0652941,143.804283 53.1688901,144.303708 53.1688901,144.823242 C53.1688901,145.299482 53.1178652,145.716958 53.0158139,146.075684 C52.9137626,146.434409 52.7653266,146.752928 52.5705014,147.03125 C52.3756762,147.309572 52.1360139,147.555419 51.8515073,147.768799 C51.5670007,147.982179 51.2422969,148.175455 50.8773862,148.348633 C51.1928175,148.509441 51.471135,148.755288 51.7123471,149.086182 C51.9535593,149.417075 52.1360119,149.845375 52.2597104,150.371094 L52.7328549,152.19873 L53.8925229,152.19873 L53.9110776,154.935547 L49.8290463,154.935547 L49.2724057,151.595703 C49.2167414,151.199868 49.1316999,150.858156 49.0172788,150.570557 C48.9028576,150.282958 48.749783,150.047934 48.5580503,149.865479 C48.3663175,149.683023 48.13284,149.548503 47.8576108,149.461914 C47.5823816,149.375325 47.2561316,149.332031 46.878851,149.332031 L45.6820737,149.332031 L45.6820737,152.393555 L46.9716245,152.393555 L46.9716245,154.935547 L41.1454526,154.935547 L41.1454526,152.393555 L42.6019956,152.393555 L42.6019956,143.422363 L41.1454526,143.422363 L41.1454526,140.871094 Z M45.6820737,143.422363 L45.6820737,146.827148 L47.5282651,146.827148 C47.8808059,146.827148 48.1977787,146.794678 48.4791928,146.729736 C48.760607,146.664795 49.0018155,146.562745 49.2028256,146.423584 C49.4038358,146.284423 49.5584566,146.109702 49.6666928,145.899414 C49.774929,145.689127 49.8290463,145.438641 49.8290463,145.147949 C49.8290463,144.603676 49.6342241,144.180015 49.2445737,143.876953 C48.8549233,143.573892 48.2828262,143.422363 47.5282651,143.422363 L45.6820737,143.422363 Z M55.3397885,140.871094 L66.2221128,140.871094 L66.2221128,145.66748 L63.206976,145.66748 L63.206976,143.691406 L59.8764096,143.691406 L59.8764096,146.650879 L62.7616635,146.650879 L62.7616635,149.350586 L59.8764096,149.350586 L59.8764096,152.393555 L61.3607846,152.393555 L61.3607846,154.935547 L55.3397885,154.935547 L55.3397885,152.393555 L56.7963315,152.393555 L56.7963315,143.691406 L55.3397885,143.691406 L55.3397885,140.871094 Z M67.2704526,140.871094 L73.2914487,140.871094 L73.2914487,143.413086 L71.8070737,143.413086 L71.8070737,152.393555 L73.2914487,152.393555 L73.2914487,154.935547 L67.2704526,154.935547 L67.2704526,152.393555 L68.7269956,152.393555 L68.7269956,143.413086 L67.2704526,143.413086 L67.2704526,140.871094 Z M74.785101,140.871094 L80.8060971,140.871094 L80.8060971,143.422363 L79.3217221,143.422363 L79.3217221,152.393555 L82.3832456,152.393555 C82.4636496,152.393555 82.5425062,152.370362 82.6198178,152.323975 C82.6971294,152.277588 82.7651626,152.217286 82.8239194,152.143066 C82.8826762,152.068847 82.9306087,151.988444 82.9677182,151.901855 C83.0048278,151.815266 83.0233823,151.731771 83.0233823,151.651367 L83.0233823,149.768066 L86.0292417,149.768066 L86.0292417,154.935547 L74.785101,154.935547 L74.785101,152.393555 L76.241644,152.393555 L76.241644,143.422363 L74.785101,143.422363 L74.785101,140.871094 Z M87.2724057,140.871094 L98.4608823,140.871094 L98.4608823,145.66748 L95.4364682,145.66748 L95.4364682,143.672852 L91.8275815,143.672852 L91.8275815,146.446777 L94.620062,146.446777 L94.620062,149.137207 L91.8275815,149.137207 L91.8275815,152.393555 L95.4364682,152.393555 L95.4364682,149.897949 L98.4608823,149.897949 L98.4608823,154.935547 L87.2724057,154.935547 L87.2724057,152.393555 L88.7475034,152.393555 L88.7475034,143.672852 L87.2724057,143.672852 L87.2724057,140.871094 Z M106.838324,144.83252 C106.807399,144.616047 106.731635,144.411948 106.611029,144.220215 C106.490423,144.028482 106.335802,143.863038 106.147162,143.723877 C105.958521,143.584716 105.745145,143.474935 105.507025,143.394531 C105.268905,143.314127 105.019966,143.273926 104.760199,143.273926 C104.525171,143.273926 104.30561,143.298665 104.101507,143.348145 C103.897405,143.397624 103.719591,143.473388 103.56806,143.575439 C103.416529,143.677491 103.295925,143.808918 103.206244,143.969727 C103.116562,144.130535 103.071722,144.322265 103.071722,144.544922 C103.071722,144.823244 103.132024,145.044351 103.25263,145.208252 C103.373236,145.372153 103.527857,145.506673 103.716498,145.611816 C103.905138,145.71696 104.113876,145.800455 104.342718,145.862305 C104.571561,145.924154 104.794215,145.992187 105.010687,146.066406 L107.561957,146.919922 C107.914497,147.04362 108.245386,147.213703 108.554632,147.430176 C108.863879,147.646648 109.131373,147.909504 109.357123,148.21875 C109.582872,148.527996 109.760686,148.883624 109.89057,149.285645 C110.020453,149.687665 110.085394,150.139158 110.085394,150.640137 C110.085394,151.320479 109.960151,151.942054 109.709662,152.504883 C109.459172,153.067711 109.108183,153.550128 108.656683,153.952148 C108.205183,154.354169 107.66401,154.666503 107.033148,154.88916 C106.402285,155.111818 105.703399,155.223145 104.936468,155.223145 C104.39838,155.223145 103.889677,155.162842 103.410345,155.042236 C102.931013,154.92163 102.493436,154.746909 102.097601,154.518066 C101.701766,154.289224 101.355415,154.015545 101.058539,153.697021 C100.761662,153.378498 100.529731,153.018231 100.362738,152.616211 L99.4071713,152.616211 L99.4071713,149.82373 L102.76557,149.82373 L102.76557,150.398926 C102.76557,150.677247 102.81041,150.933918 102.900091,151.168945 C102.989773,151.403973 103.124293,151.608072 103.303656,151.78125 C103.483019,151.954428 103.708765,152.088948 103.980902,152.184814 C104.253039,152.280681 104.571558,152.328613 104.936468,152.328613 C105.493112,152.328613 105.916773,152.200278 106.207464,151.943604 C106.498156,151.686929 106.643499,151.329755 106.643499,150.87207 C106.643499,150.637043 106.592475,150.440675 106.490423,150.282959 C106.388372,150.125243 106.256944,149.992269 106.096136,149.884033 C105.935328,149.775797 105.755968,149.684571 105.55805,149.610352 C105.360133,149.536132 105.16531,149.468099 104.973578,149.40625 L102.849066,148.719727 C102.447046,148.596028 102.058947,148.422853 101.684759,148.200195 C101.310571,147.977538 100.979683,147.69922 100.692083,147.365234 C100.404484,147.031248 100.175646,146.640058 100.00556,146.19165 C99.8354745,145.743243 99.7504331,145.231448 99.7504331,144.65625 C99.7504331,143.988278 99.8741297,143.392988 100.121527,142.870361 C100.368924,142.347735 100.715275,141.907066 101.160589,141.54834 C101.605904,141.189614 102.134707,140.917481 102.747015,140.731934 C103.359323,140.546386 104.030377,140.453613 104.760199,140.453613 C105.335397,140.453613 105.867293,140.5201 106.355902,140.653076 C106.844511,140.786052 107.282088,140.963866 107.668646,141.186523 C108.055204,141.409181 108.383,141.664305 108.652044,141.951904 C108.921089,142.239503 109.126734,142.537922 109.268988,142.847168 L110.196722,142.847168 L110.196722,145.648926 L106.838324,145.648926 L106.838324,144.83252 Z M115.141546,140.871094 L120.54096,140.871094 C121.184193,140.871094 121.80113,140.954589 122.39179,141.121582 C122.982451,141.288575 123.532901,141.523599 124.043158,141.82666 C124.553414,142.129722 125.017277,142.493081 125.434759,142.916748 C125.852242,143.340416 126.209416,143.812009 126.506292,144.331543 C126.803169,144.851077 127.032008,145.410804 127.192816,146.010742 C127.353624,146.61068 127.434027,147.235348 127.434027,147.884766 C127.434027,148.534183 127.353624,149.158851 127.192816,149.758789 C127.032008,150.358727 126.803169,150.920001 126.506292,151.442627 C126.209416,151.965253 125.852242,152.441485 125.434759,152.871338 C125.017277,153.30119 124.553414,153.669188 124.043158,153.975342 C123.532901,154.281496 122.982451,154.518066 122.39179,154.685059 C121.80113,154.852052 121.184193,154.935547 120.54096,154.935547 L115.141546,154.935547 L115.141546,152.393555 L116.264105,152.393555 L116.264105,143.422363 L115.141546,143.422363 L115.141546,140.871094 Z M119.344183,143.422363 L119.344183,152.393555 L120.522406,152.393555 C121.023385,152.393555 121.496525,152.276043 121.941839,152.041016 C122.387154,151.805988 122.773706,151.485923 123.101507,151.080811 C123.429308,150.675698 123.689071,150.199466 123.880804,149.6521 C124.072537,149.104734 124.168402,148.515628 124.168402,147.884766 C124.168402,147.260088 124.072537,146.675621 123.880804,146.131348 C123.689071,145.587074 123.429308,145.113934 123.101507,144.711914 C122.773706,144.309894 122.387154,143.994467 121.941839,143.765625 C121.496525,143.536783 121.023385,143.422363 120.522406,143.422363 L119.344183,143.422363 Z M129.048285,140.871094 L140.236761,140.871094 L140.236761,145.66748 L137.212347,145.66748 L137.212347,143.672852 L133.60346,143.672852 L133.60346,146.446777 L136.395941,146.446777 L136.395941,149.137207 L133.60346,149.137207 L133.60346,152.393555 L137.212347,152.393555 L137.212347,149.897949 L140.236761,149.897949 L140.236761,154.935547 L129.048285,154.935547 L129.048285,152.393555 L130.523382,152.393555 L130.523382,143.672852 L129.048285,143.672852 L129.048285,140.871094 Z M15.6327573,159.871094 L20.1972104,159.871094 L20.1972104,161.476074 L18.7870542,161.476074 L18.7870542,172.339844 L23.6391049,172.339844 C23.7380638,172.339844 23.8370211,172.316651 23.9359799,172.270264 C24.0349388,172.223877 24.1246189,172.163575 24.2050229,172.089355 C24.285427,172.015136 24.3503677,171.930095 24.3998471,171.834229 C24.4493265,171.738362 24.4740659,171.640951 24.4740659,171.541992 L24.4740659,169.77002 L26.2367612,169.77002 L26.2367612,173.935547 L15.6327573,173.935547 L15.6327573,172.339844 L16.9686948,172.339844 L16.9686948,161.476074 L15.6327573,161.476074 L15.6327573,159.871094 Z M33.7421323,174.213867 C32.7710988,174.213867 31.8835751,174.032961 31.0795346,173.671143 C30.2754941,173.309324 29.5580534,172.794437 28.9271909,172.126465 C28.2963283,171.458493 27.8170037,170.666834 27.4892026,169.751465 C27.1614015,168.836096 26.9975034,167.886724 26.9975034,166.90332 C26.9975034,165.888992 27.1629477,164.936528 27.4938413,164.045898 C27.8247348,163.155269 28.2885974,162.380619 28.8854428,161.721924 C29.4822883,161.063229 30.1935442,160.543703 31.0192319,160.16333 C31.8449196,159.782957 32.752544,159.592773 33.7421323,159.592773 C34.7379055,159.592773 35.6501685,159.782957 36.4789487,160.16333 C37.3077289,160.543703 38.0189848,161.063229 38.6127378,161.721924 C39.2064907,162.380619 39.6672609,163.155269 39.995062,164.045898 C40.3228631,164.936528 40.4867612,165.888992 40.4867612,166.90332 C40.4867612,167.917648 40.3213169,168.868567 39.9904233,169.756104 C39.6595297,170.643641 39.1956672,171.418291 38.5988217,172.080078 C38.0019763,172.741865 37.2907204,173.262938 36.4650327,173.643311 C35.639345,174.023684 34.7317206,174.213867 33.7421323,174.213867 Z M33.7421323,172.488281 C34.4781386,172.488281 35.1445544,172.336753 35.7413999,172.033691 C36.3382453,171.73063 36.8469479,171.323977 37.2675229,170.813721 C37.6880979,170.303464 38.0128017,169.711266 38.241644,169.037109 C38.4704863,168.362952 38.5849057,167.651696 38.5849057,166.90332 C38.5849057,166.136389 38.4596628,165.395756 38.2091733,164.681396 C37.9586838,163.967037 37.6092406,163.36247 37.1608335,162.867676 C36.7124263,162.372882 36.191354,161.990968 35.597601,161.721924 C35.0038481,161.45288 34.3853647,161.318359 33.7421323,161.318359 C33.006126,161.318359 32.3381639,161.469888 31.738226,161.772949 C31.1382881,162.076011 30.6280393,162.482663 30.2074643,162.99292 C29.7868893,163.503176 29.4621855,164.09692 29.2333432,164.77417 C29.0045009,165.451419 28.8900815,166.161129 28.8900815,166.90332 C28.8900815,167.76921 29.0168706,168.540768 29.2704526,169.218018 C29.5240346,169.895267 29.8595618,170.458087 30.2770444,170.906494 C30.6945269,171.354901 31.1924061,171.73063 31.7706967,172.033691 C32.3489874,172.336753 33.006126,172.488281 33.7421323,172.488281 Z M49.3837338,162.46875 C49.1858162,162.196613 48.9678008,161.987875 48.7296811,161.842529 C48.4915614,161.697184 48.2302522,161.585857 47.9457456,161.508545 C47.6612389,161.431233 47.3767366,161.392578 47.0922299,161.392578 C46.6221755,161.392578 46.210884,161.446695 45.8583432,161.554932 C45.5058024,161.663168 45.213569,161.810058 44.9816342,161.995605 C44.7496995,162.181153 44.5749779,162.397622 44.4574643,162.64502 C44.3399507,162.892417 44.2811948,163.15218 44.2811948,163.424316 C44.2811948,163.832522 44.3538666,164.161864 44.4992124,164.412354 C44.6445581,164.662843 44.828557,164.86385 45.0512143,165.015381 C45.2738717,165.166912 45.5197188,165.28597 45.7887631,165.372559 C46.0578075,165.459148 46.3160243,165.545735 46.5634213,165.632324 L48.4374448,166.244629 C49.0002731,166.423992 49.496606,166.628091 49.9264585,166.856934 C50.3563109,167.085776 50.7165774,167.356362 51.007269,167.668701 C51.2979606,167.98104 51.5190684,168.341307 51.6705991,168.749512 C51.8221298,169.157717 51.897894,169.630857 51.897894,170.168945 C51.897894,170.750328 51.7788359,171.288409 51.5407163,171.783203 C51.3025966,172.277997 50.9701618,172.707843 50.5434018,173.072754 C50.1166419,173.437665 49.6079393,173.723713 49.0172788,173.930908 C48.4266183,174.138103 47.7787569,174.241699 47.0736753,174.241699 C46.3500388,174.241699 45.7315554,174.15975 45.2182065,173.99585 C44.7048576,173.831949 44.2734654,173.612387 43.924017,173.337158 C43.5745687,173.061929 43.2947049,172.748049 43.0844174,172.395508 C42.8741299,172.042967 42.7102318,171.681154 42.5927182,171.310059 L41.8876401,171.310059 L41.8876401,169.714355 L44.2255307,169.714355 C44.2255307,170.400882 44.2982025,170.886392 44.4435483,171.170898 C44.5888941,171.455405 44.7914474,171.691975 45.0512143,171.880615 C45.3109812,172.069256 45.6202229,172.211507 45.9789487,172.307373 C46.3376744,172.403239 46.7335038,172.451172 47.1664487,172.451172 C47.5870237,172.451172 47.9658448,172.401693 48.3029233,172.302734 C48.6400018,172.203776 48.9275966,172.059978 49.1657163,171.871338 C49.4038359,171.682698 49.5862885,171.453859 49.7130795,171.184814 C49.8398705,170.91577 49.9032651,170.611167 49.9032651,170.270996 C49.9032651,169.893716 49.8244085,169.57365 49.6666928,169.310791 C49.5089772,169.047932 49.3064239,168.823731 49.0590268,168.638184 C48.8116297,168.452636 48.5410433,168.301107 48.2472592,168.183594 C47.9534752,168.06608 47.6705191,167.96403 47.3983823,167.877441 L45.366644,167.302246 C44.9213293,167.166178 44.5146764,166.993002 44.1466733,166.782715 C43.7786702,166.572427 43.4632436,166.315757 43.2003842,166.012695 C42.9375248,165.709634 42.7349715,165.355552 42.5927182,164.950439 C42.4504649,164.545327 42.3793393,164.076826 42.3793393,163.544922 C42.3793393,163.006833 42.4844815,162.502769 42.694769,162.032715 C42.9050565,161.56266 43.2142982,161.151369 43.6225034,160.798828 C44.0307085,160.446287 44.5301339,160.169516 45.1207944,159.968506 C45.7114549,159.767496 46.387148,159.666992 47.147894,159.666992 C47.6488731,159.666992 48.1111894,159.725748 48.5348569,159.843262 C48.9585244,159.960775 49.3419841,160.12622 49.6852475,160.3396 C50.028511,160.55298 50.3315678,160.80965 50.5944272,161.109619 C50.8572866,161.409588 51.0783944,161.73893 51.2577573,162.097656 L51.9535581,162.097656 L51.9535581,163.693359 L49.6806088,163.693359 C49.6806088,163.149086 49.5816515,162.740887 49.3837338,162.46875 Z M67.8363706,163.582031 C67.4219805,162.87695 66.8730765,162.323407 66.189642,161.921387 C65.5062076,161.519366 64.7439269,161.318359 63.9027768,161.318359 C63.1853253,161.318359 62.5297329,161.469888 61.9359799,161.772949 C61.342227,162.076011 60.8335244,162.482663 60.4098569,162.99292 C59.9861894,163.503176 59.656847,164.093828 59.4218198,164.764893 C59.1867926,165.435957 59.0692807,166.142574 59.0692807,166.884766 C59.0692807,167.763025 59.1991622,168.540768 59.4589292,169.218018 C59.7186961,169.895267 60.0573157,170.458087 60.4747983,170.906494 C60.8922809,171.354901 61.3886138,171.729084 61.963812,172.029053 C62.5390102,172.329022 63.1853253,172.479004 63.9027768,172.479004 C64.8799952,172.479004 65.7304099,172.242434 66.4540463,171.769287 C67.1776828,171.29614 67.7961662,170.518397 68.3095151,169.436035 L69.9423276,170.206055 C69.7073004,170.874027 69.3083786,171.518796 68.7455503,172.140381 C68.1827219,172.761966 67.4884743,173.262938 66.6627866,173.643311 C65.8370989,174.023684 64.9232896,174.213867 63.9213315,174.213867 C62.9626679,174.213867 62.081329,174.032961 61.2772885,173.671143 C60.4732481,173.309324 59.7573535,172.794437 59.1295835,172.126465 C58.5018134,171.458493 58.0224888,170.666834 57.6915952,169.751465 C57.3607016,168.836096 57.1952573,167.880539 57.1952573,166.884766 C57.1952573,165.882807 57.3607016,164.936528 57.6915952,164.045898 C58.0224888,163.155269 58.4863513,162.380619 59.0831967,161.721924 C59.6800422,161.063229 60.3912981,160.543703 61.2169858,160.16333 C62.0426735,159.782957 62.9379282,159.592773 63.9027768,159.592773 C64.7624816,159.592773 65.5046617,159.714924 66.1293393,159.959229 C66.7540169,160.203533 67.2843664,160.49422 67.7204038,160.831299 C68.1564411,161.168377 68.5321698,161.534829 68.847601,161.930664 L69.8309995,161.930664 L69.8309995,163.582031 L67.8363706,163.582031 Z M80.1752378,172.339844 L81.3441831,172.339844 L80.2309018,169.148438 L74.8222104,169.148438 L73.7367612,172.339844 L75.1840268,172.339844 L75.1840268,173.935547 L70.6195737,173.935547 L70.6195737,172.339844 L71.8441831,172.339844 L76.2230893,159.871094 L78.9599057,159.871094 L83.3295346,172.339844 L84.7396909,172.339844 L84.7396909,173.935547 L80.1752378,173.935547 L80.1752378,172.339844 Z M75.351019,167.608398 L79.6928159,167.608398 L77.5033628,161.318359 L75.351019,167.608398 Z M94.8612729,159.871094 L99.425726,159.871094 L99.425726,161.476074 L98.2289487,161.476074 L98.2289487,173.935547 L95.8539487,173.935547 L89.3134213,162.273926 L89.3134213,172.339844 L90.760687,172.339844 L90.760687,173.935547 L86.1962338,173.935547 L86.1962338,172.339844 L87.495062,172.339844 L87.495062,161.476074 L86.1591245,161.476074 L86.1591245,159.852539 L89.9442807,159.852539 L96.3642026,171.402832 L96.4384213,170.95752 L96.4384213,161.476074 L94.8612729,161.476074 L94.8612729,159.871094 Z M101.225531,159.871094 L106.457953,159.871094 C107.101185,159.871094 107.713484,159.954589 108.294867,160.121582 C108.87625,160.288575 109.417423,160.523599 109.918402,160.82666 C110.419381,161.129722 110.873966,161.493081 111.282171,161.916748 C111.690377,162.340416 112.038273,162.812009 112.325873,163.331543 C112.613472,163.851077 112.834579,164.409258 112.989203,165.006104 C113.143826,165.602949 113.221136,166.222979 113.221136,166.866211 C113.221136,167.521813 113.143826,168.149574 112.989203,168.749512 C112.834579,169.34945 112.613472,169.91227 112.325873,170.437988 C112.038273,170.963707 111.690377,171.441485 111.282171,171.871338 C110.873966,172.30119 110.419381,172.669188 109.918402,172.975342 C109.417423,173.281496 108.87625,173.518066 108.294867,173.685059 C107.713484,173.852052 107.101185,173.935547 106.457953,173.935547 L101.225531,173.935547 L101.225531,172.339844 L102.561468,172.339844 L102.561468,161.476074 L101.225531,161.476074 L101.225531,159.871094 Z M104.379828,161.476074 L104.379828,172.339844 L106.569281,172.339844 C107.218698,172.339844 107.82945,172.197593 108.401556,171.913086 C108.973662,171.628579 109.473087,171.240481 109.899847,170.748779 C110.326607,170.257078 110.663681,169.678796 110.911078,169.013916 C111.158475,168.349036 111.282171,167.633142 111.282171,166.866211 C111.282171,166.11165 111.158475,165.406579 110.911078,164.750977 C110.663681,164.095374 110.326607,163.524823 109.899847,163.039307 C109.473087,162.55379 108.973662,162.171876 108.401556,161.893555 C107.82945,161.615233 107.218698,161.476074 106.569281,161.476074 L104.379828,161.476074 Z M115.206488,159.871094 L119.696722,159.871094 L119.696722,161.476074 L118.360785,161.476074 L118.360785,172.339844 L119.696722,172.339844 L119.696722,173.935547 L115.206488,173.935547 L115.206488,172.339844 L116.542425,172.339844 L116.542425,161.476074 L115.206488,161.476074 L115.206488,159.871094 Z M122.350042,159.871094 L127.582464,159.871094 C128.225697,159.871094 128.837995,159.954589 129.419378,160.121582 C130.000761,160.288575 130.541934,160.523599 131.042914,160.82666 C131.543893,161.129722 131.998478,161.493081 132.406683,161.916748 C132.814888,162.340416 133.162785,162.812009 133.450384,163.331543 C133.737983,163.851077 133.959091,164.409258 134.113714,165.006104 C134.268337,165.602949 134.345648,166.222979 134.345648,166.866211 C134.345648,167.521813 134.268337,168.149574 134.113714,168.749512 C133.959091,169.34945 133.737983,169.91227 133.450384,170.437988 C133.162785,170.963707 132.814888,171.441485 132.406683,171.871338 C131.998478,172.30119 131.543893,172.669188 131.042914,172.975342 C130.541934,173.281496 130.000761,173.518066 129.419378,173.685059 C128.837995,173.852052 128.225697,173.935547 127.582464,173.935547 L122.350042,173.935547 L122.350042,172.339844 L123.68598,172.339844 L123.68598,161.476074 L122.350042,161.476074 L122.350042,159.871094 Z M125.504339,161.476074 L125.504339,172.339844 L127.693792,172.339844 C128.34321,172.339844 128.953962,172.197593 129.526068,171.913086 C130.098174,171.628579 130.597599,171.240481 131.024359,170.748779 C131.451119,170.257078 131.788192,169.678796 132.035589,169.013916 C132.282986,168.349036 132.406683,167.633142 132.406683,166.866211 C132.406683,166.11165 132.282986,165.406579 132.035589,164.750977 C131.788192,164.095374 131.451119,163.524823 131.024359,163.039307 C130.597599,162.55379 130.098174,162.171876 129.526068,161.893555 C128.953962,161.615233 128.34321,161.476074 127.693792,161.476074 L125.504339,161.476074 Z M144.652777,172.339844 L145.821722,172.339844 L144.708441,169.148438 L139.299749,169.148438 L138.2143,172.339844 L139.661566,172.339844 L139.661566,173.935547 L135.097113,173.935547 L135.097113,172.339844 L136.321722,172.339844 L140.700628,159.871094 L143.437445,159.871094 L147.807074,172.339844 L149.21723,172.339844 L149.21723,173.935547 L144.652777,173.935547 L144.652777,172.339844 Z M139.828558,167.608398 L144.170355,167.608398 L141.980902,161.318359 L139.828558,167.608398 Z M153.51264,172.339844 L154.802191,172.339844 L154.802191,161.392578 L151.59223,161.392578 L151.59223,163.582031 L149.690374,163.582031 L149.690374,159.871094 L162.233343,159.871094 L162.233343,163.582031 L160.331488,163.582031 L160.331488,161.392578 L156.62055,161.392578 L156.62055,172.339844 L158.067816,172.339844 L158.067816,173.935547 L153.51264,173.935547 L153.51264,172.339844 Z M170.026312,174.213867 C169.055278,174.213867 168.167755,174.032961 167.363714,173.671143 C166.559674,173.309324 165.842233,172.794437 165.211371,172.126465 C164.580508,171.458493 164.101183,170.666834 163.773382,169.751465 C163.445581,168.836096 163.281683,167.886724 163.281683,166.90332 C163.281683,165.888992 163.447127,164.936528 163.778021,164.045898 C164.108915,163.155269 164.572777,162.380619 165.169623,161.721924 C165.766468,161.063229 166.477724,160.543703 167.303412,160.16333 C168.129099,159.782957 169.036724,159.592773 170.026312,159.592773 C171.022085,159.592773 171.934348,159.782957 172.763128,160.16333 C173.591909,160.543703 174.303164,161.063229 174.896917,161.721924 C175.49067,162.380619 175.951441,163.155269 176.279242,164.045898 C176.607043,164.936528 176.770941,165.888992 176.770941,166.90332 C176.770941,167.917648 176.605497,168.868567 176.274603,169.756104 C175.943709,170.643641 175.479847,171.418291 174.883001,172.080078 C174.286156,172.741865 173.5749,173.262938 172.749212,173.643311 C171.923525,174.023684 171.0159,174.213867 170.026312,174.213867 Z M170.026312,172.488281 C170.762318,172.488281 171.428734,172.336753 172.02558,172.033691 C172.622425,171.73063 173.131128,171.323977 173.551703,170.813721 C173.972278,170.303464 174.296981,169.711266 174.525824,169.037109 C174.754666,168.362952 174.869085,167.651696 174.869085,166.90332 C174.869085,166.136389 174.743843,165.395756 174.493353,164.681396 C174.242863,163.967037 173.89342,163.36247 173.445013,162.867676 C172.996606,162.372882 172.475534,161.990968 171.881781,161.721924 C171.288028,161.45288 170.669544,161.318359 170.026312,161.318359 C169.290306,161.318359 168.622344,161.469888 168.022406,161.772949 C167.422468,162.076011 166.912219,162.482663 166.491644,162.99292 C166.071069,163.503176 165.746365,164.09692 165.517523,164.77417 C165.288681,165.451419 165.174261,166.161129 165.174261,166.90332 C165.174261,167.76921 165.30105,168.540768 165.554632,169.218018 C165.808214,169.895267 166.143742,170.458087 166.561224,170.906494 C166.978707,171.354901 167.476586,171.73063 168.054876,172.033691 C168.633167,172.336753 169.290306,172.488281 170.026312,172.488281 Z M185.667914,162.46875 C185.469996,162.196613 185.25198,161.987875 185.013861,161.842529 C184.775741,161.697184 184.514432,161.585857 184.229925,161.508545 C183.945419,161.431233 183.660916,161.392578 183.37641,161.392578 C182.906355,161.392578 182.495064,161.446695 182.142523,161.554932 C181.789982,161.663168 181.497749,161.810058 181.265814,161.995605 C181.033879,162.181153 180.859158,162.397622 180.741644,162.64502 C180.62413,162.892417 180.565374,163.15218 180.565374,163.424316 C180.565374,163.832522 180.638046,164.161864 180.783392,164.412354 C180.928738,164.662843 181.112737,164.86385 181.335394,165.015381 C181.558051,165.166912 181.803899,165.28597 182.072943,165.372559 C182.341987,165.459148 182.600204,165.545735 182.847601,165.632324 L184.721624,166.244629 C185.284453,166.423992 185.780786,166.628091 186.210638,166.856934 C186.640491,167.085776 187.000757,167.356362 187.291449,167.668701 C187.58214,167.98104 187.803248,168.341307 187.954779,168.749512 C188.106309,169.157717 188.182074,169.630857 188.182074,170.168945 C188.182074,170.750328 188.063016,171.288409 187.824896,171.783203 C187.586776,172.277997 187.254341,172.707843 186.827582,173.072754 C186.400822,173.437665 185.892119,173.723713 185.301458,173.930908 C184.710798,174.138103 184.062937,174.241699 183.357855,174.241699 C182.634219,174.241699 182.015735,174.15975 181.502386,173.99585 C180.989037,173.831949 180.557645,173.612387 180.208197,173.337158 C179.858748,173.061929 179.578885,172.748049 179.368597,172.395508 C179.15831,172.042967 178.994412,171.681154 178.876898,171.310059 L178.17182,171.310059 L178.17182,169.714355 L180.50971,169.714355 C180.50971,170.400882 180.582382,170.886392 180.727728,171.170898 C180.873074,171.455405 181.075627,171.691975 181.335394,171.880615 C181.595161,172.069256 181.904403,172.211507 182.263128,172.307373 C182.621854,172.403239 183.017684,172.451172 183.450628,172.451172 C183.871203,172.451172 184.250024,172.401693 184.587103,172.302734 C184.924181,172.203776 185.211776,172.059978 185.449896,171.871338 C185.688016,171.682698 185.870468,171.453859 185.997259,171.184814 C186.12405,170.91577 186.187445,170.611167 186.187445,170.270996 C186.187445,169.893716 186.108588,169.57365 185.950873,169.310791 C185.793157,169.047932 185.590604,168.823731 185.343207,168.638184 C185.095809,168.452636 184.825223,168.301107 184.531439,168.183594 C184.237655,168.06608 183.954699,167.96403 183.682562,167.877441 L181.650824,167.302246 C181.205509,167.166178 180.798856,166.993002 180.430853,166.782715 C180.06285,166.572427 179.747423,166.315757 179.484564,166.012695 C179.221705,165.709634 179.019151,165.355552 178.876898,164.950439 C178.734645,164.545327 178.663519,164.076826 178.663519,163.544922 C178.663519,163.006833 178.768661,162.502769 178.978949,162.032715 C179.189236,161.56266 179.498478,161.151369 179.906683,160.798828 C180.314888,160.446287 180.814314,160.169516 181.404974,159.968506 C181.995635,159.767496 182.671328,159.666992 183.432074,159.666992 C183.933053,159.666992 184.395369,159.725748 184.819037,159.843262 C185.242704,159.960775 185.626164,160.12622 185.969427,160.3396 C186.312691,160.55298 186.615748,160.80965 186.878607,161.109619 C187.141466,161.409588 187.362574,161.73893 187.541937,162.097656 L188.237738,162.097656 L188.237738,163.693359 L185.964789,163.693359 C185.964789,163.149086 185.865831,162.740887 185.667914,162.46875 Z" id="PERFILES-DE-LOS-CAND" fill="#FFFFFF"></path>
                <g id="Group-64" transform="translate(20.000000, 34.614269)">
                    <g id="Group-5" transform="translate(0.051118, 0.000000)">
                        <path d="M57.3196332,6.4170882 C37.9363888,-4.78456013 9.78724913,4.8866468 2.06323672,26.9717468 C-2.84206026,40.9935185 1.40994803,57.3792379 12.3849164,67.5910976 C16.0427699,70.9927042 20.4482448,73.7100472 25.5070083,75.426338 C40.0483134,80.3541622 55.1415349,75.3587564 64.8944029,65.2440453 C69.0168799,60.9695098 72.1918066,55.7854388 73.9545597,50.0395958 C79.0006516,33.6045982 71.8905053,14.8380357 57.3196332,6.4170882" id="Fill-1" fill="#FF645B" style="mix-blend-mode: multiply;"></path>
                        <path d="M144.563775,13.5698273 C125.181939,2.36817893 97.0313914,12.0393859 89.307379,34.1244859 C84.7245025,47.2254584 88.1444125,62.3848536 97.5650044,72.6488074 C101.587517,77.030347 106.695559,80.5262863 112.751151,82.5790771 C126.312523,87.1732171 140.359637,83.1450729 150.10265,74.3791776 C155.221955,69.770958 159.154359,63.8547531 161.198702,57.1923348 C166.244794,40.7573372 159.136056,21.9907748 144.563775,13.5698273" id="Fill-4" fill="#FF645B" style="mix-blend-mode: multiply;"></path>
                        <path d="M55.4780721,4.88251034 C36.7180099,-5.95899867 9.47388099,3.4012735 1.99819994,24.7763251 C-2.74938898,38.3472889 1.36591485,54.2061981 11.9880318,64.0897407 C13.119059,62.2855479 14.419059,60.7293635 15.9220988,59.5015858 C17.569583,58.1579799 24.7332095,56.2583993 27.378178,55.5893218 L26.9189537,54.6231792 L29.4099389,53.9336615 C29.9740898,52.3815651 30.6799598,50.6877496 30.7235657,50.2285253 C30.7235657,50.2285253 30.6636076,50.1590285 30.5709451,50.0472884 C28.169897,48.3180432 26.3915952,45.5218169 25.7429579,41.6381693 C25.449981,39.8993853 25.3491424,39.0763245 25.3491424,39.0763245 C25.372308,39.0735991 25.3886602,39.0763245 25.4131885,39.0735991 C25.2401277,38.3568277 25.0888699,37.6087145 24.9621403,36.8306223 L24.9675911,36.9164713 C22.269478,34.7906853 22.3580524,30.3169957 22.2504004,29.8523207 C22.2340482,29.769197 21.619478,24.9207695 22.0555367,22.7050463 C22.084153,22.5551512 22.1154947,22.4066187 22.1441111,22.2635369 C22.1563752,22.2526354 22.1795409,22.1395327 22.1795409,22.1027403 C22.3703165,21.3110212 22.6155995,20.5370171 22.9181153,19.7916292 C23.4481991,19.0298892 29.6020773,15.6163674 30.1744043,15.7240193 C30.6431674,15.1394282 35.3198967,14.008401 35.9153894,13.8530551 C37.1840476,13.526011 41.8294353,14.3299942 42.6579468,14.7401619 C43.2834184,15.2525309 43.8666469,15.807143 44.4158083,16.4148998 C44.4335232,16.4503296 44.718324,16.7664721 44.8150746,16.8850256 C46.2676951,18.6183589 48.0609864,23.1629079 48.0773386,23.2473943 C48.9957872,26.8326143 49.7643406,26.5519015 48.4234602,29.7092389 L48.4084707,29.6683584 C48.5719927,30.7230754 48.6878207,31.830937 48.7232505,33.0028447 C48.7232505,33.0028447 48.8581562,34.469092 48.596521,36.780203 C48.6346761,37.0200353 48.6919088,37.3852344 48.7750325,37.9384839 C49.3105671,41.4201399 47.3169613,47.2960307 43.4196868,50.2544163 C43.2629782,50.4765337 43.1239845,50.6986511 42.9577371,50.9194058 C42.9577371,50.9194058 44.1282821,52.5859676 45.0753471,54.1516908 L45.7485127,53.9990703 L46.7923282,54.6190912 C50.2671708,55.5102861 57.8191621,57.7968688 62.8093087,61.8181475 C66.7992456,57.6810408 69.8720966,52.6636405 71.5781762,47.1025296 C76.4620335,31.1959265 69.5804824,13.0327197 55.4780721,4.88251034" id="Fill-1" fill="#FFFFFF"></path>
                        <path d="M45.7490578,53.998934 L45.0758922,54.1515545 C44.1288272,52.5858313 42.9569195,50.9192695 42.9569195,50.9192695 C43.1231669,50.6985148 43.2635233,50.4763974 43.4202319,50.25428 C47.3161437,47.2972571 49.3097494,41.4213663 48.7755776,37.9383476 C48.6910912,37.3850982 48.6338585,37.0212617 48.597066,36.7800667 C48.8573386,34.4689557 48.7237956,33.0027084 48.7237956,33.0027084 C48.6870031,31.8308007 48.5711751,30.7229391 48.407653,29.6695848 L48.4240052,29.7091027 C49.763523,26.5517653 48.9963323,26.832478 48.0778837,23.247258 C48.0601688,23.1627717 46.2682401,18.6182226 44.814257,16.8848893 C44.7188691,16.7663359 44.4327056,16.4501933 44.4149907,16.4147636 C43.867192,15.8070068 43.2826008,15.2523946 42.6571292,14.7400257 C41.8299803,14.329858 37.1845927,13.5258748 35.9145718,13.8542815 C35.3204418,14.0082647 30.6437124,15.1392919 30.1735867,15.7238831 C29.6012597,15.6162311 23.4487442,19.029753 22.9186603,19.791493 C22.6147819,20.5368808 22.3708616,21.310885 22.1800859,22.102604 C22.1800859,22.1393965 22.1569203,22.2524992 22.1446562,22.2634006 C22.1146771,22.4064824 22.0846981,22.5550149 22.0547191,22.7049101 C21.6200231,24.9206332 22.2332306,29.7690607 22.2509455,29.8521844 C22.3585975,30.3168594 22.270023,34.790549 24.9681361,36.9163351 L24.9626854,36.830486 C25.089415,37.6085782 25.2393101,38.3566914 25.4123709,39.0734629 C25.3892053,39.0761882 25.3728531,39.0734629 25.3483248,39.0761882 C25.3483248,39.0761882 25.4505261,39.899249 25.7421403,41.638033 C26.3921403,45.5216807 28.1704421,48.317907 30.5701275,50.0471522 C30.6641527,50.1588922 30.7241108,50.2283891 30.7241108,50.2283891 C30.6791422,50.6876134 29.9746349,52.3814288 29.410484,53.9335252 L26.9194987,54.623043 L27.3787231,55.5891855 C24.7337546,56.258263 17.5687654,58.1578437 15.9212812,59.5014495 C14.4196041,60.7292272 13.1196041,62.2867743 11.9885769,64.0896045 C15.5274657,67.3818475 19.791302,70.0118264 24.688786,71.6715748 C38.76258,76.4423293 53.3705459,71.606166 62.8098537,61.8180112 C57.8183445,57.7967326 50.2663532,55.5101499 46.7928732,54.6189549 L45.7490578,53.998934 Z" id="Fill-3" fill="#FF9B96"></path>
                        <path d="M158.205522,54.5269557 C163.089379,38.6203526 156.207828,20.4571457 142.105417,12.3069364 C123.346718,1.46679007 96.1012263,10.8256996 88.6241826,32.2007511 C84.1900108,44.88052 87.4986061,59.552532 96.6176833,69.4878566 C103.067264,64.6476052 111.931519,63.2358652 111.931519,63.2358652 L111.934245,63.2385906 L111.934245,63.2372279 L116.365691,58.8480247 L116.365691,58.8480247 L116.368416,58.8452994 C109.493679,49.6553626 110.399863,40.31008 110.399863,40.31008 C110.435293,39.1013798 110.555209,37.9553631 110.725544,36.8679417 L110.710555,36.9047342 C109.321981,33.6342941 110.120513,33.9204576 111.066215,30.2153214 C111.085293,30.126747 112.94263,25.426852 114.444307,23.6335607 C114.539695,23.5150072 114.838123,23.1811498 114.855838,23.14572 C115.421351,22.5202484 116.029108,21.9424706 116.672295,21.4123868 C117.529423,20.9885922 122.33697,20.1614434 123.647871,20.4939382 C124.266529,20.6560975 129.108143,21.8225545 129.591896,22.4303113 C130.181938,22.3172085 136.547032,25.8547346 137.103007,26.6355522 C137.412336,27.410919 137.66852,28.2135395 137.864747,29.0297869 C137.864747,29.0720301 137.889275,29.1851328 137.900176,29.197397 C137.936969,29.3459294 137.961497,29.5012753 137.990114,29.6552586 C138.442524,31.9486547 137.811602,36.9633296 137.793887,37.0532667 C137.673971,37.5302058 137.769359,42.1578786 134.982671,44.3627003 L134.988122,44.256411 C133.561393,53.0157398 129.02502,58.1312533 129.02502,58.1312533 C129.02502,58.1326159 129.026382,58.1339786 129.026382,58.1353413 L129.029108,58.1326159 L131.464223,63.4280036 L131.464223,63.4307289 L131.466948,63.4252782 C131.466948,63.4252782 142.243048,66.0102886 144.333405,67.7272697 C145.491686,68.6729719 146.528688,69.8326155 147.464851,71.1612318 C152.420931,66.7011691 156.226905,60.9751735 158.205522,54.5269557" id="Fill-5" fill="#FFFFFF"></path>
                        <mask id="mask-2" fill="white">
                            <use xlink:href="#path-1"></use>
                        </mask>
                        <g id="Clip-8"></g>
                        <path d="M144.333814,67.7267246 C142.243457,66.0111062 131.467357,63.4260958 131.467357,63.4260958 L131.464632,63.4301839 L131.464632,63.4288212 L129.029516,58.1334336 L129.026791,58.1347962 C129.026791,58.1334336 129.025428,58.1320709 129.025428,58.1307082 C129.025428,58.1307082 133.561801,53.0151948 134.988531,44.255866 L134.98308,44.3621553 C137.769768,42.1573336 137.673017,37.5296608 137.792933,37.0540843 C137.812011,36.9641472 138.442933,31.9494723 137.990522,29.6560762 C137.960543,29.5007303 137.937378,29.3453844 137.899223,29.1968519 C137.889684,29.1845877 137.865155,29.071485 137.865155,29.0306045 C137.667566,28.2143572 137.412745,27.410374 137.102053,26.6363698 C136.547441,25.8555522 130.180984,22.3180262 129.592305,22.4311289 C129.108552,21.8233721 124.265575,20.6555524 123.646917,20.4947558 C122.336016,20.1608984 117.529831,20.9894099 116.671341,21.4118417 C116.029517,21.9419255 115.420397,22.5197033 114.854884,23.145175 C114.837169,23.1819674 114.540104,23.5144622 114.443353,23.6343783 C112.943039,25.426307 111.085702,30.1262019 111.066624,30.2161391 C110.120922,33.9199125 109.322389,33.633749 110.709601,36.9041891 L110.725953,36.8673967 C110.555618,37.9561807 110.435702,39.1008347 110.400272,40.3095349 C110.400272,40.3095349 109.494087,49.6548175 116.368825,58.846117 L116.3661,58.8488423 L116.3661,58.8474796 L111.934653,63.2380455 L111.934653,63.2380455 L111.931928,63.2353201 C111.931928,63.2353201 103.067673,64.6484228 96.6167294,69.4873115 C100.509916,73.7266195 105.453731,77.1101624 111.315995,79.0969547 C124.439999,83.5447533 138.035491,79.6461161 147.46526,71.1620494 C146.527734,69.8320704 145.492094,68.6724269 144.333814,67.7267246" id="Fill-7" fill="#FF6D65" mask="url(#mask-2)"></path>
                    </g>
                </g>
            </g>
        </g>
    </g>
</svg>