<?xml version="1.0" encoding="UTF-8" standalone="no"?>
<svg width="558px" height="371px" viewBox="0 0 558 371" version="1.1" xmlns="http://www.w3.org/2000/svg" xmlns:xlink="http://www.w3.org/1999/xlink">
    <!-- Generator: Sketch 39.1 (31720) - http://www.bohemiancoding.com/sketch -->
    <title>hero</title>
    <desc>Created with Sketch.</desc>
    <defs>
        <polygon id="path-1" points="89.9867559 128.699241 89.9867559 0.16358042 0.000120401338 0.16358042 0.000120401338 128.699241"></polygon>
        <polygon id="path-3" points="150.480668 87.5669725 -5.68434189e-14 87.5669725 -5.68434189e-14 0.165053211 150.480668 0.165053211"></polygon>
        <polygon id="path-5" points="0.151700477 25.0217563 42.4477322 0.103144547 125.123805 15.2838073 21.8247315 58.7527949"></polygon>
    </defs>
    <g id="Page-1" stroke="none" stroke-width="1" fill="none" fill-rule="evenodd">
        <g id="hero">
            <g id="Group-13-Copy" transform="translate(149.500000, 284.790600) rotate(-10.000000) translate(-149.500000, -284.790600) translate(0.000000, 207.790600)">
                <g id="Group-16" transform="translate(0.000000, -0.000000)">
                    <g id="Group-11" transform="translate(-0.000000, -0.000000)">
                        <g id="Page-1" transform="translate(209.000000, -0.000000)">
                            <g id="Group-10" transform="translate(0.000000, 0.137119)">
                                <g id="Group-3">
                                    <mask id="mask-2" fill="white">
                                        <use xlink:href="#path-1"></use>
                                    </mask>
                                    <g id="Clip-2"></g>
                                    <path d="M89.9868763,126.243129 C60.6468763,127.061933 31.3068763,127.880436 1.96687625,128.699241 C2.15831438,103.149122 1.99456856,77.6050168 1.47533779,52.0666252 C1.13550502,35.3606741 0.643665552,18.6586322 0.000120401338,1.9608 C38.4301204,3.17742937 42.1887492,-0.99747972 62.4498863,0.487072727 C72.6210903,1.23220559 81.5798528,4.33361818 89.4950368,6.87302378 C86.5274448,34.1566741 85.2460736,64.4704713 87.0364415,97.2602266 C87.534301,106.379234 88.2455719,115.243849 89.1329298,123.842646 L89.9868763,126.243129 Z" id="Fill-1" fill="#CAD5DD" mask="url(#mask-2)"></path>
                                </g>
                                <path d="M27.1297023,58.6149839 L26.9536154,60.0448091 C26.9536154,60.0448091 62.8097358,61.001935 66.9455217,58.4243406 C67.2037826,58.2646692 67.3741505,58.127851 67.4611405,58.010879 C68.7337826,56.2559979 50.9201037,59.241942 27.1297023,58.6149839" id="Fill-4" fill="#5F1A1C"></path>
                                <path d="M26.2274448,65.9366811 L26.0513579,67.3665063 C26.0513579,67.3665063 61.9074783,68.3239329 66.0432642,65.7460378 C66.3015251,65.5863664 66.471893,65.449849 66.5588829,65.3328769 C67.8315251,63.5776951 50.0178462,66.5636392 26.2274448,65.9366811" id="Fill-6" fill="#5F1A1C"></path>
                                <path d="M24.61199,72.0257217 L24.435903,73.4555469 C24.435903,73.4555469 60.2920234,74.4126727 64.4278094,71.8350783 C64.6863712,71.675407 64.8564381,71.5385888 64.9434281,71.4219175 C66.2163712,69.6670364 48.4026923,72.6526797 24.61199,72.0257217" id="Fill-8" fill="#5F1A1C"></path>
                            </g>
                            <polygon id="Fill-11" fill="#233346" points="21.1529197 20.1834783 20.5313478 49.6426881 76.5152609 49.6426881 75.3774682 21.5495552"></polygon>
                        </g>
                        <g id="Page-1" transform="translate(118.500000, 100.000000) scale(-1, -1) translate(-118.500000, -100.000000) translate(0.000000, 46.000000)">
                            <g id="Group-3" transform="translate(-0.000000, 19.185974)">
                                <mask id="mask-4" fill="white">
                                    <use xlink:href="#path-3"></use>
                                </mask>
                                <g id="Clip-2"></g>
                                <path d="M150.480668,29.6615817 C122.81957,38.1122459 94.1196897,51.4567303 90.4180191,54.6624037 C84.2900358,59.9696844 83.6101432,61.6048697 74.4138425,70.8851633 C61.3556683,84.0629394 64.0615155,79.4188807 61.2238067,83.0997028 C59.996778,84.691255 58.2551313,87.1626899 55.4544153,87.5255963 C53.4392005,87.7867927 52.222315,86.7814275 48.5373508,85.4035266 C47.7321599,85.1026092 45.4970764,84.5031817 41.026611,83.3049284 C26.7763126,79.4853835 30.8180788,81.1238789 26.7763126,79.4853835 C25.8914678,79.126389 26.3395585,63.9083927 26.3395585,63.9083927 C30.9320406,64.0793138 44.8995227,64.3675927 46.6662291,63.0643193 C47.5200477,62.4341982 48.3926611,58.2379046 47.6853222,56.0655817 C46.5236277,52.4970018 45.0958234,48.1117321 41.6736874,46.7142716 C40.0197494,46.0387119 38.9075776,46.4726349 31.3604415,48.9233064 C24.9639618,51.0005394 21.7342482,52.0453248 20.2041169,52.3652 C16.2718377,53.1861028 11.6277446,54.0972807 6.53377088,52.3101321 C4.70829356,51.6700807 0.74826969,50.280745 0.0925417661,47.171967 C-0.344809069,45.0995486 0.896837709,43.2591376 1.1152148,42.9353505 C2.81479714,40.4154679 5.71038186,40.0212661 9.57822196,39.0014569 C13.1826372,38.0514606 16.6074582,36.5095596 20.1292363,35.2842239 C22.2852625,34.5343376 28.8792363,32.1607009 35.9036993,28.3616183 C44.1456444,23.9044294 44.597315,22.017978 50.4442721,20.2895083 C55.5269093,18.7870275 59.6474344,18.8935523 61.0895585,18.9663743 C67.3428401,19.2823376 68.6116348,21.606022 73.7020286,22.3601211 C75.5606205,22.6354606 84.0281026,18.7445982 96.59642,13.9627193 C104.174582,11.0793284 115.086575,4.59606239 120.787351,0.165053211" id="Fill-1" fill="#F2BEAE" mask="url(#mask-4)"></path>
                            </g>
                            <path d="M136.596748,58.9980727 L111.139409,22.9436506 C111.139409,22.9436506 97.1232995,29.4251112 92.4440036,31.5700506 C89.3801611,32.9741314 88.9696599,38.5534415 89.46071,40.9710121 C91.3437649,50.2437828 110.144779,72.564935 110.144779,72.564935 L136.596748,58.9980727 Z" id="Fill-4" fill="#F1E0D1"></path>
                            <path d="M96.5567124,77.5440954 L94.7783711,76.7394422 C91.8821897,75.4289468 82.1026551,70.249556 77.8586217,58.6187963 C74.584457,49.6448367 76.2559964,41.6410349 77.5441826,37.6689248 L80.0960919,38.5108917 C78.9164976,42.1489835 77.384278,49.4778275 80.3783115,57.683244 C83.6157816,66.5551927 90.3863663,71.3286459 94.085352,73.3661578 C94.0856504,73.3556257 94.086247,73.3453945 94.0868437,73.3348624 C94.1199582,72.5759486 94.1530728,71.8173358 94.1861874,71.2302459 L96.8669749,71.3846165 C96.834457,71.9620771 96.8016408,72.7077505 96.7691229,73.4543266 C96.7354117,74.2210642 96.7017005,74.9884037 96.6679893,75.581211 L96.5567124,77.5440954 Z" id="Fill-6" fill="#FFC809"></path>
                            <path d="M98.161963,35.5320499 C98.0906623,35.5248279 96.6067721,35.3942297 95.4769988,36.4348022 C94.2914379,37.5265306 93.7311754,39.6904279 94.8803401,41.2494811 C96.0835024,42.8816572 98.6014021,43.0922994 100.101104,41.7008572 C101.791438,40.1327765 101.227894,37.4218114 99.9519391,36.2843435 C99.2997912,35.702971 98.5002685,35.5672572 98.161963,35.5320499" id="Fill-8" fill="#8AC1F9"></path>
                            <polygon id="Fill-10" fill="#F1E0D1" points="111.1517 25.0217563 153.447732 0.103144547 236.123805 15.2838073 132.824732 58.7527949"></polygon>
                            <g id="Fill-13-+-Fill-15-+-Fill-17-Mask" transform="translate(111.000000, -0.000000)">
                                <mask id="mask-6" fill="white">
                                    <use xlink:href="#path-5"></use>
                                </mask>
                                <use id="Mask" fill="#F1E0D1" xlink:href="#path-5"></use>
                                <polygon id="Fill-13" fill="#8AC1F9" mask="url(#mask-6)" points="5.33353222 33.1141182 4.7449284 32.0672264 138.336814 -44.3242745 138.925418 -43.2770818"></polygon>
                                <polygon id="Fill-15" fill="#8AC1F9" mask="url(#mask-6)" points="11.7587112 43.1509182 11.1877088 42.0940961 138.345525 -27.8379112 138.916527 -26.7810892"></polygon>
                                <polygon id="Fill-17" fill="#8AC1F9" mask="url(#mask-6)" points="19.4264021 55.1271611 18.8744928 54.059807 138.355101 -8.78499303 138.907011 -7.7176389"></polygon>
                            </g>
                        </g>
                    </g>
                    <text id="Vota-X-5" transform="translate(254.773005, 112.326352) rotate(-2.000000) translate(-254.773005, -112.326352) " font-family="Arvo" font-size="13" font-weight="normal" fill="#5F1A1C">
                        <tspan x="228.062067" y="116.826352">Vota X-5</tspan>
                    </text>
                </g>
            </g>
            <g id="Group-15-Copy" transform="translate(479.181461, 205.767040) rotate(-20.000000) translate(-479.181461, -205.767040) translate(254.181461, -7.232960)">
                <g id="Page-1" transform="translate(-0.000000, -0.000000)">
                    <g id="Group-41" transform="translate(-0.000000, 0.124500)">
                        <path d="M246.633842,234.28857 C192.976244,235.78857 139.318645,237.28887 85.6610473,238.78887 C86.0111354,191.97327 85.7117021,145.16877 84.7618483,98.37507 C84.1405019,67.76457 83.2413029,37.16157 82.0639518,6.56577 C110.643191,0.87717 150.310753,-3.23163 196.273606,3.86547 C214.706884,6.71187 231.259039,10.91367 245.734643,15.56667 C240.307078,65.55867 237.963766,121.10217 241.238049,181.18317 C242.148637,197.89197 243.449179,214.13427 245.072233,229.88997 L246.633842,234.28857 Z" id="Fill-5" fill="#5F1A1C"></path>
                        <path d="M234.34479,231.28857 C180.687191,232.78857 127.029593,234.28887 73.3719952,235.78887 C73.7220833,188.97327 73.4226501,142.16877 72.4727963,95.37507 C71.8514498,64.76457 70.9522509,34.16157 69.7748997,3.56577 C140.056588,5.79507 146.930964,-1.85463 183.984554,0.86547 C202.585983,2.23107 218.969987,7.91367 233.445591,12.56667 C228.018026,62.55867 225.674713,118.10217 228.948997,178.18317 C229.859585,194.89197 231.160127,211.13427 232.783181,226.88997 L234.34479,231.28857 Z" id="Fill-7" fill="#CAD5DD"></path>
                        <path d="M117.595228,131.4 C134.476489,131.9646 151.596338,132.3693 168.949378,132.6 C176.520633,132.7005 184.047528,132.7668 191.529462,132.8001" id="Fill-9" fill="#F1E0D1"></path>
                        <path d="M120.525298,138.32751 L120.238453,140.66001 C120.238453,140.66001 178.614148,142.22121 185.34735,138.01671 C185.767875,137.75601 186.045128,137.53311 186.186602,137.34201 C188.258956,134.48001 159.257093,139.35021 120.525298,138.32751" id="Fill-30" fill="#5F1A1C"></path>
                        <path d="M119.056396,150.27027 L118.769552,152.60277 C118.769552,152.60277 177.145247,154.16427 183.878448,149.95947 C184.298974,149.69877 184.576227,149.47617 184.717701,149.28537 C186.790055,146.42277 157.788191,151.29297 119.056396,150.27027" id="Fill-32" fill="#5F1A1C"></path>
                        <path d="M116.426389,160.2024 L116.139545,162.5349 C116.139545,162.5349 174.51524,164.0961 181.248441,159.8916 C181.669267,159.6309 181.94622,159.408 182.087694,159.2175 C184.160347,156.3549 155.158484,161.2251 116.426389,160.2024" id="Fill-34" fill="#5F1A1C"></path>
                    </g>
                    <g id="Group-59" transform="translate(198.123498, 58.024500)">
                        <path d="M224.882759,150.87009 C224.882759,150.87009 145.482594,131.06559 123.382982,129.31689 C117.319084,128.83719 106.26733,135.65499 100.604774,137.87859 C96.0833024,139.65399 86.6264272,142.26909 81.7914346,142.73169 C73.6392971,143.51199 49.0417103,142.03479 49.0417103,142.03479 C49.0417103,142.03479 45.7110774,141.67989 44.6188505,139.00269 C43.521528,136.31199 47.3383278,134.28729 48.9661776,133.86009 C54.9965053,132.27789 69.8860407,132.53829 73.8023518,131.61849 C74.5390955,131.44539 74.9119633,128.79699 74.178217,128.61189 C69.7820334,127.50219 29.9409266,118.87929 29.9409266,118.87929 L15.2081515,116.07069 C15.2081515,116.07069 8.12845861,114.93549 8.82833511,110.61579 C9.52131776,106.33869 19.056723,108.21699 19.056723,108.21699 C19.056723,108.21699 32.010283,110.54379 36.3198438,111.36339 C46.8566569,113.36709 50.706727,113.32179 53.9947977,112.78629 C54.7980821,112.65549 56.2949486,110.42739 53.8425334,109.53189 C51.7815694,108.77949 47.619777,108.31839 45.5291395,108.01539 C38.9748785,107.06499 10.4441956,101.67639 10.4441956,101.67639 C10.4441956,101.67639 6.23084913,100.23399 7.11386248,96.42099 C7.79905207,93.46239 12.6852991,93.86469 12.6852991,93.86469 C12.6852991,93.86469 51.8268291,100.19949 54.1575527,100.20969 C54.8160661,100.21269 55.2896442,98.26299 54.9533438,97.69629 C53.6740834,95.54139 23.2263084,92.36859 14.0802563,89.10819 C13.0986308,88.75809 11.9446589,87.67899 12.4200354,85.48359 C13.1172143,82.26519 16.75897,82.88529 16.75897,82.88529 C16.75897,82.88529 56.4412183,89.44419 58.1032377,88.95159 C58.5216649,88.82769 59.4871048,87.49989 59.2044566,87.16749 C56.2919513,83.74179 41.2558465,80.63169 34.991727,78.97329 C32.9241689,78.42609 28.5531629,77.25789 27.6560621,75.59799 C27.0931636,74.55669 27.8856575,72.18309 28.9320254,71.63139 C31.7579079,70.14189 38.7527764,72.70329 41.8250394,73.57749 C46.0803485,74.78859 54.6476162,76.15689 58.9173124,77.03859 C61.7932503,77.63229 92.0485968,82.83549 98.9595401,85.11939 C103.518179,86.62569 111.614566,92.19699 116.227756,93.52719 C126.076083,96.36699 147.3847,97.62099 157.623278,98.08539 C168.358215,98.57229 189.370096,99.42309 199.919198,100.34079 C205.639602,100.83819 222.728278,103.03449 222.728278,103.03449" id="Fill-42" fill="#F2BEAE"></path>
                        <path d="M195.297376,93.879 C179.439703,87.9624 166.991493,83.121 158.879819,79.9269 C142.519794,73.485 131.889464,69.0552 118.801623,66.2976 C112.842632,65.0418 111.428792,65.1981 105.722775,63.6429 C96.4142676,61.1055 92.6756981,58.6452 86.7032188,59.9427 C83.6384491,60.6087 84.4003704,61.3047 79.437092,62.9556 C73.607885,64.8939 68.8640112,65.1621 63.6387662,65.4573 C59.3471895,65.6997 55.9931774,65.8893 51.4462282,65.2689 C46.510825,64.5957 26.0141848,60.0456 23.5308971,55.6185 C22.8088403,54.3315 21.5352749,52.0611 22.4629485,50.4324 C23.2380579,49.0713 25.1596461,48.8442 26.8000846,48.6726 C29.5944952,48.3804 31.2499204,48.9369 35.8244451,50.001 C37.6291374,50.4207 41.2214371,51.2295 44.6234064,51.8085 C48.3565806,52.4436 50.8428657,53.6556 51.5076734,52.713 C51.8005126,52.2981 51.6296648,51.6642 51.427345,51.1752 C47.3674618,49.5459 43.9633944,48.8127 41.6257769,48.4437 C36.0105793,47.5578 17.8143897,41.6877 16.7278577,39.6309 C16.4293236,39.066 14.6300266,35.4921 16.4910686,32.8854 C17.38757,31.6299 18.7405646,31.149 19.4440379,30.9606 C21.3949999,30.9219 24.1981027,30.9639 27.5395259,31.3632 C32.7704658,31.9887 51.1935533,38.0514 51.9272996,36.9117 C52.1925633,36.4998 51.9105146,35.8869 51.8199952,35.6901 C50.991833,33.8916 41.2861794,32.3127 31.8667709,30.8673 C25.9437475,29.9583 17.9780439,29.5788 16.2677676,28.3899 C14.0719238,26.8635 13.5692716,24.2934 13.4772535,23.7573 C13.3861347,23.2245 12.8927742,20.346 14.582369,18.7176 C15.1194905,18.1995 15.6961768,17.9832 15.9437562,17.8959 C22.4977175,15.5913 29.9907422,16.4223 29.9907422,16.4223 C38.9167903,17.4123 52.7647535,20.9223 53.7694585,19.5369 C53.9385079,19.3041 54.2691134,18.6366 54.0140406,18.189 C53.7574692,17.7387 30.503885,14.1228 27.532632,14.19 C26.031869,14.2239 24.1744238,14.5968 20.4595332,15.3426 C16.8645359,16.0641 15.0346661,16.4406 13.4424845,17.2044 C11.0101514,18.3714 10.7835533,19.1736 8.33983031,19.9692 C6.86064806,20.4507 5.09821816,20.9973 3.21949186,20.2863 C2.97880628,20.1954 0.449659413,19.2012 0.231154072,17.3163 C0.18559466,16.9221 0.18259733,15.9828 2.81874887,13.2684 C4.31351722,11.7297 5.45040441,10.5591 7.53714539,9.2496 C9.37420881,8.0964 10.8899585,7.4994 15.2726541,6.0678 C20.4145733,4.3887 22.9856828,3.549 25.4159178,2.9484 C27.2586761,2.493 31.2298383,1.5708 36.412821,0.9144 C38.5661027,0.6414 43.2809024,0.1167 49.450606,0.1353 C55.4500613,0.1536 58.676387,0.1635 62.9286988,1.32 C65.3031834,1.9659 66.4805346,2.5782 71.0136961,4.6443 C80.3752562,8.9112 81.263365,9.0405 85.3346381,10.9647 C98.8430039,17.3484 98.9377195,20.5893 107.654254,24.123 C114.980627,27.093 117.091047,25.6866 130.632983,27.4938 C148.604972,29.8923 146.636326,32.6031 163.473227,35.0754 C179.614447,37.446 185.766466,35.592 201.045655,40.059 C205.699908,41.4198 209.451966,42.8556 211.963728,43.89" id="Fill-46" fill="#F2BEAE"></path>
                        <polygon id="Fill-48" fill="#EEEBDB" points="107.844735 20.25 95.2388647 62.6799 113.671544 73.0305 128.957326 24.1743"></polygon>
                        <polygon id="Fill-50" fill="#8AC1F9" points="125.81022 26.03961 194.916955 38.48301 195.297316 93.87891 115.878268 65.72091"></polygon>
                        <g id="Group-56" transform="translate(0.000000, 12.300000)">
                            <path d="M4.29622263,0.10005 C5.32520594,0.19665 6.38775935,2.19705 5.8946986,3.90015 C5.20651168,6.27795 1.6555751,7.16295 0.860982977,6.39435 C-1.14902637,4.45005 2.59493825,-0.05985 4.29622263,0.10005" id="Fill-52" fill="#CD3A31"></path>
                            <path d="M4.29622263,0.10005 C5.32520594,0.19665 6.38775935,2.19705 5.8946986,3.90015 C5.20651168,6.27795 1.6555751,7.16295 0.860982977,6.39435 C-1.14902637,4.45005 2.59493825,-0.05985 4.29622263,0.10005 L4.29622263,0.10005 Z" id="Stroke-54" stroke="#CD3A31" stroke-width="0.5"></path>
                        </g>
                        <path d="M108.514548,53.76657 C107.062342,54.23247 105.872102,55.74627 106.024066,57.39147 C106.207803,59.37927 108.283753,60.83997 110.276678,60.51837 C112.105349,60.22317 113.550961,58.47807 113.364227,56.70387 C113.13673,54.54147 110.56622,53.10837 108.514548,53.76657" id="Fill-57" fill="#5F1A1C"></path>
                    </g>
                    <polygon id="Fill-60" fill="#FFC809" points="106.227915 58.07199 105.206125 116.52459 197.224149 116.52459 195.354415 60.81669"></polygon>
                    <polygon id="Fill-61" fill="#EEEBDB" points="117.366112 65.34663 116.596098 109.47453 185.946216 109.47453 184.537172 67.45263"></polygon>
                    <polygon id="Stroke-62" stroke="#EEEBDB" stroke-width="0.5" points="117.366112 65.34663 116.596098 109.47453 185.946216 109.47453 184.537172 67.45263"></polygon>
                    <text id="Propuesta" font-family="Arvo" font-size="10.6646404" font-weight="normal" fill="#5F1A1C">
                        <tspan x="123.937818" y="80.6438716">Propuesta</tspan>
                    </text>
                    <text id="Ciudadana" font-family="Arvo" font-size="10.6646404" font-weight="normal" fill="#5F1A1C">
                        <tspan x="121.455168" y="94.9878124">Ciudadana</tspan>
                    </text>
                </g>
                <g id="Group-26" transform="translate(223.541863, 313.078559) scale(-1, -1) rotate(100.000000) translate(-223.541863, -313.078559) translate(137.541863, 153.078559)">
                    <g id="Group-3" transform="translate(55.138776, 0.128606)" fill="#F2BEAE">
                        <path d="M23.2825777,100.295948 L37.5020785,55.939292 L44.4667718,34.2137425 L52.6028012,11.5543981 L53.5702204,9.11954181 C54.1875499,7.58353304 56.6158615,6.41768729 56.6158615,6.41768729 C57.955687,5.86915267 60.4866543,7.40264522 61.191576,8.66941911 C61.9740475,10.0754235 61.8262008,13.3157478 61.1187685,15.2951693 L59.5610785,19.7662018 L53.1174749,38.8301562 L51.7623069,45.5509634 C51.7623069,45.5509634 52.141408,45.9940966 52.3177082,45.7609274 C53.4686804,44.2394568 58.6154178,30.0301176 61.5966201,25.3317872 C66.4635646,17.6612491 73.6238061,10.9639266 73.6238061,10.9639266 C73.6238061,10.9639266 83.1738632,2.77420964 88.2051127,0.610545311 C89.387886,0.101990535 92.4293428,-0.197998072 93.345992,0.892920421 C94.2802155,2.00452778 94.9098191,5.59907905 91.7810491,7.58772673 C90.565917,8.36020438 88.8606592,9.1858021 81.0219969,16.0243122 C78.8896576,17.8843534 75.6565581,22.6120396 74.0179708,24.9208056 C70.7625548,29.5078635 65.5739741,38.1675532 63.756576,44.950427 C63.668426,45.2792123 63.6938109,45.3566557 64.0770964,45.4939292 C64.7234374,45.7254209 66.0373199,43.574058 66.4830915,43.0506855 C68.8748599,40.2420317 74.8897082,31.5264261 74.8897082,31.5264261 C74.8897082,31.5264261 80.9477946,24.7387995 86.1890981,22.1820466 C90.9430654,19.8632158 106.566552,16.5099415 106.566552,16.5099415 C106.566552,16.5099415 110.976287,15.1293788 112.203693,18.741264 C113.068736,21.2876724 110.478351,23.5198337 109.373964,24.1382631 C106.703519,25.6337329 101.442968,26.8415155 98.868762,27.7006628 C95.923824,28.683384 90.3212726,30.8839528 87.9537734,32.7372841 C85.4136005,34.7259318 79.5092188,42.5015918 79.5092188,42.5015918 L74.2227245,50.7027714 L74.6233052,51.3827083 C74.6233052,51.3827083 83.0117897,42.7137925 96.0833868,40.0155725 C100.240667,39.157264 109.063486,43.270994 111.755411,46.5599651 C117.304403,53.3403227 115.341111,65.9406829 115.341111,65.9406829 C115.341111,65.9406829 114.325432,69.1088757 111.156214,69.6697118 C108.997374,70.0516172 106.227899,60.1765961 106.227899,60.1765961 C106.227899,60.1765961 104.929638,54.1007784 103.622171,52.7627118 C102.321958,51.4321939 98.3125238,50.2302824 96.4987522,50.6353928 C92.6600393,51.492583 85.8381715,56.1959458 83.2907457,59.1986277 C81.8491013,60.8979108 79.5758893,64.8159353 78.824103,66.9150168 C77.7649072,69.8724068 76.5388958,72.8882289 76.4398664,76.0287434 C76.3740328,78.1194375 76.6998534,81.0334927 77.4982253,82.9665041 C78.2541959,84.7966303 81.9930426,87.0768792 81.9930426,87.0768792 L85.1974096,87.4428486 L95.9927261,82.8971684 C95.9927261,82.8971684 98.3058289,91.2940536 96.4228762,95.8005926 C95.9570198,96.915555 88.4413884,100.117856 88.4413884,100.117856 L62.4159137,107.737511 L58.5732955,117.651953 L46.9656592,153.861388 L38.1526038,184.978846 L0.0670262842,172.71482 L23.2825777,100.295948 Z" id="Fill-1"></path>
                    </g>
                    <g id="Group-6" transform="translate(-0.000000, 119.508975)" fill="#8AC1F9">
                        <polygon id="Fill-4" points="67.3644876 0.0859985977 111.141882 16.4405499 68.2013555 199.339941 -2.78955956e-05 199.222797"></polygon>
                    </g>
                    <polygon id="Fill-7" fill="#FFC809" points="107.862197 148.116704 62.4328253 133.858718 63.099809 131.72413 108.529181 145.982116"></polygon>
                    <polygon id="Fill-9" fill="#FFC809" points="104.377703 171.740066 52.6723796 155.666772 53.3335052 153.530506 105.038549 169.603801"></polygon>
                    <polygon id="Fill-11" fill="#FFC809" points="96.8458918 194.94515 45.1405688 178.871855 45.8016945 176.73559 97.5067385 192.808884"></polygon>
                    <polygon id="Fill-13" fill="#FFC809" points="90.7742481 226.089307 36.4654292 207.659718 37.1815091 205.541066 91.4900491 223.970655"></polygon>
                </g>
            </g>
        </g>
    </g>
</svg>