<?xml version="1.0" encoding="UTF-8" standalone="no"?>
<svg width="128px" height="46px" viewBox="0 0 128 46" version="1.1" xmlns="http://www.w3.org/2000/svg" xmlns:xlink="http://www.w3.org/1999/xlink">
    <!-- Generator: Sketch 41.2 (35397) - http://www.bohemiancoding.com/sketch -->
    <title>Page 1</title>
    <desc>Created with Sketch.</desc>
    <defs>
        <polygon id="path-1" points="0 0.17870566 0 22.4463943 103.406327 22.4463943 103.406327 0.17870566 0 0.17870566"></polygon>
        <polygon id="path-3" points="8.82660019 3.56595472 8.82660019 0.0517283019 0.056897915 0.0517283019 0.056897915 3.56595472 8.82660019 3.56595472"></polygon>
    </defs>
    <g id="Page-1" stroke="none" stroke-width="1" fill="none" fill-rule="evenodd">
        <g id="Paso-1-Copy-41" transform="translate(-83.000000, -9.000000)">
            <g id="Page-1" transform="translate(83.000000, 9.000000)">
                <path d="M91.8549591,13.6371557 C91.4944892,13.7903443 91.314145,14.0457311 91.314145,14.4048349 C91.314145,14.7103443 91.4104305,14.9624764 91.604748,15.1610142 C91.7979738,15.3604198 92.0490583,15.4602311 92.3566913,15.4602311 C92.8379,15.4602311 93.2317751,15.2907689 93.5391898,14.9520613 C93.8459494,14.6137877 94.0000934,14.1787406 94.0000934,13.6477877 L94.0000934,13.4086745 L93.6795787,13.4086745 C92.8239266,13.4086745 92.2163023,13.4848349 91.8549591,13.6371557" id="Fill-1" fill="#FFFFFF"></path>
                <path d="M23.9469264,10.0219028 C23.4785993,10.0219028 23.1052477,10.1709689 22.8244698,10.4701858 C22.5439102,10.7685349 22.3760112,11.2037991 22.3229559,11.7753274 L25.470463,11.7753274 C25.3896793,10.60645 24.8816154,10.0219028 23.9469264,10.0219028" id="Fill-3" fill="#FFFFFF"></path>
                <path d="M50.5291257,13.6371557 C50.1686558,13.7903443 49.9883117,14.0457311 49.9883117,14.4048349 C49.9883117,14.7103443 50.0845971,14.9624764 50.2786963,15.1610142 C50.4719221,15.3604198 50.7232249,15.4602311 51.0306396,15.4602311 C51.5118483,15.4602311 51.9059417,15.2907689 52.2133564,14.9520613 C52.5201161,14.6137877 52.6742601,14.1787406 52.6742601,13.6477877 L52.6742601,13.4086745 L52.3537453,13.4086745 C51.4980933,13.4086745 50.8904689,13.4848349 50.5291257,13.6371557" id="Fill-5" fill="#FFFFFF"></path>
                <g id="Group-9" transform="translate(0.000000, 0.038406)">
                    <mask id="mask-2" fill="white">
                        <use xlink:href="#path-1"></use>
                    </mask>
                    <g id="Clip-8"></g>
                    <path d="M97.3875062,16.1391868 C97.3875062,16.6441019 97.2375106,17.0387906 96.9364276,17.3241208 C96.6364363,17.6103189 96.2178894,17.7522245 95.6836254,17.7522245 C95.2163901,17.7522245 94.8321217,17.620083 94.5310387,17.3542811 C94.2308291,17.0884792 94.0670784,16.7300264 94.0400049,16.2787057 C93.8524558,16.7569321 93.5393644,17.1288377 93.0981108,17.3939887 C92.6568572,17.6597906 92.1291433,17.7928 91.5149689,17.7928 C90.8328926,17.7928 90.2180633,17.6558849 89.6706992,17.3842245 C89.1226801,17.1119132 88.6910333,16.7332811 88.3770686,16.2485453 C88.0631039,15.7638094 87.9065582,15.2159321 87.9065582,14.6046962 C87.9065582,13.9012434 88.089959,13.3401302 88.4578522,12.9220075 C88.8248722,12.5036679 89.4095714,12.2014132 90.2115132,12.0156774 C91.0132367,11.8292906 92.0955198,11.7368566 93.4585807,11.7368566 L94.0000498,11.7368566 L94.0000498,11.4977434 C94.0000498,11.0325358 93.8932843,10.697734 93.679535,10.4918189 C93.4651308,10.2859038 93.1046609,10.1828377 92.597252,10.1828377 C92.0490146,10.1828377 91.2472911,10.3685736 90.1918631,10.7406962 C89.8835751,10.8468 89.6233207,10.8995264 89.4095714,10.8995264 C89.0753016,10.8995264 88.8087154,10.7804038 88.6078479,10.5412906 C88.4071987,10.3021774 88.3069833,9.99015849 88.3069833,9.60501698 C88.3069833,9.31317736 88.3674618,9.07406415 88.4879824,8.88767736 C88.6078479,8.70194151 88.8012921,8.53573396 89.0687516,8.38992264 C89.5368603,8.15080943 90.1241795,7.95878113 90.8328926,7.81210189 C91.5409507,7.66607358 92.2359087,7.59316792 92.9177667,7.59316792 C94.4413034,7.59316792 95.5670349,7.95465849 96.2953981,8.67850755 C97.0237613,9.4023566 97.3875062,10.501583 97.3875062,11.9751019 L97.3875062,16.1391868 Z M83.1647741,17.4538755 C82.8034309,17.6793189 82.288817,17.7724038 81.6207141,17.7326962 L81.059595,17.6929887 C79.857228,17.5999038 78.9445907,17.2381962 78.3238663,16.6067811 C77.7022686,15.976234 77.3915789,15.0968094 77.3915789,13.9676396 L77.3915789,10.4414792 L76.8099364,10.4414792 C75.7407534,10.4414792 75.2064894,10.0029604 75.2064894,9.12679057 C75.2064894,8.26342264 75.7407534,7.83228113 76.8099364,7.83228113 L77.3915789,7.83228113 L77.3915789,6.53690377 C77.3915789,6.03263962 77.5513996,5.63079057 77.8727877,5.33157358 C78.1933024,5.03322453 78.627351,4.88329057 79.1753701,4.88329057 C79.7236075,4.88329057 80.1574377,5.03322453 80.4779524,5.33157358 C80.7993405,5.63079057 80.9591612,6.03263962 80.9591612,6.53690377 L80.9591612,7.83228113 L82.0619677,7.83228113 C83.131369,7.83228113 83.6654147,8.26342264 83.6654147,9.12679057 C83.6654147,10.0029604 83.131369,10.4414792 82.0619677,10.4414792 L80.9591612,10.4414792 L80.9591612,14.2666396 C80.9591612,14.5187717 81.0357965,14.7311962 81.1899405,14.9039132 C81.3434295,15.0766302 81.5408037,15.1697151 81.7814081,15.182734 L82.3630506,15.2224415 C83.2577845,15.2758189 83.7053698,15.6737623 83.7053698,16.4180075 C83.7053698,16.8832151 83.525244,17.2277811 83.1647741,17.4538755 L83.1647741,17.4538755 Z M71.3330208,16.1190075 C71.3330208,16.6239226 71.1723268,17.022734 70.8518121,17.3145736 C70.5312973,17.6064132 70.0963754,17.7522245 69.5492297,17.7522245 C69.0009923,17.7522245 68.5662888,17.6064132 68.245774,17.3145736 C67.9252593,17.022734 67.7645653,16.6239226 67.7645653,16.1190075 L67.7645653,11.9751019 C67.7645653,11.3916396 67.6610748,10.9659226 67.4536572,10.7009887 C67.2466763,10.4349698 66.9357683,10.3021774 66.5222432,10.3021774 C65.9873242,10.3021774 65.5631007,10.4714226 65.2491359,10.8103472 C64.9351712,11.1490547 64.7777522,11.6038472 64.7777522,12.1747245 L64.7777522,16.1190075 C64.7777522,16.6239226 64.6177132,17.022734 64.2971985,17.3145736 C63.9758104,17.6064132 63.5419802,17.7522245 62.9939611,17.7522245 C62.4457237,17.7522245 62.0118935,17.6064132 61.6911604,17.3145736 C61.370864,17.022734 61.2099517,16.6239226 61.2099517,16.1190075 L61.2099517,9.22660189 C61.2099517,8.76204528 61.3771957,8.37950755 61.7108105,8.08115849 C62.0452986,7.78194151 62.4791289,7.63287547 63.0142662,7.63287547 C63.5216751,7.63287547 63.9262485,7.77217736 64.2271132,8.05121509 C64.5273228,8.33003585 64.6781918,8.69543208 64.6781918,9.14696981 C65.0246883,8.64205472 65.4727103,8.25691321 66.0207293,7.99111132 C66.5687484,7.72617736 67.1763727,7.59316792 67.8453489,7.59316792 C69.0206424,7.59316792 69.8957262,7.94163962 70.4708187,8.6388 C71.0450379,9.33596038 71.3330208,10.3952623 71.3330208,11.8162717 L71.3330208,16.1190075 Z M56.0616292,16.1391868 C56.0616292,16.6441019 55.9116335,17.0387906 55.6105505,17.3241208 C55.3103409,17.6103189 54.8920124,17.7522245 54.3577484,17.7522245 C53.8902947,17.7522245 53.5062447,17.620083 53.2051617,17.3542811 C52.9051704,17.0884792 52.7412014,16.7300264 52.7141279,16.2787057 C52.5265788,16.7569321 52.2134874,17.1288377 51.7722338,17.3939887 C51.3309802,17.6597906 50.8032662,17.7928 50.1888736,17.7928 C49.5070156,17.7928 48.8921862,17.6558849 48.3448222,17.3842245 C47.7968031,17.1119132 47.3651562,16.7332811 47.0511915,16.2485453 C46.7372268,15.7638094 46.5804628,15.2159321 46.5804628,14.6046962 C46.5804628,13.9012434 46.7640819,13.3401302 47.1319752,12.9220075 C47.4989951,12.5036679 48.0839127,12.2014132 48.8854179,12.0156774 C49.6873597,11.8292906 50.7696428,11.7368566 52.1327037,11.7368566 L52.6741727,11.7368566 L52.6741727,11.4977434 C52.6741727,11.0325358 52.5674073,10.697734 52.353658,10.4918189 C52.1392537,10.2859038 51.7785655,10.1828377 51.2713749,10.1828377 C50.7231375,10.1828377 49.921414,10.3685736 48.8659861,10.7406962 C48.5576981,10.8468 48.2974436,10.8995264 48.0839127,10.8995264 C47.7494246,10.8995264 47.4826201,10.7804038 47.2819709,10.5412906 C47.0813217,10.3021774 46.9811062,9.99015849 46.9811062,9.60501698 C46.9811062,9.31317736 47.0413665,9.07406415 47.1621053,8.88767736 C47.2819709,8.70194151 47.475415,8.53573396 47.7428745,8.38992264 C48.2109833,8.15080943 48.7983025,7.95878113 49.5070156,7.81210189 C50.2150737,7.66607358 50.9100317,7.59316792 51.5918897,7.59316792 C53.1156447,7.59316792 54.2411579,7.95465849 54.9695211,8.67850755 C55.6978843,9.4023566 56.0616292,10.501583 56.0616292,11.9751019 L56.0616292,16.1391868 Z M42.8563349,9.80442264 L39.3483579,16.7365358 C39.1883189,17.0689509 38.9575395,17.3241208 38.6575482,17.5033472 C38.3564652,17.6825736 38.0252521,17.7724038 37.6647822,17.7724038 C37.3043123,17.7724038 36.9698242,17.6825736 36.6624095,17.5033472 C36.3547765,17.3241208 36.1215955,17.0689509 35.9609015,16.7365358 L32.4529245,9.80442264 C32.3459407,9.56530943 32.2928854,9.35288491 32.2928854,9.16649811 C32.2928854,8.74164906 32.4765046,8.37950755 32.8443979,8.08115849 C33.2114178,7.78194151 33.635423,7.63287547 34.1166317,7.63287547 C34.4373648,7.63287547 34.7349544,7.71554528 35.008964,7.88175283 C35.2823185,8.0477434 35.4927927,8.29662075 35.6403867,8.62903585 L37.765216,13.1910642 L39.8695218,8.62903585 C40.0171158,8.29662075 40.22104,8.05121509 40.4812945,7.89151698 C40.742204,7.73246981 41.0253836,7.65240377 41.3336716,7.65240377 C41.7740518,7.65240377 42.1646519,7.79908302 42.50569,8.09092264 C42.8465098,8.38341321 43.0170289,8.73513962 43.0170289,9.14696981 C43.0170289,9.37241321 42.9631003,9.59199811 42.8563349,9.80442264 L42.8563349,9.80442264 Z M22.9647714,14.7845736 C23.2855045,15.0633943 23.7592899,15.2029132 24.3880926,15.2029132 C24.7217074,15.2029132 25.0291221,15.1664604 25.3099,15.0935547 C25.5904595,15.0206491 25.9044242,14.917583 26.2517941,14.7845736 C26.4524433,14.7045075 26.6491625,14.6346396 26.8432617,14.5754038 C27.0364875,14.515517 27.2144299,14.4855736 27.3742506,14.4855736 C27.6816653,14.4855736 27.9320947,14.6046962 28.1261939,14.8438094 C28.3196381,15.0829226 28.4165785,15.3949415 28.4165785,15.780083 C28.4165785,16.3116868 28.1563241,16.7172245 27.6351601,16.9960453 C27.1808065,17.2212717 26.6426124,17.4109132 26.0210147,17.563234 C25.4002904,17.7157717 24.8284729,17.7928 24.3073089,17.7928 C23.2119258,17.7928 22.2560583,17.5868849 21.4412347,17.1750547 C20.6255379,16.7632245 19.9973901,16.1723849 19.5570099,15.4014509 C19.1157563,14.6313849 18.8956753,13.7285264 18.8956753,12.6926585 C18.8956753,11.7101679 19.1059312,10.8298755 19.5268797,10.0533 C19.9478282,9.2758566 20.5358025,8.67199811 21.2912391,8.23998868 C22.0455841,7.80863019 22.8970878,7.59316792 23.8466236,7.59316792 C24.7682126,7.59316792 25.5773595,7.79170566 26.2723175,8.19051698 C26.9664022,8.58846038 27.5048145,9.15347925 27.8855895,9.88383774 C28.2665829,10.6141962 28.4565337,11.4710547 28.4565337,12.4533283 C28.4565337,12.7590547 28.3864484,12.9949132 28.2460594,13.1611208 C28.1058888,13.3273283 27.9019646,13.4097811 27.6351601,13.4097811 L22.343392,13.4097811 C22.4361841,14.0470547 22.6436017,14.5057528 22.9647714,14.7845736 L22.9647714,14.7845736 Z M15.1918525,17.274866 C14.9047429,17.5139792 14.4667643,17.6331019 13.8787901,17.6331019 L7.28422129,17.6331019 C6.73620223,17.6331019 6.31525373,17.4870736 6.02159411,17.194583 C5.7272795,16.9027434 5.58034052,16.4781113 5.58034052,15.9193849 L5.58034052,5.28210189 C5.58034052,4.73747925 5.74343623,4.30308302 6.07137433,3.97717736 C6.39843909,3.65213962 6.8429677,3.48918679 7.40408682,3.48918679 C7.97917933,3.48918679 8.43353298,3.65213962 8.76692943,3.97717736 C9.10141756,4.30308302 9.26866162,4.73747925 9.26866162,5.28210189 L9.26866162,14.6648 L13.8787901,14.6648 C15.0418568,14.6648 15.6224077,15.1632057 15.6224077,16.1584981 C15.6224077,16.6636302 15.4789621,17.0357528 15.1918525,17.274866 L15.1918525,17.274866 Z M102.562902,1.90001698 L18.8419651,0.17870566 C18.8419651,0.17870566 6.55694978,0.748715094 -6.55002859e-05,1.37036604 L0.779169567,21.6275075 L40.978005,22.4463943 L103.406327,21.0874415 L102.562902,1.90001698 Z" id="Fill-7" fill="#FFFFFF" mask="url(#mask-2)"></path>
                </g>
                <path d="M9.12842551,36.7847462 L14.5808876,36.7847462 C15.0214862,36.7847462 15.342656,36.8342179 15.5426502,36.9338123 C15.7432994,37.0334066 15.87692,37.190067 15.9439486,37.4024915 C16.0107589,37.6146991 16.044164,37.8967745 16.044164,38.2487179 C16.044164,38.6004443 16.0107589,38.8833877 15.9439486,39.0955953 C15.87692,39.3080198 15.7636045,39.4540481 15.6029104,39.5334632 C15.349206,39.6662557 15.0018361,39.7328689 14.5605826,39.7328689 L7.34463439,39.7328689 C6.40907197,39.7328689 5.86083458,39.4807368 5.70014055,38.9758217 C5.6202302,38.7633972 5.58027502,38.4246896 5.58027502,37.960133 L5.58027502,26.8834632 C5.58027502,26.5786047 5.59010006,26.3492557 5.61062349,26.1967179 C5.63005524,26.0435292 5.69380885,25.8677745 5.80057432,25.6683689 C5.98812347,25.309916 6.50928741,25.1309066 7.36406614,25.1309066 C8.29962856,25.1309066 8.85441598,25.3765292 9.02799174,25.8677745 C9.09502036,26.0938689 9.12842551,26.4390858 9.12842551,26.9036425 L9.12842551,36.7847462 Z" id="Fill-10" fill="#FFBC00"></path>
                <path d="M27.0089337,30.9476717 L25.6858279,33.6768604 L28.3523446,33.6768604 L27.0089337,30.9476717 Z M28.6329041,26.1669264 L34.0447561,37.2824358 C34.2722604,37.7337566 34.3855759,38.0728981 34.3855759,38.2989925 C34.3855759,38.7763509 33.9982509,39.2083604 33.2233825,39.5935019 C32.7681555,39.8187283 32.4109606,39.9322094 32.1507062,39.9322094 C31.8895783,39.9322094 31.6760474,39.8723226 31.5088034,39.7532 C31.3415593,39.6329925 31.2216938,39.5073604 31.1483334,39.3745679 C31.0749731,39.2417755 30.9712643,39.0423698 30.8376438,38.7763509 L29.7950975,36.624983 L24.243075,36.624983 L23.2007471,38.7763509 C23.0669082,39.0423698 22.9634177,39.2350491 22.8898391,39.3541717 C22.8156054,39.4743792 22.6957399,39.5965396 22.5284958,39.7230396 C22.3612518,39.8486717 22.1477208,39.9118132 21.8874664,39.9118132 C21.6265569,39.9118132 21.2691437,39.799417 20.8150083,39.5731057 C20.04014,39.2018509 19.6525966,38.7763509 19.6525966,38.2989925 C19.6525966,38.0728981 19.7661304,37.7337566 19.9927614,37.2824358 L25.4052684,26.1465302 C25.5522074,25.8410208 25.7764367,25.5953981 26.0766463,25.4098792 C26.377511,25.2241434 26.694969,25.1308415 27.0292388,25.1308415 C27.750397,25.1308415 28.2846609,25.4762755 28.6329041,26.1669264 L28.6329041,26.1669264 Z" id="Fill-12" fill="#CB78D3"></path>
                <path d="M61.7870747,25.6886349 C61.8940585,25.8880406 61.9575937,26.06705 61.9772438,26.2260972 C61.9975489,26.3857953 62.007374,26.6183991 62.007374,26.9239085 L62.007374,37.9797481 C62.007374,38.8962764 61.7536695,39.4337387 61.2456056,39.5934368 C60.9919012,39.6728519 60.6713865,39.7125594 60.2838431,39.7125594 C59.8956447,39.7125594 59.5882301,39.6800123 59.3613808,39.613833 C59.1338764,39.5472198 58.9609557,39.4669368 58.8402168,39.3745028 C58.7203513,39.2814179 58.6264675,39.1484085 58.5596573,38.9756915 C58.492847,38.7504651 58.4592235,38.4050311 58.4592235,37.9398236 L58.4592235,31.2663519 C58.1249537,31.6781821 57.6380682,32.3321632 56.9959471,33.2287292 C56.3549176,34.1252953 55.9470692,34.6861915 55.7734934,34.9122858 C55.5996993,35.1377292 55.4789605,35.2941726 55.4128052,35.3798802 C55.3451216,35.4666726 55.1820258,35.5857953 54.9211164,35.738984 C54.6608619,35.8913047 54.3803023,35.9676821 54.0792194,35.9676821 C53.7792281,35.9676821 53.5050002,35.8980311 53.2580641,35.7585123 C53.0100364,35.6192104 52.8329673,35.4829462 52.7262018,35.3499368 L52.5663811,35.1312198 C52.2987033,34.7994557 51.7709893,34.0920972 50.9823658,33.0097953 C50.1935241,31.9268425 49.7662439,31.3464179 49.6992152,31.2663519 L49.6992152,37.9797481 C49.6992152,38.2852575 49.6893902,38.5143896 49.6699585,38.6669274 C49.6496534,38.820333 49.5858998,38.9895783 49.478916,39.1750972 C49.2782667,39.53355 48.7571028,39.7125594 47.9154241,39.7125594 C47.1006006,39.7125594 46.5925367,39.53355 46.3918875,39.1750972 C46.285122,38.9895783 46.2213684,38.8168613 46.2017183,38.6573802 C46.1814132,38.4974651 46.1715882,38.2585689 46.1715882,37.9398236 L46.1715882,26.88355 C46.1715882,26.5786915 46.1814132,26.3493425 46.2017183,26.1968047 C46.2213684,26.043616 46.285122,25.8676443 46.3918875,25.6682387 C46.5925367,25.3230217 47.1137006,25.1505217 47.9553793,25.1505217 C48.3167225,25.1505217 48.6276306,25.1941349 48.8876667,25.2800594 C49.1487945,25.3668519 49.3184403,25.4560311 49.3992239,25.549116 L49.5190895,25.6682387 L54.0693943,31.6052764 C56.3411626,28.6172292 57.8581492,26.6450877 58.6199175,25.6886349 C58.8467668,25.3303991 59.3843059,25.1505217 60.2334079,25.1505217 C61.0816366,25.1505217 61.5995255,25.3303991 61.7870747,25.6886349" id="Fill-14" fill="#FF645B"></path>
                <path d="M73.2729865,30.9476717 L71.950099,33.6768604 L74.6163973,33.6768604 L73.2729865,30.9476717 Z M74.8969569,26.1669264 L80.3088088,37.2824358 C80.5363132,37.7337566 80.6496287,38.0728981 80.6496287,38.2989925 C80.6496287,38.7763509 80.2623036,39.2083604 79.4874353,39.5935019 C79.0322083,39.8187283 78.6750134,39.9322094 78.4147589,39.9322094 C78.1538494,39.9322094 77.9401002,39.8723226 77.7728561,39.7532 C77.6058304,39.6329925 77.4857465,39.5073604 77.4123862,39.3745679 C77.3390259,39.2417755 77.2353171,39.0423698 77.1016965,38.7763509 L76.0593686,36.624983 L70.5071277,36.624983 L69.4647998,38.7763509 C69.3309609,39.0423698 69.2274705,39.2350491 69.1541102,39.3541717 C69.0796582,39.4743792 68.960011,39.5965396 68.7925486,39.7230396 C68.6255229,39.8486717 68.4117736,39.9118132 68.1515191,39.9118132 C67.8906096,39.9118132 67.5331964,39.799417 67.0790611,39.5731057 C66.3041927,39.2018509 65.9168677,38.7763509 65.9168677,38.2989925 C65.9168677,38.0728981 66.0301832,37.7337566 66.2568142,37.2824358 L71.6695395,26.1465302 C71.8162601,25.8410208 72.0404894,25.5953981 72.3406991,25.4098792 C72.641782,25.2241434 72.9590218,25.1308415 73.2935099,25.1308415 C74.0144497,25.1308415 74.5487137,25.4762755 74.8969569,26.1669264 L74.8969569,26.1669264 Z" id="Fill-16" fill="#49B172"></path>
                <path d="M94.0499173,25.7379981 C94.1763329,25.5062623 94.367157,25.3498189 94.6208615,25.2704038 C94.8745659,25.1909887 95.192679,25.1504132 95.5736723,25.1504132 C95.953574,25.1504132 96.2609886,25.1836113 96.4952613,25.2500075 C96.7293157,25.3166208 96.9028914,25.3969038 97.0164253,25.4893377 C97.1297408,25.5824226 97.2137995,25.7219415 97.2668547,25.9074604 C97.3476384,26.1207528 97.3875936,26.4585925 97.3875936,26.924017 L97.3875936,37.9796396 C97.3875936,38.2990358 97.3768952,38.5307717 97.3572451,38.676583 C97.33694,38.8234792 97.2734047,38.9961962 97.1664209,39.194734 C96.9797451,39.5538377 96.4585812,39.7328472 95.6029291,39.7328472 C95.0817652,39.7328472 94.7210769,39.6931396 94.5204277,39.6137245 C94.3206518,39.5334415 94.1527528,39.4078094 94.0197872,39.2350925 C91.0133241,35.250234 89.0354338,32.6475453 88.085898,31.4259415 L88.085898,37.9796396 C88.085898,38.2990358 88.0760729,38.5307717 88.0566412,38.676583 C88.0361177,38.8234792 87.9725825,38.9961962 87.8655987,39.194734 C87.6780495,39.5538377 87.1568856,39.7328472 86.3021068,39.7328472 C85.4733099,39.7328472 84.9661193,39.5538377 84.7785702,39.194734 C84.6715864,38.9961962 84.6080511,38.8167528 84.588401,38.6572717 C84.5680959,38.4975736 84.5582709,38.2656208 84.5582709,37.9601113 L84.5582709,26.843734 C84.5582709,26.3394698 84.6218062,25.9706019 84.7490951,25.7379981 C84.8755106,25.5062623 85.0663348,25.3498189 85.3200392,25.2704038 C85.5737437,25.1909887 85.9016818,25.1504132 86.3021068,25.1504132 C86.7034053,25.1504132 87.020645,25.187734 87.2546993,25.2606396 C87.4880987,25.3335453 87.6520677,25.4164321 87.7457331,25.5093 C87.7987884,25.5492245 87.952059,25.7219415 88.2066368,26.0274509 C91.0262058,29.8387245 92.9104307,32.3557057 93.8590932,33.5773094 L93.8590932,26.843734 C93.8590932,26.3394698 93.9226284,25.9706019 94.0499173,25.7379981" id="Fill-18" fill="#FA589A"></path>
                <path d="M105.043922,32.4618745 C105.043922,33.6435538 105.42819,34.6034783 106.196509,35.3403462 C106.964827,36.0769972 107.823536,36.4458651 108.772198,36.4458651 C109.721734,36.4458651 110.576513,36.0876292 111.338281,35.3702896 C112.100049,34.65295 112.481043,33.6897708 112.481043,32.4814028 C112.481043,31.2734689 112.096774,30.3033462 111.328456,29.5729877 C110.560138,28.8426292 109.701211,28.477884 108.752766,28.477884 C107.803231,28.477884 106.948452,28.845884 106.186684,29.5834028 C105.424915,30.3202708 105.043922,31.2801953 105.043922,32.4618745 M108.692288,24.9519406 C110.670397,24.9519406 112.387159,25.6619028 113.843885,27.0829123 C115.300612,28.5045726 116.028975,30.2677613 116.028975,32.3718274 C116.028975,34.4769783 115.334017,36.2701104 113.944319,37.7510066 C112.554403,39.2319028 110.843972,39.9718085 108.813027,39.9718085 C106.781426,39.9718085 105.05462,39.241667 103.631299,37.78095 C102.207978,36.3193651 101.49599,34.5800443 101.49599,32.5616858 C101.49599,31.4592047 101.696421,30.4263745 102.097937,29.4636292 C102.498363,28.50045 103.032627,27.6939311 103.701384,27.0429877 C104.369487,26.3929123 105.137806,25.8814877 106.00634,25.5093651 C106.875092,25.1374594 107.770699,24.9519406 108.692288,24.9519406" id="Fill-20" fill="#7AB7FF"></path>
                <g id="Group-24" transform="translate(118.337183, 30.632745)">
                    <mask id="mask-4" fill="white">
                        <use xlink:href="#path-3"></use>
                    </mask>
                    <g id="Clip-23"></g>
                    <path d="M0.056897915,2.26710566 L0.056897915,1.35057736 C0.056897915,0.636058491 0.645090482,0.0517283019 1.36384695,0.0517283019 L7.51978215,0.0517283019 C8.23853862,0.0517283019 8.82673119,0.636058491 8.82673119,1.35057736 L8.82673119,2.26710566 C8.82673119,2.98140755 8.23853862,3.56595472 7.51978215,3.56595472 L1.36384695,3.56595472 C0.645090482,3.56595472 0.056897915,2.98140755 0.056897915,2.26710566" id="Fill-22" fill="#FFFFFF" mask="url(#mask-4)"></path>
                </g>
                <path d="M117.510832,28.0366311 L117.053421,27.2407443 C116.696881,26.6203953 116.915871,25.8229896 117.540088,25.4686594 L122.885348,22.4343953 C123.509566,22.0800651 124.311945,22.2976972 124.668484,22.9178292 L125.125895,23.713716 C125.482435,24.3342821 125.263445,25.1314708 124.639228,25.4858009 L119.293968,28.5202821 C118.66975,28.8743953 117.867371,28.6567632 117.510832,28.0366311" id="Fill-25" fill="#FFFFFF"></path>
                <path d="M114.206822,24.2159406 L113.412959,23.7496481 C112.7942,23.3859877 112.587219,22.5853274 112.953147,21.9701858 L114.201801,19.8715443 C114.567729,19.2566198 115.373383,19.0509217 115.992142,19.4145821 L116.786005,19.8808745 C117.404546,20.2445349 117.611746,21.0451953 117.245817,21.6601198 L115.997164,23.7589783 C115.631235,24.3741198 114.825582,24.5796009 114.206822,24.2159406" id="Fill-27" fill="#FFFFFF"></path>
                <path d="M114.171954,40.8402321 L113.378091,41.3065245 C112.759332,41.6701849 112.552569,42.4708453 112.918279,43.0857698 L114.167151,45.1846283 C114.532861,45.7995528 115.338515,46.0052509 115.957274,45.6415906 L116.751137,45.1752981 C117.369897,44.8116377 117.576878,44.0109774 117.210949,43.3960528 L115.962296,41.2969774 C115.596367,40.6820528 114.790714,40.4765717 114.171954,40.8402321" id="Fill-29" fill="#FFFFFF"></path>
                <path d="M117.306143,37.0809906 L116.848733,37.8766604 C116.492193,38.4970094 116.711182,39.2944151 117.3354,39.6489623 L122.68066,42.6830094 C123.304878,43.0373396 124.107256,42.8197075 124.463796,42.1995755 L124.921206,41.4036887 C125.277746,40.7833396 125.058757,39.985934 124.434539,39.6316038 L119.089279,36.5973396 C118.465062,36.2430094 117.662683,36.4606415 117.306143,37.0809906" id="Fill-31" fill="#FFFFFF"></path>
            </g>
        </g>
    </g>
</svg>