<?xml version="1.0" encoding="UTF-8" standalone="no"?>
<svg width="140px" height="140px" viewBox="0 0 140 140" version="1.1" xmlns="http://www.w3.org/2000/svg" xmlns:xlink="http://www.w3.org/1999/xlink">
    <!-- Generator: Sketch 41.2 (35397) - http://www.bohemiancoding.com/sketch -->
    <title>Artboard 4 Copy 4</title>
    <desc>Created with Sketch.</desc>
    <defs></defs>
    <g id="Page-1" stroke="none" stroke-width="1" fill="none" fill-rule="evenodd">
        <g id="Artboard-4-Copy-4">
            <g id="Group-15-Copy" transform="translate(33.000000, 28.000000)">
                <polygon id="Fill-1" fill="#CB78D3" points="33.8934776 3.16385055 13.1057665 2.84015582 11.5198382 31.6234787 6.18855076 58.3828299 -0.000351842103 72.6922482 56.1070288 84.9820929 65.1335379 65.9016956 71.7094668 24.5074721 73.3499307 1.3149203 73.3499307 1.30348543"></polygon>
                <polygon id="Fill-2" fill="#FFFFFF" points="15.533477 7.44541711 17.296206 8.18956316 17.6929079 9.1333796 15.7173145 8.43761184"></polygon>
                <polygon id="Fill-3" fill="#000000" points="10.1570658 5.88464554 12.1309 6.33588304 14.0370046 6.60944027 16.2949513 4.73939949 15.0872533 12.4676113 13.7009954 9.99943894 11.6444783 9.23154355 9.6882362 8.50762842"></polygon>
                <polygon id="Fill-4" fill="#FFFFFF" points="66.8409397 7.55369652 67.5859654 9.31642545 68.5289022 9.71400703 67.8331344 7.73753402"></polygon>
                <path d="M64.4082154,3.18311391 C64.0502161,2.16716984 65.0591233,1.11868037 65.6985964,0.688553397 C65.942247,0.525826424 67.0734194,-0.239430151 68.1342233,0.323517215 C68.8027233,0.677998134 69.1941476,1.42830142 69.1809536,2.11879155 C69.155445,3.37310865 67.7946957,4.32484153 66.577322,4.3529889 C65.8314167,4.3697014 64.7143181,4.04952509 64.4082154,3.18311391" id="Fill-5" fill="#000000"></path>
                <polygon id="Fill-7" fill="#000000" points="65.2800802 2.17807694 65.7304381 4.15103154 66.0048749 6.05801574 64.1348341 8.31596243 71.8639255 7.10738481 69.3957532 5.72200653 68.6278578 3.66373022 67.9021834 1.70924734"></polygon>
                <polygon id="Fill-9" fill="#FFFFFF" points="63.0175595 25.8905635 18.907115 23.6598845 20.7551657 12.3076991 62.8548326 12.4677872"></polygon>
                <polygon id="Fill-11" fill="#FFFFFF" points="55.3742296 62.1424387 15.0768739 56.943092 19.1283358 32.0335507 61.2297618 32.1945184"></polygon>
            </g>
        </g>
    </g>
</svg>