<?xml version="1.0" encoding="UTF-8" standalone="no"?>
<svg width="98px" height="75px" viewBox="0 0 98 75" version="1.1" xmlns="http://www.w3.org/2000/svg" xmlns:xlink="http://www.w3.org/1999/xlink">
    <!-- Generator: Sketch 41.2 (35397) - http://www.bohemiancoding.com/sketch -->
    <title>Artboard 3 Copy 21</title>
    <desc>Created with Sketch.</desc>
    <defs>
        <polygon id="path-1" points="0 49.2009984 92.6242797 49.2009984 92.6242797 0 0 0"></polygon>
    </defs>
    <g id="Page-1" stroke="none" stroke-width="1" fill="none" fill-rule="evenodd">
        <g id="Artboard-3-Copy-21">
            <g id="Page-1" transform="translate(2.000000, 15.000000)">
                <path d="M84.9467478,15.2513256 C83.7961586,14.6200063 83.7739339,13.7460679 83.8352833,13.4242733 C83.8964011,13.0969226 84.1209627,13.2402254 84.264034,13.2402254 C85.0189779,13.2402254 85.8139725,13.0163582 86.7932466,12.01648 C87.8977659,10.8895046 88.2441002,8.38552623 86.5469233,6.75317126 C84.718482,4.99325601 82.7735927,5.30116015 81.51952,6.88258361 C81.2627789,7.20692474 80.6351637,7.44421928 80.0925116,7.42593024 C79.2884883,7.39513982 79.7952568,8.02877414 79.7952568,8.15980703 C79.7952568,8.29315499 79.6727897,8.38552623 79.6017171,8.36492212 C79.3283074,8.2869043 79.4380417,8.6908838 79.4380417,8.81335093 C79.4380417,8.93604958 79.3255294,8.99763041 79.2655691,8.99763041 C78.927569,8.99763041 79.0201718,9.30159893 79.0308211,9.38586743 C79.0403129,9.46620032 79.0104485,9.607188 78.8979362,9.66992637 C78.790054,9.73081267 78.6631882,9.99681407 78.6631882,10.2007716 C78.6631882,10.568173 78.9997992,10.8223676 79.5625924,11.241858 C80.121913,11.6604225 80.1934486,12.0576883 80.2036349,12.3438308 C80.2142843,12.6283527 80.2399815,13.0895144 80.3682363,13.394409 C80.5191788,13.7608843 80.4995007,14.4350324 79.7244157,14.4648967 C78.7763951,14.5030954 77.0933401,15.2603544 76.9507319,15.3119804 C76.415951,15.501353 75.708466,15.5701106 75.1572481,15.431901 C74.8602248,15.2216927 74.5770919,14.9918064 74.3094699,14.7447885 C74.1985781,14.3634967 74.3904973,13.9541926 74.5840371,13.6789309 C74.900044,13.9954008 75.3700029,13.9745652 75.6334577,13.9835939 C75.8989961,13.9954008 77.1940456,13.7916747 77.377862,13.7303254 C77.562373,13.6689761 77.6429374,13.6891172 77.7556813,13.7303254 C78.2494854,13.9097433 78.9282636,13.9636844 79.2035252,13.0163582 C79.4794814,12.0678746 78.8273266,12.3329499 78.7453731,12.3734636 C78.6631882,12.4153664 78.5504444,12.4044856 78.5914211,12.3234582 C78.7127307,12.081765 78.5314608,12.1067677 78.4284402,12.0975074 C78.1642909,12.0713472 77.8174936,12.353091 77.7049812,12.454491 C77.5922374,12.5568171 77.4806511,12.5463993 77.4394429,12.5260267 C77.0880154,12.351239 76.0406783,12.6040445 75.7151797,12.0361581 C75.7455071,11.8845211 75.4491783,9.57848115 75.2980043,9.18098385 C75.2648988,9.09532631 75.2361919,8.9568852 75.3378235,8.80432217 C75.6038249,8.40450979 76.3374701,8.83372354 76.7358935,8.82423176 C77.2123346,8.81080436 77.2885004,8.61217146 77.4193018,8.45150569 C77.5443155,8.29523855 77.6364552,8.38297966 77.7049812,8.33991938 C77.7920278,8.28320019 77.7096114,8.17115087 77.7406333,8.11026456 C77.7718867,8.04937825 77.8075388,8.07947414 77.8876402,8.00793852 C77.9698251,7.93524536 77.8762963,7.78383987 77.9184306,7.72249054 C78.0358046,7.54561929 78.3566731,7.68683849 78.1642909,7.22405624 C78.0587238,6.96916718 78.2052676,6.69228496 78.3476443,6.50916302 C78.5789197,6.21121367 79.4711472,4.95552039 77.8987525,3.65213669 C76.399051,2.40940779 74.8785138,2.50941876 73.8994713,3.57018325 C72.9215862,4.63094775 73.4100657,6.18273833 73.5121603,6.58995892 C73.6140233,6.99856855 73.3202411,7.36828503 72.981778,7.52871929 C72.713693,7.65535355 72.1022834,8.06303716 71.6408902,8.46493309 C71.7149724,5.13679027 73.7353329,2.20938585 76.8326633,0.962721335 C76.9643908,1.12801724 77.1116291,1.28358986 77.2709059,1.43036522 C76.9248031,1.68247621 76.1721742,2.35569819 76.1721742,2.35569819 C76.1721742,2.35569819 76.2754263,2.37120916 76.3705756,2.39459135 C76.4372496,2.41033382 76.5777743,2.45269957 76.5777743,2.45269957 C76.5777743,2.45269957 77.24081,1.88898034 77.5519552,1.66441867 C77.7941114,1.84869814 78.0594183,2.0021872 78.3400046,2.12558036 C78.1892936,2.38046943 77.8121689,3.09096403 77.8121689,3.09096403 C77.8121689,3.09096403 77.8992155,3.14282157 77.9770018,3.19514212 C78.0559457,3.24769418 78.1052566,3.29376405 78.1052566,3.29376405 C78.1052566,3.29376405 78.5175704,2.51705849 78.6733745,2.25753928 C79.0201718,2.3728297 79.381091,2.43973519 79.7473349,2.45594067 L79.7473349,3.87924493 C79.5447664,3.87368877 79.0224869,3.85262164 78.8108896,3.83062849 L78.6780046,3.8174326 L78.7520868,3.92809288 C78.808343,4.01074084 78.8518663,4.09153673 78.8902964,4.16561893 L78.9053444,4.19640935 L78.9403019,4.19941894 C79.0935595,4.21192031 79.5702321,4.22882031 79.7473349,4.23345045 L79.7473349,6.82354935 L80.1070966,6.82354935 L80.1070966,6.23089176 C80.6340062,6.205426 81.0720172,6.16907942 81.602168,6.12324106 L81.6250871,6.12069448 L82.0899529,5.70930677 L81.8366844,5.73129992 C81.2769008,5.80445609 80.7849487,5.8382561 80.3390665,5.86325884 C80.3390665,5.86325884 80.1871979,5.8720561 80.1070966,5.87691775 L80.1070966,4.23275593 C80.7573994,4.21909702 81.4086282,4.12857783 82.0457351,3.96119836 C82.2198283,4.38832855 82.547642,5.42617386 82.547642,5.42617386 L82.8856421,5.32014371 C82.8856421,5.32014371 82.5580598,4.29063265 82.3862817,3.86280794 C82.9249982,3.69589149 83.4461202,3.47295037 83.9383038,3.20301335 C84.3355696,3.69126135 84.6779683,4.22419017 84.9611012,4.79022448 C84.7062121,4.908756 84.2415778,5.07335739 84.2422724,5.07335739 C84.6143039,5.1143341 84.8969738,5.20276973 84.8969738,5.20276973 C84.8969738,5.20276973 85.0284697,5.14651356 85.1125067,5.10924095 C85.1451492,5.18332315 85.2099711,5.33380262 85.2099711,5.33380262 L85.6750684,5.54053826 L85.6213588,5.41135742 C85.6213588,5.41135742 85.4676382,5.04279848 85.4312917,4.95760395 C85.9237068,4.71405872 86.4080192,4.43578746 86.8712644,4.12441071 C87.7526111,5.47224373 88.2204865,7.03699869 88.2204865,8.65523174 C88.2204865,11.342795 86.9346973,13.7347241 84.9467478,15.2513256 Z M79.025728,0.418680181 C78.5150238,0.641621301 78.0270073,0.909243247 77.5665401,1.22316657 C77.427173,1.09884738 77.3010018,0.968045993 77.1831648,0.831919951 C77.7783689,0.623100751 78.3941772,0.485817175 79.025728,0.418680181 Z M78.5272937,1.82300088 C78.2895361,1.72252689 78.0698361,1.5982077 77.863795,1.45189536 C78.3305128,1.1432967 78.8305677,0.879841874 79.3544677,0.664771988 C79.059991,1.03356244 78.7794046,1.42133645 78.5272937,1.82300088 Z M79.7473349,0.738391174 L79.7473349,2.10127214 C79.449617,2.08576118 79.1542143,2.03228309 78.8678403,1.94454199 C79.1333787,1.52991318 79.4290129,1.12616519 79.7473349,0.738391174 Z M80.1070966,2.45825574 C80.4782021,2.44089272 80.8428254,2.37468176 81.1940213,2.25753928 C81.4579392,2.69670782 81.6952337,3.15763801 81.9028954,3.6322271 C81.3153309,3.78293807 80.712024,3.86651205 80.1070966,3.87993945 L80.1070966,2.45825574 Z M80.1070966,0.722185693 C80.425187,1.10579258 80.7249884,1.51532824 80.9993241,1.94454199 C80.7099405,2.03367213 80.4094445,2.08715022 80.1070966,2.10127214 L80.1070966,0.722185693 Z M82.0061475,1.45189536 C81.7982543,1.59959674 81.5757762,1.72345292 81.3435748,1.82230636 C81.0928528,1.4264296 80.8097199,1.0388871 80.509687,0.661530892 C81.0338186,0.876600778 81.5357255,1.14144464 82.0061475,1.45189536 Z M82.6826105,0.833772006 C82.5654681,0.973833665 82.4381393,1.10370902 82.2996982,1.2243241 C81.8438611,0.911326809 81.3581597,0.644399383 80.8516227,0.423310319 C81.4808584,0.490910326 82.0948146,0.626573354 82.6826105,0.833772006 Z M83.7042504,2.92728867 C83.2403106,3.17731609 82.7509051,3.38173666 82.2487667,3.53499421 C82.0387899,3.05438594 81.7973283,2.5814174 81.5276227,2.12650639 C81.80682,2.00380775 82.0702749,1.85101321 82.3161352,1.66511319 C82.8224407,2.03367213 83.2882325,2.45825574 83.7042504,2.92728867 Z M83.034501,0.965499417 C83.7234654,1.24377068 84.3735367,1.61765428 84.9712875,2.0765009 C84.6740327,2.32259271 84.3533957,2.54761739 84.0181737,2.74810235 C83.5945161,2.26193791 83.1164544,1.82068581 82.5962585,1.4331433 C82.7536832,1.28822 82.9018476,1.13311039 83.034501,0.965499417 Z M86.6700849,3.83178602 C86.2286013,4.13112441 85.7618835,4.4003669 85.2794231,4.63766145 C84.9949012,4.06653399 84.6485669,3.52341887 84.247597,3.02336402 C84.6022655,2.80644208 84.9407286,2.56567493 85.2539574,2.30222011 C85.7892013,2.75111194 86.2649479,3.26575172 86.6700849,3.83178602 Z M79.9299938,0.0128486315 C75.1646563,0.0128486315 71.2878422,3.88919973 71.2878422,8.65523174 C71.2878422,13.4196432 75.1646563,17.2969203 79.9299938,17.2969203 C84.6941738,17.2969203 88.5716824,13.4196432 88.5716824,8.65523174 C88.5716824,3.88919973 84.6941738,0.0128486315 79.9299938,0.0128486315 Z" id="Fill-1" fill="#FEFEFE"></path>
                <path d="M70.5057194,2.31011449 L70.3709824,2.42910902 C69.8635193,2.87823236 68.705985,4.06262153 68.8840137,5.36230112 C68.8844768,5.36669975 68.9020713,5.4528203 68.9020713,5.4528203 C68.9025343,5.45444085 68.9601795,5.71071896 68.9601795,5.71071896 L69.1210768,5.56301758 C69.8304138,4.9138723 70.3626481,3.81421465 70.5795701,2.54555698 L70.6411509,2.1890364 L70.5057194,2.31011449 Z" id="Fill-3" fill="#FEFEFE"></path>
                <path d="M68.1537948,4.55464309 L68.0956865,4.71229927 C68.0148906,4.92922121 67.8688098,5.38436372 67.790329,5.99068022 C67.6812892,6.8486447 67.706292,8.06197222 68.4517441,8.96832164 C68.4505866,8.96762711 68.533466,9.07527781 68.533466,9.07527781 L68.6200496,9.18547508 L68.7302469,8.63472023 C68.8534085,7.66077081 68.6911222,5.62003772 68.3339071,4.70882666 L68.2105139,4.39976499 L68.1537948,4.55464309 Z" id="Fill-5" fill="#FEFEFE"></path>
                <path d="M67.2952515,8.06488921 L67.2843707,8.22555498 C67.2220953,9.09903042 67.2672392,11.2538964 69.0121065,12.3966143 C69.0121065,12.3977719 69.2195366,12.5306568 69.2195366,12.5306568 L69.2100449,12.2861855 C69.179949,11.4680403 68.2254461,9.02680027 67.5089324,8.1519358 L67.3059008,7.90422344 L67.2952515,8.06488921 Z" id="Fill-7" fill="#FEFEFE"></path>
                <path d="M67.5957011,11.9209372 L67.625334,12.0686385 C67.8804546,13.3069688 69.0551205,15.3129759 70.8687453,15.8947526 L71.1166892,15.974854 L71.027096,15.7303828 C70.688633,14.8041238 68.9405246,12.6460167 67.8177162,11.9348276 L67.5642162,11.7739303 L67.5957011,11.9209372 Z" id="Fill-9" fill="#FEFEFE"></path>
                <path d="M71.2389943,4.17538852 L71.09546,4.26243511 C69.7450804,5.08636807 69.1132981,6.08508873 69.1614516,7.31716831 L69.1737214,7.59914368 L69.3700393,7.43431079 C70.1004435,6.83007785 71.0135066,5.28523248 71.2836751,4.40828444 L71.381371,4.08834194 L71.2389943,4.17538852 Z" id="Fill-11" fill="#FEFEFE"></path>
                <path d="M70.4452266,6.87299922 L70.3422061,6.96976909 C69.9963348,7.29920338 68.8776936,8.48868569 68.974695,9.96106941 C68.9897429,10.1877146 69.041369,10.4301023 69.1284155,10.6838339 L69.2073594,10.9190449 L69.3520512,10.7164763 C69.886369,9.96431051 70.5954746,7.97960208 70.556813,7.05635267 L70.5450061,6.77646085 L70.4452266,6.87299922 Z" id="Fill-13" fill="#FEFEFE"></path>
                <path d="M70.502895,9.42816374 L70.4262662,9.54067608 C69.862084,10.3780364 69.5747839,11.2380845 69.5923785,12.030301 C69.6078894,12.6162449 69.7951785,13.1769545 70.148458,13.697382 L70.2665265,13.8733272 L70.3656114,13.6874272 C70.6098512,13.2290436 70.8024649,11.7432325 70.7744526,10.5681036 C70.7633402,10.1530118 70.721206,9.80922405 70.6524484,9.5751706 L70.5783662,9.3156514 L70.502895,9.42816374 Z" id="Fill-15" fill="#FEFEFE"></path>
                <path d="M71.1569482,12.159667 L71.1215277,12.2779671 C70.9520646,12.8215452 70.8717318,13.353548 70.8860852,13.8584645 C70.9189592,15.0004879 71.4238757,15.8941044 72.3908799,16.5133853 L72.5538607,16.6161744 L72.5895128,16.3962428 C72.5895128,16.3923072 72.6038662,16.2209921 72.6038662,16.2209921 C72.5770114,15.2924181 71.8850373,12.9537356 71.3433113,12.2397684 L71.1937578,12.0436821 L71.1569482,12.159667 Z" id="Fill-17" fill="#FEFEFE"></path>
                <path d="M69.2535682,15.7832821 L69.3234832,15.9004246 C70.0508778,17.1193083 71.284578,18.6919344 73.5922385,18.2881865 L73.7848522,18.2543865 L73.6758125,18.0930262 C73.2449782,17.4522151 70.444208,15.8717177 69.4535901,15.7098944 L69.1831901,15.6652136 L69.2535682,15.7832821 Z" id="Fill-19" fill="#FEFEFE"></path>
                <path d="M72.6675074,18.8784595 L72.6675074,18.8784595 L72.3051992,18.9761554 L72.6529225,19.1187637 C74.11975,19.7188295 75.9597667,19.8968583 77.0263188,19.5377911 C77.4270572,19.4012021 77.6701395,19.1817335 77.9680888,18.8914239 C79.8451465,19.0858897 81.6036728,20.6469405 82.6285537,21.9220804 C82.6285537,21.9225434 82.6838838,21.9850503 82.6838838,21.9850503 L82.7630592,21.960279 C82.8785811,21.9209229 83.0559154,21.7834078 83.1302291,21.7035379 L83.2024592,21.6252886 L83.1381003,21.539631 C82.0685386,20.1420241 80.3942808,19.2747993 80.3211247,19.2400733 C78.8140149,18.5057335 76.154464,17.9322909 72.6675074,18.8784595" id="Fill-21" fill="#FEFEFE"></path>
                <path d="M72.7450391,14.9760871 L72.7656432,15.0987857 C72.9855747,16.4815763 73.5467474,18.2954326 75.8819572,18.0947162 L76.0315107,18.0826778 L75.9942381,17.9368285 C75.8365819,17.3082873 73.6969953,15.4821611 72.9494596,14.9686788 L72.7255925,14.8524624 L72.7450391,14.9760871 Z" id="Fill-23" fill="#FEFEFE"></path>
                <path d="M89.2516644,2.18905955 L89.3132452,2.54558013 C89.5303987,3.8142378 90.0628645,4.91389545 90.772433,5.56304073 L90.9344879,5.71074211 C90.9344879,5.71074211 90.9905125,5.454464 90.9905125,5.45284345 C90.9905125,5.45284345 91.008107,5.3667229 91.0088016,5.36232427 C91.1872934,4.06264468 90.029759,2.87825551 89.5229904,2.42913218 L89.3873274,2.31013764 L89.2516644,2.18905955 Z" id="Fill-25" fill="#FEFEFE"></path>
                <path d="M91.6827181,4.39978814 L91.5600194,4.70884981 C91.2014153,5.62006087 91.0384344,7.66056246 91.1618276,8.63474338 L91.2727194,9.18549823 L91.3595345,9.07530096 C91.3595345,9.07530096 91.4421824,8.96741876 91.4419509,8.96834479 C92.186477,8.06199537 92.2126373,6.84866785 92.1022085,5.99070337 C92.0239592,5.38438687 91.8788044,4.92924436 91.798703,4.71232242 L91.7399003,4.55466624 L91.6827181,4.39978814 Z" id="Fill-27" fill="#FEFEFE"></path>
                <path d="M92.5873775,7.90426974 L92.3838829,8.1519821 C91.6689897,9.02684657 90.7133293,11.4680866 90.6841595,12.2862318 L90.6748992,12.5304716 C90.6748992,12.5304716 90.8797828,12.3978182 90.8797828,12.3966606 C92.6255761,11.2539427 92.6700254,9.09907672 92.6091391,8.22560128 L92.5971008,8.06493551 L92.5873775,7.90426974 Z" id="Fill-29" fill="#FEFEFE"></path>
                <path d="M92.3286222,11.7738608 L92.0748907,11.9347581 C90.9520824,12.6459472 89.2032795,14.8040543 88.8657424,15.7303133 L88.7752232,15.9747846 L89.0245561,15.8946832 C90.837718,15.3131379 92.0123839,13.3071309 92.2668099,12.0685691 L92.2992209,11.9208677 L92.3286222,11.7738608 Z" id="Fill-31" fill="#FEFEFE"></path>
                <path d="M88.5803176,4.04641605 L88.6733834,4.3682106 C88.9241053,5.2507148 89.807304,6.81315469 90.5256699,7.43197257 L90.7203671,7.59981505 L90.7363411,7.31760817 C90.8090343,6.08691763 90.1960041,5.07592711 88.862756,4.22606538 L88.7203793,4.13600921 L88.5803176,4.04641605 Z" id="Fill-33" fill="#FEFEFE"></path>
                <path d="M89.3469526,6.77657661 L89.3363033,7.05623691 C89.2990307,7.97948632 90.0058212,9.96419475 90.5408336,10.7163606 L90.6855254,10.9191606 L90.7658582,10.6839496 C90.8522103,10.4299866 90.9031418,10.1875989 90.9174952,9.96095366 C91.0154227,8.48856994 89.8965499,7.29908762 89.5502157,6.96965334 L89.4492787,6.87311497 L89.3469526,6.77657661 Z" id="Fill-35" fill="#FEFEFE"></path>
                <path d="M89.3169956,9.3156977 L89.2399038,9.5752169 C89.1704518,9.80927035 89.1294751,10.1530581 89.1195203,10.5681499 C89.0903504,11.7432788 89.2838901,13.2290899 89.5262778,13.6874735 L89.6265203,13.8733735 L89.7459779,13.6974283 C90.0983313,13.1770008 90.2846944,12.6162912 90.2992793,12.0303473 C90.3184944,11.2381308 90.0314258,10.3780827 89.4665491,9.54072238 L89.3917723,9.42821004 L89.3169956,9.3156977 Z" id="Fill-37" fill="#FEFEFE"></path>
                <path d="M88.6968582,12.0436821 L88.5489253,12.2397684 C88.0074307,12.9537356 87.3147621,15.2924181 87.2892964,16.2209921 C87.2892964,16.2209921 87.3022608,16.3923072 87.3034183,16.3962428 L87.3388388,16.6161744 C87.3388388,16.6161744 87.5020512,16.5133853 87.5022827,16.5133853 C88.4683609,15.8941044 88.9753609,15.0002564 89.0077719,13.8584645 C89.0216623,13.353548 88.9422555,12.8215452 88.7709404,12.2779671 L88.7334363,12.159667 L88.6968582,12.0436821 Z" id="Fill-39" fill="#FEFEFE"></path>
                <path d="M90.7092548,15.6652136 C90.7092548,15.6652136 90.4402438,15.7098944 90.4400123,15.7098944 C89.4493944,15.8717177 86.6479297,17.4522151 86.2168639,18.0930262 L86.1085187,18.2543865 L86.3006694,18.2881865 C88.610645,18.6919344 89.8424931,17.1193083 90.5696562,15.9004246 L90.6393397,15.7832821 L90.7092548,15.6652136 Z" id="Fill-41" fill="#FEFEFE"></path>
                <path d="M79.5728019,19.2399575 C79.4991827,19.2749151 77.8239989,20.1421398 76.7562892,21.5395153 L76.6912358,21.6251728 L76.763929,21.7034222 C76.8382427,21.7835235 77.0146509,21.9210386 77.1306358,21.9601633 L77.2095797,21.985166 C77.2095797,21.985166 77.2644468,21.9224277 77.2644468,21.9219647 C78.2881702,20.6470563 80.0464649,19.0857739 81.9244487,18.8915397 C82.2217035,19.1818493 82.4652487,19.4013178 82.8680707,19.5379069 C83.9334653,19.8967425 85.7723244,19.7189452 87.2412355,19.1186479 L87.5887274,18.9760397 L87.2261876,18.8783438 C83.738305,17.9321752 81.0787541,18.5056177 79.5728019,19.2399575" id="Fill-43" fill="#FEFEFE"></path>
                <path d="M87.1676395,14.8525318 L86.9437724,14.9687483 C86.1960052,15.4822305 84.0566501,17.3081253 83.8992255,17.9366664 L83.8626474,18.0827473 L84.0103488,18.0945541 C86.3462531,18.2955021 86.9076573,16.4816457 87.1280518,15.0988552 L87.1486559,14.9761565 L87.1676395,14.8525318 Z" id="Fill-45" fill="#FEFEFE"></path>
                <mask id="mask-2" fill="white">
                    <use xlink:href="#path-1"></use>
                </mask>
                <g id="Clip-48"></g>
                <path d="M27.6743317,19.4801459 L30.1558539,19.4801459 L30.1558539,6.36991163 L27.6743317,6.36991163 L27.6743317,19.4801459 Z M27.4405098,3.3140209 L30.3917594,3.3140209 L30.3917594,0.623216504 L27.4405098,0.623216504 L27.4405098,3.3140209 Z" id="Fill-47" fill="#FEFEFE" mask="url(#mask-2)"></path>
                <path d="M8.94410602,6.38127862 L11.4253967,6.38127862 L11.4253967,19.4924389 L8.99596356,19.4924389 L8.99596356,17.559125 L8.94410602,17.559125 C7.95117303,19.2049074 6.27969341,19.883454 4.4507891,19.883454 C1.70882169,19.883454 0.141751659,17.7945675 0.141751659,15.1565467 L0.141751659,6.38127862 L2.62373685,6.38127862 L2.62373685,14.1383794 C2.62373685,16.4110824 3.14578485,18.0818675 5.52243442,18.0818675 C6.54175919,18.0818675 7.92524426,17.559125 8.44706076,16.2027262 C8.91609368,14.9743508 8.94410602,13.433441 8.94410602,13.1199807 L8.94410602,6.38127862 Z" id="Fill-49" fill="#FEFEFE" mask="url(#mask-2)"></path>
                <path d="M16.3793428,8.31336554 L16.4318949,8.31336554 C17.2669402,6.6685092 19.0953815,5.98996255 20.4015433,5.98996255 C21.3150694,5.98996255 25.3634301,6.22494203 25.3634301,10.4295699 L25.3634301,19.4923695 L22.8835285,19.4923695 L22.8835285,11.2396124 C22.8835285,9.07155055 21.9686133,7.89711618 19.8792638,7.89711618 C19.8792638,7.89711618 18.5198554,7.81863535 17.4759909,8.86296286 C17.1113676,9.22781769 16.4318949,9.80241775 16.4318949,12.3624208 L16.4318949,19.4923695 L13.9503727,19.4923695 L13.9503727,6.38120917 L16.3793428,6.38120917 L16.3793428,8.31336554 Z" id="Fill-50" fill="#FEFEFE" mask="url(#mask-2)"></path>
                <path d="M40.5456972,10.5867167 C40.4155903,8.95135218 39.6388847,7.81187535 37.8731818,7.81187535 C35.5141268,7.81187535 34.6043048,9.85816461 34.6043048,12.9223896 C34.6043048,15.9842995 35.5141268,18.0352189 37.8731818,18.0352189 C39.5062313,18.0352189 40.5181479,16.9744544 40.6470972,15.1024898 L43.115192,15.1024898 C42.9047522,18.0352189 40.7269671,19.824304 37.8456325,19.824304 C33.6692485,19.824304 32.0091127,16.8679612 32.0091127,13.0261047 C32.0091127,9.20693577 33.9278417,6.01792858 38.0569983,6.01792858 C40.8072999,6.01792858 42.88137,7.75909178 43.0073098,10.5867167 L40.5456972,10.5867167 Z" id="Fill-51" fill="#FEFEFE" mask="url(#mask-2)"></path>
                <path d="M53.4107194,11.6779012 C53.4628084,9.49895854 52.4745056,7.81173644 50.0876697,7.81173644 C48.0353613,7.81173644 46.8201817,9.5447969 46.8201817,11.6779012 L53.4107194,11.6779012 Z M46.8201817,13.3880425 C46.6384488,15.6723208 47.5728105,18.03508 50.0876697,18.03508 C52.0084822,18.03508 52.9680782,17.2838402 53.2519056,15.3845578 L55.8501073,15.3845578 C55.4590922,18.3476143 53.1750454,19.8241651 50.063593,19.8241651 C45.8851254,19.8241651 44.2217485,16.8680538 44.2217485,13.0261973 C44.2217485,9.20679687 46.1460337,6.01802119 50.2707916,6.01802119 C54.1614961,6.09904859 56.0024388,8.56112419 56.0024388,12.1719369 L56.0024388,13.3880425 L46.8201817,13.3880425 Z" id="Fill-52" fill="#FEFEFE" mask="url(#mask-2)"></path>
                <path d="M58.7960786,19.4354188 L58.7960786,8.12214086 L56.5543975,8.12214086 L56.5543975,6.4057489 L58.7960786,6.4057489 L58.7960786,3.60659929 C58.8764114,0.751193504 61.0268788,-4.63013748e-05 62.8701365,-4.63013748e-05 C63.4658037,-4.63013748e-05 64.0394777,0.154137277 64.6381545,0.256694822 L64.6381545,2.30622518 C64.2186641,2.28423202 63.8049613,2.22704983 63.3880174,2.22704983 C61.9899474,2.22704983 61.1843035,2.59445123 61.2607007,4.01937604 L61.2607007,6.4057489 L64.2716791,6.4057489 L64.2716791,8.12214086 L61.2607007,8.12214086 L61.2607007,19.4354188 L58.7960786,19.4354188 Z" id="Fill-53" fill="#FEFEFE" mask="url(#mask-2)"></path>
                <polygon id="Fill-54" fill="#FEFEFE" mask="url(#mask-2)" points="0.0914452152 28.9691496 91.7051974 28.9691496 91.7051974 28.4702523 0.0914452152 28.4702523"></polygon>
                <path d="M3.78571615,45.4794791 C5.63036293,45.4794791 6.09569174,43.4422186 6.09569174,41.9503883 C6.09569174,40.4104046 5.46992866,38.7102181 3.64125587,38.7102181 C1.76466115,38.7102181 1.04259121,40.2659443 1.04259121,41.9022349 C1.04259121,43.7309076 1.68432826,45.4794791 3.78571615,45.4794791 L3.78571615,45.4794791 Z M1.04259121,49.2009521 L0.0802171318,49.2009521 L0.0802171318,39.8809483 C0.0961911061,39.2554168 0.032063702,38.6139112 -0.000115753437,38.068481 L0.994437777,38.068481 L1.04259121,39.2554168 L1.07477066,39.2875962 C1.63617483,38.3411961 2.75898317,37.8277139 3.83386958,37.8277139 C6.22394655,37.8277139 7.13816719,39.9772552 7.13816719,42.0626691 C7.13816719,44.0839556 6.22394655,46.3617518 3.88202301,46.3617518 C2.71082974,46.3617518 1.73248169,45.8322955 1.07477066,44.8699215 L1.04259121,44.8699215 L1.04259121,49.2009521 Z" id="Fill-55" fill="#FEFEFE" mask="url(#mask-2)"></path>
                <path d="M10.8550564,45.4794791 C12.9564442,45.4794791 13.3574142,43.7471131 13.2613388,42.0626691 C11.8977633,42.1108225 9.04235753,41.8540814 9.04235753,43.8753679 C9.04235753,44.9659968 9.8764768,45.4794791 10.8550564,45.4794791 L10.8550564,45.4794791 Z M13.2613388,40.442584 C13.1650319,39.127162 12.4911154,38.7102181 11.3523331,38.7102181 C10.3418056,38.7102181 9.50768635,39.0148811 9.37920003,40.1057415 L8.35269856,40.1057415 C8.5932342,38.4532454 9.82832337,37.8277139 11.3683071,37.8277139 C13.149058,37.8277139 14.2556608,38.6458592 14.2237129,40.4905059 L14.2237129,44.3082858 C14.2075074,44.9340489 14.2718663,45.5757859 14.3038143,46.1209846 L13.3094922,46.1209846 L13.2773128,44.9340489 L13.2451333,44.9340489 L13.1969799,45.0463297 C12.8441634,45.7200147 11.7695085,46.3617518 10.6786481,46.3617518 C9.18681782,46.3617518 7.99988208,45.4472996 7.99988208,43.8753679 C7.99988208,42.7845075 8.6573616,41.9503883 9.61996718,41.5491869 C10.6946221,41.0843211 12.0901455,41.2445238 13.2613388,41.1803964 L13.2613388,40.442584 Z" id="Fill-56" fill="#FEFEFE" mask="url(#mask-2)"></path>
                <path d="M17.0517082,46.1211004 L16.0893342,46.1211004 L16.0893342,39.8810641 C16.1053081,39.2555325 16.0411807,38.6137955 16.0090013,38.0685968 L17.0035548,38.0685968 L17.0517082,39.2555325 L17.0838877,39.2555325 C17.3725768,38.4373872 18.0944152,37.8597776 18.896355,37.8278296 C19.2172235,37.8116241 19.5380921,37.8278296 19.8587291,37.8438036 L19.8587291,38.7742297 C19.6663469,38.7582558 19.4579907,38.7101023 19.265377,38.7101023 C17.8376741,38.7101023 17.0838877,39.7368353 17.0517082,41.2765875 L17.0517082,46.1211004 Z" id="Fill-57" fill="#FEFEFE" mask="url(#mask-2)"></path>
                <path d="M23.0028239,45.4794791 C25.1042118,45.4794791 25.5051817,43.7471131 25.4091064,42.0626691 C24.0455309,42.1108225 21.1901251,41.8540814 21.1901251,43.8753679 C21.1901251,44.9659968 22.0242444,45.4794791 23.0028239,45.4794791 L23.0028239,45.4794791 Z M25.4091064,40.442584 C25.3127995,39.127162 24.638883,38.7102181 23.5001007,38.7102181 C22.4895732,38.7102181 21.6554539,39.0148811 21.5269676,40.1057415 L20.5004661,40.1057415 C20.7410018,38.4532454 21.976091,37.8277139 23.5160747,37.8277139 C25.2968256,37.8277139 26.4034284,38.6458592 26.3714805,40.4905059 L26.3714805,44.3082858 C26.355275,44.9340489 26.4196339,45.5757859 26.4515818,46.1209846 L25.4572598,46.1209846 L25.4250804,44.9340489 L25.3929009,44.9340489 L25.3447475,45.0463297 C24.991931,45.7200147 23.9172761,46.3617518 22.8264157,46.3617518 C21.3345854,46.3617518 20.1476497,45.4472996 20.1476497,43.8753679 C20.1476497,42.7845075 20.8051292,41.9503883 21.7677348,41.5491869 C22.8423897,41.0843211 24.2379131,41.2445238 25.4091064,41.1803964 L25.4091064,40.442584 Z" id="Fill-58" fill="#FEFEFE" mask="url(#mask-2)"></path>
                <path d="M36.4935398,40.5387057 C36.4132069,39.3036165 35.627241,38.7102644 34.295845,38.7102644 C32.8199887,38.7102644 31.905768,40.2500166 31.905768,42.0786894 C31.905768,43.9233362 32.8199887,45.4795254 34.295845,45.4795254 C35.5471397,45.4795254 36.4132069,44.7095335 36.4935398,43.6024676 L37.5362467,43.6024676 C37.2795056,45.4473459 36.2208247,46.3615666 34.3921519,46.3615666 C31.9858694,46.3615666 30.8630611,44.2923581 30.8630611,42.0948949 C30.8630611,39.9131741 32.0662023,37.8277602 34.4562793,37.8277602 C36.1085438,37.8277602 37.4559138,38.8223137 37.5362467,40.5387057 L36.4935398,40.5387057 Z" id="Fill-59" fill="#FEFEFE" mask="url(#mask-2)"></path>
                <path d="M41.2545712,45.4794791 C43.3559591,45.4794791 43.756929,43.7471131 43.6608537,42.0626691 C42.2972782,42.1108225 39.4418724,41.8540814 39.4418724,43.8753679 C39.4418724,44.9659968 40.2759917,45.4794791 41.2545712,45.4794791 L41.2545712,45.4794791 Z M43.6608537,40.442584 C43.5645468,39.127162 42.8906303,38.7102181 41.751848,38.7102181 C40.7413205,38.7102181 39.9072012,39.0148811 39.7787149,40.1057415 L38.7522134,40.1057415 C38.9927491,38.4532454 40.2278382,37.8277139 41.767822,37.8277139 C43.5485728,37.8277139 44.6551757,38.6458592 44.6232277,40.4905059 L44.6232277,44.3082858 C44.6070223,44.9340489 44.6713812,45.5757859 44.7033291,46.1209846 L43.7090071,46.1209846 L43.6768276,44.9340489 L43.6446482,44.9340489 L43.5964948,45.0463297 C43.2436783,45.7200147 42.1690234,46.3617518 41.078163,46.3617518 C39.5863327,46.3617518 38.3993969,45.4472996 38.3993969,43.8753679 C38.3993969,42.7845075 39.0568765,41.9503883 40.019482,41.5491869 C41.094137,41.0843211 42.4896604,41.2445238 43.6608537,41.1803964 L43.6608537,40.442584 Z" id="Fill-60" fill="#FEFEFE" mask="url(#mask-2)"></path>
                <path d="M49.4851499,38.7101718 C47.6564771,38.7101718 47.063125,40.4105898 47.063125,41.950342 C47.063125,43.4421723 47.4960428,45.4794328 49.3406896,45.4794328 C51.442309,45.4794328 52.0838146,43.7308613 52.0838146,41.9021885 C52.0838146,40.2661295 51.3619761,38.7101718 49.4851499,38.7101718 L49.4851499,38.7101718 Z M52.115994,44.9340026 L52.0838146,44.8698752 C51.4261035,45.8324807 50.4477555,46.3617055 49.3247156,46.3617055 C46.9346387,46.3617055 46.020418,44.0839093 46.020418,42.0626228 C46.020418,39.9774404 46.9346387,37.8276676 49.3247156,37.8276676 C50.3996021,37.8276676 51.5224104,38.3411498 52.0838146,39.2875499 L52.115994,39.2553705 L52.115994,34.5393439 L53.0783681,34.5393439 L53.0783681,44.308471 C53.0783681,44.9340026 53.1265215,45.5757396 53.158701,46.1211698 L52.1641474,46.1211698 L52.115994,44.9340026 Z" id="Fill-61" fill="#FEFEFE" mask="url(#mask-2)"></path>
                <path d="M57.2154422,45.4794791 C59.3168301,45.4794791 59.7178,43.7471131 59.6217247,42.0626691 C58.2581492,42.1108225 55.4027434,41.8540814 55.4027434,43.8753679 C55.4027434,44.9659968 56.2368627,45.4794791 57.2154422,45.4794791 L57.2154422,45.4794791 Z M59.6217247,40.442584 C59.5254178,39.127162 58.8515013,38.7102181 57.712719,38.7102181 C56.7021915,38.7102181 55.8680722,39.0148811 55.7395859,40.1057415 L54.7130844,40.1057415 C54.9536201,38.4532454 56.1887092,37.8277139 57.728693,37.8277139 C59.5094438,37.8277139 60.6160467,38.6458592 60.5840987,40.4905059 L60.5840987,44.3082858 C60.5678933,44.9340489 60.6322522,45.5757859 60.6642001,46.1209846 L59.6698781,46.1209846 L59.6376986,44.9340489 L59.6055192,44.9340489 L59.5573658,45.0463297 C59.2045493,45.7200147 58.1298944,46.3617518 57.039034,46.3617518 C55.5472037,46.3617518 54.360268,45.4472996 54.360268,43.8753679 C54.360268,42.7845075 55.0177475,41.9503883 55.9803531,41.5491869 C57.055008,41.0843211 58.4505314,41.2445238 59.6217247,41.1803964 L59.6217247,40.442584 Z" id="Fill-62" fill="#FEFEFE" mask="url(#mask-2)"></path>
                <path d="M66.5834373,46.1211004 L65.6208317,46.1211004 L65.6208317,39.8810641 C65.6208317,39.2555325 65.5729098,38.6137955 65.5407304,38.0685968 L66.5352839,38.0685968 L66.5834373,39.2555325 L66.6156168,39.2874805 C67.1767894,38.2931584 68.0912416,37.8278296 69.1339486,37.8278296 C71.7647927,37.8278296 71.9731489,40.1537792 71.9731489,41.0842053 L71.9731489,46.1211004 L71.0107748,46.1211004 L71.0107748,40.923771 C71.0107748,39.5280161 70.208835,38.7101023 68.8934129,38.7101023 C67.3052758,38.7101023 66.5834373,40.0414984 66.5834373,41.4854067 L66.5834373,46.1211004 Z" id="Fill-63" fill="#FEFEFE" mask="url(#mask-2)"></path>
                <path d="M73.8483777,46.1210309 L74.8109833,46.1210309 L74.8109833,38.0685273 L73.8483777,38.0685273 L73.8483777,46.1210309 Z M73.7682763,35.7423463 L74.8910846,35.7423463 L74.8910846,34.5394365 L73.7682763,34.5394365 L73.7682763,35.7423463 Z" id="Fill-64" fill="#FEFEFE" mask="url(#mask-2)"></path>
                <path d="M82.1031025,34.9725859 C81.9266943,35.6941928 81.461597,36.3361614 80.6434517,36.3361614 C80.4026845,36.3361614 80.1781229,36.2718025 79.9216133,36.1595216 C79.6808461,36.0791888 79.392157,35.9993189 79.0553145,35.9993189 C78.734446,35.9993189 78.3816295,36.1435477 78.3012967,36.4641847 L77.6917391,36.4641847 C77.8843528,35.5821435 78.4777049,35.0364818 79.4243365,35.1809421 C79.5685653,35.1971476 79.8253064,35.2772489 80.065842,35.3573503 C80.3063777,35.4214777 80.5631188,35.5018106 80.6913736,35.5018106 C81.0603956,35.5018106 81.3650586,35.3094284 81.4935449,34.9725859 L82.1031025,34.9725859 Z M77.6757651,46.1210309 L76.713391,46.1210309 L76.713391,39.8809946 C76.713391,39.2554631 76.6812115,38.6299315 76.6330581,38.0685273 L77.6276116,38.0685273 L77.6757651,39.2554631 L77.7079445,39.2876425 C78.2691172,38.2768835 79.1835693,37.8277602 80.2262763,37.8277602 C82.8571204,37.8277602 83.0654766,40.1537097 83.0654766,41.0841359 L83.0654766,46.1210309 L82.1031025,46.1210309 L82.1031025,40.9237016 C82.1031025,39.5119727 81.3171367,38.7102644 79.9857407,38.7102644 C78.3976035,38.7102644 77.6757651,40.0416604 77.6757651,41.4853373 L77.6757651,46.1210309 Z" id="Fill-65" fill="#FEFEFE" mask="url(#mask-2)"></path>
                <path d="M88.2179167,38.7101718 C86.2769631,38.7101718 85.5069713,40.602972 85.5069713,42.0948023 C85.5069713,43.5864011 86.2769631,45.4794328 88.2179167,45.4794328 C90.1588704,45.4794328 90.9288622,43.5864011 90.9288622,42.0948023 C90.9288622,40.602972 90.1588704,38.7101718 88.2179167,38.7101718 M91.9715692,42.0948023 C91.9715692,44.2123956 90.7844019,46.3617055 88.2179167,46.3617055 C85.6514315,46.3617055 84.4642643,44.2123956 84.4642643,42.0948023 C84.4642643,39.9774404 85.6514315,37.8276676 88.2179167,37.8276676 C90.7844019,37.8276676 91.9715692,39.9774404 91.9715692,42.0948023" id="Fill-66" fill="#FEFEFE" mask="url(#mask-2)"></path>
            </g>
        </g>
    </g>
</svg>