<?xml version="1.0" encoding="UTF-8" standalone="no"?>
<svg width="149px" height="201px" viewBox="0 0 149 201" version="1.1" xmlns="http://www.w3.org/2000/svg" xmlns:xlink="http://www.w3.org/1999/xlink">
    <!-- Generator: Sketch 41.2 (35397) - http://www.bohemiancoding.com/sketch -->
    <title>Group 4</title>
    <desc>Created with Sketch.</desc>
    <defs>
        <polygon id="path-1" points="0.340597015 200.758242 138.219701 200.758242 138.219701 0.697010989 0.340597015 0.697010989"></polygon>
    </defs>
    <g id="Page-1" stroke="none" stroke-width="1" fill="none" fill-rule="evenodd">
        <g id="Paso-1-Copy-57" transform="translate(-864.000000, -497.000000)">
            <g id="Group-4" transform="translate(864.000000, 496.000000)">
                <g id="Group-3" transform="translate(9.955224, 0.544747)">
                    <mask id="mask-2" fill="white">
                        <use xlink:href="#path-1"></use>
                    </mask>
                    <g id="Clip-2"></g>
                    <path d="M138.219701,196.986932 C93.2644776,198.244558 48.3092537,199.499943 3.35402985,200.759811 C3.64955224,161.520075 3.39656716,122.289305 2.60179104,83.0675033 C2.08014925,57.4105802 1.32567164,31.7603824 0.340597015,6.11466813 C24.2846269,1.34644835 57.5197015,-2.09689231 96.0271642,3.85273407 C111.470448,6.23796484 125.337612,9.75976703 137.465224,13.6604264 C132.918209,55.5611297 130.957015,102.117965 133.697313,152.476822 C134.460746,166.481086 135.551045,180.093042 136.91,193.29924 L138.219701,196.986932 Z" id="Fill-1" fill="#FA589A" mask="url(#mask-2)"></path>
                </g>
                <path d="M137.879552,195.016426 C92.9243284,196.274053 47.9691045,197.531679 3.0138806,198.789305 C3.30716418,159.549569 3.05641791,120.3188 2.26164179,81.0992396 C1.74,55.4400747 0.985522388,29.7898769 0.000447761194,4.14416264 C58.8832836,6.01378901 64.6414925,-0.39763956 95.6847761,1.88447033 C111.271343,3.02552527 124.997463,7.78926154 137.125075,11.6899209 C132.57806,53.5928659 130.614627,100.147459 133.357164,150.506316 C134.120597,164.51058 135.210896,178.124778 136.569851,191.328734 L137.879552,195.016426 Z" id="Fill-4" fill="#FEC70D"></path>
                <polygon id="Fill-8" fill="#FFFFFF" points="29.6122388 49.1662901 28.7323881 99.536356 107.858507 99.536356 106.248806 51.5694549"></polygon>
                <path d="M42.5202985,117.099859 L42.2807463,119.054673 C42.2807463,119.054673 91.1852239,120.361618 96.8292537,116.839815 C97.1807463,116.620123 97.4135821,116.431815 97.53,116.272651 C99.2673134,113.876211 74.9695522,117.956211 42.5202985,117.099859" id="Fill-10" fill="#49B172"></path>
                <path d="M41.289403,127.109086 L41.0498507,129.063899 C41.0498507,129.063899 89.9565672,130.373086 95.5983582,126.849042 C95.9498507,126.629349 96.1826866,126.443284 96.2991045,126.284119 C98.0364179,123.885437 73.7386567,127.967679 41.289403,127.109086" id="Fill-12" fill="#49B172"></path>
                <path d="M38.8459701,137.389565 C38.8459701,137.389565 87.7526866,138.69651 93.3944776,135.174708 C93.7459701,134.955015 93.978806,134.768949 94.0974627,134.609785 C95.8347761,132.211103 71.5347761,136.291103 39.0855224,135.434752 L38.8459701,137.389565 Z" id="Fill-14" fill="#49B172"></path>
            </g>
        </g>
    </g>
</svg>