<?xml version="1.0" encoding="UTF-8" standalone="no"?>
<svg width="379px" height="324px" viewBox="0 0 379 324" version="1.1" xmlns="http://www.w3.org/2000/svg" xmlns:xlink="http://www.w3.org/1999/xlink">
    <!-- Generator: Sketch 41.2 (35397) - http://www.bohemiancoding.com/sketch -->
    <title>Group 2</title>
    <desc>Created with Sketch.</desc>
    <defs>
        <polygon id="path-1" points="0.0226800011 12.8289474 17.6589085 12.8289474 17.6589085 0.524703947 0.0226800011 0.524703947 0.0226800011 12.8289474"></polygon>
        <polygon id="path-3" points="0.456520085 12.8289474 18.0934608 12.8289474 18.0934608 0.524703947 0.456520085 0.524703947 0.456520085 12.8289474"></polygon>
        <polygon id="path-5" points="72.0224929 87.074497 72.0224929 0.167839884 0.466546324 0.167839884 0.466546324 87.074497 72.0224929 87.074497"></polygon>
        <polygon id="path-7" points="0 243.405222 378.078429 243.405222 378.078429 0 0 0"></polygon>
    </defs>
    <g id="Page-1" stroke="none" stroke-width="1" fill="none" fill-rule="evenodd">
        <g id="Paso-1-Copy-57" transform="translate(-747.000000, -126.000000)">
            <g id="Group-2" transform="translate(747.000000, 126.000000)">
                <g id="Group" transform="translate(0.000000, 80.412371)">
                    <path d="M256.213525,97.869153 L253.540743,128.738808 C253.540743,128.738808 252.577709,131.5275 252.045716,134.324211 C251.404761,137.695016 250.353595,140.336176 250.763806,140.502952 C251.617879,140.850938 253.409348,136.062533 253.409348,136.062533 C253.409348,136.062533 251.656336,143.694153 252.229991,143.950732 C253.651308,144.588972 254.57909,136.530789 254.57909,136.530789 C254.57909,136.530789 254.513392,144.111094 255.173576,144.064589 C256.516376,143.969975 256.096551,136.878775 256.096551,136.878775 L256.359342,136.873964 C256.359342,136.873964 257.354425,142.932434 258.234135,142.813766 C259.639429,142.626143 257.745407,137.305337 257.315967,135.518906 C257.181367,134.964054 256.985876,133.422977 257.891224,133.312327 C258.851054,133.19366 258.738887,136.912451 259.855751,136.851513 C260.82199,136.795387 260.08329,133.196867 259.307734,131.697484 C259.059364,131.218002 258.45206,129.271209 258.45206,129.271209 L264.364868,98.5683306 L256.213525,97.869153 Z" id="Fill-1" fill="#893732"></path>
                    <path d="M310.674336,96.472241 L305.799874,127.070884 C305.799874,127.070884 306.057859,130.010317 305.89762,132.853532 C305.703731,136.277257 306.083497,139.096419 305.646045,139.15896 C304.732685,139.288853 304.154223,134.20859 304.154223,134.20859 C304.154223,134.20859 304.008406,142.039058 303.389884,142.148104 C301.8564,142.422323 302.904361,134.380177 302.904361,134.380177 C302.904361,134.380177 301.135326,141.748803 300.505588,141.545144 C299.22528,141.129807 301.348443,134.349708 301.348443,134.349708 L301.095266,134.280752 C301.095266,134.280752 298.662842,139.917471 297.837613,139.590333 C296.520451,139.067553 299.645106,134.364141 300.494371,132.733261 C300.758765,132.229725 301.322805,130.781657 300.470335,130.452915 C299.566589,130.108137 298.776612,133.741937 297.70782,133.409988 C296.783242,133.12294 298.371208,129.813072 299.488072,128.544609 C299.843802,128.138894 300.904582,126.397364 300.904582,126.397364 L302.596703,95.1749137 L310.674336,96.472241 Z" id="Fill-3" fill="#893732"></path>
                    <path d="M301.392509,76.2108429 C304.456273,74.9423808 304.404997,45.2930798 305.297526,36.5838281 C305.890409,30.8075946 304.022026,23.6554564 301.813937,16.4696423 C300.697073,12.8374465 297.878474,9.23892681 296.170329,7.32741365 C290.884054,1.41006168 288.544569,2.11405016 283.942513,1.97293174 C279.340458,1.83181332 272.541529,4.22280839 269.811061,8.34410773 C262.230168,19.7859252 262.364769,33.2835814 262.236578,38.8545518 C262.158061,42.3744942 257.475886,74.5719449 262.214144,76.2108429 C270.517714,79.0861308 295.458869,78.6659827 301.392509,76.2108429" id="Fill-5" fill="#FF645B"></path>
                    <path d="M292.619279,135.785909 C295.34494,148.019914 292.619279,236.294297 292.619279,236.294297 L286.650387,236.294297 C286.650387,236.294297 279.067891,145.255275 282.95368,135.798738 C284.089773,133.030892 291.947879,132.774313 292.619279,135.785909" id="Fill-7" fill="#893732"></path>
                    <path d="M279.790087,139.038528 C281.765831,146.695806 278.666814,241.134498 278.666814,241.134498 L273.914134,241.134498 C273.914134,241.134498 265.113824,147.221793 270.170958,139.845148 C271.768538,137.513487 279.025749,136.079852 279.790087,139.038528" id="Fill-9" fill="#893732"></path>
                    <polygon id="Fill-11" fill="#000000" points="269.896308 189.0169 280.047431 189.0169 278.978639 232.223191 273.142745 232.223191"></polygon>
                    <polygon id="Fill-13" fill="#000000" points="283.299155 189.0169 293.666599 189.0169 292.618638 236.53051 286.689806 235.334211"></polygon>
                    <polygon id="Fill-15" fill="#FFFFFF" points="269.896308 190.952627 269.896308 191.550777 280.047431 191.911591 280.047431 191.432109"></polygon>
                    <polygon id="Fill-17" fill="#FFFFFF" points="293.558118 192.867829 293.558118 192.269679 283.408598 191.910469 283.408598 192.388347"></polygon>
                    <g id="Group-21" transform="translate(263.628129, 230.576275)">
                        <mask id="mask-2" fill="white">
                            <use xlink:href="#path-1"></use>
                        </mask>
                        <g id="Clip-20"></g>
                        <path d="M8.03657397,0.524703947 L17.6589085,0.524703947 L16.2696389,8.65184211 L16.3753964,12.8292681 L0.23134641,12.8292681 C0.23134641,12.8292681 -0.23815301,10.6788158 0.23134641,10.2330099 C1.59337544,8.94049342 6.2066479,10.5473191 7.60873661,8.86993421 C9.0637041,7.12840461 8.03657397,0.524703947 8.03657397,0.524703947" id="Fill-19" fill="#000000" mask="url(#mask-2)"></path>
                    </g>
                    <g id="Group-24" transform="translate(283.622517, 230.576275)">
                        <mask id="mask-4" fill="white">
                            <use xlink:href="#path-3"></use>
                        </mask>
                        <g id="Clip-23"></g>
                        <path d="M10.0788546,0.524703947 L0.456520085,0.524703947 L1.84739209,8.65184211 L1.74003215,12.8292681 L17.8840822,12.8292681 C17.8840822,12.8292681 18.355184,10.6788158 17.8840822,10.2330099 C16.5220531,8.94049342 11.9087807,10.5473191 10.506692,8.86993421 C9.05172448,7.12840461 10.0788546,0.524703947 10.0788546,0.524703947" id="Fill-22" fill="#000000" mask="url(#mask-4)"></path>
                    </g>
                    <path d="M305.128474,57.1271423 C301.555151,54.1187541 285.255669,48.9951933 285.255669,48.9951933 C285.255669,48.9951933 287.220196,57.014889 283.539513,57.014889 C279.789927,57.014889 279.789927,50.4143956 279.789927,50.4143956 C279.789927,50.4143956 269.444916,53.2736472 266.533379,55.308639 C251.913199,65.5268956 251.913199,128.358269 251.913199,128.358269 L260.011663,129.081501 C260.011663,129.081501 265.623223,89.4143956 266.719256,80.8398479 C266.858663,79.7558018 266.759315,78.9539926 267.281693,78.9539926 C267.594159,78.9539926 267.911432,79.1656702 267.877781,79.7846669 C267.538075,86.2039515 266.961216,98.2134498 266.961216,98.2134498 L269.744562,101.470399 L290.380103,102.086188 L299.194835,98.1845847 C299.194835,98.1845847 299.853416,78.2115173 300.316506,72.8602426 C300.343746,72.547537 299.746056,76.42669 299.75567,76.7313775 C300.103388,87.9551028 301.008737,124.482323 301.008737,124.482323 L306.564213,126.757858 C306.564213,126.757858 318.599743,68.4679317 305.128474,57.1271423" id="Fill-25" fill="#FFFFFF"></path>
                    <path d="M269.859614,53.1791941 C270.928406,52.8007401 274.043446,51.9363898 274.043446,51.9363898 C274.043446,51.9363898 274.440838,62.2733141 276.918129,64.2249178 C279.347348,66.1412418 286.86735,66.0706826 289.288557,64.1463405 C291.855581,62.1049342 292.3379,51.3863487 292.3379,51.3863487 L298.627269,53.5063322 C298.627269,53.5063322 298.668931,81.4574013 299.194514,90.7599918 C300.093454,106.68713 305.408572,154.312993 305.408572,154.312993 L259.077151,155.903783 C259.077151,155.903783 263.740097,107.283676 266.960895,90.7599918 C268.197938,84.4080592 268.603342,65.0203125 268.603342,65.0203125 L266.900005,54.5743421 C266.900005,54.5743421 268.326129,53.7228207 269.859614,53.1791941" id="Fill-27" fill="#000000"></path>
                    <path d="M287.118925,43.2051686 C285.157603,44.1256456 280.895254,44.7189844 277.847513,42.3231785 C277.727334,42.2301686 274.605884,38.6540995 273.434539,33.0703002 C272.261592,27.48169 273.509852,21.3895436 273.908846,19.038639 C273.908846,19.038639 274.66357,18.5142558 279.696668,18.5142558 C282.75242,18.5142558 286.455537,18.6072656 288.078755,18.7387623 C295.023501,19.3000288 296.106714,19.3112541 296.106714,19.3112541 C296.257339,19.9959992 296.153184,28.0926686 295.723744,30.8621176 C294.624506,37.9485074 290.908571,41.4283594 287.118925,43.2051686" id="Fill-29" fill="#893732"></path>
                    <path d="M284.730247,40.239116 L284.730247,48.9948725 C284.730247,48.9948725 288.034369,59.6958183 281.656868,59.6958183 C276.808045,59.6958183 278.017847,50.4156785 278.017847,50.4156785 L278.202122,48.2588117 L278.588297,40.239116 L284.730247,40.239116 Z" id="Fill-31" fill="#893732"></path>
                    <path d="M168.970277,228.457574 L168.970277,237.213331 C168.970277,237.213331 181.787772,233.975625 183.367726,237.213331 C185.506912,241.589605 179.852088,242.870896 179.852088,242.870896 L157.477957,242.870896 L159.048297,231.073076 L168.970277,228.457574 Z" id="Fill-33" fill="#000000"></path>
                    <path d="M133.524513,228.991579 L133.524513,237.747336 C133.524513,237.747336 120.707019,234.50963 119.127065,237.747336 C116.987879,242.12361 122.642703,243.404901 122.642703,243.404901 L145.016834,243.404901 L143.446494,231.607081 L133.524513,228.991579 Z" id="Fill-35" fill="#000000"></path>
                    <path d="M162.231278,50.2319038 C161.954065,55.6473232 155.897042,58.1265173 152.705087,57.8474877 C146.300346,57.2846176 141.401848,54.5119613 141.699892,49.8775041 C141.800843,48.3219942 143.96727,43.565662 144.042582,42.6836719 C144.042582,42.6836719 138.716248,36.6893462 137.206799,26.4422245 C136.057887,18.6245847 134.747135,14.1697327 138.222712,10.394815 C147.3435,0.487660362 156.874498,6.11315378 158.774929,6.52207648 C160.67536,6.93099918 164.823941,13.2684992 165.107563,22.5101521 C165.107563,22.5101521 166.129886,33.0908265 158.359911,43.4934992 C158.359911,43.4934992 162.290567,49.0901275 162.231278,50.2319038" id="Fill-37" fill="#D69C85"></path>
                    <polygon id="Fill-39" fill="#1E1E1E" points="177.648005 130.032286 171.850568 231.980724 156.528543 231.980724 153.254866 154.019211 144.557109 231.980724 128.481961 231.980724 129.922507 130.032286"></polygon>
                    <path d="M189.93591,131.05331 L188.227766,140.691057 C188.227766,140.691057 188.504979,144.653598 188.222958,148.476624 C187.883252,153.082216 188.328716,156.884396 187.739038,156.958162 C186.505199,157.112109 185.845016,150.263055 185.845016,150.263055 C185.845016,150.263055 185.46525,160.798828 184.630407,160.931928 C182.55852,161.263877 184.159305,150.463507 184.159305,150.463507 C184.159305,150.463507 181.6051,160.341797 180.762244,160.051542 C179.049292,159.459807 182.066587,150.38493 182.066587,150.38493 L181.726881,150.287109 C181.726881,150.287109 178.320206,157.816098 177.217764,157.355859 C175.455138,156.621402 179.773571,150.364083 180.956133,148.19118 C181.321477,147.516057 182.114659,145.580489 180.975362,145.118647 C179.767162,144.632751 178.61825,149.506147 177.187319,149.036287 C175.948673,148.627364 178.164775,144.206188 179.696657,142.525596 C180.186987,141.988384 181.654774,139.669552 181.654774,139.669552 L182.345403,130.031805 L189.93591,131.05331 Z" id="Fill-41" fill="#D69C85"></path>
                    <path d="M116.628944,125.501743 L118.337088,135.141094 C118.337088,135.141094 118.059876,139.102031 118.341896,142.925058 C118.681602,147.53065 118.236138,151.334433 118.827419,151.408199 C120.061257,151.562146 120.719838,144.711488 120.719838,144.711488 C120.719838,144.711488 121.099604,155.247262 121.93605,155.380362 C124.006334,155.712311 122.405549,144.911941 122.405549,144.911941 C122.405549,144.911941 124.961357,154.79023 125.804212,154.499975 C127.517164,153.909844 124.499869,144.834967 124.499869,144.834967 L124.839575,144.735543 C124.839575,144.735543 128.24625,152.264531 129.34709,151.804293 C131.109716,151.069836 126.792885,144.812516 125.610324,142.639613 C125.243377,141.966094 124.450195,140.028923 125.589492,139.568684 C126.797692,139.081184 127.946604,143.956184 129.379138,143.48472 C130.616181,143.077401 128.401682,138.654622 126.8698,136.975633 C126.379469,136.438421 124.91008,134.117985 124.91008,134.117985 L124.219452,124.481842 L116.628944,125.501743 Z" id="Fill-43" fill="#D69C85"></path>
                    <path d="M163.377626,48.4576604 C163.377626,48.4576604 176.959459,50.606509 184.013167,58.5347985 C197.231258,73.3955304 189.93559,139.93447 189.93559,139.93447 C189.93559,139.93447 181.763416,140.814856 180.53118,138.704494 C180.53118,138.704494 180.385363,92.6485732 178.252585,92.6485732 C176.77198,92.6485732 178.891938,125.853096 177.361658,131.826575 C174.334749,143.635621 136.6434,141.49479 129.639366,132.147299 C128.368673,130.45067 130.882818,86.7296176 130.882818,86.7296176 L126.56118,134.039568 L116.629585,135.654412 C116.629585,135.654412 107.5104,69.266213 126.731033,53.5427344 C129.100964,51.6023561 141.283913,48.6757525 141.283913,48.6757525 L153.064663,60.5296998 L163.377626,48.4576604 Z" id="Fill-45" fill="#000000"></path>
                    <polygon id="Fill-47" fill="#FFFFFF" points="152.253214 50.4214515 144.042582 42.6839926 141.283272 48.675111 144.765259 58.736213 153.54634 101.411706 155.204811 101.411706 159.194755 58.736213 163.376985 48.4570189 158.361513 43.4938199"></polygon>
                    <path d="M164.354762,11.0904646 C164.329123,10.9910403 162.231599,5.67023438 160.534671,3.63844984 C160.420901,3.50374589 160.09081,3.12849918 160.068376,3.08840872 C159.430626,2.38121299 158.746407,1.72693668 158.014116,1.12718339 C157.041467,0.64770148 151.609375,-0.292018914 150.125564,0.0896422697 C149.425321,0.267643914 143.951567,1.59383635 143.40355,2.28178865 C142.73856,2.15349918 135.537432,6.15292352 134.914103,7.04293174 C134.561578,7.91690378 134.274751,8.82294819 134.053622,9.74823602 C134.053622,9.79313734 134.024779,9.92142681 134.010357,9.93746299 C133.9719,10.1090502 133.943057,10.282241 133.909407,10.4554317 C133.395041,13.0532936 134.109705,18.7284992 134.133741,18.8263199 C134.261932,19.3683429 134.154572,24.6073643 137.309672,27.0961801 L136.769668,17.9908347 C136.649489,17.5225781 137.44908,15.9365995 137.471513,15.4779646 C137.566054,13.459009 139.583459,13.9336801 141.644129,13.4060896 C141.847632,13.3547738 146.730106,13.106213 148.644959,12.6155058 C150.559811,12.1264021 154.963171,9.99679688 155.166674,9.94387747 C157.227344,9.41628701 160.057159,9.1805551 161.11153,10.9076521 C161.350286,11.298935 162.127444,12.1456456 162.24602,12.6139021 L164.755358,18.6563363 C166.3273,14.9567887 165.426759,15.2855304 164.354762,11.0904646" id="Fill-49" fill="#49B172"></path>
                    <polygon id="Fill-51" fill="#FFFFFF" points="155.293583 102.819363 158.700258 140.117924 149.662795 139.587126 153.545379 102.819363"></polygon>
                    <path d="M106.596078,141.989025 C109.515627,140.6484 119.061047,76.6624219 118.295106,55.3503331 C118.19736,52.6321998 117.335276,46.1744285 116.199184,43.0425617 C114.931695,39.5482771 112.077844,36.3987706 110.25593,34.6941242 C103.912079,28.7527179 101.736038,29.7116817 97.2830039,29.7229071 C92.8315725,29.7341324 86.1512207,33.0007031 81.7959326,38.6261965 C78.7642162,42.5422327 77.2163103,51.2578988 77.0897217,53.7900123 C76.9198686,57.2329811 75.2149288,141.737257 79.8458275,143.190136 C87.9651229,145.735078 100.942856,144.585284 106.596078,141.989025" id="Fill-53" fill="#FA589A"></path>
                    <path d="M68.6826375,123.642829 L65.9024959,154.512484 C65.9024959,154.512484 64.9026063,157.301176 64.3497828,160.097887 C63.6815874,163.468692 62.5903618,166.109852 63.0149943,166.276628 C63.9043192,166.626217 65.766293,161.836209 65.766293,161.836209 C65.766293,161.836209 63.9427765,169.469433 64.5404669,169.726012 C66.0178678,170.362648 66.9841072,162.304465 66.9841072,162.304465 C66.9841072,162.304465 66.9136022,169.88477 67.6010262,169.839868 C68.9967054,169.745255 68.5608561,162.652451 68.5608561,162.652451 L68.8332619,162.64764 C68.8332619,162.64764 69.868404,168.70611 70.783367,168.587442 C72.244744,168.399819 70.2754103,163.080617 69.8283443,161.294186 C69.6889366,160.739334 69.4838311,159.196653 70.4260347,159.086003 C71.4243218,158.968939 71.3073476,162.68773 72.4690782,162.625189 C73.4737749,162.570666 72.7062315,158.972146 71.8986284,157.472763 C71.6406441,156.991678 71.0093036,155.044885 71.0093036,155.044885 L77.1576629,124.342007 L68.6826375,123.642829 Z" id="Fill-55" fill="#F7CABC"></path>
                    <path d="M125.303627,122.247521 L120.235276,152.84456 C120.235276,152.84456 120.502875,155.785596 120.336227,158.627208 C120.135928,162.052537 120.530115,164.870095 120.075038,164.932636 C119.126424,165.062529 118.523927,159.983869 118.523927,159.983869 C118.523927,159.983869 118.373302,167.812734 117.729143,167.923384 C116.134768,168.195999 117.224391,160.155456 117.224391,160.155456 C117.224391,160.155456 115.386453,167.524083 114.731077,167.31882 C113.399493,166.903483 115.607582,160.123384 115.607582,160.123384 L115.344791,160.056032 C115.344791,160.056032 112.816224,165.691147 111.957344,165.365613 C110.587304,164.842833 113.836945,160.13942 114.71986,158.50854 C114.993868,158.0034 115.580342,156.555333 114.694222,156.228195 C113.755223,155.881813 112.933198,159.515613 111.822744,159.185267 C110.861312,158.89822 112.51177,155.586748 113.671899,154.318285 C114.043652,153.914174 115.146095,152.17104 115.146095,152.17104 L116.905516,120.94859 L125.303627,122.247521 Z" id="Fill-57" fill="#F7CABC"></path>
                    <path d="M106.717378,135.251904 C109.443039,147.485909 106.717378,235.760292 106.717378,235.760292 L100.748486,235.760292 C100.748486,235.760292 93.1659907,144.721271 97.0517794,135.264733 C98.1878719,132.496887 106.045978,132.240308 106.717378,135.251904" id="Fill-59" fill="#F7CABC"></path>
                    <path d="M93.8881866,138.504523 C95.8639299,146.161801 92.7649132,240.600493 92.7649132,240.600493 L88.0122331,240.600493 C88.0122331,240.600493 79.2119231,146.687788 84.2690568,139.311143 C85.8666368,136.979482 93.1238479,135.545847 93.8881866,138.504523" id="Fill-61" fill="#F7CABC"></path>
                    <polygon id="Fill-63" fill="#000000" points="83.9944077 188.482895 94.14553 188.482895 93.0767378 231.689186 87.2408439 231.689186"></polygon>
                    <polygon id="Fill-65" fill="#000000" points="97.3972541 188.482895 107.764699 188.482895 106.716737 235.996505 100.787905 234.800206"></polygon>
                    <polygon id="Fill-67" fill="#FFFFFF" points="83.9944077 190.420066 83.9944077 191.018215 94.14553 191.377426 94.14553 190.897944"></polygon>
                    <polygon id="Fill-69" fill="#FFFFFF" points="107.656217 192.333824 107.656217 191.735674 97.5050947 191.376464 97.5050947 191.854342"></polygon>
                    <path d="M85.7628021,230.566974 L95.3851366,230.566974 L93.9942646,238.694112 L94.1016245,242.871538 L77.9575745,242.871538 C77.9575745,242.871538 77.4864727,240.721086 77.9575745,240.27528 C79.3196036,238.982763 83.932876,240.589589 85.3349647,238.912204 C86.7899322,237.172278 85.7628021,230.566974 85.7628021,230.566974" id="Fill-71" fill="#000000"></path>
                    <path d="M107.79947,230.566974 L98.1771359,230.566974 L99.5680079,238.694112 L99.460648,242.871538 L115.604698,242.871538 C115.604698,242.871538 116.0758,240.721086 115.604698,240.27528 C114.242669,238.982763 109.629396,240.589589 108.227308,238.912204 C106.77234,237.172278 107.79947,230.566974 107.79947,230.566974" id="Fill-73" fill="#000000"></path>
                    <path d="M119.537276,82.9009786 C115.822943,79.8941941 98.8760971,74.7690296 98.8760971,74.7690296 C98.8760971,74.7690296 100.919141,82.7903289 97.0926403,82.7903289 C93.1940325,82.7903289 93.1940325,76.1882319 93.1940325,76.1882319 C93.1940325,76.1882319 82.4388103,79.0474836 79.4102987,81.0824753 C64.2100546,91.3007319 64.2100546,154.133709 64.2100546,154.133709 L72.6305989,154.855337 C72.6305989,154.855337 78.4648903,115.188232 79.6057899,106.613684 C79.7484023,105.529638 79.6458496,104.727829 80.1890588,104.727829 C80.5143434,104.727829 80.8444351,104.939507 80.810785,105.558503 C80.4550551,111.979391 79.8557623,123.987286 79.8557623,123.987286 L82.7496734,127.244235 L104.205637,127.860025 L113.368086,123.958421 C113.368086,123.958421 114.053908,103.986957 114.534624,98.6356826 C114.563467,98.322977 113.941741,102.200526 113.951355,102.505214 C114.311892,113.728939 115.254096,150.25616 115.254096,150.25616 L121.029099,152.531694 C121.029099,152.531694 133.54214,94.2433717 119.537276,82.9009786" id="Fill-75" fill="#FFFFFF"></path>
                    <path d="M82.8693717,78.954634 C83.979826,78.5761801 87.2198527,77.7118298 87.2198527,77.7118298 C87.2198527,77.7118298 87.6332685,88.0471505 90.2083046,90.0003577 C92.7336667,91.9150781 100.551713,91.8445189 103.070666,89.9201768 C105.73864,87.8787706 106.238585,77.160185 106.238585,77.160185 L112.779529,79.2817722 C112.779529,79.2817722 112.822794,107.231238 113.367605,116.533828 C114.301797,132.46257 115.989111,168.418902 115.989111,168.418902 L74.4007559,167.929799 C74.4007559,167.929799 76.5062925,133.057512 79.8552816,116.533828 C81.1419984,110.183499 81.5650286,90.7941488 81.5650286,90.7941488 L79.7927885,80.3497821 C79.7927885,80.3497821 81.2749965,79.4982607 82.8693717,78.954634" id="Fill-77" fill="#000000"></path>
                    <path d="M101.897719,68.6234827 C100.021323,69.5984827 95.8647311,70.3986883 92.7400762,68.3236061 C92.6166924,68.2418215 89.3558347,65.0634498 87.9024696,59.8901768 C86.4442973,54.7104893 87.1333238,50.6212623 87.39932,48.3938363 C87.39932,48.3938363 89.5208805,46.9858594 93.509222,44.0448232 C95.8823573,42.2952755 97.6882476,39.519412 97.6882476,39.519412 C97.6882476,39.519412 99.7393031,41.6506209 101.261571,43.0922738 C104.458333,46.1247163 109.57155,47.0275535 109.57155,47.0275535 C109.755825,47.6625863 109.952918,53.9231127 109.680513,56.5466324 C108.985077,63.2609827 105.523921,66.7376275 101.897719,68.6234827" id="Fill-79" fill="#F7CABC"></path>
                    <path d="M99.9173283,66.0127919 L99.9173283,74.7685485 C99.9173283,74.7685485 103.37528,85.4694942 96.7013374,85.4694942 C91.624975,85.4694942 92.8908609,76.1893544 92.8908609,76.1893544 L93.0847497,74.0340913 L93.4869489,66.0127919 L99.9173283,66.0127919 Z" id="Fill-81" fill="#F7CABC"></path>
                    <path d="M357.559862,228.703409 L357.559862,237.005341 C357.559862,237.005341 369.712366,233.936016 371.2122,237.005341 C373.23922,241.155506 367.877633,242.369445 367.877633,242.369445 L346.662027,242.369445 L348.152247,231.184206 L357.559862,228.703409 Z" id="Fill-83" fill="#000000"></path>
                    <path d="M323.951075,229.20919 L323.951075,237.511123 C323.951075,237.511123 311.798571,234.4434 310.298737,237.511123 C308.271717,241.662891 313.633304,242.875226 313.633304,242.875226 L334.848909,242.875226 L333.358689,231.689988 L323.951075,229.20919 Z" id="Fill-85" fill="#000000"></path>
                    <path d="M348.984527,77.3649671 C348.056745,82.7082237 341.746545,84.438528 338.612276,83.7778372 C332.319701,82.4484375 331.172392,80.3043997 332.026465,75.7405016 C332.313292,74.2074424 333.742621,68.8529605 333.925293,67.9886102 C333.925293,67.9886102 327.268977,61.0882401 327.004583,50.733676 C326.802683,42.8342516 326.039946,38.2527138 329.943361,34.9252056 C340.189024,26.1902961 348.974913,32.9222862 350.811249,33.5573191 C352.649187,34.192352 356.004585,40.983676 355.174549,50.1932566 C355.174549,50.1932566 354.916564,60.8188322 345.952811,70.2096217 C345.952811,70.2096217 349.180019,76.239227 348.984527,77.3649671" id="Fill-87" fill="#F7CABC"></path>
                    <polygon id="Fill-89" fill="#1E1E1E" points="365.787639 144.364626 360.291451 236.473261 345.76421 236.473261 342.658784 166.035925 334.411297 236.473261 319.170994 236.473261 320.536227 144.364626"></polygon>
                    <path d="M376.224307,151.136225 L374.645955,160.275247 C374.645955,160.275247 374.90394,164.032525 374.642751,167.656702 C374.328683,172.023355 374.740496,175.629893 374.194082,175.698849 C373.054785,175.844778 372.445878,169.34852 372.445878,169.34852 C372.445878,169.34852 372.094955,179.340666 371.324207,179.467352 C369.410957,179.780058 370.888358,169.540954 370.888358,169.540954 C370.888358,169.540954 368.529644,178.906086 367.750884,178.631867 C366.169328,178.072204 368.955879,169.467188 368.955879,169.467188 L368.643413,169.372574 C368.643413,169.372574 365.496325,176.511883 364.477207,176.077303 C362.849182,175.379729 366.837523,169.44634 367.928749,167.385691 C368.268455,166.745847 369.000746,164.909704 367.947977,164.47352 C366.832716,164.011678 365.771936,168.633306 364.448364,168.1875 C363.305862,167.801028 365.35211,163.607566 366.767018,162.015173 C367.218891,161.506826 368.576113,159.306661 368.576113,159.306661 L369.213863,150.169243 L376.224307,151.136225 Z" id="Fill-91" fill="#F7CABC"></path>
                    <path d="M308.518805,145.872669 L310.097156,155.01169 C310.097156,155.01169 309.839172,158.768968 310.100361,162.393146 C310.416031,166.759799 310.002615,170.366336 310.549029,170.435292 C311.688327,170.581221 312.297234,164.084963 312.297234,164.084963 C312.297234,164.084963 312.648156,174.077109 313.418905,174.203795 C315.332155,174.516501 313.854754,164.277397 313.854754,164.277397 C313.854754,164.277397 316.213468,173.642529 316.992228,173.36831 C318.573784,172.808647 315.787233,164.203631 315.787233,164.203631 L316.099698,164.109017 C316.099698,164.109017 319.246787,171.248326 320.265905,170.813746 C321.89393,170.116172 317.905589,164.182784 316.814363,162.122134 C316.474657,161.48229 315.742366,159.646147 316.795134,159.209963 C317.910396,158.748121 318.971176,163.369749 320.294748,162.923943 C321.43725,162.537471 319.391001,158.344009 317.976094,156.751616 C317.52422,156.243269 316.166999,154.043104 316.166999,154.043104 L315.529248,144.905687 L308.518805,145.872669 Z" id="Fill-93" fill="#F7CABC"></path>
                    <g id="Group-97" transform="translate(306.055936, 72.655680)">
                        <mask id="mask-6" fill="white">
                            <use xlink:href="#path-5"></use>
                        </mask>
                        <g id="Clip-96"></g>
                        <path d="M45.6388689,0.167839884 C45.6388689,0.167839884 58.1823551,2.20443528 64.697661,9.72219844 C76.9062483,23.8115899 70.1682106,86.9027494 70.1682106,86.9027494 C70.1682106,86.9027494 62.6209674,87.7350274 61.4816701,85.7353152 C61.4816701,85.7353152 61.3470696,42.067182 59.3761335,42.067182 C58.0092973,42.067182 59.9674143,73.5510224 58.5541089,79.2150027 C55.7579434,90.4098629 20.9476861,88.3812856 14.4788494,79.516483 C13.305902,77.9096573 15.6277609,36.4545175 15.6277609,36.4545175 L11.6362146,81.3141392 L2.46254849,82.8439912 C2.46254849,82.8439912 -5.95799571,19.8971573 11.7916462,4.98831686 C13.9821094,3.14896653 25.2340716,0.373103042 25.2340716,0.373103042 L36.11428,11.6144682 L45.6388689,0.167839884 Z" id="Fill-95" fill="#000000" mask="url(#mask-6)"></path>
                    </g>
                    <polygon id="Fill-98" fill="#FFFFFF" points="341.42094 74.6854811 333.838444 67.3489268 331.289046 73.0289433 334.505037 82.5672656 342.614718 123.031369 344.1466 123.031369 347.83209 82.5672656 351.695446 72.8236801 347.061342 68.1154564"></polygon>
                    <path d="M355.801723,38.7639474 C355.788904,38.664523 354.346755,33.1272286 352.904607,30.9078207 C352.810066,30.7586842 352.526444,30.3465543 352.508817,30.3048602 C351.960801,29.5255016 351.359906,28.792648 350.706132,28.1095066 C349.797579,27.5161678 344.517713,25.9301891 342.99865,26.1290378 C342.282383,26.2236513 336.68845,26.8795312 336.061916,27.4969243 C335.417757,27.2884539 327.788792,30.389852 327.061308,31.1980757 C326.60623,32.0255428 326.212043,32.8882895 325.881951,33.7815049 C325.877144,33.8280099 325.832277,33.9498849 325.816253,33.9643174 C325.756965,34.1294901 325.707291,34.2978701 325.65281,34.4646464 C324.829183,36.9839309 324.856423,42.7040378 324.869242,42.8050658 C324.931735,43.3567105 324.194637,48.5460197 327.027658,51.3956497 L327.586891,42.2903043 C327.524398,41.8108224 328.508264,40.3338898 328.585178,39.8816694 C328.923282,37.8883717 330.866977,38.6019819 332.977321,38.3277632 C333.185631,38.3005016 338.063298,38.6420724 340.023017,38.387097 C341.982737,38.1289145 346.608828,36.5477467 346.817138,36.5204852 C348.92588,36.2446628 351.76531,36.3505016 352.603358,38.1914556 C352.794042,38.6083964 353.462238,39.5433059 353.524731,40.0227878 L355.288959,46.3250082 C357.295148,42.841949 356.360956,43.0584375 355.801723,38.7639474" id="Fill-100" fill="#000000"></path>
                    <polygon id="Fill-102" fill="#FFFFFF" points="344.228963 124.366382 347.374449 159.730979 339.027614 159.227442 342.613757 124.366382"></polygon>
                    <path d="M51.0366701,228.703409 L51.0366701,237.005341 C51.0366701,237.005341 63.1891738,233.936016 64.6890081,237.005341 C66.7160278,241.155506 61.3544406,242.369445 61.3544406,242.369445 L40.1404378,242.369445 L41.6290554,231.184206 L51.0366701,228.703409 Z" id="Fill-104" fill="#000000"></path>
                    <path d="M17.428844,229.20919 L17.428844,237.511123 C17.428844,237.511123 5.27634024,234.4434 3.77650592,237.511123 C1.74948623,241.662891 7.11107347,242.875226 7.11107347,242.875226 L28.3266787,242.875226 L26.8364587,231.689988 L17.428844,229.20919 Z" id="Fill-106" fill="#000000"></path>
                    <path d="M42.4622967,77.3649671 C41.5345146,82.7082237 35.2243142,84.438528 32.0884426,83.7778372 C25.7974709,82.4484375 24.6501617,80.3043997 25.504234,75.7405016 C25.7894589,74.2074424 27.2203906,68.8529605 27.4030627,67.9886102 C27.4030627,67.9886102 20.7467467,61.0882401 20.4823529,50.733676 C20.2804521,42.8342516 19.5161134,38.2527138 23.4211308,34.9252056 C33.6667939,26.1902961 42.4526824,32.9222862 44.289018,33.5573191 C46.126956,34.192352 49.4823546,40.983676 48.6523181,50.1932566 C48.6523181,50.1932566 48.3943337,60.8188322 39.4305803,70.2096217 C39.4305803,70.2096217 42.6577879,76.239227 42.4622967,77.3649671" id="Fill-108" fill="#883631"></path>
                    <polygon id="Fill-110" fill="#1E1E1E" points="59.2654085 144.364626 53.7676184 236.473261 39.240377 236.473261 36.1365531 166.035925 27.8890667 236.473261 12.648763 236.473261 14.0139969 144.364626"></polygon>
                    <path d="M69.7020762,151.136225 L68.1237249,160.275247 C68.1237249,160.275247 68.3801068,164.032525 68.1205201,167.656702 C67.8048499,172.023355 68.2166633,175.629893 67.6718517,175.698849 C66.5325545,175.844778 65.9236474,169.34852 65.9236474,169.34852 C65.9236474,169.34852 65.5727246,179.340666 64.8019764,179.467352 C62.8887262,179.780058 64.3661271,169.540954 64.3661271,169.540954 C64.3661271,169.540954 62.0074133,178.906086 61.2286532,178.631867 C59.6454948,178.072204 62.4336483,169.467188 62.4336483,169.467188 L62.1195804,169.372574 C62.1195804,169.372574 58.9740946,176.511883 57.9549764,176.077303 C56.3269511,175.379729 60.3152926,169.44634 61.4065182,167.385691 C61.7462242,166.745847 62.4785151,164.909704 61.4257468,164.47352 C60.3104854,164.011678 59.2497051,168.633306 57.9261334,168.1875 C56.7836314,167.801028 58.8298797,163.607566 60.2447875,162.015173 C60.6966607,161.506826 62.0522802,159.306661 62.0522802,159.306661 L62.6916326,150.169243 L69.7020762,151.136225 Z" id="Fill-112" fill="#883631"></path>
                    <path d="M1.99657433,145.872669 L3.57332323,155.01169 C3.57332323,155.01169 3.3169413,158.768968 3.57813039,162.393146 C3.89219826,166.759799 3.48038478,170.366336 4.02679878,170.435292 C5.16609601,170.581221 5.77500311,164.084963 5.77500311,164.084963 C5.77500311,164.084963 6.12592588,174.077109 6.89667407,174.203795 C8.80992427,174.516501 7.33252337,164.277397 7.33252337,164.277397 C7.33252337,164.277397 9.69123718,173.642529 10.4699973,173.36831 C12.0515534,172.808647 9.26500221,164.203631 9.26500221,164.203631 L9.57746769,164.109017 C9.57746769,164.109017 12.724556,171.248326 13.7436741,170.813746 C15.3700971,170.116172 11.383358,164.182784 10.29053,162.122134 C9.95242627,161.48229 9.22013537,159.646147 10.2729037,159.209963 C11.3881651,158.748121 12.4489454,163.369749 13.7709147,162.923943 C14.9150191,162.537471 12.8687708,158.344009 11.453863,156.751616 C11.0019898,156.243269 9.64476795,154.043104 9.64476795,154.043104 L9.00701788,144.905687 L1.99657433,145.872669 Z" id="Fill-114" fill="#883631"></path>
                    <path d="M45.171773,72.8235197 C45.171773,72.8235197 57.7168616,74.8601151 64.2305652,82.3778783 C76.4391525,96.4672697 69.7027171,159.558429 69.7027171,159.558429 C69.7027171,159.558429 62.1538715,160.390707 61.0145743,158.390995 C61.0145743,158.390995 60.8815762,114.722862 58.91064,114.722862 C57.5438038,114.722862 59.5019209,146.206702 58.0870131,151.870683 C55.29245,163.065543 20.4821926,161.036965 14.0133559,152.172163 C12.8388062,150.565337 15.1606651,109.110197 15.1606651,109.110197 L11.1691188,153.969819 L1.99705504,155.499671 C1.99705504,155.499671 -6.42509155,92.5528372 11.3261527,77.6439967 C13.5150135,75.8046464 24.7669757,73.0287829 24.7669757,73.0287829 L35.6487865,84.270148 L45.171773,72.8235197 Z" id="Fill-116" fill="#000000"></path>
                    <polygon id="Fill-118" fill="#FFFFFF" points="34.8979079 74.6854811 27.3154122 67.3489268 24.7676167 73.0289433 27.9820052 82.5672656 36.0916863 123.031369 37.6235684 123.031369 41.3090587 82.5672656 45.172414 72.8236801 40.5399129 68.1154564"></polygon>
                    <path d="M49.2786912,38.7639474 C49.2658721,38.664523 47.8237237,33.1272286 46.3831777,30.9078207 C46.2870345,30.7586842 46.0034119,30.3465543 45.9857857,30.3048602 C45.4393717,29.5255016 44.8368741,28.792648 44.1831002,28.1095066 C43.2745467,27.5161678 37.9946812,25.9301891 36.4756183,26.1290378 C35.7593512,26.2236513 30.1670202,26.8795312 29.5388845,27.4969243 C28.8947249,27.2884539 21.2657599,30.389852 20.5382762,31.1980757 C20.0831982,32.0255428 19.689011,32.8882895 19.3605216,33.7815049 C19.3541121,33.8280099 19.3108476,33.9498849 19.2948238,33.9643174 C19.2355355,34.1294901 19.1858615,34.2978701 19.1313803,34.4646464 C18.3077533,36.9839309 18.3349939,42.7040378 18.3462106,42.8050658 C18.4087037,43.3567105 17.673208,48.5460197 20.504626,51.3956497 L21.0638591,42.2903043 C21.001366,41.8108224 21.9852317,40.3338898 22.0621463,39.8816694 C22.40025,37.8883717 24.3439455,38.6019819 26.4542893,38.3277632 C26.6625997,38.3005016 31.540266,38.6420724 33.4999854,38.387097 C35.4597048,38.1289145 40.0857964,36.5477467 40.2957091,36.5204852 C42.4044505,36.2446628 45.2422781,36.3505016 46.0803265,38.1914556 C46.2710106,38.6083964 46.9408084,39.5433059 47.0033015,40.0227878 L48.7659273,46.3250082 C50.772116,42.841949 49.8395267,43.0584375 49.2786912,38.7639474" id="Fill-120" fill="#000000"></path>
                    <polygon id="Fill-122" fill="#FFFFFF" points="37.7067323 124.366382 40.8522181 159.730979 32.5053837 159.227442 36.0915261 124.366382"></polygon>
                    <mask id="mask-8" fill="white">
                        <use xlink:href="#path-7"></use>
                    </mask>
                    <g id="Clip-125"></g>
                    <polygon id="Fill-124" fill="#FA589A" mask="url(#mask-8)" points="185.987468 165.310609 251.196611 165.310609 251.196611 161.843586 185.987468 161.843586"></polygon>
                    <polygon id="Fill-126" fill="#B2E1FF" mask="url(#mask-8)" points="194.947216 133.111073 185.986667 161.843104 251.19581 161.843104 253.727582 133.111073"></polygon>
                    <polygon id="Fill-127" fill="#7AB7FF" mask="url(#mask-8)" points="194.356576 73.9229605 194.356576 133.404375 253.72662 133.110913 253.72662 73.9229605"></polygon>
                    <path d="M193.684374,116.432961 L191.096519,146.311579 C191.096519,146.311579 190.165532,149.010469 189.649564,151.717377 C189.02944,154.98074 188.011924,157.538512 188.409316,157.698873 C189.236148,158.03403 190.969931,153.401176 190.969931,153.401176 C190.969931,153.401176 189.273003,160.787442 189.827429,161.036003 C191.203879,161.653396 192.102818,153.855 192.102818,153.855 C192.102818,153.855 192.038723,161.189951 192.678075,161.146653 C193.977611,161.055247 193.570605,154.19176 193.570605,154.19176 L193.823782,154.185345 C193.823782,154.185345 194.788419,160.048174 195.640889,159.935921 C197.001316,159.754712 195.166582,154.60389 194.751564,152.875189 C194.621771,152.337977 194.431087,150.845008 195.307593,150.739169 C196.236977,150.623709 196.128015,154.222229 197.209626,154.162895 C198.14542,154.111579 197.429153,150.62852 196.679236,149.175641 C196.438878,148.712196 195.850802,146.82634 195.850802,146.82634 L201.574528,117.109688 L193.684374,116.432961 Z" id="Fill-128" fill="#D69C85" mask="url(#mask-8)"></path>
                    <path d="M240.150556,67.3925452 C241.555849,66.7543051 238.993632,65.5852673 239.141052,57.1133512 C239.248412,50.8993298 239.958269,44.598713 237.822287,37.6438199 C236.742278,34.1302919 234.013413,30.6472327 232.35975,28.7966571 C227.241725,23.0685321 224.977552,23.7484663 220.522916,23.6121587 C216.069882,23.4774548 209.488879,25.7914762 206.846542,29.7796752 C199.507609,40.854264 199.637403,53.9205469 199.515621,59.311912 C199.437104,62.7196012 197.644033,65.804963 202.228463,67.3925452 C210.267639,70.1748232 234.490925,69.9631456 240.150556,67.3925452" id="Fill-129" fill="#FEC70D" mask="url(#mask-8)"></path>
                    <path d="M241.029946,76.997097 C237.571994,74.0865296 221.794891,69.1265378 221.794891,69.1265378 C221.794891,69.1265378 223.696925,76.8896546 220.134818,76.8896546 C216.503809,76.8896546 216.503809,70.5008388 216.503809,70.5008388 C216.503809,70.5008388 206.492094,73.2670806 203.673495,75.236324 C189.521212,85.1274424 189.521212,145.944671 189.521212,145.944671 L197.36009,146.643849 C197.36009,146.643849 202.792182,108.248413 203.852963,99.9496875 C203.987563,98.9009211 203.893022,98.1247697 204.397774,98.1247697 C204.700625,98.1247697 205.006681,98.3300329 204.976236,98.9281826 C204.644542,105.142204 204.086911,116.766834 204.086911,116.766834 L206.780524,119.919548 L226.755882,120.51449 L235.28699,116.736365 C235.28699,116.736365 235.92474,97.4079523 236.371806,92.2250576 C236.397445,91.9251809 235.820585,95.677648 235.8302,95.9727138 C236.165099,106.835625 238.131228,133.024317 238.131228,133.024317 L244.031217,134.371357 C244.031217,134.371357 254.06857,87.9754688 241.029946,76.997097" id="Fill-130" fill="#FFFFFF" mask="url(#mask-8)"></path>
                    <path d="M206.892371,73.1774383 C207.927513,72.8102097 210.943205,71.9731209 210.943205,71.9731209 C210.943205,71.9731209 211.327778,81.9780962 213.724949,83.8671587 C216.075651,85.7209416 223.355296,85.6535896 225.699588,83.790185 C228.183288,81.8161308 228.649583,71.4407196 228.649583,71.4407196 L234.737051,73.4933512 C234.737051,73.4933512 234.778713,100.546394 235.28667,109.550711 C236.156766,124.967899 241.300429,154.383072 241.300429,154.383072 L196.456023,155.920942 C196.456023,155.920942 200.968345,125.545201 204.086591,109.550711 C205.285176,103.404042 205.677761,84.6368956 205.677761,84.6368956 L204.028905,74.527685 C204.028905,74.527685 205.40856,73.7018215 206.892371,73.1774383" id="Fill-131" fill="#000000" mask="url(#mask-8)"></path>
                    <path d="M230.571325,93.5969531 C231.098511,92.49206 231.087294,90.886838 230.008888,89.8332607 C228.957722,88.8085485 227.403406,88.8085485 226.334614,89.3152919 C224.833177,90.0272985 223.773999,91.9853166 224.562374,93.6851521 C225.305881,95.2839597 227.284829,95.7810814 228.712556,95.2855633 C229.952804,94.8525863 230.489604,93.7701439 230.571325,93.5969531" id="Fill-132" fill="#F3EFE6" mask="url(#mask-8)"></path>
                    <path d="M223.598538,63.5228536 C221.699709,64.4144655 217.575165,64.9885609 214.623568,62.6697286 C214.508196,62.5783224 211.487696,59.1177138 210.353206,53.7119161 C209.217114,48.3029112 210.425314,42.4064062 210.813091,40.1308717 C210.813091,40.1308717 212.484381,32.0791036 217.35724,32.0791036 C220.315247,32.0791036 219.393874,39.2809539 224.622463,42.2588734 C229.580249,45.0812418 232.360391,43.655625 232.360391,43.655625 C232.506208,44.3179194 232.342764,48.8946464 231.927746,51.5742928 C230.862159,58.4345724 227.266402,61.8021711 223.598538,63.5228536" id="Fill-133" fill="#D69C85" mask="url(#mask-8)"></path>
                    <path d="M221.135509,59.9147122 L221.135509,69.1258964 C221.135509,69.1258964 224.407583,79.4836678 218.235188,79.4836678 C213.541796,79.4836678 214.751599,70.501801 214.751599,70.501801 L214.948692,68.0466612 L215.339675,59.9147122 L221.135509,59.9147122 Z" id="Fill-134" fill="#D69C85" mask="url(#mask-8)"></path>
                    <path d="M254.115039,122.250728 C253.379543,121.492216 252.978946,120.659938 250.878217,120.861994 C249.706872,157.911994 249.460104,192.31442 249.460104,231.495629 C253.009392,231.340078 250.335008,231.245465 253.882693,231.089914 C261.098242,205.616435 258.725107,127.002249 254.115039,122.250728" id="Fill-135" fill="#7AB7FF" mask="url(#mask-8)"></path>
                    <polygon id="Fill-136" fill="#7AB7FF" mask="url(#mask-8)" points="191.944342 165.310288 191.944342 190.761316 197.443735 190.761316 198.885883 165.310288"></polygon>
                    <polygon id="Fill-137" fill="#7AB7FF" mask="url(#mask-8)" points="239.273249 187.018791 245.74529 187.018791 245.74529 165.310609 239.273249 165.310609"></polygon>
                    <path d="M260.08329,174.465345 C259.62661,172.848898 257.846357,172.239523 256.612519,173.886439 C254.271432,177.007081 255.506872,182.252516 257.827129,183.091209 C259.118653,183.557862 259.846137,181.473158 259.967918,181.179696 C260.951784,178.807944 260.719438,176.72324 260.08329,174.465345" id="Fill-138" fill="#CB78D3" mask="url(#mask-8)"></path>
                    <polygon id="Fill-139" fill="#7AB7FF" mask="url(#mask-8)" points="196.456504 155.920461 207.674816 144.262155 229.893516 143.235839 241.300909 154.38259"></polygon>
                    <path d="M231.061175,143.395238 C233.900605,154.747253 231.061175,236.607163 231.061175,236.607163 L224.843913,236.607163 C224.843913,236.607163 216.944145,152.15741 220.991775,143.38241 C222.175939,140.81662 230.362534,140.601735 231.061175,143.395238" id="Fill-140" fill="#D69C85" mask="url(#mask-8)"></path>
                    <path d="M217.695985,143.525292 C219.755052,150.839396 216.526242,240.844083 216.526242,240.844083 L211.574866,240.844083 C211.574866,240.844083 202.40761,151.249922 207.674656,144.20683 C209.339536,141.979404 216.901201,140.699716 217.695985,143.525292" id="Fill-141" fill="#D69C85" mask="url(#mask-8)"></path>
                    <polygon id="Fill-142" fill="#000000" mask="url(#mask-8)" points="207.389912 190.761476 217.964064 190.761476 216.852008 232.582241 210.772551 232.582241"></polygon>
                    <polygon id="Fill-143" fill="#000000" mask="url(#mask-8)" points="221.352151 190.761476 232.152241 190.761476 231.061015 236.751649 224.883813 235.592233"></polygon>
                    <polygon id="Fill-144" fill="#F3EFE6" mask="url(#mask-8)" points="207.389912 192.636106 207.389912 193.215012 217.964064 193.561394 217.964064 193.099552"></polygon>
                    <polygon id="Fill-145" fill="#F3EFE6" mask="url(#mask-8)" points="232.039913 194.488766 232.039913 193.90986 221.464158 193.561875 221.464158 194.025321"></polygon>
                    <path d="M232.188615,231.495629 L222.165683,231.495629 L223.612639,239.361377 L223.502074,243.405703 L240.319127,243.405703 C240.319127,243.405703 240.809457,241.324206 240.319127,240.891229 C238.902617,239.642011 234.093853,241.197521 232.634078,239.573055 C231.119823,237.887652 232.188615,231.495629 232.188615,231.495629" id="Fill-146" fill="#000000" mask="url(#mask-8)"></path>
                    <path d="M243.689428,134.293421 L242.968353,138.762706 C242.968353,138.762706 243.211916,141.609128 243.051678,144.359334 C242.856186,147.675617 243.219928,150.403372 242.796898,150.462706 C241.91238,150.586184 241.361159,145.66949 241.361159,145.66949 C241.361159,145.66949 241.205728,153.246587 240.606435,153.35403 C239.121022,153.615419 240.151357,145.831456 240.151357,145.831456 C240.151357,145.831456 238.423984,152.962747 237.815077,152.763898 C236.578034,152.358183 238.646715,145.800987 238.646715,145.800987 L238.40155,145.733635 C238.40155,145.733635 236.036427,151.18273 235.238438,150.865214 C233.962938,150.35847 236.997859,145.810609 237.823088,144.234252 C238.07947,143.746752 238.627487,142.345189 237.80386,142.027673 C236.930559,141.689309 236.158208,145.207648 235.123066,144.883717 C234.228934,144.604687 235.772033,141.402262 236.855247,140.177097 C237.201362,139.785814 238.231697,138.102015 238.231697,138.102015 L238.512115,133.111554 L243.689428,134.293421 Z" id="Fill-147" fill="#D69C85" mask="url(#mask-8)"></path>
                    <path d="M209.231856,231.495629 L219.254787,231.495629 L217.807831,239.361377 L217.918396,243.405703 L201.101344,243.405703 C201.101344,243.405703 200.611013,241.324206 201.101344,240.891229 C202.517854,239.642011 207.326617,241.197521 208.786392,239.573055 C210.300648,237.887652 209.231856,231.495629 209.231856,231.495629" id="Fill-148" fill="#000000" mask="url(#mask-8)"></path>
                    <path d="M185.213195,231.963886 C185.94869,232.722397 186.347685,233.554675 188.450017,233.352619 C189.621362,196.302619 189.866527,161.900193 189.866527,122.718984 C186.318842,122.874535 188.991624,122.969149 185.443939,123.1247 C178.229992,148.598178 180.603127,227.212364 185.213195,231.963886" id="Fill-149" fill="#7AB7FF" mask="url(#mask-8)"></path>
                    <path d="M179.244143,179.749108 C179.700823,181.365555 181.481075,181.97493 182.716515,180.328014 C185.056001,177.207373 183.82056,171.961937 181.500304,171.123244 C180.210382,170.656591 179.481296,172.741295 179.359514,173.034757 C178.375649,175.406509 178.607995,177.491213 179.244143,179.749108" id="Fill-150" fill="#CB78D3" mask="url(#mask-8)"></path>
                    <path d="M222.825546,181.214975 L222.711777,184.500789 C222.711777,184.500789 221.957053,186.524556 221.614142,188.519457 C221.197521,190.923281 220.351461,192.849227 220.750455,192.934219 C221.585299,193.109013 223.011423,189.62435 223.011423,189.62435 C223.011423,189.62435 221.783995,195.091086 222.34483,195.224186 C223.735702,195.556135 224.152323,189.860082 224.152323,189.860082 C224.152323,189.860082 224.527282,195.15523 225.153815,195.071842 C226.42611,194.898651 225.615302,189.981957 225.615302,189.981957 L225.863672,189.957903 C225.863672,189.957903 227.163208,194.108067 227.993245,193.955724 C229.320021,193.713577 227.208075,190.148734 226.696914,188.934794 C226.536675,188.559548 226.261064,187.497952 227.116739,187.348816 C228.02369,187.193265 228.13105,189.797541 229.190228,189.666044 C230.106793,189.550584 229.195035,187.097048 228.369806,186.112426 C228.105412,185.79491 227.416385,184.484753 227.416385,184.484753 L228.050931,180.86699 L222.825546,181.214975 Z" id="Fill-151" fill="#F7CABC" mask="url(#mask-8)"></path>
                    <path d="M276.545414,175.502085 L277.535689,178.635555 C277.535689,178.635555 278.80478,180.383499 279.670069,182.211624 C280.714825,184.414996 282.048011,186.044272 281.685872,186.231896 C280.927942,186.626386 278.620505,183.651674 278.620505,183.651674 C278.620505,183.651674 281.267648,188.589215 280.762897,188.868244 C279.513035,189.562611 277.583761,184.184075 277.583761,184.184075 C277.583761,184.184075 278.642938,189.386213 278.016405,189.474412 C276.745712,189.649206 276.208912,184.694025 276.208912,184.694025 L275.960542,184.738927 C275.960542,184.738927 275.822737,189.086336 274.981484,189.16331 C273.640286,189.285185 274.71709,185.285761 274.885341,183.977208 C274.938219,183.571493 274.918991,182.476221 274.056907,182.562817 C273.140341,182.654223 273.734827,185.192751 272.677251,185.349905 C271.765493,185.486213 271.98502,182.878729 272.51541,181.706484 C272.685263,181.331238 272.999331,179.88317 272.999331,179.88317 L271.417775,176.570095 L276.545414,175.502085 Z" id="Fill-152" fill="#F7CABC" mask="url(#mask-8)"></path>
                    <path d="M261.670775,190.316793 C264.372399,195.773906 261.670775,235.121891 261.670775,235.121891 L255.759569,235.121891 C255.759569,235.121891 248.24918,194.529498 252.096512,190.311982 C253.22299,189.078799 261.005784,188.974564 261.670775,190.316793" id="Fill-153" fill="#F7CABC" mask="url(#mask-8)"></path>
                    <path d="M248.963685,191.59616 C250.921802,195.011867 247.851628,236.93847 247.851628,236.93847 L243.143815,236.93847 C243.143815,236.93847 234.428431,195.149778 239.435891,191.859153 C241.01905,190.820008 248.207358,190.276382 248.963685,191.59616" id="Fill-154" fill="#F7CABC" mask="url(#mask-8)"></path>
                    <path d="M245.538262,98.1557196 C229.897361,98.1845847 228.408744,124.708433 228.408744,137.465218 C244.104125,136.834996 251.207507,136.881501 266.904491,136.252882 C265.976709,123.02303 267.107995,98.1172327 245.538262,98.1557196" id="Fill-155" fill="#7AB7FF" mask="url(#mask-8)"></path>
                    <path d="M243.231626,130.892146 C241.499445,133.576604 242.770138,138.796382 242.95922,139.125123 C244.372525,141.567434 252.118465,141.974753 252.993368,139.659128 C254.012486,136.960238 254.164713,132.107689 252.658469,130.302015 L243.231626,130.892146 Z" id="Fill-156" fill="#F7CABC" mask="url(#mask-8)"></path>
                    <path d="M258.33156,111.911719 L235.249174,112.325452 C233.800616,117.408923 234.169165,120.374013 235.625735,124.373438 C237.305037,128.988651 241.775697,133.65037 248.686792,133.178906 C256.775642,132.625658 259.767299,125.394942 260.288075,121.196669 C260.605348,118.627673 260.071753,114.693997 258.33156,111.911719" id="Fill-157" fill="#F7CABC" mask="url(#mask-8)"></path>
                    <path d="M253.770846,135.165789 C253.770846,135.165789 262.41252,137.834211 267.424787,142.789391 C276.81798,152.072738 279.317704,178.487541 279.317704,178.487541 C279.317704,178.487541 271.818532,179.286143 270.942026,177.966365 C270.942026,177.966365 268.947054,160.850946 267.431196,160.850946 C266.38003,160.850946 272.552425,193.903125 269.487059,196.292516 C259.222167,204.291365 241.381189,202.589926 229.994626,196.292516 C228.77521,195.617393 233.011921,161.312788 233.011921,161.312788 L228.381023,184.898808 L221.9891,184.898808 C221.9891,184.898808 220.47164,149.02426 234.130387,139.200493 C235.814496,137.988158 242.42915,136.467928 242.42915,136.467928 C242.42915,136.467928 242.988383,140.092105 247.755485,140.071258 C254.019216,140.042393 253.770846,135.165789 253.770846,135.165789" id="Fill-158" fill="#CB78D3" mask="url(#mask-8)"></path>
                    <path d="M241.367889,229.592936 C241.734836,228.682081 242.007242,228.420691 242.212347,228.438331 C242.612944,228.475214 242.63698,229.580107 243.143334,229.682738 C243.721796,229.798199 244.256993,228.480025 244.742516,228.616332 C245.173559,228.736604 245.062994,229.865551 245.452374,229.948939 C245.885018,230.040345 246.407397,228.735 246.740693,228.837632 C247.017906,228.924227 246.793572,229.876776 247.139688,230.037138 C247.594765,230.248816 248.476078,228.836028 248.871868,229.015633 C249.214779,229.171184 248.963204,230.418799 248.871868,230.882245 C248.623498,232.136275 248.306225,233.938742 248.02741,236.257574 L242.390212,235.28097 C242.048904,233.38389 241.709198,231.490016 241.367889,229.592936" id="Fill-159" fill="#FFFFFF" mask="url(#mask-8)"></path>
                    <path d="M242.166038,234.388076 L242.166038,239.776234 C242.166038,239.776234 234.277487,237.784539 233.303235,239.776234 C231.987675,242.471916 235.46806,243.259293 235.46806,243.259293 L249.240577,243.259293 L248.274338,235.998109 L242.166038,234.388076 Z" id="Fill-160" fill="#17140B" mask="url(#mask-8)"></path>
                    <path d="M262.43287,229.830913 C262.065923,228.918454 261.793518,228.657064 261.590014,228.674704 C261.189418,228.711587 261.163779,229.81648 260.657425,229.919112 C260.080566,230.034572 259.543766,228.718002 259.058243,228.852706 C258.627201,228.972977 258.737765,230.101924 258.348385,230.185313 C257.915741,230.276719 257.393363,228.971373 257.060066,229.074005 C256.782853,229.1606 257.007187,230.11315 256.661072,230.273512 C256.205994,230.486793 255.326283,229.072401 254.928891,229.25361 C254.58598,229.407558 254.837555,230.656776 254.928891,231.118618 C255.177261,232.374252 255.494534,234.175115 255.773349,236.493947 C257.652949,236.168413 259.532549,235.842878 261.412149,235.517344 C261.751856,233.621867 262.093164,231.72639 262.43287,229.830913" id="Fill-161" fill="#FFFFFF" mask="url(#mask-8)"></path>
                    <path d="M261.828129,234.533684 L261.828129,239.921842 C261.828129,239.921842 269.718283,237.930148 270.690932,239.921842 C272.006492,242.615921 268.526107,243.404901 268.526107,243.404901 L254.75359,243.404901 L255.721432,236.143717 L261.828129,234.533684 Z" id="Fill-162" fill="#17140B" mask="url(#mask-8)"></path>
                    <path d="M51.0352279,181.214975 L50.9214584,184.500789 C50.9214584,184.500789 50.1667341,186.524556 49.8238233,188.519457 C49.4072026,190.923281 48.5611422,192.849227 48.9601366,192.934219 C49.7949803,193.109013 51.2211048,189.62435 51.2211048,189.62435 C51.2211048,189.62435 49.9952787,195.091086 50.5545118,195.224186 C51.9453838,195.556135 52.3620044,189.860082 52.3620044,189.860082 C52.3620044,189.860082 52.7385654,195.15523 53.3634964,195.071842 C54.6357917,194.898651 53.8249839,189.981957 53.8249839,189.981957 L54.0733539,189.957903 C54.0733539,189.957903 55.3728898,194.108067 56.2029263,193.955724 C57.5297028,193.713577 55.4177566,190.148734 54.9065951,188.934794 C54.7463564,188.559548 54.4707459,187.497952 55.3264206,187.348816 C56.2333717,187.193265 56.3407316,189.797541 57.3999095,189.666044 C58.3164749,189.550584 57.406319,187.097048 56.5794873,186.112426 C56.3166958,185.79491 55.626067,184.484753 55.626067,184.484753 L56.2606122,180.86699 L51.0352279,181.214975 Z" id="Fill-163" fill="#F7CABC" mask="url(#mask-8)"></path>
                    <path d="M104.755095,175.502085 L105.74537,178.635555 C105.74537,178.635555 107.014461,180.383499 107.87975,182.211624 C108.924506,184.414996 110.257692,186.044272 109.895553,186.231896 C109.139226,186.626386 106.830186,183.651674 106.830186,183.651674 C106.830186,183.651674 109.47733,188.589215 108.972578,188.868244 C107.722716,189.562611 105.793442,184.184075 105.793442,184.184075 C105.793442,184.184075 106.85262,189.386213 106.226087,189.474412 C104.955394,189.649206 104.418594,184.694025 104.418594,184.694025 L104.170224,184.738927 C104.170224,184.738927 104.032419,189.086336 103.192768,189.16331 C101.849967,189.285185 102.926771,185.285761 103.095022,183.977208 C103.147901,183.571493 103.130275,182.476221 102.266588,182.562817 C101.350023,182.654223 101.944508,185.192751 100.888535,185.349905 C99.9751745,185.486213 100.194701,182.878729 100.725092,181.706484 C100.894945,181.331238 101.209013,179.88317 101.209013,179.88317 L99.6274565,176.570095 L104.755095,175.502085 Z" id="Fill-164" fill="#F7CABC" mask="url(#mask-8)"></path>
                    <path d="M89.8806165,190.316793 C92.5822411,195.773906 89.8806165,235.121891 89.8806165,235.121891 L83.9694104,235.121891 C83.9694104,235.121891 76.4590221,194.529498 80.3063535,190.311982 C81.4328317,189.078799 89.2156258,188.974564 89.8806165,190.316793" id="Fill-165" fill="#F7CABC" mask="url(#mask-8)"></path>
                    <path d="M77.1733663,191.59616 C79.1314833,195.011867 76.0613096,236.93847 76.0613096,236.93847 L71.3534963,236.93847 C71.3534963,236.93847 62.6381129,195.149778 67.6455726,191.859153 C69.228731,190.820008 76.4170396,190.276382 77.1733663,191.59616" id="Fill-166" fill="#F7CABC" mask="url(#mask-8)"></path>
                    <path d="M73.7479434,98.1557196 C58.1070429,98.1845847 56.6184253,124.708433 56.6184253,137.465218 C57.275404,158.355555 95.7711517,157.14322 95.114173,136.252882 C94.1863908,123.024634 95.3176761,98.1172327 73.7479434,98.1557196" id="Fill-167" fill="#FF645B" mask="url(#mask-8)"></path>
                    <path d="M71.4414674,130.892146 C69.7092869,133.576604 70.9799799,138.796382 71.1690616,139.125123 C72.582367,141.567434 80.3283062,141.974753 81.2032096,139.659128 C82.2223278,136.960238 82.3745546,132.107689 80.8683107,130.302015 L71.4414674,130.892146 Z" id="Fill-168" fill="#F7CABC" mask="url(#mask-8)"></path>
                    <path d="M86.5412417,111.911719 L82.8493419,107.522615 C82.0834008,106.61176 80.8367437,106.268586 79.7134703,106.661472 L63.4588556,112.325452 C62.0102976,117.408923 62.3788467,120.374013 63.8354165,124.373437 C65.5147182,128.988651 69.9853782,133.65037 76.8964738,133.178906 C84.9853239,132.625658 87.9769806,125.394942 88.4977564,121.196669 C88.815029,118.627673 88.2814341,114.693997 86.5412417,111.911719" id="Fill-169" fill="#F7CABC" mask="url(#mask-8)"></path>
                    <path d="M81.9805276,135.165789 C81.9805276,135.165789 90.6222012,137.834211 95.634468,142.789391 C105.027661,152.072738 107.528987,178.487541 107.528987,178.487541 C107.528987,178.487541 100.028213,179.286143 99.1517077,177.966365 C99.1517077,177.966365 97.1567358,160.850946 95.6408776,160.850946 C94.5897117,160.850946 100.762107,193.903125 97.6967402,196.292516 C87.4318485,204.291365 69.5908705,202.589926 58.2043078,196.292516 C56.9848912,195.617393 61.2216027,161.312788 61.2216027,161.312788 L56.590704,184.898808 L50.1987818,184.898808 C50.1987818,184.898808 48.6813213,149.02426 62.3400689,139.200493 C64.0241777,137.988158 70.6388317,136.467928 70.6388317,136.467928 C70.6388317,136.467928 71.1980648,140.092105 75.9651664,140.071258 C82.2288976,140.042393 81.9805276,135.165789 81.9805276,135.165789" id="Fill-170" fill="#49B172" mask="url(#mask-8)"></path>
                    <path d="M69.5785321,229.592936 C69.9454788,228.682081 70.2178846,228.420691 70.4213878,228.438331 C70.8219845,228.475214 70.8476227,229.580107 71.353977,229.682738 C71.9308364,229.798199 72.4676361,228.480025 72.951557,228.616332 C73.3842015,228.736604 73.2736368,229.865551 73.6630169,229.948939 C74.0956614,230.040345 74.6164372,228.735 74.9513361,228.837632 C75.2285491,228.924227 75.0042149,229.876776 75.3503305,230.037138 C75.8054084,230.248816 76.6851189,228.836028 77.0809085,229.015633 C77.4254218,229.171184 77.1722446,230.418799 77.0809085,230.882245 C76.8325385,232.136275 76.5168683,233.938742 76.2380529,236.257574 L70.5992527,235.28097 C70.2595467,233.38389 69.9182382,231.490016 69.5785321,229.592936" id="Fill-171" fill="#FFFFFF" mask="url(#mask-8)"></path>
                    <path d="M70.3757197,234.388076 L70.3757197,239.776234 C70.3757197,239.776234 62.487168,237.784539 61.5129167,239.776234 C60.1973569,242.471916 63.6777417,243.259293 63.6777417,243.259293 L77.4502588,243.259293 L76.4840193,235.998109 L70.3757197,234.388076 Z" id="Fill-172" fill="#17140B" mask="url(#mask-8)"></path>
                    <path d="M90.6427118,229.830913 C90.2757651,228.918454 90.0033593,228.657064 89.7998561,228.674704 C89.3992594,228.711587 89.3736212,229.81648 88.8672669,229.919112 C88.2904075,230.034572 87.7536078,228.718002 87.2696869,228.852706 C86.8370424,228.972977 86.9476071,230.101924 86.558227,230.185313 C86.1255825,230.276719 85.6032043,228.971373 85.2699078,229.074005 C84.9926948,229.1606 85.217029,230.11315 84.8709134,230.273512 C84.4158355,230.486793 83.536125,229.072401 83.138733,229.25361 C82.7958221,229.407558 83.0473969,230.656776 83.138733,231.118618 C83.387103,232.374252 83.7043756,234.175115 83.983191,236.493947 C85.862791,236.168413 87.7423911,235.842878 89.6219912,235.517344 C89.9616972,233.621867 90.3030057,231.72639 90.6427118,229.830913" id="Fill-173" fill="#FFFFFF" mask="url(#mask-8)"></path>
                    <path d="M90.0386118,234.533684 L90.0386118,239.921842 C90.0386118,239.921842 97.9271635,237.930148 98.8998125,239.921842 C100.216975,242.615921 96.7365899,243.404901 96.7365899,243.404901 L82.9640728,243.404901 L83.9303122,236.143717 L90.0386118,234.533684 Z" id="Fill-174" fill="#17140B" mask="url(#mask-8)"></path>
                    <path d="M172.436401,187.890999 L173.431483,191.037299 C173.431483,191.037299 174.703779,192.790053 175.573875,194.626197 C176.621836,196.837586 177.959829,198.474881 177.596087,198.662504 C176.836556,199.056994 174.519504,196.07266 174.519504,196.07266 C174.519504,196.07266 177.176262,201.027841 176.67151,201.308475 C175.415239,202.004445 173.479555,196.606665 173.479555,196.606665 C173.479555,196.606665 174.540335,201.828047 173.913802,201.916246 C172.636699,202.092644 172.098297,197.119823 172.098297,197.119823 L171.849927,197.163121 C171.849927,197.163121 171.71052,201.526567 170.867664,201.60354 C169.520056,201.727019 170.601668,197.711558 170.769918,196.399799 C170.822797,195.992479 170.805171,194.892397 169.93828,194.978993 C169.018509,195.072002 169.614597,197.616945 168.555419,197.775703 C167.637252,197.913614 167.859983,195.294905 168.391976,194.119453 C168.561829,193.742603 168.877499,192.288121 168.877499,192.288121 L167.289534,188.962216 L172.436401,187.890999 Z" id="Fill-175" fill="#883631" mask="url(#mask-8)"></path>
                    <path d="M123.280292,188.041258 L123.164921,191.339901 C123.164921,191.339901 122.410196,193.370082 122.064081,195.371398 C121.645858,197.784844 120.796592,199.718808 121.197189,199.803799 C122.033635,199.980197 123.466169,196.482706 123.466169,196.482706 C123.466169,196.482706 122.235536,201.970288 122.797974,202.104992 C124.193653,202.438544 124.611876,196.718437 124.611876,196.718437 C124.611876,196.718437 124.988437,202.034433 125.616573,201.949441 C126.893675,201.77625 126.081265,196.840312 126.081265,196.840312 L126.329635,196.817862 C126.329635,196.817862 127.633978,200.982459 128.467219,200.831719 C129.798803,200.587969 127.680447,197.010296 127.166081,195.791546 C127.005842,195.414696 126.728629,194.348289 127.587509,194.199153 C128.497665,194.040395 128.606627,196.655896 129.66901,196.522796 C130.590382,196.408939 129.673817,193.945781 128.845383,192.954745 C128.580989,192.638832 127.887155,191.323865 127.887155,191.323865 L128.524905,187.691669 L123.280292,188.041258 Z" id="Fill-176" fill="#883631" mask="url(#mask-8)"></path>
                    <path d="M160.333892,233.968409 L160.333892,239.377414 C160.333892,239.377414 168.252889,237.379305 169.230345,239.377414 C170.550712,242.084322 167.057508,242.874905 167.057508,242.874905 L153.232112,242.874905 L154.203159,235.584856 L160.333892,233.968409 Z" id="Fill-177" fill="#17140B" mask="url(#mask-8)"></path>
                    <path d="M133.624663,234.499367 L133.624663,239.908372 C133.624663,239.908372 125.705666,237.90866 124.728209,239.908372 C123.407842,242.613676 126.901046,243.405863 126.901046,243.405863 L140.726442,243.405863 L139.755396,236.115814 L133.624663,234.499367 Z" id="Fill-178" fill="#17140B" mask="url(#mask-8)"></path>
                    <path d="M141.575547,131.978919 C139.836957,135.428302 141.112457,142.142652 141.303141,142.564404 C142.721254,145.704289 151.571238,145.630522 152.449346,142.650999 C153.471669,139.180769 153.623896,132.94109 152.112845,130.61905 L141.575547,131.978919 Z" id="Fill-179" fill="#883631" mask="url(#mask-8)"></path>
                    <path d="M155.456386,102.462237 C149.069271,98.712977 141.193538,100.592418 136.363943,104.984729 C130.563302,110.262237 129.409583,118.933002 132.761777,125.535099 C135.423342,130.775724 141.315319,135.485551 148.252053,134.908248 C156.372951,134.234729 161.540649,126.683289 162.66232,120.127697 C163.604524,114.609646 162.255314,106.452039 155.456386,102.462237" id="Fill-180" fill="#883631" mask="url(#mask-8)"></path>
                    <path d="M153.232753,136.89465 C153.232753,136.89465 165.479798,138.878326 170.511293,143.852751 C179.941341,153.171377 175.025218,192.306081 175.025218,192.306081 C175.025218,192.306081 167.495601,193.107891 166.61589,191.784905 C166.61589,191.784905 167.923438,165.248228 166.40117,165.248228 C165.3468,165.248228 166.857851,186.072817 165.766625,189.820473 C163.606607,197.225983 136.718552,195.883754 131.722309,190.020925 C130.815358,188.956123 132.610031,161.361057 132.610031,161.361057 L129.238609,190.641525 L122.821048,190.641525 C122.821048,190.641525 115.937193,150.408343 129.647217,140.544486 C131.337736,139.330547 140.681255,137.491197 140.681255,137.491197 C140.681255,137.491197 143.217834,141.254889 145.914651,141.323845 C150.989411,141.456945 153.232753,136.89465 153.232753,136.89465" id="Fill-181" fill="#FEC70D" mask="url(#mask-8)"></path>
                    <polygon id="Fill-182" fill="#FF645B" mask="url(#mask-8)" points="166.028455 181.244803 161.801358 237.138923 150.63272 237.138923 148.245163 194.394474 141.902915 237.138923 130.184658 237.138923 131.234222 181.244803"></polygon>
                    <path d="M144.580023,97.8973766 C137.625663,98.1282977 129.456694,107.357122 129.456694,112.301077 C140.840051,112.057327 152.987748,111.90338 164.372708,111.65963 C163.699706,106.534465 163.090799,97.286398 144.580023,97.8973766" id="Fill-183" fill="#17140B" mask="url(#mask-8)"></path>
                    <path d="M343.081173,187.890999 L344.076255,191.037299 C344.076255,191.037299 345.348551,192.790053 346.218647,194.626197 C347.266608,196.837586 348.604601,198.474881 348.240859,198.662504 C347.481328,199.056994 345.164276,196.07266 345.164276,196.07266 C345.164276,196.07266 347.821034,201.027841 347.316282,201.308475 C346.060011,202.004445 344.124327,196.606665 344.124327,196.606665 C344.124327,196.606665 345.18671,201.828047 344.558574,201.916246 C343.281471,202.092644 342.743069,197.119823 342.743069,197.119823 L342.494699,197.163121 C342.494699,197.163121 342.355292,201.526567 341.512436,201.60354 C340.164828,201.727019 341.24644,197.711558 341.41469,196.399799 C341.467569,195.992479 341.449943,194.892397 340.583051,194.978993 C339.663281,195.072002 340.259369,197.616945 339.200191,197.775703 C338.282024,197.913614 338.504755,195.294905 339.036748,194.119453 C339.208203,193.742603 339.522271,192.288121 339.522271,192.288121 L337.934306,188.962216 L343.081173,187.890999 Z" id="Fill-184" fill="#D69C85" mask="url(#mask-8)"></path>
                    <path d="M293.925225,188.041258 L293.809853,191.339901 C293.809853,191.339901 293.055128,193.370082 292.709013,195.371398 C292.29079,197.784844 291.441525,199.718808 291.842121,199.803799 C292.68017,199.980197 294.111102,196.482706 294.111102,196.482706 C294.111102,196.482706 292.880468,201.970288 293.442906,202.104992 C294.838585,202.438544 295.256808,196.718437 295.256808,196.718437 C295.256808,196.718437 295.633369,202.034433 296.261505,201.949441 C297.538608,201.77625 296.726197,196.840312 296.726197,196.840312 L296.97617,196.817862 C296.97617,196.817862 298.27891,200.982459 299.112152,200.831719 C300.443735,200.587969 298.32538,197.010296 297.811013,195.791546 C297.650775,195.414696 297.373562,194.348289 298.232441,194.199153 C299.142597,194.040395 299.251559,196.655896 300.313942,196.522796 C301.235315,196.408939 300.318749,193.945781 299.491917,192.954745 C299.225921,192.638832 298.532088,191.323865 298.532088,191.323865 L299.17144,187.691669 L293.925225,188.041258 Z" id="Fill-185" fill="#D69C85" mask="url(#mask-8)"></path>
                    <path d="M330.978824,233.968409 L330.978824,239.377414 C330.978824,239.377414 338.897821,237.379305 339.875277,239.377414 C341.195644,242.084322 337.70244,242.874905 337.70244,242.874905 L323.877044,242.874905 L324.848091,235.584856 L330.978824,233.968409 Z" id="Fill-186" fill="#17140B" mask="url(#mask-8)"></path>
                    <path d="M304.269435,234.499367 L304.269435,239.908372 C304.269435,239.908372 296.350438,237.90866 295.372981,239.908372 C294.052614,242.613676 297.545818,243.405863 297.545818,243.405863 L311.371214,243.405863 L310.400168,236.115814 L304.269435,234.499367 Z" id="Fill-187" fill="#17140B" mask="url(#mask-8)"></path>
                    <path d="M312.22112,131.978919 C310.48253,135.428302 311.756428,142.142652 311.947112,142.564404 C313.365225,145.704289 322.215209,145.630522 323.094919,142.650999 C324.117242,139.180769 324.269469,132.94109 322.758418,130.61905 L312.22112,131.978919 Z" id="Fill-188" fill="#D69C85" mask="url(#mask-8)"></path>
                    <path d="M326.101959,102.462237 C319.713241,98.712977 311.839111,100.592418 307.009517,104.984729 C301.207273,110.262237 300.053554,118.933002 303.405748,125.535099 C306.067313,130.775724 311.95929,135.485551 318.897626,134.908248 C327.016922,134.234729 332.18462,126.683289 333.306291,120.127697 C334.250097,114.609646 332.899285,106.452039 326.101959,102.462237" id="Fill-189" fill="#D69C85" mask="url(#mask-8)"></path>
                    <path d="M323.877525,136.89465 C323.877525,136.89465 336.12457,138.878326 341.156065,143.852751 C350.586113,153.171377 345.66999,192.306081 345.66999,192.306081 C345.66999,192.306081 338.141975,193.107891 337.262264,191.784905 C337.262264,191.784905 338.56821,165.248228 337.045942,165.248228 C335.991571,165.248228 337.502623,186.072817 336.411397,189.820473 C334.252981,197.225983 307.364926,195.883754 302.367081,190.020925 C301.46013,188.956123 303.254803,161.361057 303.254803,161.361057 L299.883381,190.641525 L293.46582,190.641525 C293.46582,190.641525 286.581965,150.408343 300.291989,140.544486 C301.982508,139.330547 311.326027,137.491197 311.326027,137.491197 C311.326027,137.491197 313.864208,141.254889 316.559423,141.323845 C321.634183,141.456945 323.877525,136.89465 323.877525,136.89465" id="Fill-190" fill="#FF645B" mask="url(#mask-8)"></path>
                    <polygon id="Fill-191" fill="#7AB7FF" mask="url(#mask-8)" points="336.673227 181.244803 332.44613 237.138923 321.277492 237.138923 318.889935 194.394474 312.547687 237.138923 300.82943 237.138923 301.880596 181.244803"></polygon>
                    <path d="M315.225596,97.8973766 C308.269634,98.1282977 300.100664,107.357122 300.100664,112.301077 C311.485625,112.057327 323.633321,111.90338 335.016679,111.65963 C334.343677,106.534465 333.736372,97.286398 315.225596,97.8973766" id="Fill-192" fill="#17140B" mask="url(#mask-8)"></path>
                </g>
                <path d="M73.9948995,87.6285997 C63.1981845,87.9300867 52.1772411,86.5649536 42.3401269,81.830402 C32.5030127,77.0886147 23.9244704,68.6855694 20.2355526,57.8875115 C16.5418127,47.0942774 18.4127932,33.9349735 26.1112995,25.8792413 C31.9822243,19.7361424 40.3051944,17.1168235 48.3629483,15.2934302 C73.4789332,9.59412025 99.6991825,9.42287564 124.882677,14.7989916 C133.422642,16.6151492 142.317033,19.3574748 148.245823,26.1373141 C158.164913,37.4732248 155.746623,56.8865747 145.948086,68.3358445 C136.147137,79.7923499 121.087673,84.5100183 106.575518,85.6942592 C92.0585416,86.8760882 88.5335757,86.8157908 73.9948995,87.6285997" id="Fill-153" fill="#7AB7FF"></path>
                <path d="M63.1339217,83.0768151 C57.6680546,90.2425578 50.2178872,95.867099 41.8322296,99.1689844 C44.9641931,93.1030663 46.8158852,86.3835243 47.228176,79.5747423" id="Fill-155" fill="#7AB7FF"></path>
                <path d="M294.030016,0.0397236662 C283.233301,-0.261763319 272.214769,1.10336975 262.377654,5.83792137 C252.54054,10.5821206 243.959587,18.9827539 240.27308,29.7808118 C236.57934,40.5740459 238.450321,53.7333498 246.148827,61.7890821 C252.019752,67.9321809 260.342722,70.5442641 268.400476,72.3748931 C293.523694,78.0742031 319.734299,78.2454477 344.920205,72.8765675 C353.46017,71.0531742 362.354561,68.3108485 368.283351,61.5310092 C378.202441,50.1950986 375.78415,30.7817486 365.985613,19.3324788 C356.184665,7.87597339 341.1252,3.15830504 326.610635,1.97406416 C312.096069,0.792235182 308.571103,0.852532579 294.030016,0.0397236662" id="Fill-161" fill="#7AB7FF"></path>
                <path d="M329.637969,72.1876398 C335.106247,79.3533825 342.556415,84.9779237 350.942072,88.2798092 C347.810109,82.2090672 345.963239,75.4943491 345.543715,68.685567" id="Fill-163" fill="#7AB7FF"></path>
                <path d="M182.756285,0.0381590774 C171.95957,-0.25609222 160.941038,1.10180516 151.103924,5.84600437 C141.26681,10.580556 132.685856,18.9860131 128.99935,29.7792472 C125.30561,40.5724813 127.17659,53.7341971 134.875096,61.7899294 C140.746021,67.9402639 149.06658,70.5523471 157.126745,72.3733285 C182.24273,78.0750504 208.460568,78.2438831 233.646474,72.8750029 C242.186439,71.0516096 251.078419,68.309284 257.00962,61.5318565 C266.92871,50.193534 264.51042,30.7825959 254.711883,19.3309143 C244.910934,7.8744088 229.85147,3.15915235 215.336904,1.97491147 C200.822338,0.790670593 197.290139,0.853379886 182.756285,0.0381590774" id="Fill-157" fill="#B2E1FF"></path>
                <path d="M218.364238,72.1852279 C223.832517,79.3533825 231.282684,84.9779237 239.668342,88.2725735 C236.536378,82.2066553 234.684686,75.4919372 234.269984,68.685567" id="Fill-159" fill="#B2E1FF"></path>
            </g>
        </g>
    </g>
</svg>