<?xml version="1.0" encoding="UTF-8" standalone="no"?>
<svg width="140px" height="140px" viewBox="0 0 140 140" version="1.1" xmlns="http://www.w3.org/2000/svg" xmlns:xlink="http://www.w3.org/1999/xlink">
    <!-- Generator: Sketch 41.2 (35397) - http://www.bohemiancoding.com/sketch -->
    <title>Artboard 4 Copy 7</title>
    <desc>Created with Sketch.</desc>
    <defs>
        <polygon id="path-1" points="28.0753903 0.136750732 0.225382517 0.136750732 0.225382517 62.984631 28.0753903 62.984631 28.0753903 0.136750732"></polygon>
    </defs>
    <g id="Page-1" stroke="none" stroke-width="1" fill="none" fill-rule="evenodd">
        <g id="Artboard-4-Copy-7">
            <g id="Page-1" transform="translate(32.000000, 34.000000)">
                <path d="M18.1032455,67.0411277 C18.1032455,67.0411277 17.7613687,57.4900076 17.9532279,54.9437906 C18.1410051,52.4363537 21.6220256,48.3542423 22.8885006,46.1835795 C23.8998437,44.4476617 25.5653452,40.7513098 26.0603012,38.8061837 C26.8940724,35.5262072 27.8492865,25.3872631 27.8492865,25.3872631 C27.8492865,25.3872631 27.9156208,24.0044478 26.8920314,23.3890695 C25.8633393,22.7706297 24.7968877,24.2003892 24.5182836,24.8382191 C23.490612,27.2017616 22.6547997,33.2994155 22.0312572,34.8404125 C21.9138965,35.1302424 20.8096854,35.1149345 20.7811106,34.8036735 C20.6066004,32.9381486 19.6115857,16.1208702 19.6115857,16.1208702 L19.3982954,9.92626616 C19.3982954,9.92626616 19.3829875,6.96367382 17.5756326,6.97694068 C15.7866473,6.98816649 15.9499318,11.0019025 15.9499318,11.0019025 C15.9499318,11.0019025 16.0785183,16.4392749 16.13975,18.2507118 C16.2907881,22.6808232 16.0285124,24.250395 15.6019318,25.5597323 C15.4968174,25.8791575 14.4936385,26.3496208 14.2834098,25.2913334 C14.1068585,24.4024537 14.181357,22.672659 14.1905418,21.8001077 C14.218096,19.063052 13.8262133,7.06980872 13.8262133,7.06980872 C13.8262133,7.06980872 13.5037265,5.25837179 11.8923131,5.37777355 C10.6411459,5.47064158 10.496231,7.49128672 10.496231,7.49128672 C10.496231,7.49128672 10.6023659,23.8779024 10.459492,24.8310754 C10.4186708,25.0994742 9.59306382,25.1698906 9.38283508,24.9964009 C8.58478231,24.3371399 9.2185301,11.7009641 8.4674216,7.75968554 C8.3867999,7.33718701 8.01940988,6.79834831 7.09379112,6.85243629 C5.73648908,6.93407851 5.75792017,8.46078817 5.75792017,8.46078817 C5.75792017,8.46078817 5.92120462,25.0821252 5.6160668,25.7301604 C5.53850668,25.8924243 4.93639525,26.2026648 4.81801402,26.0669346 C3.60460641,24.6606472 3.28722225,18.3231693 3.00759762,15.6595916 C2.91472959,14.7798966 2.71572666,12.9215154 2.0942252,12.4500315 C1.70642461,12.1540785 0.686917294,12.3275682 0.39504633,12.7194509 C-0.390760113,13.7807998 0.211351317,16.7995212 0.373615245,18.1088584 C0.598131371,19.923357 0.613439289,23.5084713 0.70324574,25.3076619 C0.763456883,26.520049 0.970624036,39.2062306 1.46455951,42.1729051 C1.79112843,44.1302775 3.55153896,47.7888698 3.80156829,49.7564475 C4.33734541,53.9589812 3.49949204,62.7406233 3.04025451,66.9513212 C3.04025451,66.9513212 8.72867673,69.744506 18.1032455,67.0411277" id="Fill-1" fill="#FFFFFF"></path>
                <g id="Group-5" transform="translate(45.923753, 0.883471)">
                    <mask id="mask-2" fill="white">
                        <use xlink:href="#path-1"></use>
                    </mask>
                    <g id="Clip-4"></g>
                    <path d="M18.328476,61.8064321 C18.328476,61.8064321 17.9865992,52.255312 18.1784584,49.709095 C18.3662356,47.2006376 21.8472561,43.1185262 23.1137311,40.9478635 C24.1250742,39.2129661 25.7905757,35.5166143 26.2855317,33.5714882 C27.1193029,30.2915117 28.074517,20.1525675 28.074517,20.1525675 C28.074517,20.1525675 28.1408513,18.7687318 27.1172619,18.154374 C26.0885698,17.5349136 25.0221182,18.9656936 24.7435141,19.6035235 C23.7158425,21.967066 22.8800302,28.0647199 22.2575083,29.6046964 C22.139127,29.8945263 21.0349159,29.880239 21.0063411,29.5679574 C20.8318308,27.7024325 19.8368162,10.8861747 19.8368162,10.8861747 L19.6235259,4.69157062 C19.6235259,4.69157062 19.608218,1.72795775 17.8008631,1.74122461 C16.0118778,1.75347095 16.1751623,5.76618644 16.1751623,5.76618644 C16.1751623,5.76618644 16.3037488,11.2035588 16.3649805,13.0149957 C16.5160186,17.4451071 16.2537429,19.014679 15.8271623,20.3250367 C15.7220479,20.6444619 14.718869,21.1149253 14.5086403,20.0566379 C14.332089,19.1667376 14.4065875,17.4379634 14.4157723,16.5654121 C14.4433265,13.8283564 14.0514438,1.83511318 14.0514438,1.83511318 C14.0514438,1.83511318 13.728957,0.0236762461 12.1175436,0.142057476 C10.8663764,0.234925511 10.7214615,2.25557065 10.7214615,2.25557065 C10.7214615,2.25557065 10.8275964,18.6421863 10.6847225,19.5953593 C10.6439013,19.8637581 9.81829432,19.9341746 9.60806558,19.7617053 C8.8100128,19.1024444 9.4437606,6.46626855 8.6926521,2.52499 C8.6120304,2.10249147 8.24464038,1.56263224 7.31902162,1.61774074 C5.96171958,1.69938297 5.98315067,3.22609263 5.98315067,3.22609263 C5.98315067,3.22609263 6.14643512,19.8474297 5.84129729,20.4944443 C5.76373718,20.6577288 5.16162575,20.9669487 5.04324452,20.8312185 C3.82983691,19.4249312 3.51245275,13.0874532 3.23282812,10.4238755 C3.13996008,9.54520106 2.94095715,7.68681985 2.31945569,7.21533599 C1.93165511,6.91938291 0.91214779,7.09287265 0.620276826,7.48475534 C-0.165529617,8.54508377 0.436581813,11.5638051 0.598845741,12.8741629 C0.823361867,14.6876409 0.838669785,18.2737757 0.928476236,20.0729663 C0.988687379,21.2853534 1.19585453,33.9715351 1.68979001,36.9382096 C2.01635892,38.8945614 3.77676946,42.5541743 4.02679878,44.521752 C4.5625759,48.7242857 3.72472254,57.5049073 3.26548501,61.7166257 C3.26548501,61.7166257 8.95390723,64.5087899 18.328476,61.8064321" id="Fill-3" fill="#FF645B" mask="url(#mask-2)"></path>
                </g>
                <path d="M41.0471608,71.1412004 C41.0471608,71.1412004 40.705284,61.5911008 40.8971432,59.0438633 C41.0849204,56.5364263 44.5659408,52.4543149 45.8324159,50.2836522 C46.843759,48.5487549 48.5092604,44.8513825 49.0042165,42.9062564 C49.8379877,39.6262799 50.7932018,29.4883563 50.7932018,29.4883563 C50.7932018,29.4883563 50.8595361,28.1045205 49.8359466,27.4901627 C48.8072546,26.8707023 47.740803,28.3014824 47.4621989,28.9393123 C46.4345273,31.3018342 45.598715,37.3994881 44.976193,38.9404852 C44.8578118,39.2303151 43.7536007,39.2160277 43.7250259,38.9037462 C43.5505156,37.0382213 42.555501,20.2209429 42.555501,20.2209429 L42.3422107,14.0273594 C42.3422107,14.0273594 42.3269027,11.0637465 40.5195479,11.0770134 C38.7305626,11.0882392 38.8938471,15.1019752 38.8938471,15.1019752 C38.8938471,15.1019752 39.0224336,20.5393476 39.0836652,22.3507845 C39.2347034,26.7808959 38.9724277,28.3504677 38.5458471,29.6608255 C38.4407327,29.9802507 37.4375538,30.4496935 37.2273251,29.3924266 C37.0507738,28.5025264 37.1252723,26.7737522 37.1344571,25.9012009 C37.1620113,23.1631247 36.7701286,11.1709019 36.7701286,11.1709019 C36.7701286,11.1709019 36.4476418,9.359465 34.8362283,9.47784623 C33.5850612,9.57071426 33.4401462,11.5913594 33.4401462,11.5913594 C33.4401462,11.5913594 33.5462811,27.977975 33.4034072,28.9311481 C33.3625861,29.1995469 32.5369791,29.2699633 32.3267504,29.0964736 C31.5297181,28.4372126 32.1624454,15.8020573 31.4113369,11.8607788 C31.3307152,11.4372597 30.9633252,10.898421 30.0377064,10.952509 C28.6804044,11.0351717 28.7018355,12.5608609 28.7018355,12.5608609 C28.7018355,12.5608609 28.8651199,29.1821979 28.5599821,29.8302331 C28.482422,29.9935175 27.8803105,30.3027375 27.7619293,30.1670073 C26.5485217,28.7607199 26.2311375,22.423242 25.9515129,19.7596643 C25.8586449,18.8809898 25.6596419,17.0215881 25.0381405,16.5501042 C24.6503399,16.2551717 23.6318531,16.4286614 23.3389616,16.8205441 C22.5531552,17.8808725 23.1552666,20.8995939 23.3175305,22.2089311 C23.5420467,24.0234296 23.5573546,27.6095645 23.647161,29.4087551 C23.7073722,30.6211422 23.9145393,43.3063033 24.4084748,46.2729778 C24.7350437,48.2303502 26.4954542,51.889963 26.7454836,53.8575407 C27.2812607,58.0600744 26.4434073,66.840696 25.9841698,71.0513939 C25.9841698,71.0513939 31.672592,73.8445786 41.0471608,71.1412004" id="Fill-6" fill="#FEC70D"></path>
            </g>
        </g>
    </g>
</svg>