<?xml version="1.0" encoding="UTF-8" standalone="no"?>
<svg width="140px" height="140px" viewBox="0 0 140 140" version="1.1" xmlns="http://www.w3.org/2000/svg" xmlns:xlink="http://www.w3.org/1999/xlink">
    <!-- Generator: Sketch 41.2 (35397) - http://www.bohemiancoding.com/sketch -->
    <title>Artboard 4 Copy 9</title>
    <desc>Created with Sketch.</desc>
    <defs></defs>
    <g id="Page-1" stroke="none" stroke-width="1" fill="none" fill-rule="evenodd">
        <g id="Artboard-4-Copy-9">
            <g id="Group-10" transform="translate(26.000000, 38.000000)">
                <g id="Group-2" transform="translate(-0.000000, 0.761930)">
                    <g id="Group-3" transform="translate(0.000000, 0.189010)">
                        <path d="M2.1702533,61.1748773 C1.61790635,41.4025826 1.0655594,21.6294248 0.513212454,1.85626704 C17.7498895,1.98486031 34.9831143,1.87439092 52.2102979,1.52485887 C63.4807648,1.29528967 74.7486426,0.963881496 86.0122051,0.529771315 C85.1923151,26.428802 86.6758845,27.5283176 87.5639548,42.9543323 C87.9592281,49.8163801 87.4094703,55.840414 85.6954687,61.1748773 C67.2893696,59.1752087 49.1206071,59.0725067 25.4982815,59.611045 C19.339613,59.7508578 9.59068936,60.0020031 3.79018334,60.6000913 L2.1702533,61.1748773 Z" id="Fill-1" fill="#FF645B"></path>
                        <polygon id="Fill-4" fill="#FEC70D" points="8.83984273 7.43410819 8.28059144 53.6948913 81.1627715 53.3013441 79.4444547 9.22578361"></polygon>
                        <polygon id="Fill-6" fill="#FFFFFF" points="12.2419547 9.16019241 11.7327599 51.3482799 78.0868894 50.9909804 76.521331 10.8275898"></polygon>
                        <path d="M30.836197,20.2837451 L30.7196863,21.2270502 C30.7196863,21.2270502 54.3290662,21.8570709 57.0519641,20.157741 C57.2211203,20.0524499 57.3341789,19.9635565 57.3911396,19.8858827 C58.2291535,18.7294063 46.4995482,20.6971423 30.836197,20.2837451" id="Fill-8" fill="#000000"></path>
                        <path d="M15.1849283,31.4066126 L15.1849283,32.3197111 C15.1849283,32.3197111 69.4400705,32.1246636 72.1638314,30.4253337 C72.3329877,30.3200425 72.4451832,30.2311492 72.5021439,30.1534754 C73.3410209,28.996999 30.8491426,31.8200097 15.1849283,31.4066126" id="Fill-10" fill="#000000"></path>
                        <path d="M15.1849283,36.5856603 L15.1849283,37.4978958 C15.1849283,37.4978958 69.4400705,37.3037114 72.1638314,35.6043814 C72.3329877,35.4990903 72.4451832,35.4093339 72.5021439,35.3316601 C73.3410209,34.1751837 30.8491426,36.9990575 15.1849283,36.5856603" id="Fill-12" fill="#000000"></path>
                        <path d="M15.1849283,40.9003813 L15.1849283,41.8126168 C15.1849283,41.8126168 69.4400705,41.6184323 72.1638314,39.9191024 C72.3329877,39.8138113 72.4451832,39.7240549 72.5021439,39.6472442 C73.3410209,38.4899047 30.8491426,41.3137785 15.1849283,40.9003813" id="Fill-14" fill="#000000"></path>
                    </g>
                </g>
            </g>
        </g>
    </g>
</svg>