<?xml version="1.0" encoding="UTF-8" standalone="no"?>
<svg width="308px" height="199px" viewBox="0 0 308 199" version="1.1" xmlns="http://www.w3.org/2000/svg" xmlns:xlink="http://www.w3.org/1999/xlink">
    <!-- Generator: Sketch 41.2 (35397) - http://www.bohemiancoding.com/sketch -->
    <title>Group 2</title>
    <desc>Created with Sketch.</desc>
    <defs>
        <polygon id="path-1" points="0.0184194706 10.4189774 14.3416107 10.4189774 14.3416107 0.426136176 0.0184194706 0.426136176 0.0184194706 10.4189774"></polygon>
        <polygon id="path-3" points="0.370760929 10.4189774 14.6945305 10.4189774 14.6945305 0.426136176 0.370760929 0.426136176 0.370760929 10.4189774"></polygon>
        <polygon id="path-5" points="58.4927746 70.7171985 58.4927746 0.136310479 0.378903699 0.136310479 0.378903699 70.7171985 58.4927746 70.7171985"></polygon>
        <polygon id="path-7" points="0 197.680561 307.054858 197.680561 307.054858 0 0 0"></polygon>
    </defs>
    <g id="Page-1" stroke="none" stroke-width="1" fill="none" fill-rule="evenodd">
        <g id="Paso-1-Copy-59" transform="translate(-486.000000, -1478.000000)">
            <g id="Group-2" transform="translate(486.000000, 1478.000000)">
                <g id="Group" transform="translate(0.000000, 0.597061)">
                    <path d="M208.082772,79.4840344 L205.912083,104.554699 C205.912083,104.554699 205.129959,106.819524 204.697903,109.090861 C204.177354,111.828447 203.323654,113.973454 203.656805,114.108901 C204.350437,114.391516 205.805371,110.502633 205.805371,110.502633 C205.805371,110.502633 204.38167,116.700622 204.847561,116.909001 C206.001878,117.427345 206.755372,110.882925 206.755372,110.882925 C206.755372,110.882925 206.702016,117.039239 207.238181,117.00147 C208.328731,116.92463 207.987772,111.16554 207.987772,111.16554 L208.201197,111.161633 C208.201197,111.161633 209.009349,116.081995 209.723802,115.985619 C210.865106,115.833242 209.326884,111.511971 208.978116,110.061128 C208.868801,109.610508 208.710033,108.358928 209.445309,108.269064 C210.224831,108.172689 210.133734,111.19289 211.040791,111.1434 C211.825518,111.097817 211.225586,108.175293 210.595722,106.957575 C210.394009,106.568166 209.900789,104.987086 209.900789,104.987086 L214.702852,80.0518687 L208.082772,79.4840344 Z" id="Fill-1" fill="#893732"></path>
                    <path d="M252.312898,78.349538 L248.354124,103.200102 C248.354124,103.200102 248.563645,105.58735 248.433508,107.896456 C248.276042,110.67702 248.584467,112.96659 248.229192,113.017383 C247.48741,113.122875 247.017615,108.99696 247.017615,108.99696 C247.017615,108.99696 246.89919,115.356443 246.39686,115.445005 C245.151447,115.66771 246.002544,109.136314 246.002544,109.136314 C246.002544,109.136314 244.56583,115.120714 244.05439,114.955313 C243.014594,114.617998 244.738912,109.111569 244.738912,109.111569 L244.533295,109.055567 C244.533295,109.055567 242.557812,113.633405 241.887606,113.367721 C240.817878,112.943148 243.355554,109.12329 244.045281,107.798778 C244.260007,107.389833 244.71809,106.213791 244.02576,105.946804 C243.291786,105.666794 242.65021,108.61797 241.782195,108.348379 C241.031303,108.115254 242.320963,105.427158 243.228019,104.396982 C243.516924,104.067481 244.378432,102.653105 244.378432,102.653105 L245.752681,77.2959189 L252.312898,78.349538 Z" id="Fill-3" fill="#893732"></path>
                    <path d="M244.7747,61.894326 C247.262923,60.8641496 247.22128,36.7845905 247.946144,29.7114072 C248.427652,25.0202626 246.910252,19.2116827 245.116961,13.375753 C244.209904,10.42588 241.920791,7.50335682 240.533528,5.95092919 C236.240301,1.14517585 234.340298,1.71691724 230.602757,1.60230849 C226.865216,1.48769974 221.343494,3.42953665 219.125956,6.77663315 C212.969164,16.0690586 213.078479,27.0311252 212.97437,31.5555662 C212.910602,34.4142731 209.107993,60.5633017 212.95615,61.894326 C219.699861,64.2294793 239.955719,63.8882578 244.7747,61.894326" id="Fill-5" fill="#FF645B"></path>
                    <path d="M237.649557,110.277973 C239.863191,120.213771 237.649557,191.905452 237.649557,191.905452 L232.801946,191.905452 C232.801946,191.905452 226.643853,117.968481 229.79968,110.288392 C230.722353,108.040498 237.104282,107.832118 237.649557,110.277973" id="Fill-7" fill="#893732"></path>
                    <path d="M227.230381,112.919575 C228.834973,119.138402 226.318119,195.836402 226.318119,195.836402 L222.458249,195.836402 C222.458249,195.836402 215.311114,119.56558 219.418244,113.574668 C220.715712,111.681019 226.609627,110.516698 227.230381,112.919575" id="Fill-9" fill="#893732"></path>
                    <polygon id="Fill-11" fill="#000000" points="219.195189 153.509306 227.439382 153.509306 226.571366 188.59912 221.831769 188.59912"></polygon>
                    <polygon id="Fill-13" fill="#000000" points="230.080256 153.509306 238.500134 153.509306 237.649037 192.097291 232.83396 191.125722"></polygon>
                    <polygon id="Fill-15" fill="#FFFFFF" points="219.195189 155.0814 219.195189 155.567184 227.439382 155.860218 227.439382 155.470809"></polygon>
                    <polygon id="Fill-17" fill="#FFFFFF" points="238.412031 156.636823 238.412031 156.151038 230.16914 155.859306 230.16914 156.247413"></polygon>
                    <g id="Group-21" transform="translate(214.104512, 187.261583)">
                        <mask id="mask-2" fill="white">
                            <use xlink:href="#path-1"></use>
                        </mask>
                        <g id="Clip-20"></g>
                        <path d="M6.52687085,0.426136176 L14.3416107,0.426136176 L13.213321,7.02655837 L13.2992116,10.4192379 L0.187887046,10.4192379 C0.187887046,10.4192379 -0.193414998,8.6727568 0.187887046,8.31069733 C1.29405338,7.26098536 5.04070384,8.56596228 6.17940449,7.20368098 C7.36105041,5.7893048 6.52687085,0.426136176 6.52687085,0.426136176" id="Fill-19" fill="#000000" mask="url(#mask-2)"></path>
                    </g>
                    <g id="Group-24" transform="translate(230.342873, 187.261583)">
                        <mask id="mask-4" fill="white">
                            <use xlink:href="#path-3"></use>
                        </mask>
                        <g id="Clip-23"></g>
                        <path d="M8.18550077,0.426136176 L0.370760929,0.426136176 L1.50035197,7.02655837 L1.41316003,10.4192379 L14.5244846,10.4192379 C14.5244846,10.4192379 14.907088,8.6727568 14.5244846,8.31069733 C13.4183182,7.26098536 9.67166778,8.56596228 8.53296714,7.20368098 C7.35132122,5.7893048 8.18550077,0.426136176 8.18550077,0.426136176" id="Fill-22" fill="#000000" mask="url(#mask-4)"></path>
                    </g>
                    <path d="M247.808849,46.3955762 C244.906789,43.952326 231.669231,39.7912469 231.669231,39.7912469 C231.669231,39.7912469 233.264714,46.3044101 230.275462,46.3044101 C227.230251,46.3044101 227.230251,40.9438463 227.230251,40.9438463 C227.230251,40.9438463 218.828592,43.2659758 216.463999,44.9186861 C204.590279,53.2174016 204.590279,104.245646 204.590279,104.245646 L211.167414,104.833016 C211.167414,104.833016 215.72482,72.6175376 216.614958,65.6537536 C216.728178,64.77335 216.647493,64.1221639 217.07174,64.1221639 C217.325507,64.1221639 217.583179,64.294077 217.55585,64.7967927 C217.279959,70.0101885 216.811465,79.7636537 216.811465,79.7636537 L219.071949,82.4087716 L235.83102,82.9088825 L242.989868,79.740211 C242.989868,79.740211 243.524732,63.5191656 243.900828,59.1731496 C243.922952,58.919187 243.43754,62.0696253 243.445348,62.317076 C243.727746,71.4323789 244.463021,101.097812 244.463021,101.097812 L248.974879,102.945878 C248.974879,102.945878 258.749485,55.6059522 247.808849,46.3955762" id="Fill-25" fill="#FFFFFF"></path>
                    <path d="M219.165387,43.1892661 C220.033403,42.8819063 222.56327,42.1799277 222.56327,42.1799277 C222.56327,42.1799277 222.88601,50.5750187 224.897932,52.1600057 C226.870812,53.7163404 232.978152,53.6590361 234.944525,52.0961894 C237.029323,50.4382697 237.421036,41.733214 237.421036,41.733214 L242.528922,43.45495 C242.528922,43.45495 242.562758,66.1552971 242.989608,73.7103581 C243.719677,86.6455185 248.036329,125.32467 248.036329,125.32467 L210.408454,126.616623 C210.408454,126.616623 214.195447,87.130001 216.811205,73.7103581 C217.815865,68.5516619 218.145112,52.8059823 218.145112,52.8059823 L216.761753,44.3223299 C216.761753,44.3223299 217.919974,43.6307703 219.165387,43.1892661" id="Fill-27" fill="#000000"></path>
                    <path d="M233.182467,35.0889019 C231.589587,35.8364635 228.127938,36.3183412 225.652728,34.3725972 C225.555125,34.2970596 223.020052,31.3927697 222.068749,26.8579097 C221.116144,22.3191427 222.129913,17.3714308 222.453955,15.4621532 C222.453955,15.4621532 223.066901,15.0362775 227.154511,15.0362775 C229.636228,15.0362775 232.643699,15.1118151 233.961989,15.2186096 C239.602136,15.6744399 240.481863,15.6835565 240.481863,15.6835565 C240.604192,16.2396694 240.519603,22.8153465 240.170836,25.0645433 C239.278094,30.8197259 236.260212,33.6458735 233.182467,35.0889019" id="Fill-29" fill="#893732"></path>
                    <path d="M231.242512,32.6800343 L231.242512,39.7909864 C231.242512,39.7909864 233.925941,48.4817159 228.74648,48.4817159 C224.808528,48.4817159 225.791064,40.9448882 225.791064,40.9448882 L225.940721,39.1931976 L226.254352,32.6800343 L231.242512,32.6800343 Z" id="Fill-31" fill="#893732"></path>
                    <path d="M137.228523,185.540889 L137.228523,192.651841 C137.228523,192.651841 147.638199,190.022352 148.921352,192.651841 C150.658684,196.206015 146.066142,197.24661 146.066142,197.24661 L127.895082,197.24661 L129.170427,187.665058 L137.228523,185.540889 Z" id="Fill-33" fill="#000000"></path>
                    <path d="M108.44139,185.974579 L108.44139,193.085531 C108.44139,193.085531 98.0317144,190.456042 96.7485614,193.085531 C95.0112296,196.639705 99.603772,197.6803 99.603772,197.6803 L117.774831,197.6803 L116.499487,188.098748 L108.44139,185.974579 Z" id="Fill-35" fill="#000000"></path>
                    <path d="M131.755473,40.7956363 C131.530335,45.1937471 126.611148,47.2072145 124.018815,46.9806018 C118.817231,46.5234691 114.838936,44.2716676 115.080991,40.507812 C115.162978,39.244511 116.922433,35.3816752 116.983597,34.6653705 C116.983597,34.6653705 112.657836,29.7971033 111.431944,21.4749451 C110.49886,15.1258807 109.434337,11.5078908 112.257014,8.44210669 C119.664424,0.396051379 127.404986,4.96477297 128.948413,5.29687788 C130.49184,5.62898278 133.861093,10.7759576 134.091436,18.2815285 C134.091436,18.2815285 134.921711,26.8745801 128.611358,35.3230684 C128.611358,35.3230684 131.803623,39.8683473 131.755473,40.7956363" id="Fill-37" fill="#D69C85"></path>
                    <polygon id="Fill-39" fill="#1E1E1E" points="144.276104 105.605192 139.56774 188.402201 127.124019 188.402201 124.465316 125.086075 117.401468 188.402201 104.346102 188.402201 105.516036 105.605192"></polygon>
                    <path d="M154.255677,106.434413 L152.868414,114.261669 C152.868414,114.261669 153.093551,117.479831 152.86451,120.584686 C152.588619,124.325099 152.950401,127.413024 152.471496,127.472933 C151.469439,127.59796 150.933274,122.035529 150.933274,122.035529 C150.933274,122.035529 150.624848,130.592114 149.946834,130.700211 C148.264159,130.969802 149.56423,122.198325 149.56423,122.198325 C149.56423,122.198325 147.489843,130.220938 146.805321,129.985209 C145.414154,129.504633 147.864638,122.134509 147.864638,122.134509 L147.588747,122.055064 C147.588747,122.055064 144.82203,128.169702 143.926686,127.795921 C142.495177,127.199435 146.002375,122.117578 146.962787,120.352864 C147.2595,119.804565 147.903679,118.232602 146.978404,117.857519 C145.997169,117.4629 145.064085,121.420809 143.90196,121.039214 C142.895999,120.707109 144.695797,117.116469 145.939909,115.751583 C146.338129,115.315288 147.530185,113.432058 147.530185,113.432058 L148.091077,105.604802 L154.255677,106.434413 Z" id="Fill-41" fill="#D69C85"></path>
                    <path d="M94.7197222,101.92573 L96.106985,109.754289 C96.106985,109.754289 95.8818476,112.971149 96.1108891,116.076004 C96.38678,119.816417 96.0249985,122.905644 96.5052049,122.965553 C97.5072614,123.090581 98.0421254,117.526847 98.0421254,117.526847 C98.0421254,117.526847 98.3505506,126.083432 99.0298669,126.191529 C100.71124,126.46112 99.4111689,117.689643 99.4111689,117.689643 C99.4111689,117.689643 101.486857,125.712256 102.171379,125.476526 C103.562546,124.997253 101.112062,117.627129 101.112062,117.627129 L101.387953,117.546382 C101.387953,117.546382 104.15467,123.66102 105.048713,123.287239 C106.480222,122.690752 102.974326,117.608896 102.013913,115.844182 C101.715899,115.297185 101.07172,113.72392 101.996995,113.350139 C102.97823,112.954218 103.911314,116.913429 105.074741,116.530532 C106.0794,116.199729 104.280904,112.607787 103.036792,111.244203 C102.638572,110.807909 101.445214,108.923376 101.445214,108.923376 L100.884322,101.097422 L94.7197222,101.92573 Z" id="Fill-43" fill="#D69C85"></path>
                    <path d="M132.686474,39.3546917 C132.686474,39.3546917 143.716905,41.0998704 149.445545,47.5387985 C160.180564,59.6078814 154.255417,113.64721 154.255417,113.64721 C154.255417,113.64721 147.618419,114.362212 146.617663,112.648291 C146.617663,112.648291 146.499238,75.2441618 144.767112,75.2441618 C143.564644,75.2441618 145.28636,102.21108 144.043549,107.062416 C141.585257,116.653085 110.974381,114.914418 105.286083,107.322891 C104.254095,105.944981 106.295948,70.4371061 106.295948,70.4371061 L102.786147,108.85969 L94.7202428,110.171179 C94.7202428,110.171179 87.3141338,56.2542731 102.924093,43.4845139 C104.848822,41.9086436 114.743155,39.5318143 114.743155,39.5318143 L124.310843,49.1589495 L132.686474,39.3546917 Z" id="Fill-45" fill="#000000"></path>
                    <polygon id="Fill-47" fill="#FFFFFF" points="123.651828 40.9495767 116.983597 34.6656309 114.742634 39.5312934 117.570516 47.7023764 124.702036 82.3611048 126.048956 82.3611048 129.289372 47.7023764 132.685954 39.3541708 128.612659 35.3233289"></polygon>
                    <path d="M133.480051,9.00707574 C133.459229,8.92632866 131.755733,4.60505778 130.37758,2.95495223 C130.285182,2.84555297 130.0171,2.54079788 129.998881,2.50823858 C129.480934,1.93389245 128.925248,1.4025246 128.330521,0.915437403 C127.540588,0.526028122 123.128937,-0.237161973 121.923866,0.0728026047 C121.355167,0.217365916 116.909679,1.29442771 116.46461,1.85314537 C115.924541,1.7489556 110.076174,4.9970718 109.56994,5.71988836 C109.283638,6.4296812 109.050693,7.16552148 108.871103,7.91699022 C108.871103,7.95345665 108.847679,8.05764642 108.835966,8.07067014 C108.804733,8.21002396 108.781309,8.35068016 108.75398,8.49133635 C108.336239,10.6011793 108.916651,15.2102744 108.936172,15.2897191 C109.040282,15.7299209 108.95309,19.9847708 111.515492,22.0060524 L111.076929,14.6111832 C110.979326,14.2308905 111.628711,12.9428445 111.64693,12.570366 C111.723711,10.9306794 113.362139,11.3161816 115.035703,10.8877012 C115.200978,10.8460253 119.166259,10.6441576 120.721398,10.2456317 C122.276538,9.84840816 125.852709,8.11885791 126.017983,8.07587963 C127.691548,7.64739918 129.989771,7.45595047 130.846074,8.85860531 C131.039978,9.17638412 131.671144,9.86403663 131.767445,10.2443293 L133.805394,15.1516677 C135.08204,12.1470951 134.350669,12.4140814 133.480051,9.00707574" id="Fill-49" fill="#49B172"></path>
                    <polygon id="Fill-51" fill="#FFFFFF" points="126.121052 83.5043271 128.887769 113.796202 121.54803 113.365116 124.701255 83.5043271"></polygon>
                    <path d="M86.5715709,115.315809 C88.9426709,114.227026 96.6949449,62.261074 96.072889,44.9525478 C95.9935053,42.745027 95.2933671,37.5003742 94.3706942,34.9568414 C93.3413088,32.1189724 91.023565,29.5611134 89.5439049,28.1766918 C84.3917725,23.3514029 82.6245091,24.1302215 79.0079958,24.1393381 C75.392784,24.1484547 69.9673634,26.8013868 66.4302339,31.3701084 C63.9680377,34.5505012 62.7109122,41.628894 62.6081038,43.6853397 C62.4701584,46.4815327 61.0854984,115.111337 64.846464,116.291286 C71.4405167,118.358151 81.9803299,117.42435 86.5715709,115.315809" id="Fill-53" fill="#FA589A"></path>
                    <path d="M55.7803246,100.416021 L53.5224439,125.486685 C53.5224439,125.486685 52.7103877,127.75151 52.2614143,130.022847 C51.7187421,132.760434 50.8325077,134.90544 51.1773713,135.040887 C51.8996328,135.324804 53.4118273,131.434619 53.4118273,131.434619 C53.4118273,131.434619 51.9308658,137.63391 52.4162776,137.84229 C53.6161427,138.359332 54.4008701,131.814911 54.4008701,131.814911 C54.4008701,131.814911 54.3436098,137.971225 54.9018984,137.934758 C56.0353936,137.857918 55.6814204,132.097526 55.6814204,132.097526 L55.9026536,132.093619 C55.9026536,132.093619 56.74334,137.013981 57.4864235,136.917606 C58.673275,136.765228 57.0738886,132.445259 56.7108057,130.994417 C56.5975864,130.543796 56.4310107,129.290914 57.1962176,129.20105 C58.0069724,129.105977 57.9119722,132.126178 58.8554671,132.075386 C59.6714274,132.031105 59.0480701,129.108582 58.3921786,127.890864 C58.1826577,127.500152 57.669917,125.919072 57.669917,125.919072 L62.663282,100.983855 L55.7803246,100.416021 Z" id="Fill-55" fill="#F7CABC"></path>
                    <path d="M101.764831,99.2828265 L97.6485904,124.132088 C97.6485904,124.132088 97.8659196,126.520638 97.7305769,128.828442 C97.5679054,131.610309 97.8880429,133.898577 97.5184532,133.949369 C96.7480409,134.054861 96.258725,129.930249 96.258725,129.930249 C96.258725,129.930249 96.136396,136.28843 95.6132444,136.378293 C94.3183791,136.599696 95.2033121,130.069602 95.2033121,130.069602 C95.2033121,130.069602 93.7106383,136.054003 93.1783771,135.887299 C92.0969368,135.549984 93.8902276,130.043555 93.8902276,130.043555 L93.6768026,129.988855 C93.6768026,129.988855 91.6232373,134.565391 90.9257018,134.30101 C89.8130286,133.876436 92.4522114,130.056579 93.1692674,128.732066 C93.3918021,128.321819 93.8681043,127.145777 93.1484455,126.880093 C92.3858414,126.598781 91.7182375,129.549956 90.8163866,129.281667 C90.0355633,129.048543 91.3759766,126.359144 92.3181701,125.328968 C92.6200884,125.00077 93.5154324,123.585091 93.5154324,123.585091 L94.9443391,98.227905 L101.764831,99.2828265 Z" id="Fill-57" fill="#F7CABC"></path>
                    <path d="M86.6700847,109.844283 C88.8837188,119.780081 86.6700847,191.471762 86.6700847,191.471762 L81.8224734,191.471762 C81.8224734,191.471762 75.6643803,117.534791 78.8202078,109.854702 C79.7428807,107.606808 86.1248098,107.398428 86.6700847,109.844283" id="Fill-59" fill="#F7CABC"></path>
                    <path d="M76.2509088,112.485885 C77.8555007,118.704712 75.3386469,195.402712 75.3386469,195.402712 L71.478777,195.402712 C71.478777,195.402712 64.3316411,119.13189 68.4387717,113.140978 C69.7362397,111.247329 75.6301543,110.083008 76.2509088,112.485885" id="Fill-61" fill="#F7CABC"></path>
                    <polygon id="Fill-63" fill="#000000" points="68.2157165 153.075616 76.4599091 153.075616 75.5918939 188.16543 70.8522965 188.16543"></polygon>
                    <polygon id="Fill-65" fill="#000000" points="79.1007837 153.075616 87.5206616 153.075616 86.6695642 191.663601 81.8544872 190.692032"></polygon>
                    <polygon id="Fill-67" fill="#FFFFFF" points="68.2157165 154.648882 68.2157165 155.134667 76.4599091 155.426398 76.4599091 155.036989"></polygon>
                    <polygon id="Fill-69" fill="#FFFFFF" points="87.4325587 156.203133 87.4325587 155.717348 79.188366 155.425617 79.188366 155.813723"></polygon>
                    <path d="M69.6519108,187.25403 L77.4666506,187.25403 L76.3370596,193.854452 L76.4242515,197.247131 L63.312927,197.247131 C63.312927,197.247131 62.9303236,195.50065 63.312927,195.138591 C64.4190933,194.088879 68.1657438,195.393856 69.3044444,194.031574 C70.4860904,192.618501 69.6519108,187.25403 69.6519108,187.25403" id="Fill-71" fill="#000000"></path>
                    <path d="M87.5489013,187.25403 L79.7341615,187.25403 L80.8637525,193.854452 L80.7765606,197.247131 L93.8878852,197.247131 C93.8878852,197.247131 94.2704886,195.50065 93.8878852,195.138591 C92.7817188,194.088879 89.0350684,195.393856 87.8963677,194.031574 C86.7147218,192.618501 87.5489013,187.25403 87.5489013,187.25403" id="Fill-73" fill="#000000"></path>
                    <path d="M97.0817127,67.3276925 C94.065132,64.8857447 80.30182,60.7233632 80.30182,60.7233632 C80.30182,60.7233632 81.9610696,67.2378288 78.8533928,67.2378288 C75.6871544,67.2378288 75.6871544,61.8759626 75.6871544,61.8759626 C75.6871544,61.8759626 66.9523444,64.1980922 64.492751,65.8508025 C52.1479347,74.149518 52.1479347,125.179065 52.1479347,125.179065 L58.9866454,125.765132 C58.9866454,125.765132 63.7249414,93.5496539 64.6515184,86.5858699 C64.7673405,85.7054663 64.6840527,85.0542802 65.1252179,85.0542802 C65.3893964,85.0542802 65.6574791,85.2261933 65.6301503,85.728909 C65.3412457,90.9436072 64.8545325,100.69577 64.8545325,100.69577 L67.2048106,103.340888 L84.6301839,103.840999 L92.0714299,100.672327 C92.0714299,100.672327 92.6284172,84.4525843 93.0188288,80.1065683 C93.0422535,79.8526057 92.5373211,83.0017417 92.5451294,83.2491924 C92.8379381,92.3644952 93.6031449,122.029929 93.6031449,122.029929 L98.2932902,123.877995 C98.2932902,123.877995 108.455705,76.5393709 97.0817127,67.3276925" id="Fill-75" fill="#FFFFFF"></path>
                    <path d="M67.3020231,64.1226848 C68.203874,63.815325 70.8352485,63.1133464 70.8352485,63.1133464 C70.8352485,63.1133464 71.1710025,71.5071351 73.2623076,73.0934244 C75.3132701,74.6484568 81.6626649,74.5911524 83.708422,73.0283058 C85.8752066,71.370386 86.2812347,62.6653304 86.2812347,62.6653304 L91.5934359,64.3883688 C91.5934359,64.3883688 91.6285729,87.0874134 92.0710395,94.6424744 C92.8297395,107.578937 94.2000843,136.780726 94.2000843,136.780726 L60.4242712,136.383503 C60.4242712,136.383503 62.1342742,108.062117 64.854142,94.6424744 C65.8991439,89.4850806 66.2427061,73.7380986 66.2427061,73.7380986 L64.8033885,65.2557486 C64.8033885,65.2557486 66.0071578,64.564189 67.3020231,64.1226848" id="Fill-77" fill="#000000"></path>
                    <path d="M82.7558175,55.7322823 C81.2319107,56.5241246 77.8561513,57.1740083 75.3184756,55.4887387 C75.21827,55.4223177 72.5699776,52.8410161 71.3896331,48.6395634 C70.2053844,44.4329013 70.7649744,41.1118523 70.9810022,39.3028573 C70.9810022,39.3028573 72.7040189,38.1593745 75.9431343,35.770824 C77.8704664,34.3499359 79.3371129,32.0955297 79.3371129,32.0955297 C79.3371129,32.0955297 81.0028692,33.8263823 82.2391728,34.9972149 C84.8354103,37.4600007 88.9880888,38.1932362 88.9880888,38.1932362 C89.1377466,38.7089756 89.2978154,43.7934366 89.0765821,45.9241175 C88.5117866,51.3771498 85.7008227,54.2006926 82.7558175,55.7322823" id="Fill-79" fill="#F7CABC"></path>
                    <path d="M81.1474517,53.6120204 L81.1474517,60.7229725 C81.1474517,60.7229725 83.9558128,69.413702 78.5355977,69.413702 C74.4128507,69.413702 75.4409347,61.8768742 75.4409347,61.8768742 L75.5984008,60.126486 L75.9250452,53.6120204 L81.1474517,53.6120204 Z" id="Fill-81" fill="#F7CABC"></path>
                    <path d="M290.390787,185.740543 L290.390787,192.482924 C290.390787,192.482924 300.260394,189.990183 301.478478,192.482924 C303.124714,195.853463 298.770323,196.839359 298.770323,196.839359 L281.540155,196.839359 L282.750431,187.755313 L290.390787,185.740543 Z" id="Fill-83" fill="#000000"></path>
                    <path d="M263.095547,186.151311 L263.095547,192.893692 C263.095547,192.893692 253.225941,190.402254 252.007856,192.893692 C250.361621,196.265533 254.716012,197.250127 254.716012,197.250127 L271.946179,197.250127 L270.735903,188.166081 L263.095547,186.151311 Z" id="Fill-85" fill="#000000"></path>
                    <path d="M283.426364,62.8316433 C282.67287,67.1711474 277.548066,68.576407 275.002582,68.0398296 C269.892094,66.9601631 268.960311,65.2188915 269.653942,61.5123403 C269.886888,60.2672725 271.047712,55.9186518 271.196068,55.2166732 C271.196068,55.2166732 265.790169,49.6125657 265.575442,41.2031486 C265.411469,34.7876632 264.792016,31.0667859 267.962159,28.3643636 C276.283132,21.2703424 283.418556,26.7377008 284.909928,27.2534402 C286.402602,27.7691796 289.127676,33.2847257 288.453565,40.7642491 C288.453565,40.7642491 288.244044,49.3937672 280.964168,57.0204586 C280.964168,57.0204586 283.585131,61.917378 283.426364,62.8316433" id="Fill-87" fill="#F7CABC"></path>
                    <polygon id="Fill-89" fill="#1E1E1E" points="297.072943 117.245144 292.609236 192.050797 280.810996 192.050797 278.288937 134.845401 271.590775 192.050797 259.213424 192.050797 260.322193 117.245144"></polygon>
                    <path d="M305.54904,122.744671 L304.267189,130.16689 C304.267189,130.16689 304.47671,133.218348 304.264586,136.161709 C304.009517,139.708068 304.34397,142.637103 303.900202,142.693105 C302.974926,142.811621 302.480405,137.535711 302.480405,137.535711 C302.480405,137.535711 302.195404,145.650792 301.569444,145.75368 C300.015606,146.007642 301.215471,137.691996 301.215471,137.691996 C301.215471,137.691996 299.299851,145.29785 298.667384,145.075144 C297.38293,144.620616 299.646016,137.632087 299.646016,137.632087 L299.392248,137.555247 C299.392248,137.555247 296.836354,143.353408 296.008681,143.000465 C294.686487,142.433933 297.925602,137.615156 298.811836,135.941608 C299.087727,135.421961 299.682454,133.930745 298.827453,133.5765 C297.921698,133.201417 297.06019,136.954853 295.985256,136.592794 C295.057378,136.278922 296.71923,132.873219 297.868342,131.579963 C298.235329,131.167111 299.337591,129.380257 299.337591,129.380257 L299.855537,121.95934 L305.54904,122.744671 Z" id="Fill-91" fill="#F7CABC"></path>
                    <path d="M250.562292,118.469894 L251.844144,125.892113 C251.844144,125.892113 251.634623,128.943571 251.846747,131.886933 C252.103117,135.433292 251.767363,138.362327 252.211131,138.418329 C253.136406,138.536845 253.630928,133.260935 253.630928,133.260935 C253.630928,133.260935 253.915928,141.376016 254.541888,141.478904 C256.095727,141.732866 254.895862,133.41722 254.895862,133.41722 C254.895862,133.41722 256.811481,141.023073 257.443948,140.800368 C258.728403,140.34584 256.465316,133.357311 256.465316,133.357311 L256.719084,133.280471 C256.719084,133.280471 259.274979,139.078632 260.102652,138.725689 C261.424846,138.159157 258.18573,133.34038 257.299496,131.666832 C257.023605,131.147185 256.428878,129.655969 257.283879,129.301724 C258.189635,128.926641 259.051143,132.680077 260.126076,132.318018 C261.053955,132.004146 259.392102,128.598443 258.242991,127.305187 C257.876004,126.892335 256.773742,125.105481 256.773742,125.105481 L256.255795,117.684564 L250.562292,118.469894 Z" id="Fill-93" fill="#F7CABC"></path>
                    <g id="Group-97" transform="translate(248.562083, 59.007015)">
                        <mask id="mask-6" fill="white">
                            <use xlink:href="#path-5"></use>
                        </mask>
                        <g id="Clip-96"></g>
                        <path d="M37.0654217,0.136310479 C37.0654217,0.136310479 47.252563,1.79032314 52.5439422,7.89584391 C62.4590967,19.3384859 56.9868268,70.5777144 56.9868268,70.5777144 C56.9868268,70.5777144 50.8573639,71.2536456 49.9320883,69.6295875 C49.9320883,69.6295875 49.822773,34.1646907 48.2220852,34.1646907 C47.1120148,34.1646907 48.7022916,59.7341637 47.5544813,64.3341422 C45.2835869,73.4260024 17.012578,71.7785015 11.7589386,64.5789882 C10.8063342,63.2740112 12.6920224,29.6063881 12.6920224,29.6063881 L9.45030438,66.0389474 L1.99994874,67.2814104 C1.99994874,67.2814104 -4.83876198,16.1593954 9.57653748,4.05124124 C11.3555132,2.55742036 20.4937486,0.303014118 20.4937486,0.303014118 L29.3300655,9.43264308 L37.0654217,0.136310479 Z" id="Fill-95" fill="#000000" mask="url(#mask-6)"></path>
                    </g>
                    <polygon id="Fill-98" fill="#FFFFFF" points="277.283627 60.6555096 271.125534 54.6971569 269.055051 59.3101592 271.666905 67.0566689 278.253149 99.919426 279.497261 99.919426 282.490417 67.0566689 285.628025 59.1434555 281.864457 55.3196908"></polygon>
                    <path d="M288.962922,31.4819822 C288.952511,31.4012351 287.781276,26.904144 286.610041,25.1016609 C286.53326,24.9805402 286.302917,24.6458306 286.288602,24.6119689 C285.843533,23.979016 285.355518,23.383832 284.824558,22.8290214 C284.08668,22.3471437 279.798659,21.0590976 278.564958,21.2205918 C277.983245,21.2974317 273.440155,21.830102 272.931318,22.3315152 C272.408167,22.1622069 266.212334,24.6809946 265.621511,25.3373902 C265.251921,26.0094143 264.931783,26.7100905 264.663701,27.4355118 C264.659797,27.4732806 264.623358,27.5722609 264.610345,27.5839822 C264.562194,27.7181266 264.521851,27.8548756 264.477605,27.9903223 C263.808699,30.036349 263.830823,34.6819106 263.841234,34.76396 C263.891987,35.2119761 263.293356,39.4264524 265.594182,41.7407678 L266.048361,34.3458986 C265.997607,33.9564893 266.79665,32.7570045 266.859116,32.3897356 C267.133705,30.7708869 268.71227,31.3504426 270.426177,31.1277369 C270.595355,31.1055966 274.556732,31.3830019 276.14831,31.1759247 C277.739888,30.9662428 281.49695,29.6821038 281.666128,29.6599635 C283.378734,29.4359555 285.684765,29.521912 286.365383,31.0170353 C286.520246,31.3556521 287.062918,32.114935 287.113672,32.5043443 L288.546483,37.622667 C290.175801,34.7939146 289.417101,34.9697348 288.962922,31.4819822" id="Fill-100" fill="#000000"></path>
                    <polygon id="Fill-102" fill="#FFFFFF" points="279.564152 101.003651 282.118745 129.724864 275.339898 129.31592 278.252369 101.003651"></polygon>
                    <path d="M41.449224,185.740543 L41.449224,192.482924 C41.449224,192.482924 51.3188305,189.990183 52.5369148,192.482924 C54.1831506,195.853463 49.8287593,196.839359 49.8287593,196.839359 L32.5998932,196.839359 L33.808868,187.755313 L41.449224,185.740543 Z" id="Fill-104" fill="#000000"></path>
                    <path d="M14.1547647,186.151311 L14.1547647,192.893692 C14.1547647,192.893692 4.28515826,190.402254 3.06707392,192.893692 C1.42083813,196.265533 5.77522939,197.250127 5.77522939,197.250127 L23.0053968,197.250127 L21.7951207,188.166081 L14.1547647,186.151311 Z" id="Fill-106" fill="#000000"></path>
                    <path d="M34.4855815,62.8316433 C33.732087,67.1711474 28.6072835,68.576407 26.0604981,68.0398296 C20.951311,66.9601631 20.0195285,65.2188915 20.7131599,61.5123403 C20.9448042,60.2672725 22.1069295,55.9186518 22.2552859,55.2166732 C22.2552859,55.2166732 16.849386,49.6125657 16.6346595,41.2031486 C16.4706867,34.7876632 15.8499321,31.0667859 19.0213761,28.3643636 C27.3423497,21.2703424 34.4777733,26.7377008 35.9691458,27.2534402 C37.4618197,27.7691796 40.186893,33.2847257 39.5127822,40.7642491 C39.5127822,40.7642491 39.3032613,49.3937672 32.0233854,57.0204586 C32.0233854,57.0204586 34.6443489,61.917378 34.4855815,62.8316433" id="Fill-108" fill="#883631"></path>
                    <polygon id="Fill-110" fill="#1E1E1E" points="48.1321604 117.245144 43.6671525 192.050797 31.8689125 192.050797 29.3481546 134.845401 22.6499921 192.050797 10.2726414 192.050797 11.3814105 117.245144"></polygon>
                    <path d="M56.6082576,122.744671 L55.326406,130.16689 C55.326406,130.16689 55.5346256,133.218348 55.3238033,136.161709 C55.067433,139.708068 55.4018856,142.637103 54.9594191,142.693105 C54.0341435,142.811621 53.539622,137.535711 53.539622,137.535711 C53.539622,137.535711 53.2546215,145.650792 52.6286615,145.75368 C51.0748232,146.007642 52.2746883,137.691996 52.2746883,137.691996 C52.2746883,137.691996 50.3590685,145.29785 49.7266016,145.075144 C48.4408459,144.620616 50.7052335,137.632087 50.7052335,137.632087 L50.4501645,137.555247 C50.4501645,137.555247 47.895571,143.353408 47.0678983,143.000465 C45.7457042,142.433933 48.9848195,137.615156 49.8710539,135.941608 C50.1469448,135.421961 50.7416719,133.930745 49.8866704,133.5765 C48.9809154,133.201417 48.119407,136.954853 47.0444736,136.592794 C46.1165952,136.278922 47.7784475,132.873219 48.9275591,131.579963 C49.294546,131.167111 50.3955069,129.380257 50.3955069,129.380257 L50.9147544,121.95934 L56.6082576,122.744671 Z" id="Fill-112" fill="#883631"></path>
                    <path d="M1.62150972,118.469894 L2.90205992,125.892113 C2.90205992,125.892113 2.69384038,128.943571 2.90596404,131.886933 C3.16103299,135.433292 2.82658034,138.362327 3.27034825,138.418329 C4.19562386,138.536845 4.69014528,133.260935 4.69014528,133.260935 C4.69014528,133.260935 4.97514578,141.376016 5.60110579,141.478904 C7.15494416,141.732866 5.95507902,133.41722 5.95507902,133.41722 C5.95507902,133.41722 7.87069885,141.023073 8.50316572,140.800368 C9.78762004,140.34584 7.52453385,133.357311 7.52453385,133.357311 L7.77830142,133.280471 C7.77830142,133.280471 10.3341964,139.078632 11.161869,138.725689 C12.4827618,138.159157 9.24494785,133.34038 8.35741203,131.666832 C8.08282251,131.147185 7.48809543,129.655969 8.34309694,129.301724 C9.24885197,128.926641 10.1103603,132.680077 11.1839924,132.318018 C12.1131721,132.004146 10.4513198,128.598443 9.30220823,127.305187 C8.93522128,126.892335 7.83295905,125.105481 7.83295905,125.105481 L7.31501293,117.684564 L1.62150972,118.469894 Z" id="Fill-114" fill="#883631"></path>
                    <path d="M36.6860717,59.1433253 C36.6860717,59.1433253 46.8745144,60.797338 52.1645922,66.9028587 C62.0797467,78.3455007 56.6087782,129.584729 56.6087782,129.584729 C56.6087782,129.584729 50.4780139,130.26066 49.5527383,128.636602 C49.5527383,128.636602 49.4447244,93.1717055 47.8440366,93.1717055 C46.7339662,93.1717055 48.324243,118.741178 47.1751313,123.341157 C44.9055383,132.433017 16.6345294,130.785516 11.38089,123.586003 C10.4269842,122.281026 12.3126725,88.6134029 12.3126725,88.6134029 L9.07095439,125.045962 L1.62190013,126.288425 C1.62190013,126.288425 -5.21811196,75.1664102 9.19848886,63.0582561 C10.9761632,61.5644352 20.1143986,59.3100289 20.1143986,59.3100289 L28.9520169,68.4396579 L36.6860717,59.1433253 Z" id="Fill-116" fill="#000000"></path>
                    <polygon id="Fill-118" fill="#FFFFFF" points="28.3421939 60.6555096 22.1841009 54.6971569 20.1149191 59.3101592 22.7254717 67.0566689 29.3117162 99.919426 30.555828 99.919426 33.548984 67.0566689 36.6865923 59.1434555 32.9243253 55.3196908"></polygon>
                    <path d="M40.0214886,31.4819822 C40.0110776,31.4012351 38.8398426,26.904144 37.6699091,25.1016609 C37.5918267,24.9805402 37.3614839,24.6458306 37.3471688,24.6119689 C36.9034009,23.979016 36.4140849,23.383832 35.8831251,22.8290214 C35.1452471,22.3471437 30.8572258,21.0590976 29.623525,21.2205918 C29.0418116,21.2974317 24.5000228,21.830102 23.9898849,22.3315152 C23.4667333,22.1622069 17.2709004,24.6809946 16.6800774,25.3373902 C16.3104877,26.0094143 15.9903502,26.7100905 15.7235689,27.4355118 C15.7183634,27.4732806 15.6832264,27.5722609 15.6702126,27.5839822 C15.6220619,27.7181266 15.5817193,27.8548756 15.5374727,27.9903223 C14.8685674,30.036349 14.8906907,34.6819106 14.8998003,34.76396 C14.9505538,35.2119761 14.353224,39.4264524 16.6527486,41.7407678 L17.1069275,34.3458986 C17.056174,33.9564893 17.8552165,32.7570045 17.9176824,32.3897356 C18.1922719,30.7708869 19.7708363,31.3504426 21.4847435,31.1277369 C21.6539218,31.1055966 25.6152987,31.3830019 27.2068769,31.1759247 C28.798455,30.9662428 32.5555165,29.6821038 32.7259962,29.6599635 C34.438602,29.4359555 36.7433321,29.521912 37.4239497,31.0170353 C37.578813,31.3556521 38.1227866,32.114935 38.1735401,32.5043443 L39.6050495,37.622667 C41.2343674,34.7939146 40.4769688,34.9697348 40.0214886,31.4819822" id="Fill-120" fill="#000000"></path>
                    <polygon id="Fill-122" fill="#FFFFFF" points="30.6233692 101.003651 33.1779628 129.724864 26.3991152 129.31592 29.3115861 101.003651"></polygon>
                    <mask id="mask-8" fill="white">
                        <use xlink:href="#path-7"></use>
                    </mask>
                    <g id="Clip-125"></g>
                    <polygon id="Fill-124" fill="#FA589A" mask="url(#mask-8)" points="151.048966 134.256338 204.008306 134.256338 204.008306 131.44061 151.048966 131.44061"></polygon>
                    <polygon id="Fill-126" fill="#B2E1FF" mask="url(#mask-8)" points="158.325588 108.105617 151.048315 131.440219 204.007655 131.440219 206.063823 108.105617"></polygon>
                    <polygon id="Fill-127" fill="#7AB7FF" mask="url(#mask-8)" points="157.845902 60.0362317 157.845902 108.34382 206.063042 108.105486 206.063042 60.0362317"></polygon>
                    <path d="M157.299977,94.5605552 L155.198261,118.826354 C155.198261,118.826354 154.442163,121.018246 154.023122,123.21665 C153.519491,125.866978 152.693119,127.944261 153.01586,128.074498 C153.687368,128.346694 155.095452,124.584141 155.095452,124.584141 C155.095452,124.584141 153.717299,130.582867 154.167574,130.784735 C155.285453,131.286148 156.015522,124.952712 156.015522,124.952712 C156.015522,124.952712 155.963468,130.909763 156.482715,130.874599 C157.538128,130.800363 157.207579,125.22621 157.207579,125.22621 L157.413196,125.221001 C157.413196,125.221001 158.196622,129.982474 158.888952,129.891308 C159.993817,129.74414 158.503746,125.56092 158.166691,124.156963 C158.061279,123.720668 157.906416,122.50816 158.618267,122.422203 C159.373063,122.328432 159.284569,125.250956 160.162995,125.202768 C160.922997,125.161092 160.341283,122.33234 159.732241,121.15239 C159.537035,120.776005 159.059432,119.244415 159.059432,119.244415 L163.707933,95.1101563 L157.299977,94.5605552 Z" id="Fill-128" fill="#D69C85" mask="url(#mask-8)"></path>
                    <path d="M195.037297,54.7325814 C196.1786,54.2142373 194.097706,53.264808 194.217432,46.3843758 C194.304624,41.3376836 194.881132,36.2206633 193.146403,30.5722752 C192.269278,27.7187777 190.053041,24.8900254 188.710025,23.3870879 C184.553443,18.7350145 182.714604,19.2872203 179.096789,19.1765186 C175.480276,19.0671194 170.135541,20.9464424 167.989578,24.185442 C162.029293,33.1796243 162.134704,43.7913528 162.0358,48.169928 C161.972033,50.9374689 160.515797,53.443233 164.239023,54.7325814 C170.768007,56.9921972 190.44085,56.820284 195.037297,54.7325814" id="Fill-129" fill="#FEC70D" mask="url(#mask-8)"></path>
                    <path d="M195.75149,62.5328791 C192.943129,60.1690736 180.129818,56.1408365 180.129818,56.1408365 C180.129818,56.1408365 181.674547,62.4456202 178.781597,62.4456202 C175.832688,62.4456202 175.832688,57.2569694 175.832688,57.2569694 C175.832688,57.2569694 167.701714,59.5035614 165.412601,61.1028745 C153.918882,69.1359061 153.918882,118.528371 153.918882,118.528371 L160.285194,119.096205 C160.285194,119.096205 164.696846,87.9135081 165.558354,81.1737321 C165.66767,80.3219807 165.590889,79.6916325 166.000821,79.6916325 C166.24678,79.6916325 166.495342,79.8583362 166.470616,80.344121 C166.201232,85.3908132 165.748355,94.8317091 165.748355,94.8317091 L167.935961,97.3921728 L184.158867,97.8753529 L191.087372,94.806964 C191.087372,94.806964 191.605318,79.1094722 191.968401,74.9002053 C191.989223,74.6566617 191.520729,77.7042126 191.528537,77.9438491 C191.800524,86.7661182 193.397308,108.035158 193.397308,108.035158 L198.18896,109.129151 C198.18896,109.129151 206.340755,71.448919 195.75149,62.5328791" id="Fill-130" fill="#FFFFFF" mask="url(#mask-8)"></path>
                    <path d="M168.026797,59.4307588 C168.867483,59.1325156 171.316666,58.4526773 171.316666,58.4526773 C171.316666,58.4526773 171.628995,66.5781773 173.575848,68.1123718 C175.484961,69.617914 181.397095,69.5632144 183.301002,68.0498579 C185.318129,66.4466377 185.696828,58.0202898 185.696828,58.0202898 L190.640741,59.6873261 C190.640741,59.6873261 190.674577,81.6583448 191.087112,88.9711645 C191.793757,101.492171 195.971162,125.381583 195.971162,125.381583 L159.55096,126.630558 C159.55096,126.630558 163.215624,101.961025 165.748094,88.9711645 C166.721521,83.979172 167.040357,68.7375104 167.040357,68.7375104 L165.701245,60.5273562 C165.701245,60.5273562 166.821726,59.8566345 168.026797,59.4307588" id="Fill-131" fill="#000000" mask="url(#mask-8)"></path>
                    <path d="M187.257564,76.0143847 C187.685715,75.1170503 187.676606,73.8133757 186.800782,72.9577172 C185.947082,72.1255014 184.684751,72.1255014 183.816736,72.537051 C182.59735,73.1153042 181.737143,74.7055007 182.377418,76.0860152 C182.981255,77.3844802 184.58845,77.7882156 185.747972,77.3857826 C186.755234,77.0341421 187.191194,76.1550409 187.257564,76.0143847" id="Fill-132" fill="#F3EFE6" mask="url(#mask-8)"></path>
                    <path d="M181.594643,51.5898271 C180.052517,52.3139461 176.702785,52.7801953 174.305657,50.8969651 C174.211959,50.8227299 171.758872,48.0122108 170.837501,43.6219142 C169.914828,39.2290128 170.896062,34.4401903 171.210994,32.5921242 C171.210994,32.5921242 172.568326,26.0529135 176.525798,26.0529135 C178.928131,26.0529135 178.179842,31.9018669 182.42622,34.3203721 C186.452665,36.6125471 188.710546,35.4547382 188.710546,35.4547382 C188.828971,35.9926179 188.696231,39.7095881 188.359175,41.885852 C187.493763,47.4574002 184.573484,50.1923818 181.594643,51.5898271" id="Fill-133" fill="#D69C85" mask="url(#mask-8)"></path>
                    <path d="M179.594304,48.6594897 L179.594304,56.1403155 C179.594304,56.1403155 182.251706,64.5523374 177.23882,64.5523374 C173.427101,64.5523374 174.409637,57.2577509 174.409637,57.2577509 L174.569706,55.263819 L174.887241,48.6594897 L179.594304,48.6594897 Z" id="Fill-134" fill="#D69C85" mask="url(#mask-8)"></path>
                    <path d="M206.378495,99.2854312 C205.781165,98.6694092 205.455822,97.993478 203.749723,98.1575769 C202.79842,128.247584 202.598009,156.187374 202.598009,188.008233 C205.480548,187.881903 203.308558,187.805063 206.189796,187.678733 C212.049875,166.990551 210.122543,103.14436 206.378495,99.2854312" id="Fill-135" fill="#7AB7FF" mask="url(#mask-8)"></path>
                    <polygon id="Fill-136" fill="#7AB7FF" mask="url(#mask-8)" points="155.886817 134.256078 155.886817 154.926027 160.353126 154.926027 161.524361 134.256078"></polygon>
                    <polygon id="Fill-137" fill="#7AB7FF" mask="url(#mask-8)" points="194.324796 151.88655 199.581038 151.88655 199.581038 134.256338 194.324796 134.256338"></polygon>
                    <path d="M211.225586,141.69132 C210.854695,140.378529 209.40887,139.883628 208.406814,141.221164 C206.505509,143.75558 207.508867,148.01564 209.393254,148.69678 C210.44216,149.075771 211.032983,147.382687 211.131887,147.144353 C211.930929,145.218144 211.74223,143.525061 211.225586,141.69132" id="Fill-138" fill="#CB78D3" mask="url(#mask-8)"></path>
                    <polygon id="Fill-139" fill="#7AB7FF" mask="url(#mask-8)" points="159.551351 126.630168 168.662257 117.161922 186.707083 116.328404 195.971552 125.381193"></polygon>
                    <path d="M187.655393,116.45786 C189.961425,125.677352 187.655393,192.159545 187.655393,192.159545 L182.606069,192.159545 C182.606069,192.159545 176.190305,123.574021 179.477571,116.447441 C180.439285,114.363645 187.087995,114.189127 187.655393,116.45786" id="Fill-140" fill="#D69C85" mask="url(#mask-8)"></path>
                    <path d="M176.800908,116.563482 C178.473172,122.503601 175.850907,195.600542 175.850907,195.600542 L171.829667,195.600542 C171.829667,195.600542 164.384517,122.837009 168.662127,117.11699 C170.014253,115.307995 176.155428,114.268702 176.800908,116.563482" id="Fill-141" fill="#D69C85" mask="url(#mask-8)"></path>
                    <polygon id="Fill-142" fill="#000000" mask="url(#mask-8)" points="168.430873 154.926157 177.018628 154.926157 176.115476 188.890721 171.17807 188.890721"></polygon>
                    <polygon id="Fill-143" fill="#000000" mask="url(#mask-8)" points="179.770249 154.926157 188.541498 154.926157 187.655263 192.276888 182.638474 191.335273"></polygon>
                    <polygon id="Fill-144" fill="#F3EFE6" mask="url(#mask-8)" points="168.430873 156.44863 168.430873 156.918786 177.018628 157.200099 177.018628 156.825015"></polygon>
                    <polygon id="Fill-145" fill="#F3EFE6" mask="url(#mask-8)" points="188.450272 157.95326 188.450272 157.483104 179.861215 157.200489 179.861215 157.576875"></polygon>
                    <path d="M188.571039,188.008233 L180.430956,188.008233 L181.606095,194.396369 L181.5163,197.680952 L195.174201,197.680952 C195.174201,197.680952 195.572421,195.990472 195.174201,195.638832 C194.023788,194.624284 190.11837,195.887585 188.93282,194.568282 C187.703024,193.199489 188.571039,188.008233 188.571039,188.008233" id="Fill-146" fill="#000000" mask="url(#mask-8)"></path>
                    <path d="M197.911377,109.065856 L197.32576,112.695567 C197.32576,112.695567 197.523568,115.007277 197.393431,117.240846 C197.234664,119.934151 197.530075,122.149486 197.186513,122.197674 C196.468156,122.297957 196.020484,118.304884 196.020484,118.304884 C196.020484,118.304884 195.89425,124.458592 195.407537,124.545851 C194.201165,124.758138 195.037948,118.436423 195.037948,118.436423 C195.037948,118.436423 193.635068,124.228072 193.140547,124.066578 C192.135888,123.737078 193.815959,118.411678 193.815959,118.411678 L193.616849,118.356979 C193.616849,118.356979 191.696024,122.782439 191.04794,122.52457 C190.012048,122.11302 192.476847,118.419493 193.147054,117.139261 C193.355273,116.74334 193.800343,115.605066 193.131437,115.347197 C192.422189,115.072396 191.794928,117.929801 190.954242,117.666721 C190.228076,117.440109 191.481297,114.839271 192.361025,113.844259 C192.642121,113.52648 193.478904,112.158989 193.478904,112.158989 L193.706644,108.106007 L197.911377,109.065856 Z" id="Fill-147" fill="#D69C85" mask="url(#mask-8)"></path>
                    <path d="M169.9268,188.008233 L178.066883,188.008233 L176.891744,194.396369 L176.981539,197.680952 L163.323638,197.680952 C163.323638,197.680952 162.925418,195.990472 163.323638,195.638832 C164.474051,194.624284 168.379469,195.887585 169.565019,194.568282 C170.794816,193.199489 169.9268,188.008233 169.9268,188.008233" id="Fill-148" fill="#000000" mask="url(#mask-8)"></path>
                    <path d="M150.420143,188.388526 C151.017472,189.004548 151.341514,189.680479 153.048914,189.51638 C154.000217,159.426374 154.199327,131.486583 154.199327,99.6657239 C151.318089,99.792054 153.488778,99.868894 150.60754,99.9952241 C144.748763,120.683406 146.676095,184.529597 150.420143,188.388526" id="Fill-149" fill="#7AB7FF" mask="url(#mask-8)"></path>
                    <path d="M145.572401,145.982507 C145.943292,147.295298 147.389117,147.790199 148.392475,146.452663 C150.292478,143.918247 149.28912,139.658187 147.404733,138.977047 C146.357129,138.598056 145.765004,140.29114 145.6661,140.529474 C144.867057,142.455683 145.055756,144.148767 145.572401,145.982507" id="Fill-150" fill="#CB78D3" mask="url(#mask-8)"></path>
                    <path d="M180.966861,147.173005 L180.874464,149.841566 C180.874464,149.841566 180.261517,151.485159 179.983024,153.10531 C179.644667,155.057566 178.957542,156.621715 179.281584,156.690741 C179.959599,156.832699 181.11782,154.002645 181.11782,154.002645 C181.11782,154.002645 180.120969,158.442431 180.576449,158.550528 C181.70604,158.820119 182.044397,154.194093 182.044397,154.194093 C182.044397,154.194093 182.348918,158.494526 182.857755,158.426803 C183.891044,158.286147 183.23255,154.293074 183.23255,154.293074 L183.434263,154.273538 C183.434263,154.273538 184.489675,157.644077 185.163786,157.520352 C186.241322,157.323694 184.526114,154.42852 184.110976,153.442625 C183.980839,153.13787 183.757003,152.275699 184.451936,152.154579 C185.188512,152.028248 185.275704,154.143301 186.135911,154.036506 C186.880296,153.942736 186.139815,151.950106 185.469609,151.15045 C185.254882,150.89258 184.695292,149.828542 184.695292,149.828542 L185.210636,146.89039 L180.966861,147.173005 Z" id="Fill-151" fill="#F7CABC" mask="url(#mask-8)"></path>
                    <path d="M224.595233,142.533304 L225.399481,145.078139 C225.399481,145.078139 226.430167,146.497725 227.132908,147.982429 C227.981403,149.771889 229.064145,151.095099 228.770035,151.247476 C228.154486,151.56786 226.28051,149.15196 226.28051,149.15196 C226.28051,149.15196 228.430376,153.161963 228.020444,153.388576 C227.005374,153.952503 225.438522,149.584347 225.438522,149.584347 C225.438522,149.584347 226.298729,153.809242 225.789892,153.880873 C224.757904,154.022831 224.321945,149.998501 224.321945,149.998501 L224.120232,150.034968 C224.120232,150.034968 224.008314,153.565699 223.325093,153.628213 C222.235845,153.727193 223.110367,150.479077 223.247011,149.416341 C223.289956,149.086841 223.27434,148.197321 222.574202,148.267649 C221.829817,148.341884 222.312626,150.403539 221.45372,150.531172 C220.71324,150.641873 220.891527,148.524216 221.322282,147.572182 C221.460227,147.267427 221.715296,146.091385 221.715296,146.091385 L220.430842,143.400684 L224.595233,142.533304 Z" id="Fill-152" fill="#F7CABC" mask="url(#mask-8)"></path>
                    <path d="M212.514855,154.565009 C214.708969,158.996981 212.514855,190.953288 212.514855,190.953288 L207.714093,190.953288 C207.714093,190.953288 201.614562,157.986341 204.739156,154.561102 C205.654021,153.559578 211.974786,153.474923 212.514855,154.565009" id="Fill-153" fill="#F7CABC" mask="url(#mask-8)"></path>
                    <path d="M202.194844,155.604042 C203.785121,158.378094 201.291691,192.428615 201.291691,192.428615 L197.46826,192.428615 C197.46826,192.428615 190.390097,158.490098 194.456885,155.817631 C195.742641,154.973693 201.580596,154.532189 202.194844,155.604042" id="Fill-154" fill="#F7CABC" mask="url(#mask-8)"></path>
                    <path d="M199.4129,79.7167683 C186.710207,79.740211 185.501232,101.281447 185.501232,111.641817 C198.248172,111.129985 204.017155,111.167754 216.765397,110.657224 C216.011902,99.9126537 216.930671,79.6855114 199.4129,79.7167683" id="Fill-155" fill="#7AB7FF" mask="url(#mask-8)"></path>
                    <path d="M197.539575,106.303524 C196.132792,108.483695 197.16478,112.722917 197.318342,112.989903 C198.466152,114.973416 204.756985,115.304218 205.467534,113.423593 C206.295207,111.2317 206.418838,107.290722 205.195548,105.824251 L197.539575,106.303524 Z" id="Fill-156" fill="#F7CABC" mask="url(#mask-8)"></path>
                    <path d="M209.802926,90.8886471 L191.05666,91.2246591 C189.880219,95.3531789 190.179535,97.7612651 191.362482,101.009381 C192.72632,104.757608 196.357149,108.543604 201.969967,108.160707 C208.539293,107.711389 210.968955,101.838992 211.391901,98.429382 C211.649573,96.3429818 211.216216,93.1482628 209.802926,90.8886471" id="Fill-157" fill="#F7CABC" mask="url(#mask-8)"></path>
                    <path d="M206.09896,109.774346 C206.09896,109.774346 213.11726,111.941493 217.187952,115.965823 C224.816596,123.505256 226.846737,144.95793 226.846737,144.95793 C226.846737,144.95793 220.756315,145.606512 220.044464,144.534659 C220.044464,144.534659 218.424256,130.634441 217.193158,130.634441 C216.339458,130.634441 221.352343,157.477634 218.862818,159.418169 C210.526228,165.914401 196.036751,164.532584 186.7892,159.418169 C185.798856,158.86987 189.239684,131.009524 189.239684,131.009524 L185.478718,150.164814 L180.287545,150.164814 C180.287545,150.164814 179.055145,121.029446 190.148042,113.051114 C191.515784,112.066521 196.887848,110.831872 196.887848,110.831872 C196.887848,110.831872 197.342027,113.775233 201.213609,113.758303 C206.300673,113.73486 206.09896,109.774346 206.09896,109.774346" id="Fill-158" fill="#CB78D3" mask="url(#mask-8)"></path>
                    <path d="M196.025949,186.462969 C196.323964,185.723221 196.545197,185.510935 196.711772,185.525261 C197.037115,185.555215 197.056636,186.45255 197.46787,186.535902 C197.937665,186.629672 198.372323,185.559123 198.766639,185.669824 C199.116708,185.767502 199.026913,186.684372 199.343147,186.752095 C199.694517,186.826331 200.118765,185.7662 200.38945,185.849552 C200.614588,185.91988 200.432395,186.693489 200.713492,186.823726 C201.083082,186.995639 201.798836,185.848249 202.120275,185.994115 C202.398769,186.120445 202.194453,187.13369 202.120275,187.510076 C201.918562,188.528531 201.660891,189.992397 201.434452,191.875628 L196.856225,191.082483 C196.579032,189.541777 196.303142,188.003675 196.025949,186.462969" id="Fill-159" fill="#FFFFFF" mask="url(#mask-8)"></path>
                    <path d="M196.674163,190.357322 L196.674163,194.733293 C196.674163,194.733293 190.267508,193.115746 189.476273,194.733293 C188.407847,196.92258 191.234427,197.562045 191.234427,197.562045 L202.419721,197.562045 L201.634993,191.664904 L196.674163,190.357322 Z" id="Fill-160" fill="#17140B" mask="url(#mask-8)"></path>
                    <path d="M213.133788,186.656241 C212.835774,185.915191 212.61454,185.702904 212.449266,185.71723 C212.123923,185.747185 212.103101,186.644519 211.691867,186.727871 C211.223373,186.821642 210.787414,185.752395 210.393098,185.861794 C210.043029,185.959472 210.132824,186.876342 209.81659,186.944065 C209.46522,187.0183 209.040972,185.958169 208.770287,186.041521 C208.545149,186.111849 208.727342,186.885458 208.446245,187.015696 C208.076656,187.188911 207.362202,186.040219 207.039462,186.187387 C206.760968,186.312415 206.965284,187.326963 207.039462,187.702046 C207.241175,188.721803 207.498846,190.184367 207.725285,192.067597 L212.304814,191.274453 C212.580705,189.735049 212.857897,188.195645 213.133788,186.656241" id="Fill-161" fill="#FFFFFF" mask="url(#mask-8)"></path>
                    <path d="M212.64265,190.475577 L212.64265,194.851548 C212.64265,194.851548 219.050606,193.234002 219.840539,194.851548 C220.908966,197.039533 218.082386,197.6803 218.082386,197.6803 L206.897092,197.6803 L207.683121,191.783159 L212.64265,190.475577 Z" id="Fill-162" fill="#17140B" mask="url(#mask-8)"></path>
                    <path d="M41.4480527,147.173005 L41.3556553,149.841566 C41.3556553,149.841566 40.742709,151.485159 40.4642154,153.10531 C40.1258586,155.057566 39.4387341,156.621715 39.7627758,156.690741 C40.4407907,156.832699 41.5990119,154.002645 41.5990119,154.002645 C41.5990119,154.002645 40.6034622,158.442431 41.0576411,158.550528 C42.1872321,158.820119 42.5255889,154.194093 42.5255889,154.194093 C42.5255889,154.194093 42.8314113,158.494526 43.3389465,158.426803 C44.372236,158.286147 43.7137417,154.293074 43.7137417,154.293074 L43.9154543,154.273538 C43.9154543,154.273538 44.9708672,157.644077 45.644978,157.520352 C46.7225141,157.323694 45.0073056,154.42852 44.5921679,153.442625 C44.4620307,153.13787 44.2381946,152.275699 44.9331274,152.154579 C45.669704,152.028248 45.756896,154.143301 46.617103,154.036506 C47.3614878,153.942736 46.6223084,151.950106 45.9508004,151.15045 C45.7373754,150.89258 45.176484,149.828542 45.176484,149.828542 L45.6918274,146.89039 L41.4480527,147.173005 Z" id="Fill-163" fill="#F7CABC" mask="url(#mask-8)"></path>
                    <path d="M85.0764244,142.533304 L85.8806724,145.078139 C85.8806724,145.078139 86.9113591,146.497725 87.6141001,147.982429 C88.4625947,149.771889 89.5453364,151.095099 89.2512263,151.247476 C88.6369786,151.56786 86.7617013,149.15196 86.7617013,149.15196 C86.7617013,149.15196 88.9115681,153.161963 88.5016359,153.388576 C87.4865656,153.952503 85.9197135,149.584347 85.9197135,149.584347 C85.9197135,149.584347 86.7799205,153.809242 86.271084,153.880873 C85.2390959,154.022831 84.8031362,149.998501 84.8031362,149.998501 L84.6014235,150.034968 C84.6014235,150.034968 84.4895055,153.565699 83.8075865,153.628213 C82.7170366,153.727193 83.5915587,150.479077 83.7282028,149.416341 C83.7711481,149.086841 83.756833,148.197321 83.0553934,148.267649 C82.3110085,148.341884 82.7938176,150.403539 81.9362133,150.531172 C81.1944312,150.641873 81.3727192,148.524216 81.8034734,147.572182 C81.9414188,147.267427 82.1964878,146.091385 82.1964878,146.091385 L80.9120335,143.400684 L85.0764244,142.533304 Z" id="Fill-164" fill="#F7CABC" mask="url(#mask-8)"></path>
                    <path d="M72.996177,154.565009 C75.1902905,158.996981 72.996177,190.953288 72.996177,190.953288 L68.1954151,190.953288 C68.1954151,190.953288 62.0958837,157.986341 65.2204783,154.561102 C66.1353429,153.559578 72.4561075,153.474923 72.996177,154.565009" id="Fill-165" fill="#F7CABC" mask="url(#mask-8)"></path>
                    <path d="M62.6760355,155.604042 C64.2663122,158.378094 61.7728832,192.428615 61.7728832,192.428615 L57.9494518,192.428615 C57.9494518,192.428615 50.8712886,158.490098 54.9380766,155.817631 C56.2238323,154.973693 62.0617878,154.532189 62.6760355,155.604042" id="Fill-166" fill="#F7CABC" mask="url(#mask-8)"></path>
                    <path d="M59.8940922,79.7167683 C47.1913985,79.740211 45.9824238,101.281447 45.9824238,111.641817 C46.5159863,128.60782 77.7801512,127.623226 77.2465886,110.657224 C76.4930941,99.913956 77.4118629,79.6855114 59.8940922,79.7167683" id="Fill-167" fill="#FF645B" mask="url(#mask-8)"></path>
                    <path d="M58.0208971,106.303524 C56.6141138,108.483695 57.6461019,112.722917 57.7996638,112.989903 C58.9474741,114.973416 65.2383071,115.304218 65.9488563,113.423593 C66.776529,111.2317 66.9001594,107.290722 65.6768695,105.824251 L58.0208971,106.303524 Z" id="Fill-168" fill="#F7CABC" mask="url(#mask-8)"></path>
                    <path d="M70.2841174,90.8886471 L67.2857559,87.3240544 C66.6637,86.5843071 65.6512325,86.3055994 64.7389706,86.6246806 L51.5378514,91.2246591 C50.3614109,95.3531789 50.6607265,97.7612651 51.8436738,101.009381 C53.2075119,104.757608 56.8383402,108.543604 62.4511583,108.160707 C69.020485,107.711389 71.4501469,101.838992 71.8730928,98.429382 C72.1307645,96.3429818 71.6974076,93.1482628 70.2841174,90.8886471" id="Fill-169" fill="#F7CABC" mask="url(#mask-8)"></path>
                    <path d="M66.580152,109.774346 C66.580152,109.774346 73.598452,111.941493 77.6691442,115.965823 C85.2977878,123.505256 87.3292297,144.95793 87.3292297,144.95793 C87.3292297,144.95793 81.2375066,145.606512 80.5256561,144.534659 C80.5256561,144.534659 78.9054477,130.634441 77.6743496,130.634441 C76.8206495,130.634441 81.8335351,157.477634 79.3440101,159.418169 C71.0074201,165.914401 56.5179424,164.532584 47.2703918,159.418169 C46.2800476,158.86987 49.7208756,131.009524 49.7208756,131.009524 L45.95991,150.164814 L40.7687365,150.164814 C40.7687365,150.164814 39.536337,121.029446 50.6292333,113.051114 C51.9969755,112.066521 57.3690398,110.831872 57.3690398,110.831872 C57.3690398,110.831872 57.8232187,113.775233 61.6948008,113.758303 C66.7818646,113.73486 66.580152,109.774346 66.580152,109.774346" id="Fill-170" fill="#49B172" mask="url(#mask-8)"></path>
                    <path d="M56.5079218,186.462969 C56.805936,185.723221 57.0271693,185.510935 57.1924436,185.525261 C57.5177866,185.555215 57.5386086,186.45255 57.9498422,186.535902 C58.4183362,186.629672 58.8542958,185.559123 59.2473102,185.669824 C59.5986807,185.767502 59.508886,186.684372 59.8251195,186.752095 C60.1764899,186.826331 60.5994359,185.7662 60.8714227,185.849552 C61.0965601,185.91988 60.914368,186.693489 61.1954643,186.823726 C61.565054,186.995639 62.2795074,185.848249 62.6009463,185.994115 C62.8807413,186.120445 62.6751245,187.13369 62.6009463,187.510076 C62.3992336,188.528531 62.1428633,189.992397 61.9164245,191.875628 L57.3368959,191.082483 C57.061005,189.541777 56.7838127,188.003675 56.5079218,186.462969" id="Fill-171" fill="#FFFFFF" mask="url(#mask-8)"></path>
                    <path d="M57.1553545,190.357322 L57.1553545,194.733293 C57.1553545,194.733293 50.7486993,193.115746 49.957465,194.733293 C48.8890385,196.92258 51.7156188,197.562045 51.7156188,197.562045 L62.9009126,197.562045 L62.1161852,191.664904 L57.1553545,190.357322 Z" id="Fill-172" fill="#17140B" mask="url(#mask-8)"></path>
                    <path d="M73.6151096,186.656241 C73.3170954,185.915191 73.0958621,185.702904 72.9305878,185.71723 C72.6052448,185.747185 72.5844228,186.644519 72.1731892,186.727871 C71.7046953,186.821642 71.2687356,185.752395 70.8757212,185.861794 C70.5243507,185.959472 70.6141454,186.876342 70.2979119,186.944065 C69.9465415,187.0183 69.5222941,185.958169 69.2516087,186.041521 C69.0264713,186.111849 69.2086634,186.885458 68.9275671,187.015696 C68.5579774,187.188911 67.843524,186.040219 67.5207838,186.187387 C67.2422901,186.312415 67.4466055,187.326963 67.5207838,187.702046 C67.7224964,188.721803 67.9801681,190.184367 68.2066069,192.067597 C69.7331164,191.803216 71.259626,191.538834 72.7861355,191.274453 C73.0620264,189.735049 73.3392187,188.195645 73.6151096,186.656241" id="Fill-173" fill="#FFFFFF" mask="url(#mask-8)"></path>
                    <path d="M73.1244923,190.475577 L73.1244923,194.851548 C73.1244923,194.851548 79.5311474,193.234002 80.3210804,194.851548 C81.3908083,197.039533 78.5642279,197.6803 78.5642279,197.6803 L67.3789342,197.6803 L68.1636616,191.783159 L73.1244923,190.475577 Z" id="Fill-174" fill="#17140B" mask="url(#mask-8)"></path>
                    <path d="M140.043522,152.594911 L140.851674,155.150165 C140.851674,155.150165 141.884963,156.573658 142.591608,158.064874 C143.442706,159.860845 144.529351,161.190567 144.23394,161.342945 C143.61709,161.663328 141.735305,159.239613 141.735305,159.239613 C141.735305,159.239613 143.89298,163.263943 143.483048,163.491859 C142.462772,164.057088 140.890715,159.673303 140.890715,159.673303 C140.890715,159.673303 141.752223,163.913827 141.243387,163.985458 C140.206193,164.128719 139.768932,160.090062 139.768932,160.090062 L139.567219,160.125227 C139.567219,160.125227 139.454,163.668981 138.769478,163.731495 C137.675024,163.831778 138.55345,160.570638 138.690094,159.505297 C138.73304,159.174495 138.718725,158.281068 138.014682,158.351396 C137.267695,158.426933 137.751805,160.493798 136.891598,160.622733 C136.145912,160.734737 136.326803,158.607963 136.758858,157.653324 C136.896804,157.347267 137.153174,156.166015 137.153174,156.166015 L135.863514,153.464895 L140.043522,152.594911 Z" id="Fill-175" fill="#883631" mask="url(#mask-8)"></path>
                    <path d="M100.121588,152.716943 L100.027889,155.395922 C100.027889,155.395922 99.4149429,157.044726 99.1338465,158.670086 C98.7941884,160.630156 98.1044611,162.200817 98.4298041,162.269843 C99.1091204,162.413104 100.272547,159.57263 100.272547,159.57263 C100.272547,159.57263 99.2730933,164.029348 99.7298749,164.138747 C100.86337,164.40964 101.203028,159.764079 101.203028,159.764079 C101.203028,159.764079 101.508851,164.081442 102.018989,164.012417 C103.056182,163.871761 102.396387,159.863059 102.396387,159.863059 L102.598099,159.844826 C102.598099,159.844826 103.657416,163.227086 104.33413,163.104663 C105.41557,162.906703 103.695156,160.00111 103.277415,159.011308 C103.147278,158.70525 102.922141,157.839173 103.619676,157.718052 C104.358856,157.589117 104.447349,159.713286 105.310159,159.605189 C106.058448,159.512721 105.314063,157.512277 104.641253,156.707411 C104.426527,156.450844 103.863033,155.382899 103.863033,155.382899 L104.380979,152.433026 L100.121588,152.716943 Z" id="Fill-176" fill="#883631" mask="url(#mask-8)"></path>
                    <path d="M130.214518,190.016491 L130.214518,194.409393 C130.214518,194.409393 136.645899,192.786637 137.439736,194.409393 C138.512067,196.607797 135.675075,197.249866 135.675075,197.249866 L124.446836,197.249866 L125.235468,191.329282 L130.214518,190.016491 Z" id="Fill-177" fill="#17140B" mask="url(#mask-8)"></path>
                    <path d="M108.522726,190.447707 L108.522726,194.840608 C108.522726,194.840608 102.091345,193.21655 101.297508,194.840608 C100.225177,197.03771 103.062169,197.681082 103.062169,197.681082 L114.290408,197.681082 L113.501776,191.760498 L108.522726,190.447707 Z" id="Fill-178" fill="#17140B" mask="url(#mask-8)"></path>
                    <path d="M114.980005,107.186142 C113.568016,109.987544 114.603908,115.440577 114.758771,115.783101 C115.910486,118.333145 123.097964,118.273236 123.811116,115.853429 C124.641392,113.035095 124.765022,107.967565 123.537828,106.08173 L114.980005,107.186142 Z" id="Fill-179" fill="#883631" mask="url(#mask-8)"></path>
                    <path d="M126.253271,83.2142888 C121.066002,80.1693427 114.669758,81.6957228 110.747422,85.2629202 C106.036455,89.5490271 105.099467,96.5909534 107.821937,101.95282 C109.983516,106.208972 114.768662,110.034039 120.402302,109.565185 C126.997656,109.018189 131.194581,102.885318 132.105542,97.5612207 C132.870749,93.079758 131.774993,86.4545908 126.253271,83.2142888" id="Fill-180" fill="#883631" mask="url(#mask-8)"></path>
                    <path d="M124.447357,111.178433 C124.447357,111.178433 134.393744,112.789468 138.480053,116.829426 C146.138628,124.397511 142.146018,156.180602 142.146018,156.180602 C142.146018,156.180602 136.030871,156.831788 135.316417,155.757331 C135.316417,155.757331 136.378337,134.205676 135.142033,134.205676 C134.285731,134.205676 135.512924,151.118281 134.62669,154.161925 C132.87244,160.17628 111.035415,159.086194 106.977737,154.324721 C106.24116,153.459946 107.698697,131.048726 107.698697,131.048726 L104.96061,154.828739 L99.7486147,154.828739 C99.7486147,154.828739 94.1579199,122.153524 105.29246,114.142633 C106.665408,113.156737 114.253709,111.662916 114.253709,111.662916 C114.253709,111.662916 116.313781,114.719583 118.50399,114.775585 C122.625436,114.883682 124.447357,111.178433 124.447357,111.178433" id="Fill-181" fill="#7AB7FF" mask="url(#mask-8)"></path>
                    <polygon id="Fill-182" fill="#FF645B" mask="url(#mask-8)" points="134.839334 147.197229 131.406314 192.591411 122.335751 192.591411 120.396706 157.876681 115.245875 192.591411 105.72894 192.591411 106.581339 147.197229"></polygon>
                    <path d="M117.420077,79.5069562 C111.772122,79.6944978 105.137727,87.1896496 105.137727,91.2048631 C114.382675,91.0069025 124.248377,90.8818748 133.494626,90.6839142 C132.94805,86.5215327 132.453529,79.0107524 117.420077,79.5069562" id="Fill-183" fill="#17140B" mask="url(#mask-8)"></path>
                    <path d="M278.631979,152.594911 L279.440131,155.150165 C279.440131,155.150165 280.47342,156.573658 281.180066,158.064874 C282.031163,159.860845 283.117809,161.190567 282.822397,161.342945 C282.205547,161.663328 280.323763,159.239613 280.323763,159.239613 C280.323763,159.239613 282.481438,163.263943 282.071506,163.491859 C281.05123,164.057088 279.479172,159.673303 279.479172,159.673303 C279.479172,159.673303 280.341982,163.913827 279.831844,163.985458 C278.79465,164.128719 278.357389,160.090062 278.357389,160.090062 L278.155677,160.125227 C278.155677,160.125227 278.042457,163.668981 277.357936,163.731495 C276.263482,163.831778 277.141908,160.570638 277.278552,159.505297 C277.321497,159.174495 277.307182,158.281068 276.60314,158.351396 C275.856152,158.426933 276.340263,160.493798 275.480056,160.622733 C274.734369,160.734737 274.91526,158.607963 275.347316,157.653324 C275.486562,157.347267 275.741631,156.166015 275.741631,156.166015 L274.451971,153.464895 L278.631979,152.594911 Z" id="Fill-184" fill="#D69C85" mask="url(#mask-8)"></path>
                    <path d="M238.710175,152.716943 L238.616477,155.395922 C238.616477,155.395922 238.00353,157.044726 237.722434,158.670086 C237.382776,160.630156 236.693049,162.200817 237.018392,162.269843 C237.699009,162.413104 238.861135,159.57263 238.861135,159.57263 C238.861135,159.57263 237.861681,164.029348 238.318462,164.138747 C239.451958,164.40964 239.791616,159.764079 239.791616,159.764079 C239.791616,159.764079 240.097438,164.081442 240.607576,164.012417 C241.64477,163.871761 240.984974,159.863059 240.984974,159.863059 L241.187988,159.844826 C241.187988,159.844826 242.246004,163.227086 242.922717,163.104663 C244.004157,162.906703 242.283743,160.00111 241.866003,159.011308 C241.735866,158.70525 241.510728,157.839173 242.208264,157.718052 C242.947443,157.589117 243.035937,159.713286 243.898746,159.605189 C244.647035,159.512721 243.90265,157.512277 243.231142,156.707411 C243.015115,156.450844 242.45162,155.382899 242.45162,155.382899 L242.970868,152.433026 L238.710175,152.716943 Z" id="Fill-185" fill="#D69C85" mask="url(#mask-8)"></path>
                    <path d="M268.803105,190.016491 L268.803105,194.409393 C268.803105,194.409393 275.234487,192.786637 276.028324,194.409393 C277.100654,196.607797 274.263663,197.249866 274.263663,197.249866 L263.035424,197.249866 L263.824055,191.329282 L268.803105,190.016491 Z" id="Fill-186" fill="#17140B" mask="url(#mask-8)"></path>
                    <path d="M247.111183,190.447707 L247.111183,194.840608 C247.111183,194.840608 240.679802,193.21655 239.885965,194.840608 C238.813635,197.03771 241.650626,197.681082 241.650626,197.681082 L252.878865,197.681082 L252.090233,191.760498 L247.111183,190.447707 Z" id="Fill-187" fill="#17140B" mask="url(#mask-8)"></path>
                    <path d="M253.569113,107.186142 C252.157124,109.987544 253.191715,115.440577 253.346578,115.783101 C254.498292,118.333145 261.685771,118.273236 262.400224,115.853429 C263.2305,113.035095 263.35413,107.967565 262.126936,106.08173 L253.569113,107.186142 Z" id="Fill-188" fill="#D69C85" mask="url(#mask-8)"></path>
                    <path d="M264.842379,83.2142888 C259.653808,80.1693427 253.258866,81.6957228 249.33653,85.2629202 C244.624261,89.5490271 243.687273,96.5909534 246.409744,101.95282 C248.571323,106.208972 253.356468,110.034039 258.99141,109.565185 C265.585463,109.018189 269.782388,102.885318 270.693348,97.5612207 C271.459857,93.079758 270.3628,86.4545908 264.842379,83.2142888" id="Fill-189" fill="#D69C85" mask="url(#mask-8)"></path>
                    <path d="M263.035814,111.178433 C263.035814,111.178433 272.982202,112.789468 277.06851,116.829426 C284.727086,124.397511 280.734476,156.180602 280.734476,156.180602 C280.734476,156.180602 274.620629,156.831788 273.906176,155.757331 C273.906176,155.757331 274.966794,134.205676 273.730491,134.205676 C272.874188,134.205676 274.101382,151.118281 273.215147,154.161925 C271.462199,160.17628 249.625174,159.086194 245.566194,154.324721 C244.829618,153.459946 246.287155,131.048726 246.287155,131.048726 L243.549068,154.828739 L238.337072,154.828739 C238.337072,154.828739 232.746377,122.153524 243.880917,114.142633 C245.253865,113.156737 252.842166,111.662916 252.842166,111.662916 C252.842166,111.662916 254.90354,114.719583 257.092448,114.775585 C261.213893,114.883682 263.035814,111.178433 263.035814,111.178433" id="Fill-190" fill="#FF645B" mask="url(#mask-8)"></path>
                    <polygon id="Fill-191" fill="#7AB7FF" mask="url(#mask-8)" points="273.427792 147.197229 269.994772 192.591411 260.924208 192.591411 258.985163 157.876681 253.834332 192.591411 244.317398 192.591411 245.171098 147.197229"></polygon>
                    <path d="M256.009185,79.5069562 C250.359929,79.6944978 243.725534,87.1896496 243.725534,91.2048631 C252.971783,91.0069025 262.837485,90.8818748 272.082433,90.6839142 C271.535857,86.5215327 271.042637,79.0107524 256.009185,79.5069562" id="Fill-192" fill="#17140B" mask="url(#mask-8)"></path>
                </g>
            </g>
        </g>
    </g>
</svg>