<?xml version="1.0" encoding="UTF-8" standalone="no"?>
<svg
   xmlns:dc="http://purl.org/dc/elements/1.1/"
   xmlns:cc="http://creativecommons.org/ns#"
   xmlns:rdf="http://www.w3.org/1999/02/22-rdf-syntax-ns#"
   xmlns:svg="http://www.w3.org/2000/svg"
   xmlns="http://www.w3.org/2000/svg"
   xmlns:sodipodi="http://sodipodi.sourceforge.net/DTD/sodipodi-0.dtd"
   xmlns:inkscape="http://www.inkscape.org/namespaces/inkscape"
   width="258px"
   height="47px"
   viewBox="0 0 258 47"
   version="1.1"
   id="svg14"
   sodipodi:docname="local-meeting.svg"
   inkscape:version="0.92.3 (2405546, 2018-03-11)">
  <metadata
     id="metadata18">
    <rdf:RDF>
      <cc:Work
         rdf:about="">
        <dc:format>image/svg+xml</dc:format>
        <dc:type
           rdf:resource="http://purl.org/dc/dcmitype/StillImage" />
        <dc:title>Artboard 5</dc:title>
      </cc:Work>
    </rdf:RDF>
  </metadata>
  <sodipodi:namedview
     pagecolor="#ffffff"
     bordercolor="#666666"
     borderopacity="1"
     objecttolerance="10"
     gridtolerance="10"
     guidetolerance="10"
     inkscape:pageopacity="0"
     inkscape:pageshadow="2"
     inkscape:window-width="1366"
     inkscape:window-height="704"
     id="namedview16"
     showgrid="false"
     inkscape:zoom="1.2093023"
     inkscape:cx="129"
     inkscape:cy="-9.5769231"
     inkscape:window-x="0"
     inkscape:window-y="27"
     inkscape:window-maximized="1"
     inkscape:current-layer="svg14" />
  <!-- Generator: Sketch 41.2 (35397) - http://www.bohemiancoding.com/sketch -->
  <title
     id="title2">Artboard 5</title>
  <desc
     id="desc4">Created with Sketch.</desc>
  <defs
     id="defs6" />
  <g
     id="Page-1"
     style="fill:none;fill-rule:evenodd;stroke:none;stroke-width:1">
    <g
       id="Artboard-5">
      <g
         id="Group-4-Copy">
        <path
           d="m 237,4 h 21 c 0,0 -5.29584,15.54381 -5.29584,15.257595 C 252.70416,18.97138 258,33 258,33 h -21 z"
           id="Rectangle-30-Copy"
           inkscape:connector-curvature="0"
           style="fill:#f92f24" />
        <rect
           id="Rectangle-30"
           x="1.4210855e-14"
           y="0"
           width="244"
           height="29"
           style="fill:#ff645b" />
        <path
           d="m 15.968,13.428 v 4.056 c -0.384002,0.192001 -0.849997,0.343999 -1.398,0.456 -0.548003,0.112001 -1.105997,0.168 -1.674,0.168 -0.872004,0 -1.627997,-0.173998 -2.268,-0.522 -0.6400032,-0.348002 -1.1299983,-0.847997 -1.47,-1.5 -0.3400017,-0.652003 -0.51,-1.425996 -0.51,-2.322 0,-0.888004 0.1699983,-1.657997 0.51,-2.31 0.3400017,-0.652003 0.8239969,-1.151998 1.452,-1.5 0.628003,-0.3480017 1.365996,-0.522 2.214,-0.522 0.592003,0 1.147997,0.085999 1.668,0.258 0.520003,0.1720009 0.951998,0.417998 1.296,0.738 l -0.516,1.116 c -0.392002,-0.304001 -0.777998,-0.521999 -1.158,-0.654 -0.380002,-0.132001 -0.797998,-0.198 -1.254,-0.198 -0.872004,0 -1.529998,0.257997 -1.974,0.774 -0.444002,0.516003 -0.666,1.281995 -0.666,2.298 0,2.08001 0.911991,3.12 2.736,3.12 0.544003,0 1.087997,-0.076 1.632,-0.228 v -2.124 h -1.824 v -1.104 z m 6.756,1.908 h -3.996 c 0.048,0.544003 0.211999,0.947999 0.492,1.212 0.280001,0.264001 0.679997,0.396 1.2,0.396 0.648003,0 1.239997,-0.207998 1.776,-0.624 l 0.432,1.032 c -0.272001,0.224001 -0.613998,0.403999 -1.026,0.54 -0.412002,0.136001 -0.825998,0.204 -1.242,0.204 -0.960005,0 -1.717997,-0.271997 -2.274,-0.816 -0.556003,-0.544003 -0.834,-1.287995 -0.834,-2.232 0,-0.600003 0.119999,-1.131998 0.36,-1.596 0.240001,-0.464002 0.577998,-0.823999 1.014,-1.08 0.436002,-0.256001 0.929997,-0.384 1.482,-0.384 0.808004,0 1.445998,0.259997 1.914,0.78 0.468002,0.520003 0.702,1.235995 0.702,2.148 z m -3.546,-1.908 c -0.244001,0.256001 -0.394,0.623998 -0.45,1.104 h 2.712 c -0.016,-0.488002 -0.135999,-0.857999 -0.36,-1.11 -0.224001,-0.252001 -0.535998,-0.378 -0.936,-0.378 -0.400002,0 -0.721999,0.127999 -0.966,0.384 z m 9.75,-0.84 c 0.344002,0.400002 0.516,1.003996 0.516,1.812 V 18 h -1.5 v -3.516 c 0,-0.456002 -0.086,-0.787999 -0.258,-0.996 -0.172001,-0.208001 -0.441998,-0.312 -0.81,-0.312 -0.432002,0 -0.777999,0.135999 -1.038,0.408 -0.260001,0.272001 -0.39,0.635998 -0.39,1.092 V 18 h -1.5 v -5.868 h 1.464 v 0.876 c 0.200001,-0.328002 0.467998,-0.579999 0.804,-0.756 0.336002,-0.176001 0.715998,-0.264 1.14,-0.264 0.704003,0 1.227998,0.199998 1.572,0.6 z m 7.188,2.748 H 32.12 c 0.048,0.544003 0.211999,0.947999 0.492,1.212 0.280001,0.264001 0.679997,0.396 1.2,0.396 0.648003,0 1.239997,-0.207998 1.776,-0.624 l 0.432,1.032 c -0.272001,0.224001 -0.613998,0.403999 -1.026,0.54 -0.412002,0.136001 -0.825998,0.204 -1.242,0.204 -0.960005,0 -1.717997,-0.271997 -2.274,-0.816 -0.556003,-0.544003 -0.834,-1.287995 -0.834,-2.232 0,-0.600003 0.119999,-1.131998 0.36,-1.596 0.240001,-0.464002 0.577998,-0.823999 1.014,-1.08 0.436002,-0.256001 0.929997,-0.384 1.482,-0.384 0.808004,0 1.445998,0.259997 1.914,0.78 0.468002,0.520003 0.702,1.235995 0.702,2.148 z M 32.57,13.428 c -0.244001,0.256001 -0.394,0.623998 -0.45,1.104 h 2.712 c -0.016,-0.488002 -0.135999,-0.857999 -0.36,-1.11 -0.224001,-0.252001 -0.535998,-0.378 -0.936,-0.378 -0.400002,0 -0.721999,0.127999 -0.966,0.384 z m 8.634,-0.192 -0.876,0.084 c -0.992005,0.104001 -1.488,0.607996 -1.488,1.512 V 18 h -1.5 v -5.868 h 1.428 v 1.032 c 0.304001,-0.704003 0.931995,-1.088 1.884,-1.152 l 0.456,-0.036 z m 5.088,-0.648 c 0.400002,0.400002 0.6,1.015996 0.6,1.848 V 18 h -1.428 v -0.9 c -0.136001,0.312002 -0.349999,0.555999 -0.642,0.732 -0.292002,0.176001 -0.629998,0.264 -1.014,0.264 -0.392002,0 -0.747998,-0.08 -1.068,-0.24 -0.320002,-0.160001 -0.571999,-0.379999 -0.756,-0.66 -0.184001,-0.280001 -0.276,-0.591998 -0.276,-0.936 0,-0.432002 0.109999,-0.771999 0.33,-1.02 0.220001,-0.248001 0.577997,-0.427999 1.074,-0.54 0.496002,-0.112001 1.179996,-0.168 2.052,-0.168 h 0.3 v -0.276 c 0,-0.400002 -0.086,-0.687999 -0.258,-0.864 -0.172001,-0.176001 -0.457998,-0.264 -0.858,-0.264 -0.312002,0 -0.637998,0.054 -0.978,0.162 -0.340002,0.108001 -0.673998,0.257999 -1.002,0.45 l -0.42,-1.032 c 0.328002,-0.208001 0.723998,-0.379999 1.188,-0.516 0.464002,-0.136001 0.903998,-0.204 1.32,-0.204 0.824004,0 1.435998,0.199998 1.836,0.6 z m -1.206,4.026 c 0.252001,-0.268001 0.378,-0.613998 0.378,-1.038 v -0.252 h -0.216 c -0.536003,0 -0.951998,0.024 -1.248,0.072 -0.296002,0.048 -0.507999,0.131999 -0.636,0.252 -0.128001,0.120001 -0.192,0.283999 -0.192,0.492 0,0.256001 0.088,0.465999 0.264,0.63 0.176001,0.164001 0.399999,0.246 0.672,0.246 0.400002,0 0.725999,-0.133999 0.978,-0.402 z M 54.08,9.54 V 18 h -1.488 v -0.948 c -0.176001,0.328002 -0.429998,0.583999 -0.762,0.768 -0.332002,0.184001 -0.709998,0.276 -1.134,0.276 -0.504003,0 -0.953998,-0.127999 -1.35,-0.384 -0.396002,-0.256001 -0.703999,-0.617998 -0.924,-1.086 -0.220001,-0.468002 -0.33,-1.005997 -0.33,-1.614 0,-0.608003 0.109999,-1.139998 0.33,-1.596 0.220001,-0.456002 0.525998,-0.807999 0.918,-1.056 0.392002,-0.248001 0.843997,-0.372 1.356,-0.372 0.424002,0 0.799998,0.088 1.128,0.264 0.328002,0.176001 0.579999,0.423998 0.756,0.744 V 9.54 Z m -1.878,6.9 c 0.260001,-0.328002 0.39,-0.795997 0.39,-1.404 0,-0.608003 -0.129999,-1.073998 -0.39,-1.398 -0.260001,-0.324002 -0.625998,-0.486 -1.098,-0.486 -0.480002,0 -0.851999,0.159998 -1.116,0.48 -0.264001,0.320002 -0.396,0.779997 -0.396,1.38 0,0.608003 0.131999,1.079998 0.396,1.416 0.264001,0.336002 0.631998,0.504 1.104,0.504 0.480002,0 0.849999,-0.163998 1.11,-0.492 z m 7.782,-3.852 c 0.400002,0.400002 0.6,1.015996 0.6,1.848 V 18 h -1.428 v -0.9 c -0.136001,0.312002 -0.349999,0.555999 -0.642,0.732 -0.292002,0.176001 -0.629998,0.264 -1.014,0.264 -0.392002,0 -0.747998,-0.08 -1.068,-0.24 -0.320002,-0.160001 -0.571999,-0.379999 -0.756,-0.66 C 55.491999,16.915999 55.4,16.604002 55.4,16.26 c 0,-0.432002 0.109999,-0.771999 0.33,-1.02 0.220001,-0.248001 0.577997,-0.427999 1.074,-0.54 0.496002,-0.112001 1.179996,-0.168 2.052,-0.168 h 0.3 v -0.276 c 0,-0.400002 -0.086,-0.687999 -0.258,-0.864 -0.172001,-0.176001 -0.457998,-0.264 -0.858,-0.264 -0.312002,0 -0.637998,0.054 -0.978,0.162 -0.340002,0.108001 -0.673998,0.257999 -1.002,0.45 l -0.42,-1.032 c 0.328002,-0.208001 0.723998,-0.379999 1.188,-0.516 0.464002,-0.136001 0.903998,-0.204 1.32,-0.204 0.824004,0 1.435998,0.199998 1.836,0.6 z m -1.206,4.026 c 0.252001,-0.268001 0.378,-0.613998 0.378,-1.038 V 15.324 H 58.94 c -0.536003,0 -0.951998,0.024 -1.248,0.072 -0.296002,0.048 -0.507999,0.131999 -0.636,0.252 -0.128001,0.120001 -0.192,0.283999 -0.192,0.492 0,0.256001 0.088,0.465999 0.264,0.63 0.176001,0.164001 0.399999,0.246 0.672,0.246 0.400002,0 0.725999,-0.133999 0.978,-0.402 z M 71.024,9.54 V 18 h -1.488 v -0.948 c -0.176001,0.328002 -0.429998,0.583999 -0.762,0.768 -0.332002,0.184001 -0.709998,0.276 -1.134,0.276 -0.504002,0 -0.953998,-0.127999 -1.35,-0.384 -0.396002,-0.256001 -0.703999,-0.617998 -0.924,-1.086 -0.220001,-0.468002 -0.33,-1.005997 -0.33,-1.614 0,-0.608003 0.109999,-1.139998 0.33,-1.596 0.220001,-0.456002 0.525998,-0.807999 0.918,-1.056 0.392002,-0.248001 0.843997,-0.372 1.356,-0.372 0.424002,0 0.799998,0.088 1.128,0.264 0.328002,0.176001 0.579999,0.423998 0.756,0.744 V 9.54 Z m -1.878,6.9 c 0.260001,-0.328002 0.39,-0.795997 0.39,-1.404 0,-0.608003 -0.129999,-1.073998 -0.39,-1.398 -0.260001,-0.324002 -0.625998,-0.486 -1.098,-0.486 -0.480002,0 -0.851999,0.159998 -1.116,0.48 -0.264001,0.320002 -0.396,0.779997 -0.396,1.38 0,0.608003 0.131999,1.079998 0.396,1.416 0.264001,0.336002 0.631998,0.504 1.104,0.504 0.480002,0 0.849999,-0.163998 1.11,-0.492 z m 8.574,-1.104 h -3.996 c 0.048,0.544003 0.211999,0.947999 0.492,1.212 0.280001,0.264001 0.679997,0.396 1.2,0.396 0.648003,0 1.239997,-0.207998 1.776,-0.624 l 0.432,1.032 c -0.272001,0.224001 -0.613998,0.403999 -1.026,0.54 -0.412002,0.136001 -0.825998,0.204 -1.242,0.204 -0.960005,0 -1.717997,-0.271997 -2.274,-0.816 -0.556003,-0.544003 -0.834,-1.287995 -0.834,-2.232 0,-0.600003 0.119999,-1.131998 0.36,-1.596 0.240001,-0.464002 0.577998,-0.823999 1.014,-1.08 0.436002,-0.256001 0.929997,-0.384 1.482,-0.384 0.808004,0 1.445998,0.259997 1.914,0.78 0.468002,0.520003 0.702,1.235995 0.702,2.148 z m -3.546,-1.908 c -0.244001,0.256001 -0.394,0.623998 -0.45,1.104 h 2.712 c -0.016,-0.488002 -0.135999,-0.857999 -0.36,-1.11 -0.224001,-0.252001 -0.535998,-0.378 -0.936,-0.378 -0.400002,0 -0.721999,0.127999 -0.966,0.384 z m 5.496,4.476 c -0.436002,-0.128001 -0.805999,-0.311999 -1.11,-0.552 l 0.42,-1.044 c 0.624003,0.456002 1.339996,0.684 2.148,0.684 0.344002,0 0.605999,-0.056 0.786,-0.168 0.180001,-0.112001 0.27,-0.271999 0.27,-0.48 0,-0.176001 -0.062,-0.312 -0.186,-0.408 -0.124001,-0.096 -0.345998,-0.184 -0.666,-0.264 l -0.96,-0.216 c -0.544003,-0.120001 -0.947999,-0.315999 -1.212,-0.588 -0.264001,-0.272001 -0.396,-0.623998 -0.396,-1.056 0,-0.360002 0.101999,-0.677999 0.306,-0.954 0.204001,-0.276001 0.487998,-0.489999 0.852,-0.642 0.364002,-0.152001 0.785998,-0.228 1.266,-0.228 0.416002,0 0.817998,0.064 1.206,0.192 0.388002,0.128001 0.729998,0.307999 1.026,0.54 L 83,13.74 c -0.608003,-0.440002 -1.215997,-0.66 -1.824,-0.66 -0.328002,0 -0.583999,0.06 -0.768,0.18 -0.184001,0.120001 -0.276,0.287999 -0.276,0.504 0,0.160001 0.058,0.292 0.174,0.396 0.116001,0.104001 0.301999,0.184 0.558,0.24 l 0.996,0.228 c 0.584003,0.128001 1.011999,0.329999 1.284,0.606 0.272001,0.276001 0.408,0.637998 0.408,1.086 0,0.544003 -0.219998,0.975998 -0.66,1.296 -0.440002,0.320002 -1.035996,0.48 -1.788,0.48 -0.520003,0 -0.997998,-0.064 -1.434,-0.192 z M 90.428,9.54 V 18 H 88.94 v -0.948 c -0.176001,0.328002 -0.429998,0.583999 -0.762,0.768 -0.332002,0.184001 -0.709998,0.276 -1.134,0.276 -0.504003,0 -0.953998,-0.127999 -1.35,-0.384 -0.396002,-0.256001 -0.703999,-0.617998 -0.924,-1.086 -0.220001,-0.468002 -0.33,-1.005997 -0.33,-1.614 0,-0.608003 0.109999,-1.139998 0.33,-1.596 0.220001,-0.456002 0.525998,-0.807999 0.918,-1.056 0.392002,-0.248001 0.843997,-0.372 1.356,-0.372 0.424002,0 0.799998,0.088 1.128,0.264 0.328002,0.176001 0.579999,0.423998 0.756,0.744 V 9.54 Z m -1.878,6.9 c 0.260001,-0.328002 0.39,-0.795997 0.39,-1.404 0,-0.608003 -0.129999,-1.073998 -0.39,-1.398 -0.260001,-0.324002 -0.625998,-0.486 -1.098,-0.486 -0.480002,0 -0.851999,0.159998 -1.116,0.48 -0.264001,0.320002 -0.396,0.779997 -0.396,1.38 0,0.608003 0.131999,1.079998 0.396,1.416 0.264001,0.336002 0.631998,0.504 1.104,0.504 0.480002,0 0.849999,-0.163998 1.11,-0.492 z m 8.574,-1.104 h -3.996 c 0.048,0.544003 0.211999,0.947999 0.492,1.212 0.280001,0.264001 0.679997,0.396 1.2,0.396 0.648003,0 1.239997,-0.207998 1.776,-0.624 l 0.432,1.032 c -0.272001,0.224001 -0.613998,0.403999 -1.026,0.54 -0.412002,0.136001 -0.825998,0.204 -1.242,0.204 -0.960005,0 -1.717997,-0.271997 -2.274,-0.816 -0.556003,-0.544003 -0.834,-1.287995 -0.834,-2.232 0,-0.600003 0.119999,-1.131998 0.36,-1.596 0.240001,-0.464002 0.577998,-0.823999 1.014,-1.08 0.436002,-0.256001 0.929997,-0.384 1.482,-0.384 0.808004,0 1.445998,0.259997 1.914,0.78 0.468002,0.520003 0.702,1.235995 0.702,2.148 z m -3.546,-1.908 c -0.244001,0.256001 -0.394,0.623998 -0.45,1.104 h 2.712 c -0.016,-0.488002 -0.135999,-0.857999 -0.36,-1.11 -0.224001,-0.252001 -0.535998,-0.378 -0.936,-0.378 -0.400002,0 -0.721999,0.127999 -0.966,0.384 z m 13.41,-1.296 V 18 h -1.464 v -0.9 c -0.184,0.320002 -0.432,0.565999 -0.744,0.738 -0.312,0.172001 -0.664,0.258 -1.056,0.258 -1.44001,0 -2.16,-0.807992 -2.16,-2.424 v -3.54 h 1.5 v 3.552 c 0,0.416002 0.084,0.723999 0.252,0.924 0.168,0.200001 0.432,0.3 0.792,0.3 0.416,0 0.75,-0.137999 1.002,-0.414 0.252,-0.276001 0.378,-0.641998 0.378,-1.098 v -3.264 z m 6.54,0.456 c 0.344,0.400002 0.516,1.003996 0.516,1.812 V 18 h -1.5 v -3.516 c 0,-0.456002 -0.086,-0.787999 -0.258,-0.996 -0.172,-0.208001 -0.442,-0.312 -0.81,-0.312 -0.432,0 -0.778,0.135999 -1.038,0.408 -0.26,0.272001 -0.39,0.635998 -0.39,1.092 V 18 h -1.5 v -5.868 h 1.464 v 0.876 c 0.2,-0.328002 0.468,-0.579999 0.804,-0.756 0.336,-0.176001 0.716,-0.264 1.14,-0.264 0.704,0 1.228,0.199998 1.572,0.6 z m 10.44,2.748 h -3.996 c 0.048,0.544003 0.212,0.947999 0.492,1.212 0.28,0.264001 0.68,0.396 1.2,0.396 0.648,0 1.24,-0.207998 1.776,-0.624 l 0.432,1.032 c -0.272,0.224001 -0.614,0.403999 -1.026,0.54 -0.412,0.136001 -0.826,0.204 -1.242,0.204 -0.96,0 -1.718,-0.271997 -2.274,-0.816 -0.556,-0.544003 -0.834,-1.287995 -0.834,-2.232 0,-0.600003 0.12,-1.131998 0.36,-1.596 0.24,-0.464002 0.578,-0.823999 1.014,-1.08 0.436,-0.256001 0.93,-0.384 1.482,-0.384 0.808,0 1.446,0.259997 1.914,0.78 0.468,0.520003 0.702,1.235995 0.702,2.148 z m -3.546,-1.908 c -0.244,0.256001 -0.394,0.623998 -0.45,1.104 h 2.712 c -0.016,-0.488002 -0.136,-0.857999 -0.36,-1.11 -0.224,-0.252001 -0.536,-0.378 -0.936,-0.378 -0.4,0 -0.722,0.127999 -0.966,0.384 z m 9.75,-0.84 c 0.344,0.400002 0.516,1.003996 0.516,1.812 V 18 h -1.5 v -3.516 c 0,-0.456002 -0.086,-0.787999 -0.258,-0.996 -0.172,-0.208001 -0.442,-0.312 -0.81,-0.312 -0.432,0 -0.778,0.135999 -1.038,0.408 -0.26,0.272001 -0.39,0.635998 -0.39,1.092 V 18 h -1.5 v -5.868 h 1.464 v 0.876 c 0.2,-0.328002 0.468,-0.579999 0.804,-0.756 0.336,-0.176001 0.716,-0.264 1.14,-0.264 0.704,0 1.228,0.199998 1.572,0.6 z m 3.114,5.136 c -0.452,-0.248001 -0.798,-0.599998 -1.038,-1.056 -0.24,-0.456002 -0.36,-0.987997 -0.36,-1.596 0,-0.608003 0.126,-1.145998 0.378,-1.614 0.252,-0.468002 0.61,-0.829999 1.074,-1.086 0.464,-0.256001 1,-0.384 1.608,-0.384 0.416,0 0.822,0.066 1.218,0.198 0.396,0.132001 0.714,0.309999 0.954,0.534 l -0.432,1.056 c -0.248,-0.200001 -0.51,-0.351999 -0.786,-0.456 -0.276,-0.104 -0.55,-0.156 -0.822,-0.156 -0.52,0 -0.924,0.161998 -1.212,0.486 -0.288,0.324002 -0.432,0.789997 -0.432,1.398 0,0.600003 0.144,1.061998 0.432,1.386 0.288,0.324002 0.692,0.486 1.212,0.486 0.272,0 0.546,-0.052 0.822,-0.156 0.276,-0.104 0.538,-0.255999 0.786,-0.456 l 0.432,1.044 c -0.256,0.232001 -0.584,0.413999 -0.984,0.546 -0.4,0.132001 -0.816,0.198 -1.248,0.198 -0.616,0 -1.15,-0.123999 -1.602,-0.372 z m 10.17,-5.592 V 18 h -1.464 v -0.9 c -0.184,0.320002 -0.432,0.565999 -0.744,0.738 -0.312,0.172001 -0.664,0.258 -1.056,0.258 -1.44001,0 -2.16,-0.807992 -2.16,-2.424 v -3.54 h 1.5 v 3.552 c 0,0.416002 0.084,0.723999 0.252,0.924 0.168,0.200001 0.432,0.3 0.792,0.3 0.416,0 0.75,-0.137999 1.002,-0.414 0.252,-0.276001 0.378,-0.641998 0.378,-1.098 v -3.264 z m 6.708,3.204 h -3.996 c 0.048,0.544003 0.212,0.947999 0.492,1.212 0.28,0.264001 0.68,0.396 1.2,0.396 0.648,0 1.24,-0.207998 1.776,-0.624 l 0.432,1.032 c -0.272,0.224001 -0.614,0.403999 -1.026,0.54 -0.412,0.136001 -0.826,0.204 -1.242,0.204 -0.96001,0 -1.718,-0.271997 -2.274,-0.816 -0.556,-0.544003 -0.834,-1.287995 -0.834,-2.232 0,-0.600003 0.12,-1.131998 0.36,-1.596 0.24,-0.464002 0.578,-0.823999 1.014,-1.08 0.436,-0.256001 0.93,-0.384 1.482,-0.384 0.808,0 1.446,0.259997 1.914,0.78 0.468,0.520003 0.702,1.235995 0.702,2.148 z m -3.546,-1.908 c -0.244,0.256001 -0.394,0.623998 -0.45,1.104 h 2.712 c -0.016,-0.488002 -0.136,-0.857999 -0.36,-1.11 -0.224,-0.252001 -0.536,-0.378 -0.936,-0.378 -0.4,0 -0.722,0.127999 -0.966,0.384 z m 9.75,-0.84 c 0.344,0.400002 0.516,1.003996 0.516,1.812 V 18 h -1.5 v -3.516 c 0,-0.456002 -0.086,-0.787999 -0.258,-0.996 -0.172,-0.208001 -0.442,-0.312 -0.81,-0.312 -0.432,0 -0.778,0.135999 -1.038,0.408 -0.26,0.272001 -0.39,0.635998 -0.39,1.092 V 18 h -1.5 v -5.868 h 1.464 v 0.876 c 0.2,-0.328002 0.468,-0.579999 0.804,-0.756 0.336,-0.176001 0.716,-0.264 1.14,-0.264 0.704,0 1.228,0.199998 1.572,0.6 z m 5.592,4.344 -0.072,1.116 c -0.24,0.024 -0.46,0.036 -0.66,0.036 -0.824,0 -1.432,-0.189998 -1.824,-0.57 -0.392,-0.380002 -0.588,-0.945996 -0.588,-1.698 V 13.26 h -1.128 v -1.128 h 1.128 V 10.38 h 1.5 v 1.752 h 1.548 v 1.128 h -1.548 v 2.532 c 0,0.784004 0.364,1.176 1.092,1.176 0.176,0 0.36,-0.012 0.552,-0.036 z m 4.74,-3.696 -0.876,0.084 c -0.99201,0.104001 -1.488,0.607996 -1.488,1.512 V 18 h -1.5 v -5.868 h 1.428 v 1.032 c 0.304,-0.704003 0.93199,-1.088 1.884,-1.152 l 0.456,-0.036 z m 1.83,4.488 c -0.452,-0.248001 -0.802,-0.603998 -1.05,-1.068 -0.248,-0.464002 -0.372,-1.003997 -0.372,-1.62 0,-0.616003 0.124,-1.153998 0.372,-1.614 0.248,-0.460002 0.598,-0.813999 1.05,-1.062 0.452,-0.248001 0.978,-0.372 1.578,-0.372 0.6,0 1.126,0.123999 1.578,0.372 0.452,0.248001 0.8,0.601998 1.044,1.062 0.244,0.460002 0.366,0.997997 0.366,1.614 0,0.616003 -0.122,1.155998 -0.366,1.62 -0.244,0.464002 -0.592,0.819999 -1.044,1.068 -0.452,0.248001 -0.978,0.372 -1.578,0.372 -0.6,0 -1.126,-0.123999 -1.578,-0.372 z m 2.682,-1.272 c 0.256,-0.320002 0.384,-0.791997 0.384,-1.416 0,-0.616003 -0.128,-1.085998 -0.384,-1.41 -0.256,-0.324002 -0.624,-0.486 -1.104,-0.486 -0.48,0 -0.85,0.161998 -1.11,0.486 -0.26,0.324002 -0.39,0.793997 -0.39,1.41 0,0.624003 0.128,1.095998 0.384,1.416 0.256,0.320002 0.624,0.48 1.104,0.48 0.488,0 0.86,-0.159998 1.116,-0.48 z m 7.446,1.272 c -0.452,-0.248001 -0.798,-0.599998 -1.038,-1.056 -0.24,-0.456002 -0.36,-0.987997 -0.36,-1.596 0,-0.608003 0.126,-1.145998 0.378,-1.614 0.252,-0.468002 0.61,-0.829999 1.074,-1.086 0.464,-0.256001 1,-0.384 1.608,-0.384 0.416,0 0.822,0.066 1.218,0.198 0.396,0.132001 0.714,0.309999 0.954,0.534 l -0.432,1.056 c -0.248,-0.200001 -0.51,-0.351999 -0.786,-0.456 -0.276,-0.104 -0.55,-0.156 -0.822,-0.156 -0.52,0 -0.924,0.161998 -1.212,0.486 -0.288,0.324002 -0.432,0.789997 -0.432,1.398 0,0.600003 0.144,1.061998 0.432,1.386 0.288,0.324002 0.692,0.486 1.212,0.486 0.272,0 0.546,-0.052 0.822,-0.156 0.276,-0.104 0.538,-0.255999 0.786,-0.456 l 0.432,1.044 c -0.256,0.232001 -0.584,0.413999 -0.984,0.546 -0.4,0.132001 -0.816,0.198 -1.248,0.198 -0.616,0 -1.15,-0.123999 -1.602,-0.372 z M 183.44,18 v -5.868 h 1.5 V 18 Z m -0.084,-8.592 h 1.656 v 1.476 h -1.656 z m 8.52,2.724 V 18 h -1.464 v -0.9 c -0.184,0.320002 -0.432,0.565999 -0.744,0.738 -0.312,0.172001 -0.664,0.258 -1.056,0.258 -1.44001,0 -2.16,-0.807992 -2.16,-2.424 v -3.54 h 1.5 v 3.552 c 0,0.416002 0.084,0.723999 0.252,0.924 0.168,0.200001 0.432,0.3 0.792,0.3 0.416,0 0.75,-0.137999 1.002,-0.414 0.252,-0.276001 0.378,-0.641998 0.378,-1.098 V 12.132 Z M 199.1,9.54 V 18 h -1.488 v -0.948 c -0.176,0.328002 -0.43,0.583999 -0.762,0.768 -0.332,0.184001 -0.71,0.276 -1.134,0.276 -0.504,0 -0.954,-0.127999 -1.35,-0.384 -0.396,-0.256001 -0.704,-0.617998 -0.924,-1.086 -0.22,-0.468002 -0.33,-1.005997 -0.33,-1.614 0,-0.608003 0.11,-1.139998 0.33,-1.596 0.22,-0.456002 0.526,-0.807999 0.918,-1.056 0.392,-0.248001 0.844,-0.372 1.356,-0.372 0.424,0 0.8,0.088 1.128,0.264 0.328,0.176001 0.58,0.423998 0.756,0.744 V 9.54 Z m -1.878,6.9 c 0.26,-0.328002 0.39,-0.795997 0.39,-1.404 0,-0.608003 -0.13,-1.073998 -0.39,-1.398 -0.26,-0.324002 -0.626,-0.486 -1.098,-0.486 -0.48,0 -0.852,0.159998 -1.116,0.48 -0.264,0.320002 -0.396,0.779997 -0.396,1.38 0,0.608003 0.132,1.079998 0.396,1.416 0.264,0.336002 0.632,0.504 1.104,0.504 0.48,0 0.85,-0.163998 1.11,-0.492 z m 7.782,-3.852 c 0.4,0.400002 0.6,1.015996 0.6,1.848 V 18 h -1.428 v -0.9 c -0.136,0.312002 -0.35,0.555999 -0.642,0.732 -0.292,0.176001 -0.63,0.264 -1.014,0.264 -0.392,0 -0.748,-0.08 -1.068,-0.24 -0.32,-0.160001 -0.572,-0.379999 -0.756,-0.66 -0.184,-0.280001 -0.276,-0.591998 -0.276,-0.936 0,-0.432002 0.11,-0.771999 0.33,-1.02 0.22,-0.248001 0.578,-0.427999 1.074,-0.54 0.496,-0.112001 1.18,-0.168 2.052,-0.168 h 0.3 v -0.276 c 0,-0.400002 -0.086,-0.687999 -0.258,-0.864 -0.172,-0.176001 -0.458,-0.264 -0.858,-0.264 -0.312,0 -0.638,0.054 -0.978,0.162 -0.34,0.108001 -0.674,0.257999 -1.002,0.45 l -0.42,-1.032 c 0.328,-0.208001 0.724,-0.379999 1.188,-0.516 0.464,-0.136001 0.904,-0.204 1.32,-0.204 0.824,0 1.436,0.199998 1.836,0.6 z m -1.206,4.026 c 0.252,-0.268001 0.378,-0.613998 0.378,-1.038 v -0.252 h -0.216 c -0.536,0 -0.952,0.024 -1.248,0.072 -0.296,0.048 -0.508,0.131999 -0.636,0.252 -0.128,0.120001 -0.192,0.283999 -0.192,0.492 0,0.256001 0.088,0.465999 0.264,0.63 0.176,0.164001 0.4,0.246 0.672,0.246 0.4,0 0.726,-0.133999 0.978,-0.402 z M 212.792,9.54 V 18 h -1.488 v -0.948 c -0.176,0.328002 -0.43,0.583999 -0.762,0.768 -0.332,0.184001 -0.71,0.276 -1.134,0.276 -0.504,0 -0.954,-0.127999 -1.35,-0.384 -0.396,-0.256001 -0.704,-0.617998 -0.924,-1.086 -0.22,-0.468002 -0.33,-1.005997 -0.33,-1.614 0,-0.608003 0.11,-1.139998 0.33,-1.596 0.22,-0.456002 0.526,-0.807999 0.918,-1.056 0.392,-0.248001 0.844,-0.372 1.356,-0.372 0.424,0 0.8,0.088 1.128,0.264 0.328,0.176001 0.58,0.423998 0.756,0.744 V 9.54 Z m -1.878,6.9 c 0.26,-0.328002 0.39,-0.795997 0.39,-1.404 0,-0.608003 -0.13,-1.073998 -0.39,-1.398 -0.26,-0.324002 -0.626,-0.486 -1.098,-0.486 -0.48,0 -0.852,0.159998 -1.116,0.48 -0.264,0.320002 -0.396,0.779997 -0.396,1.38 0,0.608003 0.132,1.079998 0.396,1.416 0.264,0.336002 0.632,0.504 1.104,0.504 0.48,0 0.85,-0.163998 1.11,-0.492 z m 7.782,-3.852 c 0.4,0.400002 0.6,1.015996 0.6,1.848 V 18 h -1.428 v -0.9 c -0.136,0.312002 -0.35,0.555999 -0.642,0.732 -0.292,0.176001 -0.63,0.264 -1.014,0.264 -0.392,0 -0.748,-0.08 -1.068,-0.24 -0.32,-0.160001 -0.572,-0.379999 -0.756,-0.66 -0.184,-0.280001 -0.276,-0.591998 -0.276,-0.936 0,-0.432002 0.11,-0.771999 0.33,-1.02 0.22,-0.248001 0.578,-0.427999 1.074,-0.54 0.496,-0.112001 1.18,-0.168 2.052,-0.168 h 0.3 v -0.276 c 0,-0.400002 -0.086,-0.687999 -0.258,-0.864 -0.172,-0.176001 -0.458,-0.264 -0.858,-0.264 -0.312,0 -0.638,0.054 -0.978,0.162 -0.34,0.108001 -0.674,0.257999 -1.002,0.45 l -0.42,-1.032 c 0.328,-0.208001 0.724,-0.379999 1.188,-0.516 0.464,-0.136001 0.904,-0.204 1.32,-0.204 0.824,0 1.436,0.199998 1.836,0.6 z m -1.206,4.026 c 0.252,-0.268001 0.378,-0.613998 0.378,-1.038 v -0.252 h -0.216 c -0.536,0 -0.952,0.024 -1.248,0.072 -0.296,0.048 -0.508,0.131999 -0.636,0.252 -0.128,0.120001 -0.192,0.283999 -0.192,0.492 0,0.256001 0.088,0.465999 0.264,0.63 0.176,0.164001 0.4,0.246 0.672,0.246 0.4,0 0.726,-0.133999 0.978,-0.402 z m 8.31,-4.026 c 0.344,0.400002 0.516,1.003996 0.516,1.812 V 18 h -1.5 v -3.516 c 0,-0.456002 -0.086,-0.787999 -0.258,-0.996 -0.172,-0.208001 -0.442,-0.312 -0.81,-0.312 -0.432,0 -0.778,0.135999 -1.038,0.408 -0.26,0.272001 -0.39,0.635998 -0.39,1.092 V 18 h -1.5 v -5.868 h 1.464 v 0.876 c 0.2,-0.328002 0.468,-0.579999 0.804,-0.756 0.336,-0.176001 0.716,-0.264 1.14,-0.264 0.704,0 1.228,0.199998 1.572,0.6 z m 3.138,5.136 c -0.452,-0.248001 -0.802,-0.603998 -1.05,-1.068 -0.248,-0.464002 -0.372,-1.003997 -0.372,-1.62 0,-0.616003 0.124,-1.153998 0.372,-1.614 0.248,-0.460002 0.598,-0.813999 1.05,-1.062 0.452,-0.248001 0.978,-0.372 1.578,-0.372 0.6,0 1.126,0.123999 1.578,0.372 0.452,0.248001 0.8,0.601998 1.044,1.062 0.244,0.460002 0.366,0.997997 0.366,1.614 0,0.616003 -0.122,1.155998 -0.366,1.62 -0.244,0.464002 -0.592,0.819999 -1.044,1.068 -0.452,0.248001 -0.978,0.372 -1.578,0.372 -0.6,0 -1.126,-0.123999 -1.578,-0.372 z m 2.682,-1.272 c 0.256,-0.320002 0.384,-0.791997 0.384,-1.416 0,-0.616003 -0.128,-1.085998 -0.384,-1.41 -0.256,-0.324002 -0.624,-0.486 -1.104,-0.486 -0.48,0 -0.85,0.161998 -1.11,0.486 -0.26,0.324002 -0.39,0.793997 -0.39,1.41 0,0.624003 0.128,1.095998 0.384,1.416 0.256,0.320002 0.624,0.48 1.104,0.48 0.488,0 0.86,-0.159998 1.116,-0.48 z"
           id="Generada-desde-un-en"
           inkscape:connector-curvature="0"
           style="fill:#ffffff" />
      </g>
    </g>
  </g>
  <rect
     style="opacity:1;vector-effect:none;fill:#ff645b;fill-opacity:1;fill-rule:evenodd;stroke:none;stroke-width:1;stroke-linecap:butt;stroke-linejoin:miter;stroke-miterlimit:4;stroke-dasharray:none;stroke-dashoffset:0;stroke-opacity:1"
     id="rect828"
     width="228.23077"
     height="17.365385"
     x="6.6153846"
     y="7.3076925" />
  <flowRoot
     xml:space="preserve"
     id="flowRoot830"
     style="font-style:normal;font-variant:normal;font-weight:normal;font-stretch:normal;font-size:12px;line-height:1.25;font-family:sans-serif;-inkscape-font-specification:sans-serif;letter-spacing:-0.01px;word-spacing:0px;fill:#ffffff;fill-opacity:1;stroke:none"><flowRegion
       id="flowRegion832"
       style="font-style:normal;font-variant:normal;font-weight:normal;font-stretch:normal;font-size:12px;font-family:sans-serif;-inkscape-font-specification:sans-serif;letter-spacing:-0.01px;fill:#ffffff"><rect
         id="rect834"
         width="228.23077"
         height="17.365383"
         x="6.6153846"
         y="7.3076925"
         style="font-style:normal;font-variant:normal;font-weight:normal;font-stretch:normal;font-size:12px;font-family:sans-serif;-inkscape-font-specification:sans-serif;letter-spacing:-0.01px;fill:#ffffff" /></flowRegion><flowPara
       id="flowPara836"
       style="font-style:normal;font-variant:normal;font-weight:bold;font-stretch:normal;font-size:10.66666698px;font-family:sans-serif;-inkscape-font-specification:'sans-serif Bold'">Gerada em um encontro de cidadãos</flowPara></flowRoot></svg>
