<?xml version="1.0" encoding="UTF-8" standalone="no"?>
<svg width="258px" height="47px" viewBox="0 0 258 47" version="1.1" xmlns="http://www.w3.org/2000/svg" xmlns:xlink="http://www.w3.org/1999/xlink">
    <!-- Generator: Sketch 41.2 (35397) - http://www.bohemiancoding.com/sketch -->
    <title>Artboard 5</title>
    <desc>Created with Sketch.</desc>
    <defs></defs>
    <g id="Page-1" stroke="none" stroke-width="1" fill="none" fill-rule="evenodd">
        <g id="Artboard-5">
            <g id="Group-4-Copy">
                <path d="M237,4 L258,4 C258,4 252.70416,19.5438101 252.70416,19.2575949 C252.70416,18.9713797 258,33 258,33 L237,33 L237,4 Z" id="Rectangle-30-Copy" fill="#F92F24"></path>
                <rect id="Rectangle-30" fill="#FF645B" x="1.42108547e-14" y="0" width="244" height="29"></rect>
                <path d="M15.968,13.428 L15.968,17.484 C15.5839981,17.676001 15.1180027,17.8279994 14.57,17.94 C14.0219973,18.0520006 13.4640028,18.108 12.896,18.108 C12.0239956,18.108 11.2680032,17.9340017 10.628,17.586 C9.9879968,17.2379983 9.4980017,16.7380033 9.158,16.086 C8.8179983,15.4339967 8.648,14.6600045 8.648,13.764 C8.648,12.8759956 8.8179983,12.1060033 9.158,11.454 C9.4980017,10.8019967 9.98199686,10.3020017 10.61,9.954 C11.2380031,9.60599826 11.9759958,9.432 12.824,9.432 C13.416003,9.432 13.9719974,9.51799914 14.492,9.69 C15.0120026,9.86200086 15.4439983,10.1079984 15.788,10.428 L15.272,11.544 C14.879998,11.2399985 14.4940019,11.0220007 14.114,10.89 C13.7339981,10.7579993 13.3160023,10.692 12.86,10.692 C11.9879956,10.692 11.3300022,10.9499974 10.886,11.466 C10.4419978,11.9820026 10.22,12.7479949 10.22,13.764 C10.22,15.8440104 11.1319909,16.884 12.956,16.884 C13.5000027,16.884 14.0439973,16.8080008 14.588,16.656 L14.588,14.532 L12.764,14.532 L12.764,13.428 L15.968,13.428 Z M22.724,15.336 L18.728,15.336 C18.7760002,15.8800027 18.9399986,16.2839987 19.22,16.548 C19.5000014,16.8120013 19.8999974,16.944 20.42,16.944 C21.0680032,16.944 21.6599973,16.7360021 22.196,16.32 L22.628,17.352 C22.3559986,17.5760011 22.0140021,17.7559993 21.602,17.892 C21.1899979,18.0280007 20.7760021,18.096 20.36,18.096 C19.3999952,18.096 18.6420028,17.8240027 18.086,17.28 C17.5299972,16.7359973 17.252,15.9920047 17.252,15.048 C17.252,14.447997 17.3719988,13.9160023 17.612,13.452 C17.8520012,12.9879977 18.1899978,12.6280013 18.626,12.372 C19.0620022,12.1159987 19.5559972,11.988 20.108,11.988 C20.916004,11.988 21.5539977,12.2479974 22.022,12.768 C22.4900023,13.2880026 22.724,14.0039954 22.724,14.916 L22.724,15.336 Z M19.178,13.428 C18.9339988,13.6840013 18.7840003,14.0519976 18.728,14.532 L21.44,14.532 C21.4239999,14.0439976 21.3040011,13.6740013 21.08,13.422 C20.8559989,13.1699987 20.544002,13.044 20.144,13.044 C19.743998,13.044 19.4220012,13.1719987 19.178,13.428 Z M28.928,12.588 C29.2720017,12.988002 29.444,13.591996 29.444,14.4 L29.444,18 L27.944,18 L27.944,14.484 C27.944,14.0279977 27.8580009,13.696001 27.686,13.488 C27.5139991,13.279999 27.2440018,13.176 26.876,13.176 C26.4439978,13.176 26.0980013,13.3119986 25.838,13.584 C25.5779987,13.8560014 25.448,14.2199977 25.448,14.676 L25.448,18 L23.948,18 L23.948,12.132 L25.412,12.132 L25.412,13.008 C25.612001,12.6799984 25.8799983,12.4280009 26.216,12.252 C26.5520017,12.0759991 26.9319979,11.988 27.356,11.988 C28.0600035,11.988 28.5839983,12.187998 28.928,12.588 Z M36.116,15.336 L32.12,15.336 C32.1680002,15.8800027 32.3319986,16.2839987 32.612,16.548 C32.8920014,16.8120013 33.2919974,16.944 33.812,16.944 C34.4600032,16.944 35.0519973,16.7360021 35.588,16.32 L36.02,17.352 C35.7479986,17.5760011 35.4060021,17.7559993 34.994,17.892 C34.5819979,18.0280007 34.1680021,18.096 33.752,18.096 C32.7919952,18.096 32.0340028,17.8240027 31.478,17.28 C30.9219972,16.7359973 30.644,15.9920047 30.644,15.048 C30.644,14.447997 30.7639988,13.9160023 31.004,13.452 C31.2440012,12.9879977 31.5819978,12.6280013 32.018,12.372 C32.4540022,12.1159987 32.9479972,11.988 33.5,11.988 C34.308004,11.988 34.9459977,12.2479974 35.414,12.768 C35.8820023,13.2880026 36.116,14.0039954 36.116,14.916 L36.116,15.336 Z M32.57,13.428 C32.3259988,13.6840013 32.1760003,14.0519976 32.12,14.532 L34.832,14.532 C34.8159999,14.0439976 34.6960011,13.6740013 34.472,13.422 C34.2479989,13.1699987 33.936002,13.044 33.536,13.044 C33.135998,13.044 32.8140012,13.1719987 32.57,13.428 Z M41.204,13.236 L40.328,13.32 C39.335995,13.4240005 38.84,13.9279955 38.84,14.832 L38.84,18 L37.34,18 L37.34,12.132 L38.768,12.132 L38.768,13.164 C39.0720015,12.4599965 39.6999952,12.0760003 40.652,12.012 L41.108,11.976 L41.204,13.236 Z M46.292,12.588 C46.692002,12.988002 46.892,13.6039958 46.892,14.436 L46.892,18 L45.464,18 L45.464,17.1 C45.3279993,17.4120016 45.1140015,17.6559991 44.822,17.832 C44.5299985,18.0080009 44.1920019,18.096 43.808,18.096 C43.415998,18.096 43.0600016,18.0160008 42.74,17.856 C42.4199984,17.6959992 42.1680009,17.4760014 41.984,17.196 C41.7999991,16.9159986 41.708,16.6040017 41.708,16.26 C41.708,15.8279978 41.8179989,15.4880012 42.038,15.24 C42.2580011,14.9919988 42.6159975,14.8120006 43.112,14.7 C43.6080025,14.5879994 44.2919956,14.532 45.164,14.532 L45.464,14.532 L45.464,14.256 C45.464,13.855998 45.3780009,13.5680009 45.206,13.392 C45.0339991,13.2159991 44.748002,13.128 44.348,13.128 C44.0359984,13.128 43.7100017,13.1819995 43.37,13.29 C43.0299983,13.3980005 42.6960016,13.547999 42.368,13.74 L41.948,12.708 C42.2760016,12.499999 42.6719977,12.3280007 43.136,12.192 C43.6000023,12.0559993 44.0399979,11.988 44.456,11.988 C45.2800041,11.988 45.891998,12.187998 46.292,12.588 Z M45.086,16.614 C45.3380013,16.3459987 45.464,16.0000021 45.464,15.576 L45.464,15.324 L45.248,15.324 C44.7119973,15.324 44.2960015,15.3479998 44,15.396 C43.7039985,15.4440002 43.4920006,15.5279994 43.364,15.648 C43.2359994,15.7680006 43.172,15.931999 43.172,16.14 C43.172,16.3960013 43.2599991,16.6059992 43.436,16.77 C43.6120009,16.9340008 43.8359986,17.016 44.108,17.016 C44.508002,17.016 44.8339987,16.8820013 45.086,16.614 Z M54.08,9.54 L54.08,18 L52.592,18 L52.592,17.052 C52.4159991,17.3800016 52.1620017,17.6359991 51.83,17.82 C51.4979983,18.0040009 51.1200021,18.096 50.696,18.096 C50.1919975,18.096 49.742002,17.9680013 49.346,17.712 C48.949998,17.4559987 48.6420011,17.0940023 48.422,16.626 C48.2019989,16.1579977 48.092,15.620003 48.092,15.012 C48.092,14.403997 48.2019989,13.8720023 48.422,13.416 C48.6420011,12.9599977 48.947998,12.6080012 49.34,12.36 C49.732002,12.1119988 50.1839974,11.988 50.696,11.988 C51.1200021,11.988 51.4959984,12.0759991 51.824,12.252 C52.1520016,12.4280009 52.4039991,12.6759984 52.58,12.996 L52.58,9.54 L54.08,9.54 Z M52.202,16.44 C52.4620013,16.1119984 52.592,15.644003 52.592,15.036 C52.592,14.427997 52.4620013,13.9620016 52.202,13.638 C51.9419987,13.3139984 51.5760024,13.152 51.104,13.152 C50.6239976,13.152 50.2520013,13.3119984 49.988,13.632 C49.7239987,13.9520016 49.592,14.411997 49.592,15.012 C49.592,15.620003 49.7239987,16.0919983 49.988,16.428 C50.2520013,16.7640017 50.6199976,16.932 51.092,16.932 C51.5720024,16.932 51.9419987,16.7680016 52.202,16.44 Z M59.984,12.588 C60.384002,12.988002 60.584,13.6039958 60.584,14.436 L60.584,18 L59.156,18 L59.156,17.1 C59.0199993,17.4120016 58.8060015,17.6559991 58.514,17.832 C58.2219985,18.0080009 57.8840019,18.096 57.5,18.096 C57.107998,18.096 56.7520016,18.0160008 56.432,17.856 C56.1119984,17.6959992 55.8600009,17.4760014 55.676,17.196 C55.4919991,16.9159986 55.4,16.6040017 55.4,16.26 C55.4,15.8279978 55.5099989,15.4880012 55.73,15.24 C55.9500011,14.9919988 56.3079975,14.8120006 56.804,14.7 C57.3000025,14.5879994 57.9839956,14.532 58.856,14.532 L59.156,14.532 L59.156,14.256 C59.156,13.855998 59.0700009,13.5680009 58.898,13.392 C58.7259991,13.2159991 58.440002,13.128 58.04,13.128 C57.7279984,13.128 57.4020017,13.1819995 57.062,13.29 C56.7219983,13.3980005 56.3880016,13.547999 56.06,13.74 L55.64,12.708 C55.9680016,12.499999 56.3639977,12.3280007 56.828,12.192 C57.2920023,12.0559993 57.7319979,11.988 58.148,11.988 C58.9720041,11.988 59.583998,12.187998 59.984,12.588 Z M58.778,16.614 C59.0300013,16.3459987 59.156,16.0000021 59.156,15.576 L59.156,15.324 L58.94,15.324 C58.4039973,15.324 57.9880015,15.3479998 57.692,15.396 C57.3959985,15.4440002 57.1840006,15.5279994 57.056,15.648 C56.9279994,15.7680006 56.864,15.931999 56.864,16.14 C56.864,16.3960013 56.9519991,16.6059992 57.128,16.77 C57.3040009,16.9340008 57.5279986,17.016 57.8,17.016 C58.200002,17.016 58.5259987,16.8820013 58.778,16.614 Z M71.024,9.54 L71.024,18 L69.536,18 L69.536,17.052 C69.3599991,17.3800016 69.1060017,17.6359991 68.774,17.82 C68.4419983,18.0040009 68.0640021,18.096 67.64,18.096 C67.1359975,18.096 66.686002,17.9680013 66.29,17.712 C65.893998,17.4559987 65.5860011,17.0940023 65.366,16.626 C65.1459989,16.1579977 65.036,15.620003 65.036,15.012 C65.036,14.403997 65.1459989,13.8720023 65.366,13.416 C65.5860011,12.9599977 65.891998,12.6080012 66.284,12.36 C66.676002,12.1119988 67.1279974,11.988 67.64,11.988 C68.0640021,11.988 68.4399984,12.0759991 68.768,12.252 C69.0960016,12.4280009 69.3479991,12.6759984 69.524,12.996 L69.524,9.54 L71.024,9.54 Z M69.146,16.44 C69.4060013,16.1119984 69.536,15.644003 69.536,15.036 C69.536,14.427997 69.4060013,13.9620016 69.146,13.638 C68.8859987,13.3139984 68.5200024,13.152 68.048,13.152 C67.5679976,13.152 67.1960013,13.3119984 66.932,13.632 C66.6679987,13.9520016 66.536,14.411997 66.536,15.012 C66.536,15.620003 66.6679987,16.0919983 66.932,16.428 C67.1960013,16.7640017 67.5639976,16.932 68.036,16.932 C68.5160024,16.932 68.8859987,16.7680016 69.146,16.44 Z M77.72,15.336 L73.724,15.336 C73.7720002,15.8800027 73.9359986,16.2839987 74.216,16.548 C74.4960014,16.8120013 74.8959974,16.944 75.416,16.944 C76.0640032,16.944 76.6559973,16.7360021 77.192,16.32 L77.624,17.352 C77.3519986,17.5760011 77.0100021,17.7559993 76.598,17.892 C76.1859979,18.0280007 75.7720021,18.096 75.356,18.096 C74.3959952,18.096 73.6380028,17.8240027 73.082,17.28 C72.5259972,16.7359973 72.248,15.9920047 72.248,15.048 C72.248,14.447997 72.3679988,13.9160023 72.608,13.452 C72.8480012,12.9879977 73.1859978,12.6280013 73.622,12.372 C74.0580022,12.1159987 74.5519972,11.988 75.104,11.988 C75.912004,11.988 76.5499977,12.2479974 77.018,12.768 C77.4860023,13.2880026 77.72,14.0039954 77.72,14.916 L77.72,15.336 Z M74.174,13.428 C73.9299988,13.6840013 73.7800003,14.0519976 73.724,14.532 L76.436,14.532 C76.4199999,14.0439976 76.3000011,13.6740013 76.076,13.422 C75.8519989,13.1699987 75.540002,13.044 75.14,13.044 C74.739998,13.044 74.4180012,13.1719987 74.174,13.428 Z M79.67,17.904 C79.2339978,17.7759994 78.8640015,17.5920012 78.56,17.352 L78.98,16.308 C79.6040031,16.7640023 80.319996,16.992 81.128,16.992 C81.4720017,16.992 81.7339991,16.9360006 81.914,16.824 C82.0940009,16.7119994 82.184,16.552001 82.184,16.344 C82.184,16.1679991 82.1220006,16.0320005 81.998,15.936 C81.8739994,15.8399995 81.6520016,15.7520004 81.332,15.672 L80.372,15.456 C79.8279973,15.3359994 79.4240013,15.1400014 79.16,14.868 C78.8959987,14.5959986 78.764,14.2440022 78.764,13.812 C78.764,13.4519982 78.865999,13.1340014 79.07,12.858 C79.274001,12.5819986 79.5579982,12.3680008 79.922,12.216 C80.2860018,12.0639992 80.7079976,11.988 81.188,11.988 C81.6040021,11.988 82.0059981,12.0519994 82.394,12.18 C82.7820019,12.3080006 83.1239985,12.4879988 83.42,12.72 L83,13.74 C82.391997,13.2999978 81.784003,13.08 81.176,13.08 C80.8479984,13.08 80.5920009,13.1399994 80.408,13.26 C80.2239991,13.3800006 80.132,13.5479989 80.132,13.764 C80.132,13.9240008 80.1899994,14.0559995 80.306,14.16 C80.4220006,14.2640005 80.6079987,14.3439997 80.864,14.4 L81.86,14.628 C82.4440029,14.7560006 82.8719986,14.9579986 83.144,15.234 C83.4160014,15.5100014 83.552,15.8719978 83.552,16.32 C83.552,16.8640027 83.3320022,17.2959984 82.892,17.616 C82.4519978,17.9360016 81.8560038,18.096 81.104,18.096 C80.5839974,18.096 80.1060022,18.0320006 79.67,17.904 Z M90.428,9.54 L90.428,18 L88.94,18 L88.94,17.052 C88.7639991,17.3800016 88.5100017,17.6359991 88.178,17.82 C87.8459983,18.0040009 87.4680021,18.096 87.044,18.096 C86.5399975,18.096 86.090002,17.9680013 85.694,17.712 C85.297998,17.4559987 84.9900011,17.0940023 84.77,16.626 C84.5499989,16.1579977 84.44,15.620003 84.44,15.012 C84.44,14.403997 84.5499989,13.8720023 84.77,13.416 C84.9900011,12.9599977 85.295998,12.6080012 85.688,12.36 C86.080002,12.1119988 86.5319974,11.988 87.044,11.988 C87.4680021,11.988 87.8439984,12.0759991 88.172,12.252 C88.5000016,12.4280009 88.7519991,12.6759984 88.928,12.996 L88.928,9.54 L90.428,9.54 Z M88.55,16.44 C88.8100013,16.1119984 88.94,15.644003 88.94,15.036 C88.94,14.427997 88.8100013,13.9620016 88.55,13.638 C88.2899987,13.3139984 87.9240024,13.152 87.452,13.152 C86.9719976,13.152 86.6000013,13.3119984 86.336,13.632 C86.0719987,13.9520016 85.94,14.411997 85.94,15.012 C85.94,15.620003 86.0719987,16.0919983 86.336,16.428 C86.6000013,16.7640017 86.9679976,16.932 87.44,16.932 C87.9200024,16.932 88.2899987,16.7680016 88.55,16.44 Z M97.124,15.336 L93.128,15.336 C93.1760002,15.8800027 93.3399986,16.2839987 93.62,16.548 C93.9000014,16.8120013 94.2999974,16.944 94.82,16.944 C95.4680032,16.944 96.0599973,16.7360021 96.596,16.32 L97.028,17.352 C96.7559986,17.5760011 96.4140021,17.7559993 96.002,17.892 C95.5899979,18.0280007 95.1760021,18.096 94.76,18.096 C93.7999952,18.096 93.0420028,17.8240027 92.486,17.28 C91.9299972,16.7359973 91.652,15.9920047 91.652,15.048 C91.652,14.447997 91.7719988,13.9160023 92.012,13.452 C92.2520012,12.9879977 92.5899978,12.6280013 93.026,12.372 C93.4620022,12.1159987 93.9559972,11.988 94.508,11.988 C95.316004,11.988 95.9539977,12.2479974 96.422,12.768 C96.8900023,13.2880026 97.124,14.0039954 97.124,14.916 L97.124,15.336 Z M93.578,13.428 C93.3339988,13.6840013 93.1840003,14.0519976 93.128,14.532 L95.84,14.532 C95.8239999,14.0439976 95.7040011,13.6740013 95.48,13.422 C95.2559989,13.1699987 94.944002,13.044 94.544,13.044 C94.143998,13.044 93.8220012,13.1719987 93.578,13.428 Z M106.988,12.132 L106.988,18 L105.524,18 L105.524,17.1 C105.339999,17.4200016 105.092002,17.6659991 104.78,17.838 C104.467998,18.0100009 104.116002,18.096 103.724,18.096 C102.283993,18.096 101.564,17.2880081 101.564,15.672 L101.564,12.132 L103.064,12.132 L103.064,15.684 C103.064,16.1000021 103.147999,16.407999 103.316,16.608 C103.484001,16.808001 103.747998,16.908 104.108,16.908 C104.524002,16.908 104.857999,16.7700014 105.11,16.494 C105.362001,16.2179986 105.488,15.8520023 105.488,15.396 L105.488,12.132 L106.988,12.132 Z M113.528,12.588 C113.872002,12.988002 114.044,13.591996 114.044,14.4 L114.044,18 L112.544,18 L112.544,14.484 C112.544,14.0279977 112.458001,13.696001 112.286,13.488 C112.113999,13.279999 111.844002,13.176 111.476,13.176 C111.043998,13.176 110.698001,13.3119986 110.438,13.584 C110.177999,13.8560014 110.048,14.2199977 110.048,14.676 L110.048,18 L108.548,18 L108.548,12.132 L110.012,12.132 L110.012,13.008 C110.212001,12.6799984 110.479998,12.4280009 110.816,12.252 C111.152002,12.0759991 111.531998,11.988 111.956,11.988 C112.660004,11.988 113.183998,12.187998 113.528,12.588 Z M123.968,15.336 L119.972,15.336 C120.02,15.8800027 120.183999,16.2839987 120.464,16.548 C120.744001,16.8120013 121.143997,16.944 121.664,16.944 C122.312003,16.944 122.903997,16.7360021 123.44,16.32 L123.872,17.352 C123.599999,17.5760011 123.258002,17.7559993 122.846,17.892 C122.433998,18.0280007 122.020002,18.096 121.604,18.096 C120.643995,18.096 119.886003,17.8240027 119.33,17.28 C118.773997,16.7359973 118.496,15.9920047 118.496,15.048 C118.496,14.447997 118.615999,13.9160023 118.856,13.452 C119.096001,12.9879977 119.433998,12.6280013 119.87,12.372 C120.306002,12.1159987 120.799997,11.988 121.352,11.988 C122.160004,11.988 122.797998,12.2479974 123.266,12.768 C123.734002,13.2880026 123.968,14.0039954 123.968,14.916 L123.968,15.336 Z M120.422,13.428 C120.177999,13.6840013 120.028,14.0519976 119.972,14.532 L122.684,14.532 C122.668,14.0439976 122.548001,13.6740013 122.324,13.422 C122.099999,13.1699987 121.788002,13.044 121.388,13.044 C120.987998,13.044 120.666001,13.1719987 120.422,13.428 Z M130.172,12.588 C130.516002,12.988002 130.688,13.591996 130.688,14.4 L130.688,18 L129.188,18 L129.188,14.484 C129.188,14.0279977 129.102001,13.696001 128.93,13.488 C128.757999,13.279999 128.488002,13.176 128.12,13.176 C127.687998,13.176 127.342001,13.3119986 127.082,13.584 C126.821999,13.8560014 126.692,14.2199977 126.692,14.676 L126.692,18 L125.192,18 L125.192,12.132 L126.656,12.132 L126.656,13.008 C126.856001,12.6799984 127.123998,12.4280009 127.46,12.252 C127.796002,12.0759991 128.175998,11.988 128.6,11.988 C129.304004,11.988 129.827998,12.187998 130.172,12.588 Z M133.286,17.724 C132.833998,17.4759988 132.488001,17.1240023 132.248,16.668 C132.007999,16.2119977 131.888,15.680003 131.888,15.072 C131.888,14.463997 132.013999,13.9260023 132.266,13.458 C132.518001,12.9899977 132.875998,12.6280013 133.34,12.372 C133.804002,12.1159987 134.339997,11.988 134.948,11.988 C135.364002,11.988 135.769998,12.0539993 136.166,12.186 C136.562002,12.3180007 136.879999,12.4959989 137.12,12.72 L136.688,13.776 C136.439999,13.575999 136.178001,13.4240005 135.902,13.32 C135.625999,13.2159995 135.352001,13.164 135.08,13.164 C134.559997,13.164 134.156001,13.3259984 133.868,13.65 C133.579999,13.9740016 133.436,14.439997 133.436,15.048 C133.436,15.648003 133.579999,16.1099984 133.868,16.434 C134.156001,16.7580016 134.559997,16.92 135.08,16.92 C135.352001,16.92 135.625999,16.8680005 135.902,16.764 C136.178001,16.6599995 136.439999,16.508001 136.688,16.308 L137.12,17.352 C136.863999,17.5840012 136.536002,17.7659993 136.136,17.898 C135.735998,18.0300007 135.320002,18.096 134.888,18.096 C134.271997,18.096 133.738002,17.9720012 133.286,17.724 Z M143.456,12.132 L143.456,18 L141.992,18 L141.992,17.1 C141.807999,17.4200016 141.560002,17.6659991 141.248,17.838 C140.935998,18.0100009 140.584002,18.096 140.192,18.096 C138.751993,18.096 138.032,17.2880081 138.032,15.672 L138.032,12.132 L139.532,12.132 L139.532,15.684 C139.532,16.1000021 139.615999,16.407999 139.784,16.608 C139.952001,16.808001 140.215998,16.908 140.576,16.908 C140.992002,16.908 141.325999,16.7700014 141.578,16.494 C141.830001,16.2179986 141.956,15.8520023 141.956,15.396 L141.956,12.132 L143.456,12.132 Z M150.164,15.336 L146.168,15.336 C146.216,15.8800027 146.379999,16.2839987 146.66,16.548 C146.940001,16.8120013 147.339997,16.944 147.86,16.944 C148.508003,16.944 149.099997,16.7360021 149.636,16.32 L150.068,17.352 C149.795999,17.5760011 149.454002,17.7559993 149.042,17.892 C148.629998,18.0280007 148.216002,18.096 147.8,18.096 C146.839995,18.096 146.082003,17.8240027 145.526,17.28 C144.969997,16.7359973 144.692,15.9920047 144.692,15.048 C144.692,14.447997 144.811999,13.9160023 145.052,13.452 C145.292001,12.9879977 145.629998,12.6280013 146.066,12.372 C146.502002,12.1159987 146.995997,11.988 147.548,11.988 C148.356004,11.988 148.993998,12.2479974 149.462,12.768 C149.930002,13.2880026 150.164,14.0039954 150.164,14.916 L150.164,15.336 Z M146.618,13.428 C146.373999,13.6840013 146.224,14.0519976 146.168,14.532 L148.88,14.532 C148.864,14.0439976 148.744001,13.6740013 148.52,13.422 C148.295999,13.1699987 147.984002,13.044 147.584,13.044 C147.183998,13.044 146.862001,13.1719987 146.618,13.428 Z M156.368,12.588 C156.712002,12.988002 156.884,13.591996 156.884,14.4 L156.884,18 L155.384,18 L155.384,14.484 C155.384,14.0279977 155.298001,13.696001 155.126,13.488 C154.953999,13.279999 154.684002,13.176 154.316,13.176 C153.883998,13.176 153.538001,13.3119986 153.278,13.584 C153.017999,13.8560014 152.888,14.2199977 152.888,14.676 L152.888,18 L151.388,18 L151.388,12.132 L152.852,12.132 L152.852,13.008 C153.052001,12.6799984 153.319998,12.4280009 153.656,12.252 C153.992002,12.0759991 154.371998,11.988 154.796,11.988 C155.500004,11.988 156.023998,12.187998 156.368,12.588 Z M161.96,16.932 L161.888,18.048 C161.647999,18.0720001 161.428001,18.084 161.228,18.084 C160.403996,18.084 159.796002,17.8940019 159.404,17.514 C159.011998,17.1339981 158.816,16.5680038 158.816,15.816 L158.816,13.26 L157.688,13.26 L157.688,12.132 L158.816,12.132 L158.816,10.38 L160.316,10.38 L160.316,12.132 L161.864,12.132 L161.864,13.26 L160.316,13.26 L160.316,15.792 C160.316,16.5760039 160.679996,16.968 161.408,16.968 C161.584001,16.968 161.767999,16.9560001 161.96,16.932 Z M166.7,13.236 L165.824,13.32 C164.831995,13.4240005 164.336,13.9279955 164.336,14.832 L164.336,18 L162.836,18 L162.836,12.132 L164.264,12.132 L164.264,13.164 C164.568002,12.4599965 165.195995,12.0760003 166.148,12.012 L166.604,11.976 L166.7,13.236 Z M168.53,17.724 C168.077998,17.4759988 167.728001,17.1200023 167.48,16.656 C167.231999,16.1919977 167.108,15.6520031 167.108,15.036 C167.108,14.4199969 167.231999,13.8820023 167.48,13.422 C167.728001,12.9619977 168.077998,12.6080012 168.53,12.36 C168.982002,12.1119988 169.507997,11.988 170.108,11.988 C170.708003,11.988 171.233998,12.1119988 171.686,12.36 C172.138002,12.6080012 172.485999,12.9619977 172.73,13.422 C172.974001,13.8820023 173.096,14.4199969 173.096,15.036 C173.096,15.6520031 172.974001,16.1919977 172.73,16.656 C172.485999,17.1200023 172.138002,17.4759988 171.686,17.724 C171.233998,17.9720012 170.708003,18.096 170.108,18.096 C169.507997,18.096 168.982002,17.9720012 168.53,17.724 Z M171.212,16.452 C171.468001,16.1319984 171.596,15.6600031 171.596,15.036 C171.596,14.4199969 171.468001,13.9500016 171.212,13.626 C170.955999,13.3019984 170.588002,13.14 170.108,13.14 C169.627998,13.14 169.258001,13.3019984 168.998,13.626 C168.737999,13.9500016 168.608,14.4199969 168.608,15.036 C168.608,15.6600031 168.735999,16.1319984 168.992,16.452 C169.248001,16.7720016 169.615998,16.932 170.096,16.932 C170.584002,16.932 170.955999,16.7720016 171.212,16.452 Z M178.658,17.724 C178.205998,17.4759988 177.860001,17.1240023 177.62,16.668 C177.379999,16.2119977 177.26,15.680003 177.26,15.072 C177.26,14.463997 177.385999,13.9260023 177.638,13.458 C177.890001,12.9899977 178.247998,12.6280013 178.712,12.372 C179.176002,12.1159987 179.711997,11.988 180.32,11.988 C180.736002,11.988 181.141998,12.0539993 181.538,12.186 C181.934002,12.3180007 182.251999,12.4959989 182.492,12.72 L182.06,13.776 C181.811999,13.575999 181.550001,13.4240005 181.274,13.32 C180.997999,13.2159995 180.724001,13.164 180.452,13.164 C179.931997,13.164 179.528001,13.3259984 179.24,13.65 C178.951999,13.9740016 178.808,14.439997 178.808,15.048 C178.808,15.648003 178.951999,16.1099984 179.24,16.434 C179.528001,16.7580016 179.931997,16.92 180.452,16.92 C180.724001,16.92 180.997999,16.8680005 181.274,16.764 C181.550001,16.6599995 181.811999,16.508001 182.06,16.308 L182.492,17.352 C182.235999,17.5840012 181.908002,17.7659993 181.508,17.898 C181.107998,18.0300007 180.692002,18.096 180.26,18.096 C179.643997,18.096 179.110002,17.9720012 178.658,17.724 Z M183.44,18 L183.44,12.132 L184.94,12.132 L184.94,18 L183.44,18 Z M183.356,9.408 L185.012,9.408 L185.012,10.884 L183.356,10.884 L183.356,9.408 Z M191.876,12.132 L191.876,18 L190.412,18 L190.412,17.1 C190.227999,17.4200016 189.980002,17.6659991 189.668,17.838 C189.355998,18.0100009 189.004002,18.096 188.612,18.096 C187.171993,18.096 186.452,17.2880081 186.452,15.672 L186.452,12.132 L187.952,12.132 L187.952,15.684 C187.952,16.1000021 188.035999,16.407999 188.204,16.608 C188.372001,16.808001 188.635998,16.908 188.996,16.908 C189.412002,16.908 189.745999,16.7700014 189.998,16.494 C190.250001,16.2179986 190.376,15.8520023 190.376,15.396 L190.376,12.132 L191.876,12.132 Z M199.1,9.54 L199.1,18 L197.612,18 L197.612,17.052 C197.435999,17.3800016 197.182002,17.6359991 196.85,17.82 C196.517998,18.0040009 196.140002,18.096 195.716,18.096 C195.211997,18.096 194.762002,17.9680013 194.366,17.712 C193.969998,17.4559987 193.662001,17.0940023 193.442,16.626 C193.221999,16.1579977 193.112,15.620003 193.112,15.012 C193.112,14.403997 193.221999,13.8720023 193.442,13.416 C193.662001,12.9599977 193.967998,12.6080012 194.36,12.36 C194.752002,12.1119988 195.203997,11.988 195.716,11.988 C196.140002,11.988 196.515998,12.0759991 196.844,12.252 C197.172002,12.4280009 197.423999,12.6759984 197.6,12.996 L197.6,9.54 L199.1,9.54 Z M197.222,16.44 C197.482001,16.1119984 197.612,15.644003 197.612,15.036 C197.612,14.427997 197.482001,13.9620016 197.222,13.638 C196.961999,13.3139984 196.596002,13.152 196.124,13.152 C195.643998,13.152 195.272001,13.3119984 195.008,13.632 C194.743999,13.9520016 194.612,14.411997 194.612,15.012 C194.612,15.620003 194.743999,16.0919983 195.008,16.428 C195.272001,16.7640017 195.639998,16.932 196.112,16.932 C196.592002,16.932 196.961999,16.7680016 197.222,16.44 Z M205.004,12.588 C205.404002,12.988002 205.604,13.6039958 205.604,14.436 L205.604,18 L204.176,18 L204.176,17.1 C204.039999,17.4120016 203.826001,17.6559991 203.534,17.832 C203.241999,18.0080009 202.904002,18.096 202.52,18.096 C202.127998,18.096 201.772002,18.0160008 201.452,17.856 C201.131998,17.6959992 200.880001,17.4760014 200.696,17.196 C200.511999,16.9159986 200.42,16.6040017 200.42,16.26 C200.42,15.8279978 200.529999,15.4880012 200.75,15.24 C200.970001,14.9919988 201.327998,14.8120006 201.824,14.7 C202.320002,14.5879994 203.003996,14.532 203.876,14.532 L204.176,14.532 L204.176,14.256 C204.176,13.855998 204.090001,13.5680009 203.918,13.392 C203.745999,13.2159991 203.460002,13.128 203.06,13.128 C202.747998,13.128 202.422002,13.1819995 202.082,13.29 C201.741998,13.3980005 201.408002,13.547999 201.08,13.74 L200.66,12.708 C200.988002,12.499999 201.383998,12.3280007 201.848,12.192 C202.312002,12.0559993 202.751998,11.988 203.168,11.988 C203.992004,11.988 204.603998,12.187998 205.004,12.588 Z M203.798,16.614 C204.050001,16.3459987 204.176,16.0000021 204.176,15.576 L204.176,15.324 L203.96,15.324 C203.423997,15.324 203.008001,15.3479998 202.712,15.396 C202.415999,15.4440002 202.204001,15.5279994 202.076,15.648 C201.947999,15.7680006 201.884,15.931999 201.884,16.14 C201.884,16.3960013 201.971999,16.6059992 202.148,16.77 C202.324001,16.9340008 202.547999,17.016 202.82,17.016 C203.220002,17.016 203.545999,16.8820013 203.798,16.614 Z M212.792,9.54 L212.792,18 L211.304,18 L211.304,17.052 C211.127999,17.3800016 210.874002,17.6359991 210.542,17.82 C210.209998,18.0040009 209.832002,18.096 209.408,18.096 C208.903997,18.096 208.454002,17.9680013 208.058,17.712 C207.661998,17.4559987 207.354001,17.0940023 207.134,16.626 C206.913999,16.1579977 206.804,15.620003 206.804,15.012 C206.804,14.403997 206.913999,13.8720023 207.134,13.416 C207.354001,12.9599977 207.659998,12.6080012 208.052,12.36 C208.444002,12.1119988 208.895997,11.988 209.408,11.988 C209.832002,11.988 210.207998,12.0759991 210.536,12.252 C210.864002,12.4280009 211.115999,12.6759984 211.292,12.996 L211.292,9.54 L212.792,9.54 Z M210.914,16.44 C211.174001,16.1119984 211.304,15.644003 211.304,15.036 C211.304,14.427997 211.174001,13.9620016 210.914,13.638 C210.653999,13.3139984 210.288002,13.152 209.816,13.152 C209.335998,13.152 208.964001,13.3119984 208.7,13.632 C208.435999,13.9520016 208.304,14.411997 208.304,15.012 C208.304,15.620003 208.435999,16.0919983 208.7,16.428 C208.964001,16.7640017 209.331998,16.932 209.804,16.932 C210.284002,16.932 210.653999,16.7680016 210.914,16.44 Z M218.696,12.588 C219.096002,12.988002 219.296,13.6039958 219.296,14.436 L219.296,18 L217.868,18 L217.868,17.1 C217.731999,17.4120016 217.518001,17.6559991 217.226,17.832 C216.933999,18.0080009 216.596002,18.096 216.212,18.096 C215.819998,18.096 215.464002,18.0160008 215.144,17.856 C214.823998,17.6959992 214.572001,17.4760014 214.388,17.196 C214.203999,16.9159986 214.112,16.6040017 214.112,16.26 C214.112,15.8279978 214.221999,15.4880012 214.442,15.24 C214.662001,14.9919988 215.019998,14.8120006 215.516,14.7 C216.012002,14.5879994 216.695996,14.532 217.568,14.532 L217.868,14.532 L217.868,14.256 C217.868,13.855998 217.782001,13.5680009 217.61,13.392 C217.437999,13.2159991 217.152002,13.128 216.752,13.128 C216.439998,13.128 216.114002,13.1819995 215.774,13.29 C215.433998,13.3980005 215.100002,13.547999 214.772,13.74 L214.352,12.708 C214.680002,12.499999 215.075998,12.3280007 215.54,12.192 C216.004002,12.0559993 216.443998,11.988 216.86,11.988 C217.684004,11.988 218.295998,12.187998 218.696,12.588 Z M217.49,16.614 C217.742001,16.3459987 217.868,16.0000021 217.868,15.576 L217.868,15.324 L217.652,15.324 C217.115997,15.324 216.700001,15.3479998 216.404,15.396 C216.107999,15.4440002 215.896001,15.5279994 215.768,15.648 C215.639999,15.7680006 215.576,15.931999 215.576,16.14 C215.576,16.3960013 215.663999,16.6059992 215.84,16.77 C216.016001,16.9340008 216.239999,17.016 216.512,17.016 C216.912002,17.016 217.237999,16.8820013 217.49,16.614 Z M225.8,12.588 C226.144002,12.988002 226.316,13.591996 226.316,14.4 L226.316,18 L224.816,18 L224.816,14.484 C224.816,14.0279977 224.730001,13.696001 224.558,13.488 C224.385999,13.279999 224.116002,13.176 223.748,13.176 C223.315998,13.176 222.970001,13.3119986 222.71,13.584 C222.449999,13.8560014 222.32,14.2199977 222.32,14.676 L222.32,18 L220.82,18 L220.82,12.132 L222.284,12.132 L222.284,13.008 C222.484001,12.6799984 222.751998,12.4280009 223.088,12.252 C223.424002,12.0759991 223.803998,11.988 224.228,11.988 C224.932004,11.988 225.455998,12.187998 225.8,12.588 Z M228.938,17.724 C228.485998,17.4759988 228.136001,17.1200023 227.888,16.656 C227.639999,16.1919977 227.516,15.6520031 227.516,15.036 C227.516,14.4199969 227.639999,13.8820023 227.888,13.422 C228.136001,12.9619977 228.485998,12.6080012 228.938,12.36 C229.390002,12.1119988 229.915997,11.988 230.516,11.988 C231.116003,11.988 231.641998,12.1119988 232.094,12.36 C232.546002,12.6080012 232.893999,12.9619977 233.138,13.422 C233.382001,13.8820023 233.504,14.4199969 233.504,15.036 C233.504,15.6520031 233.382001,16.1919977 233.138,16.656 C232.893999,17.1200023 232.546002,17.4759988 232.094,17.724 C231.641998,17.9720012 231.116003,18.096 230.516,18.096 C229.915997,18.096 229.390002,17.9720012 228.938,17.724 Z M231.62,16.452 C231.876001,16.1319984 232.004,15.6600031 232.004,15.036 C232.004,14.4199969 231.876001,13.9500016 231.62,13.626 C231.363999,13.3019984 230.996002,13.14 230.516,13.14 C230.035998,13.14 229.666001,13.3019984 229.406,13.626 C229.145999,13.9500016 229.016,14.4199969 229.016,15.036 C229.016,15.6600031 229.143999,16.1319984 229.4,16.452 C229.656001,16.7720016 230.023998,16.932 230.504,16.932 C230.992002,16.932 231.363999,16.7720016 231.62,16.452 Z" id="Generada-desde-un-en" fill="#FFFFFF"></path>
            </g>
        </g>
    </g>
</svg>