<?xml version="1.0" encoding="UTF-8" standalone="no"?>
<!-- Generator: Adobe Illustrator 18.0.0, SVG Export Plug-In . SVG Version: 6.00 Build 0)  -->

<svg
   xmlns:dc="http://purl.org/dc/elements/1.1/"
   xmlns:cc="http://creativecommons.org/ns#"
   xmlns:rdf="http://www.w3.org/1999/02/22-rdf-syntax-ns#"
   xmlns:svg="http://www.w3.org/2000/svg"
   xmlns="http://www.w3.org/2000/svg"
   xmlns:sodipodi="http://sodipodi.sourceforge.net/DTD/sodipodi-0.dtd"
   xmlns:inkscape="http://www.inkscape.org/namespaces/inkscape"
   version="1.1"
   id="Camada_1"
   x="0px"
   y="0px"
   viewBox="0 0 268.60687 251.19695"
   enable-background="new 0 0 792 612"
   xml:space="preserve"
   sodipodi:docname="logotipo_rioxinteiro.svg"
   width="268.60687"
   height="251.19695"
   inkscape:version="0.92.3 (2405546, 2018-03-11)"><metadata
   id="metadata155"><rdf:RDF><cc:Work
       rdf:about=""><dc:format>image/svg+xml</dc:format><dc:type
         rdf:resource="http://purl.org/dc/dcmitype/StillImage" /></cc:Work></rdf:RDF></metadata><defs
   id="defs153" /><sodipodi:namedview
   pagecolor="#ffffff"
   bordercolor="#666666"
   borderopacity="1"
   objecttolerance="10"
   gridtolerance="10"
   guidetolerance="10"
   inkscape:pageopacity="0"
   inkscape:pageshadow="2"
   inkscape:window-width="846"
   inkscape:window-height="480"
   id="namedview151"
   showgrid="false"
   inkscape:zoom="0.38562092"
   inkscape:cx="122.00687"
   inkscape:cy="115.48805"
   inkscape:window-x="444"
   inkscape:window-y="154"
   inkscape:window-maximized="0"
   inkscape:current-layer="Camada_1" />
<path
   d="m 167.50687,62.208896 c 3.2,0.8 6.3,0.7 9.3,-0.9 0.6,-0.4 1.1,-0.9 1.7,-1.3 2.3,-2.2 3.9,-4.9 4.8,-7.9 0.1,-4.1 0.4,-8.1 -2.5,-11.7 -2.7,-3.3 -9.6,-7 -14.7,-5.1 -3.1,0.8 -5.9,2.3 -6.9,5.6 -1.2,3.6 -1,7.5 -0.4,11.3 1,5 4.4,8 8.7,10 z"
   id="path2"
   inkscape:connector-curvature="0"
   style="fill:none" />
<path
   d="m 201.10687,153.1089 c -0.1,-0.1 -0.2,-0.2 -0.4,-0.2 -0.2,0 -0.3,0.1 -0.4,0.2 -0.1,0.1 -0.2,0.2 -0.2,0.4 0,0.6 -0.2,1.3 -0.2,1.9 0,0 0,0 0,0.1 0,0.1 0,0.3 0,0.4 0,0.1 0,0.2 0.1,0.3 0.1,0.1 0.1,0.1 0.2,0.2 0.1,0.1 0.2,0.1 0.3,0.1 0.1,0 0.1,0 0.2,0 0.1,0 0.1,0 0.2,-0.1 0.1,0 0.1,-0.1 0.1,-0.2 0,0 0,-0.1 0.1,-0.1 0,0 0,0 0,-0.1 0,0 0,0 0,0.1 0,0 0,0 0,0 0.4,-0.7 0.1,-1.5 0.3,-2.3 0,-0.2 0,-0.4 -0.1,-0.5 0,0 0,-0.1 -0.1,-0.1 0,0 0,0.1 0,0.1 0,-0.1 0,-0.1 -0.1,-0.2 z"
   id="path4"
   inkscape:connector-curvature="0"
   style="fill:none" />
<path
   d="m 41.606866,211.4089 c 3.9,0.1 7.8,0.8 11.7,1.2 5.5,0.6 11,1.4 16.5,1.7 5.6,0.3 11.1,1.7 16.8,0.7 2.5,-0.5 5.1,-0.2 7.6,-0.4 6.400004,-0.5 12.800004,-0.5 19.300004,-1 7.4,-0.5 14.7,-0.9 22.1,-1.3 5.1,-0.3 10.2,-0.5 15.3,-0.9 5.5,-0.4 10.9,-1.1 16.4,-0.7 6.9,0.5 13.8,-0.1 20.7,0.5 6.5,0.5 13.1,0 19.6,0.4 3.6,0.2 7.2,0.3 10.8,0.4 2.6,0.1 4.8,-0.4 6.9,-2.2 2,-1.7 4.2,-3.1 6.2,-4.8 2.2,-1.7 2.3,-4.5 3,-6.9 0.3,-1.2 0.4,-2.5 1.1,-3.5 0.2,-0.2 0.4,-0.3 0.6,-0.4 0.1,-0.6 0.1,-1.3 0,-2 -0.2,-1.8 0,-3.8 -2,-4.9 -3.5,-2.7 -5.2,-7.1 -8.4,-10.1 -1.7,-1.6 -3.8,-1 -5.8,-1.4 -1.9,-0.5 -3.8,-0.4 -5.7,-0.4 -2.9,-0.1 -5.8,0.2 -8.6,-0.2 -5.8,-0.8 -11.7,-1.2 -17.5,-1 -7.1,0.3 -14.2,-0.5 -21.3,0.1 -6,0.5 -12.1,-0.2 -17.9,0.8 -5.7,1.1 -11.2,0.6 -16.8,0.7 -1.1,0.1 -2.2,0.1 -3,0.5 -1.7,0.8 -3.5,0.8 -5.2,0.6 -3.7,-0.5 -7.4,0.2 -11,0.4 -5.9,0.4 -11.7,1.9 -17.600004,1.3 -0.7,-0.1 -1.4,-0.1 -2,0.1 -4.5,2 -9.3,0.7 -13.9,1 -3.9,0.3 -8.1,0.3 -12.3,-0.7 -2.9,-0.7 -6.2,-0.9 -9.4,-0.4 -2.2,0.4 -4.4,-0.3 -6.6,-0.4 -2.7,-0.1 -5.3,-1.1 -8.1,-1.2 -2.9,-0.1 -4.7,-1.7 -6.2,-4.2 -1,-1.7 -1.4,-3.6 -2.3,-5.4 -2.1,-4 -3.2,-8.4 -4.7,-12.7 -0.1,-0.7 -0.4,-1.3 -1,-1.6 -0.8,-0.1 -1.5,-0.5 -2.3,-0.4 -4.8,0.4 -9.6,0.8 -14.3,1.2 -2.3,0.1 -4.5000001,0.9 -6.8000001,0.8 -3.3,-0.1 -5.40000002,1.9 -5.40000002,5.1 0,9.2 0.1,18.3 -0.1,27.6 -0.1,2.5 0.9,4.2 2.50000002,6.1 1.8,2.1 3.5,4.2 5.2,6.5 2,2.7 3.9000001,5.6 6.6000001,7.8 1.3,1.1 2.7,1.9 4.4,1.7 2.4,-0.2 4.7,-0.1 7.1,-0.1 1.3,0 2.5,0.2 3.5,1.1 0.1,0.2 0.3,0.4 0.5,0.5 1.2,0.1 2.4,0.5 3.6,0.6 0.2,-0.2 0.4,-0.3 0.6,-0.4 2.6,-0.8 5.1,0.2 7.6,0.2 z m 176.000004,-15.1 c -0.7,-0.3 -1.3,-0.8 -1.8,-1.3 -2.2,-2 -2.6,-5 -1.1,-6.4 1.8,-1.7 6.4,-1.1 7.9,1 0.5,0.7 0.7,1.3 -0.2,1.9 -0.7,0.5 -1.1,1.7 -2.3,0.8 -0.6,-0.4 -1.3,-1.1 -2.3,-0.5 0.5,1 1.2,1.4 2.2,1.9 2,0.9 3.6,2.4 3.3,4.7 -0.2,2 -1.5,3.8 -3.8,4.1 -2.1,0.3 -4,-0.5 -5.7,-1.7 -0.8,-0.6 -0.8,-1.4 -0.1,-2.1 0.6,-0.6 1.1,-1.4 2.1,-0.5 1,0.8 2.2,1 3.5,0.5 -0.1,-1.2 -0.7,-1.9 -1.7,-2.4 z m -21.3,-2.5 c 1.1,-5.6 7.2,-8.1 12,-4.1 1.5,1.3 2.3,3.2 2.1,5.3 -0.1,1.2 -0.9,1.4 -1.9,1.3 -2.9,0.1 -5.7,0.1 -8.6,0.1 0.8,2.6 3.5,3.4 6,1.9 0.9,-0.5 1.7,-1.2 2.7,-0.1 0.8,0.8 0.8,1.3 0.1,2.3 -2.1,2.7 -6.6,2.4 -8.8,1.1 -2.8,-1.4 -4.1,-4.7 -3.6,-7.8 z m -17.4,-2 c 1.1,-3.6 3.9,-5.1 7.5,-3.8 2.4,0.8 2.3,0.8 2.4,-1.8 0,-1 -0.4,-2.2 1.4,-2.2 1.6,0 2.2,0.4 2.1,2.1 -0.1,2.3 0,4.7 0,7 0,2.2 -0.1,4.4 0.1,6.6 0.1,1.9 -0.4,3.1 -2.5,2.5 -2.1,-0.6 -4,0.2 -6,0.1 -3.1,-0.1 -5.2,-2.1 -5.2,-5.2 0,-1.8 -0.3,-3.6 0.2,-5.3 z m -18.2,1.6 c 1,-4.4 5,-6.9 9.1,-4.7 0.8,0.4 0.7,-0.1 1,-0.4 0.9,-0.8 2.1,-0.5 3.1,-0.2 0.9,0.2 0.7,1.2 0.7,1.9 0,1.7 0,3.5 0,5.3 0,1.5 0,2.9 0,4.4 0,2.4 -1.4,3.4 -3.5,2.3 -1,-0.5 -1.4,-0.3 -2.3,-0.1 -2.5,0.8 -4.9,0 -6.8,-1.6 -2,-1.8 -1.9,-4.4 -1.3,-6.9 z m -17.5,-0.6 c 0.4,-4.2 4.2,-6.4 8.2,-4.7 1.9,0.8 2,0.3 2,-1.4 0,-1 -1.1,-2.7 1.2,-2.8 1.6,-0.1 2.5,0.1 2.3,2.1 -0.2,2.3 -0.1,4.7 -0.1,7.1 0,2.3 -0.1,4.5 0.1,6.8 0.1,1.8 -0.5,2.8 -2.3,2.3 -2.2,-0.7 -4.2,0.2 -6.3,0.1 -3,-0.1 -5.1,-2 -5.2,-5 0.1,-1.6 0,-3 0.1,-4.5 z m -6.9,-9.3 c 2,0.1 2.9,0.8 2.9,2.5 -0.1,1.3 -1,1.8 -2.3,1.8 -1.4,-0.1 -2.2,-0.7 -2.1,-2.2 0,-1.3 0.4,-2.3 1.5,-2.1 z m -1.5,7.2 c 0.1,-1 0.1,-2 1.5,-1.9 1.2,0 2.6,-0.4 2.8,1.5 0.1,1.4 0.1,2.9 0.2,4.3 0.1,1.7 -0.2,3.3 0.3,5 0.4,1.2 0.4,2.6 -1.7,2.6 -1.4,-0.1 -2.9,0.4 -2.7,-2.1 0.2,-3.1 -0.6,-6.2 -0.4,-9.4 z m -15.4,4.6 c 0,-1.7 0.1,-3.4 0,-5.1 -0.1,-1.4 0.3,-2.2 1.8,-1.9 1.9,0.4 3.7,-0.1 5.6,0 2.6,0 4.4,1.4 4.5,4.1 0.2,2.9 0,5.7 0.1,8.6 0,1.7 -1.2,1.1 -2,1.2 -0.8,0 -2,0.4 -2,-1.3 0.1,-2 0.1,-4 -0.1,-5.9 -0.1,-1.2 0.1,-2.8 -1.9,-2.9 -2,-0.1 -2.2,1.5 -2.5,2.7 -0.4,1.9 -0.4,3.9 -0.5,5.9 0,1.1 -0.4,1.6 -1.5,1.6 -1.3,0 -1.7,-0.4 -1.6,-1.6 0.1,-1.9 0.1,-3.6 0.1,-5.4 z m -16.8,-2.8 c 0,-0.9 0,-1.4 0,-1.9 0,-2.7 0.7,-3.2 3.3,-2.2 1,0.4 0.7,1 0.7,1.6 0.1,2 -0.1,4.1 0.5,6.1 0.3,1.1 0.7,2.2 2.2,2 1.4,-0.1 1.9,-1 1.8,-2.3 0,-2.2 0,-4.2 0,-6.4 0,-2.6 2,-1.3 3,-1.5 1.2,-0.2 1.6,0.4 1.5,1.7 -0.2,3 -0.1,6 -1,8.8 -1,3 -2.5,3.8 -6,3.7 -2.5,-0.1 -4.3,-1.7 -5.1,-4.2 -0.8,-1.9 -1,-3.8 -0.9,-5.4 z m -10.400004,-4 c 1.1,-0.4 1.3,-0.9 0.9,-1.9 -0.3,-0.7 -0.5,-1.6 0.3,-2.2 0.9,-0.7 2,-0.7 3,-0.4 1,0.4 0.4,1.4 0.5,2.2 0.1,1 -0.3,2.2 1.5,2.3 1.1,0 0.4,1.3 0.6,1.9 -0.1,0.9 0.4,2 -1.1,2.2 -0.8,0.1 -0.6,0.9 -0.6,1.4 -0.1,1.9 -0.1,3.8 0,5.7 0.1,1.5 0.1,2.6 -2,2.6 -2.4,0 -1.9,-1.4 -2,-2.7 -0.1,-1.7 0.3,-3.5 -0.3,-5.3 -0.3,-0.8 0,-1.7 -1.4,-2 -1,-0.2 -0.6,-3.3 0.6,-3.8 z m -11.9,0.1 c 1,0.5 1.7,0.4 2.6,0 1,-0.4 2,-0.4 3,0 1.1,0.4 2.5,0.7 2.1,2 -0.4,1.3 -1.6,2.3 -3.2,2.2 -2.6,-0.3 -3.7,0.5 -3.8,3.2 -0.1,1.3 -0.1,2.6 0.3,3.9 0.2,0.9 0.7,2.3 -1.3,2.3 -1.3,-0.1 -3,0.5 -2.6,-1.9 0.1,-0.8 0,-1.7 0,-3 0.4,-1.9 -0.5,-4.1 -0.4,-6.4 0.1,-2.4 1.3,-3.4 3.3,-2.3 z m -12.8,-0.6 c 4.1,-0.1 5.9,2.2 5.9,7.3 0,5.1 -1.7,6.9 -6.2,6.9 -4.6,0 -7.5,-2.9 -7.5,-7.5 0,-4.4 2.7,-6.8 7.8,-6.7 z m -25.5,1.1 c 0.2,-2.2 2,-1.3 2.9,-1.1 1,0.3 1.8,0.2 2.7,0 6.2,-1.1 9.1,2.9 7.8,9.1 -0.9,4.5 -3.9,6 -8.4,4.7 -0.4,0 -0.8,-0.1 -1.6,-0.2 0,1.2 -0.1,2.2 0,3.2 0.2,2 -0.8,2.3 -2.5,2.3 -1.1,-0.1 -1.6,-0.4 -1.5,-1.6 0.2,-5.5 0,-11 0.6,-16.4 z m -21.6,-11.9 c 0,3.1 -0.2,3.2 -3.3,3.3 -0.3,0 -0.6,0 -0.9,0 -3.9,-0.1 -3.2,0.5 -3.3,-3.2 -0.1,-2.7 -0.2,-3 -3.3000001,-2.9 -2.3,0.1 -2.5,-1.1 -2.5,-2.9 -0.1,-1.9 0,-3.4 2.5,-3.5 4.1000001,-0.2 4.2000001,-0.3 4.1000001,-4.2 0,-3.1 2,-2.2 3.6,-2.3 3.5,0 3.5,0 3.6,3.5 0,3.1 0,3 3.2,3.1 1,0 2.5,-0.6 2.8,0.5 0.5,1.7 0.4,3.6 0,5.4 -0.1,0.4 -0.8,0.4 -1.2,0.4 -0.8,0 -1.6,0 -2.5,0 -2.7,-0.1 -2.7,0 -2.8,2.8 z m 10.9,25 c -4.4,0 -7.4,-2.9 -7.4,-7.4 0,-4.5 2.6,-6.9 7.6,-6.9 4.2,0 6,2.3 6,7.5 0.1,5 -1.6,6.8 -6.2,6.8 z"
   id="path6"
   inkscape:connector-curvature="0"
   style="fill:#6b78af" />
<path
   d="m 98.606866,237.5089 c 0.4,0 0.8,0 1.3,0.1 -0.4,-0.1 -0.8,-0.1 -1.3,-0.1 z"
   id="path8"
   inkscape:connector-curvature="0"
   style="fill:#ef982e" />
<path
   d="m 266.80687,201.7089 c -3.1,-2.9 -7.1,-4.7 -10,-7.8 -0.7,-0.6 -1.4,-1.1 -2.3,-1.1 -2.8,0 -5.6,-0.2 -8.4,0.2 -2.2,0.1 -4.2,1.1 -6.5,0.9 -1.1,0.1 -2.3,-0.2 -3.3,0.3 0,0.2 -0.1,0.4 -0.1,0.6 -2.7,10.5 -1.7,8.2 -9.5,14.5 -2.5,2 -5.1,3 -8.3,2.9 -8.9,-0.2 -17.8,-0.4 -26.7,-0.6 -6.1,-0.2 -12.2,-0.2 -18.3,-0.3 -2.9,-0.1 -5.7,-0.6 -8.6,-0.5 -6.9,0.2 -13.8,0.8 -20.7,1.2 -5.7,0.3 -11.3,0.7 -17,1 -6.6,0.4 -13.2,0.8 -19.8,1.2 -5.8,0.4 -11.600004,0.5 -17.400004,1.1 -11.5,1.1 -22.9,-1.2 -34.3,-2 -7,-0.5 -13.9,-1.5 -20.9,-1.8 -0.4,0.1 -0.8,0.1 -1.3,0 -1.3,1.1 -2.2,2.6 -3.4,4 -1.4,2.2 -3,4.2 -3.6,6.8 -0.4,2.9 0.5,5.6 0.9,8.4 0.4,0.7 0.1,1.5 0.2,2.3 0.1,1.1 0.4,2.2 0.5,3.2 0.2,1.7 1.3,3.2 2.8,4 4.2,2.1 8.4,4.5 12.6,6.7 2.5,1.3 5.1,1 7.7,0.1 1.6,-0.1 3.2,0 4.8,-0.2 2.9,-0.4 5.9,0.6 8.7,-0.8 4.9,-0.2 9.8,-0.1 14.7,-0.1 2,0.4 4,-0.5 5.9,0.2 3.4,1.2 6.9,1.8 10.5,1.6 1,-0.1 2,-0.3 3,0.2 0.7,0.5 1.500004,0.4 2.200004,0.6 2.7,0.9 5.4,1 8.2,0.9 3.1,0.8 6.3,1 9.5,0.9 1.6,0.1 3,-0.4 4.4,-0.8 3.5,0.1 6.8,-0.5 10.2,-1 1,0.1 2,0.1 3,-0.2 1.4,-0.4 2.9,-0.5 4.4,-0.8 2.4,-1.1 4.9,-0.6 7.4,-0.6 1.4,0.3 2.6,-0.8 4,-0.7 1.3,-0.3 2.5,-0.1 3.8,-0.2 1.1,0 2.3,0 3.5,0 1.6,0.2 3.2,-0.6 4.5,-0.1 2.3,1 4.7,1 7.1,0.8 2.7,0.8 5.5,1.3 8.3,1.7 1.9,0.1 3.7,-0.1 5.5,0.1 0.1,0.1 0.1,0.1 0.2,0.2 1.6,0.7 3.4,0.8 5.1,1.3 0.8,0.2 1.6,0.5 2.5,0.4 1.9,0.4 3.8,-0.8 5.6,0.2 2,0.8 4,0.8 6,-0.1 0.5,-0.2 1,-0.4 1.5,-0.4 3.5,0.4 6.7,-1.1 10.1,-1.4 0.2,-0.2 0.5,-0.4 1,-0.4 4.5,0.2 8.8,-0.9 13.1,-1.8 2.1,-0.9 4.3,-0.8 6.5,-0.7 1.8,-0.2 3.4,-1.1 5.2,-1.3 1.1,-0.2 2.1,-1 2.5,-2.2 0.4,-0.7 1.1,-1.3 1.3,-2 1.3,-3.5 3.8,-6.3 5.4,-9.5 0.5,-1 1.3,-1.9 2.3,-2.3 3.2,-1.1 6.4,-2.6 9.8,-3 2.9,-0.4 3.9,-1.3 4.2,-4.3 0.8,-1.4 0.4,-3 0.8,-4.4 0.1,-1.7 0.1,-3.5 0.1,-5.3 1,-2.2 0.5,-4.5 0.7,-6.8 0,-1.2 -0.7,-2 -1.8,-3 z m -215.700004,35.7 c -2.1,-0.7 -4,0.2 -6,0.1 -3,-0.2 -5.1,-2 -5.2,-5 -0.1,-1.4 -0.1,-2.8 0,-4.2 0.3,-4.2 4.1,-6.6 8,-4.9 2.2,1 2.3,0.2 2.2,-1.6 -0.1,-1.2 -0.7,-2.7 1.7,-2.6 1.4,0.1 1.9,0.5 1.9,1.9 -0.2,2.4 -0.1,4.8 -0.1,7.2 0,2.2 -0.1,4.4 0.1,6.6 0.1,2.2 -0.7,3.2 -2.6,2.5 z m 17.6,-5.7 c -1,0.1 -2,0.1 -3,0.1 -1,0 -2.1,-0.1 -3.1,0 -0.6,0.1 -1.7,-0.5 -1.8,0.5 -0.1,0.8 0.6,1.9 1.6,1.9 1.5,0.1 3,0.6 4.4,-0.5 1.1,-0.9 2,-0.8 3,0.4 1.1,1.3 -0.2,1.7 -0.8,2.3 -1.9,2 -5.4,2.3 -8.3,0.8 -2.7,-1.4 -4.2,-4.6 -3.6,-7.6 1.1,-6.1 7.5,-8.4 12.1,-4.3 1.1,1 1.7,2.4 1.9,3.8 0.3,2.2 -0.1,2.6 -2.4,2.6 z m 15.1,4.4 c -1.7,2.3 -7.4,2.1 -8.8,-0.4 -0.5,-0.8 0,-1.4 0.5,-1.9 0.5,-0.5 1,-1.1 1.8,-0.3 1,0.9 2.2,1 3.5,0.6 -0.2,-1.3 -0.8,-2 -1.9,-2.5 -0.5,-0.2 -0.9,-0.5 -1.3,-0.8 -2.4,-2 -3.2,-5 -1.7,-6.7 1.6,-1.7 6.2,-1.4 7.9,0.7 0.4,0.5 1,1.3 0.1,1.9 -0.7,0.5 -1.2,1.8 -2.5,1 -0.7,-0.4 -1.3,-1 -2.3,-0.5 0.5,1 1.2,1.5 2.2,1.9 3.4,1.5 4.4,4.4 2.5,7 z m 6.5,-17.3 c 1.6,0.1 2.5,0.8 2.5,2.3 0,1.3 -1,1.9 -1.9,1.8 -1.7,0 -2.6,-0.7 -2.5,-2.1 0.1,-1.1 0.4,-2.1 1.9,-2 z m 1.3,18.7 c -1.4,-0.1 -3,0.6 -2.8,-2 0.2,-3.1 -0.7,-6.2 -0.4,-9.4 0.1,-1.1 0.2,-2 1.6,-2 1.3,0 2.6,-0.1 2.7,1.6 0.1,1.4 0.1,2.7 0.1,4.2 0.2,1.7 0,3.5 0.5,5.2 0.3,1.2 0.2,2.5 -1.7,2.4 z m 18.900004,-1 c -0.6,2.7 -2,5.1 -4.8,5.7 -2.8,0.7 -5.7,0 -7.900004,-2.2 -0.7,-0.6 -1.1,-1.4 -1,-2.3 0.2,0 0.4,-0.1 0.6,-0.1 -0.2,0 -0.4,0 -0.6,0 1.1,-1.1 2.7,0.1 3.900004,-0.8 -5.000004,-2.7 -6.000004,-8.5 -2.200004,-12.1 0.8,-0.7 1.700004,-1.1 2.700004,-1.1 2.6,-0.1 5.1,0.8 7.8,0.1 1.1,-0.3 1.9,0.2 1.8,1.6 0,3.7 0.5,7.5 -0.3,11.2 z m 17.4,-10.8 c -0.2,2.8 -0.2,5.7 -1.1,8.4 -1,2.7 -2.6,3.6 -6,3.4 -2.5,-0.1 -4.2,-1.7 -5,-4.1 -1,-2.7 -0.7,-5.5 -0.8,-8.2 0,-0.9 0.1,-2.2 1.2,-1.8 1,0.3 2.9,-0.5 2.8,1.8 -0.1,2 -0.1,3.9 0.4,5.9 0.3,1.3 0.5,2.5 2.3,2.3 1.6,-0.2 1.8,-1.3 1.7,-2.5 0,-1 0,-1.9 0,-2.9 0,-0.9 0.1,-1.8 0,-2.6 -0.3,-1.9 0.5,-2.2 2.2,-2.2 1.8,0.1 2.4,0.4 2.3,2.5 z m 17.5,4.8 c 0,1.4 0,2.8 0,4.2 0,2.7 -1.4,3.7 -3.8,2.4 -0.5,-0.3 -0.8,-0.4 -1.3,-0.2 -3.8,1.3 -7.5,-0.2 -8.7,-3.5 -1.4,-3.6 0.7,-8.6 4.2,-10 0.4,-0.2 0.8,-0.2 1.3,-0.2 2.2,-0.1 4.3,1.2 6.6,0.1 1.1,-0.5 1.9,0.4 1.9,1.7 -0.2,1.9 -0.2,3.7 -0.2,5.5 z m 8.5,4.8 c -0.1,1.8 -0.7,2.2 -2.3,2.3 -1.9,0.1 -1.7,-1.1 -1.7,-2.3 -0.1,-1.5 -0.1,-2.9 -0.1,-5 0.4,-2.9 -0.5,-6.3 -0.5,-9.7 0,-1.8 1.2,-1.3 2.2,-1.3 0.9,-0.1 2,-0.2 1.9,1.3 -0.1,4.9 0.7,9.8 0.5,14.7 z m 17.3,-14 c -0.2,2.5 -0.1,4.9 -0.1,7.4 0,2.2 -0.1,4.4 0.1,6.6 0.1,1.8 -0.5,2.8 -2.3,2.2 -2.2,-0.7 -4.2,0.2 -6.2,0.1 -3.1,-0.1 -5.1,-2.1 -5.2,-5.3 0,-1.4 -0.1,-2.8 0,-4.2 0.5,-4.2 4.2,-6.4 8.2,-4.7 1.9,0.8 2,0.3 2,-1.4 0,-1 -1,-2.8 1.4,-2.9 1.7,0 2.2,0.5 2.1,2.2 z m 18,13.6 c 0,2.6 -1.6,3.7 -3.8,2.4 -0.7,-0.4 -1.1,-0.4 -1.7,-0.1 -2.7,1.1 -5.3,0.2 -7.3,-1.6 -1.9,-1.7 -2,-5.8 -0.5,-8.9 1.1,-2.3 3.4,-3.7 5.9,-3.3 1.7,0.3 3.3,0.6 5.1,0 1.4,-0.5 2.3,0.3 2.2,2 0,1.7 0.1,3.5 0.1,5.3 0,1.3 0,2.8 0,4.2 z m 14.6,2.6 c -2,-0.7 -3.7,0.2 -5.6,0.1 -3.4,-0.1 -5.5,-2 -5.4,-5.4 0,-1.7 -0.3,-3.3 0.2,-5 1.2,-3.6 3.9,-5.1 7.5,-3.8 2.4,0.8 2.3,0.8 2.4,-1.8 0,-1 -0.5,-2.2 1.4,-2.3 1.6,0 2.3,0.3 2.2,2 -0.2,2.3 -0.1,4.7 -0.1,7.1 0,2.2 -0.2,4.4 0.1,6.6 0.2,2.2 -0.8,3.1 -2.7,2.5 z m 18.2,-5.6 c -2.6,-0.1 -5.2,-0.1 -8.1,-0.1 1.1,2.5 3.7,3.3 5.9,2.2 0.4,-0.2 0.7,-0.4 1.1,-0.7 1.1,-0.7 1.6,0.2 2.2,0.8 0.8,0.8 0.2,1.3 -0.3,1.8 -2.2,2.3 -5.4,2.9 -8.6,1.4 -2.8,-1.3 -4.4,-4.6 -3.8,-7.7 1.2,-6.1 7.5,-8.4 12.1,-4.3 1.1,1 1.7,2.4 1.9,3.9 0.4,2.2 -0.1,2.7 -2.4,2.7 z m 14.2,4.7 c -1.7,1.7 -6.9,1.1 -8.2,-1 -0.5,-0.8 -0.1,-1.4 0.4,-1.9 0.5,-0.5 0.9,-1.2 1.8,-0.4 1,1.1 2.2,1.3 3.6,0.8 -0.3,-1.3 -0.8,-2 -1.9,-2.5 -1.1,-0.4 -1.9,-1.3 -2.7,-2.2 -1.3,-1.4 -1.4,-3 -0.7,-4.7 0.8,-1.7 2.6,-1.9 4.1,-1.9 1.6,0 2.9,0.9 4.1,1.9 0.5,0.4 1.1,1.2 0.2,1.9 -0.7,0.6 -1.1,1.9 -2.5,1.1 -0.7,-0.4 -1.3,-1 -2.3,-0.6 0.5,1 1.1,1.5 2.1,1.9 3.7,1.7 4.5,5 2,7.6 z m 21.9,-28.6 c -0.1,1.3 -0.1,2.6 0,3.9 0.1,1.6 -0.8,2.1 -2.1,2.1 -2.6,0.1 -5.2,0.1 -7.8,0.1 -2.5,0 -5,0 -7.5,0 -1.7,0 -2.7,-0.6 -2.6,-2.7 0.1,-5.3 0.1,-5.3 5.4,-5.4 4.4,-0.1 8.7,0.8 13.1,0.4 1.4,-0.1 1.6,0.6 1.5,1.6 z"
   id="path10"
   inkscape:connector-curvature="0"
   style="fill:#ef982e" />
<path
   d="m 34.706866,211.5089 c 7,0.3 13.9,1.3 20.9,1.8 11.4,0.8 22.8,3.1 34.3,2 5.8,-0.5 11.600004,-0.7 17.400004,-1.1 6.6,-0.4 13.2,-0.8 19.8,-1.2 5.7,-0.3 11.3,-0.7 17,-1 6.9,-0.4 13.7,-1 20.7,-1.2 2.9,-0.1 5.7,0.4 8.6,0.5 6.1,0.1 12.2,0.1 18.3,0.3 8.9,0.2 17.8,0.4 26.7,0.6 3.2,0.1 5.9,-1 8.3,-2.9 7.8,-6.3 6.8,-4 9.5,-14.5 0.1,-0.2 0.1,-0.4 0.1,-0.6 -0.2,0.1 -0.4,0.2 -0.6,0.4 -0.7,1.1 -0.8,2.3 -1.1,3.5 -0.7,2.4 -0.8,5.1 -3,6.9 -2,1.7 -4.2,3 -6.2,4.8 -2.1,1.7 -4.4,2.2 -6.9,2.2 -3.6,-0.1 -7.2,-0.2 -10.8,-0.4 -6.5,-0.4 -13.1,0.1 -19.6,-0.4 -6.9,-0.6 -13.7,0.1 -20.7,-0.5 -5.5,-0.4 -10.9,0.4 -16.4,0.7 -5.1,0.4 -10.2,0.6 -15.3,0.9 -7.4,0.4 -14.8,0.8 -22.1,1.3 -6.5,0.5 -12.9,0.5 -19.300004,1 -2.6,0.2 -5.1,-0.1 -7.6,0.4 -5.7,1.1 -11.2,-0.4 -16.8,-0.7 -5.5,-0.3 -11,-1.1 -16.5,-1.7 -3.9,-0.4 -7.8,-1.1 -11.7,-1.2 -2.5,-0.1 -5,-1 -7.6,-0.3 -0.2,0.1 -0.4,0.3 -0.6,0.4 0.3,0.1 0.8,0.1 1.2,0 z"
   id="path12"
   inkscape:connector-curvature="0"
   style="fill:#ef982e" />
<path
   d="m 57.506866,41.708896 c 0.5,3.4 1.1,6.8 1.1,10.2 0.1,8.1 0.1,16.2 0,24.3 0,1.6 0.5,2.2 2.1,2.6 3.8,1.1 7.7,0.8 11.6,0.6 3.2,-0.2 3.9,-0.9 4.1,-4.1 0.4,-0.7 0.2,-1.4 0.2,-2.2 0,-5.9 0.2,-11.9 -0.9,-17.8 -0.1,-0.9 -0.3,-1.9 -0.2,-2.8 0,-0.8 0,-0.8 0.7,-1.6 2.2,2 3.6,4.4 4.7,7.1 0.5,1.7 1.4,3.2 2.3,4.8 1.7,1.4 2.3,3.3 2.6,5.4 0.1,0.6 0.5,1.1 0.8,1.6 0.5,0.4 0.9,1 1,1.6 0.1,0.1 0.1,0.3 0.2,0.5 1,2.1 2.5,3.9 3.4,6.1 0.5,0.5 1.1,0.7 1.9,0.7 1.7,-0.1 3.5,0.3 5.1,-0.3 2.400004,-0.5 4.700004,-1.5 7.200004,-1.5 2.7,0 2.7,0 2.7,-2.8 -1,-3.3 -2.6,-6.3 -4.4,-9.2 -0.7,-1.1 -1.5,-2.2 -2.2,-3.3 -1.2,-2 -1.4,-4.4 -2.900004,-6.2 -1.9,-2.3 -3.4,-4.8 -5,-7.2 -1.4,-2.2 -1.4,-2.3 1,-3.3 0.2,-0.1 0.5,-0.3 0.7,-0.5 3.5,-3.1 6.000004,-6.9 7.400004,-11.4 -0.1,-1.1 -0.1,-2.2 0.3,-3.2 0.5,-1.4 0.9,-3 0.5,-4.5 -1,-3.3 -0.7,-6.9 -2.6,-9.9 -0.8,-3.1 -3.400004,-4.8 -5.100004,-7.1999999 -2.3,-2.5 -5.3,-3.8 -8.6,-3.8 -9.4,-0.1 -18.8,0 -28.2,0 -0.7,0 -1.6,-0.2 -1.9,0.7 -0.1,3 -0.6,5.8999999 -0.7,8.9999999 -0.1,7.8 -0.3,15.7 0.9,23.4 0.1,1.4 0,2.9 0.2,4.2 z m 17.6,-21.4 c 1.1,-1.3 3.6,-0.1 5.5,-0.5 1.3,-0.1 2.3,0.4 3.4,0.9 0.2,0.4 0.5,0.7 1,0.8 2.2,1 3.4,2.4 3.1,4.9 -2.6,3.9 -6.6,5 -11,5.3 -0.5,0 -1,0.1 -1.4,-0.4 -0.7,-0.9 -1,-1.9 -0.9,-3 0.1,-0.7 0,-1.4 0,-2.2 0,-2 -0.9,-4.4 0.3,-5.8 z"
   id="path14"
   inkscape:connector-curvature="0"
   style="fill:#e7cb14" />
<g
   id="g20"
   transform="translate(-273.99313,-170.2911)">
	<path
   d="m 440.2,205.6 c -3.1,0.8 -5.9,2.3 -6.9,5.6 -1.2,3.6 -1,7.5 -0.4,11.3 0.8,5 4.2,8 8.5,10.1 3.2,0.8 6.3,0.7 9.3,-0.9 0.6,-0.4 1.1,-0.9 1.7,-1.3 2.3,-2.2 3.9,-4.9 4.8,-7.9 0.1,-4.1 0.4,-8.1 -2.5,-11.7 -2.5,-3.4 -9.3,-7.1 -14.5,-5.2 z"
   id="path16"
   inkscape:connector-curvature="0"
   style="fill:none" />
	<path
   d="m 473,214.6 c -0.2,-0.9 -0.2,-1.8 -0.4,-2.6 -1.4,-6.9 -4.3,-13 -9.8,-17.5 -3.1,-2.6 -6.5,-4.8 -10.6,-5.3 -3,-0.3 -6,-0.2 -9,0 -3,0.8 -6.1,1.3 -9.3,1.7 -1.9,0.2 -3.3,1.1 -4.8,2.2 -1,0.5 -2.2,0.6 -2.9,1.4 -2.7,2.8 -5.6,5.4 -8.1,8.4 -2.5,4.8 -4.4,9.7 -3.8,15.2 0.2,1.9 -0.4,3.8 0.4,5.6 0.1,0.9 0.5,1.7 0.5,2.6 0.2,3.4 1.5,6.4 3.3,9.2 1.9,3 4.6,5.3 7.2,7.7 3.1,2.9 6.7,5 11.2,5.2 2,0.1 4.1,0.5 6,1.1 1.9,0.7 3.8,1 5.8,0.5 2.6,0.6 4.8,-0.4 7.2,-1.3 2.3,-0.7 4.5,-1.7 6.5,-3 5,-3.6 8.2,-8.5 9.6,-14.5 -0.1,-1.8 0.1,-3.6 0.9,-5.3 0.5,-3.8 0.1,-7.6 0.1,-11.3 z m -15.6,7.8 c -1,3 -2.5,5.7 -4.8,7.9 -0.6,0.4 -1.1,0.9 -1.7,1.3 -3,1.6 -6.1,1.7 -9.3,0.9 -4.3,-2.1 -7.7,-5.1 -8.5,-10.1 -0.6,-3.8 -0.8,-7.7 0.4,-11.3 1,-3.2 3.8,-4.7 6.9,-5.6 5.1,-1.9 12,1.8 14.7,5.1 2.8,3.7 2.4,7.7 2.3,11.8 z"
   id="path18"
   inkscape:connector-curvature="0"
   style="fill:#e7cb14" />
</g>
<path
   d="m 131.70687,28.008896 c 0.1,-0.7 0.1,-1.3 0,-2 -0.1,-1.3 -0.5,-2 -2,-1.9 -4.1,0.1 -8.1,0.2 -12.1,0 -2,-0.1 -2.6,0.5 -2.6,2.6 0.1,14 -0.4,28 0.9,42 0,2.4 0.1,4.7 0,7 -0.1,1.4 0.2,2.2 1.9,2.2 4.5,-0.1 9,0 13.4,0.2 1.9,0.1 2.5,-0.6 2.3,-2.4 -0.4,-6.3 -0.4,-12.7 -0.7,-19.1 -0.3,-9.5 -1.5,-19 -1.1,-28.6 z"
   id="path22"
   inkscape:connector-curvature="0"
   style="fill:#e7cb14" />
<path
   d="m 109.00687,160.7089 c 0.1,0.1 0.1,0.1 0.2,0.2 1.2,2.1 2.2,4.3 4.4,5.6 1.6,0.9 3,2.1 4.7,2.9 4.3,1.6 8.5,1.1 12.6,-1 0.5,-0.6 1.1,-1.2 1.7,-1.8 0.7,-0.4 1.3,-0.9 1.3,-1.8 0,-0.2 0.1,-0.3 0.2,-0.4 0.7,-1.9 -1.4,-3.9 -3.9,-3.9 -0.7,0.5 -1.4,1.1 -2.2,1.4 -0.2,0.1 -0.4,0.2 -0.5,0.3 -0.8,0.4 -1.7,0.4 -2.6,0.5 -1.5,0 -2.9,0.8 -4.5,0.4 -1.5,-0.2 -2.6,-0.9 -3.5,-2 -0.7,-0.7 -1,-1.5 -0.7,-2.4 0.4,-1.1 1.4,-0.6 2.1,-0.6 3.5,-0.1 7.1,0.5 10.5,-0.1 7.6,-1.3 7.8,0.3 7.7,-6.9 0.6,-2.7 -1.6,-4.2 -3,-5.9 -3.2,-4.2 -9.2,-5.5 -14.7,-3.7 -1.7,1 -3.8,1.3 -5.3,2.7 -1.5,0.5 -2.3,1.6 -2.7,3 -1.1,0.8 -1.2,2 -1.3,3.2 0.1,0.1 0,0.2 -0.1,0.4 -1.1,3 -0.7,6.2 -0.4,9.3 -0.1,0.1 -0.1,0.3 0,0.6 z m 9.4,-11 c 0.1,-0.1 0.1,-0.1 0.2,-0.1 0.2,-0.1 1.2,-0.5 1.2,-0.5 1.6,-1.7 3.8,-1.2 5.9,-1.1 1.3,0.2 2.3,0.8 3,1.8 0.5,1 0.1,1.6 -1,1.5 -3.2,-0.1 -6.5,0.2 -9.7,-0.2 -0.8,-0.7 -0.1,-1 0.4,-1.4 z"
   id="path24"
   inkscape:connector-curvature="0"
   style="fill:#e7cb14" />
<path
   d="m 179.90687,90.608896 c -0.2,-0.2 -0.4,-0.2 -0.5,-0.4 -0.5,-0.2 -1.1,-0.5 -1.7,-0.7 -0.2,0 -0.4,-0.1 -0.7,-0.1 -2.7,-1.4 -5.4,-1 -8.1,0.2 -0.7,0.2 -1.3,0.2 -1.8,0.8 -1,0.5 -2,1.3 -3,0 -0.1,-0.5 -0.4,-0.8 -0.8,-0.9 -2.5,-0.4 -5,-0.4 -7.5,0 -1.3,0.2 -1.7,1.3 -1.4,2.5 0.4,1.4 0.4,2.8 0.4,4.2 0,4.800004 0.1,9.700004 0.1,14.600004 0.4,2.6 0.1,5.1 0.2,7.7 0,1.6 0.1,3.2 0,4.8 -0.1,1.1 0.3,1.5 1.4,1.4 2.7,-0.1 5.6,0.1 8.3,-0.1 0.2,-0.1 0.4,-0.1 0.6,-0.2 0.6,-2 0.1,-4 0.2,-6 -0.4,-1.8 -0.1,-3.6 -0.2,-5.4 -0.6,-2.2 0,-8.9 1.1,-11.2 1.3,-3.100004 2.9,-4.000004 5.7,-3.000004 0.2,0.1 0.4,0.2 0.5,0.3 0.7,0.2 1.3,0.6 2,0.7 1.9,0.300004 3.6,-0.2 5,-1.6 4.1,-3.7 4.1,-4 0.2,-7.6 z"
   id="path26"
   inkscape:connector-curvature="0"
   style="fill:#e7cb14" />
<path
   d="m 199.90687,155.5089 c 0,0 0,-0.1 0,0 0,0.1 0,0.3 0,0.4 0,0.1 0,0.2 0.1,0.3 -0.1,-0.1 -0.1,-0.2 -0.1,-0.3 0,-0.1 0,-0.3 0,-0.4 z"
   id="path28"
   inkscape:connector-curvature="0"
   style="fill:#e7cb14" />
<path
   d="m 185.60687,143.8089 c -3.8,3 -4.5,6.9 -4.5,11.5 0,5 2.1,8.5 5.9,11.3 0.6,0.5 1.3,1 2.1,1.2 4.1,1.3 8.3,2 12.6,0.4 2.8,-1.1 4.2,-3.4 5.2,-6 0.2,-0.5 0.2,-1.1 0.5,-1.7 1.4,-2.9 1.7,-5.7 0.7,-8.8 -0.5,-1.6 -0.8,-3.2 -1.3,-4.8 -1.2,-1.8 -1.6,-4.3 -4.4,-4.5 -4.7,-3.1 -12.3,-2.3 -16.8,1.4 z m 15.5,8.6 c 0.2,0.3 0.2,0.5 0.2,0.8 0,0 0,0.1 0.1,0.1 0.1,0.1 0.1,0.3 0.1,0.5 -0.2,0.8 0.1,1.6 -0.3,2.3 0,1.2 -0.6,2.4 -1.6,3.2 -0.6,0.4 -1,1 -1.6,1.6 -4.5,0.6 -6.4,-0.2 -8,-3.6 -0.7,-1.8 -1.3,-3.6 -0.8,-5.5 1.8,-3.9 6.2,-5 10.2,-2.4 1,0.7 1.4,1.8 1.7,3 z"
   id="path30"
   inkscape:connector-curvature="0"
   style="fill:#e7cb14" />
<path
   d="m 76.206866,168.9089 c 2.2,0.7 4.5,0.2 6.8,0.4 1.1,0.1 1.4,-1 1.4,-2 0,-5.4 0.2,-10.9 -0.1,-16.3 -0.2,-4.3 -1.7,-8.1 -6.2,-9.7 -2.9,-0.1 -5.8,-0.5 -8.5,0.8 -1,0.5 -1.7,-0.1 -2.6,-0.4 -1.9,-0.3 -3.8,-0.5 -5.7,0.1 0.3,5.2 -1.4,10.3 -1,15.5 0.1,2 0,4 0,6 0,6.2 0,6.2 6.2,5.4 0.5,-0.8 0.3,-1.7 0.3,-2.5 -0.4,-4.2 0.6,-8.2 1,-12.4 0.2,-1.4 0.9,-2.7 1.9,-3.7 1.9,-2 4.5,-1.6 5.7,0.9 0.7,1.4 0.8,2.7 0.8,4.2 -0.2,4.6 -0.6,9.2 0,13.7 z"
   id="path32"
   inkscape:connector-curvature="0"
   style="fill:#e7cb14" />
<path
   d="m 96.806866,168.9089 c 0.3,0 0.6,0 1,0 3.100004,0 3.100004,0 3.100004,-3.1 0,-4.4 0,-8.7 0,-13 0,-1.2 0.1,-2.6 1.4,-2.9 2.6,-0.7 3,-2.5 3,-4.8 0,-1.9 -0.4,-2.9 -2.6,-2.6 -0.7,0.1 -1.8,0.4 -1.9,-0.9 -0.1,-2.2 -1.300004,-4.1 -1.000004,-6.3 0.200004,-1.1 -0.4,-1.7 -1.5,-1.6 -0.8,0 -1.7,-0.1 -2.5,0 -2,0.1 -3.2,1 -3.1,3.2 0,1.3 -0.1,2.5 0,3.8 0.1,1.4 -0.4,1.9 -1.9,1.9 -2.6,0 -2.9,0.4 -2.5,3 0.1,0.9 0.6,1.8 0.7,2.7 0.1,1.1 0.7,1.4 1.6,1.3 1.7,-0.2 2,0.7 2,2.2 -0.1,4.4 -0.1,8.8 0,13.3 0.3,4.5 -0.4,3.8 4.2,3.8 z"
   id="path34"
   inkscape:connector-curvature="0"
   style="fill:#e7cb14" />
<path
   d="m 45.206866,163.4089 c 0,5.9 0,5.9 5.9,5.5 2,-0.1 2.9,-1 2.9,-3 -0.1,-7.1 -0.1,-14.3 -0.1,-21.4 -0.4,-2.9 -0.2,-5.9 0,-8.8 -0.4,-1.4 -1.4,-1.9 -2.6,-1.9 -1.2,0 -2.5,0.1 -3.8,-0.1 -1.9,-0.2 -2.4,0.5 -2.4,2.3 0.2,9.1 0.1,18.2 0.1,27.4 z"
   id="path36"
   inkscape:connector-curvature="0"
   style="fill:#e7cb14" />
<path
   d="m 168.80687,149.3089 c 1,-0.5 1.9,-0.2 2.7,0.5 2.3,1.4 4.2,0.6 5.6,-1.2 0.7,-0.7 1.7,-1.2 2.1,-2.2 0.2,-1 -0.3,-1.7 -0.9,-2.3 -2.5,-2.5 -5.3,-3.4 -8.7,-2.2 h 0.1 c -0.4,0.2 -0.8,0.1 -1.1,0.4 -1.5,0.7 -2.9,1.1 -4.4,-0.2 -0.4,-0.4 -1,-0.5 -1.6,-0.2 -1.9,0.3 -3.9,-0.4 -5.5,1.1 -0.1,5.3 1.3,10.5 0.9,15.8 -0.2,2.9 0,5.7 -0.1,8.6 0,1.4 0.5,1.9 1.8,1.9 1.5,0 2.9,0.1 4.4,0 2.2,0 2.6,-0.4 2.1,-2.5 -0.6,-2.5 -0.7,-5 -0.8,-7.6 -0.1,-2.3 1,-4.5 0.7,-6.8 0,-0.2 0.1,-0.3 0.1,-0.4 0.4,-1.4 1.3,-2.3 2.6,-2.7 z"
   id="path38"
   inkscape:connector-curvature="0"
   style="fill:#e7cb14" />
<path
   d="m 121.60687,17.808896 c 1.5,-0.1 2.9,0 4.4,0 2.4,-0.1 5.6,-2.7 5.8,-5.1 0.1,-2 0.4,-4.0999999 -0.2,-6.0999999 -0.3,-0.7 -0.6,-1.4 -0.9,-2.1 -0.4,-1 -1.1,-1.7 -2.1,-2.5 -2.5,-1.6 -5.1,-1.9 -7.9,-2 -3.3,-0.2 -6.8,3 -6.9,6.8 -0.1,2.1 -0.1,4.1999999 0.1,6.2999999 1.6,3.2 4,5.1 7.7,4.7 z"
   id="path40"
   inkscape:connector-curvature="0"
   style="fill:#e7cb14" />
<path
   d="m 150.30687,144.8089 c -0.1,-1.2 -0.7,-1.7 -1.7,-1.4 -1.8,0.5 -3.9,-1.2 -5.4,1 -0.1,0.1 -0.1,0.3 -0.1,0.4 0,7.5 0,15 0,22.5 0,0.9 0.3,1.3 1.3,1.4 1.6,0.1 3,0.2 4.6,0.4 1.5,0.2 2.2,-0.3 2.1,-1.9 -0.1,-2.6 0,-5.1 0,-8.7 0.8,-4 -0.7,-8.8 -0.8,-13.7 z"
   id="path42"
   inkscape:connector-curvature="0"
   style="fill:#e7cb15" />
<path
   d="m 150.50687,138.0089 c 0.1,-0.8 0,-1.6 0.1,-2.4 0.2,-1.9 -0.7,-3 -2.5,-3.5 -1.2,-0.3 -2.3,-1.3 -3.6,-0.5 -0.7,0.6 -1.8,0.7 -2,1.8 -0.4,0.9 -0.2,1.9 -0.2,2.8 0,2.5 0.6,3.2 2.7,3.8 2.8,0.7 4.4,0.1 5.5,-2 z"
   id="path44"
   inkscape:connector-curvature="0"
   style="fill:#e7cc17" />
<path
   d="m 26.906866,173.9089 c 0.4,-1.8 0.5,-3.7 0,-5.4 -0.4,-1.1 -1.9,-0.5 -2.8,-0.5 -3.2,-0.1 -3.2,0 -3.2,-3.1 -0.1,-3.5 -0.1,-3.5 -3.6,-3.5 -1.6,0.1 -3.6,-0.8 -3.6,2.3 0.2,3.9 0,4.1 -4.1000001,4.2 -2.5,0.1 -2.6,1.6 -2.5,3.5 0.1,1.7 0.2,2.9 2.5,2.9 3.1000001,-0.1 3.2000001,0.2 3.3000001,2.9 0.1,3.7 -0.6,3.2 3.3,3.2 0.3,0 0.6,0 0.9,0 3.2,-0.1 3.3,-0.2 3.3,-3.3 0.1,-2.7 0.1,-2.9 2.9,-2.9 0.8,0 1.6,0 2.5,0 0.3,0.1 1.1,0.2 1.1,-0.3 z"
   id="path46"
   inkscape:connector-curvature="0"
   style="fill:#fefefe" />
<path
   d="m 43.006866,207.1089 c 1.7,0.1 2.7,-0.3 2.5,-2.3 -0.1,-1 0,-2 0,-3.2 0.7,0.1 1.2,0.2 1.6,0.2 4.5,1.3 7.5,-0.2 8.4,-4.7 1.3,-6.2 -1.6,-10.2 -7.8,-9.1 -1,0.2 -1.7,0.3 -2.7,0 -0.8,-0.2 -2.6,-1.1 -2.9,1.1 -0.7,5.4 -0.4,10.9 -0.5,16.4 -0.1,1.2 0.3,1.5 1.4,1.6 z m 6,-15.6 c 1.2,0.1 2.8,2.1 2.8,3.5 0,1.9 -1.4,3.2 -3.5,3.2 -1.7,0.1 -3,-0.4 -3,-2.3 -0.2,-1.9 2.1,-4.4 3.7,-4.4 z"
   id="path48"
   inkscape:connector-curvature="0"
   style="fill:#fefefe" />
<path
   d="m 148.40687,202.2089 c 2.1,0.1 4.1,-0.7 6.3,-0.1 1.8,0.5 2.4,-0.5 2.3,-2.3 -0.2,-2.3 -0.1,-4.5 -0.1,-6.8 0,-2.4 -0.1,-4.7 0.1,-7.1 0.1,-2 -0.8,-2.2 -2.3,-2.1 -2.3,0.1 -1.2,1.9 -1.2,2.8 -0.1,1.7 -0.2,2.2 -2,1.4 -4,-1.7 -7.8,0.5 -8.2,4.7 -0.1,1.5 -0.1,2.9 0,4.4 0,3.1 2.1,5 5.1,5.1 z m 1.9,-10.6 c 2,-0.1 3.2,1 3.2,2.7 0,2 -1.7,4.1 -3.5,4.1 -1.8,0.1 -2.7,-1.2 -2.7,-3.5 -0.1,-2.2 0.9,-3.3 3,-3.3 z"
   id="path50"
   inkscape:connector-curvature="0"
   style="fill:#fefefe" />
<path
   d="m 183.90687,202.2089 c 2,0.1 3.9,-0.7 6,-0.1 2,0.6 2.6,-0.6 2.5,-2.5 -0.2,-2.2 -0.1,-4.4 -0.1,-6.6 0,-2.3 -0.1,-4.7 0,-7 0.1,-1.7 -0.5,-2.1 -2.1,-2.1 -1.9,0 -1.4,1.2 -1.4,2.2 -0.1,2.6 0,2.6 -2.4,1.8 -3.6,-1.3 -6.3,0.2 -7.5,3.8 -0.5,1.7 -0.2,3.5 -0.2,5.3 0,3.1 2,5.1 5.2,5.2 z m 1.8,-10.6 c 2,0.1 3,1.1 3,2.9 -0.1,2 -1.9,4.1 -3.6,4 -1.7,-0.1 -2.7,-1.4 -2.6,-3.6 0.1,-2.3 1.1,-3.4 3.2,-3.3 z"
   id="path52"
   inkscape:connector-curvature="0"
   style="fill:#fefefe" />
<path
   d="m 168.80687,202.0089 c 0.8,-0.2 1.3,-0.4 2.3,0.1 2.2,1.1 3.5,0.1 3.5,-2.3 0,-1.5 0,-2.9 0,-4.4 0,-1.8 0,-3.5 0,-5.3 0,-0.7 0.2,-1.7 -0.7,-1.9 -1,-0.3 -2.2,-0.6 -3.1,0.2 -0.4,0.3 -0.2,0.8 -1,0.4 -4.1,-2.2 -8.1,0.2 -9.1,4.7 -0.5,2.5 -0.7,5.1 1.4,7 1.8,1.5 4.2,2.3 6.7,1.5 z m -1.1,-10.8 c 1.6,0.1 3.4,2.2 3.3,3.8 -0.1,2.2 -1.5,3.6 -3.3,3.6 -1.6,-0.1 -3.3,-2 -3.3,-3.6 0,-2 1.7,-4 3.3,-3.8 z"
   id="path54"
   inkscape:connector-curvature="0"
   style="fill:#fdfdfe" />
<path
   d="m 199.80687,201.7089 c 2.2,1.3 6.8,1.6 8.8,-1.1 0.8,-1 0.8,-1.5 -0.1,-2.3 -1,-1.1 -1.8,-0.4 -2.7,0.1 -2.5,1.5 -5.1,0.7 -6,-1.9 2.9,0 5.7,0 8.6,-0.1 1,0.1 1.7,-0.1 1.9,-1.3 0.2,-2.2 -0.6,-4 -2.1,-5.3 -4.8,-4.1 -10.9,-1.6 -12,4.1 -0.4,3 0.9,6.3 3.6,7.8 z m 4,-10.3 c 1.1,0 2.5,0.3 2.4,1.3 -0.1,1.4 -1.7,0.3 -2.5,0.8 -0.8,-0.4 -2.4,0.5 -2.5,-0.7 0,-1.2 1.5,-1.4 2.6,-1.4 z"
   id="path56"
   inkscape:connector-curvature="0"
   style="fill:#fdfdfe" />
<path
   d="m 37.606866,195.4089 c 0,-5.2 -1.8,-7.5 -6,-7.5 -5,0 -7.6,2.3 -7.6,6.9 0,4.5 2.9,7.4 7.4,7.4 4.5,0 6.2,-1.8 6.2,-6.8 z m -6.5,3.1 c -1.5,0 -3.3,-2.3 -3.2,-4.1 0.1,-1.7 1.1,-2.6 2.9,-2.7 1.9,-0.1 3.3,1.4 3.3,3.5 0,1.7 -1.4,3.2 -3,3.3 z"
   id="path58"
   inkscape:connector-curvature="0"
   style="fill:#fdfdfe" />
<path
   d="m 67.206866,202.2089 c 4.5,0 6.2,-1.9 6.2,-6.9 0,-5 -1.9,-7.4 -5.9,-7.3 -5.1,-0.1 -7.8,2.3 -7.8,6.8 0,4.5 2.9,7.4 7.5,7.4 z m -0.7,-10.6 c 1.9,-0.1 3.3,1.5 3.3,3.5 0,1.9 -1.3,3.3 -2.9,3.4 -1.5,0.1 -3.3,-2.2 -3.2,-4.1 0.1,-1.8 1.1,-2.7 2.8,-2.8 z"
   id="path60"
   inkscape:connector-curvature="0"
   style="fill:#fdfdfe" />
<path
   d="m 108.40687,202.1089 c 3.5,0.1 5,-0.7 6,-3.7 1,-2.9 0.8,-5.9 1,-8.8 0.1,-1.3 -0.3,-1.9 -1.5,-1.7 -1.1,0.2 -3,-1.1 -3,1.5 0,2.2 0,4.2 0,6.4 0.1,1.3 -0.4,2.2 -1.8,2.3 -1.5,0.2 -1.9,-0.8 -2.2,-2 -0.6,-2 -0.4,-4.1 -0.5,-6.1 0,-0.6 0.3,-1.3 -0.7,-1.6 -2.6,-1 -3.3,-0.5 -3.3,2.2 0,0.5 0,1 0,1.9 -0.1,1.6 0.1,3.5 0.7,5.4 1,2.5 2.8,4.1 5.3,4.2 z"
   id="path62"
   inkscape:connector-curvature="0"
   style="fill:#fdfdfe" />
<path
   d="m 121.00687,202.3089 c 1.1,0 1.5,-0.4 1.5,-1.6 0.1,-2 0.1,-3.9 0.5,-5.9 0.2,-1.3 0.5,-2.9 2.5,-2.7 2,0.1 1.7,1.7 1.9,2.9 0.2,1.9 0.1,3.9 0.1,5.9 -0.1,1.7 1.1,1.3 2,1.3 0.8,-0.1 2,0.5 2,-1.2 -0.1,-2.9 0.1,-5.7 -0.1,-8.6 -0.2,-2.6 -1.9,-4.1 -4.5,-4.1 -1.9,-0.1 -3.7,0.4 -5.6,0 -1.5,-0.4 -1.9,0.5 -1.8,1.9 0.1,1.7 0,3.4 0,5.1 0,1.8 0.1,3.5 0,5.4 -0.2,1.2 0.2,1.6 1.5,1.6 z"
   id="path64"
   inkscape:connector-curvature="0"
   style="fill:#fdfdfe" />
<path
   d="m 216.00687,198.2089 c -1,-1 -1.5,-0.1 -2.1,0.5 -0.8,0.7 -0.7,1.5 0.1,2.1 1.7,1.3 3.6,2 5.7,1.7 2.3,-0.3 3.5,-2.1 3.8,-4.1 0.2,-2.3 -1.4,-3.8 -3.3,-4.7 -1,-0.5 -1.7,-0.9 -2.2,-1.9 1,-0.6 1.7,0.1 2.3,0.5 1.2,0.8 1.6,-0.4 2.3,-0.8 0.8,-0.6 0.7,-1.3 0.2,-1.9 -1.5,-2.1 -6.1,-2.6 -7.9,-1 -1.6,1.4 -1.1,4.4 1.1,6.4 0.5,0.5 1.1,1 1.8,1.3 1,0.5 1.6,1.2 1.9,2.5 -1.5,0.4 -2.7,0.3 -3.7,-0.6 z"
   id="path66"
   inkscape:connector-curvature="0"
   style="fill:#fdfdfd" />
<path
   d="m 91.606866,192.3089 c 1.4,0.3 1.1,1.2 1.4,2 0.6,1.7 0.2,3.5 0.3,5.3 0.1,1.3 -0.4,2.7 2,2.7 2.2,0 2.1,-1.1 2,-2.6 -0.1,-1.9 -0.1,-3.8 0,-5.7 0,-0.5 -0.2,-1.4 0.6,-1.4 1.6,-0.1 1,-1.3 1.1,-2.2 -0.2,-0.7 0.5,-1.9 -0.6,-1.9 -1.8,-0.1 -1.4,-1.3 -1.5,-2.3 -0.1,-0.8 0.5,-1.8 -0.5,-2.2 -1,-0.3 -2.1,-0.3 -3,0.4 -0.8,0.7 -0.6,1.5 -0.3,2.2 0.4,1 0.2,1.5 -0.9,1.9 -1.2,0.5 -1.6,3.6 -0.6,3.8 z"
   id="path68"
   inkscape:connector-curvature="0"
   style="fill:#fdfdfe" />
<path
   d="m 77.406866,197.3089 c 0,1.3 0.1,2.2 0,3 -0.4,2.4 1.3,1.9 2.6,1.9 2,0.1 1.5,-1.4 1.3,-2.3 -0.4,-1.4 -0.4,-2.6 -0.3,-3.9 0.1,-2.6 1.1,-3.5 3.8,-3.2 1.6,0.2 2.8,-0.8 3.2,-2.2 0.4,-1.4 -1,-1.7 -2.1,-2 -1,-0.4 -2,-0.4 -3,0 -0.9,0.4 -1.6,0.5 -2.6,0 -2,-1.1 -3.2,-0.1 -3.3,2.3 -0.1,2.2 0.8,4.4 0.4,6.4 z"
   id="path70"
   inkscape:connector-curvature="0"
   style="fill:#fdfdfd" />
<path
   d="m 135.20687,200.1089 c -0.2,2.5 1.3,2 2.7,2.1 2,0 2,-1.4 1.7,-2.6 -0.5,-1.7 -0.2,-3.3 -0.3,-5 -0.1,-1.4 -0.1,-2.9 -0.2,-4.3 -0.2,-1.9 -1.6,-1.5 -2.8,-1.5 -1.4,-0.1 -1.4,0.9 -1.5,1.9 -0.2,3.2 0.6,6.3 0.4,9.4 z"
   id="path72"
   inkscape:connector-curvature="0"
   style="fill:#fdfdfe" />
<path
   d="m 136.90687,187.7089 c 1.3,0 2.2,-0.5 2.3,-1.8 0.1,-1.6 -0.9,-2.3 -2.9,-2.5 -1.1,-0.2 -1.5,0.8 -1.5,2.1 0,1.5 0.7,2.1 2.1,2.2 z"
   id="path74"
   inkscape:connector-curvature="0"
   style="fill:#f6f7fa" />
<path
   d="m 110.90687,225.3089 c 0.1,-1.3 -0.7,-1.9 -1.8,-1.6 -2.6,0.7 -5.2,-0.2 -7.8,-0.1 -1.1,0.1 -2.000004,0.4 -2.700004,1.1 -3.9,3.5 -2.8,9.4 2.200004,12.1 1.6,-0.1 3.2,0.3 4.8,-0.3 1,-0.3 1.2,0.4 0.9,1.1 -0.5,1.4 -3.9,2.4 -4.7,1.2 -0.6,-0.8 -1.2,-1.2 -1.8,-1.3 -0.400004,-0.1 -0.800004,-0.1 -1.300004,-0.1 -0.4,0 -0.8,0.1 -1.2,0.1 -0.2,0 -0.4,0.1 -0.6,0.1 -0.1,0.9 0.4,1.7 1,2.3 2.200004,2.2 5.100004,2.8 7.900004,2.2 2.7,-0.7 4.2,-3 4.8,-5.7 0.7,-3.6 0.2,-7.4 0.3,-11.1 z m -7.1,8.2 c -1.7,0.1 -3.4,-1.3 -3.3,-2.7 0.1,-2 1.9,-4 3.6,-3.9 1.7,0 2.5,1.1 2.5,3.5 0,2 -1,3.1 -2.8,3.1 z"
   id="path76"
   inkscape:connector-curvature="0"
   style="fill:#fefefd" />
<path
   d="m 206.40687,228.3089 c 0,-2.3 -0.1,-4.7 0.1,-7.1 0.1,-1.7 -0.5,-2 -2.2,-2 -1.9,0.1 -1.4,1.3 -1.4,2.3 -0.1,2.6 0,2.6 -2.4,1.8 -3.6,-1.3 -6.3,0.2 -7.5,3.8 -0.5,1.7 -0.2,3.3 -0.2,5 -0.1,3.4 2,5.3 5.4,5.4 1.9,0.1 3.6,-0.8 5.6,-0.1 1.9,0.6 2.9,-0.2 2.7,-2.5 -0.3,-2.1 -0.1,-4.4 -0.1,-6.6 z m -7,5.7 c -1.8,-0.1 -2.7,-1.4 -2.7,-3.6 0,-2.3 1,-3.3 3.1,-3.3 2,0 3.1,1 3.1,2.9 0,1.9 -1.8,3.9 -3.5,4 z"
   id="path78"
   inkscape:connector-curvature="0"
   style="fill:#fefefd" />
<path
   d="m 169.10687,219.2089 c -2.5,0.1 -1.4,1.9 -1.4,2.9 -0.1,1.7 -0.1,2.2 -2,1.4 -4,-1.7 -7.7,0.5 -8.2,4.7 -0.1,1.4 0,2.8 0,4.2 0.1,3.2 2.1,5.1 5.2,5.3 2,0.1 4.1,-0.7 6.2,-0.1 1.8,0.6 2.4,-0.4 2.3,-2.2 -0.2,-2.2 -0.1,-4.4 -0.1,-6.6 0,-2.5 -0.1,-4.9 0.1,-7.4 0.1,-1.8 -0.4,-2.3 -2.1,-2.2 z m -5.1,14.6 c -1.7,0 -2.7,-1.3 -2.7,-3.6 0,-2.3 1,-3.3 3.1,-3.3 2,0 3.1,1 3.1,2.9 0,2 -1.8,4 -3.5,4 z"
   id="path80"
   inkscape:connector-curvature="0"
   style="fill:#fefefd" />
<path
   d="m 53.606866,228.4089 c 0,-2.4 -0.1,-4.8 0.1,-7.2 0.1,-1.4 -0.4,-1.9 -1.9,-1.9 -2.4,-0.1 -1.8,1.4 -1.7,2.6 0.1,1.8 0,2.5 -2.2,1.6 -3.9,-1.7 -7.7,0.7 -8,4.9 -0.1,1.4 -0.1,2.8 0,4.2 0.1,3 2.2,4.8 5.2,5 2,0.1 3.9,-0.8 6,-0.1 1.9,0.7 2.7,-0.3 2.5,-2.4 -0.2,-2.3 0,-4.5 0,-6.7 z m -7,5.5 c -1.8,0 -2.7,-1.3 -2.7,-3.5 0,-2.3 1,-3.4 3,-3.5 2,-0.1 3.2,1 3.2,2.8 -0.1,2 -1.8,4.1 -3.5,4.2 z"
   id="path82"
   inkscape:connector-curvature="0"
   style="fill:#fefefd" />
<path
   d="m 256.70687,206.5089 c -4.4,0.4 -8.8,-0.5 -13.1,-0.4 -5.3,0.1 -5.3,0.1 -5.4,5.4 -0.1,2.1 0.9,2.7 2.6,2.7 2.5,0 5,0 7.5,0 2.6,0 5.1,0 7.8,-0.1 1.3,0 2.2,-0.5 2.1,-2.1 -0.1,-1.3 -0.1,-2.6 0,-3.9 0,-1.1 -0.2,-1.8 -1.5,-1.6 z"
   id="path84"
   inkscape:connector-curvature="0"
   style="fill:#fefdfd" />
<path
   d="m 186.90687,223.3089 c -1.7,0.6 -3.3,0.3 -5.1,0 -2.5,-0.4 -4.7,1 -5.9,3.3 -1.5,3.1 -1.4,7.2 0.5,8.9 2,1.8 4.5,2.7 7.3,1.6 0.6,-0.2 1,-0.3 1.7,0.1 2.2,1.3 3.8,0.2 3.8,-2.4 0,-1.4 0,-2.8 0,-4.2 0,-1.8 -0.1,-3.6 -0.1,-5.3 0.1,-1.7 -0.8,-2.5 -2.2,-2 z m -4.5,10.6 c -1.7,-0.1 -3.5,-2.1 -3.4,-3.8 0.1,-1.9 1.7,-3.6 3.2,-3.5 1.6,0.1 3.4,2.1 3.4,3.7 0,2 -1.4,3.6 -3.2,3.6 z"
   id="path86"
   inkscape:connector-curvature="0"
   style="fill:#fefefd" />
<path
   d="m 143.60687,223.3089 c -2.3,1.1 -4.4,-0.1 -6.6,-0.1 -0.4,0 -0.8,0.1 -1.3,0.2 -3.5,1.4 -5.6,6.3 -4.2,10 1.2,3.2 4.9,4.7 8.7,3.5 0.5,-0.2 0.8,-0.1 1.3,0.2 2.4,1.3 3.8,0.4 3.8,-2.4 0,-1.4 0,-2.8 0,-4.2 0,-1.9 -0.1,-3.6 0.1,-5.5 0.1,-1.3 -0.7,-2.2 -1.8,-1.7 z m -4.9,10.6 c -1.7,-0.1 -3.5,-2.1 -3.4,-3.8 0.1,-1.9 1.7,-3.6 3.2,-3.6 1.6,0.1 3.5,2.1 3.4,3.7 0,2.1 -1.4,3.7 -3.2,3.7 z"
   id="path88"
   inkscape:connector-curvature="0"
   style="fill:#fefefd" />
<path
   d="m 69.206866,225.2089 c -4.7,-4.1 -11,-1.8 -12.1,4.3 -0.5,3 1,6.2 3.6,7.6 2.9,1.5 6.4,1.2 8.3,-0.8 0.5,-0.6 1.9,-1 0.8,-2.3 -1,-1.1 -1.9,-1.3 -3,-0.4 -1.4,1.1 -2.9,0.6 -4.4,0.5 -1,0 -1.6,-1 -1.6,-1.9 0.1,-1.1 1.2,-0.5 1.8,-0.5 1,-0.1 2.1,0 3.1,0 1,0 2,0 3,-0.1 2.3,0 2.7,-0.4 2.4,-2.7 -0.3,-1.3 -0.9,-2.7 -1.9,-3.7 z m -4.5,3.7 c -0.9,-0.6 -2.5,0.5 -2.6,-1 -0.1,-1 1.4,-1.3 2.5,-1.3 1.1,0 2.5,0.3 2.5,1.3 -0.1,1.8 -1.8,0.3 -2.4,1 z"
   id="path90"
   inkscape:connector-curvature="0"
   style="fill:#fefdfd" />
<path
   d="m 222.50687,225.3089 c -4.7,-4.1 -10.9,-1.8 -12.1,4.3 -0.6,3.1 1,6.4 3.8,7.7 3.2,1.5 6.5,1 8.6,-1.4 0.5,-0.5 1.1,-1 0.3,-1.8 -0.7,-0.6 -1.1,-1.6 -2.2,-0.8 -0.4,0.2 -0.8,0.5 -1.1,0.7 -2.2,1.2 -4.8,0.4 -5.9,-2.2 2.9,0 5.5,0 8.1,0.1 2.3,0 2.8,-0.4 2.5,-2.7 -0.3,-1.5 -0.9,-3 -2,-3.9 z m -4.5,3.6 c -0.9,-0.5 -2.5,0.6 -2.6,-0.8 -0.1,-1 1.3,-1.3 2.4,-1.3 1.1,0 2.6,0.2 2.5,1.4 -0.1,1.2 -1.5,0.1 -2.3,0.7 z"
   id="path92"
   inkscape:connector-curvature="0"
   style="fill:#fefdfd" />
<path
   d="m 125.50687,223.3089 c -1.7,0 -2.5,0.3 -2.2,2.2 0.1,0.8 0,1.7 0,2.6 0,1 0,1.9 0,2.9 0.1,1.3 -0.2,2.3 -1.7,2.5 -1.7,0.2 -2,-1 -2.3,-2.3 -0.4,-1.9 -0.5,-3.9 -0.4,-5.9 0.1,-2.3 -1.9,-1.5 -2.8,-1.8 -1.1,-0.4 -1.2,0.9 -1.2,1.8 0.1,2.7 -0.2,5.6 0.8,8.2 0.8,2.3 2.6,3.9 5,4.1 3.5,0.2 5.1,-0.7 6,-3.4 0.9,-2.7 0.8,-5.6 1.1,-8.4 0.2,-2.2 -0.4,-2.5 -2.3,-2.5 z"
   id="path94"
   inkscape:connector-curvature="0"
   style="fill:#fefefd" />
<path
   d="m 234.20687,229.0089 c -1,-0.4 -1.6,-1 -2.1,-1.9 1.1,-0.4 1.7,0.2 2.3,0.6 1.3,0.8 1.7,-0.5 2.5,-1.1 0.8,-0.7 0.2,-1.4 -0.2,-1.9 -1.1,-1 -2.5,-1.9 -4.1,-1.9 -1.6,0 -3.3,0.2 -4.1,1.9 -0.8,1.6 -0.6,3.3 0.7,4.7 0.8,0.9 1.6,1.8 2.7,2.2 1.1,0.4 1.6,1.2 1.9,2.5 -1.4,0.5 -2.6,0.3 -3.6,-0.8 -0.9,-0.8 -1.3,-0.1 -1.8,0.4 -0.5,0.5 -1,1.1 -0.4,1.9 1.3,2.1 6.5,2.7 8.2,1 2.5,-2.6 1.7,-5.9 -2,-7.6 z"
   id="path96"
   inkscape:connector-curvature="0"
   style="fill:#fefdfc" />
<path
   d="m 81.406866,229.1089 c -1,-0.4 -1.7,-1 -2.2,-1.9 1,-0.5 1.6,0.1 2.3,0.5 1.3,0.8 1.7,-0.5 2.5,-1 0.8,-0.7 0.3,-1.4 -0.1,-1.9 -1.8,-2.1 -6.3,-2.4 -7.9,-0.7 -1.5,1.7 -0.7,4.7 1.7,6.7 0.4,0.3 0.8,0.6 1.3,0.8 1.1,0.5 1.7,1.3 1.9,2.5 -1.3,0.4 -2.6,0.3 -3.5,-0.6 -0.8,-0.8 -1.3,-0.2 -1.8,0.3 -0.5,0.5 -1,1.1 -0.5,1.9 1.4,2.5 7.2,2.7 8.8,0.4 1.8,-2.6 0.8,-5.5 -2.5,-7 z"
   id="path98"
   inkscape:connector-curvature="0"
   style="fill:#fefdfc" />
<path
   d="m 153.40687,220.6089 c 0.1,-1.6 -1,-1.4 -1.9,-1.3 -1,0.1 -2.2,-0.5 -2.2,1.3 -0.1,3.4 0.9,6.8 0.5,9.7 0,2.1 0,3.5 0.1,5 0,1.2 -0.2,2.3 1.7,2.3 1.6,-0.1 2.3,-0.5 2.3,-2.3 0.2,-4.9 -0.6,-9.8 -0.5,-14.7 z"
   id="path100"
   inkscape:connector-curvature="0"
   style="fill:#fefefd" />
<path
   d="m 92.806866,230.0089 c 0,-1.4 0.1,-2.8 -0.1,-4.2 -0.1,-1.7 -1.4,-1.6 -2.7,-1.6 -1.4,0 -1.6,0.9 -1.6,2 -0.2,3.2 0.7,6.3 0.4,9.4 -0.2,2.6 1.4,1.9 2.8,2 1.9,0.1 1.9,-1.3 1.6,-2.4 -0.4,-1.8 -0.2,-3.5 -0.4,-5.2 z"
   id="path102"
   inkscape:connector-curvature="0"
   style="fill:#fefdfd" />
<path
   d="m 91.006866,223.0089 c 0.9,0.1 1.9,-0.5 1.9,-1.8 0,-1.6 -1,-2.3 -2.5,-2.3 -1.5,-0.1 -1.9,0.8 -1.9,2 -0.1,1.4 0.7,2.1 2.5,2.1 z"
   id="path104"
   inkscape:connector-curvature="0"
   style="fill:#fdf8f3" />
<path
   d="m 99.906866,237.6089 c 0.800004,0.1 1.600004,0.4 2.400004,0.9 1.1,0.8 2.5,0.6 3.3,-1 -1.7,-0.5 -3.4,0.4 -4.8,-0.7 -1.200004,0.9 -2.800004,-0.3 -3.900004,0.8 0.2,0 0.4,0 0.6,0 0.4,0 0.8,-0.1 1.2,-0.1 0.4,0 0.8,0 1.2,0.1 z"
   id="path106"
   inkscape:connector-curvature="0"
   style="fill:#f1a445" />
<path
   d="m 105.60687,237.5089 c -0.8,1.6 -2.2,1.7 -3.3,1 -0.8,-0.6 -1.6,-0.8 -2.400004,-0.9 0.700004,0.1 1.300004,0.5 1.800004,1.3 0.8,1.2 4.2,0.2 4.7,-1.2 0.3,-0.8 0.1,-1.4 -0.9,-1.1 -1.6,0.6 -3.2,0.2 -4.8,0.3 1.5,1.1 3.3,0.1 4.9,0.6 z"
   id="path108"
   inkscape:connector-curvature="0"
   style="fill:#f1a445" />
<path
   d="m 118.50687,149.6089 c 0,0 0,0 0,0 0,0.1 -0.1,0.1 0,0 z"
   id="path110"
   inkscape:connector-curvature="0"
   style="fill:#fafaf5" />
<path
   d="m 201.10687,156.2089 c 0,0.1 -0.1,0.1 -0.1,0.2 0,-0.1 0,-0.1 0.1,-0.2 0,0 0,-0.1 0.1,-0.1 0,0 0,0 0,0 -0.1,0 -0.1,0.1 -0.1,0.1 z"
   id="path112"
   inkscape:connector-curvature="0"
   style="fill:#fefefd" />
<path
   d="m 200.60687,156.5089 c -0.1,0 -0.2,0 -0.3,-0.1 0,0 0.1,0.1 0.3,0.1 z"
   id="path114"
   inkscape:connector-curvature="0"
   style="fill:#fefefd" />
<path
   d="m 106.60687,112.0089 c 0.2,-0.3 0.3,-0.5 0.4,-0.8 0.1,-0.2 0.1,-0.4 0.1,-0.5 0.1,-0.2 0.2,-0.5 0.4,-0.8 v -0.1 c 0.1,-0.2 0.1,-0.3 0.1,-0.5 0,-0.4 0,-0.7 0.1,-1.1 0.5,-6.4 -0.7,-12.300004 -5.3,-17.200004 -2.3,-0.8 -4.000004,-3 -6.400004,-3 -4.1,-0.1 -8.2,-0.8 -12.1,0.8 -0.9,0.8 -1.7,1.2 -2.7,0 -0.6,-0.8 -1.6,-1 -2.6,-1 -1.5,0.1 -2.9,0.2 -4.4,0 -2,-0.2 -2.6,0.5 -2.6,2.6 0.1,10.000004 0.1,20.100004 0,30.200004 0,0.8 0.1,1.7 -0.1,2.4 -1.3,3.8 -0.5,7.7 -0.8,11.6 -0.1,1.2 0.5,1.6 1.6,1.5 2.2,-0.1 4.4,-0.1 6.6,0 1.7,0.1 2.3,-0.4 2.3,-2.2 -0.1,-3.6 0,-7.2 0.1,-10.8 0.2,-1.3 0.7,-1 1.1,-0.6 0.2,0.1 0.4,0.1 0.6,0.2 0.1,0 0.2,0 0.4,0.1 0.9,0.1 1.9,-0.2 2.6,0.2 3.2,1.4 6.5,0.7 9.7,0.6 1.8,-0.1 3.8,-0.7 5.300004,-2.2 2.3,-2.3 4.3,-4.7 4.8,-7.9 0.2,-0.7 0.4,-1.2 0.8,-1.5 z m -10.200004,-2.3 c -0.8,1.1 -1.7,2 -2.7,3 -1.1,1.1 -2.3,1.7 -3.9,1.4 -1.7,-0.2 -3.3,0.3 -5,-0.4 -3.6,-1.5 -4.4,-2.5 -4.4,-6.3 0,-0.7 -0.1,-1.3 0.1,-2 1.1,-3.8 2.9,-7.000004 7.1,-8.100004 5.6,-0.1 8,1.7 9.7,6.800004 0,2 0.3,3.9 -0.9,5.6 z"
   id="path116"
   inkscape:connector-curvature="0"
   style="fill:#e7cb14" />
<path
   d="m 114.90687,114.8089 c 4.6,7.6 12,9.7 20.1,9.6 3.6,-0.1 7.4,-1.4 9.9,-4.7 0.1,-0.3 0.3,-0.6 0.4,-0.8 0.4,-0.8 0.5,-1.8 1.3,-2.3 0.2,-0.4 0.4,-0.7 0.7,-1.1 0.2,-0.3 0.4,-0.6 0.6,-0.9 1.1,-5.6 0.9,-11.2 -0.4,-16.700004 -1,-4 -4.1,-6.5 -7,-9 -0.8,-0.3 -1.5,-0.6 -2.3,-0.8 -4.4,0.1 -8.8,-0.5 -13.2,0.9 -0.9,0.8 -2,0.9 -3,0.9 -1,0.7 -1.9,1.4 -3.1,1.9 -4.3,3.9 -6,8.700004 -5.8,14.500004 0.1,2.9 1.2,5.6 1.8,8.5 z m 9.1,-14.4 c 0.9,-0.800004 1.6,-1.700004 2.5,-2.400004 0.2,-0.1 0.4,-0.2 0.6,-0.2 0.6,-0.4 1.2,-0.5 1.9,-0.4 3.9,-0.4 7.4,0.4 9.9,3.700004 2,4.7 0.9,11.2 -3.5,12.9 -4.7,1.1 -8.3,-0.4 -11,-4.4 -1.3,-3 -1,-6.1 -0.4,-9.2 z"
   id="path118"
   inkscape:connector-curvature="0"
   style="fill:#e7cb14" />
<path
   d="m 48.206866,198.2089 c 2.1,0 3.5,-1.3 3.5,-3.2 0,-1.4 -1.6,-3.5 -2.8,-3.5 -1.6,-0.1 -3.9,2.5 -3.8,4.4 0.2,2 1.5,2.4 3.1,2.3 z"
   id="path120"
   inkscape:connector-curvature="0"
   style="fill:#6c79b0" />
<path
   d="m 150.00687,198.5089 c 1.8,-0.1 3.5,-2.1 3.5,-4.1 0,-1.8 -1.2,-2.8 -3.2,-2.7 -2.1,0 -3,1.1 -3,3.4 -0.1,2.2 0.9,3.5 2.7,3.4 z"
   id="path122"
   inkscape:connector-curvature="0"
   style="fill:#6b78b0" />
<path
   d="m 185.20687,198.5089 c 1.7,0.1 3.5,-2 3.6,-4 0,-1.9 -1.1,-2.9 -3,-2.9 -2.1,-0.1 -3.1,1 -3.2,3.3 -0.1,2.2 0.8,3.6 2.6,3.6 z"
   id="path124"
   inkscape:connector-curvature="0"
   style="fill:#6b78b0" />
<path
   d="m 167.80687,198.5089 c 1.8,0.1 3.2,-1.4 3.3,-3.6 0.1,-1.6 -1.7,-3.6 -3.3,-3.8 -1.6,-0.1 -3.3,1.8 -3.3,3.7 -0.1,1.7 1.7,3.7 3.3,3.7 z"
   id="path126"
   inkscape:connector-curvature="0"
   style="fill:#6b78af" />
<path
   d="m 203.80687,193.5089 c 0.8,-0.5 2.3,0.7 2.5,-0.8 0.1,-1 -1.3,-1.3 -2.4,-1.3 -1.1,0 -2.6,0.2 -2.5,1.4 0,1.2 1.5,0.3 2.4,0.7 z"
   id="path128"
   inkscape:connector-curvature="0"
   style="fill:#848fbd" />
<path
   d="m 30.806866,191.6089 c -1.7,0.1 -2.7,1 -2.9,2.7 -0.1,1.8 1.7,4.1 3.2,4.1 1.6,-0.1 3,-1.6 3,-3.3 0,-2 -1.4,-3.6 -3.3,-3.5 z"
   id="path130"
   inkscape:connector-curvature="0"
   style="fill:#6b78b0" />
<path
   d="m 67.006866,198.5089 c 1.6,-0.1 2.9,-1.6 2.9,-3.4 0,-2 -1.5,-3.5 -3.3,-3.5 -1.7,0.1 -2.7,1 -2.8,2.7 -0.1,1.9 1.7,4.2 3.2,4.2 z"
   id="path132"
   inkscape:connector-curvature="0"
   style="fill:#6b78b0" />
<path
   d="m 104.10687,226.8089 c -1.7,-0.1 -3.6,2 -3.6,3.9 -0.1,1.4 1.6,2.8 3.3,2.7 1.8,-0.1 2.8,-1.1 2.8,-3.2 0,-2.2 -0.8,-3.4 -2.5,-3.4 z"
   id="path134"
   inkscape:connector-curvature="0"
   style="fill:#ef9930" />
<path
   d="m 199.80687,227.0089 c -2.1,0 -3.1,1 -3.1,3.3 -0.1,2.3 0.9,3.5 2.7,3.6 1.7,-0.1 3.5,-2.1 3.5,-4.1 0,-1.8 -1.1,-2.8 -3.1,-2.8 z"
   id="path136"
   inkscape:connector-curvature="0"
   style="fill:#ef992f" />
<path
   d="m 164.40687,226.9089 c -2.1,0 -3.1,1 -3.1,3.3 0,2.3 1,3.6 2.7,3.6 1.7,0 3.5,-2 3.5,-4.1 0,-1.8 -1.1,-2.8 -3.1,-2.8 z"
   id="path138"
   inkscape:connector-curvature="0"
   style="fill:#ef992f" />
<path
   d="m 46.906866,226.9089 c -2.1,0.1 -3,1.1 -3,3.5 0,2.3 1,3.5 2.7,3.5 1.7,-0.1 3.5,-2.2 3.5,-4.2 -0.1,-1.8 -1.3,-2.9 -3.2,-2.8 z"
   id="path140"
   inkscape:connector-curvature="0"
   style="fill:#ef992f" />
<path
   d="m 182.20687,226.5089 c -1.5,-0.1 -3.1,1.7 -3.2,3.5 -0.1,1.7 1.7,3.8 3.4,3.8 1.8,0 3.2,-1.6 3.2,-3.6 0,-1.6 -1.8,-3.6 -3.4,-3.7 z"
   id="path142"
   inkscape:connector-curvature="0"
   style="fill:#ef982e" />
<path
   d="m 138.40687,226.5089 c -1.5,-0.1 -3.1,1.7 -3.2,3.6 -0.1,1.7 1.7,3.8 3.4,3.8 1.8,0 3.2,-1.6 3.2,-3.7 0.1,-1.6 -1.8,-3.7 -3.4,-3.7 z"
   id="path144"
   inkscape:connector-curvature="0"
   style="fill:#ef992f" />
<path
   d="m 64.606866,226.7089 c -1.1,0 -2.5,0.2 -2.5,1.3 0.1,1.5 1.7,0.4 2.6,1 0.7,-0.8 2.3,0.7 2.3,-1 0.1,-1 -1.4,-1.3 -2.4,-1.3 z"
   id="path146"
   inkscape:connector-curvature="0"
   style="fill:#f2aa52" />
<path
   d="m 217.80687,226.7089 c -1.1,0 -2.5,0.3 -2.4,1.3 0.1,1.4 1.7,0.3 2.6,0.8 0.8,-0.5 2.3,0.5 2.3,-0.7 0,-1.2 -1.4,-1.4 -2.5,-1.4 z"
   id="path148"
   inkscape:connector-curvature="0"
   style="fill:#f2aa52" />
</svg>