<?xml version="1.0" encoding="UTF-8" standalone="no"?>
<!-- Created with Inkscape (http://www.inkscape.org/) -->

<svg
   xmlns:dc="http://purl.org/dc/elements/1.1/"
   xmlns:cc="http://creativecommons.org/ns#"
   xmlns:rdf="http://www.w3.org/1999/02/22-rdf-syntax-ns#"
   xmlns:svg="http://www.w3.org/2000/svg"
   xmlns="http://www.w3.org/2000/svg"
   xmlns:sodipodi="http://sodipodi.sourceforge.net/DTD/sodipodi-0.dtd"
   xmlns:inkscape="http://www.inkscape.org/namespaces/inkscape"
   width="76.8731mm"
   height="39.006882mm"
   viewBox="0 0 76.8731 39.006882"
   version="1.1"
   id="svg1049"
   inkscape:version="0.92.3 (2405546, 2018-03-11)"
   sodipodi:docname="logo_casa_fluminens.svg">
  <defs
     id="defs1043" />
  <sodipodi:namedview
     id="base"
     pagecolor="#ffffff"
     bordercolor="#666666"
     borderopacity="1.0"
     inkscape:pageopacity="0.0"
     inkscape:pageshadow="2"
     inkscape:zoom="1.4"
     inkscape:cx="77.434162"
     inkscape:cy="3.669947"
     inkscape:document-units="mm"
     inkscape:current-layer="layer1"
     showgrid="false"
     inkscape:window-width="1366"
     inkscape:window-height="704"
     inkscape:window-x="0"
     inkscape:window-y="27"
     inkscape:window-maximized="1" />
  <metadata
     id="metadata1046">
    <rdf:RDF>
      <cc:Work
         rdf:about="">
        <dc:format>image/svg+xml</dc:format>
        <dc:type
           rdf:resource="http://purl.org/dc/dcmitype/StillImage" />
        <dc:title></dc:title>
      </cc:Work>
    </rdf:RDF>
  </metadata>
  <g
     inkscape:label="Layer 1"
     inkscape:groupmode="layer"
     id="layer1"
     transform="translate(-31.86702,-32.56799)">
    <path
       d="m 32.646994,71.338123 v -8.971421 h 5.781555 v 0.722771 h -4.934338 v 3.23977 h 4.485781 v 0.722489 h -4.485781 v 4.286391 h -0.847217"
       style="fill:#231f20;fill-opacity:1;fill-rule:nonzero;stroke:none;stroke-width:0.03527778"
       id="path14"
       inkscape:connector-curvature="0" />
    <path
       d="m 39.662318,71.338123 v -8.971421 h 0.847055 v 8.24865 h 4.809772 v 0.722771 h -5.656827"
       style="fill:#231f20;fill-opacity:1;fill-rule:nonzero;stroke:none;stroke-width:0.03527778"
       id="path16"
       inkscape:connector-curvature="0" />
    <path
       d="m 46.602374,62.366702 h 0.847231 v 5.345393 c 0,1.113579 0.207398,1.914774 0.622865,2.4051 0.415501,0.490008 1.084121,0.734907 2.006423,0.734907 0.481648,0 0.890764,-0.06424 1.227138,-0.193077 0.336267,-0.128694 0.6084,-0.324097 0.81608,-0.585539 0.207822,-0.261798 0.357188,-0.58773 0.448557,-0.978255 0.09137,-0.390136 0.137125,-0.851641 0.137125,-1.383136 v -5.345393 h 0.847196 v 5.594668 c 0,1.17122 -0.288678,2.066642 -0.865823,2.685378 -0.577673,0.618773 -1.447623,0.928124 -2.610273,0.928124 -1.171469,0 -2.043606,-0.315701 -2.61687,-0.947137 -0.573264,-0.631121 -0.859649,-1.520084 -0.859649,-2.666365 v -5.594668"
       style="fill:#231f20;fill-opacity:1;fill-rule:nonzero;stroke:none;stroke-width:0.03527778"
       id="path18"
       inkscape:connector-curvature="0" />
    <path
       d="m 55.548607,71.338123 v -8.971421 h 1.295788 l 2.94072,7.912418 h 0.02466 l 2.89126,-7.912418 h 1.282947 v 8.971421 h -0.846807 v -7.999519 h -0.02519 l -2.940333,7.999519 h -0.797877 l -2.952856,-7.999519 h -0.02508 v 7.999519 h -0.847231"
       style="fill:#231f20;fill-opacity:1;fill-rule:nonzero;stroke:none;stroke-width:0.03527778"
       id="path20"
       inkscape:connector-curvature="0" />
    <path
       d="m 66.264232,71.338123 v -8.971421 h 0.84723 v 8.971421 h -0.84723"
       style="fill:#231f20;fill-opacity:1;fill-rule:nonzero;stroke:none;stroke-width:0.03527778"
       id="path22"
       inkscape:connector-curvature="0" />
    <path
       d="m 70.276408,63.513229 h -0.02506 v 7.824894 H 69.40433 v -8.971421 h 0.959202 l 5.183364,7.8377 h 0.0254 v -7.8377 h 0.847019 v 8.971421 h -0.98425 l -5.158669,-7.824894"
       style="fill:#231f20;fill-opacity:1;fill-rule:nonzero;stroke:none;stroke-width:0.03527778"
       id="path24"
       inkscape:connector-curvature="0" />
    <path
       d="m 78.425223,71.338123 v -8.971421 h 5.968645 v 0.722771 h -5.121626 v 3.23977 h 4.6228 v 0.722489 h -4.6228 v 3.56362 h 5.245806 v 0.722771 h -6.092825"
       style="fill:#231f20;fill-opacity:1;fill-rule:nonzero;stroke:none;stroke-width:0.03527778"
       id="path26"
       inkscape:connector-curvature="0" />
    <path
       d="m 86.885537,63.513229 h -0.02506 v 7.824894 h -0.847021 v -8.971421 h 0.959204 l 5.183362,7.8377 h 0.02506 v -7.8377 h 0.847374 v 8.971421 h -0.984605 l -5.158317,-7.824894"
       style="fill:#231f20;fill-opacity:1;fill-rule:nonzero;stroke:none;stroke-width:0.03527778"
       id="path28"
       inkscape:connector-curvature="0" />
    <path
       d="m 95.38325,68.659235 c 0.03316,0.398637 0.122412,0.737235 0.267758,1.015611 0.145344,0.278342 0.331962,0.504084 0.560917,0.679098 0.228245,0.174308 0.49177,0.300953 0.790927,0.379905 0.298802,0.0787 0.618773,0.118253 0.959556,0.118253 0.398637,0 0.743302,-0.04974 1.034344,-0.149649 0.290335,-0.09952 0.52705,-0.234563 0.710141,-0.405024 0.182386,-0.169899 0.317847,-0.367525 0.404637,-0.591574 0.0875,-0.224367 0.13088,-0.461116 0.13088,-0.710388 0,-0.348652 -0.0787,-0.631155 -0.23672,-0.84709 -0.157686,-0.216217 -0.363355,-0.392467 -0.616648,-0.52959 -0.253297,-0.137091 -0.543984,-0.247052 -0.872067,-0.330448 -0.328438,-0.08269 -0.664633,-0.163547 -1.009298,-0.242816 -0.345017,-0.07895 -0.681215,-0.172226 -1.009298,-0.280424 -0.328436,-0.107879 -0.618771,-0.253259 -0.872419,-0.435856 -0.253293,-0.18288 -0.45861,-0.417547 -0.616656,-0.704181 -0.157692,-0.286631 -0.237067,-0.649745 -0.237067,-1.090295 0,-0.307057 0.06456,-0.60607 0.193323,-0.897112 0.128765,-0.290513 0.319969,-0.548182 0.573265,-0.772409 0.253293,-0.224329 0.570793,-0.402801 0.953204,-0.535763 0.382058,-0.132998 0.822679,-0.199424 1.321154,-0.199424 0.506235,0 0.948619,0.07055 1.326796,0.211807 0.377825,0.141253 0.691091,0.334611 0.940501,0.579472 0.24942,0.245004 0.43639,0.52945 0.56092,0.85344 0.12488,0.323815 0.18662,0.66862 0.18662,1.034063 h -0.80963 c 0,-0.34022 -0.06032,-0.635564 -0.180615,-0.884555 -0.12065,-0.249166 -0.285046,-0.452684 -0.49248,-0.610481 -0.207433,-0.157763 -0.444145,-0.274214 -0.710141,-0.349038 -0.265994,-0.07472 -0.540102,-0.111903 -0.821971,-0.111903 -0.432154,0 -0.795866,0.06022 -1.090438,0.180377 -0.295275,0.120578 -0.529518,0.276294 -0.703791,0.467288 -0.174625,0.191135 -0.295275,0.402942 -0.36195,0.635564 -0.06632,0.232622 -0.07867,0.465349 -0.03704,0.69769 0.04939,0.291042 0.166158,0.52324 0.348546,0.697971 0.183092,0.174342 0.407104,0.31764 0.6731,0.429964 0.265642,0.111903 0.558446,0.203517 0.878769,0.273791 0.319616,0.0707 0.645583,0.145415 0.9779,0.224366 0.331965,0.0791 0.65405,0.172509 0.965552,0.280284 0.311504,0.108302 0.587729,0.253717 0.828679,0.436279 0.24094,0.182881 0.43356,0.417547 0.57926,0.703792 0.14534,0.286491 0.21837,0.646007 0.21837,1.078159 0,0.830405 -0.28681,1.474224 -0.86008,1.931035 -0.573258,0.456848 -1.37865,0.685448 -2.416875,0.685448 -0.465666,0 -0.897115,-0.06036 -1.296106,-0.180658 -0.398992,-0.120155 -0.743657,-0.303318 -1.034344,-0.548462 -0.29069,-0.244864 -0.517173,-0.548323 -0.679098,-0.909498 -0.161925,-0.361174 -0.24271,-0.78673 -0.24271,-1.277019 h 0.822325"
       style="fill:#231f20;fill-opacity:1;fill-rule:nonzero;stroke:none;stroke-width:0.03527778"
       id="path30"
       inkscape:connector-curvature="0" />
    <path
       d="m 102.64729,71.338123 v -8.971421 h 5.96865 v 0.722771 h -5.12127 v 3.23977 h 4.6228 v 0.722489 h -4.6228 v 3.56362 h 5.24545 v 0.722771 h -6.09283"
       style="fill:#231f20;fill-opacity:1;fill-rule:nonzero;stroke:none;stroke-width:0.03527778"
       id="path32"
       inkscape:connector-curvature="0" />
    <path
       d="m 34.064719,53.249302 c -0.591178,0.135043 -1.012169,0.385445 -1.262697,0.751734 -0.250388,0.366536 -0.37579,0.845008 -0.37579,1.436193 0,0.417936 0.08337,0.777628 0.250388,1.079677 0.167157,0.302225 0.392052,0.550933 0.674963,0.746901 0.282497,0.196109 0.608679,0.340783 0.978408,0.43367 0.369316,0.09341 0.759576,0.140017 1.170502,0.140017 0.38601,0 0.764963,-0.04039 1.137567,-0.120579 0.372922,-0.08036 0.705274,-0.213607 0.997832,-0.40005 0.292171,-0.186302 0.528497,-0.436845 0.708307,-0.751734 0.179846,-0.314855 0.270122,-0.709966 0.270122,-1.185793 0,-0.29531 -0.04822,-0.565255 -0.144709,-0.809589 -0.09645,-0.244334 -0.229835,-0.4578 -0.400297,-0.640786 -0.170215,-0.183268 -0.370699,-0.337608 -0.602227,-0.462597 -0.231493,-0.125554 -0.485069,-0.220239 -0.761365,-0.284727 v -0.684036 c 0.334186,0.07701 0.650452,0.189477 0.949466,0.337185 0.298626,0.147884 0.560458,0.342159 0.785495,0.583318 0.224896,0.240771 0.403084,0.533329 0.534529,0.877146 0.131762,0.343818 0.197908,0.746901 0.197908,1.209499 0,0.533294 -0.09786,0.989436 -0.293934,1.368813 -0.195968,0.379236 -0.461257,0.68901 -0.795408,0.930169 -0.333904,0.240736 -0.721149,0.416172 -1.160992,0.525039 -0.440443,0.109397 -0.907873,0.16383 -1.402856,0.16383 -0.661462,0 -1.223701,-0.08184 -1.686722,-0.245568 -0.462333,-0.163971 -0.839915,-0.390243 -1.132473,-0.679627 -0.292418,-0.289136 -0.504362,-0.62992 -0.63624,-1.021538 -0.131603,-0.392077 -0.197473,-0.819679 -0.197473,-1.281853 0,-0.353625 0.04658,-0.682978 0.139595,-0.98806 0.09329,-0.305259 0.233164,-0.575064 0.419614,-0.80959 0.186309,-0.234703 0.416165,-0.427637 0.689018,-0.57852 0.273127,-0.150884 0.589802,-0.2552 0.949469,-0.313232 v 0.674688"
       style="fill:#231f20;fill-opacity:1;fill-rule:nonzero;stroke:none;stroke-width:0.03527778"
       id="path34"
       inkscape:connector-curvature="0" />
    <path
       d="m 36.252615,50.135897 v -2.717765 l -3.643517,1.358618 z m 2.737203,1.715664 -6.939791,-2.727396 v -0.742491 l 6.939791,-2.660297 v 0.674934 l -2.17812,0.799959 v 3.161489 l 2.17812,0.819255 v 0.674547"
       style="fill:#231f20;fill-opacity:1;fill-rule:nonzero;stroke:none;stroke-width:0.03527778"
       id="path36"
       inkscape:connector-curvature="0" />
    <path
       d="m 36.917954,44.516958 c 0.307975,-0.02551 0.570089,-0.09469 0.78546,-0.206975 0.214983,-0.112324 0.389855,-0.256998 0.525039,-0.43381 0.135043,-0.176812 0.232904,-0.380612 0.294076,-0.61214 0.06107,-0.231211 0.09179,-0.478579 0.09179,-0.742069 0,-0.308398 -0.03874,-0.575063 -0.115782,-0.799959 -0.07729,-0.225037 -0.18161,-0.408022 -0.313479,-0.549557 -0.131621,-0.141252 -0.284303,-0.245569 -0.457658,-0.31309 -0.173496,-0.06752 -0.356764,-0.101283 -0.54984,-0.101283 -0.269275,0 -0.48768,0.06131 -0.655108,0.183268 -0.166758,0.121991 -0.303601,0.281129 -0.409681,0.477097 -0.105727,0.196109 -0.191135,0.420723 -0.255235,0.674546 -0.06406,0.253965 -0.126788,0.513998 -0.188101,0.780663 -0.06103,0.266664 -0.132962,0.527085 -0.217029,0.780662 -0.08338,0.253823 -0.195689,0.47886 -0.336938,0.674969 -0.141248,0.195933 -0.323148,0.355107 -0.545013,0.477062 -0.221587,0.121955 -0.502296,0.183021 -0.843358,0.183021 -0.237437,0 -0.468534,-0.04964 -0.693843,-0.14926 -0.224621,-0.09948 -0.424159,-0.247368 -0.59738,-0.443301 -0.173633,-0.196109 -0.31185,-0.441678 -0.414789,-0.737658 -0.102664,-0.295205 -0.154065,-0.635988 -0.154065,-1.021433 0,-0.392183 0.05485,-0.734202 0.163711,-1.02676 0.109554,-0.291994 0.259072,-0.534952 0.448553,-0.727463 0.18948,-0.193075 0.409275,-0.337361 0.660079,-0.433811 0.250803,-0.09645 0.517454,-0.144709 0.799951,-0.144709 v 0.626603 c -0.263204,0 -0.491271,0.04657 -0.684194,0.139595 -0.192928,0.09345 -0.350023,0.220203 -0.472395,0.380612 -0.12223,0.160972 -0.211804,0.34424 -0.269681,0.549557 -0.05788,0.20574 -0.08682,0.41783 -0.08682,0.636376 0,0.334045 0.04644,0.615315 0.13987,0.843386 0.09302,0.228071 0.213596,0.40954 0.361047,0.544583 0.148138,0.134761 0.312123,0.228071 0.491959,0.279329 0.179835,0.0514 0.359667,0.06107 0.539503,0.02907 0.224896,-0.03856 0.404728,-0.128553 0.539774,-0.270228 0.134776,-0.141112 0.245707,-0.314467 0.332522,-0.520207 0.08682,-0.205598 0.157787,-0.432293 0.21222,-0.679661 0.05443,-0.247333 0.112307,-0.499534 0.173218,-0.756533 0.06105,-0.256998 0.133395,-0.506024 0.216768,-0.746901 0.08407,-0.241159 0.196356,-0.45473 0.337608,-0.641067 0.141252,-0.186444 0.322756,-0.335528 0.544336,-0.448275 0.221721,-0.112289 0.499816,-0.168522 0.83372,-0.168522 0.642831,0 1.141024,0.221579 1.494331,0.665056 0.353201,0.443301 0.530013,1.066448 0.530013,1.86997 0,0.359975 -0.04688,0.693843 -0.139876,1.002136 -0.09317,0.30868 -0.234421,0.57531 -0.423898,0.800347 -0.189336,0.224895 -0.424286,0.399909 -0.703756,0.524898 -0.27933,0.125553 -0.608824,0.188101 -0.987637,0.188101 v -0.636235"
       style="fill:#231f20;fill-opacity:1;fill-rule:nonzero;stroke:none;stroke-width:0.03527778"
       id="path38"
       inkscape:connector-curvature="0" />
    <path
       d="m 36.252615,37.817955 v -2.7178 l -3.643517,1.358547 z m 2.737203,1.715558 -6.939791,-2.727325 v -0.742244 l 6.939791,-2.660297 v 0.674511 l -2.17812,0.8001 v 3.161594 l 2.17812,0.81915 v 0.674511"
       style="fill:#231f20;fill-opacity:1;fill-rule:nonzero;stroke:none;stroke-width:0.03527778"
       id="path40"
       inkscape:connector-curvature="0" />
    <path
       d="m 106.78432,40.45451 c 0.0822,5.179907 0.35066,12.491897 -0.0226,16.495783 0,0 -2.00484,0.04523 -2.35232,-0.02272 0,0 0.0109,-1.53543 -0.0141,-2.386365 -0.0878,-3.195249 -0.16405,-5.895516 -0.12171,-8.80498 0.0254,-1.962185 0.20637,-4.032003 -0.50589,-5.40632 -1.91734,0.175437 -5.601401,0.21209 -7.292263,0.627698 0.02223,2.929431 0.03634,6.500636 -0.127707,9.808739 -0.02222,0.435469 -0.03104,0.964353 -0.03104,1.521354 l -2.734382,-0.01143 c -0.158043,-3.17253 0.421569,-7.368504 -0.127,-11.567372 -2.991202,-0.05941 -4.368448,0.257422 -7.419268,0.630449 0.616302,2.615495 0.503412,8.807733 -0.09349,11.072813 l -1.540931,-0.01143 c 0.03704,-1.597448 -0.01693,-3.545699 0,-5.530638 0.02011,-1.993477 0.245885,-4.145139 -0.251531,-5.660849 -1.354667,-0.457906 -3.588457,0.110525 -5.282142,0.130104 -0.143933,2.058495 -0.13829,4.280853 -0.13829,6.345027 h -1.999193 c 0,-0.01983 0,-0.03969 0,-0.05937 -0.02257,-3.664373 -0.404284,-7.591601 0.130175,-11.318699 3.254729,-0.355952 29.870052,-0.22613 29.870052,-0.22613 0,0 0.0282,2.745669 0.0536,4.374338"
       style="fill:#f28e2a;fill-opacity:1;fill-rule:nonzero;stroke:none;stroke-width:0.03527778"
       id="path42"
       inkscape:connector-curvature="0" />
    <path
       d="m 96.424295,56.82862 c 0,0 -13.043603,0.01972 -19.818347,-0.149789 -0.367596,-2.310271 0.141817,-5.270571 0.124529,-8.994458 h 1.999191 c 0,1.758809 -0.0056,3.398803 -0.110418,4.716357 2.330098,0.05923 4.04636,0.390243 5.782381,0 l 1.540931,0.01143 c -0.0085,0.03955 -0.01939,0.07923 -0.03104,0.115605 1.77024,0.223661 4.204407,-0.293793 5.909382,-0.251495 h 1.761418 l 2.734382,0.01143 c -0.0024,2.055777 0.107595,4.54092 0.107595,4.54092"
       style="fill:#f28e2a;fill-opacity:1;fill-rule:nonzero;stroke:none;stroke-width:0.03527778"
       id="path44"
       inkscape:connector-curvature="0" />
    <path
       d="m 62.395106,34.923766 c 1.054629,-0.0508 2.386364,0.364772 2.768071,-0.500239 -0.814422,-0.271639 -1.809645,-0.169686 -2.768071,-0.130175 -2.963334,0.132645 -6.299835,0.174978 -9.17829,0.503414 0.75505,0.929922 2.182954,0.409928 3.395909,0.381706 1.241355,-0.03422 4.484406,-0.192617 5.782381,-0.254706 z m 13.328896,1.382536 c 0.0762,6.367675 0.0056,11.782531 -0.441325,17.867242 l -0.0081,2.629712 -1.93675,-0.118922 -0.124883,-1.26365 c -0.02822,-3.789045 -0.344665,-6.769206 -0.505884,-10.439329 -0.0568,-1.289297 0.05927,-2.660862 -0.627591,-3.896396 -2.330098,0.746478 -4.849284,0.237561 -7.295235,1.133828 l -1.507029,-0.03679 c 0.0029,-0.02822 0.0029,-0.05937 0.0029,-0.08763 -1.009404,-0.548464 -2.239434,-0.09327 -3.398804,0 -1.880285,0.138501 -3.599407,-0.43822 -5.027169,0.37331 -0.274391,3.327965 -0.05941,6.053737 -0.345087,9.192225 l -1.74184,-0.161114 c 0.212231,-1.970722 0.110525,-7.054709 -0.4324,-8.779475 -3.121695,0.09342 -4.869039,-0.565538 -6.916244,0.503379 l -1.970757,-0.06791 0.203553,-5.949245 c 1.589016,-0.09349 3.322461,0.248709 4.28378,0.231775 0.489056,-0.305152 0.254529,-1.33738 0.503237,-1.88595 1.116895,-0.01411 2.329851,0.06809 3.268733,-0.124177 0.257281,-0.424039 -0.263066,-1.583267 0.124284,-2.137834 4.343012,-0.672747 9.432678,-0.486127 14.335582,-0.630413 0.777489,-0.02258 1.518322,-0.257175 2.264799,0.130175 0.24906,0.293863 0.294217,0.797277 0.254707,1.379713 0.893233,0.166864 2.081035,-0.302683 3.393016,-0.127 0.259996,0.579614 0.0113,1.665111 0.376061,2.140303 1.159226,0.342195 2.473676,-0.183797 3.268485,0.124178"
       style="fill:#6473b5;fill-opacity:1;fill-rule:nonzero;stroke:none;stroke-width:0.03527778"
       id="path46"
       inkscape:connector-curvature="0" />
    <path
       d="m 65.522303,48.993496 c 0.09617,2.406227 0.07345,7.72213 0.07345,7.72213 -4.778481,0.183691 -11.759776,-0.09052 -16.147872,-0.21209 -1.464699,-0.03969 -4.408206,-0.110244 -4.408206,-0.110244 l -2.03588,-0.138465 0.443971,-13.10005 1.970757,0.06791 c 0.28,3.296708 -0.568325,6.746346 0.381706,9.305078 1.962326,0.393171 4.37141,0.03694 6.786139,-0.251495 0.07359,-0.0678 0.135749,-0.350555 0.180799,-0.777487 l 1.74184,0.161114 c -0.0084,0.121532 -0.02244,0.243205 -0.0339,0.367488 0.514703,0.537316 1.215848,0.300002 1.758809,0.373345 0.0084,0.0028 1.170622,0.166723 1.509924,0.127035 1.642745,-0.192087 3.596534,-0.112994 5.406178,-0.50038 0.554249,-1.077207 0.438221,-2.375041 0.378812,-3.650121 -0.110242,-2.437482 -0.29972,-4.331864 -0.251635,-6.195272 l 1.50703,0.03679 c 0.49209,2.131977 0.644773,4.410851 0.738081,6.774709"
       style="fill:#6473b5;fill-opacity:1;fill-rule:nonzero;stroke:none;stroke-width:0.03527778"
       id="path48"
       inkscape:connector-curvature="0" />
  </g>
</svg>
