<svg width="141" height="36" viewBox="0 0 141 36" xmlns="http://www.w3.org/2000/svg" xmlns:xlink="http://www.w3.org/1999/xlink"><title>Page 1 Copy</title><defs><path id="a" d="M0 35.446h140.617V.436H0z"/></defs><g fill="none" fill-rule="evenodd"><path fill="#FFF" d="M32.34 11.093h2.43l-3.125 8.872H29.26l-3.104-8.872h2.54l1.803 6.544"/><g transform="translate(0 .117)"><path d="M41.46 17.48c.354-.482.532-1.167.532-2.055 0-.89-.178-1.574-.532-2.053-.355-.48-.863-.72-1.525-.72-.66 0-1.17.24-1.528.72-.357.48-.536 1.163-.536 2.053 0 .888.18 1.573.537 2.055.357.483.867.724 1.528.724.662 0 1.17-.24 1.525-.724zm1.81 1.283c-.73.925-1.84 1.386-3.326 1.386-1.488 0-2.597-.462-3.328-1.387-.73-.925-1.095-2.037-1.095-3.338 0-1.28.366-2.39 1.096-3.327.73-.94 1.84-1.407 3.328-1.407 1.487 0 2.596.47 3.326 1.408s1.096 2.047 1.096 3.327c0 1.3-.365 2.413-1.096 3.338zM45.097 12.71v-1.653h1.206V8.583h2.24v2.474h1.405v1.652h-1.405v4.688c0 .364.045.59.135.68.09.09.365.134.825.134.07 0 .142 0 .22-.004.076-.002.15-.007.225-.012v1.734l-1.072.04c-1.07.038-1.8-.152-2.19-.57-.256-.265-.383-.675-.383-1.23v-5.46h-1.206zM56.213 15.534c-.145.092-.292.167-.44.224-.147.057-.35.11-.607.16l-.515.097c-.482.086-.83.192-1.04.316-.355.214-.534.542-.534.987 0 .396.11.683.327.858.218.177.482.266.794.266.494 0 .95-.146 1.366-.44.417-.293.633-.827.65-1.603v-.863zM54.83 14.45c.42-.053.72-.12.903-.202.325-.14.488-.36.488-.66 0-.363-.124-.614-.374-.752-.25-.14-.615-.208-1.098-.208-.542 0-.926.136-1.15.407-.162.2-.27.472-.323.814h-2.183c.047-.777.26-1.414.637-1.914.6-.78 1.63-1.172 3.094-1.172.95 0 1.796.192 2.536.578.738.385 1.108 1.112 1.108 2.18v4.07c0 .284.005.625.015 1.027.016.303.06.51.135.618.075.108.186.198.334.268v.342h-2.46c-.07-.18-.118-.346-.144-.505-.027-.157-.048-.336-.064-.537-.314.348-.676.644-1.086.888-.49.288-1.044.43-1.662.43-.787 0-1.438-.23-1.952-.687-.513-.458-.77-1.108-.77-1.95 0-1.09.413-1.88 1.24-2.368.452-.267 1.12-.457 2-.57l.775-.1z" fill="#FFF"/><mask id="b" fill="#fff"><use xlink:href="#a"/></mask><path d="M60.477 19.848h2.294v-8.872h-2.293v8.872zm0-9.93h2.294v-2.14h-2.293v2.14zM71.942 11.485c.566.48.85 1.276.85 2.388v5.975h-2.32V14.45c0-.465-.06-.824-.18-1.073-.22-.456-.642-.684-1.262-.684-.76 0-1.284.334-1.568 1.002-.147.352-.22.802-.22 1.35v4.803h-2.263v-8.856h2.19v1.294c.29-.456.564-.784.822-.985.463-.357 1.052-.536 1.763-.536.89 0 1.62.24 2.187.72M74.006 12.71v-1.653h1.207V8.583h2.24v2.474h1.404v1.652h-1.405v4.688c0 .364.045.59.135.68.09.09.366.134.826.134.068 0 .14 0 .22-.004.075-.002.15-.007.224-.012v1.734l-1.07.04c-1.07.038-1.8-.152-2.193-.57-.254-.265-.38-.675-.38-1.23v-5.46h-1.208zM82.565 13.16c-.32.337-.52.795-.603 1.373h3.9c-.043-.616-.243-1.084-.605-1.402-.36-.318-.807-.477-1.34-.477-.582 0-1.032.168-1.352.506m3.386-2.005c.604.277 1.103.715 1.496 1.313.354.527.584 1.138.69 1.834.06.408.085.995.074 1.76h-6.304c.036.89.338 1.515.906 1.873.346.223.76.335 1.248.335.515 0 .934-.137 1.256-.408.176-.146.33-.35.465-.61h2.312c-.062.526-.34 1.06-.84 1.603-.775.863-1.86 1.294-3.255 1.294-1.152 0-2.168-.365-3.048-1.092-.88-.728-1.322-1.912-1.322-3.553 0-1.537.397-2.715 1.193-3.535.795-.82 1.827-1.23 3.095-1.23.753 0 1.432.138 2.036.415M89.403 19.848h2.262V7.85h-2.262M93.904 19.848H96.2v-8.872h-2.296v8.872zm0-9.93H96.2v-2.14h-2.296v2.14zM103.442 17.33c.364-.41.546-1.063.546-1.96 0-.84-.173-1.48-.518-1.92-.346-.44-.808-.66-1.388-.66-.79 0-1.336.383-1.636 1.15-.16.405-.237.908-.237 1.505 0 .515.083.974.25 1.375.307.75.855 1.124 1.646 1.124.527 0 .973-.205 1.336-.615m-.77-6.363c.55.234.994.662 1.332 1.286v-1.277h2.207v8.417c0 1.145-.187 2.007-.563 2.588-.645 1-1.884 1.5-3.716 1.5-1.105 0-2.008-.224-2.706-.67-.7-.444-1.085-1.108-1.16-1.993h2.462c.063.27.167.467.31.586.243.21.653.318 1.23.318.815 0 1.36-.28 1.636-.838.18-.358.27-.96.27-1.807v-.57c-.217.38-.45.665-.7.855-.45.353-1.034.53-1.753.53-1.113 0-2-.402-2.665-1.202-.665-.8-.997-1.884-.997-3.252 0-1.318.32-2.427.96-3.325.64-.897 1.546-1.346 2.72-1.346.433 0 .81.068 1.133.203M110.577 13.16c-.32.337-.52.795-.603 1.373h3.9c-.042-.616-.243-1.084-.603-1.402-.36-.318-.808-.477-1.342-.477-.58 0-1.03.168-1.35.506m3.385-2.005c.603.277 1.102.715 1.495 1.313.355.527.585 1.138.69 1.834.06.408.085.995.075 1.76h-6.304c.034.89.336 1.515.904 1.873.346.223.762.335 1.248.335.515 0 .934-.137 1.256-.408.176-.146.332-.35.466-.61h2.31c-.06.526-.34 1.06-.838 1.603-.776.863-1.86 1.294-3.256 1.294-1.153 0-2.17-.365-3.05-1.092-.88-.728-1.32-1.912-1.32-3.553 0-1.537.397-2.715 1.193-3.535.794-.82 1.826-1.23 3.095-1.23.753 0 1.43.138 2.035.415M124.346 11.485c.566.48.85 1.276.85 2.388v5.975h-2.32V14.45c0-.465-.06-.824-.18-1.073-.22-.456-.64-.684-1.262-.684-.76 0-1.284.334-1.568 1.002-.147.352-.22.802-.22 1.35v4.803h-2.264v-8.856h2.192v1.294c.29-.456.564-.784.822-.985.464-.357 1.052-.536 1.763-.536.89 0 1.62.24 2.186.72M126.41 12.71v-1.653h1.207V8.583h2.24v2.474h1.405v1.652h-1.405v4.688c0 .364.044.59.135.68.09.09.365.134.825.134.07 0 .142 0 .22-.004.075-.002.15-.007.225-.012v1.734l-1.072.04c-1.07.038-1.8-.152-2.19-.57-.256-.265-.383-.675-.383-1.23v-5.46h-1.206zM134.97 13.16c-.32.337-.52.795-.604 1.373h3.9c-.042-.616-.243-1.084-.604-1.402-.36-.318-.808-.477-1.342-.477-.58 0-1.03.168-1.35.506m3.384-2.005c.604.277 1.103.715 1.496 1.313.355.527.584 1.138.69 1.834.06.408.086.995.074 1.76h-6.303c.036.89.337 1.515.906 1.873.345.223.76.335 1.248.335.516 0 .934-.137 1.256-.408.176-.146.33-.35.466-.61h2.31c-.06.526-.34 1.06-.84 1.603-.774.863-1.86 1.294-3.255 1.294-1.15 0-2.166-.365-3.047-1.092-.88-.728-1.32-1.912-1.32-3.553 0-1.537.397-2.715 1.19-3.535.796-.82 1.827-1.23 3.096-1.23.752 0 1.43.138 2.034.415M11.69 28.043V16.118c-.52.238-1.13.375-1.838.375h-.917l-5.242 5.375 10.31 10.57v-3.635h-1.57c-.394 0-.742-.357-.742-.76" fill="#FFF" mask="url(#b)"/><path d="M16.18 24.425c-.84 0-1.522-.697-1.522-1.562 0-.86.682-1.56 1.523-1.56.843 0 1.524.7 1.524 1.56 0 .865-.68 1.562-1.523 1.562zm3.435-5.232c-1.368 1.03-3.4 1.164-5.086-.56l-1.355-1.39v10.04h1.57c.395 0 .74.354.74.76v2.147c.637.012 1.66-.058 2.284-.523.883-.66 1.69.463 1.05 1.07-.957.906-2.5 1.003-3.334.983v2.236l1.454 1.49 9.265-9.496-6.59-6.757zM14.964 5.114c3.33.012 3.504-4.67-.002-4.675L7.306.436c.386.31.772.672 1.184 1.092l3.49 3.578 2.984.006z" fill="#FFF" mask="url(#b)"/><path d="M18.803 14.252L7.44 2.604C6.014 1.14 5.084.574 3.143.472c-.217-.01-.446-.015-.69-.015H0v5.897h4.652L7.016 8.78h2.836c3.932 0 4.947 3.987 3.24 6.228l2.485 2.55c2.357 2.413 5.706-.762 3.226-3.306" fill="#FFF" mask="url(#b)"/><path d="M9.852 14.973c3.34 0 3.517-4.675 0-4.675H0v4.675h9.852z" fill="#FFF" mask="url(#b)"/></g></g></svg>