<?xml version="1.0" encoding="UTF-8" standalone="no"?>
<svg width="369px" height="139px" viewBox="0 0 369 139" version="1.1" xmlns="http://www.w3.org/2000/svg" xmlns:xlink="http://www.w3.org/1999/xlink">
    <!-- Generator: Sketch 41.2 (35397) - http://www.bohemiancoding.com/sketch -->
    <title>Group</title>
    <desc>Created with Sketch.</desc>
    <defs>
        <polygon id="path-1" points="129.138378 0.286561209 22.8065865 1.94586966 0.161878261 1.1342722 0.161878261 110.498262 42.037802 112.48881 129.138378 110.494238 129.138378 0.286561209"></polygon>
    </defs>
    <g id="Page-1" stroke="none" stroke-width="1" fill="none" fill-rule="evenodd">
        <g id="Paso-1-Copy-47" transform="translate(-271.000000, -134.000000)">
            <g id="Group" transform="translate(271.000000, 134.025853)">
                <polygon id="Fill-1" fill="#FFC200" points="157.023085 14.9844829 47.6298308 16.6926377 2.92392142e-05 14.9844829 5.84933389 124.334171 66.8490582 127.235578 154.232494 125.233569 304.163579 127.867729 368.374646 127.867729 368.374646 14.3040864 289.565317 11.9158274"></polygon>
                <g id="Group-4" transform="translate(24.853331, 14.746797)">
                    <mask id="mask-2" fill="white">
                        <use xlink:href="#path-1"></use>
                    </mask>
                    <g id="Clip-3"></g>
                    <path d="M63.1938933,39.7071443 C63.1938933,39.7071443 49.7710476,-1.45084977 25.8922592,3.42537386 C7.68997162,7.14197028 -2.465392,33.2651608 0.752091048,44.9710799 C13.5357676,91.4842358 89.3571415,124.153501 89.3571415,124.153501 C89.3571415,124.153501 134.250153,46.831571 128.655814,19.434428 C121.651853,-14.8646313 92.0237578,-16.4090466 78.1222662,-11.3506627 C60.2959949,-4.86423555 63.1938933,39.7071443 63.1938933,39.7071443" id="Fill-2" fill="#E2A700" mask="url(#mask-2)"></path>
                </g>
                <g id="Group-29" transform="translate(16.373960, 0.127191)">
                    <path d="M25.9662344,17.2805798 C7.76394683,20.9974686 -2.39141679,47.1206591 0.826066258,58.8265782 C13.6097428,105.339734 89.4311167,138.009 89.4311167,138.009 C89.4311167,138.009 134.324128,60.6870694 128.729789,33.2899264 C121.725828,-1.00913297 92.097733,-2.55354823 78.1962414,2.5048357 C60.3699701,8.99126281 63.2678685,53.5626426 63.2678685,53.5626426 C63.2678685,53.5626426 49.8447304,12.4046486 25.9662344,17.2805798 Z" id="Fill-5" fill="#FFFFFF"></path>
                    <path d="M68.2980659,46.6745857 C68.2980659,46.6745857 56.9684554,11.9351838 36.8135732,16.0508955 C21.4498285,19.1879707 12.8783531,41.2369691 15.5940912,51.1174842 C26.3839458,90.3769761 90.3812742,117.951309 90.3812742,117.951309 C90.3812742,117.951309 128.272956,52.6879223 123.551115,29.5635056 C117.639531,0.613467937 92.6318165,-0.69030859 80.8984125,3.57920136 C65.8519133,9.05424408 68.2980659,46.6745857 68.2980659,46.6745857" id="Fill-7" fill="#FFCF01"></path>
                    <path d="M84.9177225,2.45998275 C83.4595629,2.75793033 82.1095885,3.1383325 80.8985002,3.57925984 C65.852001,9.05430256 68.2981536,46.6746442 68.2981536,46.6746442 C68.2981536,46.6746442 56.9685432,11.9352423 36.8133685,16.0506616 C21.4499162,19.1880292 12.8784408,41.2370276 15.5938866,51.1175426 C26.3840335,90.3770345 90.3813619,117.951075 90.3813619,117.951075 C90.3813619,117.951075 128.273043,52.6879808 123.551203,29.5632717 C118.249841,3.60118925 97.5879509,-0.127395253 84.9177225,2.45998275" id="Fill-9" fill="#FFD379"></path>
                    <path d="M107.288148,12.1705887 C112.993595,16.1266543 116.782997,22.5437844 118.569513,31.2918647 C119.542302,36.0563945 71.3970132,60.4945292 71.8885243,54.4116032 C86.2648608,40.0545646 98.4535193,25.9323169 107.288148,12.1705887" id="Fill-11" fill="#FFA800"></path>
                    <path d="M72.4102396,57.169592 C82.3974778,57.2438596 106.747602,46.5794413 115.643925,39.7017935 C121.229785,35.3834541 113.013858,68.001551 106.698188,74.2444155 C100.382518,80.4875723 71.8734077,59.5590205 72.4102396,57.169592" id="Fill-13" fill="#FFA800"></path>
                    <path d="M49.9100508,87.9438642 C41.6789199,85.6363054 18.7966038,61.4370552 25.4786413,62.4364515 C36.1208378,64.0279419 63.7390292,61.8399716 67.9158509,58.4637196 C71.0792414,55.9067504 58.1411818,90.2511305 49.9100508,87.9438642" id="Fill-15" fill="#FFA800"></path>
                    <path d="M85.9635215,7.58140642 C88.8634667,6.98931234 91.994694,6.84077714 95.0186135,7.15188237 C98.4934016,7.50977034 101.712347,8.44864149 104.586269,9.94305769 C103.05852,17.1920435 70.9798865,53.0632953 70.9798865,53.0632953 C71.6363069,44.9368407 73.466974,33.1236137 74.1590662,27.6965233 C75.5274614,16.9651472 78.6352974,9.96469471 82.6858056,8.49074596 C83.6849096,8.12730253 84.7878127,7.82116797 85.9635215,7.58140642" id="Fill-17" fill="#FFA800"></path>
                    <path d="M67.5226712,56.1130915 C69.9082986,60.4188581 23.1545039,61.3141628 21.3864087,56.7095715 C17.3540287,49.6573656 17.8551888,37.8532027 23.8237895,33.1983199 C35.4165528,40.4107567 51.2896446,50.2781141 67.5226712,56.1130915" id="Fill-19" fill="#FFA800"></path>
                    <path d="M39.428056,22.8471998 C40.4499665,22.6384318 41.4347432,22.502177 42.3551936,22.4419443 C46.0869944,22.1980892 50.8719917,26.3208183 55.4830157,33.7525492 C57.814843,37.5106653 69.9473622,52.2445974 68.9663866,54.2556705 C67.985411,56.267036 28.8610042,35.5007618 25.2619494,30.6783383 C27.0782894,28.6400727 29.3531002,26.8968308 32.0235176,25.4968573 C34.3474502,24.2781669 36.9076358,23.3621023 39.428056,22.8471998" id="Fill-21" fill="#FFA800"></path>
                    <path d="M102.781186,81.1954245 C106.55246,79.196047 96.4497268,104.369548 89.8130101,110.396042 C80.1351229,100.325472 71.3253478,59.5911544 71.3253478,59.5911544 C71.3253478,59.5911544 99.0099123,83.1948019 102.781186,81.1954245" id="Fill-23" fill="#FFA800"></path>
                    <path d="M55.0530531,89.46635 C50.7999171,89.1055381 77.6166617,108.46102 86.0849227,111.40307 C77.2213475,104.116366 70.3165073,59.7970277 70.3165073,59.7970277 C70.3165073,59.7970277 59.306189,89.8268695 55.0530531,89.46635" id="Fill-25" fill="#FFA800"></path>
                    <path d="M91.9084383,0.0240346335 C89.407316,0.0240346335 86.9377721,0.269351634 84.5691034,0.752968225 C83.0586056,1.06144193 81.6232526,1.46143437 80.3028097,1.94183464 C73.3991391,4.45377547 68.999807,12.8720374 67.2270335,26.9627068 C66.7478028,30.7728687 66.5308478,34.464027 66.4481008,37.608412 C65.3668347,35.3432501 64.039082,32.8169821 62.4692287,30.2784336 C59.5915053,25.6238432 56.4930258,21.9005217 53.260046,19.2116837 C49.0791309,15.7339716 44.6552379,13.9702623 40.1120489,13.9696775 C38.9065161,13.9696775 37.6802235,14.0954061 36.4650418,14.3439394 C29.8733535,15.6898204 23.7790243,20.4449937 19.3045474,27.7337448 C14.4467445,35.6467532 12.2301197,45.4524158 13.914006,51.5792006 C16.4502154,60.806804 22.0486476,70.1358674 30.5540424,79.3076239 C37.2936811,86.5753228 45.8733435,93.771678 56.0541452,100.697278 C73.3397835,112.455828 89.5304131,119.481718 89.6918136,119.551308 L91.1116698,120.163284 L91.8879709,118.826175 C91.9829983,118.662143 101.503579,102.219764 110.318324,83.160475 C122.266052,57.3267528 127.292565,39.1770958 125.2581,29.214711 C123.163988,18.9590569 118.5977,11.2039403 111.686427,6.16543903 C104.724278,1.08951157 97.088165,0.0240346335 91.9084383,0.0240346335 M91.9084383,1.76639936 C104.128675,1.76639936 119.145058,7.98558006 123.551115,29.5632424 C128.273248,52.6879516 90.3812742,117.951046 90.3812742,117.951046 C90.3812742,117.951046 26.3839458,90.3770053 15.5940912,51.1175134 C12.8783531,41.2369984 21.4498285,19.1879999 36.8135732,16.0509247 C37.9416221,15.8202273 39.0392621,15.7117498 40.1117565,15.7120422 C58.1982568,15.7149661 68.2980659,46.6746149 68.2980659,46.6746149 C68.2980659,46.6746149 65.8519133,9.05427332 80.8984125,3.57893821 C82.1095007,3.13830326 83.4594752,2.75790109 84.9176348,2.45995351 C87.0576528,2.02311966 89.4251519,1.76639936 91.9084383,1.76639936" id="Fill-27" fill="#FFB100"></path>
                </g>
                <path d="M163.614265,48.2080357 L166.334581,48.2080357 L166.334581,34.6748887 L162.348205,37.0530271 L162.348205,31.0991268 L169.499729,26.8903352 L171.980521,26.924553 L171.980521,48.2080357 L174.717947,48.2080357 L174.717947,52.8958767 L163.614265,52.8958767 L163.614265,48.2080357 Z M186.43506,26.2744145 L190.81494,26.2744145 L180.925991,52.8958767 L176.443457,52.8958767 L186.43506,26.2744145 Z M191.599461,48.4475604 L200.564529,38.9178981 C201.340137,38.1651024 201.938943,37.4123179 202.360965,36.6595222 C202.782987,35.9067264 202.993994,35.1425361 202.993994,34.3669284 C202.993994,34.0361545 202.925559,33.708237 202.788687,33.3831661 C202.651815,33.0580952 202.455065,32.7672467 202.19843,32.5106118 C201.941795,32.2539769 201.628135,32.048672 201.25744,31.8946911 C200.886745,31.7407101 200.467581,31.6637208 199.999935,31.6637208 C199.441041,31.6637208 198.953442,31.7521159 198.537124,31.9289089 C198.120805,32.1057018 197.772927,32.3480756 197.49348,32.6560375 C197.214033,32.9639994 197.000174,33.3232829 196.851896,33.7338988 C196.703618,34.1445146 196.623777,34.577936 196.612371,35.0341758 L191.46259,35.0341758 C191.46259,33.6882683 191.685003,32.4878052 192.129837,31.4327505 C192.574671,30.3776959 193.187734,29.4880415 193.969045,28.7637607 C194.750356,28.03948 195.665673,27.4891489 196.715025,27.112751 C197.764376,26.7363531 198.88785,26.548157 200.08548,26.548157 C201.214673,26.548157 202.289672,26.7192444 203.310509,27.0614243 C204.331346,27.4036042 205.232406,27.9054605 206.013717,28.5670083 C206.795027,29.2285561 207.413793,30.0440726 207.870033,31.0135822 C208.326273,31.9830919 208.55439,33.1008628 208.55439,34.3669284 C208.55439,35.3820621 208.346233,36.3201912 207.929914,37.1813439 C207.513596,38.0424966 206.951859,38.8665675 206.244687,39.6535812 L198.853638,47.6434417 L208.520172,47.6434417 L208.520172,52.8958767 L191.599461,52.8958767 L191.599461,48.4475604 Z" id="1/2" fill="#FFFFFF"></path>
                <path d="M179.970382,56.6018032 L189.825113,56.6018032 L189.825113,61.3067532 L187.720717,61.3067532 L187.720717,82.5389091 L182.04056,82.5389091 L171.244838,65.7721784 L171.244838,77.851068 L173.417669,77.851068 L173.417669,82.5389091 L163.580047,82.5389091 L163.580047,77.851068 L165.71866,77.851068 L165.71866,61.3067532 L163.614265,61.3067532 L163.614265,56.6018032 L171.450145,56.6018032 L182.177431,73.5909497 L182.177431,61.3067532 L179.970382,61.3067532 L179.970382,56.6018032 Z M205.990543,77.851068 L208.573988,77.851068 L207.410582,74.1213259 L199.437831,74.1213259 L198.274425,77.851068 L201.01185,77.851068 L201.01185,82.5389091 L191.174228,82.5389091 L191.174228,77.851068 L193.107534,77.851068 L200.173514,56.6018032 L207.034186,56.6018032 L213.946185,77.851068 L215.828165,77.851068 L215.828165,82.5389091 L205.990543,82.5389091 L205.990543,77.851068 Z M200.789434,69.7414452 L206.02476,69.7414452 L203.389988,61.3067532 L200.789434,69.7414452 Z M218.169596,56.6018032 L231.890941,56.6018032 C233.225443,56.6018032 234.417352,56.8014052 235.466703,57.200615 C236.516055,57.5998249 237.400006,58.1330472 238.118584,58.800298 C238.837162,59.4675488 239.387493,60.2431449 239.769594,61.1271096 C240.151695,62.0110743 240.342742,62.9320947 240.342742,63.8901984 C240.342742,64.7684601 240.248644,65.5383533 240.060445,66.1999011 C239.872246,66.8614489 239.598507,67.4488489 239.239218,67.9621187 C238.879929,68.4753885 238.437953,68.9287701 237.913277,69.322277 C237.388601,69.7157838 236.789796,70.0722159 236.116842,70.3915838 C236.698548,70.6881397 237.21181,71.1415212 237.656644,71.751742 C238.101477,72.3619628 238.437949,73.1518162 238.666069,74.1213259 L239.538624,77.4917809 L241.677237,77.4917809 L241.711455,82.5389091 L234.183535,82.5389091 L233.157001,76.3797019 C233.054347,75.6497181 232.897517,75.0195463 232.686506,74.4891674 C232.475495,73.9587886 232.193201,73.5253672 231.839615,73.1888904 C231.486029,72.8524135 231.055459,72.6043368 230.547892,72.4446528 C230.040325,72.2849689 229.438668,72.2051281 228.742902,72.2051281 L226.535853,72.2051281 L226.535853,77.851068 L228.913991,77.851068 L228.913991,82.5389091 L218.169596,82.5389091 L218.169596,77.851068 L220.855695,77.851068 L220.855695,61.3067532 L218.169596,61.3067532 L218.169596,56.6018032 Z M226.535853,61.3067532 L226.535853,67.5857227 L229.940526,67.5857227 C230.590668,67.5857227 231.175216,67.5258421 231.694189,67.4060792 C232.213162,67.2863162 232.657989,67.0981201 233.028684,66.8414852 C233.399379,66.5848503 233.684524,66.2626357 233.884129,65.8748318 C234.083734,65.4870279 234.183535,65.025092 234.183535,64.4890102 C234.183535,63.4852825 233.824252,62.7039835 233.105674,62.1450897 C232.387096,61.5861959 231.332057,61.3067532 229.940526,61.3067532 L226.535853,61.3067532 Z M257.705796,77.851068 L260.289241,77.851068 L259.125835,74.1213259 L251.153083,74.1213259 L249.989678,77.851068 L252.727103,77.851068 L252.727103,82.5389091 L242.88948,82.5389091 L242.88948,77.851068 L244.822787,77.851068 L251.888767,56.6018032 L258.749439,56.6018032 L265.661438,77.851068 L267.543418,77.851068 L267.543418,82.5389091 L257.705796,82.5389091 L257.705796,77.851068 Z M252.504687,69.7414452 L257.740013,69.7414452 L255.105241,61.3067532 L252.504687,69.7414452 Z M286.275184,56.6018032 L296.129916,56.6018032 L296.129916,61.3067532 L294.02552,61.3067532 L294.02552,82.5389091 L288.345362,82.5389091 L277.549641,65.7721784 L277.549641,77.851068 L279.722472,77.851068 L279.722472,82.5389091 L269.884849,82.5389091 L269.884849,77.851068 L272.023463,77.851068 L272.023463,61.3067532 L269.919067,61.3067532 L269.919067,56.6018032 L277.754947,56.6018032 L288.482233,73.5909497 L288.482233,61.3067532 L286.275184,61.3067532 L286.275184,56.6018032 Z M298.42002,56.6018032 L308.223425,56.6018032 L308.223425,61.8029115 L306.40988,61.8029115 L306.40988,79.5961767 C306.158949,80.5200624 305.793962,81.3669449 305.31491,82.1368497 C304.835858,82.9067544 304.365368,83.6053612 303.903425,84.232691 C303.441482,84.8600208 302.794202,85.6527257 301.961564,86.6108294 L297.188179,86.3541957 C297.861132,85.3276561 298.388652,84.4807735 298.770753,83.8135228 C299.152854,83.146272 299.5378,82.4105963 299.925604,81.6064735 C300.313408,80.8023508 300.615662,79.9440624 300.832376,79.0315827 L300.832376,61.8029115 L298.42002,61.8029115 L298.42002,56.6018032 Z M324.046676,77.851068 L326.630121,77.851068 L325.466716,74.1213259 L317.493964,74.1213259 L316.330558,77.851068 L319.067984,77.851068 L319.067984,82.5389091 L309.230361,82.5389091 L309.230361,77.851068 L311.163668,77.851068 L318.229647,56.6018032 L325.09032,56.6018032 L332.002319,77.851068 L333.884299,77.851068 L333.884299,82.5389091 L324.046676,82.5389091 L324.046676,77.851068 Z M318.845568,69.7414452 L324.080894,69.7414452 L321.446122,61.3067532 L318.845568,69.7414452 Z" id="NARANJA" fill="#FFFFFF"></path>
                <path d="M164.093314,86.2448356 L174.581075,86.2448356 C175.744487,86.2448356 176.813783,86.3959628 177.788996,86.6982217 C178.764208,87.0004806 179.608239,87.4453078 180.321114,88.0327166 C181.033989,88.6201254 181.587171,89.3529496 181.980678,90.2312114 C182.374185,91.1094731 182.570936,92.1188886 182.570936,93.2594882 C182.570936,94.2061859 182.377037,95.0986917 181.989233,95.9370325 C181.601429,96.7753732 181.053949,97.5081975 180.346778,98.1355272 C179.639606,98.762857 178.792723,99.2590104 177.806105,99.6240023 C176.819486,99.9889942 175.721675,100.171487 174.51264,100.171487 L169.910343,100.171487 L169.910343,109.239209 L172.510897,109.239209 L172.510897,112.181941 L164.093314,112.181941 L164.093314,109.239209 L166.556997,109.239209 L166.556997,89.2046768 L164.093314,89.2046768 L164.093314,86.2448356 Z M169.910343,89.2046768 L169.910343,97.3656263 L174.581075,97.3656263 C175.231217,97.3656263 175.827171,97.2772312 176.368956,97.1004383 C176.910741,96.9236453 177.37838,96.6641628 177.771887,96.3219829 C178.165394,95.979803 178.473351,95.5520846 178.695768,95.0388147 C178.918185,94.5255449 179.029392,93.932442 179.029392,93.2594882 C179.029392,91.9820166 178.641594,90.9868584 177.865986,90.2739836 C177.090378,89.5611089 175.852846,89.2046768 174.153353,89.2046768 L169.910343,89.2046768 Z M197.09391,112.695209 C195.303169,112.695209 193.666433,112.361588 192.183653,111.694338 C190.700874,111.027087 189.377798,110.077552 188.214386,108.845704 C187.050975,107.613857 186.167023,106.153911 185.562505,104.465824 C184.957988,102.777736 184.655733,101.026942 184.655733,99.2133885 C184.655733,97.3428051 184.960839,95.586308 185.57106,93.9438446 C186.181281,92.3013811 187.036718,90.8728015 188.137396,89.6580629 C189.238075,88.4433243 190.549745,87.485235 192.072445,86.7837662 C193.595146,86.0822974 195.268951,85.7315683 197.09391,85.7315683 C198.930275,85.7315683 200.612635,86.0822974 202.141038,86.7837662 C203.669442,87.485235 204.981112,88.4433243 206.076087,89.6580629 C207.171063,90.8728015 208.020797,92.3013811 208.625315,93.9438446 C209.229832,95.586308 209.532087,97.3428051 209.532087,99.2133885 C209.532087,101.083972 209.226981,102.837618 208.61676,104.474378 C208.006539,106.111138 207.151102,107.539718 206.050424,108.76016 C204.949745,109.980601 203.638075,110.941542 202.115375,111.643011 C200.592674,112.34448 198.918869,112.695209 197.09391,112.695209 Z M197.09391,109.512952 C198.451224,109.512952 199.680201,109.233509 200.78088,108.674615 C201.881559,108.115721 202.819688,107.365788 203.595295,106.424794 C204.370903,105.483799 204.969709,104.391691 205.391731,103.148438 C205.813753,101.905184 206.02476,100.593514 206.02476,99.2133885 C206.02476,97.799045 205.793792,96.4331974 205.33185,95.1158048 C204.869907,93.7984123 204.225478,92.6834929 203.398543,91.7710131 C202.571608,90.8585334 201.610667,90.1542237 200.515692,89.6580629 C199.420716,89.1619021 198.280134,88.9138254 197.09391,88.9138254 C195.736596,88.9138254 194.504767,89.1932681 193.398386,89.7521619 C192.292004,90.3110557 191.351023,91.0609887 190.575416,92.0019834 C189.799808,92.9429781 189.201002,94.0379373 188.77898,95.2868939 C188.356958,96.5358505 188.145951,97.844669 188.145951,99.2133885 C188.145951,100.810228 188.37977,102.233105 188.847416,103.482061 C189.315062,104.731018 189.933828,105.768948 190.703733,106.595883 C191.473637,107.422817 192.391806,108.115721 193.458267,108.674615 C194.524728,109.233509 195.736596,109.512952 197.09391,109.512952 Z M213.208013,86.2448356 L221.625596,86.2448356 L221.625596,89.2046768 L219.025042,89.2046768 L219.025042,109.239209 L227.973001,109.239209 C228.155497,109.239209 228.33799,109.196437 228.520486,109.110892 C228.702982,109.025347 228.868367,108.914141 229.016645,108.777269 C229.164923,108.640397 229.284684,108.483567 229.375932,108.306774 C229.46718,108.129981 229.512803,107.950339 229.512803,107.767843 L229.512803,104.500041 L232.763496,104.500041 L232.763496,112.181941 L213.208013,112.181941 L213.208013,109.239209 L215.671696,109.239209 L215.671696,89.2046768 L213.208013,89.2046768 L213.208013,86.2448356 Z M235.395778,86.2448356 L243.67649,86.2448356 L243.67649,89.2046768 L241.212807,89.2046768 L241.212807,109.239209 L243.67649,109.239209 L243.67649,112.181941 L235.395778,112.181941 L235.395778,109.239209 L237.859461,109.239209 L237.859461,89.2046768 L235.395778,89.2046768 L235.395778,86.2448356 Z M253.88802,109.239209 L256.266158,109.239209 L256.266158,89.0506966 L250.346475,89.0506966 L250.346475,93.0883991 L246.839149,93.0883991 L246.839149,86.2448356 L269.970394,86.2448356 L269.970394,93.0883991 L266.463068,93.0883991 L266.463068,89.0506966 L259.619504,89.0506966 L259.619504,109.239209 L262.288494,109.239209 L262.288494,112.181941 L253.88802,112.181941 L253.88802,109.239209 Z M273.133053,86.2448356 L281.413765,86.2448356 L281.413765,89.2046768 L278.950082,89.2046768 L278.950082,109.239209 L281.413765,109.239209 L281.413765,112.181941 L273.133053,112.181941 L273.133053,109.239209 L275.596736,109.239209 L275.596736,89.2046768 L273.133053,89.2046768 L273.133053,86.2448356 Z M304.730718,93.0883991 C303.966516,91.7881156 302.954249,90.7672942 301.693887,90.0259044 C300.433524,89.2845147 299.027756,88.9138254 297.476541,88.9138254 C296.153445,88.9138254 294.944428,89.1932681 293.849452,89.7521619 C292.754476,90.3110557 291.816347,91.0609887 291.035037,92.0019834 C290.253726,92.9429781 289.646366,94.0322344 289.212938,95.269785 C288.77951,96.5073356 288.562799,97.8104511 288.562799,99.1791707 C288.562799,100.798822 288.802322,102.233105 289.281373,103.482061 C289.760425,104.731018 290.384894,105.768948 291.154799,106.595883 C291.924704,107.422817 292.840021,108.11287 293.900779,108.666061 C294.961536,109.219251 296.153445,109.495843 297.476541,109.495843 C299.278688,109.495843 300.846989,109.05957 302.181491,108.187011 C303.515992,107.314452 304.656575,105.88017 305.603272,103.884121 L308.61444,105.30416 C308.181013,106.536008 307.445337,107.725065 306.407391,108.871368 C305.369446,110.01767 304.089142,110.941542 302.566441,111.643011 C301.043741,112.34448 299.35853,112.695209 297.510759,112.695209 C295.742829,112.695209 294.117499,112.361588 292.63472,111.694338 C291.15194,111.027087 289.831716,110.077552 288.674007,108.845704 C287.516299,107.613857 286.632347,106.153911 286.022126,104.465824 C285.411905,102.777736 285.1068,101.015536 285.1068,99.1791707 C285.1068,97.3313993 285.411905,95.586308 286.022126,93.9438446 C286.632347,92.3013811 287.487784,90.8728015 288.588463,89.6580629 C289.689141,88.4433243 291.000811,87.485235 292.523512,86.7837662 C294.046212,86.0822974 295.697205,85.7315683 297.476541,85.7315683 C299.061974,85.7315683 300.430673,85.9568334 301.582679,86.4073702 C302.734684,86.8579071 303.712734,87.3939809 304.516857,88.0156077 C305.320979,88.6372345 306.013883,89.3130296 306.595589,90.0430134 L308.409134,90.0430134 L308.409134,93.0883991 L304.730718,93.0883991 Z M327.500186,109.239209 L329.655909,109.239209 L327.60284,103.353744 L317.628346,103.353744 L315.626604,109.239209 L318.295594,109.239209 L318.295594,112.181941 L309.87801,112.181941 L309.87801,109.239209 L312.136386,109.239209 L320.211791,86.2448356 L325.258919,86.2448356 L333.317216,109.239209 L335.91777,109.239209 L335.91777,112.181941 L327.500186,112.181941 L327.500186,109.239209 Z M318.603554,100.513666 L326.610523,100.513666 L322.572821,88.9138254 L318.603554,100.513666 Z" id="POLITICA" fill="#FFFFFF"></path>
            </g>
        </g>
    </g>
</svg>