<?xml version="1.0" encoding="UTF-8" standalone="no"?>
<!-- Generator: Adobe Illustrator 21.1.0, SVG Export Plug-In . SVG Version: 6.00 Build 0)  -->

<svg
   xmlns:dc="http://purl.org/dc/elements/1.1/"
   xmlns:cc="http://creativecommons.org/ns#"
   xmlns:rdf="http://www.w3.org/1999/02/22-rdf-syntax-ns#"
   xmlns:svg="http://www.w3.org/2000/svg"
   xmlns="http://www.w3.org/2000/svg"
   xmlns:xlink="http://www.w3.org/1999/xlink"
   xmlns:sodipodi="http://sodipodi.sourceforge.net/DTD/sodipodi-0.dtd"
   xmlns:inkscape="http://www.inkscape.org/namespaces/inkscape"
   version="1.1"
   id="Camada_1"
   x="0px"
   y="0px"
   viewBox="0 0 1014.4 124.6"
   xml:space="preserve"
   sodipodi:docname="logo.svg"
   width="1014.4"
   height="124.6"
   inkscape:version="0.92.3 (2405546, 2018-03-11)"><metadata
   id="metadata21"><rdf:RDF><cc:Work
       rdf:about=""><dc:format>image/svg+xml</dc:format><dc:type
         rdf:resource="http://purl.org/dc/dcmitype/StillImage" /><dc:title></dc:title></cc:Work></rdf:RDF></metadata><defs
   id="defs19" /><sodipodi:namedview
   pagecolor="#ffffff"
   bordercolor="#666666"
   borderopacity="1"
   objecttolerance="10"
   gridtolerance="10"
   guidetolerance="10"
   inkscape:pageopacity="0"
   inkscape:pageshadow="2"
   inkscape:window-width="1010"
   inkscape:window-height="589"
   id="namedview17"
   showgrid="false"
   inkscape:zoom="0.25577963"
   inkscape:cx="52.217313"
   inkscape:cy="73.299999"
   inkscape:window-x="265"
   inkscape:window-y="34"
   inkscape:window-maximized="0"
   inkscape:current-layer="Camada_1" />
<style
   type="text/css"
   id="style2">
	.st0{clip-path:url(#SVGID_2_);fill:#E7CB14;}
</style>
<g
   id="g14"
   transform="translate(-76.8,-83.7)">
	<defs
   id="defs5">
		<rect
   id="SVGID_1_"
   x="37.400002"
   y="49.799999"
   width="1054"
   height="158.5" />
	</defs>
	<clipPath
   id="SVGID_2_">
		<use
   xlink:href="#SVGID_1_"
   style="overflow:visible"
   id="use7"
   x="0"
   y="0"
   width="100%"
   height="100%" />
	</clipPath>
	<path
   class="st0"
   d="m 1043.5,131.2 c 2.8,-2.6 6.6,-3.8 11.4,-3.8 h 2.6 c 0.9,0 1.7,0.2 2.6,0.6 3.2,1.3 5.9,3 8,5.2 2.1,2.2 3.5,5 4.1,8.4 0,0.1 0,0.3 0.1,0.6 0,0.3 0.1,0.6 0.1,0.7 0,1.6 0,3.3 -0.1,5 0,1.8 -0.4,3.4 -1,4.9 -1.5,3.7 -3.6,6.5 -6.1,8.2 -2.6,1.7 -5.9,2.6 -9.9,2.6 -1.1,0 -2,-0.1 -2.9,-0.3 -0.8,-0.2 -1.7,-0.6 -2.6,-1.1 -0.4,-0.2 -0.9,-0.5 -1.4,-0.9 -0.6,-0.4 -0.9,-0.6 -1.1,-0.6 -0.2,-0.1 -0.4,-0.3 -0.9,-0.7 -0.4,-0.4 -0.9,-0.9 -1.3,-1.3 -0.5,-0.5 -0.9,-0.9 -1.3,-1.4 -0.4,-0.5 -0.7,-0.8 -0.9,-1 -0.1,-0.1 -0.2,-0.2 -0.3,-0.5 -0.1,-0.2 -0.2,-0.4 -0.3,-0.5 -0.2,-0.3 -0.3,-0.8 -0.6,-1.6 -0.2,-0.8 -0.5,-1.5 -0.7,-2.3 -0.3,-0.8 -0.5,-1.5 -0.7,-2.1 -0.2,-0.6 -0.3,-1.1 -0.4,-1.3 -0.4,-1.1 -0.6,-2.1 -0.6,-2.8 v -2.9 c 0,-4.8 1.4,-8.5 4.2,-11.1 m -26.2,12.5 c 0,2.3 0.1,4.6 0.4,6.9 0.3,2.3 0.7,4.6 1.3,6.9 0.6,2.3 1.5,4.4 2.6,6.5 1.1,2.1 2.5,4 4.1,5.7 0.3,0.3 0.8,0.8 1.6,1.5 0.8,0.7 1.5,1.5 2.3,2.4 0.8,0.9 1.6,1.7 2.3,2.4 0.7,0.7 1.2,1.2 1.5,1.5 0.1,0.1 0.3,0.2 0.7,0.4 0.4,0.2 0.6,0.3 0.8,0.4 0.2,0.2 0.6,0.4 1.1,0.7 0.5,0.3 1.1,0.6 1.8,1 0.6,0.3 1.2,0.6 1.8,0.9 0.5,0.2 0.9,0.4 1.1,0.5 0.2,0.1 0.4,0.2 0.8,0.3 0.4,0.1 0.6,0.2 0.7,0.3 3.1,0.6 6,1.1 8.6,1.4 2.6,0.3 5.5,0.5 8.6,0.5 h 5.3 c 1.3,0 2.8,-0.3 4.4,-0.8 1.6,-0.5 3.3,-1.2 4.9,-2 1.6,-0.8 3.1,-1.7 4.5,-2.6 1.4,-1 2.5,-1.9 3.3,-2.9 2.1,-2.5 3.8,-5 5.3,-7.3 1.4,-2.4 2.5,-5.1 3.1,-8.4 0.4,-2.4 0.6,-4.7 0.8,-7.1 0.2,-2.4 0.2,-4.7 0.2,-7.1 0,-4.6 -0.6,-9 -1.8,-13.4 -1.2,-4.3 -3,-8.3 -5.4,-11.8 -2.4,-3.5 -5.4,-6.4 -9,-8.8 -3.6,-2.3 -7.8,-3.8 -12.7,-4.3 h -3.4 c -5.2,0 -10.1,0.6 -14.6,1.8 -4.5,1.2 -8.6,3 -12.3,5.4 -3.7,2.4 -6.8,5.6 -9.3,9.4 -2.6,3.9 -4.4,8.5 -5.6,13.8 v 5.9 z m -65.7,-27.3 c 0,0.3 0.1,0.6 0.2,0.9 0.1,0.3 0.1,0.7 0.2,1 0,0.3 0.1,0.5 0.1,0.6 v 6.9 c 0,0.2 0.1,0.6 0.2,1.4 0.1,0.8 0.2,1.7 0.3,2.6 0.1,1 0.2,1.8 0.3,2.7 0.1,0.8 0.2,1.4 0.2,1.6 v 1.8 c 0,0.6 0,1.8 0.1,3.5 0,1.7 0.1,3.7 0.2,6.1 0.1,2.3 0.2,4.8 0.2,7.4 0.1,2.6 0.2,5.1 0.2,7.4 0.1,2.3 0.1,4.3 0.2,6.1 0,1.8 0.1,2.9 0.1,3.4 v 10.6 c 0,0.4 0.1,1 0.2,1.8 0.2,0.8 0.3,1.4 0.3,1.7 0,0.3 0.2,0.5 0.5,0.5 h 20 c 0.3,0 0.5,-0.2 0.5,-0.5 v -0.7 -0.8 c 0,-0.5 -0.1,-1.6 -0.3,-3.5 -0.2,-1.9 -0.4,-3.9 -0.6,-6.1 -0.2,-2.2 -0.4,-4.2 -0.6,-6.1 -0.2,-1.9 -0.3,-3 -0.4,-3.5 v -0.9 c 0,-0.5 0,-1.2 -0.1,-1.9 0,-0.7 -0.1,-1.4 -0.1,-2.1 v -1.7 c 0,-2.7 0,-5.2 0.1,-7.5 0.1,-2.2 0.4,-4.4 0.9,-6.4 0.5,-2 1.4,-3.9 2.5,-5.8 1.1,-1.8 2.8,-3.7 4.9,-5.5 0.4,-0.4 0.8,-0.6 1.1,-0.6 h 1.3 c 1.1,0 2.1,0.2 3,0.5 1,0.3 1.9,0.7 2.8,1.1 0.9,0.4 1.8,0.8 2.7,1.1 0.9,0.3 1.9,0.5 3,0.5 1.1,0 2,-0.2 2.7,-0.6 0.8,-0.4 1.6,-0.9 2.4,-1.5 0.4,-0.3 1,-0.8 1.7,-1.4 0.8,-0.6 1.5,-1.2 2.3,-1.8 0.8,-0.6 1.5,-1.2 2.2,-1.7 0.6,-0.5 1,-0.8 1.2,-1 0.5,-0.4 1.1,-0.9 1.8,-1.7 0.8,-0.7 1.1,-1.5 1.1,-2.3 0,-0.5 -0.1,-0.9 -0.2,-1.1 -0.2,-0.2 -0.4,-0.6 -0.8,-1.3 -0.9,-1.6 -2.1,-3 -3.5,-4.1 -1.5,-1.1 -3.1,-2.1 -4.8,-2.9 -1.8,-0.8 -3.6,-1.3 -5.4,-1.7 -1.9,-0.4 -3.6,-0.6 -5.3,-0.6 -1.5,0 -3,0.1 -4.5,0.2 -1.5,0.2 -2.9,0.5 -4.5,1.1 -0.4,0.2 -1,0.4 -1.9,0.9 -0.9,0.4 -1.9,0.9 -3,1.4 -1.1,0.5 -2.1,1 -3,1.4 -0.9,0.4 -1.6,0.7 -1.9,0.9 h -0.6 c 0,-1.2 0,-2.2 0.1,-3 0.1,-0.8 -0.5,-1.3 -1.8,-1.5 -0.4,-0.1 -1.1,-0.2 -2.1,-0.2 -1,-0.1 -1.7,-0.1 -1.9,-0.1 -0.8,-0.1 -1.4,-0.1 -1.9,-0.1 -0.5,0 -1,0 -1.5,-0.1 -0.5,0 -1,-0.1 -1.3,-0.1 -1.5,0 -2.9,0 -4.5,0.1 -1.5,0.1 -3.1,0.4 -4.6,0.9 0,0.1 -0.1,0.2 -0.2,0.3 -0.2,0.1 -0.2,0.2 -0.2,0.3 -0.1,0.2 -0.2,0.7 -0.3,1.5 -0.1,0.8 -0.2,1.3 -0.2,1.5 0.1,0.2 0.2,0.4 0.2,0.7 M 913.8,85.9 c -1,0.9 -1.8,1.8 -2.5,2.6 -0.2,0.3 -0.5,0.8 -0.9,1.5 -0.4,0.7 -0.6,1.2 -0.6,1.3 v 7.8 c 0,0.3 0.1,0.7 0.4,1.3 0.3,0.6 0.5,1 0.6,1.2 1.1,1.9 2.7,3.3 4.7,4.1 2.1,0.8 4.2,1.3 6.2,1.3 h 2.6 c 0.8,-0.1 1.6,-0.4 2.6,-1 1,-0.6 1.8,-1.3 2.7,-2.1 0.8,-0.8 1.6,-1.6 2.2,-2.5 0.6,-0.9 0.9,-1.7 0.9,-2.3 v -3 c 0,-1.3 -0.1,-2.5 -0.3,-3.6 -0.2,-1.1 -0.7,-2.2 -1.5,-3.3 -0.8,-0.8 -1.6,-1.5 -2.2,-2.1 -0.6,-0.6 -1.4,-1.1 -2.3,-1.7 -0.2,-0.2 -0.8,-0.4 -1.6,-0.9 -0.8,-0.4 -1.5,-0.6 -1.8,-0.6 h -1.4 c -0.4,0 -0.7,0 -1.1,-0.1 -0.3,0 -0.6,-0.1 -0.9,-0.1 -0.2,0 -0.6,0 -1.5,0.1 -0.8,0 -1.4,0.1 -1.6,0.1 -0.7,0.4 -1.6,1.1 -2.7,2 m -1.4,95.5 0.9,1 c 2.2,0.1 4.1,0.1 5.6,0.2 1.5,0 3.1,0.1 4.6,0.2 1.6,0.1 2.9,0.1 3.9,0.1 h 3.2 3.2 c 0.5,-0.3 0.9,-0.7 1.1,-1.2 0.2,-0.5 0.3,-1 0.3,-1.7 v -0.5 l -3,-61.2 c -0.1,-0.4 -0.2,-1 -0.2,-1.9 -0.1,-0.9 -0.2,-1.4 -0.3,-1.7 0,-0.2 -0.1,-0.3 -0.3,-0.6 -0.2,-0.2 -0.4,-0.3 -0.5,-0.3 h -18.7 l -1,0.5 c -0.1,1.3 -0.2,2.6 -0.2,3.8 -0.1,1.1 -0.1,2.2 -0.2,3.3 0,1.1 -0.1,2 -0.1,2.8 v 3.8 4 c 0,2.1 0,4.7 0.1,7.6 0.1,2.9 0.2,6 0.2,9.3 0.1,3.2 0.2,6.5 0.2,9.7 0.1,3.2 0.1,6.1 0.2,8.6 0,2.6 0.1,4.7 0.1,6.3 0,1.6 0.1,2.5 0.1,2.6 z m -43.3,-52.6 c 2.1,1.2 4.1,2.9 6.1,5.2 0.4,0.3 0.6,0.8 0.6,1.4 v 0.5 c -0.5,0.1 -1.5,0.1 -2.7,0.2 -1.3,0 -2.7,0.1 -4.1,0.1 -1.5,0 -2.8,0.1 -4.1,0.1 -1.3,0 -2.2,0.1 -2.7,0.1 H 849 c -0.3,0 -1,0.1 -2,0.2 -1,0.2 -1.7,0.3 -2,0.3 v -0.2 -0.3 c 0.6,-1.5 1.5,-2.9 2.7,-4.1 1.2,-1.2 2.6,-2.2 4.1,-2.9 1.5,-0.8 3.1,-1.3 4.7,-1.7 1.6,-0.4 3.2,-0.6 4.7,-0.6 3.2,0 5.8,0.6 7.9,1.7 m -47.8,29 c 0.6,2.9 1.7,5.6 3.1,8 1.4,2.4 3.2,4.7 5.4,6.9 2.2,2.2 4.7,4.5 7.7,6.9 0.8,0.6 1.7,1.2 2.6,1.8 0.9,0.6 1.8,1.1 2.8,1.5 1,0.4 2.1,0.7 3.4,1.1 1.3,0.3 2.5,0.6 3.5,0.9 0.3,0.1 0.8,0.2 1.5,0.3 0.7,0.2 1.2,0.2 1.3,0.2 h 17.2 c 0.7,-0.2 1.4,-0.3 2.1,-0.6 0.6,-0.2 1.2,-0.3 1.8,-0.5 0.6,-0.2 1,-0.3 1.4,-0.5 1.3,-0.4 2.6,-0.9 3.8,-1.6 1.2,-0.7 2.2,-1.4 3.1,-2.3 0.3,-0.3 0.9,-0.9 1.7,-1.7 0.8,-0.8 1.7,-1.6 2.6,-2.5 0.9,-0.9 1.7,-1.7 2.5,-2.5 0.8,-0.8 1.3,-1.4 1.6,-1.7 0.5,-0.4 0.9,-0.8 1,-1.3 0.1,-0.5 0.2,-1 0.2,-1.6 0,-1.1 -0.5,-2 -1.6,-2.8 -1.1,-0.8 -2,-1.5 -2.9,-2.1 -0.2,-0.2 -0.6,-0.5 -1.2,-0.9 -0.6,-0.4 -1.1,-0.8 -1.7,-1.2 -0.6,-0.4 -1.1,-0.8 -1.6,-1.1 -0.5,-0.3 -0.8,-0.6 -1,-0.7 -0.4,-0.3 -0.6,-0.5 -0.8,-0.5 -0.2,0 -0.5,-0.1 -0.9,-0.1 -0.4,0 -0.6,0 -0.8,0.1 -0.2,0 -0.4,0.2 -0.8,0.5 -0.2,0.2 -0.6,0.4 -1.2,0.9 -0.6,0.4 -1.3,0.9 -2.1,1.4 -0.7,0.5 -1.4,1 -2,1.4 -0.6,0.5 -1,0.7 -1.1,0.8 -2.3,1.4 -4.6,2.3 -7,2.7 -2.4,0.5 -4.9,0.7 -7.6,0.7 h -1 c -0.5,0 -1,0 -1.5,-0.1 -0.5,0 -1,-0.1 -1.5,-0.1 h -1 c -3.4,-0.8 -6.1,-2.3 -8.1,-4.6 -1.9,-2.3 -3.3,-5.1 -4.1,-8.6 v -0.3 -0.1 c 0,-0.2 0.2,-0.4 0.5,-0.6 1,0 2.5,0 4.6,0.1 2.1,0 4.5,0.1 7.1,0.1 h 8.3 8.3 c 2.6,0 5,0 7.1,-0.1 2.1,0 3.6,-0.1 4.6,-0.1 0.3,0 0.9,0 1.7,-0.1 0.8,0 1.7,-0.1 2.6,-0.1 0.9,0 1.8,-0.1 2.6,-0.2 0.8,-0.1 1.4,-0.1 1.8,-0.1 1.5,-0.2 2.7,-0.5 3.5,-1.1 0.8,-0.6 1.4,-1.3 1.8,-2.2 0.4,-0.9 0.6,-1.9 0.7,-3 0.1,-1.1 0.1,-2.3 0.1,-3.6 0,-6 -1.5,-11.6 -4.6,-16.9 -1.2,-2.2 -2.8,-4.3 -4.6,-6.3 -1.9,-2 -3.9,-3.7 -6.2,-5.3 -2.3,-1.5 -4.6,-2.8 -7.1,-3.9 -2.5,-1.1 -4.9,-1.8 -7.4,-2.2 h -1.3 c -0.6,0 -1.3,0 -2,-0.1 -0.7,0 -1.3,-0.1 -1.9,-0.1 H 859 c -2,0 -3.9,0 -5.7,0.1 -1.8,0 -3.6,0.4 -5.6,1 -3.3,1.1 -6.3,2.3 -9,3.8 -2.7,1.5 -5.3,3.5 -7.7,5.9 -0.9,1.1 -2,2.3 -3.2,3.7 -1.2,1.4 -2.1,2.8 -2.6,4.2 -0.1,0.2 -0.2,0.6 -0.4,1.3 -0.2,0.6 -0.4,1.2 -0.6,1.8 -0.2,0.6 -0.4,1.2 -0.6,1.7 -0.2,0.5 -0.3,0.9 -0.3,1.1 -0.8,2.7 -1.5,5.1 -2.1,7.2 -0.6,2.1 -0.9,4.5 -0.9,7.2 0.1,4.3 0.4,7.8 1,10.7 m -44,25.6 c 0.2,0.1 0.7,0.2 1.4,0.3 0.7,0.1 1.2,0.2 1.4,0.2 h 17.2 l 0.9,-0.5 c 0.2,-1.5 0.2,-2.8 0.3,-3.8 0,-1 0.1,-2.1 0.2,-3.2 0.1,-1.1 0.1,-2 0.1,-2.8 v -41.1 c 1.3,-0.2 2.8,-0.3 4.6,-0.4 1.8,-0.1 3.3,-0.5 4.7,-1.1 0,-0.1 0,-0.1 0.1,-0.1 0.1,0 0.2,0 0.2,-0.1 l 0.2,-0.2 v -18.8 h -11.3 c 0,-0.7 -0.1,-1.9 -0.2,-3.7 -0.1,-1.8 -0.2,-3.7 -0.3,-5.8 -0.1,-2.1 -0.2,-4 -0.3,-5.8 -0.1,-1.8 -0.2,-3 -0.2,-3.7 0,-0.6 -0.1,-1.4 -0.2,-2.4 -0.2,-1 -0.2,-1.5 -0.2,-1.6 l -1,-0.5 h -4.7 -6.7 c -2.1,0 -4.3,0.2 -6.7,0.5 -0.4,0.8 -0.6,1.8 -0.6,2.9 0,1.1 -0.1,2 -0.1,2.9 0,2.4 0.1,4.9 0.3,7.3 0.2,2.4 0.3,4.7 0.3,7 v 2.5 c -1.7,0.2 -3.4,0.4 -5.2,0.6 -1.8,0.2 -3.5,0.3 -5.1,0.5 -0.7,0.5 -1.1,1 -1.3,1.5 -0.2,0.5 -0.2,1.2 -0.2,2 0,2.4 0.1,4.9 0.2,7.3 0.1,2.4 0.4,4.9 0.9,7.3 0.2,0.4 0.6,0.6 1.2,0.7 0.6,0.1 1,0.2 1.2,0.2 0.3,0 0.8,0 1.5,0.1 0.7,0 1.4,0.1 2.2,0.2 0.8,0.1 1.5,0.1 2.2,0.2 0.7,0 1.1,0.1 1.4,0.2 0.6,8.5 1,16.9 1.1,25.4 0.1,8.5 0.1,16.9 -0.1,25.4 0,0 0.2,0.2 0.6,0.4 M 723,129 c 1.1,0.3 2.1,1.1 3,2.5 0.8,1.3 1.5,2.5 1.9,3.4 0.1,0.2 0.2,0.6 0.3,1 0.2,0.4 0.3,0.9 0.5,1.3 0.2,0.5 0.3,0.9 0.5,1.3 0.2,0.4 0.2,0.7 0.2,0.9 0.1,0.4 0.2,0.9 0.3,1.5 0.2,0.6 0.3,1.2 0.4,1.9 0.1,0.6 0.2,1.2 0.3,1.7 0.1,0.5 0.1,0.8 0.1,0.9 v 38.1 c 0.2,0.1 0.3,0.2 0.3,0.2 l 0.3,0.3 c 0.1,0.1 0.2,0.1 0.3,0.1 0.1,0 0.2,0 0.4,0.1 0.2,0.1 0.3,0.2 0.3,0.2 h 1.9 c 2.1,0 4.3,0 6.5,-0.1 2.2,-0.1 4.3,-0.2 6.2,-0.3 0.4,-0.1 1,-0.2 1.9,-0.3 0.9,-0.1 1.4,-0.2 1.7,-0.3 l 0.2,-0.2 0.2,-0.2 c 0,-0.9 0,-2.5 0.1,-4.6 0,-2.2 0.1,-4.5 0.2,-6.9 0.1,-2.4 0.1,-4.7 0.2,-6.9 0,-2.2 0.1,-3.7 0.1,-4.5 0,-0.1 0,-0.4 0.1,-0.9 0.1,-0.5 0.1,-1 0.2,-1.5 0,-0.5 0.1,-1 0.2,-1.5 0.1,-0.5 0.1,-0.8 0.1,-1 V 149 c 0,-3.1 0,-6.2 -0.1,-9.3 0,-3.1 -0.3,-6 -0.9,-8.8 -0.6,-2.8 -1.5,-5.5 -2.7,-8.1 -1.3,-2.6 -3.1,-5 -5.7,-7.2 -1.6,-1.5 -3.1,-2.7 -4.6,-3.5 -1.5,-0.8 -3.2,-1.4 -5.3,-1.8 -0.2,0 -0.5,0 -1,-0.1 -0.5,0 -1.1,-0.1 -1.7,-0.1 -0.6,0 -1.2,0 -1.7,-0.1 -0.5,0 -0.9,-0.1 -1,-0.1 -1.6,0 -3.1,0 -4.3,0.1 -1.3,0.1 -2.5,0.2 -3.7,0.5 -1.2,0.3 -2.4,0.6 -3.6,1.1 -1.2,0.5 -2.5,1.1 -3.9,1.8 -0.1,0 -0.3,0.1 -0.6,0.3 -0.3,0.2 -0.6,0.5 -0.9,0.7 -0.3,0.2 -0.6,0.4 -0.9,0.6 -0.3,0.2 -0.5,0.3 -0.6,0.4 h -0.1 -0.2 c -0.2,-1.3 -0.5,-2.2 -0.9,-2.8 -0.4,-0.6 -1.2,-0.9 -2.5,-1.1 -0.5,-0.2 -1.2,-0.3 -2.2,-0.5 -1,-0.2 -1.6,-0.2 -1.7,-0.2 h -3.4 -3.7 c -0.3,0.1 -0.7,0.1 -1.3,0.2 -0.5,0 -1.1,0.1 -1.6,0.2 -0.5,0.1 -1,0.1 -1.4,0.2 -0.4,0 -0.6,0.1 -0.6,0.2 l -0.6,0.3 c 0.2,8.3 0.1,16.6 -0.1,24.9 -0.2,8.3 -0.3,16.6 -0.3,24.9 v 19.7 c 0.1,0.5 0.3,1 0.6,1.6 0.3,0.6 0.8,0.9 1.4,0.9 h 14.2 l 1,-1 c -0.1,-6 -0.1,-11.7 0.1,-17.4 0.1,-5.6 0.6,-11.4 1.4,-17.3 0.2,-1.1 0.3,-2.4 0.5,-3.8 0.2,-1.4 0.5,-2.7 0.8,-4.1 0.3,-1.4 0.8,-2.7 1.3,-4 0.5,-1.3 1.1,-2.4 1.8,-3.3 1.2,-1.6 2.5,-2.7 3.9,-3.2 1.4,-0.5 3,-0.8 4.9,-0.8 z m -76.2,53.7 c 0.1,0.6 0.2,1 0.3,1.3 0.1,0.3 0.2,0.5 0.5,0.5 h 0.9 1 c 0.5,0 1.3,0 2.3,-0.1 1,-0.1 2.1,-0.1 3.2,-0.2 1.1,0 2.1,-0.1 3,-0.1 0.9,0 1.5,-0.1 1.7,-0.1 1.1,-0.1 2.2,-0.2 3.4,-0.3 1.2,-0.1 2.3,-0.3 3.3,-0.7 1,-0.3 1.9,-0.9 2.7,-1.5 0.8,-0.7 1.4,-1.6 1.8,-2.9 0,-0.7 0,-1.9 0.1,-3.8 0,-1.8 0.1,-3.8 0.1,-5.8 v -5.8 -3.8 -4.9 -6.2 c 0,-2.1 0,-3.9 -0.1,-5.4 0,-1.5 -0.1,-2.4 -0.1,-2.6 0,-0.5 0,-1.6 -0.1,-3.3 -0.1,-1.6 -0.2,-3.6 -0.3,-5.8 -0.1,-2.2 -0.2,-4.6 -0.3,-7.1 -0.1,-2.5 -0.2,-4.8 -0.3,-7.1 -0.1,-2.2 -0.2,-4.2 -0.3,-5.8 -0.1,-1.6 -0.1,-2.7 -0.1,-3.3 v -4.8 -5 c 0,-0.1 0,-0.3 0.1,-0.6 0,-0.3 0.1,-0.7 0.2,-1.1 0.1,-0.4 0.2,-0.7 0.2,-1 0.1,-0.3 0.1,-0.5 0.1,-0.6 v -0.3 c 0,-1.1 -0.3,-2.2 -0.9,-3.4 -0.6,-1.2 -1.6,-1.8 -2.9,-1.8 h -1.1 c -0.2,0.1 -0.5,0.2 -1,0.2 -0.5,0.1 -1.1,0.1 -1.7,0.2 -0.6,0 -1.2,0.1 -1.8,0.1 -0.5,0 -0.8,0.1 -0.9,0.1 h -13.3 l -0.5,0.5 v 8.4 c 0,14 0.1,27.8 0.3,41.5 0.2,13.7 0.3,27.4 0.1,41.3 0.2,0.1 0.3,0.5 0.4,1.1 m -72.7,-66.3 c 0,0.3 0.1,0.6 0.2,0.9 0.1,0.3 0.1,0.7 0.2,1 0,0.3 0.1,0.5 0.1,0.6 v 6.9 c 0,0.2 0.1,0.6 0.2,1.4 0.1,0.8 0.2,1.7 0.3,2.6 0.1,1 0.2,1.8 0.3,2.7 0.1,0.8 0.2,1.4 0.2,1.6 v 1.8 c 0,0.6 0,1.8 0.1,3.5 0,1.7 0.1,3.7 0.2,6.1 0.1,2.3 0.2,4.8 0.2,7.4 0.1,2.6 0.2,5.1 0.2,7.4 0.1,2.3 0.1,4.3 0.2,6.1 0,1.8 0.1,2.9 0.1,3.4 v 10.6 c 0,0.4 0.1,1 0.2,1.8 0.2,0.8 0.3,1.4 0.3,1.7 0,0.3 0.2,0.5 0.5,0.5 h 20 c 0.3,0 0.5,-0.2 0.5,-0.5 v -0.7 -0.8 c 0,-0.5 -0.1,-1.6 -0.3,-3.5 -0.2,-1.9 -0.4,-3.9 -0.6,-6.1 -0.2,-2.2 -0.4,-4.2 -0.6,-6.1 -0.2,-1.9 -0.3,-3 -0.4,-3.5 v -0.9 c 0,-0.5 0,-1.2 -0.1,-1.9 0,-0.7 -0.1,-1.4 -0.1,-2.1 v -1.7 c 0,-2.7 0,-5.2 0.1,-7.5 0.1,-2.2 0.4,-4.4 0.9,-6.4 0.5,-2 1.4,-3.9 2.5,-5.8 1.1,-1.8 2.8,-3.7 4.9,-5.5 0.4,-0.4 0.8,-0.6 1.1,-0.6 h 1.3 c 1.1,0 2.1,0.2 3,0.5 1,0.3 1.9,0.7 2.8,1.1 0.9,0.4 1.8,0.8 2.7,1.1 0.9,0.3 1.9,0.5 3,0.5 1.1,0 2,-0.2 2.7,-0.6 0.8,-0.4 1.6,-0.9 2.4,-1.5 0.4,-0.3 1,-0.8 1.7,-1.4 0.8,-0.6 1.5,-1.2 2.3,-1.8 0.8,-0.6 1.5,-1.2 2.2,-1.7 0.6,-0.5 1,-0.8 1.2,-1 0.5,-0.4 1.1,-0.9 1.8,-1.7 0.8,-0.7 1.1,-1.5 1.1,-2.3 0,-0.5 -0.1,-0.9 -0.2,-1.1 -0.2,-0.2 -0.4,-0.6 -0.8,-1.3 -0.9,-1.6 -2.1,-3 -3.5,-4.1 -1.5,-1.1 -3.1,-2.1 -4.8,-2.9 -1.8,-0.8 -3.6,-1.3 -5.4,-1.7 -1.9,-0.4 -3.6,-0.6 -5.3,-0.6 -1.5,0 -3,0.1 -4.5,0.2 -1.5,0.2 -2.9,0.5 -4.5,1.1 -0.4,0.2 -1,0.4 -1.9,0.9 -0.9,0.4 -1.9,0.9 -3,1.4 -1.1,0.5 -2.1,1 -3,1.4 -0.9,0.4 -1.6,0.7 -1.9,0.9 h -0.6 c 0,-1.2 0,-2.2 0.1,-3 0.1,-0.8 -0.5,-1.3 -1.8,-1.5 -0.4,-0.1 -1.1,-0.2 -2.1,-0.2 -1,-0.1 -1.7,-0.1 -1.9,-0.1 -0.8,-0.1 -1.4,-0.1 -1.9,-0.1 -0.5,0 -1,0 -1.5,-0.1 -0.5,0 -1,-0.1 -1.3,-0.1 -1.5,0 -2.9,0 -4.5,0.1 -1.5,0.1 -3.1,0.4 -4.6,0.9 0,0.1 -0.1,0.2 -0.2,0.3 -0.2,0.1 -0.2,0.2 -0.2,0.3 -0.1,0.2 -0.2,0.7 -0.3,1.5 -0.1,0.8 -0.2,1.3 -0.2,1.5 0.1,0.2 0.2,0.4 0.2,0.7 m -59.2,14.8 c 2.8,-2.6 6.6,-3.8 11.4,-3.8 h 2.6 c 0.9,0 1.7,0.2 2.6,0.6 3.2,1.3 5.9,3 8,5.2 2.1,2.2 3.5,5 4.1,8.4 0,0.1 0,0.3 0.1,0.6 0,0.3 0.1,0.6 0.1,0.7 0,1.6 0,3.3 -0.1,5 0,1.8 -0.4,3.4 -1,4.9 -1.5,3.7 -3.6,6.5 -6.1,8.2 -2.6,1.7 -5.9,2.6 -9.9,2.6 -1.1,0 -2,-0.1 -2.9,-0.3 -0.8,-0.2 -1.7,-0.6 -2.6,-1.1 -0.4,-0.2 -0.9,-0.5 -1.4,-0.9 -0.6,-0.4 -0.9,-0.6 -1.1,-0.6 -0.2,-0.1 -0.4,-0.3 -0.9,-0.7 -0.4,-0.4 -0.9,-0.9 -1.3,-1.3 -0.5,-0.5 -0.9,-0.9 -1.3,-1.4 -0.4,-0.5 -0.7,-0.8 -0.9,-1 -0.1,-0.1 -0.2,-0.2 -0.3,-0.5 -0.1,-0.2 -0.2,-0.4 -0.3,-0.5 -0.2,-0.3 -0.3,-0.8 -0.6,-1.6 -0.2,-0.8 -0.5,-1.5 -0.7,-2.3 -0.3,-0.8 -0.5,-1.5 -0.7,-2.1 -0.2,-0.6 -0.3,-1.1 -0.4,-1.3 -0.4,-1.1 -0.6,-2.1 -0.6,-2.8 v -2.9 c 0,-4.8 1.4,-8.5 4.2,-11.1 m -26.2,12.5 c 0,2.3 0.1,4.6 0.4,6.9 0.3,2.3 0.7,4.6 1.3,6.9 0.6,2.3 1.5,4.4 2.6,6.5 1.1,2.1 2.5,4 4.1,5.7 0.3,0.3 0.8,0.8 1.6,1.5 0.8,0.7 1.5,1.5 2.3,2.4 0.8,0.9 1.6,1.7 2.3,2.4 0.7,0.7 1.2,1.2 1.5,1.5 0.1,0.1 0.3,0.2 0.7,0.4 0.4,0.2 0.6,0.3 0.8,0.4 0.2,0.2 0.6,0.4 1.1,0.7 0.5,0.3 1.1,0.6 1.8,1 0.6,0.3 1.2,0.6 1.8,0.9 0.5,0.2 0.9,0.4 1.1,0.5 0.2,0.1 0.4,0.2 0.8,0.3 0.4,0.1 0.6,0.2 0.7,0.3 3.1,0.6 6,1.1 8.6,1.4 2.6,0.3 5.5,0.5 8.6,0.5 h 5.3 c 1.3,0 2.8,-0.3 4.4,-0.8 1.6,-0.5 3.3,-1.2 4.9,-2 1.6,-0.8 3.1,-1.7 4.5,-2.6 1.4,-1 2.5,-1.9 3.3,-2.9 2.1,-2.5 3.8,-5 5.3,-7.3 1.4,-2.4 2.5,-5.1 3.1,-8.4 0.4,-2.4 0.6,-4.7 0.8,-7.1 0.2,-2.4 0.2,-4.7 0.2,-7.1 0,-4.6 -0.6,-9 -1.8,-13.4 -1.2,-4.3 -3,-8.3 -5.4,-11.8 -2.4,-3.5 -5.4,-6.4 -9,-8.8 -3.6,-2.3 -7.8,-3.8 -12.7,-4.3 h -3.4 c -5.2,0 -10.1,0.6 -14.6,1.8 -4.5,1.2 -8.6,3 -12.3,5.4 -3.7,2.4 -6.8,5.6 -9.3,9.4 -2.6,3.9 -4.4,8.5 -5.6,13.8 v 5.9 z m -48.7,19 c -0.8,0 -1.7,-0.1 -2.6,-0.1 -0.9,0 -1.8,-0.1 -2.7,-0.2 -0.9,-0.1 -1.5,-0.1 -1.8,-0.1 -0.2,-0.2 -0.8,-0.4 -1.9,-0.7 -1.1,-0.3 -1.9,-0.6 -2.5,-0.7 -0.2,-0.1 -0.6,-0.2 -1.1,-0.5 -0.5,-0.3 -0.8,-0.4 -0.9,-0.5 -0.2,-0.2 -0.6,-0.6 -1.3,-1.4 -0.7,-0.8 -1.2,-1.3 -1.5,-1.6 0,-0.1 -0.1,-0.2 -0.2,-0.5 -0.2,-0.2 -0.2,-0.4 -0.2,-0.6 0,-0.3 0,-1 -0.1,-2.1 -0.1,-1.1 -0.1,-1.8 -0.1,-2.2 0,-2.4 0.2,-4.8 0.7,-7.2 0.5,-2.3 1.3,-4.5 2.4,-6.5 1.1,-2 2.5,-3.7 4.2,-5.3 1.7,-1.5 3.7,-2.7 6.1,-3.7 0.3,-0.1 1,-0.2 1.9,-0.5 1,-0.3 1.6,-0.4 1.9,-0.4 0.2,0 0.5,0 1,-0.1 0.5,0 0.9,-0.1 1,-0.1 2.1,0 4,0.5 5.6,1.4 1.6,0.9 3,2.2 4.1,3.7 1.1,1.5 2.1,3.2 2.9,5.1 0.8,1.9 1.5,3.7 2,5.5 0,0.1 0.1,0.4 0.2,0.9 0.2,0.5 0.2,0.9 0.2,1 v 0.2 c 0,1.8 -0.3,3.4 -1,5 -0.7,1.6 -1.5,3.1 -2.3,4.6 -1.3,2 -2.8,3.8 -4.4,5.3 -1.6,1.6 -3.8,2.3 -6.5,2.3 -0.3,0 -0.6,0 -0.7,-0.1 -0.2,0 -0.4,-0.1 -0.7,-0.3 -0.3,0.5 -0.9,0.5 -1.7,0.4 m -37,44.6 c 0.2,0.3 0.4,0.5 0.6,0.6 0.3,0.1 0.6,0.2 0.9,0.4 h 7.7 7.6 c 0.2,0 0.8,-0.1 1.7,-0.2 0.9,-0.1 1.5,-0.2 1.8,-0.3 0.1,0 0.2,-0.1 0.3,-0.2 0.1,-0.2 0.2,-0.3 0.2,-0.3 0.2,-0.2 0.3,-0.6 0.5,-1.1 0.2,-0.5 0.2,-0.8 0.2,-0.9 v -27 c 3.5,1.7 7.2,3 10.9,4 3.8,1 7.6,1.5 11.5,1.5 3.4,0 7,-0.5 10.6,-1.4 3.6,-0.9 6.8,-2.6 9.4,-5 0.2,-0.2 0.6,-0.6 1,-1 0.4,-0.4 0.8,-0.8 1.2,-1.3 0.4,-0.4 0.7,-0.8 1.1,-1.1 0.3,-0.3 0.5,-0.5 0.5,-0.6 0.1,-0.1 0.3,-0.4 0.6,-0.9 0.3,-0.5 0.6,-1.2 1,-1.9 0.3,-0.8 0.7,-1.5 1.1,-2.2 0.4,-0.7 0.7,-1.3 0.9,-1.8 0.1,-0.2 0.2,-0.6 0.5,-1.2 0.3,-0.6 0.4,-1.1 0.5,-1.3 0.8,-2.1 1.4,-4.2 1.9,-6.4 0.5,-2.2 0.9,-4.5 1,-6.8 v -8.4 -8.4 c -0.6,-1.4 -1.1,-2.9 -1.5,-4.4 -0.4,-1.5 -0.9,-3 -1.5,-4.4 -2,-4.3 -4.8,-7.9 -8.4,-10.9 -3.6,-3 -7.7,-4.9 -12.2,-5.8 -0.4,0 -0.9,-0.1 -1.5,-0.2 -0.6,-0.1 -1.3,-0.2 -2,-0.3 -0.7,-0.1 -1.3,-0.2 -1.8,-0.3 -0.5,-0.1 -0.8,-0.2 -0.9,-0.2 h -4.3 c -3.4,0 -6.6,0.4 -9.6,1.3 -2.9,0.8 -5.9,2.2 -8.8,4.1 -0.1,-0.3 -0.2,-0.7 -0.2,-1.3 -0.1,-0.6 -0.2,-1.1 -0.3,-1.7 -0.1,-0.6 -0.2,-1.1 -0.3,-1.5 -0.1,-0.5 -0.3,-0.7 -0.5,-0.8 h -4 -3.9 c -0.4,0 -1,0 -1.8,0.1 -0.8,0 -1.7,0.1 -2.6,0.2 -0.9,0.1 -1.8,0.1 -2.6,0.2 -0.8,0 -1.4,0.1 -1.7,0.2 -1.1,0.2 -2,0.6 -2.5,1.4 -0.1,2.1 -0.2,5.3 -0.2,9.6 -0.1,4.3 -0.2,9.3 -0.3,14.8 -0.2,5.5 -0.3,11.3 -0.4,17.3 -0.1,6 -0.2,11.8 -0.4,17.2 -0.2,5.5 -0.3,10.4 -0.3,14.7 -0.1,4.3 -0.2,7.6 -0.2,9.6 v 7.2 7.1 z m -63.2,-76.1 c 2.8,-2.6 6.6,-3.8 11.4,-3.8 h 2.6 c 0.9,0 1.7,0.2 2.6,0.6 3.2,1.3 5.9,3 8,5.2 2.1,2.2 3.5,5 4.1,8.4 0,0.1 0,0.3 0.1,0.6 0,0.3 0.1,0.6 0.1,0.7 0,1.6 0,3.3 -0.1,5 0,1.8 -0.4,3.4 -1,4.9 -1.5,3.7 -3.6,6.5 -6.1,8.2 -2.6,1.7 -5.9,2.6 -9.9,2.6 -1.1,0 -2,-0.1 -2.9,-0.3 -0.8,-0.2 -1.7,-0.6 -2.6,-1.1 -0.4,-0.2 -0.9,-0.5 -1.4,-0.9 -0.6,-0.4 -0.9,-0.6 -1.1,-0.6 -0.2,-0.1 -0.4,-0.3 -0.9,-0.7 -0.4,-0.4 -0.9,-0.9 -1.3,-1.3 -0.5,-0.5 -0.9,-0.9 -1.3,-1.4 -0.4,-0.5 -0.7,-0.8 -0.9,-1 -0.1,-0.1 -0.2,-0.2 -0.3,-0.5 -0.1,-0.2 -0.2,-0.4 -0.3,-0.5 -0.2,-0.3 -0.3,-0.8 -0.6,-1.6 -0.2,-0.8 -0.5,-1.5 -0.7,-2.3 -0.3,-0.8 -0.5,-1.5 -0.7,-2.1 -0.2,-0.6 -0.3,-1.1 -0.4,-1.3 -0.4,-1.1 -0.6,-2.1 -0.6,-2.8 v -2.9 c 0.1,-4.8 1.4,-8.5 4.2,-11.1 m -26.1,12.5 c 0,2.3 0.1,4.6 0.4,6.9 0.3,2.3 0.7,4.6 1.3,6.9 0.6,2.3 1.5,4.4 2.6,6.5 1.1,2.1 2.5,4 4.1,5.7 0.3,0.3 0.8,0.8 1.6,1.5 0.8,0.7 1.5,1.5 2.3,2.4 0.8,0.9 1.6,1.7 2.3,2.4 0.7,0.7 1.2,1.2 1.5,1.5 0.1,0.1 0.3,0.2 0.7,0.4 0.4,0.2 0.6,0.3 0.8,0.4 0.2,0.2 0.6,0.4 1.1,0.7 0.5,0.3 1.1,0.6 1.8,1 0.6,0.3 1.2,0.6 1.8,0.9 0.5,0.2 0.9,0.4 1.1,0.5 0.2,0.1 0.4,0.2 0.8,0.3 0.4,0.1 0.6,0.2 0.7,0.3 3.1,0.6 6,1.1 8.6,1.4 2.6,0.3 5.5,0.5 8.6,0.5 h 5.3 c 1.3,0 2.8,-0.3 4.4,-0.8 1.6,-0.5 3.3,-1.2 4.9,-2 1.6,-0.8 3.1,-1.7 4.5,-2.6 1.4,-1 2.5,-1.9 3.3,-2.9 2.1,-2.5 3.8,-5 5.3,-7.3 1.4,-2.4 2.5,-5.1 3.1,-8.4 0.4,-2.4 0.6,-4.7 0.8,-7.1 0.2,-2.4 0.2,-4.7 0.2,-7.1 0,-4.6 -0.6,-9 -1.8,-13.4 -1.2,-4.3 -3,-8.3 -5.4,-11.8 -2.4,-3.5 -5.4,-6.4 -9,-8.8 -3.6,-2.3 -7.8,-3.8 -12.7,-4.3 h -3.4 c -5.2,0 -10.1,0.6 -14.6,1.8 -4.5,1.2 -8.6,3 -12.3,5.4 -3.7,2.4 -6.8,5.6 -9.3,9.4 -2.6,3.9 -4.4,8.5 -5.5,13.8 v 5.9 z M 277.4,85.9 c -1,0.9 -1.9,1.8 -2.5,2.6 -0.2,0.3 -0.5,0.8 -0.9,1.5 -0.4,0.7 -0.6,1.2 -0.6,1.3 v 7.8 c 0,0.3 0.1,0.7 0.4,1.3 0.3,0.6 0.5,1 0.6,1.2 1.1,1.9 2.6,3.3 4.7,4.1 2.1,0.8 4.2,1.3 6.2,1.3 h 2.6 c 0.8,-0.1 1.6,-0.4 2.6,-1 1,-0.6 1.8,-1.3 2.7,-2.1 0.8,-0.8 1.6,-1.6 2.2,-2.5 0.6,-0.9 0.9,-1.7 0.9,-2.3 v -3 c 0,-1.3 -0.1,-2.5 -0.3,-3.6 -0.2,-1.1 -0.7,-2.2 -1.5,-3.3 -0.8,-0.8 -1.6,-1.5 -2.2,-2.1 -0.6,-0.6 -1.4,-1.1 -2.3,-1.7 -0.2,-0.2 -0.8,-0.4 -1.6,-0.9 -0.8,-0.4 -1.5,-0.6 -1.8,-0.6 h -1.4 c -0.4,0 -0.7,0 -1.1,-0.1 -0.3,0 -0.6,-0.1 -0.9,-0.1 -0.2,0 -0.6,0 -1.5,0.1 -0.8,0 -1.4,0.1 -1.6,0.1 -0.7,0.4 -1.6,1.1 -2.7,2 m -1.4,95.5 0.9,1 c 2.2,0.1 4.1,0.1 5.6,0.2 1.5,0 3.1,0.1 4.6,0.2 1.6,0.1 2.9,0.1 3.9,0.1 h 3.2 3.2 c 0.5,-0.3 0.9,-0.7 1.1,-1.2 0.2,-0.5 0.3,-1 0.3,-1.7 v -0.5 l -3,-61.2 c -0.1,-0.4 -0.2,-1 -0.2,-1.9 -0.1,-0.9 -0.2,-1.4 -0.3,-1.7 0,-0.2 -0.1,-0.3 -0.3,-0.6 -0.2,-0.2 -0.4,-0.3 -0.5,-0.3 H 276 l -1,0.5 c -0.1,1.3 -0.2,2.6 -0.2,3.8 -0.1,1.1 -0.1,2.2 -0.2,3.3 0,1.1 -0.1,2 -0.1,2.8 v 3.8 4 c 0,2.1 0,4.7 0.1,7.6 0.1,2.9 0.2,6 0.2,9.3 0.1,3.2 0.2,6.5 0.2,9.7 0.1,3.2 0.1,6.1 0.2,8.6 0,2.6 0.1,4.7 0.1,6.3 0,1.6 0.1,2.5 0.1,2.6 z m -58.4,-72.3 c 0,-0.2 0.2,-0.4 0.7,-0.6 0.5,-0.2 1,-0.3 1.7,-0.3 0.6,-0.1 1.2,-0.1 1.8,-0.2 0.6,0 1,-0.1 1.3,-0.1 0.7,0 1.7,0.2 3.1,0.6 1.4,0.4 2.7,0.9 4.1,1.4 1.4,0.6 2.6,1.3 3.7,2.1 1.1,0.8 1.6,1.6 1.7,2.3 v 0.7 c 0,0.2 0,0.3 0.1,0.5 0,0.2 0.1,0.3 0.1,0.5 v 1.5 c 0,0.5 -0.2,0.9 -0.6,1.4 -2.1,2.2 -4.1,3.7 -6.2,4.3 -2.1,0.7 -4.5,1 -7.4,1 H 220 c -0.3,0 -0.6,0 -0.9,-0.1 l -0.6,-0.9 c -0.1,-1.4 -0.1,-2.7 -0.2,-3.7 0,-1 -0.1,-2 -0.2,-3.1 -0.1,-1.1 -0.1,-1.9 -0.1,-2.6 v -3 c 0,-0.1 -0.1,-0.3 -0.2,-0.7 -0.2,-0.4 -0.2,-0.6 -0.2,-0.7 z m -19.9,73.3 c 0.1,0.3 0.2,0.4 0.3,0.5 0.2,0.1 0.6,0.2 1.3,0.5 0.7,0.2 1.2,0.4 1.5,0.5 0.2,0.1 0.6,0.2 1.1,0.3 0.5,0.1 1,0.2 1.5,0.3 0.5,0.1 1,0.2 1.4,0.3 0.4,0.1 0.7,0.1 0.9,0.1 h 2.4 c 1.8,0 3.2,0 4.4,-0.1 1.2,0 2.7,-0.2 4.4,-0.4 0.5,-0.1 1.2,-0.2 1.9,-0.5 0.7,-0.3 1.1,-0.8 1.1,-1.5 v -19 c -0.4,-1.1 -0.6,-2.2 -0.7,-3.5 -0.1,-1.3 -0.2,-2.4 -0.2,-3.5 -0.2,-1.6 -0.5,-3.2 -0.7,-4.7 -0.2,-1.6 -0.3,-3.1 -0.3,-4.7 v -0.7 c 1.4,1.1 2.6,2.5 3.6,4.1 1,1.6 2,3.1 2.8,4.7 l 10.8,21.5 c 0.2,0.3 0.6,1 1.2,2.1 0.6,1.1 1.1,1.9 1.3,2.2 0.4,0.6 0.7,1.2 1.1,1.7 0.3,0.5 0.9,0.8 1.7,0.8 h 1.1 c 0.1,0 0.5,-0.1 1.1,-0.2 0.7,-0.2 1.1,-0.2 1.3,-0.2 0.5,-0.1 1.5,-0.2 3,-0.3 1.4,-0.1 3,-0.3 4.6,-0.5 1.6,-0.2 3.1,-0.3 4.6,-0.5 1.4,-0.1 2.5,-0.2 3.1,-0.3 l 1,-1 v -0.1 c 0,-1.8 -0.5,-3.7 -1.5,-5.7 -1,-2.1 -1.8,-3.9 -2.5,-5.4 0,-0.1 -0.1,-0.3 -0.2,-0.7 -0.2,-0.4 -0.2,-0.7 -0.2,-0.7 -0.1,-0.1 -0.3,-0.3 -0.7,-0.7 -0.4,-0.4 -0.6,-0.6 -0.7,-0.8 -0.2,-0.2 -0.6,-0.7 -1.1,-1.5 -0.5,-0.8 -0.8,-1.2 -1,-1.4 -1,-1.8 -2,-3.8 -3,-6.1 -1,-2.3 -2.1,-4.2 -3.3,-5.7 -0.9,-1.1 -1.8,-2.3 -2.6,-3.7 -0.8,-1.4 -1.6,-2.6 -2.4,-3.7 -0.1,-0.2 -0.2,-0.5 -0.4,-1 -0.2,-0.5 -0.4,-0.9 -0.5,-1 v -0.2 -0.2 c 2.2,-0.8 4.2,-2.2 6,-3.9 1.8,-1.8 3.3,-3.8 4.5,-6.1 1.3,-2.3 2.2,-4.7 2.9,-7.2 0.6,-2.5 1,-4.8 1,-7 0,-3 -0.4,-6 -1.3,-9.2 -0.9,-3.1 -2.2,-6 -3.8,-8.6 -1.7,-2.6 -3.8,-4.8 -6.4,-6.6 -2.6,-1.8 -5.5,-2.9 -8.8,-3.3 -0.2,0 -0.6,0 -1.2,-0.1 -0.6,-0.1 -1.2,-0.1 -1.8,-0.2 -0.6,0 -1.2,-0.1 -1.8,-0.1 -0.5,0 -0.9,-0.1 -1,-0.1 h -9.5 -9.6 c -0.3,0.2 -1,0.3 -1.9,0.3 -1,0.1 -1.6,0.1 -1.9,0.1 -0.4,0 -1,0 -1.9,0.1 -0.9,0 -1.8,0.1 -2.7,0.1 -1,0 -1.9,0 -2.8,-0.1 -0.9,0 -1.5,-0.1 -1.8,-0.1 l -0.6,0.6 -0.5,3.8 v 2.1 c 0,1.1 0,2.3 -0.1,3.5 0,1.3 -0.1,2.6 -0.1,3.8 v 2.8 c -0.1,0.9 -0.2,2.2 -0.3,3.9 -0.1,1.7 -0.2,3.4 -0.2,5.1 0,1.7 0,3.2 0.1,4.5 0.1,1.3 0.3,2.1 0.6,2.3 0,0.5 0.1,1.6 0.2,3.4 0.2,1.8 0.3,3.8 0.5,5.9 0.2,2.1 0.3,4.1 0.5,5.9 0.2,1.8 0.3,3 0.3,3.4 0.1,1 0.2,2.6 0.2,4.7 0.1,2.1 0.1,4.6 0.2,7.3 0,2.7 0.1,5.5 0.2,8.5 0.1,3 0.2,5.8 0.2,8.5 0.1,2.7 0.1,5.1 0.2,7.3 0,2.2 0.1,3.8 0.1,4.7 -0.3,0.2 -0.3,0.3 -0.2,0.6"
   clip-path="url(#SVGID_2_)"
   id="path10"
   inkscape:connector-curvature="0"
   style="fill:#e7cb14" />
	<path
   class="st0"
   d="m 115.5,136.2 h 10.7 l -0.7,9.3 h -10.7 z m -22,45.7 1.5,1.5 h 4.7 c 1.8,0.1 3.8,0.2 6.2,0.2 2.3,0.1 4.1,-0.3 5.3,-1.1 0.1,-0.1 0.3,-0.4 0.4,-1 0.2,-0.6 0.3,-0.9 0.4,-1.2 0.1,-0.6 0.3,-1.5 0.4,-2.8 0.2,-1.3 0.4,-2.8 0.6,-4.2 0.2,-1.5 0.4,-2.9 0.7,-4.3 0.2,-1.4 0.4,-2.4 0.5,-2.9 l 0.7,-0.7 c 1,0 2,-0.1 3,-0.2 0.9,-0.1 1.8,-0.2 2.7,-0.3 0.9,-0.1 1.6,-0.1 2.2,-0.1 h 0.7 0.8 l 1.4,16.9 0.7,0.8 14.7,0.6 2,-0.3 1.7,-1.3 -1.4,-15.5 c 0,-0.2 0.7,-0.4 2.1,-0.5 1.4,-0.1 2.9,-0.2 4.7,-0.4 1.7,-0.2 3.4,-0.3 5,-0.5 1.6,-0.2 2.7,-0.4 3.2,-0.6 0.4,-2.2 0.7,-4.2 0.8,-6.1 0.1,-1.8 0.1,-3.9 0.1,-6.1 v -3.5 l -0.2,-1.6 h -15.5 l 1.3,-11 14.4,-0.5 c 0.7,0 1.2,-0.4 1.6,-1.3 0.4,-0.8 0.6,-1.5 0.6,-1.9 v -12.2 c 0,-0.2 -0.1,-0.6 -0.3,-1.1 -0.2,-0.5 -0.4,-0.9 -0.5,-1.1 0,-0.1 -0.1,-0.3 -0.3,-0.5 -0.1,-0.1 -0.2,-0.2 -0.3,-0.2 l -11.3,0.1 c 0,-0.4 0,-1.4 0,-2.6 -0.1,-1.2 0.6,-2.5 0.6,-3.9 v -3.8 -2.6 c 0,-0.2 0.1,-0.8 0.3,-1.8 0.2,-1 0.3,-1.6 0.3,-1.8 V 98 95.8 c 0,-0.4 -0.2,-1 -0.7,-1.7 -0.2,-0.2 -0.5,-0.5 -0.8,-0.9 -0.3,-0.4 -0.6,-0.6 -0.7,-0.6 H 132 l -0.7,0.7 c -0.1,4 -0.4,8.1 -0.9,12.3 -0.5,4.2 -1.4,8.2 -2.6,12.1 -0.4,0.1 -1.4,0.3 -2.8,0.4 -1.4,0.2 -2.4,0.2 -2.9,0.2 -0.2,0.1 -0.9,0.1 -2,0.1 -1.1,-0.1 -1.8,-0.1 -2.2,-0.1 0,-8.6 0.7,-16.6 2.2,-24.2 v -0.5 c 0,-0.6 -0.2,-1.1 -0.7,-1.6 -0.4,-0.5 -0.9,-0.8 -1.5,-0.9 -0.7,0 -1.8,0 -3.5,-0.1 -1.7,-0.1 -3.4,-0.1 -5.3,-0.2 -1.8,-0.1 -3.6,-0.2 -5.2,-0.3 -1.6,-0.1 -2.8,-0.1 -3.4,-0.1 h -1.3 -0.8 c -0.3,0 -0.5,0.2 -0.7,0.7 0.1,0.6 0.2,1.6 0.2,3 v 4.6 4.6 c 0,1.4 -0.1,2.4 -0.2,3 0,0.7 -0.1,1.6 -0.2,2.7 -0.1,1.1 -0.2,2.2 -0.4,3.2 -0.2,1.1 -0.3,1.9 -0.4,2.7 -0.1,0.7 -0.2,1.1 -0.3,1.1 H 79.1 v 17.3 l 0.3,0.3 0.3,0.3 c 0.3,0.2 1.1,0.4 2.2,0.5 1.1,0.1 1.8,0.2 2.2,0.2 h 3.5 c 1.1,0.1 2.6,0.2 4.4,0.4 1.8,0.2 2.8,0.3 2.9,0.4 l 0.7,0.7 v 2.5 3.8 c 0,1.2 -0.2,2.4 -0.7,3.7 -0.6,0 -1.4,0 -2.6,0.1 -1.2,0.1 -2.4,0.1 -3.7,0.2 -1.3,0.1 -2.5,0.2 -3.6,0.2 -1.1,0.1 -1.9,0.1 -2.3,0.1 -0.7,0.1 -1.7,0.3 -3.2,0.7 -1.4,0.3 -2.3,0.8 -2.7,1.5 v 2.5 2.7 c 0.1,0.7 0.2,1.6 0.2,2.7 0.1,1.1 0.1,2.2 0.2,3.3 0.1,1.2 0.2,2.5 0.2,3.8 l 0.8,1.3 h 12 c 0.3,0 0.9,0.1 1.8,0.3 0.4,0.1 0.8,0.2 1.2,0.3 v 16.1 z"
   clip-path="url(#SVGID_2_)"
   id="path12"
   inkscape:connector-curvature="0"
   style="fill:#e7cb14" />
</g>
</svg>