<?xml version="1.0" encoding="utf-8"?>
<!-- Generator: Adobe Illustrator 22.1.0, SVG Export Plug-In . SVG Version: 6.00 Build 0)  -->
<svg version="1.1" id="Camada_1" xmlns="http://www.w3.org/2000/svg" xmlns:xlink="http://www.w3.org/1999/xlink" x="0px" y="0px"
	 viewBox="0 0 1280 1024" style="enable-background:new 0 0 1280 1024;" xml:space="preserve">
<style type="text/css">
	.st0{fill:#6B78AF;}
	.st1{fill:#EF982E;}
	.st2{fill:#E7CB14;}
	.st3{fill:#E7CB15;}
	.st4{fill:#E7CC17;}
	.st5{fill:#FEFEFE;}
	.st6{fill:#FDFDFE;}
	.st7{fill:#FDFDFD;}
	.st8{fill:#F6F7FA;}
	.st9{fill:#FEFEFD;}
	.st10{fill:#FEFDFD;}
	.st11{fill:#FEFDFC;}
	.st12{fill:#FDF8F3;}
	.st13{fill:#F1A445;}
	.st14{fill:#FAFAF5;}
	.st15{fill:#6C79B0;}
	.st16{fill:#6B78B0;}
	.st17{fill:#848FBD;}
	.st18{fill:#EF9930;}
	.st19{fill:#EF992F;}
	.st20{fill:#F2AA52;}
</style>
<g>
	<path class="st0" d="M813.7,581.5c5.4,5,8.2,12.3,14.1,16.9c3.4,1.8,3,5.2,3.4,8.2c0.2,1.5,0.1,2.9-0.3,4.3
		c-4.5,17.6-2.8,13.7-15.9,24.3c-4.1,3.3-8.5,5.1-13.9,4.9c-14.9-0.4-29.8-0.6-44.7-1c-10.2-0.3-20.4-0.4-30.6-0.5
		c-4.8-0.1-9.5-1-14.4-0.8c-11.6,0.4-23.1,1.4-34.6,2c-9.5,0.5-18.9,1.2-28.4,1.7c-11,0.6-22.1,1.3-33.1,2
		c-9.7,0.6-19.4,0.9-29.1,1.8c-19.3,1.8-38.3-2-57.4-3.4c-11.7-0.8-23.2-2.5-34.9-3c-2.8,0.4-5.4-0.8-8.2-1
		c-0.4-0.2-0.7-0.4-0.9-0.8c-1.6-1.5-3.7-1.8-5.8-1.8c-3.9,0-7.8-0.2-11.8,0.2c-2.8,0.3-5.2-1-7.4-2.8c-4.5-3.7-7.7-8.5-11.1-13.1
		c-2.8-3.7-5.7-7.3-8.7-10.8c-2.6-3.1-4.2-6.1-4.1-10.2c0.2-15.4,0.1-30.7,0.1-46.1c0-5.4,3.6-8.7,9.1-8.5c3.8,0.1,7.5-1.2,11.3-1.4
		c8-0.6,16-1.4,24-2c1.4-0.1,2.6,0.6,3.9,0.7c1.1,0.5,1.5,1.5,1.7,2.6c2.5,7.1,4.3,14.5,7.8,21.2c1.5,3,2.3,6.2,3.9,9.1
		c2.4,4.3,5.4,7,10.3,7.1c4.6,0.1,9,1.9,13.5,2c3.7,0.2,7.5,1.3,11.1,0.7c5.3-0.9,10.9-0.5,15.7,0.6c6.9,1.6,13.9,1.6,20.5,1.1
		c7.7-0.6,15.7,1.7,23.2-1.7c0.9-0.4,2.2-0.4,3.3-0.2c10,1,19.7-1.4,29.5-2.1c6.1-0.4,12.2-1.6,18.4-0.7c2.9,0.4,5.8,0.4,8.7-1
		c1.5-0.7,3.3-0.7,5.1-0.8c9.4-0.1,18.6,0.7,28.1-1.1c9.8-1.8,20-0.5,30-1.4c11.9-1,23.8,0.3,35.7-0.2c9.8-0.4,19.6,0.2,29.3,1.6
		c4.7,0.7,9.6,0.2,14.4,0.3c3.2,0,6.4-0.1,9.5,0.7C807.3,579.8,810.9,578.8,813.7,581.5z"/>
	<path class="st1" d="M492.8,638.2c4.3-1.2,8.5,0.4,12.7,0.5c6.6,0.2,13.1,1.3,19.6,2c9.2,1,18.4,2.3,27.6,2.8
		c9.4,0.5,18.6,2.9,28.1,1.1c4.2-0.8,8.5-0.4,12.8-0.7c10.7-0.9,21.5-0.9,32.3-1.7c12.3-0.9,24.6-1.5,37-2.2
		c8.5-0.5,17.1-0.9,25.6-1.5c9.2-0.6,18.3-1.9,27.5-1.2c11.6,0.9,23.1-0.2,34.6,0.8c10.9,0.9,21.9,0,32.8,0.7c6,0.4,12,0.5,18,0.7
		c4.3,0.1,8.1-0.7,11.6-3.6c3.3-2.9,7.1-5.2,10.4-8c3.6-2.9,3.9-7.5,5-11.5c0.5-2,0.7-4.1,1.8-5.9c1.9-1.7,4.3-0.9,6.5-1.1
		c3.8,0.4,7.2-1.3,10.9-1.5c4.6-0.7,9.3-0.3,14-0.3c1.5,0,2.8,0.9,3.9,1.9c5,5.1,11.6,8.2,16.8,13c1.8,1.6,3,3,2.8,5.5
		c-0.3,3.8,0.6,7.6-1.1,11.3c-0.1,2.9-0.1,5.9-0.2,8.8c-0.6,2.4,0.1,5.1-1.3,7.4c-0.5,5-2.3,6.6-7.1,7.2c-5.7,0.8-11,3.3-16.4,5.1
		c-1.7,0.6-3,2.2-3.9,3.8c-2.8,5.4-6.9,10.1-9.1,15.9c-0.4,1.2-1.5,2.2-2.2,3.3c-0.6,2.1-2.2,3.4-4.1,3.7c-3,0.4-5.7,1.9-8.7,2.2
		c-3.7-0.3-7.4-0.4-10.9,1.1c-7.2,1.5-14.4,3.4-21.9,3c-0.7,0-1.2,0.3-1.6,0.7c-5.7,0.4-11.1,2.9-16.9,2.3c-0.9-0.1-1.7,0.3-2.5,0.6
		c-3.3,1.4-6.6,1.5-10,0.1c-3.1-1.6-6.3,0.3-9.4-0.3c-1.5,0.2-2.9-0.3-4.2-0.7c-2.9-0.8-5.9-1.1-8.6-2.2c-0.1-0.1-0.2-0.2-0.3-0.3
		c-3-0.4-6.1,0-9.2-0.2c-4.7-0.8-9.3-1.6-13.9-2.9c-4,0.4-7.9,0.3-11.8-1.3c-2.3-0.9-5,0.4-7.6,0.1c-1.9,0-3.9,0-5.8,0
		c-2.1,0.1-4.2-0.2-6.3,0.3c-2.3-0.2-4.3,1.7-6.7,1.2c-4.1,0-8.3-0.8-12.3,1c-2.4,0.5-4.9,0.7-7.3,1.3c-1.6,0.4-3.3,0.4-5,0.3
		c-5.6,0.9-11.2,1.8-17,1.7c-2.4,0.6-4.8,1.5-7.4,1.3c-5.4,0.2-10.7-0.1-15.9-1.5c-4.7,0.2-9.3,0-13.8-1.5c-1.2-0.4-2.6-0.2-3.7-1
		c-1.6-0.9-3.4-0.5-5-0.4c-6.1,0.3-11.9-0.7-17.6-2.7c-3.1-1.1-6.5,0.3-9.8-0.3c-8.2,0.1-16.4-0.2-24.6,0.2
		c-4.6,2.4-9.7,0.8-14.5,1.4c-2.7,0.3-5.4,0.2-8.1,0.3c-4.3,1.5-8.7,1.9-12.9-0.2c-7-3.7-13.9-7.7-21-11.2c-2.6-1.3-4.3-3.8-4.7-6.7
		c-0.3-1.8-0.8-3.6-0.9-5.4c-0.1-1.3,0.3-2.6-0.3-3.8c-0.7-4.7-2.2-9.2-1.5-14.1c0.9-4.3,3.7-7.7,6-11.3
		C488.5,643,490,640,492.8,638.2z"/>
	<path class="st2" d="M604.5,310.8c3.2,5,2.7,11,4.3,16.5c0.7,2.5,0.1,5.1-0.8,7.5c-0.6,1.8-0.6,3.6-0.5,5.4
		c-2.3,7.6-6.5,13.9-12.4,19.1c-0.4,0.3-0.8,0.6-1.2,0.8c-4,1.8-4.1,1.9-1.7,5.6c2.7,4.1,5.2,8.3,8.4,12.1c2.5,3,2.9,7,4.9,10.3
		c1.1,1.9,2.4,3.7,3.6,5.5c3.1,4.8,5.8,9.9,7.4,15.4c0,4.7,0,4.7-4.5,4.7c-4.2,0-8.1,1.6-12.1,2.5c-2.8,1-5.7,0.3-8.6,0.5
		c-1.2-0.1-2.3-0.3-3.1-1.2c-1.6-3.6-4-6.7-5.7-10.2c-0.2-0.3-0.3-0.6-0.4-0.8c-0.2-1.1-0.9-2-1.7-2.7c-0.6-0.8-1.2-1.6-1.4-2.6
		c-0.4-3.5-1.4-6.6-4.3-9c-1.5-2.6-3-5.1-3.8-8l0,0c-1.7-4.6-4.2-8.6-7.8-11.9c-1.1,1.2-1.1,1.2-1.1,2.6c-0.1,1.6,0.2,3.2,0.4,4.7
		c1.8,9.9,1.5,19.9,1.5,29.8c0,1.2,0.3,2.5-0.3,3.6c-0.2,5.4-1.4,6.6-6.8,6.9c-6.5,0.3-13,0.8-19.4-1c-2.6-0.7-3.5-1.7-3.5-4.4
		c0.1-13.5,0.2-27.1,0-40.6c-0.1-5.7-1.1-11.4-1.9-17.1c-0.3-2.3-0.1-4.7-0.4-7c-2-13-1.7-26.1-1.5-39.2c0.1-5.1,0.9-10,1.1-15
		c0.6-1.5,2-1.2,3.2-1.2c15.7,0,31.4-0.1,47.2,0c5.6,0,10.5,2.2,14.4,6.3C598.8,302.7,603.2,305.6,604.5,310.8z"/>
	<path class="st2" d="M768.6,378.1c-1.4,2.8-1.6,5.8-1.5,8.8c-2.3,10.1-7.6,18.2-16,24.3c-3.4,2.2-7,4-10.9,5.1
		c-3.9,1.5-7.7,3.1-12,2.1c-3.3,0.7-6.5,0.2-9.7-0.9c-3.2-1.1-6.7-1.7-10-1.9c-7.6-0.4-13.6-3.8-18.8-8.7c-4.3-4-8.8-7.8-12-12.9
		c-3-4.7-5.2-9.7-5.5-15.4c-0.1-1.5-0.8-2.8-0.9-4.3c-1.3-3.1-0.2-6.3-0.6-9.4c-1.1-9.3,2.1-17.5,6.3-25.5c4.2-5,9.1-9.3,13.6-14
		c1.3-1.4,3.3-1.6,4.9-2.4c2.4-1.7,4.9-3.3,8-3.6c5.3-0.6,10.4-1.5,15.5-2.8c5-0.3,10.1-0.5,15.1,0c6.9,0.7,12.6,4.5,17.8,8.8
		c9.2,7.6,14,17.8,16.4,29.3c0.3,1.4,0.2,2.9,0.6,4.4C768.8,365.3,769.5,371.7,768.6,378.1z"/>
	<path class="st2" d="M629.7,399.9c-2.2-23.4-1.4-46.9-1.5-70.3c0-3.4,0.9-4.4,4.3-4.3c6.8,0.3,13.5,0.2,20.3,0
		c2.5-0.1,3.3,1.1,3.4,3.2c0.1,1.1,0.1,2.2,0,3.3c-0.6,16,1.3,31.9,2,47.8c0.5,10.6,0.5,21.3,1.1,31.9c0.2,3-0.7,4.2-3.9,4
		c-7.5-0.3-15-0.4-22.5-0.3c-2.8,0-3.3-1.2-3.2-3.6C629.8,407.8,629.7,403.9,629.7,399.9z"/>
	<path class="st2" d="M658.7,527.7c-5.4-7-15.4-9.2-24.6-6.2c-2.9,1.6-6.3,2.1-8.8,4.5c-2.5,0.8-3.8,2.7-4.6,5.1l0,0
		c-1.8,1.4-2,3.3-2.1,5.4c0.1,0.2,0,0.4-0.2,0.6c-1.9,5.1-1.1,10.4-0.7,15.6c0.3,0.3,0.4,0.7,0.5,1.1c0.1,0.1,0.2,0.2,0.3,0.3
		c2,3.5,3.7,7.2,7.4,9.3c2.7,1.5,5,3.5,7.8,4.8c7.2,2.7,14.2,1.9,21-1.6c0.9-1,1.9-2,2.8-3c1.1-0.7,2.1-1.5,2.1-3
		c0-0.3,0.1-0.5,0.3-0.7c1.2-3.2-2.3-6.6-6.6-6.6c-1.2,0.9-2.3,1.8-3.7,2.3c-0.3,0.2-0.6,0.3-0.8,0.5c-1.4,0.7-2.9,0.7-4.4,0.8
		c-2.5,0-4.9,1.4-7.5,0.7c-2.5-0.3-4.3-1.5-5.9-3.3c-1.1-1.2-1.7-2.5-1.2-4c0.6-1.8,2.3-1,3.5-1c5.9-0.1,11.9,0.8,17.6-0.2
		c12.7-2.1,13.1,0.5,12.8-11.5C664.7,533.1,661,530.6,658.7,527.7z M637.4,535.9c-0.1,0.3-0.3,0.6-0.7,0.7c-0.1,0-0.2,0.1-0.3,0.1
		c-0.2,0.3-0.4,0.5-0.8,0.5c0,0-0.1,0-0.1,0c-0.2,0.1-0.4,0.1-0.7,0.1c-0.4,0-0.7-0.1-0.9-0.5c0,0,0,0,0,0c-0.4-0.5-0.3-1.3,0.5-1.5
		c0.2-0.1,0.4-0.1,0.6-0.2c0.1-0.1,0.3-0.2,0.4-0.3c0.3-0.3,0.6-0.3,0.8-0.3c0.1,0,0.1-0.1,0.2-0.1
		C637.3,533.9,637.9,535.3,637.4,535.9z"/>
	<path class="st2" d="M694.8,470.5c0-8.1-0.1-16.3-0.1-24.4c0-2.3,0.1-4.7-0.6-7c-0.6-2,0.1-3.8,2.3-4.2c4.1-0.7,8.3-0.7,12.5,0
		c0.8,0.1,1.2,0.7,1.4,1.5c1.7,2.1,3.4,0.8,5,0c0.8-1,1.9-1.1,3-1.4c4.5-2,9-2.7,13.6-0.4c0.4,0,0.7,0.1,1.1,0.1
		c1,0.4,2,0.8,2.9,1.2c0.3,0.2,0.6,0.3,0.9,0.6c6.6,6.1,6.6,6.6-0.5,13.2c-2.4,2.3-5.2,3.2-8.4,2.7c-1.2-0.2-2.2-0.8-3.4-1.2
		c-0.3-0.1-0.6-0.3-0.9-0.5c-4.6-1.6-7.3-0.1-9.5,5.1c-1.8,3.8-2.8,15-1.8,18.7c0.2,3-0.3,6,0.4,9c-0.2,3.3,0.6,6.7-0.4,10
		c-0.3,0.1-0.7,0.2-1,0.3c-4.6,0.3-9.3,0-13.9,0.1c-1.8,0.1-2.4-0.6-2.3-2.4c0.1-2.7,0-5.4,0-8.1
		C694.9,479.1,695.4,474.8,694.8,470.5z"/>
	<path class="st2" d="M783.9,538.7c-0.8-2.7-1.4-5.4-2.1-8.1c-2-3-2.7-7.2-7.3-7.6c-7.9-5-20.6-3.6-28.1,2.5
		c-6.3,5.1-7.6,11.5-7.6,19.2c0,8.4,3.5,14.2,9.9,18.9c1,0.9,2.2,1.6,3.5,2c6.9,2.2,13.9,3.3,21,0.7c4.7-1.9,7-5.7,8.7-10.1
		c0.3-0.9,0.4-1.9,0.8-2.8C785.1,548.6,785.5,543.8,783.9,538.7z M772.9,542.2c-0.3,1.4,0.2,2.8-0.6,4.1c-0.6,0.9-1.8,0.4-1.9-0.5
		c0-0.2,0-0.5,0-0.7c-0.1-0.2-0.2-0.5-0.1-0.8c0-0.1,0.1-0.2,0.1-0.4c0,0,0-0.1,0-0.1c-0.1-0.7,0-1.3,0.1-2c0-0.1,0-0.2-0.1-0.3
		c-0.5-1.2,1.5-1.7,1.9-0.5c0,0,0,0,0,0c0,0,0,0,0,0c0.2,0.1,0.3,0.2,0.4,0.4C772.9,541.6,772.9,541.9,772.9,542.2z"/>
	<path class="st2" d="M546.8,567.3c-10.3,1.3-10.3,1.3-10.3-9c0-3.3,0.2-6.7,0-10c-0.7-8.8,2.2-17.3,1.7-26c3.2-0.9,6.4-0.6,9.6-0.1
		c1.4,0.5,2.7,1.5,4.3,0.6c4.6-2.3,9.5-1.6,14.3-1.4c7.6,2.7,10.1,9,10.4,16.2c0.4,9.1,0.1,18.2,0.1,27.3c0,1.8-0.4,3.6-2.3,3.4
		c-3.8-0.4-7.6,0.5-11.3-0.7c-0.9-7.6-0.2-15.2-0.3-22.8c0-2.5-0.1-4.8-1.3-7.1c-2-4.1-6.5-4.9-9.6-1.5c-1.6,1.7-2.8,3.9-3.1,6.2
		c-0.7,6.9-2.3,13.7-1.7,20.7C547.3,564.4,547.7,565.9,546.8,567.3z"/>
	<path class="st2" d="M597.9,567.6c-7.7-0.1-6.6,1.1-6.6-6.6c-0.1-7.4-0.1-14.8,0-22.2c0-2.5-0.5-4.1-3.4-3.7
		c-1.6,0.2-2.5-0.4-2.7-2.2c-0.2-1.6-1-3.1-1.2-4.6c-0.7-4.3-0.1-5,4.2-5c2.4,0,3.3-0.8,3.1-3.2c-0.2-2.1,0-4.2,0-6.3
		c-0.1-3.6,1.9-5.1,5.2-5.3c1.3-0.1,2.7,0,4.1,0c1.9-0.1,2.8,0.9,2.5,2.7c-0.6,3.7,1.4,6.9,1.6,10.5c0.1,2.1,1.9,1.7,3.1,1.5
		c3.6-0.5,4.3,1.2,4.3,4.4c0,4-0.6,7-5,8.1c-2.3,0.6-2.4,2.9-2.4,4.9c0,7.3,0,14.5,0,21.8c0,5.2,0,5.2-5.2,5.2
		C598.9,567.6,598.4,567.6,597.9,567.6z"/>
	<path class="st2" d="M526.1,526.6c0,11.9,0,23.9,0.1,35.8c0,3.4-1.6,4.9-4.9,5.1c-9.8,0.6-9.8,0.7-9.8-9.2
		c0-15.3,0.1-30.6-0.1-45.8c0-3.1,0.9-4.2,4-3.9c2.1,0.2,4.2,0,6.3,0.1c2.1,0.1,3.8,0.9,4.4,3.2
		C525.8,516.8,525.5,521.7,526.1,526.6z"/>
	<path class="st2" d="M722.8,535.5c-1.3-1.1-2.8-1.6-4.5-0.8c-2.1,0.8-3.6,2.3-4.4,4.5c0,0.2-0.1,0.4-0.1,0.7
		c0.5,3.8-1.2,7.5-1.1,11.3c0.1,4.3,0.3,8.5,1.3,12.7c0.9,3.4,0.1,4.1-3.5,4.1c-2.5,0.1-4.9,0-7.4,0c-2.1,0-3-0.8-3-3.1
		c0.1-4.8-0.3-9.6,0.1-14.4c0.7-8.9-1.6-17.5-1.5-26.4c2.7-2.6,6.1-1.4,9.2-1.9l0,0c1-0.6,2-0.3,2.7,0.3c2.4,2.2,4.8,1.6,7.3,0.4
		c0.5-0.5,1.3-0.2,1.9-0.6l-0.1,0c5.7-2,10.4-0.4,14.5,3.7c1,1.1,1.8,2.3,1.5,3.9c-0.7,1.6-2.3,2.4-3.5,3.6
		C729.8,536.5,726.6,537.9,722.8,535.5z"/>
	<path class="st2" d="M654.7,292.5c0.5,1.2,1,2.3,1.5,3.5c0.9,3.4,0.5,6.8,0.3,10.2c-0.3,4-5.7,8.5-9.7,8.6c-2.5,0-4.9-0.2-7.4,0
		c-6.3,0.6-10.2-2.5-12.9-7.8c-0.3-3.5-0.2-7.1-0.1-10.6c0.2-6.3,6-11.6,11.6-11.3c4.7,0.2,9.1,0.6,13.2,3.3
		C652.8,289.6,654,290.8,654.7,292.5z"/>
	<path class="st3" d="M688.8,550c0,6-0.1,10.3,0,14.6c0.1,2.7-1,3.5-3.5,3.2c-2.6-0.3-5.1-0.5-7.7-0.6c-1.6-0.1-2.1-0.8-2.1-2.3
		c0-12.5,0-25.1,0-37.6c0-0.2-0.1-0.5,0.1-0.7c2.4-3.7,6-0.9,9-1.7c1.7-0.4,2.7,0.4,2.8,2.4C687.5,535.4,690,543.4,688.8,550z"/>
	<path class="st4" d="M677.6,505.2c2.2-1.3,4.1,0.3,6.1,0.8c3,0.8,4.4,2.6,4.1,5.8c-0.1,1.3,0,2.6-0.1,4c-1.8,3.5-4.6,4.5-9.3,3.4
		c-3.6-0.9-4.6-2.2-4.6-6.3c0-1.6-0.2-3.2,0.4-4.7C674.6,506.4,676.5,506.2,677.6,505.2z"/>
	<path class="st5" d="M464.8,555c5.9,0,5.9,0,6,5.9c0,5.2,0,5.1,5.4,5.2c1.6,0,4.1-1,4.7,0.8c0.8,2.9,0.6,6.1,0,9.1
		c-0.1,0.7-1.3,0.6-2,0.6c-1.4,0-2.7,0-4.1,0c-4.6,0-4.7,0.2-4.8,4.8c0,5.2-0.3,5.4-5.6,5.5c-0.5,0-1,0-1.5,0
		c-6.5-0.1-5.4,0.8-5.5-5.4c-0.1-4.5-0.3-5-5.5-4.8c-3.8,0.1-4.1-1.9-4.2-4.8c-0.1-3.2,0-5.7,4.2-5.9c6.8-0.3,7.1-0.5,6.8-7.1
		C458.7,553.7,462.1,555.2,464.8,555z"/>
	<path class="st5" d="M512.1,622.2c0,2-0.2,3.7,0,5.4c0.4,3.3-1.3,3.9-4.2,3.8c-1.9-0.1-2.6-0.6-2.5-2.6c0.1-9.2-0.3-18.4,0.8-27.5
		c0.4-3.7,3.4-2.2,4.8-1.8c1.7,0.5,3,0.3,4.6,0c10.4-1.8,15.2,4.8,13.1,15.2c-1.5,7.5-6.5,10-14,7.8
		C514.1,622.5,513.3,622.4,512.1,622.2z"/>
	<path class="st5" d="M698.4,608c0,3.8-0.2,7.6,0.1,11.4c0.2,3-0.8,4.7-3.8,3.8c-3.6-1.1-7,0.3-10.5,0.1c-5-0.2-8.5-3.4-8.7-8.4
		c-0.1-2.5-0.2-4.9,0-7.4c0.7-7,7-10.7,13.7-7.8c3.1,1.4,3.3,0.5,3.4-2.3c0-1.6-1.8-4.5,2-4.7c2.6-0.2,4.1,0.2,3.9,3.5
		C698.2,600.1,698.4,604,698.4,608z"/>
	<path class="st5" d="M757.6,607.9c0,3.7-0.2,7.4,0.1,11.1c0.2,3.2-0.7,5.2-4.1,4.2c-3.5-1-6.7,0.3-10.1,0.1
		c-5.2-0.2-8.7-3.5-8.7-8.7c0-2.9-0.5-5.9,0.4-8.8c1.9-6.1,6.5-8.5,12.5-6.4c4,1.4,3.9,1.4,4-3c0-1.7-0.7-3.7,2.4-3.7
		c2.7,0,3.7,0.7,3.5,3.5C757.4,600,757.6,604,757.6,607.9z"/>
	<path class="st6" d="M728,611.7c0,2.5,0,4.9,0,7.4c0,4-2.3,5.7-5.9,3.9c-1.6-0.8-2.4-0.5-3.8-0.1c-4.2,1.3-8.2,0-11.3-2.7
		c-3.5-3.1-3.2-7.5-2.3-11.7c1.6-7.4,8.4-11.5,15.2-7.8c1.3,0.7,1.1-0.2,1.7-0.7c1.5-1.3,3.5-0.8,5.2-0.3c1.5,0.4,1.2,2,1.2,3.2
		C728,605.8,728,608.7,728,611.7z"/>
	<path class="st6" d="M770.4,613.6c1.4,4.4,5.8,5.7,10,3.2c1.5-0.8,2.8-2,4.5-0.2c1.4,1.4,1.4,2.2,0.1,3.9c-3.5,4.5-11.1,4-14.8,1.9
		c-4.6-2.5-6.8-8-5.8-13.2c1.8-9.4,12-13.6,20-6.8c2.5,2.2,3.8,5.3,3.5,8.9c-0.2,2-1.5,2.3-3.1,2.2
		C780,613.6,775.3,613.6,770.4,613.6z"/>
	<path class="st6" d="M498.8,611.9c0,8.4-2.8,11.4-10.6,11.4c-7.4,0-12.3-4.9-12.3-12.4c0-7.6,4.4-11.5,12.8-11.5
		C495.8,599.4,498.8,603.2,498.8,611.9z"/>
	<path class="st6" d="M558.7,611.7c0,8.5-2.8,11.6-10.4,11.6c-7.7,0-12.6-4.9-12.5-12.5c0-7.4,4.5-11.4,13-11.3
		C555.6,599.4,558.7,603.2,558.7,611.7z"/>
	<path class="st6" d="M607.5,607c0-1.5,0-2.3,0-3.2c0-4.6,1.2-5.3,5.5-3.7c1.6,0.6,1.1,1.7,1.1,2.7c0.1,3.4-0.2,6.8,0.8,10.2
		c0.5,1.9,1.1,3.6,3.6,3.3c2.3-0.2,3.1-1.6,3-3.8c0-3.6,0-7.1,0-10.7c0-4.4,3.3-2.1,5.1-2.5c2-0.4,2.7,0.6,2.5,2.8
		c-0.4,5-0.1,10-1.7,14.8c-1.7,5-4.2,6.4-10.1,6.2c-4.2-0.2-7.2-2.8-8.6-7.1C607.7,612.9,607.3,609.7,607.5,607z"/>
	<path class="st6" d="M635.6,611.7c0-2.8,0.1-5.7,0-8.5c-0.1-2.3,0.5-3.7,3-3.1c3.1,0.7,6.2-0.1,9.3,0c4.4,0,7.3,2.4,7.6,6.8
		c0.3,4.8,0,9.6,0.1,14.4c0,2.8-2,1.9-3.4,2c-1.4,0-3.4,0.7-3.3-2.1c0.1-3.3,0.2-6.7-0.1-9.9c-0.2-2,0.2-4.7-3.1-4.9
		c-3.3-0.2-3.7,2.5-4.1,4.6c-0.6,3.2-0.7,6.5-0.8,9.8c0,1.9-0.6,2.6-2.5,2.6c-2.1,0-2.9-0.6-2.7-2.7
		C635.7,617.6,635.6,614.7,635.6,611.7z"/>
	<path class="st7" d="M803.2,617.5c-0.5-2.1-1.5-3.3-3.2-4.1c-1.1-0.5-2.1-1.3-3-2.1c-3.6-3.4-4.4-8.3-1.8-10.7
		c3-2.8,10.7-1.9,13.2,1.6c0.8,1.1,1.1,2.2-0.3,3.2c-1.2,0.8-1.9,2.8-3.9,1.4c-1-0.7-2.1-1.8-3.8-0.8c0.8,1.7,2,2.4,3.7,3.2
		c3.3,1.5,6,4,5.6,7.8c-0.4,3.3-2.5,6.3-6.3,6.8c-3.5,0.5-6.7-0.8-9.5-2.9c-1.3-1-1.4-2.3-0.1-3.5c1-1,1.8-2.4,3.5-0.8
		C799,618,801,618.2,803.2,617.5z"/>
	<path class="st6" d="M601.6,603.5c-0.2,1.5,0.7,3.4-1.9,3.6c-1.4,0.1-1,1.5-1,2.4c-0.1,3.2-0.1,6.4,0,9.6c0.1,2.5,0.2,4.3-3.4,4.3
		c-4,0-3.1-2.3-3.3-4.5c-0.2-2.9,0.5-5.9-0.5-8.8c-0.5-1.4,0-2.9-2.3-3.4c-1.8-0.4-1.1-5.5,1-6.3c1.9-0.7,2.2-1.5,1.5-3.2
		c-0.5-1.2-0.9-2.6,0.5-3.7c1.5-1.1,3.4-1.1,5-0.6c1.7,0.6,0.7,2.3,0.9,3.6c0.2,1.7-0.5,3.7,2.5,3.8
		C602.4,600.3,601.2,602.4,601.6,603.5z"/>
	<path class="st7" d="M565.4,615c0.6-3.2-0.8-6.9-0.7-10.7c0.1-4,2.1-5.6,5.5-3.8c1.7,0.9,2.8,0.7,4.3,0c1.6-0.7,3.3-0.6,5,0
		c1.8,0.6,4.1,1.1,3.5,3.4c-0.6,2.3-2.6,3.9-5.3,3.6c-4.4-0.5-6.2,0.9-6.3,5.3c-0.1,2.2-0.1,4.3,0.5,6.6c0.4,1.5,1.2,3.9-2.1,3.8
		c-2.2-0.1-5,0.8-4.4-3.2C565.5,618.6,565.4,617.1,565.4,615z"/>
	<path class="st6" d="M669,610.6c0.1,2.8-0.3,5.6,0.5,8.4c0.6,2,0.6,4.3-2.8,4.3c-2.4-0.1-4.9,0.6-4.6-3.5
		c0.3-5.2-1.1-10.4-0.7-15.7c0.1-1.7,0.2-3.3,2.5-3.2c2,0,4.4-0.7,4.7,2.5C668.8,605.8,668.8,608.2,669,610.6z"/>
	<path class="st8" d="M664,591.9c3.3,0.2,4.9,1.4,4.8,4.1c-0.1,2.2-1.6,3-3.8,3c-2.4-0.1-3.6-1.2-3.5-3.6
		C661.5,593.3,662.1,591.6,664,591.9z"/>
	<path class="st9" d="M604.5,681.3c-8.3-4.5-10.1-14.3-3.6-20.2c1.3-1.2,2.8-1.8,4.6-1.9c4.3-0.2,8.6,1.3,13,0.1
		c1.8-0.5,3.1,0.4,3,2.6c-0.3,6.2,0.6,12.5-0.7,18.7c-1,4.6-3.4,8.5-8,9.6c-4.7,1.1-9.5,0-13.2-3.6c-1.1-1-1.8-2.4-1.7-3.9
		c3.1-0.5,6.1-0.8,9.1,1.3c1.9,1.3,4.2,1,5.6-1.6C609.8,681.5,606.9,683.1,604.5,681.3z"/>
	<path class="st9" d="M781.2,667c0,3.7-0.3,7.4,0.1,11.1c0.4,3.8-1.3,5.2-4.5,4.2c-3.3-1.1-6.2,0.3-9.3,0.2
		c-5.7-0.2-9.2-3.4-9.1-9.1c0-2.8-0.5-5.6,0.4-8.4c2-6.1,6.5-8.5,12.5-6.4c4,1.4,3.9,1.4,4-3c0-1.7-0.8-3.7,2.4-3.8
		c2.7,0,3.8,0.5,3.6,3.4C781,659.1,781.2,663.1,781.2,667z"/>
	<path class="st9" d="M722.1,667.5c0,3.7-0.2,7.4,0.1,11.1c0.2,3-0.8,4.7-3.8,3.7c-3.6-1.1-7,0.3-10.4,0.1c-5.2-0.2-8.6-3.5-8.7-8.8
		c0-2.3-0.2-4.7,0-7c0.8-7,7-10.7,13.7-7.8c3.2,1.4,3.3,0.5,3.4-2.3c0-1.7-1.7-4.7,2.4-4.8c2.8-0.1,3.7,0.7,3.5,3.5
		C721.9,659.3,722.1,663.4,722.1,667.5z"/>
	<path class="st9" d="M525.5,667.1c0,3.7-0.2,7.4,0.1,11.1c0.3,3.5-1,5.1-4.2,4c-3.5-1.1-6.7,0.4-10.1,0.2c-5-0.3-8.5-3.4-8.7-8.4
		c-0.1-2.3-0.2-4.7,0-7c0.5-7.1,6.8-11.1,13.4-8.2c3.6,1.6,3.8,0.4,3.6-2.6c-0.1-2-1.1-4.6,2.9-4.4c2.4,0.1,3.2,0.8,3.1,3.2
		C525.3,659,525.5,663.1,525.5,667.1z"/>
	<path class="st10" d="M851.3,643.2c-4.2,0-8.4,0-12.5,0c-2.9,0-4.5-1-4.4-4.5c0.2-8.9,0.1-8.9,9-9c7.3-0.1,14.6,1.3,22,0.7
		c2.1-0.2,2.5,0.9,2.4,2.6c-0.1,2.2-0.2,4.4,0,6.6c0.2,2.7-1.3,3.5-3.5,3.5C859.9,643.2,855.6,643.2,851.3,643.2z"/>
	<path class="st9" d="M752.4,670.9c0,2.3,0,4.7,0,7c0,4.3-2.6,6.2-6.3,4c-1.2-0.7-1.8-0.6-2.8-0.2c-4.6,1.8-8.8,0.3-12.2-2.7
		c-3.2-2.8-3.3-9.7-0.8-14.9c1.9-3.8,5.7-6.2,9.8-5.5c2.9,0.5,5.6,1,8.5,0c2.4-0.8,3.9,0.5,3.7,3.4
		C752.3,664.9,752.4,667.9,752.4,670.9z"/>
	<path class="st9" d="M679.2,670.7c0,2.3,0,4.7,0,7c0,4.6-2.4,6.2-6.4,4c-0.9-0.5-1.3-0.6-2.2-0.3c-6.4,2.1-12.6-0.4-14.6-5.8
		c-2.3-6.1,1.2-14.4,7-16.7c0.7-0.3,1.4-0.4,2.1-0.4c3.7-0.1,7.2,2,11.1,0.1c1.8-0.9,3.1,0.6,3.1,2.9
		C679.1,664.6,679.2,667.6,679.2,670.7z"/>
	<path class="st10" d="M545.8,672.8c-1.7,0-3.5-0.1-5.2,0c-1,0.1-2.9-0.9-3,0.9c-0.1,1.4,1,3.1,2.6,3.1c2.5,0.1,5.1,1,7.4-0.9
		c1.8-1.5,3.4-1.3,5,0.6c1.8,2.2-0.4,2.8-1.3,3.8c-3.2,3.4-9.1,3.9-13.9,1.4c-4.5-2.3-7-7.7-6.1-12.7c1.9-10.2,12.5-14,20.3-7.2
		c1.8,1.6,2.8,4,3.2,6.4c0.6,3.8-0.2,4.5-4,4.5C549.2,672.8,547.5,672.8,545.8,672.8z"/>
	<path class="st10" d="M793.8,672.8c1.8,4.2,6.2,5.6,9.8,3.6c0.6-0.3,1.2-0.7,1.9-1.1c1.8-1.2,2.6,0.4,3.7,1.4
		c1.4,1.3,0.4,2.1-0.5,3c-3.6,3.9-9,4.8-14.4,2.3c-4.7-2.2-7.4-7.7-6.4-12.9c2-10.2,12.5-14,20.3-7.2c1.8,1.6,2.8,4,3.2,6.5
		c0.6,3.8-0.2,4.5-4.1,4.5C803,672.8,798.6,672.8,793.8,672.8z"/>
	<path class="st9" d="M642.2,666.5c0-1.5,0.2-3,0-4.4c-0.5-3.1,0.9-3.6,3.7-3.6c3.2,0,4.2,0.6,3.9,4.1c-0.4,4.7-0.3,9.5-1.8,14.1
		c-1.6,4.6-4.3,6-10.1,5.7c-4.1-0.2-7-2.9-8.4-6.8c-1.6-4.5-1.2-9.2-1.3-13.8c0-1.5,0.1-3.6,2-3c1.6,0.5,4.9-0.9,4.7,3
		c-0.2,3.3-0.1,6.6,0.6,9.8c0.5,2.2,0.9,4.2,3.8,3.9c2.6-0.3,3-2.1,2.9-4.2C642.2,669.7,642.2,668.1,642.2,666.5z"/>
	<path class="st11" d="M826.9,676.6c-0.5-2.1-1.4-3.4-3.2-4.1c-1.9-0.7-3.2-2.2-4.5-3.7c-2.1-2.3-2.4-5.1-1.1-7.8
		c1.4-2.8,4.3-3.2,6.9-3.2c2.6,0,4.9,1.5,6.8,3.2c0.8,0.7,1.8,2,0.4,3.1c-1.2,1-1.9,3.1-4.1,1.8c-1.1-0.6-2.1-1.7-3.9-1
		c0.8,1.6,1.8,2.5,3.5,3.2c6.3,2.8,7.6,8.4,3.3,12.7c-2.9,2.9-11.6,1.9-13.8-1.6c-0.9-1.4-0.2-2.3,0.7-3.2c0.9-0.8,1.5-2,3-0.7
		C822.5,677.1,824.5,677.4,826.9,676.6z"/>
	<path class="st11" d="M568.4,665.1c0.8,1.6,2,2.5,3.6,3.2c5.6,2.5,7.2,7.3,4.1,11.7c-2.8,3.9-12.4,3.5-14.8-0.7
		c-0.8-1.4,0-2.3,0.9-3.2c0.9-0.9,1.6-1.8,3-0.5c1.6,1.5,3.7,1.7,5.9,1c-0.3-2.1-1.4-3.4-3.2-4.2c-0.8-0.3-1.5-0.8-2.2-1.3
		c-4-3.4-5.3-8.4-2.8-11.2c2.7-2.9,10.3-2.4,13.3,1.1c0.7,0.9,1.6,2.1,0.2,3.2c-1.2,0.9-2,3-4.1,1.7
		C571.1,665.3,570.1,664.2,568.4,665.1z"/>
	<path class="st9" d="M686.6,670.3c0.7-4.8-0.9-10.5-0.8-16.2c0-3,2-2.1,3.6-2.2c1.5-0.1,3.3-0.4,3.2,2.2
		c-0.3,8.2,1.1,16.4,0.8,24.6c-0.1,3-1.2,3.7-3.9,3.8c-3.2,0.1-2.8-1.8-2.8-3.8C686.6,676.2,686.6,673.8,686.6,670.3z"/>
	<path class="st10" d="M591.1,669.7c0.3,2.9,0,5.8,0.8,8.7c0.5,1.9,0.4,4.1-2.7,4c-2.3-0.1-5,1-4.7-3.3c0.4-5.2-1.1-10.4-0.7-15.7
		c0.1-1.9,0.3-3.4,2.7-3.4c2.1,0,4.3-0.2,4.5,2.7C591.2,665,591.1,667.3,591.1,669.7z"/>
	<path class="st12" d="M588.1,658c-2.9,0-4.3-1.1-4.2-3.5c0-2,0.6-3.6,3.1-3.4c2.6,0.1,4.2,1.3,4.2,3.9
		C591.2,657.2,589.6,658.1,588.1,658z"/>
	<path class="st13" d="M604.5,681.3c2.7-0.1,5.3,0.5,8-0.5c1.6-0.5,2,0.6,1.5,1.9c-0.9,2.4-6.5,4-7.9,2c-2.3-3.5-5.3-2.1-8.2-2.1
		C599.8,680.8,602.5,682.8,604.5,681.3z"/>
	<path class="st14" d="M651.1,535.6c-1.3-1.6-3-2.7-5.1-3c-3.5-0.2-7.2-1.1-9.9,1.8c0,0-2.6,1.2-1.9,0.9c-0.1,0-0.2,0-0.3,0.1
		c-0.7,0.7-1.9,1.2-0.7,2.4c5.4,0.6,10.8,0.1,16.2,0.3C651.3,538.2,651.9,537.3,651.1,535.6z"/>
	<path class="st9" d="M772.3,546.3c-0.6,0.9-1.8,0.4-1.9-0.5c-0.2-1.3,0.3-2.7,0.3-4c0-0.3,0.1-0.5,0.3-0.7c0.2-0.2,0.4-0.3,0.7-0.3
		c0.3,0,0.5,0.1,0.7,0.3c0.1,0.1,0.2,0.2,0.2,0.3c0.1-0.5,0-1-0.3-1.5c-0.4-2-1.2-3.8-2.9-5.1c-6.7-4.3-14-2.5-17,4
		c-0.9,3.2,0.2,6.2,1.3,9.2c2.7,5.7,5.8,7.1,13.4,6.1l0,0c0.9-0.9,1.6-1.9,2.6-2.6c1.7-1.4,2.7-3.4,2.7-5.5
		C772.4,546,772.4,546.2,772.3,546.3z"/>
	<path class="st2" d="M614.9,471c0.1-0.3,0.1-0.6,0.2-0.8c0.2-0.4,0.4-0.8,0.6-1.3c0,0,0-0.1,0-0.1c0.1-0.3,0.1-0.5,0.2-0.8
		c0-0.6,0-1.2,0.2-1.8c0.9-10.7-1.1-20.6-8.8-28.8c-3.8-1.3-6.7-5-10.7-5.1c-6.8-0.2-13.7-1.3-20.3,1.3c-1.5,1.4-2.9,2-4.5,0
		c-1-1.3-2.6-1.7-4.3-1.6c-2.5,0.1-4.9,0.3-7.4,0c-3.4-0.3-4.4,0.8-4.4,4.3c0.2,16.8,0.1,33.7,0,50.5c0,1.3,0.2,2.8-0.2,4
		c-2.2,6.4-0.8,12.9-1.3,19.4c-0.1,2,0.8,2.6,2.6,2.5c3.7-0.1,7.4-0.2,11.1,0c2.8,0.1,3.9-0.7,3.9-3.7c-0.2-6,0-12,0.1-18.1
		c0.3-2.2,1.1-1.7,1.9-1c0,0,0,0,0,0c0.3,0.1,0.7,0.2,1,0.3c0.2,0,0.4,0,0.6,0.1c0,0,0,0,0,0c1.5,0.1,3.1-0.3,4.4,0.3
		c5.3,2.4,10.9,1.2,16.3,1c3-0.1,6.4-1.2,8.9-3.7c3.8-3.8,7.2-7.8,8.1-13.2c0.2-1,0.4-1.9,1.2-2.4
		C614.6,471.8,614.8,471.4,614.9,471z"/>
	<path class="st2" d="M682.4,478.1c0.4-0.5,0.7-1,1-1.5c1.8-9.3,1.5-18.7-0.7-28c-1.6-6.7-6.8-10.8-11.7-15.1
		c-1.3-0.5-2.5-1-3.8-1.4c-7.4,0.2-14.8-0.8-22.1,1.5c-1.5,1.3-3.3,1.5-5.1,1.5c-1.6,1.2-3.2,2.4-5.2,3.1c-7.2,6.5-10,14.5-9.7,24.2
		c0.1,5.2,2,9.8,3.1,14.6c7.7,12.7,20,16.2,33.6,16c6.1-0.1,12.3-2.4,16.5-7.8c0.2-0.5,0.5-1,0.7-1.4c0.7-1.3,0.9-3,2.2-3.9
		C681.5,479.3,681.9,478.7,682.4,478.1z"/>
	<path class="st15" d="M516.6,616.6c-2.8,0.2-5-0.6-5.1-3.8c-0.2-3.3,3.6-7.5,6.3-7.4c2,0.1,4.7,3.5,4.7,5.9
		C522.5,614.4,520.1,616.6,516.6,616.6z"/>
	<path class="st16" d="M682.2,611.2c0-3.9,1.6-5.7,5.1-5.7c3.3-0.1,5.3,1.6,5.3,4.6c0,3.4-2.8,6.8-5.8,6.9
		C683.8,617.2,682.2,615,682.2,611.2z"/>
	<path class="st16" d="M741.3,611c0.1-3.8,1.8-5.6,5.3-5.5c3.3,0.1,5.1,1.8,5.1,4.9c-0.1,3.4-3.1,6.8-6,6.7
		C742.8,617,741.2,614.8,741.3,611z"/>
	<path class="st0" d="M722.1,611.1c-0.1,3.6-2.5,6.1-5.5,6c-2.7-0.1-5.6-3.3-5.6-6.1c0-3.2,2.8-6.4,5.5-6.2
		C719.2,605,722.2,608.4,722.1,611.1z"/>
	<path class="st17" d="M776.8,608.7c-1.4-0.6-4,0.8-4.1-1.1c-0.1-2,2.3-2.4,4.2-2.4c1.8,0,4.2,0.5,4,2.2
		C780.7,609.8,778.1,607.9,776.8,608.7z"/>
	<path class="st16" d="M492.9,611.4c0,3-2.3,5.5-5,5.6c-2.5,0-5.5-3.9-5.3-6.9c0.2-2.9,1.9-4.4,4.8-4.5
		C490.5,605.4,492.9,608,492.9,611.4z"/>
	<path class="st16" d="M552.8,611.3c0,3.1-2.2,5.6-4.9,5.7c-2.5,0.1-5.5-3.7-5.4-6.9c0.1-2.9,1.8-4.4,4.7-4.6
		C550.3,605.4,552.8,608,552.8,611.3z"/>
	<path class="st18" d="M614.2,670.4c0,3.4-1.7,5.2-4.7,5.3c-2.9,0.1-5.7-2.2-5.6-4.6c0.1-3.3,3.2-6.7,6.1-6.6
		C612.9,664.5,614.2,666.4,614.2,670.4z"/>
	<path class="st19" d="M765,670.3c0-3.9,1.7-5.6,5.2-5.6c3.3,0,5.2,1.7,5.2,4.8c0,3.4-3,6.8-5.9,6.9
		C766.5,676.2,764.9,674.1,765,670.3z"/>
	<path class="st19" d="M705.8,670.2c0-3.9,1.7-5.6,5.2-5.6c3.3,0,5.2,1.7,5.2,4.8c0,3.4-3,6.8-5.9,6.8
		C707.4,676.2,705.8,674.1,705.8,670.2z"/>
	<path class="st19" d="M509.2,670.4c0-3.9,1.6-5.7,5.1-5.8c3.3-0.1,5.3,1.6,5.3,4.7c0,3.4-2.9,6.9-5.8,7
		C510.8,676.3,509.2,674.2,509.2,670.4z"/>
	<path class="st1" d="M741.1,676.3c-2.8-0.1-5.8-3.5-5.7-6.4c0.1-3.1,2.8-6.1,5.3-5.9c2.7,0.1,5.7,3.5,5.7,6.2
		C746.4,673.7,744.1,676.3,741.1,676.3z"/>
	<path class="st19" d="M667.9,676.3c-2.8-0.1-5.9-3.5-5.7-6.4c0.1-3.1,2.8-6.1,5.3-6c2.7,0.1,5.8,3.5,5.7,6.2
		C673.3,673.7,670.9,676.3,667.9,676.3z"/>
	<path class="st20" d="M544.1,668c-1.5-1-4.2,0.9-4.3-1.6c-0.1-1.7,2.3-2.1,4.1-2.1c1.8,0,4.2,0.5,4.1,2.1
		C547.9,669.2,545.2,666.7,544.1,668z"/>
	<path class="st20" d="M800.6,667.9c-1.5-0.9-4.1,1-4.3-1.4c-0.1-1.7,2.2-2.2,4-2.2c1.9,0,4.3,0.4,4.2,2.4
		C804.4,668.7,801.9,667,800.6,667.9z"/>
	<path class="st9" d="M570.7,318.1c2.1-0.1,3.9,0.7,5.7,1.5c0.3,0.7,0.8,1.1,1.6,1.4c3.6,1.6,5.7,4,5.2,8.2
		c-4.4,6.5-11,8.4-18.4,8.8c-0.8,0-1.7,0.1-2.4-0.7c-1.2-1.5-1.7-3.2-1.5-5.1c0.1-1.2,0-2.4,0-3.7c0.2-3.3-1.3-7.3,0.6-9.6
		C563.4,316.8,567.6,318.7,570.7,318.1z"/>
	<path class="st5" d="M742.8,372.1c-1.6,5.1-4.2,9.6-8.1,13.3c0,0,0,0,0,0c-1,0.7-1.9,1.5-2.9,2.2c-5,2.7-10.2,2.8-15.6,1.5
		c-7.2-3.5-12.9-8.5-14.3-16.9c-1-6.3-1.4-12.8,0.6-18.9c1.7-5.4,6.3-7.9,11.5-9.3c8.6-3.1,20.1,3,24.6,8.6
		C743.5,358.6,742.9,365.3,742.8,372.1z"/>
	<path class="st9" d="M598.6,459.4c0.1,3.1,0.6,6.3-1.4,9.1c-1.4,1.8-2.9,3.4-4.6,5.1c-1.9,1.9-3.9,2.8-6.5,2.4
		c-2.8-0.3-5.6,0.5-8.3-0.6c-6.1-2.5-7.4-4.2-7.3-10.6c0-1.1-0.1-2.2,0.1-3.3c1.8-6.4,4.8-11.7,11.8-13.5
		C591.8,447.9,595.8,450.8,598.6,459.4z"/>
	<path class="st5" d="M668.2,454.1c3.4,7.9,1.5,18.7-5.9,21.6c-7.8,1.8-13.9-0.7-18.4-7.3c-2.1-5.1-1.6-10.2-0.5-15.4
		c1.5-1.3,2.7-2.8,4.2-4c0.3-0.2,0.6-0.3,1-0.4c1-0.6,2-0.8,3.1-0.7C658.3,447.2,664,448.6,668.2,454.1z"/>
</g>
</svg>
