<svg id="Camada_1" data-name="Camada 1" xmlns="http://www.w3.org/2000/svg" viewBox="0 0 633.44 630"><defs><style>.cls-1{fill:#fff;}.cls-2{fill:#d2bb2f;}.cls-3{fill:#92a63a;}</style></defs><title>logo</title><path class="cls-1" d="M244.15,247.07h12V171.19H242.08v15.22h-25V150.6h105.8v35.81H297.71V171.19h-16v75.88H294v21.28h-49.8Z"/><path class="cls-1" d="M333.92,150.6h92.53v40.16h-25v-16.7H371.59v23.22h23.1v22.53h-23.1v27.26h29.85V226.18h25v42.17H333.92V247.07h12.2v-73h-12.2Z"/><path class="cls-1" d="M439.8,247.07h10.82V172H439.8V150.6h47.88l34.29,85,31.84-85h48.57V172H591.56v75.11h10.67v21.28H558.72V247.07h8V179.34L531.87,267H510.31l-35.45-85.28v65.4h8.67v21.28H439.8Z"/><path class="cls-1" d="M60.71,320.4a30.84,30.84,0,0,0-6.24-7.09,17.86,17.86,0,0,0-6-3,24.41,24.41,0,0,0-6.73-.91,20.34,20.34,0,0,0-9.63,2.34,24.39,24.39,0,0,0-7.69,6.38,31,31,0,0,0-5.1,9.38,34.54,34.54,0,0,0-1.85,11.35,35.3,35.3,0,0,0,1.82,11.41,30.33,30.33,0,0,0,5,9.34A24.21,24.21,0,0,0,32,366a20.66,20.66,0,0,0,9.76,2.34,19.4,19.4,0,0,0,6.92-1.21,23.64,23.64,0,0,0,5.84-3.22,24.74,24.74,0,0,0,4.6-4.6,22.78,22.78,0,0,0,3.08-5.41l19.89,5.63a40.37,40.37,0,0,1-5.62,11.35,39.4,39.4,0,0,1-8.92,9,42.92,42.92,0,0,1-11.74,6,43.83,43.83,0,0,1-14,2.19,41.84,41.84,0,0,1-12.17-1.75,43.8,43.8,0,0,1-10.84-4.94,44.81,44.81,0,0,1-9.14-7.69,48.73,48.73,0,0,1-7-10A53.87,53.87,0,0,1-1.92,352a52.76,52.76,0,0,1-1.6-13.1A51.42,51.42,0,0,1,0,319.75a50,50,0,0,1,9.63-15.57A45.33,45.33,0,0,1,24,293.68a41.43,41.43,0,0,1,17.76-3.85,37.25,37.25,0,0,1,12.78,1.91q5.19,1.9,11.43,7.53H79.8V320.4Z"/><path class="cls-1" d="M137.73,388.05a41.84,41.84,0,0,1-12.17-1.75,43.8,43.8,0,0,1-10.84-4.94,45.3,45.3,0,0,1-9.14-7.66,47.62,47.62,0,0,1-7-9.94A53.12,53.12,0,0,1,94.06,352a54.31,54.31,0,0,1,0-26.17,53.17,53.17,0,0,1,4.51-11.75,47.62,47.62,0,0,1,7-9.94,45.63,45.63,0,0,1,9.14-7.66,43.8,43.8,0,0,1,10.84-4.94,43.3,43.3,0,0,1,24.37,0,43.67,43.67,0,0,1,10.87,4.94,45.63,45.63,0,0,1,9.14,7.66,48.5,48.5,0,0,1,7,9.94,52.94,52.94,0,0,1,0,49.64,48.5,48.5,0,0,1-7,9.94,45.3,45.3,0,0,1-9.14,7.66,43.67,43.67,0,0,1-10.87,4.94A42.14,42.14,0,0,1,137.73,388.05Zm0-19.63a21,21,0,0,0,9.85-2.34,24,24,0,0,0,7.69-6.38,29.93,29.93,0,0,0,5-9.38,37.46,37.46,0,0,0,0-22.79,30,30,0,0,0-5-9.41,24.5,24.5,0,0,0-7.69-6.38,21.52,21.52,0,0,0-19.52,0,24.17,24.17,0,0,0-7.66,6.38,30.83,30.83,0,0,0-5,9.41A35.3,35.3,0,0,0,113.46,339a34.8,34.8,0,0,0,1.82,11.35,30.9,30.9,0,0,0,5,9.38,24.17,24.17,0,0,0,7.66,6.38A20.66,20.66,0,0,0,137.73,368.42Z"/><path class="cls-1" d="M195.41,369.23h8.71V308.77h-8.71V291.58H234L261.56,360l25.63-68.4h39.1v17.19h-8.71v60.46h8.59v17.13h-35V369.23h6.42V314.71l-28,70.53H252.17l-28.53-68.65v52.64h7v17.13H195.41Z"/><path class="cls-1" d="M340.25,291.58h43.23a37.4,37.4,0,0,1,13.28,2.28A33.53,33.53,0,0,1,407.2,300a28.8,28.8,0,0,1,6.85,8.94,23.79,23.79,0,0,1,2.47,10.57,38.88,38.88,0,0,1-1.94,12.41,26.52,26.52,0,0,1-6,10,28.4,28.4,0,0,1-10.31,6.72,40,40,0,0,1-14.76,2.47h-13v18.07H379v17.13H340.25V369.23h9.69V308.77h-9.69Zm30.2,17.19v25.45h8.46q7,0,11.18-3t4.14-9.5c0-4.05-1.3-7.21-3.9-9.51s-6.4-3.44-11.42-3.44Z"/><path class="cls-1" d="M426.71,291.58h49.54a35.64,35.64,0,0,1,12.9,2.19,29.08,29.08,0,0,1,9.58,5.85,25,25,0,0,1,6,8.5,25.41,25.41,0,0,1,2.07,10.09,31.39,31.39,0,0,1-1,8.45,21.32,21.32,0,0,1-3,6.43,21.67,21.67,0,0,1-4.78,5,37.94,37.94,0,0,1-6.49,3.9,16,16,0,0,1,5.56,5,23.91,23.91,0,0,1,3.64,8.66l3.15,12.32h7.72l.13,18.44H484.52l-3.7-22.5a30.49,30.49,0,0,0-1.7-6.91,13.08,13.08,0,0,0-3.06-4.75,11.72,11.72,0,0,0-4.66-2.72,21.43,21.43,0,0,0-6.52-.88h-8v20.63h8.59v17.13H426.71V369.23h9.7V308.77h-9.7Zm30.2,17.19v23h12.3a27.85,27.85,0,0,0,6.33-.66,13.58,13.58,0,0,0,4.81-2.06,9.52,9.52,0,0,0,3.09-3.53,11.09,11.09,0,0,0,1.08-5.07,10.29,10.29,0,0,0-3.89-8.56q-3.88-3.06-11.42-3.07Z"/><path class="cls-1" d="M563.58,388.05a41.84,41.84,0,0,1-12.17-1.75,43.8,43.8,0,0,1-10.84-4.94,45,45,0,0,1-9.14-7.66,47.62,47.62,0,0,1-7-9.94,53.24,53.24,0,0,1,0-49.64,47.62,47.62,0,0,1,7-9.94,45.36,45.36,0,0,1,9.14-7.66,43.8,43.8,0,0,1,10.84-4.94,43.3,43.3,0,0,1,24.37,0,43.44,43.44,0,0,1,10.86,4.94,45.41,45.41,0,0,1,9.15,7.66,48.88,48.88,0,0,1,7,9.94,52.94,52.94,0,0,1,0,49.64,48.88,48.88,0,0,1-7,9.94,45.09,45.09,0,0,1-9.15,7.66,43.44,43.44,0,0,1-10.86,4.94A42.19,42.19,0,0,1,563.58,388.05Zm0-19.63a21,21,0,0,0,9.85-2.34,24.06,24.06,0,0,0,7.69-6.38,29.93,29.93,0,0,0,5-9.38,37.46,37.46,0,0,0,0-22.79,30,30,0,0,0-5-9.41,24.39,24.39,0,0,0-7.69-6.38,21.5,21.5,0,0,0-19.51,0,24.06,24.06,0,0,0-7.66,6.38,30.83,30.83,0,0,0-5,9.41A35.3,35.3,0,0,0,539.3,339a34.8,34.8,0,0,0,1.83,11.35,30.9,30.9,0,0,0,5,9.38,24.06,24.06,0,0,0,7.66,6.38A20.63,20.63,0,0,0,563.58,368.42Z"/><path class="cls-1" d="M-.62,471.67H8.09V411.21H-.62V394H37.92l27.61,68.39L91.16,394h39.1v17.19h-8.71v60.46h8.58V488.8h-35V471.67h6.43V417.15l-28,70.52H56.14L27.61,419v52.65h7V488.8H-.62Z"/><path class="cls-1" d="M144.21,394H184.3v17.13h-9.89v60.52h9.89V488.8H144.21V471.67h9.7V411.15h-9.7Z"/><path class="cls-1" d="M239.26,420.71a10.44,10.44,0,0,0-1.51-4.12,12,12,0,0,0-3.09-3.35A15.12,15.12,0,0,0,230.4,411a15.28,15.28,0,0,0-5-.81,18.47,18.47,0,0,0-4.38.5,10.75,10.75,0,0,0-3.56,1.53,7.61,7.61,0,0,0-2.41,2.66,8,8,0,0,0-.89,3.87,7.45,7.45,0,0,0,1.2,4.47,9.55,9.55,0,0,0,3.09,2.72,18,18,0,0,0,4.17,1.69c1.52.42,3,.88,4.45,1.38l17,5.75a26.85,26.85,0,0,1,6.61,3.44,22.81,22.81,0,0,1,5.34,5.31,25.15,25.15,0,0,1,3.55,7.19,29.83,29.83,0,0,1,1.3,9.13,30.83,30.83,0,0,1-2.5,12.57,28.29,28.29,0,0,1-7,9.75,32.06,32.06,0,0,1-10.81,6.32,43.78,43.78,0,0,1-24.12,1A33.7,33.7,0,0,1,207.7,486a29.84,29.84,0,0,1-6.91-5.54,24.28,24.28,0,0,1-4.64-7.28h-6.36V454.35h22.36v3.88a14.58,14.58,0,0,0,.9,5.19,11.22,11.22,0,0,0,2.68,4.12,12.15,12.15,0,0,0,4.51,2.72,18.82,18.82,0,0,0,6.36,1q5.57,0,8.46-2.59a9.19,9.19,0,0,0,2.91-7.23,7.25,7.25,0,0,0-1-4,9.2,9.2,0,0,0-2.63-2.68,17,17,0,0,0-3.58-1.85c-1.32-.5-2.61-1-3.89-1.37l-14.14-4.63a35.12,35.12,0,0,1-7.75-3.5,26.53,26.53,0,0,1-6.61-5.63,26.2,26.2,0,0,1-4.57-7.91,29.18,29.18,0,0,1-1.7-10.35,28,28,0,0,1,2.47-12,25,25,0,0,1,6.92-8.91,30.65,30.65,0,0,1,10.56-5.5,45.49,45.49,0,0,1,13.4-1.88,39.69,39.69,0,0,1,10.62,1.35,36.13,36.13,0,0,1,8.74,3.59,28.11,28.11,0,0,1,6.55,5.16,23.08,23.08,0,0,1,4.11,6h6.17v18.88H239.26Z"/><path class="cls-1" d="M316.16,420.71a10.59,10.59,0,0,0-1.51-4.12,12.31,12.31,0,0,0-3.09-3.35,15.56,15.56,0,0,0-9.24-3,18.53,18.53,0,0,0-4.38.5,10.69,10.69,0,0,0-3.55,1.53A7.52,7.52,0,0,0,292,414.9a7.85,7.85,0,0,0-.9,3.87,7.38,7.38,0,0,0,1.21,4.47,9.41,9.41,0,0,0,3.08,2.72,18,18,0,0,0,4.17,1.69c1.53.42,3,.88,4.45,1.38l17,5.75a26.79,26.79,0,0,1,6.6,3.44,23,23,0,0,1,5.35,5.31,25.67,25.67,0,0,1,3.55,7.19,30.14,30.14,0,0,1,1.3,9.13,30.84,30.84,0,0,1-2.51,12.57,28.16,28.16,0,0,1-7,9.75,32,32,0,0,1-10.81,6.32,43.75,43.75,0,0,1-24.11,1A33.42,33.42,0,0,1,284.6,486a29.9,29.9,0,0,1-6.92-5.54,24.05,24.05,0,0,1-4.63-7.28h-6.36V454.35H289v3.88a14.58,14.58,0,0,0,.9,5.19,11.24,11.24,0,0,0,2.69,4.12,12,12,0,0,0,4.5,2.72,18.92,18.92,0,0,0,6.37,1q5.55,0,8.46-2.59a9.21,9.21,0,0,0,2.9-7.23,7.25,7.25,0,0,0-1-4,9.16,9.16,0,0,0-2.62-2.68,17.26,17.26,0,0,0-3.58-1.85c-1.32-.5-2.62-1-3.9-1.37l-14.14-4.63a35.12,35.12,0,0,1-7.75-3.5,26.89,26.89,0,0,1-6.61-5.63,26.41,26.41,0,0,1-4.57-7.91,29.4,29.4,0,0,1-1.7-10.35,28,28,0,0,1,2.47-12,25.14,25.14,0,0,1,6.92-8.91,30.65,30.65,0,0,1,10.56-5.5,45.54,45.54,0,0,1,13.4-1.88A39.82,39.82,0,0,1,313,392.55a36.46,36.46,0,0,1,8.74,3.59,28,28,0,0,1,6.54,5.16,23.08,23.08,0,0,1,4.11,6h6.18v18.88H316.16Z"/><path class="cls-1" d="M390.4,490.49a42.18,42.18,0,0,1-12.17-1.75,44.16,44.16,0,0,1-10.84-4.94,45.36,45.36,0,0,1-9.14-7.66,47.62,47.62,0,0,1-7-9.94,53.39,53.39,0,0,1-4.51-11.73,54.26,54.26,0,0,1,0-26.16,53.25,53.25,0,0,1,4.51-11.76,47.88,47.88,0,0,1,7-9.94,45.36,45.36,0,0,1,9.14-7.66A43.77,43.77,0,0,1,378.23,394a43.3,43.3,0,0,1,24.37,0A43.41,43.41,0,0,1,413.46,399a45.41,45.41,0,0,1,9.15,7.66,49.16,49.16,0,0,1,7,9.94,53,53,0,0,1,0,49.65,48.88,48.88,0,0,1-7,9.94,45.41,45.41,0,0,1-9.15,7.66,43.8,43.8,0,0,1-10.86,4.94A42.54,42.54,0,0,1,390.4,490.49Zm0-19.63a21,21,0,0,0,9.85-2.35,23.93,23.93,0,0,0,7.69-6.38,29.82,29.82,0,0,0,5-9.38,37.43,37.43,0,0,0,0-22.78,30,30,0,0,0-5-9.41,24.48,24.48,0,0,0-7.69-6.38,21.44,21.44,0,0,0-19.52,0,23.93,23.93,0,0,0-7.66,6.38,30.59,30.59,0,0,0-5,9.41,35.26,35.26,0,0,0-1.83,11.44A34.74,34.74,0,0,0,368,452.75a30.78,30.78,0,0,0,5,9.38,23.93,23.93,0,0,0,7.66,6.38A20.64,20.64,0,0,0,390.4,470.86Z"/><path class="cls-2" d="M46.64,122.22H68.45L76,83.43h39.88l-7.47,38.79h39.28l7.48-38.79h40l-7.47,38.79H207l-7.59,34.52H181.11l-8.31,43.18h22.65l-7.71,34.15H166.17l-6.51,34.28H119.42l6.63-34.28H87.24l-6.5,34.28H40l6.63-34.28h-19l7.71-34.15H53.26l8.44-43.18H38.92Zm47.11,77.7h38.92L141,156.74H101.94Z"/><path class="cls-3" d="M36.15,131.56H58l7.6-38.79h39.88L98,131.56h39.28l7.47-38.79h40l-7.47,38.79h19.28l-7.6,34.52H170.63l-8.31,43.18H185l-7.71,34.15H155.69l-6.51,34.28H108.93l6.63-34.28H76.76l-6.5,34.28H29.53l6.62-34.28h-19l7.72-34.15h18l8.44-43.18H28.44Zm47.12,77.7h38.92l8.31-43.18h-39Z"/><path class="cls-2" d="M608.28,531.15a40.56,40.56,0,0,1-2,6.11,13.12,13.12,0,0,1-12.28,7.6c-10.26.06-20.53,0-30.79,0-6.45,0-11.31-4.24-13.21-10-.11-.34-.26-.67-.47-1.19-1.64,1.45-3.12,2.82-4.67,4.13-3.33,2.82-6.93,5.22-11.25,6.25a19.79,19.79,0,0,1-4.33.58q-16.77.18-33.54.23c-6.55,0-13.11-.09-19.65-.22a16.83,16.83,0,0,1-7.7-1.87c-6-3.18-9-11-6.41-17.31.63-1.56,1.55-3,2.35-4.52a14.49,14.49,0,0,1-3-21.43A14.42,14.42,0,0,1,458,478.05c-.85-.75-1.74-1.43-2.51-2.21a16,16,0,0,1-4-8.31v-3.26a1.09,1.09,0,0,0,.18-.31c1.22-7.52,7.49-12.3,14.94-12.23,9,.09,18,0,27.05,0h1.27a6.22,6.22,0,0,0-.1-.76,142.54,142.54,0,0,1-3.57-29c-.12-4.63-.05-9.27,1.25-13.79,1.12-3.84,3.06-7.1,6.64-9.17s7.4-2.11,11.29-1.46a10,10,0,0,1,5.78,3,16.64,16.64,0,0,1,4.11,9.21c.72,4.7,1.45,9.4,2,14.12a61.66,61.66,0,0,0,10,26.84,133.67,133.67,0,0,0,14.31,18.45c1.6,1.72,3.32,3.34,5,5,.37-.4.61-.63.82-.88A13.33,13.33,0,0,1,563.61,468c10.15,0,20.29,0,30.43,0a12.8,12.8,0,0,1,11.61,6.58c1.24,2.09,1.78,4.61,2.63,6.93Zm-80.15,7a17,17,0,0,0,11.07-4.29c3.25-2.68,6.33-5.56,9.42-8.41a2.47,2.47,0,0,0,.38-1.62c0-10.19,0-20.37,0-30.56,0-4,.12-7.92.13-11.89a1.92,1.92,0,0,0-.56-1.36,63.6,63.6,0,0,1-11.75-11.89q-5.57-7.14-10.53-14.73a61.37,61.37,0,0,1-8.58-18.8c-1.11-4.44-1.62-9-2.37-13.55-.67-4-1.14-8.1-2-12.08-1.07-5-6.5-7-10.9-4.31-2.39,1.46-3.38,3.75-3.88,6.29a53.14,53.14,0,0,0-.6,15.21c.61,6.43,1.38,12.85,2.36,19.24a46,46,0,0,0,2.37,8.13,3.46,3.46,0,0,1-3.4,4.86c-11.31,0-22.62,0-33.93,0a7.56,7.56,0,0,0-.3,15.1c3.59.14,4.66,3.28,3.27,5.15a5.19,5.19,0,0,1-2.18,1.55,7.59,7.59,0,0,0-4.9,8.59,7.67,7.67,0,0,0,7.19,6.22c2.32.16,3.61,1.31,3.66,3.28,0,1.53-.79,2.6-2.57,3.27a7.76,7.76,0,0,0-4.87,5,7.59,7.59,0,0,0,6.41,9.77c1.69.14,3.28.48,3.91,2.33.71,2.07-.21,3.6-2.66,4.6a7.48,7.48,0,0,0-4.63,8.36,7.33,7.33,0,0,0,6.71,6.24c5.34.24,10.68.27,16,.33,4.09,0,8.18,0,12.27,0v-.1C511.18,538.16,519.65,538.12,528.13,538.18Zm73.58-53.87a11.13,11.13,0,0,0-1.5-6.23,7.1,7.1,0,0,0-6.36-3.52c-9.93,0-19.87.1-29.8,0-5-.07-7.78,3.25-8.35,7.55a22.9,22.9,0,0,0-.16,2.87q0,21.66,0,43.33a11.62,11.62,0,0,0,1.64,6.69,7,7,0,0,0,6.18,3.38c10.19,0,20.37-.05,30.56,0,4.37,0,7.32-3.68,7.63-7.46.19-2.28.15-4.59.15-6.88,0-6,0-11.94,0-17.91Q601.71,495.21,601.71,484.31Z"/><path class="cls-2" d="M588.49,520.84c-1.26,3.11-2.59,6.22-4.12,9.21a4.78,4.78,0,0,1-5.58,2.59,90.21,90.21,0,0,1-10-3.78,12.32,12.32,0,0,1-3.94-3.38,8.08,8.08,0,0,1-.49-9.47,7.86,7.86,0,0,1,8.47-3.4,1.13,1.13,0,0,0,1.4-.65,7.75,7.75,0,0,1,4.47-3.4c5-1.58,10.75,2.67,10.53,8.62A18.24,18.24,0,0,1,588.49,520.84Zm-12-1.62a2.58,2.58,0,0,1-3.13-.8,3.06,3.06,0,0,0-4.47-.25,3.28,3.28,0,0,0,0,4.54A16.46,16.46,0,0,0,573,525.5a41.44,41.44,0,0,0,6,2,1.56,1.56,0,0,0,1.4-.5c1.55-2.85,3.16-5.69,3.68-9a4.14,4.14,0,0,0-1.23-4.11,3,3,0,0,0-4.94,2.24C578,517.67,577.68,518.72,576.49,519.22Z"/><path class="cls-3" d="M601.36,532.82a39.85,39.85,0,0,1-2.05,6.11,13.1,13.1,0,0,1-12.27,7.6q-15.4.09-30.8,0c-6.45,0-11.3-4.25-13.21-10-.11-.34-.26-.67-.46-1.18-1.64,1.45-3.13,2.81-4.67,4.12-3.34,2.82-6.93,5.23-11.26,6.25a19.79,19.79,0,0,1-4.32.59q-16.77.18-33.55.22c-6.55,0-13.1-.08-19.65-.22a16.74,16.74,0,0,1-7.69-1.86c-6-3.19-9-11-6.42-17.31.64-1.56,1.55-3,2.35-4.52a14.5,14.5,0,0,1-3-21.44,14.41,14.41,0,0,1-3.21-21.45c-.86-.75-1.74-1.43-2.52-2.21a16,16,0,0,1-4-8.31V466c.06-.11.17-.21.19-.32,1.21-7.51,7.48-12.3,14.94-12.22,9,.09,18,0,27.05,0H488c-.05-.35-.06-.56-.1-.76a142.46,142.46,0,0,1-3.58-29c-.12-4.63-.05-9.27,1.26-13.78,1.11-3.85,3.05-7.1,6.63-9.18s7.4-2.1,11.3-1.45a10.09,10.09,0,0,1,5.77,3,16.6,16.6,0,0,1,4.11,9.21c.73,4.7,1.45,9.4,2,14.13a61.74,61.74,0,0,0,10,26.83,135.24,135.24,0,0,0,14.31,18.45c1.61,1.73,3.33,3.34,5,5.05.38-.41.62-.63.82-.89a13.35,13.35,0,0,1,11.17-5.35c10.14.05,20.28,0,30.43,0a12.75,12.75,0,0,1,11.6,6.57c1.25,2.09,1.78,4.61,2.64,6.94Zm-80.16,7a16.85,16.85,0,0,0,11.07-4.29c3.25-2.67,6.33-5.55,9.42-8.41a2.45,2.45,0,0,0,.38-1.62c0-10.18,0-20.37,0-30.55,0-4,.12-7.93.13-11.89a1.92,1.92,0,0,0-.56-1.36,63.65,63.65,0,0,1-11.76-11.89c-3.7-4.76-7.22-9.69-10.53-14.73a62,62,0,0,1-8.58-18.81c-1.11-4.44-1.62-9-2.37-13.54-.67-4-1.14-8.1-2-12.09-1.07-5-6.5-7-10.9-4.31-2.39,1.46-3.38,3.76-3.87,6.29a53.16,53.16,0,0,0-.61,15.21c.62,6.43,1.39,12.86,2.36,19.24a46.42,46.42,0,0,0,2.38,8.14,3.45,3.45,0,0,1-3.41,4.85c-11.3,0-22.61,0-33.92,0a7.38,7.38,0,0,0-7.3,7.52,7.47,7.47,0,0,0,7,7.58c3.59.14,4.66,3.27,3.26,5.14a5.19,5.19,0,0,1-2.18,1.55,7.64,7.64,0,0,0,2.29,14.81c2.33.16,3.61,1.31,3.66,3.28,0,1.53-.78,2.6-2.57,3.28a7.69,7.69,0,0,0-4.86,5,7.59,7.59,0,0,0,6.41,9.78c1.68.13,3.27.47,3.91,2.32.7,2.08-.21,3.61-2.66,4.6a7.5,7.5,0,0,0-4.64,8.36,7.33,7.33,0,0,0,6.72,6.24c5.33.25,10.67.28,16,.34,4.09.05,8.18,0,12.27,0v-.11C504.25,539.83,512.73,539.79,521.2,539.85ZM594.78,486a11.13,11.13,0,0,0-1.49-6.24,7.13,7.13,0,0,0-6.36-3.51c-9.94,0-19.87.1-29.81,0-5-.07-7.77,3.24-8.34,7.54a21.15,21.15,0,0,0-.16,2.87q0,21.67,0,43.33a11.56,11.56,0,0,0,1.64,6.7,7,7,0,0,0,6.18,3.37c10.18,0,20.37,0,30.55,0,4.38,0,7.33-3.69,7.63-7.47.19-2.28.15-4.58.16-6.88,0-6,0-11.93,0-17.9Q594.79,496.88,594.78,486Z"/><path class="cls-3" d="M581.57,522.51c-1.27,3.12-2.59,6.22-4.13,9.21a4.77,4.77,0,0,1-5.58,2.6,89,89,0,0,1-10-3.79,12.37,12.37,0,0,1-3.93-3.37,8.06,8.06,0,0,1-.49-9.48,7.86,7.86,0,0,1,8.46-3.4,1.12,1.12,0,0,0,1.4-.64,7.73,7.73,0,0,1,4.47-3.41c5-1.57,10.76,2.68,10.54,8.63A19.81,19.81,0,0,1,581.57,522.51Zm-12-1.62a2.6,2.6,0,0,1-3.14-.79,3.06,3.06,0,0,0-4.46-.26,3.28,3.28,0,0,0,0,4.54,16.65,16.65,0,0,0,4.09,2.79,43.15,43.15,0,0,0,6,2,1.58,1.58,0,0,0,1.4-.51c1.56-2.85,3.17-5.69,3.69-9a4.12,4.12,0,0,0-1.24-4.1,2.76,2.76,0,0,0-3.26-.46,2.72,2.72,0,0,0-1.67,2.69C571.11,519.34,570.76,520.4,569.57,520.89Z"/></svg>