<?xml version="1.0" encoding="UTF-8"?>
<svg width="1618px" height="68px" viewBox="0 0 1618 68" version="1.1" xmlns="http://www.w3.org/2000/svg" xmlns:xlink="http://www.w3.org/1999/xlink">
    <!-- Generator: Sketch 50.2 (55047) - http://www.bohemiancoding.com/sketch -->
    <title>Group 6 Copy</title>
    <desc>Created with Sketch.</desc>
    <defs>
        <rect id="path-1" x="0" y="0" width="1618" height="72"></rect>
    </defs>
    <g id="Page-1" stroke="none" stroke-width="1" fill="none" fill-rule="evenodd">
        <g id="Group-6-Copy" transform="translate(0.000000, -4.000000)">
            <mask id="mask-2" fill="white">
                <use xlink:href="#path-1"></use>
            </mask>
            <g id="Mask"></g>
            <g mask="url(#mask-2)">
                <g transform="translate(0.000000, 4.000000)">
                    <polygon id="Rectangle-5-Copy" fill="#9FB630" points="0 0.0649172329 195.794828 9.69667052 550.732666 0.0649172329 993.017926 16.7840673 1012.24289 16.3181311 1290.16179 11.2716476 1527.95631 18.1296683 1618 11.2716476 1618 89 1393.78563 80.2459253 1118.10973 89 649.887914 75.0582188 226.373202 89 0 67.970822"></polygon>
                    <polygon id="Rectangle-5" fill="#F0992E" points="0 38 195.794828 50.2309759 550.732666 38 993.017926 59.2309759 1012.24289 58.6393023 1290.16179 52.2309759 1527.95631 60.9397004 1618 52.2309759 1618 150.935083 1393.78563 139.818636 1118.10973 150.935083 649.887914 133.230976 226.373202 150.935083 0 124.230976"></polygon>
                </g>
            </g>
        </g>
    </g>
</svg>