<?xml version="1.0" encoding="UTF-8" standalone="no"?>
<!-- Generator: Adobe Illustrator 20.1.0, SVG Export Plug-In . SVG Version: 6.00 Build 0)  -->

<svg
   xmlns:dc="http://purl.org/dc/elements/1.1/"
   xmlns:cc="http://creativecommons.org/ns#"
   xmlns:rdf="http://www.w3.org/1999/02/22-rdf-syntax-ns#"
   xmlns:svg="http://www.w3.org/2000/svg"
   xmlns="http://www.w3.org/2000/svg"
   xmlns:sodipodi="http://sodipodi.sourceforge.net/DTD/sodipodi-0.dtd"
   xmlns:inkscape="http://www.inkscape.org/namespaces/inkscape"
   version="1.1"
   id="Camada_1"
   x="0px"
   y="0px"
   viewBox="0 0 28.999999 28.999999"
   xml:space="preserve"
   inkscape:version="0.91 r13725"
   sodipodi:docname="c0.svg"
   width="29"
   height="29"><metadata
     id="metadata11"><rdf:RDF><cc:Work
         rdf:about=""><dc:format>image/svg+xml</dc:format><dc:type
           rdf:resource="http://purl.org/dc/dcmitype/StillImage" /><dc:title></dc:title></cc:Work></rdf:RDF></metadata><defs
     id="defs9" /><sodipodi:namedview
     pagecolor="#ffffff"
     bordercolor="#666666"
     borderopacity="1"
     objecttolerance="10"
     gridtolerance="10"
     guidetolerance="10"
     inkscape:pageopacity="0"
     inkscape:pageshadow="2"
     inkscape:window-width="1855"
     inkscape:window-height="1056"
     id="namedview7"
     showgrid="false"
     inkscape:zoom="11.345679"
     inkscape:cx="40.5"
     inkscape:cy="40.5"
     inkscape:window-x="65"
     inkscape:window-y="24"
     inkscape:window-maximized="1"
     inkscape:current-layer="Camada_1" /><style
     type="text/css"
     id="style3">
	.st0{fill:#582981;}
</style><path
     class="st0"
     d="m 20.227325,1.8493459 c -2.257241,0 -4.37972,1.010705 -5.761016,2.728902 -1.414987,-1.718197 -3.503776,-2.728902 -5.7610171,-2.728902 -4.1101988,0 -7.4792142,3.335325 -7.4792142,7.4792137 0,3.2342554 1.9203388,6.9738624 5.7273262,11.0840604 2.9310433,3.166875 6.0979181,5.659946 7.0075521,6.333749 l 0.539042,0.404282 0.539043,-0.404282 C 15.948675,26.072566 19.11555,23.613184 22.046593,20.41262 25.85358,16.268731 27.773919,12.562815 27.773919,9.3285596 27.672849,5.2183619 24.337524,1.8493459 20.227325,1.8493459 l 0,0 z m 0.437972,17.3841191 c -2.392002,2.627831 -4.986143,4.716621 -6.232679,5.693636 -1.246536,-0.977015 -3.840678,-3.099494 -6.2326784,-5.693636 -3.4363957,-3.739608 -5.255664,-7.176003 -5.255664,-9.9049054 0,-3.1668747 2.5604517,-5.7273257 5.7273262,-5.7273257 2.0887892,0 4.0091282,1.145465 5.0198332,2.964733 l 0.774874,1.3812959 0.774873,-1.3812959 c 1.010704,-1.819268 2.931043,-2.964733 5.019833,-2.964733 3.166874,0 5.727326,2.560451 5.727326,5.7273257 -0.03369,2.7289024 -1.852958,6.1652974 -5.323044,9.9049054 l 0,0 z m 0,0"
     id="path5"
     inkscape:connector-curvature="0"
     style="fill:#582981" /></svg>