<?xml version="1.0" encoding="UTF-8" standalone="no"?>
<!-- Generator: Adobe Illustrator 20.1.0, SVG Export Plug-In . SVG Version: 6.00 Build 0)  -->

<svg
   xmlns:dc="http://purl.org/dc/elements/1.1/"
   xmlns:cc="http://creativecommons.org/ns#"
   xmlns:rdf="http://www.w3.org/1999/02/22-rdf-syntax-ns#"
   xmlns:svg="http://www.w3.org/2000/svg"
   xmlns="http://www.w3.org/2000/svg"
   xmlns:sodipodi="http://sodipodi.sourceforge.net/DTD/sodipodi-0.dtd"
   xmlns:inkscape="http://www.inkscape.org/namespaces/inkscape"
   version="1.1"
   id="Camada_1"
   x="0px"
   y="0px"
   viewBox="0 0 70.999999 70.999999"
   xml:space="preserve"
   inkscape:version="0.91 r13725"
   sodipodi:docname="CORAÇÃO PREENCHIDO.svg"
   width="71"
   height="71"><metadata
     id="metadata11"><rdf:RDF><cc:Work
         rdf:about=""><dc:format>image/svg+xml</dc:format><dc:type
           rdf:resource="http://purl.org/dc/dcmitype/StillImage" /><dc:title></dc:title></cc:Work></rdf:RDF></metadata><defs
     id="defs9" /><sodipodi:namedview
     pagecolor="#ffffff"
     bordercolor="#666666"
     borderopacity="1"
     objecttolerance="10"
     gridtolerance="10"
     guidetolerance="10"
     inkscape:pageopacity="0"
     inkscape:pageshadow="2"
     inkscape:window-width="1855"
     inkscape:window-height="1056"
     id="namedview7"
     showgrid="false"
     inkscape:zoom="7.29623"
     inkscape:cx="73.900002"
     inkscape:cy="49.450001"
     inkscape:window-x="65"
     inkscape:window-y="24"
     inkscape:window-maximized="1"
     inkscape:current-layer="Camada_1" /><style
     type="text/css"
     id="style3">
	.st0{fill:#D6B012;}
</style><path
     class="st0"
     d="m 50.5,2.5500003 c -5.9,0 -11.4,2.7 -15,7.0999995 C 31.8,5.1500003 26.3,2.5500003 20.5,2.5500003 9.8000003,2.5500003 1.0000002,11.250001 1.0000002,22.05 c 0,8.4 5.0000001,18.1 14.8999998,28.9 7.6,8.3 15.9,14.7 18.2,16.5 l 1.4,1 1.4,-1 c 2.4,-1.8 10.6,-8.2 18.2,-16.5 C 65,40.15 70,30.45 70,22.05 70,11.25 61.2,2.5500003 50.5,2.5500003 l 0,0 z"
     id="path5"
     inkscape:connector-curvature="0"
     style="fill:#d6b012" /></svg>