<?xml version="1.0" encoding="UTF-8" standalone="no"?>
<svg
   xmlns:dc="http://purl.org/dc/elements/1.1/"
   xmlns:cc="http://creativecommons.org/ns#"
   xmlns:rdf="http://www.w3.org/1999/02/22-rdf-syntax-ns#"
   xmlns:svg="http://www.w3.org/2000/svg"
   xmlns="http://www.w3.org/2000/svg"
   xmlns:xlink="http://www.w3.org/1999/xlink"
   height="82"
   width="82"
   xml:space="preserve"
   viewBox="0 0 82 81.999998"
   y="0px"
   x="0px"
   id="Camada_1"
   version="1.1"><metadata
     id="metadata21"><rdf:RDF><cc:Work
         rdf:about=""><dc:format>image/svg+xml</dc:format><dc:type
           rdf:resource="http://purl.org/dc/dcmitype/StillImage" /><dc:title></dc:title></cc:Work></rdf:RDF></metadata><defs
     id="defs19" /><style
     id="style3"
     type="text/css">
	.st0{clip-path:url(#SVGID_2_);fill:#FFFFFF;}
</style><g
     style="fill:#d8b212;fill-opacity:1"
     transform="translate(-30.95,-8.7999999)"
     id="g5"><g
       style="fill:#d8b212;fill-opacity:1"
       id="g7"><defs
         id="defs9"><rect
           height="70.400002"
           width="42.200001"
           y="14.7"
           x="51"
           id="SVGID_1_" /></defs><clipPath
         id="SVGID_2_"><use
           height="100%"
           width="100%"
           y="0"
           x="0"
           id="use13"
           style="overflow:visible"
           xlink:href="#SVGID_1_" /></clipPath><path
         style="fill:#d8b212;fill-opacity:1"
         clip-path="url(#SVGID_2_)"
         id="path15"
         d="m 91.3,14.6 -10,0 C 70,14.6 62.7,21.4 62.7,31.9 l 0,8 -10.1,0 c -0.9,0 -1.6,0.6 -1.6,1.4 l 0,11.6 c 0,0.8 0.7,1.4 1.6,1.4 l 10.1,0 0,29.2 c 0,0.8 0.7,1.4 1.6,1.4 l 13.2,0 c 0.9,0 1.6,-0.6 1.6,-1.4 l 0,-29.1 11.8,0 c 0.9,0 1.6,-0.6 1.6,-1.4 l 0,-11.6 C 92.5,41 92.3,40.7 92,40.4 91.7,40.1 91.3,40 90.9,40 L 79,40 79,33.2 c 0,-3.3 0.9,-4.9 5.5,-4.9 l 6.8,0 c 0.9,0 1.6,-0.6 1.6,-1.4 l 0,-10.8 c -0.1,-0.8 -0.8,-1.5 -1.6,-1.5 l 0,0 z m 0,0"
         class="st0" /></g></g></svg>