<?xml version="1.0" encoding="UTF-8" standalone="no"?>
<!-- Generator: Adobe Illustrator 20.1.0, SVG Export Plug-In . SVG Version: 6.00 Build 0)  -->

<svg
   xmlns:dc="http://purl.org/dc/elements/1.1/"
   xmlns:cc="http://creativecommons.org/ns#"
   xmlns:rdf="http://www.w3.org/1999/02/22-rdf-syntax-ns#"
   xmlns:svg="http://www.w3.org/2000/svg"
   xmlns="http://www.w3.org/2000/svg"
   xmlns:xlink="http://www.w3.org/1999/xlink"
   xmlns:sodipodi="http://sodipodi.sourceforge.net/DTD/sodipodi-0.dtd"
   xmlns:inkscape="http://www.inkscape.org/namespaces/inkscape"
   version="1.1"
   id="Camada_1"
   x="0px"
   y="0px"
   viewBox="0 0 82 81.999998"
   xml:space="preserve"
   inkscape:version="0.91 r13725"
   sodipodi:docname="FACEBOOK.svg"
   width="82"
   height="82"><metadata
     id="metadata21"><rdf:RDF><cc:Work
         rdf:about=""><dc:format>image/svg+xml</dc:format><dc:type
           rdf:resource="http://purl.org/dc/dcmitype/StillImage" /><dc:title></dc:title></cc:Work></rdf:RDF></metadata><defs
     id="defs19" /><sodipodi:namedview
     pagecolor="#00ffff"
     bordercolor="#666666"
     borderopacity="1"
     objecttolerance="10"
     gridtolerance="10"
     guidetolerance="10"
     inkscape:pageopacity="0"
     inkscape:pageshadow="2"
     inkscape:window-width="1855"
     inkscape:window-height="1056"
     id="namedview17"
     showgrid="false"
     inkscape:zoom="37.948166"
     inkscape:cx="28.390352"
     inkscape:cy="44.170584"
     inkscape:window-x="65"
     inkscape:window-y="24"
     inkscape:window-maximized="1"
     inkscape:current-layer="Camada_1" /><style
     type="text/css"
     id="style3">
	.st0{clip-path:url(#SVGID_2_);fill:#FFFFFF;}
</style><g
     id="g5"
     transform="translate(-30.95,-8.7999999)"><g
       id="g7"><defs
         id="defs9"><rect
           id="SVGID_1_"
           x="51"
           y="14.7"
           width="42.200001"
           height="70.400002" /></defs><clipPath
         id="SVGID_2_"><use
           xlink:href="#SVGID_1_"
           style="overflow:visible"
           id="use13"
           x="0"
           y="0"
           width="100%"
           height="100%" /></clipPath><path
         class="st0"
         d="m 91.3,14.6 -10,0 C 70,14.6 62.7,21.4 62.7,31.9 l 0,8 -10.1,0 c -0.9,0 -1.6,0.6 -1.6,1.4 l 0,11.6 c 0,0.8 0.7,1.4 1.6,1.4 l 10.1,0 0,29.2 c 0,0.8 0.7,1.4 1.6,1.4 l 13.2,0 c 0.9,0 1.6,-0.6 1.6,-1.4 l 0,-29.1 11.8,0 c 0.9,0 1.6,-0.6 1.6,-1.4 l 0,-11.6 C 92.5,41 92.3,40.7 92,40.4 91.7,40.1 91.3,40 90.9,40 L 79,40 79,33.2 c 0,-3.3 0.9,-4.9 5.5,-4.9 l 6.8,0 c 0.9,0 1.6,-0.6 1.6,-1.4 l 0,-10.8 c -0.1,-0.8 -0.8,-1.5 -1.6,-1.5 l 0,0 z m 0,0"
         id="path15"
         clip-path="url(#SVGID_2_)"
         inkscape:connector-curvature="0"
         style="fill:#ffffff" /></g></g></svg>