<svg width="300" height="265" viewBox="0 0 300 265" fill="none" xmlns="http://www.w3.org/2000/svg">
<g clip-path="url(#clip0)">
<rect width="300" height="265" fill="white"/>
<path fill-rule="evenodd" clip-rule="evenodd" d="M243.729 301.134C250.191 290.372 257.303 284.167 265.066 282.518C283.177 278.67 299.344 286.09 303.033 288.536C301.349 274.274 298.823 262.374 295.455 252.834C290.403 238.525 285.238 223.839 277.757 208.538C270.277 193.238 264.973 190.062 261.353 185.551C257.733 181.041 244.016 173.771 238.927 190.315C233.838 206.859 235.907 226.926 238.243 247.133C239.801 260.605 241.629 278.605 243.729 301.134Z" fill="white"/>
<path fill-rule="evenodd" clip-rule="evenodd" d="M257.667 180.95C259.654 182.071 261.326 183.47 262.352 184.749C263.163 185.759 264.086 186.722 265.123 187.801C268.515 191.335 273.115 196.125 278.908 207.975C286.351 223.199 291.51 237.813 296.512 251.981L296.663 252.408C300.072 262.065 302.614 274.065 304.305 288.385L304.629 291.132L302.324 289.604C300.622 288.475 295.798 286.061 289.148 284.41C282.516 282.764 274.149 281.898 265.331 283.771C258.074 285.313 251.21 291.163 244.827 301.793L242.815 305.144L242.452 301.253C240.353 278.728 238.525 260.739 236.969 247.281C234.64 227.137 232.519 206.787 237.702 189.939C239.027 185.63 240.961 182.721 243.29 180.94C245.634 179.147 248.261 178.585 250.78 178.76C253.277 178.933 255.674 179.826 257.667 180.95ZM244.847 182.975C243.06 184.342 241.371 186.729 240.152 190.692C235.156 206.931 237.172 226.715 239.516 246.986C240.988 259.717 242.701 276.483 244.655 297.279C250.68 288.294 257.373 282.842 264.799 281.264C274.093 279.29 282.865 280.21 289.766 281.923C294.774 283.166 298.841 284.838 301.45 286.164C299.779 273.081 297.373 262.119 294.246 253.261L294.112 252.884C289.1 238.687 283.983 224.192 276.605 209.101C271.007 197.652 266.737 193.198 263.355 189.671C262.267 188.537 261.271 187.498 260.353 186.354C259.569 185.377 258.169 184.176 256.407 183.183C254.651 182.192 252.623 181.456 250.602 181.316C248.603 181.178 246.62 181.619 244.847 182.975Z" fill="#FFC43D"/>
<path fill-rule="evenodd" clip-rule="evenodd" d="M249.939 195.328C256.7 192.766 264.493 191.917 269.939 194.164C270.593 194.434 270.905 195.183 270.634 195.837C270.364 196.492 269.615 196.803 268.961 196.533C264.379 194.642 257.329 195.268 250.847 197.724C244.342 200.189 238.959 204.285 237.332 208.774C237.091 209.439 236.356 209.783 235.691 209.542C235.025 209.301 234.681 208.566 234.923 207.901C236.935 202.349 243.199 197.882 249.939 195.328Z" fill="#FFC43D"/>
<path fill-rule="evenodd" clip-rule="evenodd" d="M251.136 199.213C258.682 196.49 267.294 195.468 273.228 197.572C273.895 197.808 274.244 198.541 274.007 199.208C273.771 199.875 273.038 200.224 272.371 199.987C267.248 198.171 259.313 198.987 252.005 201.624C248.384 202.931 244.995 204.659 242.271 206.655C239.532 208.661 237.548 210.876 236.599 213.128C236.325 213.78 235.573 214.086 234.921 213.811C234.269 213.537 233.963 212.785 234.237 212.133C235.433 209.296 237.811 206.745 240.756 204.588C243.715 202.42 247.33 200.586 251.136 199.213Z" fill="#FFC43D"/>
<path fill-rule="evenodd" clip-rule="evenodd" d="M251.829 202.847C259.844 200.026 268.945 198.902 275.169 200.924C275.843 201.142 276.211 201.865 275.992 202.538C275.773 203.211 275.05 203.58 274.377 203.361C268.933 201.593 260.474 202.521 252.679 205.264C248.813 206.625 245.188 208.406 242.263 210.45C239.322 212.506 237.183 214.762 236.147 217.036C235.854 217.68 235.094 217.965 234.45 217.672C233.806 217.378 233.521 216.619 233.815 215.974C235.116 213.119 237.661 210.541 240.795 208.35C243.947 206.147 247.79 204.268 251.829 202.847Z" fill="#FFC43D"/>
<path fill-rule="evenodd" clip-rule="evenodd" d="M252.332 205.457C260.613 202.543 270.009 201.384 276.429 203.47C277.103 203.688 277.471 204.411 277.252 205.084C277.033 205.757 276.31 206.126 275.637 205.907C269.997 204.075 261.243 205.038 253.182 207.874C249.183 209.282 245.433 211.124 242.406 213.24C239.362 215.367 237.145 217.705 236.07 220.065C235.776 220.709 235.016 220.994 234.372 220.7C233.728 220.407 233.444 219.647 233.737 219.003C235.077 216.061 237.701 213.402 240.938 211.14C244.191 208.865 248.16 206.925 252.332 205.457Z" fill="#FFC43D"/>
<path fill-rule="evenodd" clip-rule="evenodd" d="M253.665 208.956C262.181 205.993 271.822 204.784 278.389 206.829C279.065 207.039 279.442 207.758 279.231 208.433C279.02 209.109 278.302 209.486 277.626 209.276C271.826 207.469 262.811 208.488 254.507 211.377C250.386 212.811 246.517 214.68 243.391 216.819C240.246 218.971 237.95 221.329 236.831 223.701C236.529 224.341 235.765 224.615 235.125 224.313C234.485 224.011 234.211 223.248 234.513 222.608C235.905 219.657 238.612 216.984 241.944 214.704C245.294 212.412 249.376 210.449 253.665 208.956Z" fill="#FFC43D"/>
<path fill-rule="evenodd" clip-rule="evenodd" d="M254.492 212.562C263.176 209.564 272.993 208.317 279.664 210.334C280.341 210.539 280.724 211.254 280.519 211.932C280.314 212.609 279.599 212.992 278.921 212.787C273.006 210.999 263.806 212.057 255.328 214.984C251.12 216.437 247.167 218.325 243.969 220.481C240.752 222.65 238.401 225.022 237.25 227.403C236.941 228.04 236.175 228.307 235.538 227.999C234.901 227.692 234.634 226.925 234.942 226.288C236.372 223.331 239.137 220.649 242.537 218.356C245.956 216.051 250.119 214.072 254.492 212.562Z" fill="#FFC43D"/>
<path fill-rule="evenodd" clip-rule="evenodd" d="M255.026 215.69C263.946 212.643 274.009 211.345 280.825 213.323C281.505 213.52 281.896 214.231 281.699 214.911C281.501 215.591 280.79 215.982 280.11 215.784C274.036 214.022 264.575 215.136 255.854 218.116C251.525 219.595 247.453 221.509 244.156 223.689C240.838 225.882 238.408 228.274 237.212 230.667C236.896 231.3 236.126 231.557 235.493 231.241C234.859 230.925 234.603 230.155 234.919 229.522C236.401 226.557 239.248 223.861 242.743 221.551C246.259 219.227 250.536 217.225 255.026 215.69Z" fill="#FFC43D"/>
<path fill-rule="evenodd" clip-rule="evenodd" d="M256.08 219.069C265.135 215.993 275.338 214.666 282.238 216.622C282.919 216.815 283.314 217.523 283.121 218.204C282.928 218.885 282.219 219.28 281.538 219.087C275.373 217.34 265.763 218.486 256.904 221.496C252.505 222.99 248.366 224.919 245.011 227.112C241.636 229.319 239.16 231.723 237.939 234.123C237.618 234.754 236.847 235.005 236.216 234.684C235.585 234.363 235.334 233.592 235.655 232.961C237.166 229.992 240.06 227.287 243.609 224.967C247.18 222.633 251.523 220.617 256.08 219.069Z" fill="#FFC43D"/>
<path fill-rule="evenodd" clip-rule="evenodd" d="M205.049 139.526C205.352 131.547 215.11 114.446 235.425 111.425C245.014 109.999 258.912 113.936 263.256 126.139C266.786 136.057 263.827 146.49 252.64 159.141C252.313 159.51 252.773 154.359 248.674 149.466C242.351 141.918 230.917 144.676 225.922 149.977C221.254 154.931 219.962 160.152 222.047 165.64C221.468 165.594 220.692 165.759 219.842 165.41C206.304 159.855 204.765 147.034 205.049 139.526Z" fill="white" fill-opacity="0.5"/>
<path fill-rule="evenodd" clip-rule="evenodd" d="M213.691 124.466C208.809 129.966 206.467 135.964 206.33 139.574C206.051 146.93 207.572 158.942 220.248 164.191C219.668 161.871 219.647 159.568 220.208 157.3C220.919 154.426 222.544 151.693 224.99 149.098C227.717 146.204 232.12 144.063 236.679 143.627C241.272 143.188 246.166 144.475 249.657 148.643C251.868 151.282 252.849 153.992 253.319 155.981C253.344 156.089 253.368 156.194 253.391 156.297C262.986 144.739 265.178 135.358 262.049 126.569C260.018 120.862 255.751 117.06 250.784 114.84C245.799 112.612 240.175 112.014 235.613 112.692C225.792 114.152 218.535 119.01 213.691 124.466ZM211.775 122.765C216.964 116.921 224.744 111.717 235.237 110.157C240.264 109.41 246.384 110.066 251.831 112.501C257.297 114.944 262.151 119.212 264.464 125.709C268.218 136.255 264.936 147.171 253.6 159.989C253.518 160.081 253.236 160.382 252.746 160.434C252.156 160.496 251.765 160.163 251.603 159.968C251.455 159.791 251.387 159.615 251.361 159.546C251.329 159.458 251.308 159.377 251.295 159.321C251.254 159.145 251.222 158.9 251.195 158.693C251.193 158.675 251.19 158.658 251.188 158.64C251.122 158.14 251.028 157.432 250.824 156.572C250.418 154.854 249.58 152.542 247.692 150.289C244.86 146.908 240.875 145.8 236.922 146.178C232.933 146.559 229.123 148.448 226.855 150.855C224.633 153.213 223.277 155.568 222.696 157.915C222.119 160.249 222.286 162.661 223.245 165.184L223.965 167.079L221.944 166.917C221.871 166.911 221.774 166.911 221.604 166.914C221.583 166.915 221.56 166.915 221.537 166.916C221.393 166.919 221.208 166.923 221.018 166.919C220.558 166.909 219.979 166.851 219.355 166.595C205.03 160.717 203.479 147.12 203.769 139.478C203.935 135.109 206.624 128.567 211.775 122.765Z" fill="#FFC43D"/>
<g style="mix-blend-mode:multiply" opacity="0.3">
<path fill-rule="evenodd" clip-rule="evenodd" d="M205.807 142.247C206.11 134.268 215.868 117.166 236.183 114.146C245.772 112.72 259.67 116.656 264.014 128.86C267.544 138.778 264.585 149.211 253.397 161.862C253.071 162.231 253.531 157.08 249.432 152.187C243.109 144.638 231.674 147.397 226.68 152.697C222.011 157.652 220.72 162.873 222.804 168.361C222.226 168.314 221.45 168.479 220.599 168.13C207.062 162.576 205.523 149.754 205.807 142.247Z" fill="#FFC43D"/>
</g>
<path fill-rule="evenodd" clip-rule="evenodd" d="M233.176 145.508C230.081 146.474 227.624 147.89 225.805 149.757C223.077 152.557 220.243 157.258 221.575 163.531C222.906 169.804 225.48 172.928 233.204 175.065C240.928 177.201 249.874 171.285 251.54 166.413C253.206 161.541 253.265 154.648 248.145 148.974C244.732 145.192 239.742 144.036 233.176 145.508Z" fill="white"/>
<path fill-rule="evenodd" clip-rule="evenodd" d="M232.896 144.257C239.747 142.722 245.274 143.88 249.097 148.115C254.611 154.226 254.525 161.646 252.753 166.827C251.775 169.689 248.811 172.595 245.248 174.497C241.647 176.42 237.136 177.481 232.862 176.299C228.897 175.203 226.073 173.806 224.072 171.74C222.059 169.664 221.011 167.048 220.321 163.797C218.87 156.96 221.983 151.845 224.888 148.863C226.887 146.81 229.545 145.298 232.794 144.284L232.845 144.269L232.896 144.257ZM233.507 146.746C230.592 147.663 228.352 148.979 226.724 150.651C224.172 153.27 221.617 157.556 222.828 163.265C223.47 166.286 224.374 168.369 225.913 169.957C227.462 171.556 229.787 172.789 233.546 173.829C236.997 174.784 240.821 173.956 244.041 172.237C247.298 170.497 249.64 168.009 250.328 165.999C251.888 161.436 251.919 155.069 247.194 149.832C244.197 146.512 239.761 145.357 233.507 146.746Z" fill="#FFC43D"/>
<g style="mix-blend-mode:multiply" opacity="0.2">
<path fill-rule="evenodd" clip-rule="evenodd" d="M234.857 147.492C231.763 148.458 229.306 149.874 227.487 151.741C224.759 154.542 221.925 159.243 223.256 165.515C224.588 171.788 227.161 174.912 234.886 177.049C242.61 179.185 251.556 173.27 253.222 168.398C254.888 163.525 254.947 156.632 249.827 150.959C246.413 147.176 241.423 146.021 234.857 147.492Z" fill="#FFC43D"/>
</g>
<path fill-rule="evenodd" clip-rule="evenodd" d="M245.896 166.357C245.179 167.648 244.529 168.538 243.946 169.028C240.907 171.58 237.12 171.919 233.889 169.816C235.43 166.04 237.137 164.92 239.012 166.456C239.408 165.334 240.003 164.603 240.797 164.262C241.689 163.88 243.388 164.579 245.896 166.357Z" fill="white"/>
<path fill-rule="evenodd" clip-rule="evenodd" d="M241.296 165.443C240.942 165.597 240.542 165.971 240.22 166.882C240.081 167.276 239.759 167.578 239.357 167.69C238.954 167.803 238.523 167.712 238.199 167.447C237.857 167.167 237.623 167.09 237.489 167.075C237.379 167.062 237.239 167.077 237.028 167.216C236.625 167.48 236.108 168.103 235.536 169.27C238.027 170.432 240.782 170.012 243.122 168.047C243.398 167.814 243.752 167.395 244.177 166.739C243.408 166.242 242.769 165.897 242.253 165.685C241.544 165.394 241.295 165.448 241.294 165.444C241.294 165.444 241.295 165.443 241.296 165.443ZM243.228 163.314C244.208 163.717 245.35 164.399 246.638 165.312C247.17 165.69 247.333 166.408 247.016 166.979C246.281 168.303 245.539 169.363 244.77 170.009C241.333 172.896 236.93 173.324 233.19 170.89C232.675 170.555 232.471 169.902 232.703 169.333C233.49 167.403 234.423 165.86 235.623 165.073C236.265 164.651 237 164.438 237.785 164.529C238.016 164.556 238.239 164.608 238.455 164.68C238.91 163.978 239.512 163.419 240.293 163.084C241.241 162.679 242.315 162.939 243.228 163.314Z" fill="#FFC43D"/>
<g style="mix-blend-mode:multiply" opacity="0.3">
<path fill-rule="evenodd" clip-rule="evenodd" d="M248.237 300.211C254.612 289.594 261.629 283.472 269.288 281.845C287.157 278.049 303.108 285.369 306.747 287.782C305.086 273.712 302.593 261.971 299.27 252.559C294.286 238.442 289.19 223.952 281.81 208.856C274.43 193.76 269.197 190.627 265.625 186.177C262.054 181.727 248.521 174.555 243.5 190.877C238.479 207.2 240.52 226.998 242.825 246.934C244.362 260.226 246.166 277.984 248.237 300.211Z" fill="#FFC43D"/>
</g>
<path fill-rule="evenodd" clip-rule="evenodd" d="M248.021 106.679C260.589 101.931 269.092 97.4124 273.529 93.1244C284.117 82.8916 291.889 69.4151 296.845 52.6949C287.558 45.5637 278.58 39.2838 269.909 33.8552C262.159 29.0027 256.142 27.1606 250.631 25.6414C246.894 24.6113 243.261 23.3186 239.974 22.9222C231.84 21.9413 220.059 26.8246 221.785 40.035C222.766 47.5377 222.183 52.7587 226.733 61.9812C230.07 68.7465 233.092 76.5598 236.32 82.6737C239.338 88.3909 243.239 96.3929 248.021 106.679Z" fill="white" fill-opacity="0.5"/>
<path fill-rule="evenodd" clip-rule="evenodd" d="M226.424 25.1232C230.467 22.1558 235.782 21.1254 240.127 21.6494C242.643 21.9529 245.387 22.7675 248.097 23.5722C249.063 23.8591 250.025 24.1447 250.971 24.4055C256.535 25.9392 262.688 27.8213 270.589 32.7684C279.299 38.2214 288.311 44.5253 297.625 51.6778L298.324 52.2141L298.073 53.0586C293.066 69.9515 285.192 83.6332 274.419 94.0457C269.779 98.5303 261.057 103.123 248.473 107.878L247.36 108.299L246.858 107.22C242.08 96.9406 238.19 88.9612 235.186 83.2721C233.549 80.1704 231.97 76.6498 230.395 73.0902C230.233 72.724 230.071 72.3574 229.909 71.9908C228.49 68.7778 227.068 65.5574 225.583 62.5482C221.927 55.1373 221.475 50.1227 220.993 44.7867C220.859 43.3025 220.723 41.7934 220.514 40.201C219.59 33.1282 222.305 28.1467 226.424 25.1232ZM227.94 27.1898C224.567 29.6653 222.254 33.7307 223.055 39.8682C223.282 41.5997 223.426 43.189 223.565 44.7148C224.043 49.9639 224.452 54.4616 227.882 61.4135C229.392 64.4747 230.837 67.7467 232.252 70.9517C232.415 71.3197 232.577 71.6868 232.739 72.0526C234.316 75.6194 235.862 79.0624 237.452 82.0746C240.379 87.6172 244.122 95.2809 248.679 105.057C260.611 100.473 268.531 96.1718 272.638 92.2024C282.863 82.3207 290.449 69.3295 295.363 53.1739C286.354 46.2858 277.642 40.2089 269.229 34.9413C261.63 30.1835 255.748 28.3812 250.29 26.8767C249.215 26.5804 248.174 26.2715 247.164 25.9716C244.531 25.1901 242.104 24.4698 239.82 24.1943C236.031 23.7374 231.389 24.6582 227.94 27.1898Z" fill="#FFC43D"/>
<path opacity="0.3" fill-rule="evenodd" clip-rule="evenodd" d="M250.54 108.613C263.109 103.864 271.612 99.3459 276.048 95.058C286.636 84.8252 294.408 71.3487 299.365 54.6285C290.078 47.4973 281.099 41.2174 272.429 35.7888C264.679 30.9363 258.662 29.0942 253.15 27.575C249.413 26.5449 245.78 25.2522 242.493 24.8558C234.36 23.8749 222.579 28.7582 224.305 41.9686C225.285 49.4713 224.703 54.6923 229.252 63.9148C232.59 70.6801 235.611 78.4934 238.839 84.6073C241.858 90.3245 245.758 98.3265 250.54 108.613Z" fill="#FFC43D"/>
<path fill-rule="evenodd" clip-rule="evenodd" d="M232.319 30.5612C229.68 33.27 227.847 35.8226 226.821 38.219C225.283 41.8135 224.437 49.1439 227.935 54.5178C231.433 59.8917 236.252 66.4365 245.792 63.6361C255.332 60.8357 257.319 49.3453 257.122 44.1997C256.925 39.0541 253.922 32.2611 247.104 28.8096C242.559 26.5087 237.631 27.0925 232.319 30.5612Z" fill="white"/>
<path fill-rule="evenodd" clip-rule="evenodd" d="M231.62 29.4885C237.205 25.841 242.626 25.1059 247.684 27.6665C254.984 31.3622 258.191 38.6205 258.403 44.1507C258.507 46.8798 258.039 51.2342 256.286 55.3046C254.526 59.3923 251.405 63.3246 246.153 64.8663C241.006 66.3772 237.017 65.3712 233.87 63.1975C230.805 61.0805 228.607 57.8996 226.862 55.2177C224.943 52.2707 224.244 48.8362 224.209 45.7164C224.173 42.6023 224.798 39.6921 225.644 37.7152C226.753 35.1241 228.698 32.4423 231.402 29.6671L231.501 29.5658L231.62 29.4885ZM233.138 31.5581C230.618 34.1609 228.93 36.5503 228 38.7236C227.307 40.3413 226.74 42.8936 226.771 45.6867C226.803 48.4742 227.43 51.3919 229.009 53.8187C230.762 56.5108 232.722 59.2892 235.327 61.088C237.849 62.83 241.039 63.6962 245.432 62.4067C249.72 61.148 252.363 57.935 253.932 54.291C255.509 50.6297 255.935 46.666 255.842 44.2495C255.659 39.4884 252.861 33.1608 246.526 29.9536C242.525 27.9283 238.127 28.3383 233.138 31.5581Z" fill="#FFC43D"/>
<g style="mix-blend-mode:multiply" opacity="0.2">
<path fill-rule="evenodd" clip-rule="evenodd" d="M234.733 30.3972C232.094 33.1059 230.261 35.6585 229.235 38.0549C227.697 41.6495 226.851 48.9798 230.349 54.3538C233.847 59.7277 238.666 66.2724 248.206 63.472C257.746 60.6717 259.733 49.1813 259.536 44.0356C259.339 38.89 256.336 32.097 249.518 28.6456C244.973 26.3446 240.045 26.9285 234.733 30.3972Z" fill="#FFC43D"/>
</g>
<path fill-rule="evenodd" clip-rule="evenodd" d="M299.123 173.617C303.506 163.305 307.786 155.807 311.964 151.122C326.92 134.351 339.897 143.669 343.921 145.385C336.788 133.548 330.848 123.983 326.1 116.689C318.979 105.749 310.878 93.1277 302.581 83.6507C294.284 74.1736 278.05 61.5538 268.755 58.7887C259.461 56.0235 253.612 56.4768 253.17 71.7243C252.915 80.5198 257.546 94.5038 264.35 107.189C269.34 116.494 274.138 127.989 277.7 135.467C283.356 147.344 290.497 160.06 299.123 173.617Z" fill="white" fill-opacity="0.5"/>
<path fill-rule="evenodd" clip-rule="evenodd" d="M262.536 56.22C264.548 56.3368 266.769 56.8609 269.121 57.5605C273.997 59.0111 280.53 62.9748 286.81 67.6769C293.121 72.4018 299.324 77.9853 303.545 82.8065C311.505 91.8983 319.27 103.837 326.121 114.371C326.475 114.914 326.826 115.454 327.174 115.99C331.933 123.301 337.882 132.88 345.018 144.723L347.065 148.119L343.418 146.564C342.929 146.355 342.363 146.071 341.723 145.749C339.409 144.585 336.122 142.932 331.94 142.599C326.77 142.187 320.165 143.852 312.92 151.975C308.881 156.504 304.666 163.851 300.302 174.119L299.349 176.36L298.042 174.306C289.394 160.714 282.226 147.952 276.543 136.019C275.354 133.522 274.042 130.613 272.639 127.502C269.786 121.175 266.556 114.015 263.221 107.795C259.786 101.391 256.895 94.6516 254.892 88.389C252.897 82.1468 251.756 76.2936 251.889 71.6878C252.111 64.0453 253.675 59.47 256.965 57.4151C258.605 56.3905 260.514 56.1026 262.536 56.22ZM258.322 59.5892C256.253 60.8815 254.672 64.1566 254.451 71.7616C254.329 75.9512 255.376 81.4878 257.333 87.6076C259.284 93.7071 262.11 100.302 265.479 106.583C268.853 112.875 272.16 120.206 275.034 126.577C276.423 129.656 277.711 132.511 278.857 134.916C284.202 146.139 290.885 158.128 298.91 170.884C302.982 161.654 307.007 154.755 311.008 150.269C318.72 141.621 326.081 139.56 332.144 140.043C335.454 140.307 338.362 141.35 340.588 142.347C334.445 132.209 329.259 123.891 325.027 117.389C324.689 116.87 324.35 116.348 324.008 115.823C317.126 105.243 309.452 93.4445 301.617 84.4956C297.541 79.8397 291.479 74.3748 285.274 69.7292C279.04 65.0609 272.809 61.332 268.39 60.0175C266.094 59.3346 264.099 58.8784 262.387 58.779C260.684 58.6802 259.361 58.9402 258.322 59.5892Z" fill="#FFC43D"/>
<path fill-rule="evenodd" clip-rule="evenodd" d="M299.113 173.553C303.496 163.241 307.776 155.742 311.955 151.057C326.911 134.286 339.887 143.604 343.911 145.32C336.778 133.483 330.838 123.918 326.091 116.625C318.969 105.684 310.869 93.0632 302.571 83.5862C294.274 74.1092 278.041 61.4893 268.746 58.7242C259.451 55.9591 253.603 56.4123 253.16 71.6598C252.905 80.4553 257.536 94.4393 264.34 107.124C269.331 116.43 274.129 127.924 277.69 135.403C283.347 147.279 290.488 159.996 299.113 173.553Z" fill="white"/>
<path fill-rule="evenodd" clip-rule="evenodd" d="M262.526 56.1555C264.538 56.2724 266.759 56.7965 269.111 57.4961C273.987 58.9467 280.521 62.9103 286.801 67.6125C293.111 72.3374 299.314 77.9209 303.535 82.7421C311.495 91.8338 319.26 103.773 326.111 114.306C326.465 114.85 326.816 115.39 327.165 115.925C331.923 123.237 337.872 132.816 345.009 144.659L347.055 148.055L343.408 146.5C342.919 146.291 342.353 146.006 341.713 145.685C339.4 144.521 336.113 142.867 331.93 142.534C326.76 142.122 320.155 143.787 312.911 151.911C308.871 156.44 304.656 163.787 300.292 174.054L299.34 176.296L298.032 174.241C289.385 160.65 282.217 147.887 276.534 135.954C275.344 133.458 274.032 130.548 272.629 127.437C269.776 121.111 266.547 113.95 263.211 107.731C259.776 101.326 256.885 94.5872 254.883 88.3246C252.887 82.0823 251.746 76.2292 251.88 71.6233C252.101 63.9808 253.665 59.4055 256.955 57.3506C258.595 56.326 260.504 56.0382 262.526 56.1555ZM258.312 59.5247C256.243 60.817 254.662 64.0921 254.441 71.6971C254.32 75.8867 255.367 81.4234 257.324 87.5432C259.274 93.6427 262.101 100.238 265.469 106.519C268.844 112.811 272.151 120.141 275.025 126.512C276.414 129.591 277.702 132.446 278.847 134.852C284.192 146.074 290.875 158.063 298.9 170.82C302.972 161.59 306.998 154.691 310.998 150.205C318.71 141.557 326.071 139.496 332.135 139.979C335.444 140.243 338.352 141.285 340.578 142.282C334.436 132.144 329.249 123.826 325.017 117.324C324.679 116.806 324.34 116.284 323.998 115.759C317.116 105.178 309.442 93.3801 301.607 84.4311C297.531 79.7752 291.469 74.3103 285.265 69.6647C279.03 64.9965 272.799 61.2676 268.38 59.9531C266.085 59.2701 264.089 58.814 262.377 58.7146C260.674 58.6157 259.351 58.8757 258.312 59.5247Z" fill="#FFC43D"/>
<path fill-rule="evenodd" clip-rule="evenodd" d="M251.046 35.2146C251.499 35.7582 251.426 36.5664 250.883 37.0198C249.652 38.0461 248.334 39.6857 246.945 42.0155C246.582 42.6235 245.796 42.8226 245.188 42.4601C244.58 42.0977 244.381 41.311 244.744 40.703C246.209 38.245 247.702 36.3356 249.241 35.0514C249.785 34.598 250.593 34.671 251.046 35.2146Z" fill="#FFC43D"/>
<path fill-rule="evenodd" clip-rule="evenodd" d="M230.227 54.3195C231.858 53.098 233.556 51.9476 235.321 50.8683C235.925 50.499 236.713 50.6892 237.082 51.2931C237.451 51.897 237.261 52.6859 236.657 53.0552C234.96 54.0933 233.328 55.1988 231.762 56.3715C231.195 56.7957 230.392 56.6802 229.968 56.1136C229.544 55.547 229.66 54.7437 230.227 54.3195Z" fill="#FFC43D"/>
<path fill-rule="evenodd" clip-rule="evenodd" d="M231.266 56.3767C232.695 54.7761 234.283 53.405 236.028 52.2681C236.621 51.8818 237.415 52.0494 237.801 52.6425C238.187 53.2357 238.019 54.0297 237.426 54.416C235.877 55.4249 234.461 56.6461 233.177 58.084C232.706 58.612 231.896 58.6579 231.368 58.1864C230.84 57.715 230.795 56.9048 231.266 56.3767Z" fill="#FFC43D"/>
<path fill-rule="evenodd" clip-rule="evenodd" d="M239.223 53.7267C239.651 54.2902 239.541 55.0943 238.978 55.5226C237.476 56.6636 236.317 57.7181 235.476 58.6838C235.011 59.2176 234.201 59.2733 233.668 58.8083C233.134 58.3433 233.079 57.5337 233.544 57C234.535 55.8627 235.837 54.6908 237.427 53.4819C237.991 53.0535 238.795 53.1631 239.223 53.7267Z" fill="#FFC43D"/>
<path fill-rule="evenodd" clip-rule="evenodd" d="M252.008 36.8652C252.473 37.3982 252.418 38.2079 251.885 38.6736C250.876 39.5559 249.79 40.8904 248.642 42.7303C248.267 43.3307 247.476 43.5136 246.876 43.1388C246.276 42.7639 246.093 41.9733 246.468 41.3729C247.693 39.4116 248.932 37.8507 250.2 36.7433C250.733 36.2775 251.542 36.3321 252.008 36.8652Z" fill="#FFC43D"/>
<path fill-rule="evenodd" clip-rule="evenodd" d="M254.176 38.2514C254.595 38.8214 254.473 39.6237 253.903 40.0434C252.861 40.8109 251.665 42.2082 250.337 44.3565C249.964 44.9586 249.175 45.1449 248.573 44.7727C247.971 44.4005 247.785 43.6107 248.157 43.0086C249.555 40.7472 250.957 39.0304 252.384 37.9793C252.954 37.5596 253.756 37.6814 254.176 38.2514Z" fill="#FFC43D"/>
<path fill-rule="evenodd" clip-rule="evenodd" d="M232.9 30.331C228.517 28.373 225.565 26.7907 224.044 25.5843C216.381 19.5057 210.279 11.7306 207.842 1.32285C218.056 1.67091 225.843 7.45641 231.202 18.6793C232.75 21.9203 233.316 25.8042 232.9 30.331Z" fill="white"/>
<path fill-rule="evenodd" clip-rule="evenodd" d="M206.852 0.510109C207.105 0.201669 207.488 0.0287376 207.886 0.042324C218.69 0.410498 226.847 6.58495 232.359 18.127C234.03 21.6249 234.608 25.7519 234.177 30.4484C234.139 30.8602 233.905 31.2285 233.548 31.4375C233.191 31.6464 232.756 31.6703 232.378 31.5017C227.998 29.5454 224.909 27.9069 223.248 26.589C215.424 20.3823 209.114 12.3762 206.595 1.6158C206.504 1.2273 206.599 0.818548 206.852 0.510109ZM209.525 2.71987C212.119 11.9377 217.765 18.9678 224.841 24.5804C226.035 25.528 228.305 26.7987 231.738 28.3939C231.85 24.8323 231.269 21.791 230.047 19.2324C225.155 8.98993 218.314 3.60694 209.525 2.71987Z" fill="#FFC43D"/>
<path fill-rule="evenodd" clip-rule="evenodd" d="M211.126 9.82419C212.293 10.3944 214.499 10.7772 217.742 10.9726L216.768 3.32679C212.901 1.88868 209.948 1.2754 207.91 1.48696C211.302 3.37982 214.442 6.32918 217.327 10.3351" fill="white" fill-opacity="0.5"/>
<path fill-rule="evenodd" clip-rule="evenodd" d="M207.012 1.30251C207.092 0.911335 207.417 0.617403 207.814 0.576199C210.074 0.341686 213.195 1.02133 217.086 2.46852C217.405 2.58714 217.632 2.87301 217.675 3.21067L218.649 10.8565C218.684 11.1269 218.596 11.3987 218.41 11.5978C218.223 11.7969 217.958 11.9027 217.686 11.8863C214.451 11.6914 212.074 11.3064 210.723 10.6467C210.269 10.4248 210.081 9.87662 210.303 9.4223C210.525 8.96797 211.073 8.77952 211.527 9.00139C212.3 9.37888 213.72 9.69472 215.87 9.90781C213.245 6.47577 210.439 3.94715 207.462 2.28634C207.114 2.09183 206.932 1.69368 207.012 1.30251ZM216.392 7.62175L215.93 3.99497C214.167 3.36026 212.637 2.91936 211.332 2.65698C213.101 4.01929 214.787 5.67645 216.392 7.62175Z" fill="#FFC43D"/>
<g style="mix-blend-mode:multiply" opacity="0.3">
<path fill-rule="evenodd" clip-rule="evenodd" d="M217.225 6.75315C216.899 5.2836 219.594 6.14184 209.962 2.86372C210.232 5.83048 210.539 8.01565 210.881 9.41925C212.066 14.2815 216.179 11.6023 217.672 10.6673C218.726 10.0073 217.384 7.46689 217.225 6.75315Z" fill="#FFC43D"/>
</g>
<g style="mix-blend-mode:multiply" opacity="0.3">
<path fill-rule="evenodd" clip-rule="evenodd" d="M302.745 171.386C307.069 161.212 311.292 153.814 315.414 149.192C330.17 132.645 342.973 141.839 346.943 143.532C339.906 131.853 334.045 122.416 329.361 115.22C322.335 104.426 314.343 91.9744 306.157 82.6242C297.971 73.2741 281.955 60.8233 272.784 58.0952C263.614 55.3671 257.844 55.8143 257.408 70.8576C257.156 79.5353 261.725 93.332 268.437 105.847C273.361 115.028 278.095 126.368 281.609 133.747C287.19 145.464 294.235 158.01 302.745 171.386Z" fill="#FFC43D"/>
</g>
<path fill-rule="evenodd" clip-rule="evenodd" d="M53.4822 163.09C53.4822 163.09 65.8422 171.47 78.1122 165.484C73.7478 162.216 66.3493 161.286 55.9166 162.693C54.2936 162.958 53.4822 163.09 53.4822 163.09Z" fill="white" fill-opacity="0.5"/>
<path fill-rule="evenodd" clip-rule="evenodd" d="M55.7454 161.424C66.2383 160.008 74.0871 160.869 78.8808 164.458C79.2382 164.725 79.4304 165.16 79.3881 165.604C79.3459 166.048 79.0754 166.439 78.674 166.635C72.1533 169.816 65.6409 169.161 60.8366 167.761C58.4296 167.06 56.4248 166.166 55.0197 165.445C54.3161 165.085 53.7602 164.767 53.3763 164.536C53.1842 164.421 53.035 164.327 52.9317 164.261C52.88 164.228 52.8398 164.201 52.8114 164.183C52.7972 164.173 52.7859 164.166 52.7777 164.16L52.7676 164.154L52.7643 164.151L52.763 164.151C52.7625 164.15 52.762 164.15 53.482 163.09L53.2763 161.825L55.7108 161.429C55.7223 161.427 55.7339 161.425 55.7454 161.424ZM53.482 163.09L53.2763 161.825C52.7582 161.91 52.3437 162.301 52.2303 162.814C52.117 163.326 52.3277 163.855 52.762 164.15L53.482 163.09ZM57.4782 163.787C58.6112 164.302 59.9925 164.846 61.5549 165.301C65.4126 166.425 70.295 166.981 75.2776 165.273C71.3761 163.415 65.5128 162.843 57.4782 163.787Z" fill="#FFC43D"/>
<g style="mix-blend-mode:multiply" opacity="0.3">
<path fill-rule="evenodd" clip-rule="evenodd" d="M52.9109 164.513C52.9109 164.513 65.2709 172.893 77.5409 166.906C73.1765 163.639 65.778 162.709 55.3453 164.116C53.7224 164.381 52.9109 164.513 52.9109 164.513Z" fill="#FFC43D"/>
</g>
<path fill-rule="evenodd" clip-rule="evenodd" d="M53.545 162.017C63.8362 163.334 72.0091 161.081 78.0637 155.256C71.047 154.567 64.0876 155.997 57.1855 159.547C56.3857 159.958 55.1722 160.781 53.545 162.017Z" fill="white" fill-opacity="0.5"/>
<path fill-rule="evenodd" clip-rule="evenodd" d="M79.2746 154.836C79.4385 155.308 79.3127 155.833 78.9523 156.179C72.5527 162.336 63.9584 164.642 53.3815 163.288C52.8654 163.222 52.4406 162.851 52.3064 162.348C52.1722 161.846 52.3552 161.312 52.7696 160.997C54.4008 159.759 55.6912 158.875 56.5991 158.408C63.6976 154.758 70.9028 153.266 78.1894 153.982C78.6871 154.03 79.1107 154.364 79.2746 154.836ZM74.7612 156.37C69.0822 156.35 63.424 157.779 57.7715 160.686C57.5891 160.78 57.3758 160.902 57.1307 161.054C64.2267 161.404 70.0739 159.816 74.7612 156.37Z" fill="#FFC43D"/>
<g style="mix-blend-mode:multiply" opacity="0.3">
<path fill-rule="evenodd" clip-rule="evenodd" d="M52.9747 163.44C63.2658 164.757 71.4387 162.504 77.4934 156.679C70.4767 155.99 63.5173 157.42 56.6152 160.969C55.8154 161.381 54.6019 162.204 52.9747 163.44Z" fill="#FFC43D"/>
</g>
<path fill-rule="evenodd" clip-rule="evenodd" d="M51.8419 157.569C64.9027 156.443 73.2241 152.081 76.8061 144.483C68.688 145.508 61.4217 148.806 55.0073 154.376C54.303 154.987 53.2478 156.052 51.8419 157.569Z" fill="white" fill-opacity="0.5"/>
<path fill-rule="evenodd" clip-rule="evenodd" d="M77.8434 143.729C78.1181 144.107 78.1649 144.605 77.9656 145.028C74.0953 153.237 65.1952 157.703 51.9515 158.845C51.4238 158.891 50.9227 158.607 50.6901 158.132C50.4575 157.657 50.5415 157.087 50.9014 156.699C52.3104 155.178 53.4058 154.069 54.1666 153.408C60.765 147.678 68.2658 144.269 76.6458 143.211C77.1097 143.153 77.5687 143.351 77.8434 143.729ZM74.3824 146.164C67.56 147.479 61.3872 150.532 55.8478 155.342C55.6743 155.493 55.4745 155.676 55.248 155.893C64.7105 154.541 70.974 151.228 74.3824 146.164Z" fill="#FFC43D"/>
<g style="mix-blend-mode:multiply" opacity="0.3">
<path fill-rule="evenodd" clip-rule="evenodd" d="M51.8399 159.402C64.9008 158.276 73.2222 153.914 76.8041 146.316C68.686 147.341 61.4198 150.639 55.0054 156.209C54.301 156.82 53.2459 157.885 51.8399 159.402Z" fill="#FFC43D"/>
</g>
<path fill-rule="evenodd" clip-rule="evenodd" d="M51.9425 157.315C67.9937 144.422 75.5386 135.935 74.5771 131.854C65.2333 137.156 59.0491 142.776 56.0245 148.714C55.276 150.183 53.9154 153.05 51.9425 157.315Z" fill="white" fill-opacity="0.5"/>
<path fill-rule="evenodd" clip-rule="evenodd" d="M75.0909 130.679C75.4609 130.84 75.7332 131.166 75.8257 131.559C76.1714 133.027 75.7147 134.664 74.8398 136.334C73.9484 138.036 72.5181 139.971 70.5986 142.13C66.755 146.454 60.7905 151.852 52.7462 158.313C52.2822 158.686 51.6227 158.691 51.1538 158.324C50.6849 157.958 50.53 157.318 50.7798 156.778C52.7514 152.515 54.1218 149.627 54.883 148.132C58.0718 141.873 64.5047 136.097 73.9453 130.739C74.2964 130.54 74.7209 130.518 75.0909 130.679ZM72.9755 134.279C64.9991 139.123 59.7906 144.145 57.1677 149.294C56.7789 150.057 56.2183 151.212 55.4848 152.761C61.295 147.907 65.6869 143.798 68.6823 140.429C70.5352 138.345 71.814 136.587 72.5685 135.146C72.732 134.834 72.8664 134.546 72.9755 134.279Z" fill="#FFC43D"/>
<g style="mix-blend-mode:multiply" opacity="0.3">
<path fill-rule="evenodd" clip-rule="evenodd" d="M52.2902 159.654C68.3414 146.761 75.8863 138.274 74.9248 134.192C65.581 139.495 59.3968 145.115 56.3722 151.053C55.6237 152.522 54.263 155.389 52.2902 159.654Z" fill="#FFC43D"/>
</g>
<path fill-rule="evenodd" clip-rule="evenodd" d="M-34.7887 275.602C-23.3875 273.11 -14.8501 273.405 -9.17651 276.488C3.10669 283.161 10.3515 292.855 11.9996 296.802C17.8396 284.896 21.5358 274.275 23.088 264.938C26.1769 246.358 29.4129 233.375 32.2976 221.549C35.1822 209.723 36.745 200.42 36.3836 193.334C36.0221 186.249 27.9824 184.956 21.9782 187.568C15.974 190.179 3.34596 202.509 -7.85034 221.27C-15.3145 233.777 -24.294 251.887 -34.7887 275.602Z" fill="white"/>
<path fill-rule="evenodd" clip-rule="evenodd" d="M35.8077 188.256C36.8993 189.564 37.559 191.245 37.6623 193.268C38.034 200.555 36.4286 210.015 33.5415 221.852C33.4162 222.365 33.2904 222.881 33.1639 223.398C30.3771 234.812 27.2976 247.424 24.351 265.148C22.772 274.646 19.0238 285.389 13.1491 297.366L11.904 299.904L10.815 297.296C10.0725 295.517 7.96012 292.236 4.46702 288.548C0.99438 284.881 -3.78261 280.877 -9.79063 277.613C-15.0475 274.757 -23.1997 274.38 -34.5168 276.853L-36.9842 277.392L-35.9625 275.084C-25.4603 251.352 -16.4564 233.187 -8.95274 220.614C-3.31108 211.161 2.69756 203.316 8.06702 197.495C13.396 191.717 18.2049 187.811 21.4655 186.393C24.6962 184.988 28.5279 184.601 31.6806 185.592C33.2712 186.093 34.7237 186.957 35.8077 188.256ZM30.9101 188.036C28.4515 187.263 25.2613 187.536 22.4878 188.742C19.7442 189.936 15.2369 193.501 9.95182 199.231C4.70715 204.917 -1.19637 212.618 -6.751 221.926C-13.9367 233.966 -22.5557 251.265 -32.6097 273.848C-22.3014 271.887 -14.2148 272.293 -8.56546 275.362C-2.29027 278.771 2.69673 282.951 6.32933 286.786C8.83283 289.43 10.7224 291.941 11.948 293.956C17.1156 283.049 20.3953 273.31 21.8219 264.729C24.7844 246.909 27.8831 234.219 30.6713 222.8C30.7984 222.279 30.9249 221.762 31.0506 221.246C33.9327 209.43 35.453 200.284 35.1018 193.4C35.0243 191.88 34.5435 190.743 33.8383 189.897C33.1257 189.043 32.1251 188.419 30.9101 188.036Z" fill="#FFC43D"/>
<path fill-rule="evenodd" clip-rule="evenodd" d="M16.7047 147.703C19.3859 153.8 23.9225 156.658 30.3144 156.278C28.3821 153.908 25.8107 151.837 22.6003 150.063C21.4032 149.401 19.438 148.615 16.7047 147.703Z" fill="white" fill-opacity="0.5"/>
<path fill-rule="evenodd" clip-rule="evenodd" d="M17.111 146.488C19.8558 147.404 21.915 148.221 23.2207 148.942C26.5465 150.78 29.254 152.95 31.3081 155.469C31.612 155.841 31.6814 156.353 31.4878 156.793C31.2943 157.233 30.8704 157.528 30.39 157.557C26.9797 157.76 23.97 157.102 21.434 155.504C18.9021 153.909 16.9494 151.445 15.531 148.219C15.327 147.755 15.4159 147.215 15.7577 146.84C16.0995 146.466 16.6301 146.328 17.111 146.488ZM19.4532 150.049C20.425 151.457 21.5449 152.544 22.8019 153.336C24.0899 154.148 25.566 154.677 27.2499 154.904C25.7732 153.553 24.0198 152.312 21.9796 151.185C21.3793 150.853 20.541 150.474 19.4532 150.049Z" fill="#FFC43D"/>
<g style="mix-blend-mode:multiply" opacity="0.3">
<path fill-rule="evenodd" clip-rule="evenodd" d="M19.0768 148.653C21.758 154.75 26.2945 157.609 32.6864 157.228C30.7541 154.858 28.1828 152.787 24.9724 151.013C23.7752 150.352 21.81 149.565 19.0768 148.653Z" fill="#FFC43D"/>
</g>
<path fill-rule="evenodd" clip-rule="evenodd" d="M23.501 133.048C22.9615 136.316 22.9129 138.993 23.355 141.079C24.5891 146.901 26.5638 151.391 30.6627 156.235C31.3483 151.632 30.9641 147.401 29.5103 143.543C28.0564 139.685 26.0533 136.186 23.501 133.048Z" fill="white" fill-opacity="0.5"/>
<path fill-rule="evenodd" clip-rule="evenodd" d="M23.173 131.809C23.6606 131.68 24.1787 131.848 24.4968 132.239C27.1378 135.487 29.2093 139.106 30.7108 143.091C32.251 147.178 32.645 151.632 31.9315 156.423C31.8574 156.92 31.4985 157.329 31.0142 157.467C30.5298 157.604 30.0097 157.446 29.6846 157.062C25.4333 152.038 23.3745 147.348 22.1018 141.345C21.6135 139.041 21.6844 136.187 22.2371 132.839C22.3192 132.342 22.6855 131.939 23.173 131.809ZM24.3917 136.393C24.2748 138.139 24.3545 139.608 24.61 140.813C25.589 145.431 27.0342 149.145 29.6929 152.9C29.8128 149.706 29.3467 146.742 28.3115 143.995C27.286 141.273 25.9795 138.74 24.3917 136.393Z" fill="#FFC43D"/>
<g style="mix-blend-mode:multiply" opacity="0.3">
<path fill-rule="evenodd" clip-rule="evenodd" d="M24.9561 133.997C24.4166 137.265 24.3679 139.942 24.8101 142.028C26.0442 147.85 28.0189 152.34 32.1178 157.184C32.8034 152.581 32.4192 148.351 30.9653 144.492C29.5115 140.634 27.5084 137.135 24.9561 133.997Z" fill="#FFC43D"/>
</g>
<path fill-rule="evenodd" clip-rule="evenodd" d="M40.1557 152.823C40.4145 149.628 40.446 147.363 40.2501 146.029C38.947 137.153 38.3304 129.652 45.2852 110.773C51.4237 122.931 50.8435 135.617 43.5446 148.83C42.8459 150.095 41.7163 151.426 40.1557 152.823Z" fill="white" fill-opacity="0.5"/>
<path fill-rule="evenodd" clip-rule="evenodd" d="M45.2117 109.495C45.7213 109.466 46.1996 109.741 46.4295 110.196C52.7817 122.777 52.1443 135.912 44.6666 149.45C43.8747 150.883 42.6347 152.324 41.0107 153.778C40.62 154.128 40.0556 154.205 39.5858 153.972C39.116 153.739 38.8356 153.244 38.8779 152.721C39.1366 149.527 39.1542 147.392 38.9816 146.216C38.3254 141.746 37.8268 137.527 38.3957 132.022C38.9628 126.534 40.5833 119.829 44.0821 110.332C44.2584 109.853 44.7021 109.524 45.2117 109.495ZM45.432 114.162C42.7087 121.986 41.4252 127.645 40.9459 132.284C40.4101 137.468 40.8714 141.437 41.5182 145.843C41.6473 146.722 41.6846 147.913 41.6407 149.397C41.9527 148.987 42.2123 148.592 42.4222 148.212C48.9759 136.348 49.9403 125.037 45.432 114.162Z" fill="#FFC43D"/>
<g style="mix-blend-mode:multiply" opacity="0.3">
<path fill-rule="evenodd" clip-rule="evenodd" d="M41.4165 157.913C41.6753 154.718 41.7067 152.453 41.5108 151.119C40.2077 142.243 39.5912 134.742 46.5459 115.863C52.6844 128.021 52.1042 140.707 44.8053 153.92C44.1067 155.185 42.9771 156.516 41.4165 157.913Z" fill="#FFC43D"/>
</g>
<path fill-rule="evenodd" clip-rule="evenodd" d="M40.6996 152.573C38.3953 151.367 36.2495 149.399 34.2623 146.668C31.2815 142.572 28.9003 130.408 30.1553 121.039C36.3663 127.645 39.6432 133.882 39.986 139.75C40.3288 145.618 40.5667 149.893 40.6996 152.573Z" fill="white" fill-opacity="0.5"/>
<path fill-rule="evenodd" clip-rule="evenodd" d="M29.7625 119.819C30.2337 119.668 30.7498 119.801 31.0886 120.161C37.3989 126.873 40.897 133.382 41.2646 139.675C41.6075 145.543 41.8456 149.822 41.9788 152.509C42.0016 152.968 41.7765 153.404 41.389 153.652C41.0015 153.899 40.5109 153.921 40.1035 153.707C37.5804 152.387 35.2942 150.266 33.2244 147.421C31.552 145.123 30.1736 140.811 29.3559 136.047C28.5287 131.229 28.235 125.712 28.8836 120.869C28.9493 120.379 29.2914 119.97 29.7625 119.819ZM31.1588 124.08C30.9515 127.867 31.2513 131.935 31.8827 135.613C32.687 140.298 33.9896 144.116 35.298 145.914C36.5845 147.682 37.917 149.084 39.289 150.144C39.1508 147.56 38.9562 144.121 38.7052 139.825C38.4228 134.991 35.9816 129.746 31.1588 124.08Z" fill="#FFC43D"/>
<g style="mix-blend-mode:multiply" opacity="0.3">
<path fill-rule="evenodd" clip-rule="evenodd" d="M42.0873 155.696C39.783 154.49 37.6372 152.522 35.65 149.791C32.6692 145.695 30.288 133.531 31.543 124.162C37.754 130.768 41.0309 137.005 41.3737 142.873C41.7165 148.742 41.9544 153.016 42.0873 155.696Z" fill="#FFC43D"/>
</g>
<path fill-rule="evenodd" clip-rule="evenodd" d="M47.3254 153.533C47.3297 150.869 47.3863 148.6 47.4951 146.727C48.0431 137.291 56.5924 117.961 69.2373 108.463C70.3486 119.092 66.4568 131.053 57.5619 144.344C55.766 147.028 52.3539 150.091 47.3254 153.533Z" fill="white" fill-opacity="0.5"/>
<path fill-rule="evenodd" clip-rule="evenodd" d="M69.7505 107.289C70.1737 107.473 70.465 107.87 70.513 108.329C71.6676 119.373 67.61 131.635 58.6282 145.057C56.6931 147.948 53.1156 151.123 48.0503 154.591C47.6576 154.859 47.1482 154.889 46.7273 154.667C46.3065 154.445 46.0435 154.008 46.0443 153.532C46.0487 150.853 46.1055 148.559 46.2161 146.654C46.5048 141.683 48.8652 134.307 52.696 127.023C56.5357 119.722 61.9433 112.34 68.4681 107.439C68.8373 107.162 69.3272 107.104 69.7505 107.289ZM54.9653 128.214C51.2233 135.329 49.0349 142.336 48.7756 146.801C48.704 148.035 48.655 149.449 48.6293 151.045C52.4864 148.229 55.0765 145.756 56.4972 143.633C64.6216 131.493 68.4222 120.631 68.125 111.001C62.8219 115.551 58.3094 121.856 54.9653 128.214Z" fill="#FFC43D"/>
<path fill-rule="evenodd" clip-rule="evenodd" d="M57.732 121.127C57.8818 121.187 58.6474 122.921 60.0289 126.331L67.085 124.148C69.4129 117.37 70.1087 112.269 69.1724 108.847C64.8242 115.54 61.8676 121.141 60.3027 125.648" fill="white" fill-opacity="0.5"/>
<path fill-rule="evenodd" clip-rule="evenodd" d="M69.3706 107.581C69.8697 107.659 70.2766 108.022 70.4098 108.509C71.4544 112.328 70.6395 117.747 68.2982 124.564C68.1653 124.952 67.8554 125.252 67.4643 125.373L60.4082 127.555C59.7721 127.752 59.0914 127.429 58.8416 126.812C58.1521 125.111 57.6212 123.84 57.2465 122.991C57.0579 122.564 56.9165 122.261 56.8185 122.069C56.7982 122.029 56.7811 121.996 56.7671 121.971C56.4607 121.62 56.3576 121.113 56.543 120.651C56.8065 119.994 57.5528 119.675 58.2099 119.938C58.5258 120.065 58.7099 120.286 58.7456 120.329C58.747 120.331 58.7481 120.332 58.749 120.333C58.8155 120.412 58.8668 120.489 58.9004 120.542C58.9702 120.652 59.0389 120.779 59.1027 120.904C59.2336 121.161 59.398 121.516 59.5922 121.956C59.7111 122.225 59.844 122.533 59.9909 122.879C61.724 118.7 64.4367 113.786 68.0981 108.15C68.3732 107.726 68.8715 107.504 69.3706 107.581ZM62.1671 124.329L66.0815 123.119C67.5147 118.822 68.2202 115.348 68.289 112.64C65.5336 117.118 63.4993 121.012 62.1671 124.329Z" fill="#FFC43D"/>
<g style="mix-blend-mode:multiply" opacity="0.3">
<path fill-rule="evenodd" clip-rule="evenodd" d="M67.5166 111.866C69.5414 120.694 67.6946 125.369 61.9764 125.892C60.6405 126.014 52.5472 128.489 67.5166 111.866Z" fill="#FFC43D"/>
</g>
<path fill-rule="evenodd" clip-rule="evenodd" d="M40.2279 152.265C31.0699 153.515 28.9352 157.479 26.628 163.231C24.3209 168.982 24.0499 172.471 28.3042 178.431C32.5585 184.392 44.0237 183.467 47.9863 180.453C51.9488 177.439 56.2082 172.038 55.1473 164.729C54.0863 157.42 49.3858 151.015 40.2279 152.265Z" fill="white"/>
<path fill-rule="evenodd" clip-rule="evenodd" d="M51.6128 154.364C54.3274 156.975 55.8574 160.698 56.4157 164.545C57.5712 172.505 52.9111 178.316 48.7622 181.472C46.4582 183.224 42.2661 184.23 38.2088 184.088C34.1435 183.944 29.7242 182.627 27.2603 179.175C25.0615 176.094 23.927 173.508 23.7271 170.849C23.5286 168.209 24.267 165.673 25.438 162.754C26.5907 159.88 27.7859 157.209 29.9763 155.131C32.1996 153.021 35.3081 151.644 40.0547 150.996C44.9925 150.322 48.8571 151.714 51.6128 154.364ZM49.8347 156.211C47.6854 154.144 44.6208 152.958 40.4007 153.534C35.9894 154.136 33.4514 155.366 31.7411 156.988C29.9979 158.642 28.9721 160.829 27.8176 163.706C26.6815 166.539 26.1308 168.622 26.2836 170.656C26.435 172.669 27.2922 174.807 29.3477 177.687C31.1381 180.195 34.5787 181.396 38.3001 181.527C42.0297 181.658 45.5514 180.695 47.2099 179.433C50.9861 176.561 54.8448 171.571 53.8785 164.913C53.3758 161.451 52.0251 158.317 49.8347 156.211Z" fill="#FFC43D"/>
<g style="mix-blend-mode:multiply" opacity="0.2">
<path fill-rule="evenodd" clip-rule="evenodd" d="M40.4947 154.951C31.2881 156.207 29.142 160.192 26.8226 165.974C24.5032 171.756 24.2308 175.263 28.5077 181.256C32.7846 187.248 44.3107 186.318 48.2943 183.288C52.2779 180.258 56.5599 174.829 55.4933 167.481C54.4267 160.133 49.7013 153.694 40.4947 154.951Z" fill="#FFC43D"/>
</g>
<g style="mix-blend-mode:multiply" opacity="0.3">
<path fill-rule="evenodd" clip-rule="evenodd" d="M-31.9465 277.764C-20.698 275.305 -12.2749 275.597 -6.67736 278.638C5.44133 285.222 12.5891 294.786 14.2152 298.68C19.977 286.934 23.6236 276.455 25.1551 267.243C28.2026 248.912 31.3953 236.103 34.2413 224.435C37.0873 212.767 38.6292 203.589 38.2726 196.598C37.9159 189.608 29.9839 188.332 24.0601 190.909C18.1363 193.485 5.67741 205.65 -5.36894 224.159C-12.7332 236.499 -21.5924 254.367 -31.9465 277.764Z" fill="#FFC43D"/>
</g>
<path fill-rule="evenodd" clip-rule="evenodd" d="M171.385 213.748C180.835 216.039 188.016 218.015 192.927 219.675C200.36 222.188 207.049 225.219 212.994 228.769C216.421 219.559 217.856 212.384 217.298 207.245C216.799 202.651 214.191 195.475 211.267 193.213C206.963 189.884 197.36 182.871 179.608 201.263C177.78 203.156 175.039 207.318 171.385 213.748Z" fill="white" fill-opacity="0.5"/>
<path fill-rule="evenodd" clip-rule="evenodd" d="M200.449 187.811C206.085 187.67 209.873 190.514 212.051 192.199C213.798 193.55 215.285 196.186 216.379 198.871C217.495 201.611 218.308 204.67 218.572 207.106C219.163 212.552 217.64 219.957 214.195 229.215L213.658 230.658L212.336 229.868C206.479 226.371 199.874 223.376 192.516 220.889C187.659 219.247 180.521 217.281 171.082 214.993L169.431 214.592L170.27 213.115C173.915 206.703 176.729 202.4 178.686 200.373C187.679 191.055 194.817 187.953 200.449 187.811ZM200.512 190.373C195.828 190.49 189.289 193.077 180.53 202.152C178.965 203.773 176.577 207.315 173.344 212.907C181.995 215.031 188.666 216.882 193.338 218.461C200.297 220.814 206.625 223.621 212.316 226.887C215.339 218.431 216.521 211.961 216.023 207.384C215.789 205.226 215.048 202.4 214.005 199.838C212.939 197.221 211.66 195.137 210.482 194.226C208.357 192.582 205.191 190.255 200.512 190.373Z" fill="#FFC43D"/>
<g style="mix-blend-mode:multiply" opacity="0.3">
<path fill-rule="evenodd" clip-rule="evenodd" d="M171.821 216.323C181.27 218.614 188.451 220.59 193.363 222.251C200.796 224.763 207.485 227.794 213.429 231.344C216.857 222.134 218.291 214.96 217.733 209.82C217.235 205.227 214.627 198.05 211.702 195.788C207.398 192.459 197.796 185.446 180.044 203.838C178.216 205.731 175.475 209.893 171.821 216.323Z" fill="#FFC43D"/>
</g>
<path fill-rule="evenodd" clip-rule="evenodd" d="M204.838 205.52C202.458 205.32 196.68 204.39 194.264 203.573C192.746 203.06 189.882 202.593 185.672 202.172C185.204 202.125 184.761 202.391 184.583 202.826C183.268 206.033 182.477 208.424 182.21 209.997C181.78 212.533 181.999 215.197 183.187 220.565C184.376 225.934 192.017 227.386 194.841 227.253C197.664 227.121 205.235 226.345 208.998 220.01C211.403 215.962 212.59 211.873 212.559 207.745C212.557 207.429 212.345 207.152 212.039 207.069C208.748 206.163 206.348 205.647 204.838 205.52Z" fill="white"/>
<path fill-rule="evenodd" clip-rule="evenodd" d="M212.379 205.833C213.237 206.069 213.834 206.846 213.841 207.736C213.873 212.128 212.607 216.443 210.1 220.664C205.964 227.626 197.73 228.4 194.9 228.533C193.297 228.609 190.49 228.245 187.901 227.153C185.326 226.066 182.66 224.119 181.935 220.843C180.74 215.442 180.472 212.576 180.946 209.783C181.239 208.06 182.078 205.558 183.397 202.341L184.583 202.826L183.397 202.341C183.79 201.381 184.767 200.794 185.799 200.897L185.671 202.172L185.799 200.897C189.998 201.317 193 201.794 194.674 202.36C196.949 203.128 202.609 204.047 204.945 204.244C206.583 204.381 209.082 204.927 212.379 205.833ZM211.276 208.188C208.215 207.359 206.051 206.908 204.73 206.797C202.306 206.593 196.411 205.652 193.852 204.787C192.508 204.333 189.835 203.881 185.707 203.463C184.435 206.581 183.711 208.81 183.474 210.211C183.087 212.491 183.257 214.952 184.438 220.288C184.901 222.38 186.65 223.843 188.899 224.792C191.134 225.735 193.56 226.031 194.78 225.974C197.597 225.841 204.505 225.064 207.896 219.356C210.112 215.625 211.222 211.907 211.276 208.188Z" fill="#FFC43D"/>
<g style="mix-blend-mode:multiply" opacity="0.2">
<path fill-rule="evenodd" clip-rule="evenodd" d="M206.072 207.945C203.693 207.745 197.914 206.815 195.498 205.998C193.98 205.485 191.116 205.018 186.906 204.597C186.439 204.55 185.996 204.816 185.818 205.251C184.503 208.458 183.712 210.848 183.445 212.422C183.014 214.958 183.233 217.622 184.422 222.99C185.61 228.358 193.251 229.811 196.075 229.678C198.898 229.545 206.469 228.77 210.233 222.435C212.638 218.386 213.825 214.298 213.794 210.17C213.791 209.854 213.579 209.577 213.274 209.493C209.983 208.588 207.582 208.072 206.072 207.945Z" fill="#FFC43D"/>
</g>
<path fill-rule="evenodd" clip-rule="evenodd" d="M116.409 336.271C125.591 333.218 133.851 331.737 141.192 331.828C151.141 331.951 156.755 338.122 158.033 350.341C168.531 329.147 174.723 316.319 176.607 311.855C181.767 299.629 186.747 278.869 189.232 265.233C191.716 251.596 191.439 238.46 191.319 236.483C191.199 234.505 191.64 227.983 181.606 233.2C171.572 238.416 157.775 262.279 147.121 283.164C140.019 297.088 129.782 314.79 116.409 336.271Z" fill="white"/>
<path fill-rule="evenodd" clip-rule="evenodd" d="M192.584 236.078C192.589 236.21 192.593 236.321 192.599 236.405C192.723 238.455 193.001 251.699 190.493 265.462C188.004 279.124 183.005 299.995 177.788 312.353C175.885 316.862 169.672 329.734 159.182 350.909L157.218 354.873L156.758 350.475C156.135 344.514 154.471 340.219 151.916 337.411C149.394 334.638 145.87 333.167 141.176 333.11C134.016 333.021 125.9 334.466 116.814 337.487L113.446 338.607L115.322 335.595C128.685 314.129 138.901 296.461 145.98 282.583C151.315 272.124 157.452 260.891 163.524 251.606C166.559 246.964 169.593 242.787 172.517 239.43C175.423 236.092 178.293 233.479 181.015 232.064C183.595 230.723 185.631 230.064 187.256 229.956C188.933 229.845 190.222 230.323 191.112 231.264C191.949 232.149 192.278 233.285 192.427 234.195C192.541 234.891 192.567 235.613 192.584 236.078ZM187.425 232.513C186.307 232.587 184.635 233.07 182.198 234.337C179.903 235.53 177.286 237.856 174.45 241.112C171.632 244.349 168.669 248.421 165.669 253.008C159.671 262.18 153.582 273.32 148.264 283.747C141.466 297.074 131.816 313.831 119.323 334.009C127.296 331.629 134.595 330.466 141.208 330.547C146.465 330.612 150.721 332.288 153.813 335.687C156.174 338.282 157.774 341.794 158.683 346.14C168.098 327.096 173.67 315.518 175.426 311.357C180.531 299.264 185.491 278.615 187.971 265.004C190.432 251.495 190.155 238.467 190.04 236.561C190.029 236.39 190.023 236.218 190.016 236.042C189.999 235.596 189.982 235.129 189.897 234.61C189.781 233.904 189.571 233.365 189.249 233.024C188.98 232.74 188.491 232.442 187.425 232.513Z" fill="#FFC43D"/>
<path fill-rule="evenodd" clip-rule="evenodd" d="M171.984 248.986C169.706 248.841 167.777 249.123 166.416 249.808C165.783 250.126 165.013 249.871 164.694 249.239C164.376 248.607 164.631 247.837 165.263 247.519C167.188 246.55 169.63 246.269 172.147 246.429C174.685 246.589 177.415 247.206 180.003 248.148C182.59 249.09 185.077 250.374 187.117 251.9C189.141 253.414 190.815 255.236 191.627 257.285C191.888 257.943 191.566 258.687 190.908 258.948C190.25 259.209 189.505 258.887 189.244 258.23C188.672 256.787 187.401 255.313 185.58 253.951C183.775 252.601 181.519 251.427 179.125 250.555C176.731 249.684 174.242 249.129 171.984 248.986Z" fill="#FFC43D"/>
<path fill-rule="evenodd" clip-rule="evenodd" d="M178.907 250.526C183.981 252.104 188.642 255.068 191.422 259.47C191.8 260.068 191.621 260.86 191.022 261.237C190.424 261.615 189.632 261.437 189.254 260.838C186.887 257.09 182.815 254.425 178.145 252.973C173.478 251.522 168.337 251.323 163.982 252.387C163.294 252.555 162.601 252.134 162.433 251.447C162.265 250.759 162.686 250.066 163.374 249.898C168.214 248.716 173.83 248.947 178.907 250.526Z" fill="#FFC43D"/>
<path fill-rule="evenodd" clip-rule="evenodd" d="M160.08 255.255C167.348 250.91 176.782 252.435 183.869 255.703C184.903 256.18 186.384 257.007 187.789 258.094C189.176 259.168 190.601 260.581 191.374 262.259C191.67 262.901 191.389 263.662 190.746 263.959C190.103 264.255 189.342 263.974 189.046 263.331C188.523 262.196 187.467 261.087 186.219 260.121C184.988 259.168 183.678 258.438 182.794 258.03C176.041 254.916 167.604 253.742 161.395 257.454C160.787 257.817 160 257.619 159.637 257.012C159.274 256.404 159.472 255.618 160.08 255.255Z" fill="#FFC43D"/>
<path fill-rule="evenodd" clip-rule="evenodd" d="M174.588 256.037C177.918 256.44 181.251 257.347 183.761 258.721C186.148 260.028 188.109 262.247 189.759 264.115C190.038 264.431 190.309 264.738 190.571 265.028C191.046 265.553 191.004 266.363 190.479 266.837C189.954 267.312 189.143 267.271 188.669 266.746C188.369 266.414 188.072 266.08 187.777 265.748C186.106 263.864 184.488 262.04 182.53 260.969C180.392 259.799 177.401 258.958 174.279 258.581C171.159 258.204 168.038 258.306 165.658 258.92C163.955 259.358 161.109 260.497 158.975 261.359C158.319 261.624 157.572 261.307 157.307 260.651C157.042 259.995 157.359 259.248 158.015 258.983C160.083 258.148 163.113 256.929 165.018 256.438C167.797 255.722 171.256 255.635 174.588 256.037Z" fill="#FFC43D"/>
<path fill-rule="evenodd" clip-rule="evenodd" d="M173.934 259.011C179.835 259.523 185.585 261.712 189.807 266.852C190.256 267.399 190.177 268.206 189.629 268.655C189.082 269.104 188.275 269.025 187.825 268.478C184.153 264.007 179.122 262.033 173.711 261.563C168.279 261.091 162.533 262.146 157.616 263.672C156.94 263.882 156.222 263.504 156.012 262.828C155.803 262.152 156.181 261.435 156.857 261.225C161.958 259.642 168.055 258.5 173.934 259.011Z" fill="#FFC43D"/>
<path fill-rule="evenodd" clip-rule="evenodd" d="M174.727 261.529C180.888 262.559 186.451 265.454 189.548 271.033C189.892 271.652 189.668 272.432 189.049 272.775C188.43 273.119 187.65 272.896 187.307 272.277C184.704 267.59 179.966 265.003 174.303 264.056C168.632 263.108 162.167 263.836 156.421 265.662C155.747 265.877 155.026 265.504 154.812 264.83C154.597 264.156 154.97 263.435 155.645 263.221C161.692 261.298 168.574 260.5 174.727 261.529Z" fill="#FFC43D"/>
<path fill-rule="evenodd" clip-rule="evenodd" d="M154.307 265.652C165.167 262.037 177.239 264.869 184.465 268.585C186.427 269.594 188.221 271.618 188.817 274.692C188.952 275.387 188.497 276.059 187.802 276.194C187.107 276.329 186.435 275.875 186.3 275.18C185.856 272.89 184.567 271.52 183.291 270.864C176.471 267.357 165.129 264.75 155.117 268.083C154.445 268.306 153.719 267.943 153.496 267.272C153.272 266.601 153.636 265.875 154.307 265.652Z" fill="#FFC43D"/>
<path fill-rule="evenodd" clip-rule="evenodd" d="M204.523 189.658C201.609 194.865 200.092 199.916 199.972 204.811L195.913 203.998C197.149 198.375 199.757 193.563 203.737 189.561L204.523 189.658Z" fill="white" fill-opacity="0.5"/>
<path fill-rule="evenodd" clip-rule="evenodd" d="M205.667 189.078C205.86 189.458 205.851 189.91 205.642 190.283C202.808 195.348 201.368 200.197 201.254 204.842C201.245 205.22 201.068 205.575 200.773 205.812C200.477 206.048 200.091 206.142 199.72 206.067L195.661 205.254C195.324 205.186 195.028 204.986 194.84 204.698C194.652 204.41 194.588 204.059 194.662 203.723C195.949 197.868 198.673 192.836 202.828 188.658C203.107 188.378 203.5 188.242 203.893 188.29L204.68 188.386C205.104 188.438 205.474 188.697 205.667 189.078ZM200.18 196.32C199.007 198.385 198.105 200.612 197.472 203.003L198.77 203.263C198.954 200.97 199.426 198.655 200.18 196.32Z" fill="#FFC43D"/>
<g style="mix-blend-mode:multiply" opacity="0.3">
<path fill-rule="evenodd" clip-rule="evenodd" d="M118.651 338.893C127.709 335.881 135.859 334.42 143.101 334.509C152.917 334.63 158.456 340.718 159.717 352.774C170.074 331.864 176.183 319.207 178.042 314.803C183.134 302.742 188.047 282.259 190.498 268.806C192.949 255.352 192.675 242.392 192.557 240.441C192.438 238.49 192.874 232.055 182.974 237.202C173.075 242.349 159.462 265.892 148.952 286.497C141.945 300.234 131.844 317.7 118.651 338.893Z" fill="#FFC43D"/>
</g>
<path fill-rule="evenodd" clip-rule="evenodd" d="M129.881 270.206C116.514 274.325 106.823 276.582 100.807 276.979C86.4516 277.925 77.6992 278.668 74.5501 279.208C74.1468 263.988 73.5918 251.431 72.8849 241.538C72.0273 229.534 69.4466 223.598 72.1993 214.362C72.5029 213.343 74.6367 207.847 74.7032 207.652C77.593 199.16 95.4257 194.25 103.66 203.942C108.444 209.573 110.4 213.383 114.085 222.724C116.787 229.576 118.265 238.58 120.569 244.926C122.722 250.861 125.827 259.287 129.881 270.206Z" fill="white" fill-opacity="0.5"/>
<path fill-rule="evenodd" clip-rule="evenodd" d="M78.5671 201.068C76.2083 202.674 74.3278 204.776 73.4897 207.239C73.4903 207.238 73.4876 207.245 73.481 207.262C73.4679 207.297 73.4396 207.371 73.3915 207.497C73.333 207.651 73.2546 207.855 73.1612 208.099L73.1297 208.181C72.9155 208.74 72.6325 209.478 72.3419 210.243C71.7731 211.74 71.1399 213.429 70.9709 213.996C69.5328 218.821 69.4938 222.792 69.9127 227.038C70.0736 228.669 70.3042 230.358 70.5475 232.141C70.6172 232.651 70.688 233.17 70.7584 233.696C71.0766 236.075 71.3948 238.667 71.6064 241.629C72.3114 251.496 72.8658 264.032 73.2688 279.243L73.308 280.722L74.7669 280.472C77.834 279.945 86.5057 279.206 100.892 278.257C107.071 277.85 116.888 275.55 130.259 271.431L131.554 271.031L131.083 269.76C127.028 258.843 123.926 250.419 121.773 244.49C120.74 241.642 119.872 238.234 118.961 234.651C118.88 234.335 118.799 234.017 118.718 233.699C117.725 229.807 116.662 225.767 115.277 222.254C111.568 212.852 109.55 208.896 104.637 203.113C100.127 197.805 93.0778 196.589 86.945 197.718C83.8624 198.286 80.9351 199.455 78.5671 201.068ZM87.4097 200.238C92.9742 199.213 98.9585 200.388 102.683 204.772C107.338 210.251 109.232 213.914 112.892 223.194C114.21 226.534 115.237 230.422 116.234 234.332C116.317 234.657 116.4 234.983 116.483 235.309C117.386 238.857 118.284 242.39 119.364 245.364C121.435 251.069 124.383 259.075 128.207 269.379C115.52 273.242 106.384 275.327 100.723 275.7C88.1727 276.528 79.8379 277.203 75.7923 277.731C75.3922 263.147 74.8495 251.051 74.1633 241.447C73.9461 238.408 73.6201 235.756 73.2992 233.357C73.2262 232.812 73.1539 232.282 73.0832 231.764C72.8413 229.991 72.6194 228.366 72.4636 226.787C72.0659 222.754 72.1129 219.139 73.4275 214.728C73.5621 214.277 74.1476 212.708 74.7382 211.153C75.0117 210.433 75.2864 209.717 75.5019 209.154C75.7318 208.554 75.8944 208.13 75.9165 208.065L74.89 207.715L75.9165 208.065C76.5233 206.282 77.9556 204.585 80.0104 203.186C82.0562 201.793 84.6435 200.748 87.4097 200.238Z" fill="#FFC43D"/>
<path opacity="0.3" fill-rule="evenodd" clip-rule="evenodd" d="M129.257 273.927C115.89 278.045 106.199 280.303 100.183 280.699C85.8276 281.646 77.0752 282.389 73.9261 282.929C73.5228 267.708 72.9678 255.151 72.2609 245.259C71.4033 233.255 68.8226 227.318 71.5753 218.083C71.8789 217.064 74.0127 211.568 74.0792 211.372C76.9689 202.881 94.8017 197.971 103.036 207.663C107.82 213.294 109.776 217.103 113.461 226.445C116.163 233.297 117.641 242.301 119.944 248.647C122.098 254.581 125.203 263.008 129.257 273.927Z" fill="#FFC43D"/>
<path fill-rule="evenodd" clip-rule="evenodd" d="M149.891 348.08C129.966 343.958 114.39 343.37 103.165 346.316C88.4932 350.167 82.8831 356.539 80.7362 360.291C79.7025 337.635 78.6757 320.027 77.6558 307.466C76.8159 297.122 76.3018 274.572 80.2535 259.099C81.6541 253.615 84.2298 244.57 87.5272 240.359C91.8721 234.811 98.2315 234.006 101.482 235.371C110.195 239.029 124.553 271.162 135.2 297.265C142.298 314.667 147.195 331.606 149.891 348.08Z" fill="white"/>
<path fill-rule="evenodd" clip-rule="evenodd" d="M101.978 234.189C98.1493 232.582 91.1876 233.606 86.518 239.569C84.7332 241.848 83.2092 245.33 81.971 248.823C80.7208 252.35 79.7156 256.025 79.0117 258.781C75.0052 274.468 75.5359 297.194 76.3783 307.569C77.3964 320.108 78.4224 337.698 79.4559 360.348L79.6571 364.757L81.8488 360.926C83.8016 357.514 89.1032 351.331 103.491 347.555C114.431 344.683 129.775 345.226 149.632 349.334L151.457 349.712L151.156 347.873C148.443 331.292 143.517 314.261 136.387 296.781C131.06 283.721 124.792 269.121 118.757 257.318C115.741 251.419 112.767 246.185 109.981 242.182C108.589 240.181 107.227 238.463 105.914 237.115C104.613 235.781 103.295 234.742 101.978 234.189ZM88.5364 241.149C92.5567 236.015 98.3138 235.43 100.986 236.552C101.848 236.913 102.884 237.679 104.078 238.904C105.259 240.116 106.532 241.712 107.877 243.645C110.567 247.512 113.481 252.629 116.475 258.484C122.459 270.187 128.693 284.705 134.013 297.748C140.816 314.426 145.581 330.661 148.318 346.453C129.188 342.653 113.996 342.148 102.839 345.076C91.2912 348.107 85.1311 352.71 81.8458 356.533C80.8694 335.645 79.8987 319.252 78.9333 307.362C78.0958 297.048 77.5985 274.674 81.4954 259.415C82.1921 256.687 83.175 253.098 84.3872 249.679C85.6114 246.226 87.0239 243.08 88.5364 241.149Z" fill="#FFC43D"/>
<path fill-rule="evenodd" clip-rule="evenodd" d="M87.2289 263.466C83.3775 264.823 79.9631 266.602 77.639 268.783C77.1229 269.267 77.0972 270.078 77.5817 270.594C78.0662 271.11 78.8773 271.135 79.3934 270.651C81.3524 268.813 84.3944 267.182 88.081 265.883C91.7483 264.591 95.9634 263.659 100.186 263.168C104.411 262.677 108.605 262.63 112.231 263.086C115.889 263.546 118.826 264.5 120.665 265.89C121.229 266.317 122.033 266.206 122.46 265.642C122.887 265.077 122.776 264.274 122.211 263.847C119.849 262.06 116.39 261.026 112.551 260.544C108.68 260.057 104.274 260.113 99.89 260.623C95.5038 261.133 91.0994 262.102 87.2289 263.466Z" fill="#FFC43D"/>
<path fill-rule="evenodd" clip-rule="evenodd" d="M100.032 264.014C91.2046 265.302 82.1213 268.435 77.1351 272.807C76.6029 273.274 76.5499 274.083 77.0167 274.615C77.4835 275.147 78.2933 275.2 78.8254 274.734C83.2636 270.842 91.765 267.81 100.402 266.55C104.69 265.925 108.936 265.748 112.632 266.1C116.356 266.454 119.388 267.331 121.363 268.703C121.944 269.107 122.743 268.963 123.147 268.382C123.55 267.801 123.407 267.002 122.825 266.598C120.328 264.864 116.788 263.921 112.874 263.549C108.933 263.174 104.476 263.366 100.032 264.014Z" fill="#FFC43D"/>
<path fill-rule="evenodd" clip-rule="evenodd" d="M100.781 267.196C91.4329 268.621 81.8059 271.899 76.4904 276.342C75.9474 276.796 75.8752 277.604 76.3292 278.147C76.7833 278.69 77.5916 278.762 78.1346 278.308C82.9188 274.31 91.9951 271.128 101.168 269.729C105.725 269.034 110.233 268.791 114.151 269.089C118.1 269.388 121.312 270.227 123.39 271.58C123.983 271.966 124.777 271.798 125.163 271.205C125.549 270.612 125.382 269.819 124.789 269.433C122.182 267.735 118.466 266.846 114.344 266.533C110.192 266.218 105.485 266.479 100.781 267.196Z" fill="#FFC43D"/>
<path fill-rule="evenodd" clip-rule="evenodd" d="M101.5 269.693C91.8105 271.165 81.8407 274.565 76.3431 279.178C75.8009 279.632 75.7303 280.441 76.1853 280.983C76.6403 281.525 77.4488 281.596 77.991 281.141C82.9559 276.975 92.3725 273.672 101.885 272.226C106.612 271.508 111.289 271.26 115.356 271.575C119.455 271.892 122.795 272.77 124.962 274.188C125.554 274.576 126.349 274.41 126.736 273.818C127.124 273.226 126.958 272.432 126.366 272.044C123.671 270.28 119.826 269.351 115.554 269.02C111.251 268.687 106.374 268.952 101.5 269.693Z" fill="#FFC43D"/>
<path fill-rule="evenodd" clip-rule="evenodd" d="M71.6959 216.665C72.1885 214.848 72.5634 213.566 72.8205 212.82C73.5315 210.756 74.2447 209.273 74.4428 208.837C74.7483 208.164 75.4964 206.723 76.6871 204.513C74.9533 204.277 73.3518 204.035 71.8826 203.786C67.7268 203.083 63.5327 203.096 59.3001 203.825C49.5845 205.498 52.6325 210.876 57.497 213.799C61.4796 216.192 69.5625 216.766 70.8675 216.883C74.396 217.198 95.8219 215.807 105.137 205.877C105.76 206.862 106.645 207.752 107.199 208.836C110.202 214.711 110.941 222.056 102.155 227.25C93.3694 232.444 84.2559 230.536 80.5254 227.054C78.1824 224.867 75.7755 220.894 75.6136 216.342" fill="white"/>
<path fill-rule="evenodd" clip-rule="evenodd" d="M55.0251 206.687C55.7903 206.089 57.1826 205.489 59.5178 205.087C63.6104 204.382 67.6587 204.371 71.6689 205.049C72.6228 205.21 73.6306 205.369 74.692 205.524C73.9906 206.847 73.5147 207.78 73.2757 208.307C73.2557 208.351 73.2297 208.407 73.1984 208.475C72.9291 209.058 72.2665 210.492 71.6087 212.402C71.3753 213.08 71.0596 214.145 70.6641 215.579C69.746 215.501 67.7004 215.323 65.4017 214.931C62.7353 214.476 59.927 213.764 58.1573 212.701C57.0308 212.024 56.0399 211.222 55.3279 210.402C54.6003 209.565 54.2554 208.817 54.2086 208.239C54.1695 207.757 54.3202 207.238 55.0251 206.687ZM73.3152 215.614C73.6195 214.531 73.8581 213.743 74.0324 213.236C74.6459 211.455 75.2583 210.128 75.5279 209.544C75.5605 209.474 75.588 209.414 75.61 209.366C75.8939 208.74 76.6195 207.34 77.8155 205.12C78.0149 204.75 78.0201 204.306 77.8294 203.931C77.6387 203.557 77.2764 203.299 76.8599 203.243C75.1375 203.008 73.5499 202.768 72.0964 202.522C67.7951 201.795 63.455 201.809 59.0825 202.561C56.5599 202.996 54.6899 203.696 53.4461 204.668C52.1419 205.687 51.5371 207.009 51.6536 208.446C51.7624 209.788 52.4843 211.037 53.3928 212.083C54.3168 213.146 55.5311 214.112 56.8369 214.897C59.0497 216.227 62.2741 216.997 64.971 217.457C67.436 217.877 69.6261 218.063 70.5074 218.137C70.6065 218.146 70.6891 218.153 70.7536 218.158C71.4643 218.222 72.7733 218.223 74.494 218.121C75.1257 222.329 77.4104 225.898 79.6508 227.99C83.858 231.917 93.6082 233.791 102.808 228.352C107.465 225.599 109.751 222.167 110.362 218.509C110.963 214.914 109.909 211.32 108.341 208.252C108.007 207.6 107.586 207.028 107.212 206.54C107.138 206.444 107.067 206.352 106.998 206.263C106.697 205.873 106.442 205.541 106.22 205.192C106.009 204.857 105.653 204.638 105.258 204.601C104.864 204.563 104.474 204.711 104.202 205C99.8185 209.673 92.454 212.435 85.5537 213.971C82.2001 214.717 79.0319 215.158 76.4808 215.398C76.2414 215.178 75.9187 215.048 75.5681 215.061C75.1771 215.074 74.8333 215.262 74.6081 215.546C74.1431 215.576 73.7107 215.598 73.3152 215.614ZM77.0569 217.917C79.6724 217.659 82.8189 217.205 86.111 216.472C92.6357 215.02 100.008 212.415 104.976 207.838C104.983 207.846 104.989 207.854 104.995 207.863C105.058 207.943 105.118 208.022 105.177 208.098C105.539 208.571 105.838 208.987 106.058 209.418C107.493 212.225 108.31 215.242 107.834 218.087C107.369 220.869 105.632 223.706 101.503 226.147C93.1307 231.096 84.6538 229.154 81.4001 226.117C79.5402 224.38 77.6272 221.39 77.0569 217.917Z" fill="#FFC43D"/>
<g style="mix-blend-mode:multiply" opacity="0.2">
<path fill-rule="evenodd" clip-rule="evenodd" d="M104.223 208.49C104.846 209.475 105.731 210.365 106.285 211.449C109.288 217.324 110.027 224.669 101.241 229.863C92.4552 235.057 83.3417 233.149 79.6112 229.667C77.2681 227.48 73.9769 219.929 74.6994 218.955C75.6299 217.7 94.9077 218.42 104.223 208.49Z" fill="#FFC43D"/>
</g>
<path fill-rule="evenodd" clip-rule="evenodd" d="M88.3968 224.815C89.5137 225.602 90.4472 226.072 91.1975 226.224C95.0905 227.01 98.4597 225.24 100.387 222.828C99.0485 222.033 98.105 221.513 97.5567 221.267C95.6318 220.405 94.4926 220.484 93.6783 222.051C92.8793 221.528 92.0583 221.293 91.2154 221.344C90.2695 221.403 89.33 222.559 88.3968 224.815Z" fill="white"/>
<path fill-rule="evenodd" clip-rule="evenodd" d="M91.2992 222.623C91.8293 222.591 92.3785 222.732 92.976 223.123C93.2791 223.321 93.6519 223.382 94.0022 223.29C94.3526 223.198 94.6478 222.963 94.8148 222.641C95.1081 222.077 95.3154 222.028 95.4176 222.011C95.6473 221.971 96.113 222.024 97.0318 222.436L97.0318 222.436C97.3152 222.563 97.7469 222.788 98.3366 223.12C96.6177 224.615 94.1784 225.519 91.4505 224.967L91.1967 226.223L91.4505 224.967C91.1085 224.898 90.6343 224.707 90.0148 224.341C90.2949 223.776 90.5573 223.357 90.7955 223.063C91.1098 222.676 91.282 222.627 91.2992 222.623ZM88.8054 221.448C88.2237 222.164 87.6995 223.146 87.2116 224.325C86.9826 224.879 87.1678 225.517 87.6575 225.862C88.8232 226.684 89.9312 227.275 90.9428 227.479C95.3856 228.377 99.2143 226.348 101.388 223.627C101.619 223.338 101.714 222.962 101.647 222.598C101.581 222.233 101.359 221.915 101.041 221.726C99.7057 220.933 98.7039 220.377 98.08 220.098C97.0739 219.647 96.0074 219.309 94.9828 219.485C94.2828 219.606 93.7241 219.938 93.2765 220.406C92.5943 220.14 91.8781 220.02 91.1358 220.065C90.1438 220.126 89.374 220.748 88.8054 221.448Z" fill="#FFC43D"/>
<g style="mix-blend-mode:multiply" opacity="0.3">
<path fill-rule="evenodd" clip-rule="evenodd" d="M146.802 350.418C127.143 346.351 111.776 345.771 100.701 348.678C86.2261 352.477 80.6911 358.764 78.5731 362.465C77.5532 340.113 76.5401 322.741 75.5338 310.348C74.7052 300.142 74.198 277.894 78.0968 262.629C79.4786 257.218 82.0198 248.295 85.2731 244.14C89.5598 238.666 95.8341 237.872 99.0409 239.219C107.637 242.828 121.803 274.531 132.307 300.284C139.31 317.453 144.142 334.164 146.802 350.418Z" fill="#FFC43D"/>
</g>
<path fill-rule="evenodd" clip-rule="evenodd" d="M-55.5586 145.25C-42.0605 141.871 -32.6633 142.199 -27.367 146.233C-13.7876 156.575 -17.8731 165.695 -19.2018 172.941C-10.8276 161.011 -4.16025 151.799 0.80038 145.306C8.24133 135.566 13.1563 127.746 18.7448 117.762C24.3333 107.779 27.7805 98.8351 29.6416 89.3019C31.5028 79.7687 23.2432 75.0424 17.1516 75.9042C11.06 76.766 -0.528543 84.898 -13.4303 95.9409C-22.0315 103.303 -36.0743 119.739 -55.5586 145.25Z" fill="white"/>
<path fill-rule="evenodd" clip-rule="evenodd" d="M27.2238 77.7408C30.1605 80.306 31.9189 84.3309 30.9007 89.5465C29.0089 99.2365 25.5064 108.308 19.8645 118.387C14.253 128.411 9.30542 136.284 1.82024 146.082C-3.12488 152.555 -9.78077 161.751 -18.1514 173.676L-20.4629 172.711C-20.2932 171.785 -20.0908 170.866 -19.888 169.945C-19.2474 167.035 -18.6021 164.104 -18.9677 160.893C-19.4303 156.83 -21.5717 152.257 -28.1446 147.251C-30.5107 145.449 -33.8932 144.399 -38.4319 144.241C-42.9679 144.083 -48.5641 144.819 -55.2468 146.492L-58.7985 147.381L-56.5778 144.474C-37.1041 118.977 -22.9842 102.432 -14.2644 94.9686C-7.79252 89.4292 -1.62736 84.6001 3.70205 81.0402C8.97055 77.521 13.6075 75.1122 16.9725 74.6362C20.3827 74.1537 24.3456 75.2268 27.2238 77.7408ZM25.5348 79.6688C23.2256 77.6518 20.0128 76.7926 17.3315 77.172C14.6049 77.5577 10.4017 79.6459 5.12759 83.1688C-0.0856215 86.6511 -6.16563 91.4094 -12.5956 96.9129C-20.7601 103.901 -34.0042 119.29 -52.3693 143.194C-47.0302 142.054 -42.3493 141.542 -38.3416 141.682C-33.4831 141.851 -29.5189 142.982 -26.5887 145.214C-19.5822 150.551 -16.9766 155.709 -16.4193 160.603C-16.1589 162.89 -16.3602 165.11 -16.7081 167.176C-9.96932 157.647 -4.47207 150.097 -0.218762 144.529C7.17795 134.847 12.0603 127.08 17.6258 117.138C23.1608 107.25 26.5527 98.4335 28.3833 89.0572C29.2262 84.7395 27.7855 81.6347 25.5348 79.6688Z" fill="#FFC43D"/>
<path fill-rule="evenodd" clip-rule="evenodd" d="M22.5762 93.836C25.0483 95.8227 27.0371 98.1824 27.9144 100.842C28.1359 101.514 27.7702 102.238 27.0974 102.459C26.4247 102.681 25.6998 102.316 25.4783 101.644C24.8136 99.6289 23.2294 97.6491 20.9678 95.8315C18.7186 94.024 15.8856 92.4469 12.8787 91.2148C9.87429 89.9836 6.73785 89.1139 3.90311 88.6979C1.04023 88.2778 -1.39604 88.3382 -3.06229 88.8576C-3.73843 89.0683 -4.45747 88.6919 -4.66831 88.0168C-4.87916 87.3417 -4.50197 86.6235 -3.82583 86.4128C-1.63045 85.7284 1.24616 85.7192 4.27681 86.1639C7.33561 86.6128 10.6733 87.5423 13.8531 88.8453C17.0305 90.1474 20.0917 91.8393 22.5762 93.836Z" fill="#FFC43D"/>
<path fill-rule="evenodd" clip-rule="evenodd" d="M19.7901 98.9619C22.6056 100.567 24.9813 102.288 26.0787 103.903C26.4764 104.488 26.3237 105.284 25.7376 105.681C25.1516 106.079 24.3541 105.927 23.9564 105.341C23.2224 104.262 21.3243 102.786 18.518 101.186C15.7758 99.6231 12.3537 98.0442 8.79265 96.7007C5.23046 95.3568 1.56504 94.262 -1.6621 93.6514C-4.94548 93.0302 -7.57722 92.9505 -9.18877 93.4528C-9.86491 93.6636 -10.5839 93.2871 -10.7948 92.612C-11.0056 91.9369 -10.6284 91.2188 -9.95231 91.008C-7.70223 90.3066 -4.53748 90.5005 -1.18383 91.135C2.22606 91.7802 6.0382 92.9234 9.69979 94.3048C13.3625 95.6866 16.9104 97.3203 19.7901 98.9619Z" fill="#FFC43D"/>
<path fill-rule="evenodd" clip-rule="evenodd" d="M22.435 103.794C23.5076 104.646 24.4113 105.551 24.9576 106.487C25.3141 107.098 25.107 107.882 24.4951 108.238C23.8831 108.594 23.098 108.388 22.7414 107.777C22.4276 107.239 21.8062 106.568 20.8384 105.799C19.8865 105.043 18.6692 104.248 17.2463 103.444C14.4014 101.838 10.8168 100.244 7.08078 98.8994C3.34496 97.5551 -0.504289 96.474 -3.87344 95.8774C-7.30269 95.2702 -10.0317 95.2039 -11.6479 95.7077C-12.324 95.9185 -13.0431 95.5421 -13.2539 94.867C-13.4647 94.1919 -13.0876 93.4737 -12.4114 93.2629C-10.166 92.563 -6.90936 92.7386 -3.42483 93.3556C0.119803 93.9833 4.1125 95.1087 7.95097 96.4899C11.7892 97.871 15.5112 99.5216 18.5095 101.215C20.0082 102.061 21.3466 102.93 22.435 103.794Z" fill="#FFC43D"/>
<path fill-rule="evenodd" clip-rule="evenodd" d="M21.2736 106.514C22.4001 107.365 23.3522 108.276 23.9086 109.23C24.2651 109.841 24.058 110.625 23.4461 110.981C22.8341 111.337 22.049 111.131 21.6924 110.52C21.3886 109.999 20.7518 109.332 19.7261 108.557C18.7205 107.798 17.4248 106.997 15.9052 106.187C12.8676 104.568 9.02546 102.96 5.03038 101.601C1.03595 100.242 -3.07335 99.1465 -6.63988 98.5391C-10.274 97.9203 -13.1274 97.8493 -14.7422 98.3527C-15.4184 98.5634 -16.1374 98.187 -16.3483 97.5119C-16.5591 96.8368 -16.1819 96.1186 -15.5058 95.9079C-13.259 95.2075 -9.87111 95.3907 -6.20794 96.0144C-2.47719 96.6497 1.76681 97.785 5.85801 99.1764C9.94856 100.568 13.9244 102.228 17.1134 103.928C18.7072 104.777 20.127 105.648 21.2736 106.514Z" fill="#FFC43D"/>
<path fill-rule="evenodd" clip-rule="evenodd" d="M20.0248 108.782C21.1634 109.633 22.1263 110.547 22.6847 111.504C23.0413 112.115 22.8342 112.899 22.2222 113.255C21.6103 113.611 20.8252 113.405 20.4686 112.794C20.1669 112.277 19.5262 111.609 18.487 110.832C17.4689 110.071 16.155 109.268 14.6132 108.455C11.5313 106.829 7.63006 105.213 3.57571 103.846C-0.477939 102.48 -4.64667 101.376 -8.25822 100.763C-11.9392 100.138 -14.8204 100.064 -16.4344 100.567C-17.1105 100.778 -17.8295 100.401 -18.0404 99.726C-18.2512 99.0509 -17.874 98.3327 -17.1979 98.122C-14.9502 97.4213 -11.5316 97.6089 -7.8275 98.2378C-4.05396 98.8785 0.247683 100.021 4.39674 101.419C8.5451 102.818 12.5789 104.485 15.8115 106.19C17.4269 107.042 18.8651 107.915 20.0248 108.782Z" fill="#FFC43D"/>
<path fill-rule="evenodd" clip-rule="evenodd" d="M18.9447 111.241C20.1267 112.125 21.1216 113.07 21.6972 114.056C22.0537 114.667 21.8466 115.451 21.2347 115.807C20.6227 116.164 19.8376 115.957 19.481 115.346C19.1622 114.8 18.4895 114.101 17.4068 113.291C16.3453 112.497 14.9765 111.66 13.3717 110.814C10.1639 109.123 6.10437 107.44 1.88641 106.019C-2.33085 104.597 -6.66854 103.448 -10.4274 102.81C-14.2557 102.16 -17.2626 102.081 -18.9535 102.608C-19.6297 102.819 -20.3487 102.442 -20.5595 101.767C-20.7704 101.092 -20.3932 100.374 -19.7171 100.163C-17.3923 99.4386 -13.8481 99.6314 -9.99668 100.285C-6.07582 100.951 -1.60523 102.138 2.70744 103.592C7.01941 105.045 11.2115 106.778 14.57 108.549C16.2484 109.434 17.7415 110.341 18.9447 111.241Z" fill="#FFC43D"/>
<path fill-rule="evenodd" clip-rule="evenodd" d="M17.42 113.891C18.6293 114.795 19.6443 115.76 20.2307 116.765C20.5872 117.376 20.3801 118.16 19.7682 118.516C19.1562 118.872 18.3711 118.666 18.0146 118.055C17.6849 117.49 16.9921 116.771 15.8822 115.941C14.7933 115.126 13.3901 114.269 11.7458 113.402C8.45879 111.668 4.29987 109.945 -0.0208604 108.489C-4.34089 107.032 -8.7847 105.856 -12.6361 105.202C-16.5569 104.536 -19.6427 104.454 -21.3821 104.996C-22.0582 105.206 -22.7772 104.83 -22.9881 104.155C-23.1989 103.48 -22.8217 102.762 -22.1456 102.551C-19.7725 101.811 -16.1493 102.007 -12.2054 102.677C-8.19199 103.358 -3.61527 104.574 0.800168 106.062C5.21491 107.55 9.50643 109.324 12.944 111.137C14.662 112.043 16.1896 112.97 17.42 113.891Z" fill="#FFC43D"/>
<path fill-rule="evenodd" clip-rule="evenodd" d="M21.2816 96.5666C23.833 98.2805 25.9621 100.213 26.828 102.195C27.1112 102.844 26.8144 103.598 26.1652 103.881C25.516 104.164 24.7602 103.868 24.4771 103.22C23.9217 101.949 22.3316 100.359 19.8496 98.6918C17.4234 97.0621 14.3329 95.4812 11.0562 94.1616C7.78075 92.8426 4.35943 91.8008 1.28124 91.2301C-1.83558 90.6523 -4.45017 90.5868 -6.19409 91.0814C-6.87545 91.2747 -7.58451 90.8798 -7.77782 90.1995C-7.97113 89.5191 -7.57549 88.811 -6.89413 88.6177C-4.57427 87.9597 -1.4877 88.1117 1.75018 88.712C5.0267 89.3194 8.6136 90.4161 12.0161 91.7863C15.4173 93.156 18.6744 94.8153 21.2816 96.5666Z" fill="#FFC43D"/>
<path fill-rule="evenodd" clip-rule="evenodd" d="M40.1825 7.85321C35.3396 9.89038 33.3541 13.0253 34.2262 17.258C35.5344 23.6071 41.6811 22.1129 41.8864 27.9122L44.4568 28.5619C46.9715 25.3989 47.5938 22.8012 46.3236 20.7688C44.4184 17.7202 41.8047 18.8491 39.4082 17.0239C36.5266 14.8292 36.7848 11.7723 40.1825 7.85321Z" fill="white" fill-opacity="0.5"/>
<path fill-rule="evenodd" clip-rule="evenodd" d="M41.2207 7.10078C41.5708 7.5823 41.5424 8.24125 41.1523 8.69124C39.5206 10.5733 38.8141 12.0638 38.7188 13.1924C38.6337 14.2009 39.0209 15.1179 40.1864 16.0056C40.9385 16.5784 41.6596 16.7602 42.6161 17.0013C42.8578 17.0623 43.1146 17.127 43.3907 17.2028C44.7538 17.577 46.2257 18.1924 47.4119 20.0906C49.1408 22.8569 48.0537 26.0974 45.4614 29.3579C45.1476 29.7526 44.6312 29.927 44.1421 29.8033L41.5717 29.1537C41.019 29.014 40.6252 28.5268 40.6051 27.9579C40.5629 26.7653 40.2284 26.0422 39.7888 25.4978C39.3071 24.9013 38.6491 24.4476 37.7603 23.858C37.7367 23.8423 37.713 23.8266 37.6892 23.8108C35.946 22.6549 33.7259 21.1827 32.9705 17.5165C32.4794 15.1332 32.7784 12.9418 33.9778 11.0481C35.1577 9.18495 37.1189 7.75269 39.6853 6.67311C40.2346 6.44207 40.8707 6.61926 41.2207 7.10078ZM36.1453 12.4165C35.3592 13.6578 35.1016 15.1502 35.4827 16.9996C36.0249 19.6313 37.4807 20.5971 39.1781 21.7232L39.2119 21.7457C40.0424 22.2966 41.0259 22.949 41.7856 23.8897C42.4345 24.6933 42.8912 25.6632 43.079 26.8925L43.9502 27.1127C45.9078 24.4188 45.9883 22.6508 45.2359 21.447C44.5169 20.2966 43.7293 19.9522 42.7101 19.6724C42.5411 19.626 42.3555 19.5805 42.1568 19.5319C41.1634 19.2887 39.8424 18.9652 38.6306 18.0422C36.9146 16.7352 35.9901 15.0264 36.1631 12.978C36.1843 12.7269 36.2217 12.4747 36.2748 12.2213C36.2299 12.2861 36.1867 12.3511 36.1453 12.4165Z" fill="#FFC43D"/>
<g style="mix-blend-mode:multiply" opacity="0.3">
<path fill-rule="evenodd" clip-rule="evenodd" d="M38.7997 8.61005C33.9567 10.6472 31.9713 13.7822 32.8434 18.0149C34.1516 24.3639 40.2983 22.8697 40.5036 28.6691L43.074 29.3187C45.5887 26.1557 46.211 23.558 44.9408 21.5256C43.0356 18.477 40.4219 19.606 38.0254 17.7807C35.1438 15.586 35.402 12.5291 38.7997 8.61005Z" fill="#FFC43D"/>
</g>
<path fill-rule="evenodd" clip-rule="evenodd" d="M42.9469 27.6101C41.0636 27.3898 39.392 27.9802 39.1954 30.5957C38.9988 33.2112 42.1214 34.0959 43.0859 33.7508C44.0503 33.4056 45.1997 32.6845 45.3376 31.1738C45.4754 29.6631 44.8302 27.8303 42.9469 27.6101Z" fill="white" fill-opacity="0.5"/>
<path fill-rule="evenodd" clip-rule="evenodd" d="M46.0183 28.2798C46.5505 29.2259 46.702 30.3329 46.6147 31.2889C46.4084 33.5485 44.6538 34.5491 43.5182 34.9555C42.974 35.1503 42.3412 35.1238 41.8193 35.0314C41.2572 34.9319 40.6401 34.7237 40.0642 34.392C38.899 33.7208 37.7708 32.4389 37.9166 30.4995C38.0355 28.9184 38.6328 27.6952 39.7323 26.9702C40.7717 26.2848 42.0167 26.2112 43.0965 26.3374L42.9469 27.6093L43.0965 26.3374C44.4904 26.5004 45.461 27.2891 46.0183 28.2798ZM43.7821 29.5348C43.5805 29.1763 43.2868 28.9385 42.7974 28.8812C41.9938 28.7873 41.4614 28.8987 41.1451 29.1073C40.8888 29.2763 40.552 29.6561 40.4742 30.6904C40.4234 31.3665 40.7583 31.8347 41.3463 32.1734C41.6471 32.3467 41.9792 32.4585 42.2677 32.5095C42.5402 32.5578 42.6687 32.5349 42.6694 32.5382C42.6695 32.5387 42.6674 32.5396 42.6631 32.5411C43.4512 32.2571 43.9912 31.8159 44.0605 31.0573C44.1111 30.5026 44.0088 29.9378 43.7821 29.5348Z" fill="#FFC43D"/>
<path fill-rule="evenodd" clip-rule="evenodd" d="M44.1726 33.8141C35.373 33.1093 30.7056 35.4942 27.879 40.5935C25.0524 45.6928 24.5304 48.5445 27.0132 55.3711C29.4961 62.1977 48.6313 67.5553 53.2232 65.7197C57.8151 63.884 61.1761 60.7621 59.9658 52.9974C58.7555 45.2328 52.9722 34.5188 44.1726 33.8141Z" fill="white" fill-opacity="0.5"/>
<path fill-rule="evenodd" clip-rule="evenodd" d="M55.9561 40.009C58.7778 43.9188 60.599 48.7298 61.2333 52.7997C61.87 56.8844 61.3324 59.9481 59.8524 62.2691C58.3837 64.5723 56.1122 65.9438 53.7 66.9081C52.9147 67.222 51.933 67.3451 50.9015 67.362C49.8484 67.3793 48.6446 67.2864 47.3599 67.1046C44.7899 66.7408 41.8093 66.0084 38.9072 65.0032C36.0087 63.9992 33.1395 62.7063 30.8129 61.2004C28.5293 59.7223 26.5747 57.9154 25.8083 55.8082C24.5438 52.3314 23.9823 49.7079 24.1771 47.2342C24.3725 44.7518 25.3188 42.5687 26.7575 39.9732C28.2849 37.2177 30.3551 35.1292 33.2724 33.8538C36.1565 32.5928 39.7575 32.1752 44.276 32.5371C49.196 32.9312 53.1417 36.1092 55.9561 40.009ZM53.8751 41.5068C51.2954 37.9322 47.9497 35.4008 44.0701 35.0901C39.789 34.7472 36.6565 35.1697 34.3004 36.1998C31.9774 37.2155 30.3006 38.8691 29.0014 41.2129C27.6135 43.7168 26.8855 45.5092 26.734 47.4341C26.5818 49.3677 27.0007 51.5833 28.2191 54.9332C28.6941 56.2392 30.0624 57.662 32.2085 59.0511C34.3116 60.4124 36.9787 61.6241 39.7484 62.5834C42.5144 63.5415 45.3338 64.2309 47.7207 64.5688C48.9145 64.7377 49.9784 64.8156 50.8603 64.8012C51.7639 64.7864 52.3847 64.6754 52.7474 64.5304C54.9271 63.6591 56.632 62.5517 57.6891 60.8939C58.735 59.2538 59.2727 56.8743 58.6991 53.1944C58.1231 49.4996 56.4476 45.0713 53.8751 41.5068Z" fill="#FFC43D"/>
<g style="mix-blend-mode:multiply" opacity="0.3">
<path fill-rule="evenodd" clip-rule="evenodd" d="M44.8611 35.5455C36.0615 34.8407 31.3941 37.2256 28.5675 42.3249C25.7409 47.4243 25.2189 50.2759 27.7017 57.1025C30.1846 63.9291 49.3198 69.2868 53.9117 67.4511C58.5036 65.6155 61.8646 62.4935 60.6542 54.7289C59.4439 46.9642 53.6607 36.2503 44.8611 35.5455Z" fill="#FFC43D"/>
</g>
<path fill-rule="evenodd" clip-rule="evenodd" d="M43.3351 46.5728C34.5355 45.868 30.3131 48.4508 26.5761 53.3425C22.8391 58.2342 22.6822 62.2063 25.1651 69.0329C27.6479 75.8595 39.3581 78.0681 43.95 76.2325C48.5419 74.3968 54.5701 69.7675 55.5003 62.4954C56.4305 55.2232 52.1347 47.2776 43.3351 46.5728Z" fill="white"/>
<path fill-rule="evenodd" clip-rule="evenodd" d="M43.4396 45.2973C53.1554 46.0755 57.7713 54.8614 56.774 62.6582C55.761 70.5778 49.2433 75.4973 44.4279 77.4223C43.0545 77.9713 41.2662 78.1815 39.3879 78.1229C37.4895 78.0637 35.4038 77.7271 33.3893 77.1056C29.4321 75.8847 25.4069 73.4462 23.9613 69.4714C22.697 65.9954 22.0438 63.0909 22.2614 60.3619C22.4822 57.5931 23.5861 55.1485 25.5582 52.567C27.5032 50.0211 29.6502 47.9772 32.5363 46.6907C35.4156 45.4072 38.9031 44.934 43.4396 45.2973ZM54.2298 62.3345C55.0929 55.5871 51.1172 48.4817 43.2338 47.8503C38.9707 47.5088 35.9472 47.9746 33.5812 49.0293C31.222 50.081 29.3893 51.7743 27.5972 54.12C25.8323 56.4303 24.9893 58.4175 24.8181 60.5644C24.6437 62.751 25.1535 65.2459 26.3721 68.5964C27.4093 71.4483 30.4806 73.5273 34.1471 74.6585C35.9445 75.213 37.8026 75.511 39.4688 75.563C41.1553 75.6156 42.5528 75.4134 43.4753 75.0447C47.8437 73.2984 53.3825 68.9592 54.2298 62.3345Z" fill="#FFC43D"/>
<g style="mix-blend-mode:multiply" opacity="0.2">
<path fill-rule="evenodd" clip-rule="evenodd" d="M42.3878 48.8687C33.5882 48.1639 29.3659 50.7467 25.6288 55.6384C21.8918 60.5301 21.735 64.5022 24.2178 71.3288C26.7006 78.1554 38.4108 80.364 43.0027 78.5284C47.5946 76.6927 53.6229 72.0634 54.553 64.7912C55.4832 57.5191 51.1874 49.5735 42.3878 48.8687Z" fill="#FFC43D"/>
</g>
<g style="mix-blend-mode:multiply" opacity="0.3">
<path fill-rule="evenodd" clip-rule="evenodd" d="M-52.9363 147.269C-39.6189 143.936 -30.3476 144.259 -25.1222 148.239C-11.7246 158.443 -15.7555 167.44 -17.0664 174.589C-8.80437 162.819 -2.22624 153.731 2.66796 147.325C10.0093 137.715 14.8584 129.999 20.372 120.15C25.8856 110.3 29.2867 101.476 31.1229 92.0705C32.9592 82.665 24.8102 78.002 18.8002 78.8522C12.7902 79.7025 1.35681 87.7256 -11.3722 98.6206C-19.8582 105.884 -33.7129 122.1 -52.9363 147.269Z" fill="#FFC43D"/>
</g>
<g filter="url(#filter0_d)">
<path d="M121.104 96.3731C121.104 91.0975 122.268 86.735 124.597 83.2855C127.026 79.8361 130.519 76.0315 135.075 71.8719C138.416 68.8283 140.845 66.2919 142.364 64.2628C143.984 62.1323 144.793 59.7481 144.793 57.1103C144.793 53.3565 143.275 50.4143 140.238 48.2838C137.302 46.0518 133.354 44.9358 128.393 44.9358C123.635 44.9358 119.383 45.9503 115.637 47.9794C111.993 49.907 108.905 52.6463 106.374 56.1972L88 45.3923C92.2519 38.8992 97.9717 33.8773 105.16 30.3263C112.449 26.7754 121.054 25 130.975 25C142.617 25 151.931 27.4856 158.916 32.4569C166.002 37.4282 169.546 44.327 169.546 53.1536C169.546 57.3132 168.837 60.9656 167.42 64.1106C166.104 67.2557 164.433 69.9443 162.408 72.1763C160.485 74.3068 157.954 76.7924 154.816 79.6332C151.07 82.9811 148.337 85.8219 146.616 88.1553C144.895 90.3873 144.034 93.1266 144.034 96.3731H121.104ZM132.645 134.571C128.494 134.571 125.002 133.252 122.167 130.614C119.434 127.875 118.067 124.577 118.067 120.722C118.067 116.867 119.434 113.671 122.167 111.135C124.901 108.497 128.393 107.178 132.645 107.178C136.897 107.178 140.39 108.497 143.123 111.135C145.856 113.671 147.223 116.867 147.223 120.722C147.223 124.577 145.806 127.875 142.971 130.614C140.238 133.252 136.796 134.571 132.645 134.571Z" fill="#FFC43D"/>
</g>
<g filter="url(#filter1_d)">
<path d="M170.939 142.185C171.67 139.705 172.824 137.817 174.403 136.52C176.029 135.239 178.207 133.938 180.937 132.62C182.938 131.656 184.438 130.803 185.437 130.062C186.497 129.287 187.211 128.279 187.576 127.039C188.096 125.274 187.785 123.678 186.644 122.252C185.565 120.792 183.853 119.715 181.508 119.021C179.259 118.356 177.108 118.238 175.056 118.669C173.066 119.065 171.227 119.921 169.539 121.237L162.348 113.587C165.257 111.129 168.657 109.568 172.547 108.904C176.485 108.254 180.799 108.622 185.489 110.01C190.993 111.638 195.052 114.109 197.666 117.423C200.328 120.751 201.048 124.49 199.826 128.64C199.25 130.596 198.409 132.214 197.303 133.494C196.246 134.789 195.084 135.819 193.817 136.585C192.613 137.318 191.072 138.133 189.195 139.029C186.961 140.08 185.275 141.033 184.138 141.889C183.016 142.698 182.23 143.865 181.78 145.392L170.939 142.185ZM171.106 161.757C169.144 161.177 167.676 160.068 166.701 158.432C165.788 156.762 165.598 155.02 166.132 153.208C166.666 151.395 167.754 150.084 169.398 149.274C171.055 148.416 172.889 148.284 174.899 148.879C176.91 149.474 178.378 150.582 179.305 152.204C180.246 153.779 180.45 155.473 179.916 157.285C179.382 159.098 178.256 160.45 176.536 161.341C174.879 162.199 173.069 162.338 171.106 161.757Z" fill="#FFC43D"/>
</g>
<g filter="url(#filter2_d)">
<path d="M125.677 181.707C124.932 180.039 124.686 178.495 124.939 177.075C125.225 175.64 125.799 173.942 126.66 171.982C127.293 170.546 127.708 169.4 127.904 168.543C128.118 167.64 128.039 166.771 127.667 165.938C127.136 164.751 126.237 164.036 124.97 163.793C123.721 163.504 122.307 163.711 120.729 164.414C119.215 165.088 118.005 166.012 117.1 167.184C116.213 168.31 115.618 169.614 115.314 171.095L107.942 170.284C108.377 167.629 109.487 165.231 111.273 163.089C113.09 160.933 115.577 159.152 118.733 157.746C122.437 156.096 125.752 155.561 128.676 156.142C131.633 156.709 133.735 158.388 134.983 161.178C135.57 162.493 135.861 163.748 135.854 164.943C135.88 166.124 135.728 167.21 135.4 168.203C135.089 169.149 134.635 170.294 134.038 171.637C133.319 173.226 132.851 174.511 132.633 175.493C132.401 176.443 132.514 177.43 132.973 178.457L125.677 181.707ZM134.746 192.146C133.425 192.734 132.128 192.813 130.853 192.381C129.597 191.902 128.696 191.053 128.151 189.835C127.607 188.616 127.59 187.412 128.101 186.223C128.598 185.002 129.523 184.089 130.876 183.487C132.228 182.884 133.526 182.806 134.768 183.252C135.996 183.666 136.883 184.483 137.427 185.702C137.972 186.92 137.987 188.164 137.472 189.431C136.975 190.653 136.067 191.558 134.746 192.146Z" fill="#FFC43D"/>
</g>
</g>
<defs>
<filter id="filter0_d" x="88" y="25" width="81.5456" height="113.571" filterUnits="userSpaceOnUse" color-interpolation-filters="sRGB">
<feFlood flood-opacity="0" result="BackgroundImageFix"/>
<feColorMatrix in="SourceAlpha" type="matrix" values="0 0 0 0 0 0 0 0 0 0 0 0 0 0 0 0 0 0 127 0"/>
<feOffset dy="4"/>
<feColorMatrix type="matrix" values="0 0 0 0 0.937255 0 0 0 0 0.278431 0 0 0 0 0.435294 0 0 0 1 0"/>
<feBlend mode="normal" in2="BackgroundImageFix" result="effect1_dropShadow"/>
<feBlend mode="normal" in="SourceGraphic" in2="effect1_dropShadow" result="shape"/>
</filter>
<filter id="filter1_d" x="162.348" y="108.593" width="38.0545" height="56.5161" filterUnits="userSpaceOnUse" color-interpolation-filters="sRGB">
<feFlood flood-opacity="0" result="BackgroundImageFix"/>
<feColorMatrix in="SourceAlpha" type="matrix" values="0 0 0 0 0 0 0 0 0 0 0 0 0 0 0 0 0 0 127 0"/>
<feOffset dy="3"/>
<feColorMatrix type="matrix" values="0 0 0 0 0.937255 0 0 0 0 0.278431 0 0 0 0 0.435294 0 0 0 1 0"/>
<feBlend mode="normal" in2="BackgroundImageFix" result="effect1_dropShadow"/>
<feBlend mode="normal" in="SourceGraphic" in2="effect1_dropShadow" result="shape"/>
</filter>
<filter id="filter2_d" x="107.941" y="155.915" width="29.9057" height="38.7397" filterUnits="userSpaceOnUse" color-interpolation-filters="sRGB">
<feFlood flood-opacity="0" result="BackgroundImageFix"/>
<feColorMatrix in="SourceAlpha" type="matrix" values="0 0 0 0 0 0 0 0 0 0 0 0 0 0 0 0 0 0 127 0"/>
<feOffset dy="2"/>
<feColorMatrix type="matrix" values="0 0 0 0 0.937255 0 0 0 0 0.278431 0 0 0 0 0.435294 0 0 0 1 0"/>
<feBlend mode="normal" in2="BackgroundImageFix" result="effect1_dropShadow"/>
<feBlend mode="normal" in="SourceGraphic" in2="effect1_dropShadow" result="shape"/>
</filter>
<clipPath id="clip0">
<rect width="300" height="265" fill="white"/>
</clipPath>
</defs>
</svg>
