<?xml version="1.0" encoding="UTF-8" standalone="no"?>
<svg width="179px" height="138px" viewBox="0 0 179 138" version="1.1" xmlns="http://www.w3.org/2000/svg" xmlns:xlink="http://www.w3.org/1999/xlink">
    <!-- Generator: Sketch 41.2 (35397) - http://www.bohemiancoding.com/sketch -->
    <title>Page 1</title>
    <desc>Created with Sketch.</desc>
    <defs>
        <polygon id="path-1" points="3.91274574e-20 0.0887142857 3.91274574e-20 18.032929 3.50009074 18.032929 3.50009074 0.0887142857 0 0.0887142857"></polygon>
    </defs>
    <g id="Page-1" stroke="none" stroke-width="1" fill="none" fill-rule="evenodd">
        <g id="Paso-1-Copy-25" transform="translate(-128.000000, -387.000000)">
            <g id="Page-1" transform="translate(128.000000, 387.000000)">
                <path d="M158.340109,132.009582 L158.86787,134.964986 C158.86787,134.964986 154.362267,134.647818 154.026786,135.836473 C153.570047,137.440868 155.548864,137.531902 155.548864,137.531902 L163.072638,136.176255 L161.836383,132.290801 L158.340109,132.009582 Z" id="Fill-1" fill="#141F2C"></path>
                <path d="M167.456463,132.009582 L167.983647,134.964986 C167.983647,134.964986 163.478621,134.647818 163.142563,135.836473 C162.685825,137.440868 164.667528,137.531902 164.667528,137.531902 L172.188415,136.176255 L170.95216,132.290801 L167.456463,132.009582 Z" id="Fill-3" fill="#141F2C"></path>
                <polygon id="Fill-5" fill="#141F2C" points="155.271414 90.528116 157.772794 134.653326 162.623694 134.658545 164.105352 99.2441496 167.096385 134.653326 171.755581 134.658545 172.555307 90.528116"></polygon>
                <path d="M142.634764,98.8122328 C143.772858,102.940636 142.253667,133.331947 142.253667,133.331947 L139.659322,133.301216 C139.659322,133.301216 136.705822,102.284266 138.429996,99.1212832 C138.934661,98.1964513 142.354716,97.7957874 142.634764,98.8122328" id="Fill-7" fill="#5E6E84"></path>
                <path d="M137.056778,99.0299017 C137.887107,101.614792 136.188339,133.263179 136.188339,133.263179 L134.124065,133.239986 C134.124065,133.239986 130.648,101.655381 132.874529,99.1992126 C133.578981,98.421658 136.73631,98.0308513 137.056778,99.0299017" id="Fill-9" fill="#5E6E84"></path>
                <path d="M132.689466,130.16305 L137.522466,129.780361 L137.146566,133.931957 L137.363676,136.033268 L129.254399,136.673982 C129.254399,136.673982 128.933931,135.609991 129.15335,135.366461 C129.78447,134.661966 132.166902,135.287604 132.802641,134.385386 C133.466673,133.450117 132.689466,130.16305 132.689466,130.16305" id="Fill-11" fill="#141F2C"></path>
                <path d="M138.369541,130.221961 L143.207737,129.937843 L142.748689,134.081902 L142.92307,136.188431 C142.92307,136.188431 136.708883,138.050851 135.013002,137.118482 C134.537786,136.856977 134.503141,135.590045 134.727179,135.351734 C135.373889,134.659994 137.740731,135.333759 138.397257,134.447196 C139.079189,133.524103 138.369541,130.221961 138.369541,130.221961" id="Fill-13" fill="#141F2C"></path>
                <path d="M28.2662365,98.442184 C27.0825268,102.558411 28.2662365,132.964218 28.2662365,132.964218 L30.861159,132.964218 C30.861159,132.964218 34.154759,101.980318 32.4686945,98.7970412 C31.9744235,97.8669908 28.5595655,97.428058 28.2662365,98.442184" id="Fill-15" fill="#5E6E84"></path>
                <path d="M33.841971,98.721895 C32.9839258,101.299248 34.3293129,132.96271 34.3293129,132.96271 L36.3958968,132.96271 C36.3958968,132.96271 40.2195677,101.421013 38.0213323,98.9375924 C37.3272742,98.1542395 34.1722548,97.7257437 33.841971,98.721895" id="Fill-17" fill="#5E6E84"></path>
                <path d="M44.3516384,79.1109353 L45.3788674,91.0230025 C45.3788674,91.0230025 45.7501481,92.0997504 45.9539771,93.1799773 C46.1988029,94.4799605 46.6053061,95.4987252 46.4494029,95.5642462 C46.1185416,95.6987672 45.4291029,93.8514227 45.4291029,93.8514227 C45.4291029,93.8514227 46.1029513,96.7963891 45.8835319,96.8949605 C45.3361384,97.1413891 44.9804481,94.0311706 44.9804481,94.0311706 C44.9804481,94.0311706 45.0052771,96.9558429 44.7500577,96.9384479 C44.2355771,96.9030782 44.3972545,94.1656916 44.3972545,94.1656916 L44.2962061,94.1627924 C44.2962061,94.1627924 43.9122223,96.500095 43.5738545,96.4571874 C43.0345448,96.3835487 43.7632481,94.3303639 43.9278126,93.6409437 C43.9786255,93.4252462 44.05369,92.832658 43.7055061,92.7891706 C43.3371126,92.7439437 43.3798416,94.1784479 42.950819,94.1552546 C42.5772287,94.1326412 42.8624739,92.7439437 43.1604223,92.1658513 C43.2568513,91.9808849 43.4912835,91.228263 43.4912835,91.228263 L41.2168287,79.3793975 L44.3516384,79.1109353 Z" id="Fill-19" fill="#E0AD97"></path>
                <path d="M27.0623748,79.6032706 L25.6788781,91.4799681 C25.6788781,91.4799681 25.8255426,92.6100605 25.8105297,93.7076824 C25.79032,95.030279 25.9826006,96.1128252 25.8157265,96.1429765 C25.4669652,96.2090773 25.1620877,94.2602622 25.1620877,94.2602622 C25.1620877,94.2602622 25.2325329,97.2811866 24.9952135,97.3322118 C24.4125974,97.4638336 24.6851394,94.343758 24.6851394,94.343758 C24.6851394,94.343758 24.1221555,97.2156655 23.8773297,97.1466655 C23.3801716,97.0075059 24.0869329,94.3588336 24.0869329,94.3588336 L23.9887716,94.3362202 C23.9887716,94.3362202 23.1428523,96.5488588 22.8223845,96.4346319 C22.3079039,96.254884 23.4332942,94.391884 23.7329748,93.7482706 C23.8265168,93.5505479 24.0187974,92.9828924 23.6879361,92.8709849 C23.3345555,92.7521193 23.08742,94.1663294 22.6734103,94.0550017 C22.3125232,93.9587496 22.8703103,92.6558672 23.2762361,92.1514134 C23.4078877,91.9890605 23.7889845,91.2996403 23.7889845,91.2996403 L23.9379587,79.2333378 L27.0623748,79.6032706 Z" id="Fill-21" fill="#E0AD97"></path>
                <path d="M29.1808687,59.5370849 C28.0023558,59.0477067 24.4916461,58.0567739 25.2509526,54.7668076 C25.3999268,54.1208748 24.291859,51.7609588 25.9323074,47.3971437 C26.4473655,46.0258412 28.1034042,44.2138664 28.7593526,43.4763202 C30.793601,41.1952613 31.6949526,41.4637235 33.4641655,41.410379 C35.232801,41.3570345 38.0471429,42.1630008 38.8976816,43.8688664 C39.7713171,45.622858 39.7690074,46.6265471 40.992559,48.2031101 C43.0065977,50.7955387 41.7628365,53.4946563 41.8107623,55.6440933 C41.8407881,57.0026395 41.6519719,59.0250933 39.8319461,59.6565303 C36.6365074,60.7663286 31.4622526,60.4851101 29.1808687,59.5370849" id="Fill-23" fill="#8A3833"></path>
                <path d="M31.61856,56.845737 C32.3328277,57.2765521 33.9403632,57.6719975 35.1997148,56.8735689 C35.2505277,56.8405185 36.5860987,55.5909807 37.2518632,53.4948882 C37.9205148,51.3964765 37.6808858,49.0087286 37.6208342,48.0891151 C37.5850342,47.5336361 36.8707665,44.4547286 34.9427632,44.266863 C34.5235568,44.2262748 33.7209439,44.9464261 33.4229955,45.4990059 C31.3177245,49.3740227 28.8925632,48.1041908 28.8925632,48.1041908 C28.71876,48.2131992 28.6725665,50.6943 28.8123019,51.7664092 C28.9936116,53.2061319 30.2373729,56.014258 31.61856,56.845737" id="Fill-25" fill="#E0AD97"></path>
                <path d="M31.5164723,56.5232924 L31.5164723,60.0382336 C31.5164723,60.0382336 30.9280819,64.1672168 33.3232174,64.1672168 C35.1432432,64.1672168 35.0144787,60.5861748 35.0144787,60.5861748 L35.1080206,59.6862756 L35.1282303,56.5232924 L31.5164723,56.5232924 Z" id="Fill-27" fill="#E0AD97"></path>
                <path d="M26.5018161,60.1038706 C27.7536613,58.8572319 31.5242097,58.3933664 31.5242097,58.3933664 C31.5242097,58.3933664 32.0236774,60.8999798 33.4400871,60.8999798 C34.8813258,60.8999798 35.1186452,58.5197697 35.1186452,58.5197697 C35.1186452,58.5197697 39.1565387,58.2559462 40.2195677,59.1204756 C43.6090194,61.8804756 44.971729,81.9357025 44.971729,81.9357025 L41.5141419,82.1792319 C41.5141419,82.1792319 41.0146742,74.5631395 39.8454,70.0091395 C39.7397323,69.5980387 39.8280774,69.2785513 39.6282903,69.2785513 C39.5070323,69.2785513 39.3863516,69.3626269 39.3990548,69.600358 C39.530129,72.0768202 40.3304323,76.8389798 40.3304323,76.8389798 L38.6824774,77.9696521 L30.7446935,78.207963 L26.9279516,76.7682403 C26.9279516,76.7682403 27.3165548,70.4828622 27.1381323,68.416921 C27.1300484,68.2980555 27.1427516,68.3055933 27.1381323,68.4221395 C27.0064806,72.753484 26.2240774,83.1956773 26.2240774,83.1956773 L23.8791774,83.7302824 C23.8791774,83.7302824 21.5573742,65.035921 26.5018161,60.1038706" id="Fill-29" fill="#9BA9C1"></path>
                <path d="M39.4537365,58.7927546 L38.6540106,58.6304017 L37.6013752,58.5115361 L33.9520848,66.7561664 L28.9695332,58.8837882 L27.6443558,59.2258891 L26.5010655,60.1031748 L27.553701,68.7913765 L26.8042106,76.569242 C26.8042106,76.569242 21.4555752,93.7154521 22.3390268,101.093234 C23.0128752,106.709486 44.3658429,107.249309 44.8653106,101.615082 C45.49643,94.5034437 41.1270977,78.7870992 41.1270977,78.7870992 L39.9537816,70.4537546 L39.4537365,58.7927546 Z" id="Fill-31" fill="#9BA9C1"></path>
                <path d="M37.8647361,129.902009 L33.0363555,129.465976 L33.3666394,133.620471 L33.1247006,135.718883 L41.2258942,136.451211 C41.2258942,136.451211 41.5590652,135.391858 41.3419555,135.14369 C40.71892,134.431076 38.3318684,135.031782 37.7030587,134.124345 C37.0517297,133.181539 37.8647361,129.902009 37.8647361,129.902009" id="Fill-33" fill="#9BA8BF"></path>
                <path d="M32.1841423,129.897487 L27.3459455,129.560024 L27.7651519,133.709302 L27.5630552,135.810613 C27.5630552,135.810613 33.7593423,137.746671 35.4633068,136.831697 C35.9402552,136.575991 35.9904906,135.308478 35.7681842,135.067848 C35.1301358,134.367991 32.7546326,135.017403 32.1085003,134.122722 C31.4369616,133.192092 32.1841423,129.897487 32.1841423,129.897487" id="Fill-35" fill="#9BA8BF"></path>
                <path d="M118.462662,130.362628 L118.462662,133.723334 C118.462662,133.723334 123.366107,132.481334 123.972397,133.723334 C124.790023,135.406586 122.62701,135.897703 122.62701,135.897703 L114.063304,135.897703 L114.666707,131.366317 L118.462662,130.362628 Z" id="Fill-37" fill="#141F2C"></path>
                <path d="M104.898908,130.567888 L104.898908,133.928594 C104.898908,133.928594 99.9948855,132.686594 99.3891726,133.928594 C98.5715468,135.611266 100.733982,136.102964 100.733982,136.102964 L109.297689,136.102964 L108.694863,131.571577 L104.898908,130.567888 Z" id="Fill-39" fill="#141F2C"></path>
                <path d="M107.546953,61.9311529 C107.653198,64.0092706 109.969805,64.9625143 111.191624,64.8558252 C113.645079,64.6401277 115.518227,63.5738168 115.403898,61.7966319 C115.366366,61.1959261 114.536037,59.371195 114.506011,59.0319933 C114.506011,59.0319933 116.544879,56.7300605 117.122876,52.7970605 C117.562292,49.7958504 118.064647,48.0853462 116.734273,46.6357664 C113.243773,42.8314891 109.596792,44.9907832 108.869821,45.1479176 C108.14285,45.3050521 106.554947,47.7380269 106.446969,51.2865983 C106.446969,51.2865983 106.055479,55.3489008 109.028611,59.343363 C109.028611,59.343363 107.524434,61.4928 107.546953,61.9311529" id="Fill-41" fill="#F4C9BC"></path>
                <polygon id="Fill-43" fill="#9BA8BF" points="121.782823 92.5716756 119.563801 131.716709 113.701262 131.716709 112.449417 101.781726 109.120017 131.716709 102.969346 131.716709 103.521936 92.5716756"></polygon>
                <path d="M126.485615,92.9632361 L125.831976,96.6637235 C125.831976,96.6637235 125.938222,98.1840429 125.829089,99.6544966 C125.698015,101.420665 125.870086,102.883001 125.644893,102.911413 C125.173141,102.969396 124.920809,100.338698 124.920809,100.338698 C124.920809,100.338698 124.774144,104.383606 124.455986,104.434631 C123.66088,104.563354 124.274676,100.414656 124.274676,100.414656 C124.274676,100.414656 123.297683,104.209076 122.974905,104.097169 C122.31838,103.871614 123.474373,100.386824 123.474373,100.386824 L123.343299,100.348555 C123.343299,100.348555 122.041218,103.240757 121.619125,103.063329 C120.945276,102.78211 122.596118,100.379287 123.048238,99.5425891 C123.189128,99.283984 123.491696,98.5417992 123.057476,98.3643706 C122.593809,98.176505 122.154393,100.049942 121.606999,99.867295 C121.13236,99.7124798 121.980012,98.0141521 122.568402,97.3682193 C122.754909,97.1629588 123.315583,96.2705975 123.315583,96.2705975 L123.580618,92.5706899 L126.485615,92.9632361 Z" id="Fill-45" fill="#F4C9BC"></path>
                <path d="M98.4339477,90.8318899 L99.0875865,94.5317975 C99.0875865,94.5317975 98.9813413,96.0555958 99.0898961,97.5231504 C99.2209703,99.2893185 99.0494768,100.751655 99.2740929,100.779487 C99.7487316,100.83805 100.001064,98.2073521 100.001064,98.2073521 C100.001064,98.2073521 100.144841,102.25226 100.465886,102.302705 C101.258106,102.432008 100.644886,98.2833101 100.644886,98.2833101 C100.644886,98.2833101 101.62188,102.07715 101.944657,101.965823 C102.600606,101.740268 101.444612,98.2554782 101.444612,98.2554782 L101.575686,98.2172092 C101.575686,98.2172092 102.878345,101.109411 103.299861,100.931403 C103.976596,100.650184 102.322867,98.2479403 101.871325,97.4112429 C101.729857,97.1526378 101.42729,96.4104529 101.861509,96.2324445 C102.325754,96.0451588 102.764593,97.918016 103.312564,97.7359487 C103.787203,97.5811336 102.938974,95.8828059 102.35347,95.2368731 C102.166964,95.0316126 101.603403,94.1392513 101.603403,94.1392513 L101.338367,90.4387639 L98.4339477,90.8318899 Z" id="Fill-47" fill="#F4C9BC"></path>
                <path d="M115.159939,60.8887311 C115.159939,60.8887311 121.520213,62.0744874 124.218494,65.118605 C129.27611,70.8235714 126.484287,96.3738655 126.484287,96.3738655 C126.484287,96.3738655 123.359871,96.7107479 122.88581,95.9024622 C122.88581,95.9024622 122.832687,78.2170084 122.015061,78.2170084 C121.446881,78.2170084 122.259887,90.9675126 121.673806,93.2590084 C120.515503,97.7932941 106.093877,96.9716723 103.413497,93.3836723 C102.926155,92.7319412 103.888135,75.9434874 103.888135,75.9434874 L102.234406,94.1107815 L98.4338323,94.7288824 C98.4338323,94.7288824 94.9456419,69.2400504 102.300232,63.2028403 C103.206781,62.4577563 107.868287,61.3346218 107.868287,61.3346218 L112.010116,64.3683025 L115.159939,60.8887311 Z" id="Fill-49" fill="#FEC70D"></path>
                <path d="M106.807683,47.3948824 C106.818077,47.3571933 107.62069,45.3138655 108.272019,44.5334118 C108.314748,44.4829664 108.440625,44.3385882 108.448709,44.3229328 C108.693535,44.0515714 108.955683,43.7981849 109.233422,43.5703109 C109.607012,43.3853445 111.686299,43.0252689 112.255057,43.1696471 C112.521825,43.2409664 114.616703,43.7477395 114.826883,44.0138824 C115.081525,43.963437 117.835238,45.4988319 118.074867,45.8409328 C118.211138,46.1754958 118.319693,46.523395 118.402841,46.8805714 C118.402841,46.8979664 118.415545,46.9460924 118.420164,46.9513109 C118.433445,47.0174118 118.44557,47.0858319 118.458274,47.1519328 C118.655751,48.1475042 118.382632,50.3270924 118.372238,50.3653613 C118.322003,50.5729412 118.365309,52.5855378 117.158503,53.5411008 L117.365219,50.0435546 C117.410835,49.8632269 117.10538,49.2549832 117.094986,49.0804538 C117.060341,48.3046387 116.287754,48.4872857 115.497845,48.2843445 C115.422203,48.2646303 113.551941,48.1677983 112.819774,47.9805126 C112.088183,47.7926471 110.402119,46.9739244 110.32359,46.9565294 C109.536567,46.7512689 108.453906,46.6625546 108.049712,47.323563 C107.95848,47.4760588 107.661109,47.8001849 107.615493,47.9805126 L106.653512,50.2992605 C106.052996,48.8804118 106.396561,49.0068151 106.807683,47.3948824" id="Fill-51" fill="#141F2C"></path>
                <path d="M95.7690419,88.2303 L95.9209032,90.6151487 C95.9209032,90.6151487 96.0768065,92.0096445 96.0317677,93.3600731 C95.9809548,94.9899807 96.1928677,96.3230143 95.9861516,96.358384 C95.557129,96.4320227 95.2245355,94.0239807 95.2245355,94.0239807 C95.2245355,94.0239807 95.2441677,97.7447622 94.9543032,97.8056445 C94.2296419,97.9529218 94.6332581,94.1208126 94.6332581,94.1208126 C94.6332581,94.1208126 93.8808806,97.6409723 93.5812,97.552258 C92.9702903,97.3672916 93.896471,94.1254513 93.896471,94.1254513 L93.7752129,94.0953 C93.7752129,94.0953 92.6902419,96.7996361 92.2958645,96.6523588 C91.6653226,96.4215857 93.090971,94.1509639 93.4749548,93.3676109 C93.5933258,93.1246613 93.8433484,92.4300227 93.4374226,92.2833252 C93.0055129,92.1308294 92.6723419,93.8645269 92.1624806,93.7201487 C91.7207548,93.5960647 92.4356,92.0044261 92.9500806,91.3880647 C93.1140677,91.190342 93.5962129,90.351905 93.5962129,90.351905 L94.0529516,87.8731235 L95.7690419,88.2303 Z" id="Fill-53" fill="#E0AD97"></path>
                <polygon id="Fill-55" fill="#9BA8BF" points="78.1695887 125.880875 78.1695887 130.957303 81.3598306 130.957303 82.1572468 125.880875"></polygon>
                <polygon id="Fill-57" fill="#9BA8BF" points="85.8485732 126.368977 85.8485732 130.469549 89.1554539 130.469549 89.73807 126.368977"></polygon>
                <path d="M72.1309371,74.1925689 L70.8663887,88.8594176 C70.8663887,88.8594176 70.40965,90.1854933 70.1573177,91.5133084 C69.85475,93.1148042 69.3570145,94.3695605 69.5510274,94.4484176 C69.955221,94.6154092 70.80345,92.3395689 70.80345,92.3395689 C70.80345,92.3395689 69.973121,95.9664176 70.2427758,96.0881824 C70.9189339,96.389695 71.3560403,92.5628042 71.3560403,92.5628042 C71.3560403,92.5628042 71.3254371,96.1641403 71.6383984,96.1415269 C72.2747145,96.0957202 72.0749274,92.7274765 72.0749274,92.7274765 L72.1990726,92.7245773 C72.1990726,92.7245773 72.6714016,95.6040227 73.0871435,95.5483588 C73.7540629,95.4596445 72.8579081,92.9298378 72.6529242,92.0809639 C72.5899855,91.8171403 72.497021,91.0848126 72.9260435,91.0320479 C73.3798952,90.9758042 73.3267726,92.7425521 73.8568435,92.7147202 C74.3141597,92.6892076 73.9630887,90.9787034 73.5970048,90.2660899 C73.4786339,90.038216 73.191079,89.1128042 73.191079,89.1128042 L75.9904081,74.5248126 L72.1309371,74.1925689 Z" id="Fill-59" fill="#E0AD97"></path>
                <path d="M88.70524,54.9680672 C89.8058013,54.5117395 93.0843884,53.5869076 92.37474,50.514958 C92.2332723,49.9119328 92.1200981,49.4886555 91.7366916,48.3249328 C91.3099787,47.0249496 89.7093723,45.3550336 89.0967303,44.6656134 C87.1987529,42.5341513 86.3580303,42.7875378 84.7071884,42.7365126 C83.0540368,42.6860672 80.4267787,43.4386891 79.6339819,45.0303277 C78.8192432,46.6700924 78.8192432,47.6053613 77.6782626,49.0752353 C75.7976077,51.4983529 76.9611077,49.3263025 76.916069,51.3336807 C76.8854658,52.6006134 77.0621561,54.4891261 78.7632335,55.079395 C81.7438723,56.1161345 86.57514,55.8523109 88.70524,54.9680672" id="Fill-61" fill="#8A3833"></path>
                <path d="M85.7082026,58.4999975 C84.9506284,58.8571739 83.3026735,59.0879471 82.1264703,58.1578966 C82.0814316,58.1225269 80.8746252,56.7361487 80.4230832,54.5716361 C79.9692316,52.4071235 80.4507994,50.0448882 80.60728,49.1351319 C80.7008219,48.5825521 81.7274735,45.5790227 83.6739542,45.591779 C84.0954703,45.5946782 84.8224413,46.3954261 85.0672671,46.9781571 C86.7735413,51.0665521 89.3251574,50.0472076 89.3251574,50.0472076 C89.4891445,50.1741908 89.2795413,52.6581908 89.0324058,53.7152244 C88.7015445,55.1369723 87.1719606,57.8105773 85.7082026,58.4999975" id="Fill-63" fill="#E0AD97"></path>
                <polygon id="Fill-65" fill="#5E6E84" points="92.0276532 82.2711353 89.5164565 127.93232 85.8492661 127.93232 83.8906597 93.0148412 82.5475823 127.93232 77.9368887 127.93232 76.1093565 82.2711353"></polygon>
                <path d="M77.542569,129.605889 L82.2491142,129.605889 L81.5706465,133.595133 L81.6231916,135.645418 L73.7240948,135.645418 C73.7240948,135.645418 73.4937045,134.591284 73.7240948,134.370368 C74.3898594,133.737192 76.6487239,134.525183 77.3329658,133.701242 C78.0443465,132.84715 77.542569,129.605889 77.542569,129.605889" id="Fill-67" fill="#141F2C"></path>
                <path d="M90.1312926,129.605889 L85.42417,129.605889 L86.1026377,133.595133 L86.0524023,135.645418 L93.9497668,135.645418 C93.9497668,135.645418 94.1795797,134.591284 93.9497668,134.370368 C93.2834248,133.737192 91.0245603,134.525183 90.3403184,133.701242 C89.6289377,132.84715 90.1312926,129.605889 90.1312926,129.605889" id="Fill-69" fill="#141F2C"></path>
                <path d="M94.8250768,63.7003941 C93.6638865,62.4891252 85.5199639,58.8825706 85.5199639,58.8825706 C85.5199639,58.8825706 85.8831606,61.8327555 84.56318,61.8327555 C83.2154832,61.8327555 83.2154832,59.4554445 83.2154832,59.4554445 C83.2154832,59.4554445 76.4608316,61.6524277 75.5121316,62.5065202 C71.1531929,66.422705 70.9389703,88.8274109 70.9389703,88.8274109 L74.5478413,89.0378899 C74.5478413,89.0378899 76.5751606,75.1613521 76.9683832,72.0720076 C77.0186187,71.6817807 76.9839735,71.3924445 77.17048,71.3924445 C77.2813445,71.3924445 77.3945187,71.4684025 77.3847026,71.6916378 C77.2640219,74.0057471 76.4689155,77.4957555 75.9919671,81.9158143 C75.8603155,83.1096882 80.6309542,83.4059824 80.6309542,83.4059824 L86.3855155,83.4059824 C86.3855155,83.4059824 92.0696316,83.3404613 92.092151,81.9053773 C92.1701026,76.945495 91.4252316,74.6192092 91.5892187,72.6901084 C91.5996123,72.5787807 91.9350929,72.5863185 91.93798,72.6953269 C92.0644348,76.7402345 93.1823187,90.5732849 93.1823187,90.5732849 L95.7587639,91.0551252 C95.7587639,91.0551252 99.3630155,68.427184 94.8250768,63.7003941" id="Fill-71" fill="#84B1DF"></path>
                <path d="M86.0036681,55.7888773 L86.0036681,59.6766504 C86.0036681,59.6766504 86.6827132,63.5290538 84.3938229,63.5290538 C82.6517487,63.5290538 82.8342132,60.1857429 82.8342132,60.1857429 L82.7730068,59.0457933 L82.7862874,55.7888773 L86.0036681,55.7888773 Z" id="Fill-73" fill="#E0AD97"></path>
                <path d="M84.8443255,65.5814269 C84.5261674,65.4573429 84.1196642,65.6046202 84.0036029,65.9391832 C83.8823448,66.2836034 84.124861,66.6564353 84.4551448,66.7526874 C84.7484739,66.8385025 85.1145577,66.7045613 85.2329287,66.3949311 C85.3593835,66.0679059 85.1543997,65.7031916 84.8443255,65.5814269" id="Fill-75" fill="#141F2C"></path>
                <path d="M84.8088142,67.6946824 C84.487769,67.5705983 84.0818432,67.7178756 83.9657819,68.0524387 C83.8468335,68.3968588 84.0893497,68.7696908 84.4196335,68.8659429 C84.7129626,68.951758 85.0761594,68.8178168 85.1974174,68.5081866 C85.3238723,68.1811613 85.1188884,67.8164471 84.8088142,67.6946824" id="Fill-77" fill="#141F2C"></path>
                <path d="M160.531357,61.4025782 C160.637603,63.4377882 162.903396,64.3707378 164.102696,64.2663681 C166.500719,64.0535697 168.338067,63.0121916 168.224315,61.2709563 C168.186783,60.6853261 167.376086,58.8959647 167.346061,58.563721 C167.346061,58.563721 169.342777,56.3110739 169.907493,52.4586706 C170.339403,49.5183429 170.831364,47.8432084 169.526396,46.4237798 C166.109228,42.700679 162.53789,44.8147462 161.825932,44.9689815 C161.114551,45.1208975 159.559561,47.5063261 159.453893,50.980679 C159.453893,50.980679 159.069909,54.9577462 161.98299,58.8681328 C161.98299,58.8681328 160.508838,60.9740824 160.531357,61.4025782" id="Fill-79" fill="#E0AD97"></path>
                <path d="M150.149646,91.7905261 L150.790582,95.4144756 C150.790582,95.4144756 150.684914,96.9052235 150.790582,98.3420471 C150.919346,100.073425 150.753049,101.502711 150.975356,101.530543 C151.436714,101.588526 151.68154,99.0140723 151.68154,99.0140723 C151.68154,99.0140723 151.825317,102.975484 152.138278,103.025929 C152.916062,103.150013 152.314969,99.0871311 152.314969,99.0871311 C152.314969,99.0871311 153.271753,102.802694 153.587024,102.693686 C154.230846,102.47103 153.097372,99.0592992 153.097372,99.0592992 L153.226136,99.0216101 C153.226136,99.0216101 154.503388,101.85235 154.917398,101.680139 C155.575656,101.404139 153.958304,99.0517613 153.513691,98.2330387 C153.377998,97.9796521 153.082359,97.2525429 153.509072,97.0803328 C153.961191,96.8947866 154.392524,98.7299546 154.927214,98.5525261 C155.392036,98.3982908 154.561707,96.7353328 153.98833,96.1038958 C153.804133,95.9015345 153.253853,95.0294672 153.253853,95.0294672 L152.994014,91.407837 L150.149646,91.7905261 Z" id="Fill-81" fill="#E0AD97"></path>
                <path d="M177.61991,89.703363 L176.978975,93.3273126 C176.978975,93.3273126 177.084642,94.8180605 176.978975,96.254884 C176.849633,97.9862622 177.016507,99.4155479 176.7942,99.4433798 C176.332842,99.501363 176.088016,96.9269092 176.088016,96.9269092 C176.088016,96.9269092 175.943662,100.888321 175.6307,100.936447 C174.855804,101.06285 175.45401,96.9999681 175.45401,96.9999681 C175.45401,96.9999681 174.497804,100.715531 174.181955,100.606523 C173.53871,100.383867 174.672184,96.9721361 174.672184,96.9721361 L174.542842,96.9344471 C174.542842,96.9344471 173.265591,99.7651866 172.854468,99.5929765 C172.193323,99.3169765 173.810675,96.9645983 174.255287,96.1458756 C174.391558,95.8924891 174.689507,95.1653798 174.260484,94.9931697 C173.808365,94.8076235 173.376455,96.6427916 172.841765,96.465363 C172.37752,96.3111277 173.207849,94.6481697 173.781226,94.0167328 C173.964845,93.8143714 174.518013,92.9423042 174.518013,92.9423042 L174.774965,89.3206739 L177.61991,89.703363 Z" id="Fill-83" fill="#E0AD97"></path>
                <path d="M160.102797,60.7358294 C160.102797,60.7358294 155.012268,61.544695 152.371729,64.5250311 C147.416894,70.1105521 150.150974,95.1314597 150.150974,95.1314597 C150.150974,95.1314597 153.211874,95.4608042 153.676697,94.6675941 C153.676697,94.6675941 153.729819,77.3520731 154.530123,77.3520731 C155.082713,77.3520731 154.289916,89.8364345 154.862716,92.0827034 C155.99619,96.5224765 170.120445,95.7170899 172.745394,92.2015689 C173.219455,91.5649134 172.278261,75.1266782 172.278261,75.1266782 L173.8985,92.9136025 L177.618813,93.5218462 C177.618813,93.5218462 181.035981,68.5600815 173.832674,62.6469555 C172.946913,61.9169471 168.381258,60.8170059 168.381258,60.8170059 L163.96631,65.2753336 L160.102797,60.7358294 Z" id="Fill-85" fill="#141F2C"></path>
                <polygon id="Fill-87" fill="#FEFEFE" points="164.270494 61.4744773 167.346985 58.5648807 168.37941 60.8181076 167.076752 64.5991916 163.786039 80.6454605 163.165314 80.6454605 161.670952 64.5991916 160.103259 60.7369311 161.981026 58.8687126"></polygon>
                <path d="M159.736828,46.6856319 C159.744335,46.6479429 160.531357,44.6481025 161.167674,43.8850437 C161.208093,43.8345983 161.334548,43.6925395 161.341477,43.6774639 C161.581106,43.411321 161.839212,43.1654723 162.111177,42.9399176 C162.474951,42.7595899 164.512086,42.4076319 165.066986,42.5496908 C165.329712,42.6175311 167.381283,43.1144471 167.586267,43.3730521 C167.835712,43.3249261 170.533993,44.8301697 170.768425,45.1624134 C170.900077,45.491758 171.008632,45.8338588 171.09178,46.1811782 C171.09178,46.1991529 171.102174,46.247279 171.106793,46.2519176 C171.122383,46.3156992 171.131622,46.3818 171.144903,46.447321 C171.336606,47.4231782 171.069261,49.5575395 171.061177,49.5952286 C171.010941,49.7981697 171.051361,51.767279 169.869961,52.7048672 L170.072057,49.2809597 C170.117674,49.1035311 169.817415,48.5080437 169.809332,48.3358336 C169.774109,47.5750941 169.019422,47.7554218 168.246835,47.5576992 C168.169461,47.537405 166.339619,47.4434723 165.621886,47.2585059 C164.905309,47.0758588 163.257354,46.2751109 163.179403,46.2548168 C162.406815,46.0570941 161.346674,45.9683798 160.950564,46.6172118 C160.862219,46.7644891 160.571777,47.0839765 160.526161,47.2585059 L159.584967,49.5320269 C158.997154,48.1404303 159.335522,48.262195 159.736828,46.6856319" id="Fill-89" fill="#8A3833"></path>
                <polygon id="Fill-91" fill="#FEFEFE" points="163.131996 81.175195 161.854745 95.1984303 165.241309 94.9983882 163.785635 81.175195"></polygon>
                <polyline id="Stroke-93" stroke="#1D1C1B" stroke-width="0.743" points="167.447398 66.0621655 164.269859 62.6202832 161.198565 65.6794765"></polyline>
                <path d="M147.404075,84.2011639 L148.405897,95.8065 C148.405897,95.8065 148.766785,96.8559958 148.965994,97.9078109 C149.205623,99.1747437 149.600001,100.168576 149.448139,100.231777 C149.124785,100.36108 148.456133,98.5618613 148.456133,98.5618613 C148.456133,98.5618613 149.112659,101.43087 148.897859,101.527122 C148.362591,101.767752 148.017294,98.7392899 148.017294,98.7392899 C148.017294,98.7392899 148.040391,101.588004 147.792678,101.570029 C147.290323,101.53466 147.449114,98.8680126 147.449114,98.8680126 L147.350952,98.8656933 C147.350952,98.8656933 146.977362,101.144433 146.646501,101.100945 C146.118739,101.030206 146.831275,99.0280462 146.990065,98.3566008 C147.040301,98.1484412 147.115943,97.5680294 146.775265,97.5274412 C146.414378,97.4822143 146.457107,98.8807689 146.038478,98.8581555 C145.677591,98.8378613 145.954752,97.4845336 146.245194,96.9191975 C146.338736,96.7394496 146.566239,96.0071218 146.566239,96.0071218 L144.350104,84.4649874 L147.404075,84.2011639 Z" id="Fill-95" fill="#8A3833"></path>
                <path d="M127.783134,85.3789765 L128.775141,96.9872118 C128.775141,96.9872118 128.595563,98.0819345 128.578241,99.1511445 C128.558031,100.44185 128.340921,101.488447 128.502599,101.523817 C128.840389,101.597455 129.19377,99.7089429 129.19377,99.7089429 C129.19377,99.7089429 129.037289,102.649271 129.264215,102.707254 C129.830086,102.851632 129.655705,99.8080941 129.655705,99.8080941 C129.655705,99.8080941 130.117641,102.618539 130.360157,102.560556 C130.847499,102.438792 130.238899,99.8382454 130.238899,99.8382454 L130.33475,99.8179513 C130.33475,99.8179513 131.091747,101.997539 131.409905,101.898968 C131.91457,101.738934 130.874637,99.8886908 130.602673,99.2555143 C130.51606,99.0577916 130.345144,98.4999933 130.673118,98.400842 C131.018992,98.2947328 131.215315,99.6811109 131.624128,99.5848588 C131.978086,99.5036824 131.475731,98.2164555 131.091747,97.7120017 C130.971066,97.5496487 130.622305,96.8677664 130.622305,96.8677664 L130.837105,85.1134134 L127.783134,85.3789765 Z" id="Fill-97" fill="#8A3833"></path>
                <path d="M130.475698,76.0580622 C129.327789,75.5814403 129.347998,64.4324319 129.01194,61.158121 C128.789634,58.9860706 129.488889,56.2968101 130.316908,53.5947933 C130.735537,52.2316084 131.790482,50.8782807 132.431995,50.1581294 C134.413121,47.9356336 135.289066,48.1988773 137.012663,48.1455328 C138.736837,48.0927681 141.286144,48.9920874 142.308176,50.5408185 C145.150234,54.8420118 145.099421,59.9184403 145.147347,62.0116336 C145.17795,63.3348101 146.93215,75.4422807 145.155431,76.0580622 C142.04314,77.1400286 132.699918,76.9805748 130.475698,76.0580622" id="Fill-99" fill="#141F2C"></path>
                <path d="M129.076092,68.8829319 C130.176075,67.5168479 136.521914,65.8237387 136.521914,65.8237387 C136.521914,65.8237387 135.786859,68.8400244 137.165159,68.8400244 C138.570598,68.8400244 138.570598,66.3583437 138.570598,66.3583437 C138.570598,66.3583437 142.445082,67.4333521 143.538137,68.1987303 C149.014959,72.0406966 149.014959,95.6647891 149.014959,95.6647891 L145.981198,95.9361504 C145.981198,95.9361504 143.878814,81.0228731 143.467114,77.7990076 C143.416879,77.3913857 143.452101,77.0892933 143.258088,77.0892933 C143.13914,77.0892933 143.020192,77.1681504 143.033472,77.4012429 C143.162237,79.8168227 143.379346,84.3308143 143.379346,84.3308143 L142.334217,85.5548395 L134.600263,85.7879319 L131.299734,84.3203773 C131.299734,84.3203773 131.052021,76.8109739 130.87764,74.7983773 C130.867824,74.6818311 131.09244,76.1389487 131.087243,76.2531756 C130.959056,80.4731924 130.786985,94.4483017 130.786985,94.4483017 L128.416679,94.8588227 C128.416679,94.8588227 126.04464,72.6443017 129.076092,68.8829319" id="Fill-101" fill="#FEFEFE"></path>
                <path d="M142.290795,67.3985042 C141.890066,67.2564454 140.723679,66.9323193 140.723679,66.9323193 C140.723679,66.9323193 140.574705,70.8171933 139.645637,71.5524202 C138.735047,72.2719916 135.917818,72.2470588 135.009537,71.5222689 C134.048134,70.7539916 133.868557,66.7241597 133.868557,66.7241597 L131.510954,67.5225882 C131.510954,67.5225882 131.496518,78.0303025 131.299041,81.5284286 C130.96356,87.5169328 128.855979,106.203756 128.855979,106.203756 L145.834418,106.203756 C145.834418,106.203756 144.58546,87.7401681 143.378654,81.5284286 C142.914408,79.1406807 142.762547,71.8516134 142.762547,71.8516134 L143.398863,67.9232521 C143.398863,67.9232521 142.866483,67.6037647 142.290795,67.3985042" id="Fill-103" fill="#141F2C"></path>
                <path d="M135.823583,63.6485571 C136.56037,63.9958765 138.155203,64.2185319 139.29907,63.3163134 C139.344686,63.2809437 140.512806,61.9374731 140.952222,59.836742 C141.391638,57.7354311 140.923928,55.4468345 140.772645,54.5625908 C140.772645,54.5625908 140.492596,54.3648681 138.604435,54.3648681 C137.458835,54.3648681 136.073606,54.4002378 135.462119,54.4483639 C132.862577,54.6611622 132.456651,54.6634815 132.456651,54.6634815 C132.400641,54.9220866 132.438751,57.9662042 132.600428,59.0081622 C133.011551,61.6713303 134.404864,62.9794311 135.823583,63.6485571" id="Fill-105" fill="#8A3833"></path>
                <path d="M136.719045,62.5330765 L136.719045,65.8253622 C136.719045,65.8253622 135.479903,69.8476563 137.869842,69.8476563 C139.687558,69.8476563 139.233129,66.3599672 139.233129,66.3599672 L139.164416,65.5493622 L139.020639,62.5330765 L136.719045,62.5330765 Z" id="Fill-107" fill="#8A3833"></path>
                <polygon id="Fill-109" fill="#84B1DF" points="5.03867677 86.7770092 7.00940903 132.856253 9.88899935 132.859152 11.5300252 95.2727067 12.4844994 132.856253 16.1031865 132.859152 17.5392284 86.7770092"></polygon>
                <g id="Group-113" transform="translate(0.000000, 80.128714)">
                    <mask id="mask-2" fill="white">
                        <use xlink:href="#path-1"></use>
                    </mask>
                    <g id="Clip-112"></g>
                    <path d="M0.829809355,0.182647059 L0.59249,12.1353025 C0.59249,12.1353025 0.347664194,13.248 0.266825484,14.3427227 C0.170973871,15.663 -0.11427129,16.7223529 0.0497158065,16.7681597 C0.390393226,16.8649916 0.865609355,14.9486471 0.865609355,14.9486471 C0.865609355,14.9486471 0.531860968,17.9521765 0.761673871,18.0252353 C1.33216419,18.2078824 1.33216419,15.0779496 1.33216419,15.0779496 C1.33216419,15.0779496 1.64223839,17.9846471 1.89226097,17.9394202 C2.39981258,17.8431681 1.92748355,15.1434706 1.92748355,15.1434706 L2.02853194,15.128395 C2.02853194,15.128395 2.67466419,17.4071345 3.00552548,17.3236387 C3.53559645,17.1891176 2.57592548,15.2327647 2.33398677,14.5682773 C2.25834484,14.3606975 2.11456742,13.7773866 2.45466742,13.6967899 C2.81844161,13.6074958 2.93681258,15.0396807 3.36121581,14.9666218 C3.72960935,14.9028403 3.28846097,13.5547311 2.92699645,13.0149076 C2.81151258,12.8421176 2.49335452,12.1225462 2.49335452,12.1225462 L3.39874806,0.0887142857 L0.829809355,0.182647059 Z" id="Fill-111" fill="#8A3833" mask="url(#mask-2)"></path>
                </g>
                <path d="M27.1254868,77.0823933 L29.1799448,73.0931496 C29.1799448,73.0931496 29.9294352,72.2390571 30.5299513,71.321763 C31.2517255,70.2113849 32.0116094,69.4233933 31.8903513,69.3039479 C31.638019,69.0534605 30.2978287,70.5001412 30.2978287,70.5001412 C30.2978287,70.5001412 32.0393255,68.0346958 31.8730287,67.8595866 C31.4613287,67.4212336 29.9525319,70.1609395 29.9525319,70.1609395 C29.9525319,70.1609395 31.0854287,67.4670403 30.8429126,67.385284 C30.3509513,67.2206118 29.4623029,69.8136202 29.4623029,69.8136202 L29.3693384,69.7753513 C29.3693384,69.7753513 29.901719,67.4693597 29.5708577,67.3806454 C29.0459835,67.2409059 28.9403158,69.4181748 28.8288739,70.1174521 C28.7965384,70.3354689 28.6423674,70.9158807 28.30169,70.8225277 C27.9431126,70.7210571 28.5286158,69.410637 28.12269,69.2685782 C27.7687319,69.1468134 27.5065835,70.5384101 27.5620158,71.187242 C27.5793384,71.397721 27.5117803,72.1804941 27.5117803,72.1804941 L25.0704513,75.9093933" id="Fill-114" fill="#8A3833"></path>
                <path d="M16.8999674,129.949555 L12.0721642,129.514102 L12.4024481,133.668018 L12.1599319,135.766429 L20.2617029,136.498757 C20.2617029,136.498757 20.5948739,135.439404 20.3777642,135.191236 C19.7547287,134.478623 17.3670997,135.079329 16.7388674,134.171892 C16.0875384,133.229085 16.8999674,129.949555 16.8999674,129.949555" id="Fill-116" fill="#141F2C"></path>
                <path d="M11.2188539,129.945033 L6.38007968,129.60815 L6.79928613,133.756848 L6.59718935,135.858159 C6.59718935,135.858159 12.7940539,137.794218 14.497441,136.879243 C14.9772765,136.623537 15.0252023,135.356604 14.8028958,135.115394 C14.16427,134.415537 11.7887668,135.064949 11.1432119,134.170268 C10.4739829,133.240218 11.2188539,129.945033 11.2188539,129.945033" id="Fill-118" fill="#141F2C"></path>
                <path d="M62.7941239,130.928892 L62.26694,133.884295 C62.26694,133.884295 66.7719658,133.567127 67.1080239,134.756362 C67.5647626,136.363076 65.5859465,136.451791 65.5859465,136.451791 L58.0621723,135.097883 L59.3013142,131.21011 L62.7941239,130.928892 Z" id="Fill-120" fill="#9BA8BF"></path>
                <path d="M53.6783468,130.928892 L53.1511629,133.884295 C53.1511629,133.884295 57.6561887,133.567127 57.9922468,134.756362 C58.4489855,136.363076 56.4701694,136.451791 56.4701694,136.451791 L48.9463952,135.097883 L50.1849597,131.21011 L53.6783468,130.928892 Z" id="Fill-122" fill="#9BA8BF"></path>
                <path d="M59.9932935,59.8357563 C59.8916677,61.8048655 57.698629,62.7047647 56.5426355,62.6032941 C54.2231419,62.3980336 52.4493097,61.3920252 52.5572871,59.7064538 C52.5948194,59.1411176 53.3778,57.4126387 53.4084032,57.0937311 C53.4084032,57.0937311 51.4775129,54.9141429 50.932429,51.1904622 C50.5155323,48.3492857 50.041471,46.7298151 51.2979355,45.3590924 C54.601929,41.7600756 58.0520097,43.8028235 58.740871,43.9524202 C59.4297323,44.1020168 60.9321774,46.4027899 61.0355355,49.7634958 C61.0355355,49.7634958 61.4062387,53.606042 58.5918968,57.3877059 C58.5918968,57.3877059 60.0158129,59.4200168 59.9932935,59.8357563" id="Fill-124" fill="#F4C9BC"></path>
                <polygon id="Fill-126" fill="#141F2C" points="65.5757839 88.834195 63.0772903 132.959405 58.2235032 132.964624 56.7418452 97.5502286 53.7531226 132.959405 49.0945032 132.964624 48.2913129 88.834195"></polygon>
                <path d="M70.0271097,89.2047655 L69.409271,92.7075303 C69.409271,92.7075303 69.5074323,94.1472529 69.4063839,95.5359504 C69.2828161,97.2116647 69.4439161,98.5922445 69.2320032,98.6177571 C68.782771,98.6740008 68.546029,96.1847824 68.546029,96.1847824 C68.546029,96.1847824 68.406871,100.014572 68.1066129,100.062698 C67.3542355,100.181564 67.9351194,96.258421 67.9351194,96.258421 C67.9351194,96.258421 67.0083613,99.8470008 66.7057935,99.7432109 C66.0850677,99.5280933 67.1775452,96.2305891 67.1775452,96.2305891 L67.0539774,96.1952193 C67.0539774,96.1952193 65.8200323,98.9297067 65.4210355,98.7621353 C64.7824097,98.4959924 66.3472161,96.2230513 66.773929,95.4321605 C66.9078903,95.1863118 67.1931355,94.4841353 66.7814355,94.3165639 C66.3449065,94.1397151 65.9280097,95.9111017 65.4083323,95.7388916 C64.9619871,95.5916143 65.7640226,93.9849 66.3195,93.3737571 C66.4961903,93.1789336 67.0291484,92.3346983 67.0291484,92.3346983 L67.2785935,88.8348328 L70.0271097,89.2047655 Z" id="Fill-128" fill="#F4C9BC"></path>
                <path d="M43.479331,87.1878202 L44.0971697,90.6905849 C44.0971697,90.6905849 43.9966987,92.1297277 44.1000568,93.5184252 C44.2213148,95.1941395 44.0596374,96.5752992 44.2744374,96.6008118 C44.7207826,96.6564756 44.9604116,94.167837 44.9604116,94.167837 C44.9604116,94.167837 45.09726,97.9976269 45.3998277,98.0457529 C46.1522052,98.1646185 45.5713213,94.2414756 45.5713213,94.2414756 C45.5713213,94.2414756 46.4957697,97.8300555 46.8006471,97.7262655 C47.4213729,97.5105681 46.3288955,94.2130639 46.3288955,94.2130639 L46.4518858,94.1776941 C46.4518858,94.1776941 47.6864084,96.9121815 48.0854052,96.7451899 C48.724031,96.4790471 47.1592245,94.2055261 46.7325116,93.4146353 C46.5985503,93.1687866 46.3109955,92.4666101 46.7250052,92.2996185 C47.1615342,92.1221899 47.578431,93.8935765 48.0952213,93.7219462 C48.5444535,93.5746689 47.7424181,91.9679546 47.1869406,91.3568118 C47.0102503,91.1619882 46.4772923,90.3177529 46.4772923,90.3177529 L46.2278471,86.8178874 L43.479331,87.1878202 Z" id="Fill-130" fill="#F4C9BC"></path>
                <path d="M59.4248819,58.7735042 C59.4248819,58.7735042 65.3261077,59.9720168 67.8823432,62.8537815 C72.6679948,68.2525966 70.368711,89.9522269 70.368711,89.9522269 C70.368711,89.9522269 67.3424561,90.041521 66.8955335,89.2732437 C66.8955335,89.2732437 66.5675594,75.2500084 65.7949723,75.2500084 C65.2597045,75.2500084 66.0276723,87.3139916 65.4721948,89.486042 C64.3768303,93.7773782 50.7272142,92.9986639 48.190611,89.6025882 C47.7286755,88.9868067 48.6398432,73.0982521 48.6398432,73.0982521 L46.9058529,89.085958 L43.2311561,88.8679412 C43.2311561,88.8679412 40.1771852,66.7519916 47.1362432,61.0394874 C47.9965981,60.3344118 52.4086594,59.2698403 52.4086594,59.2698403 L55.1190658,61.0394874 L59.4248819,58.7735042 Z" id="Fill-132" fill="#5E6E84"></path>
                <polygon id="Fill-134" fill="#9BA8BF" points="56.2874161 59.4943513 54.3790452 61.9905277 56.1459484 62.8069311 58.150171 61.9905277"></polygon>
                <polyline id="Fill-136" fill="#FEFEFE" points="56.2739045 59.4954529 56.2739045 59.4931336 52.9092819 58.6541168 51.7960174 58.9631672 53.6691658 62.924579 55.5717626 60.4202849"></polyline>
                <polygon id="Fill-138" fill="#FEFEFE" points="59.7750868 58.6976622 56.2868965 59.4937714 56.2892061 59.4960908 56.9913481 60.4209227 58.8945223 62.9252168 61.1429932 59.5140655"></polygon>
                <path d="M60.7618965,45.612363 C60.75439,45.5769933 59.9950835,43.6432538 59.3789771,42.9057076 C59.3385577,42.8546824 59.2172997,42.7207412 59.2097932,42.7050857 C58.9776706,42.4470605 58.7299577,42.2110689 58.4649223,41.9930521 C58.1144287,41.8185227 56.1460061,41.4764218 55.6078513,41.6155815 C55.3560965,41.6816824 53.3743932,42.1629429 53.1751835,42.4111109 C52.9326674,42.365884 50.325619,43.8177832 50.1010029,44.1424891 C49.9722384,44.4590773 49.8688803,44.7890017 49.7880416,45.125884 C49.7880416,45.1409597 49.7782255,45.1890857 49.7730287,45.1943042 C49.7603255,45.2551866 49.7476223,45.3183882 49.734919,45.3815899 C49.5507223,46.3249765 49.810561,48.3874387 49.8186448,48.4233882 C49.8636835,48.6205311 49.8261513,50.5241193 50.9694416,51.429237 L50.7719642,48.1189765 C50.7292352,47.9490857 51.0196771,47.3738924 51.027761,47.2069008 C51.0600965,46.4739933 51.7922642,46.6462034 52.5394448,46.4536992 C52.6121997,46.4357244 54.3791029,46.3446908 55.073161,46.167842 C55.767219,45.9875143 57.3597416,45.2145983 57.4353835,45.1966235 C58.1825642,45.0041193 59.2074835,44.9177244 59.5885803,45.5462622 C59.6740384,45.688321 59.9569739,45.9950521 60.0002803,46.167842 L60.908561,48.3625059 C61.4761642,47.0190353 61.1510771,47.1379008 60.7618965,45.612363" id="Fill-140" fill="#141F2C"></path>
                <path d="M60.2273216,51.7679748 C60.1516797,52.6069916 59.8358313,52.974605 59.5840765,53.3468571 C58.6954281,54.6595966 57.03477,53.747521 56.7166119,53.7347647 C56.6103668,53.7295462 56.7062184,53.7121513 56.4966152,53.7446218 C56.2875894,53.7753529 56.1057023,53.7875294 56.0069635,53.823479 C55.7095926,53.9301681 55.2551635,54.5633445 54.5940184,54.6648151 C54.1020571,54.7407731 53.5188635,54.6422017 53.0569281,54.3557647 C52.6758313,54.1174538 52.1786732,53.8588487 51.9713797,53.0453445 C51.9061313,52.7792017 51.8882313,52.2318403 51.1312345,52.3483866 C51.1312345,52.3483866 51.1739635,52.6980252 51.2975313,53.4378908 C51.8582055,56.8038151 54.396541,58.2609328 57.1254248,57.8405546 C59.8537313,57.4195966 61.3504023,53.7828908 61.0570732,51.8642269 C60.9612216,51.2333697 60.9514055,51.1771261 60.9514055,51.1771261 C60.4294184,51.2559832 60.2273216,51.7679748 60.2273216,51.7679748" id="Fill-142" fill="#141F2C"></path>
                <path d="M5.26023258,63.8436706 C4.00838742,63.9503597 2.46090355,57.7913849 3.81148742,54.6968218 C4.07132613,54.0984353 2.57003581,51.9136286 4.18507774,47.610116 C4.68974226,46.2567882 5.89135194,44.9747798 6.53748419,44.2470908 C8.54170677,41.9961832 9.42977774,42.2623261 11.1735842,42.2089815 C12.9179681,42.1562168 15.6942003,42.9494269 16.5297261,44.6320992 C17.3929681,46.3634773 16.5297261,47.610116 17.7359552,49.1640655 C19.7199681,51.7211244 18.2712229,54.0532084 18.3191487,56.1719143 C18.3491745,57.5124857 19.0432326,58.2575697 18.0789423,59.9025529 C18.0789423,59.9025529 17.3346487,62.7790992 16.5551326,63.0046538 C15.0705874,63.4383681 8.05956161,63.6053597 5.26023258,63.8436706" id="Fill-144" fill="#141F2C"></path>
                <path d="M9.96926065,57.8941311 C9.96926065,57.8941311 10.070309,58.142879 9.96926065,57.8941311 C9.96926065,57.8941311 12.3291735,58.4693244 13.4851671,57.5595681 C13.5302058,57.5212992 14.7116058,56.1633328 15.157951,54.0394084 C15.6025639,51.9131647 15.6735865,48.5721731 15.690909,48.4306941 C15.7064994,48.3141479 13.8737703,45.2143664 11.9682865,45.2242235 C11.5513897,45.2265429 10.6205897,45.3001815 10.3832703,45.8730555 C8.70702194,49.8849126 6.41813161,49.5961563 6.41813161,49.5961563 C6.25876387,49.7231395 6.67046387,52.7695765 6.70857355,53.1974924 C6.70857355,53.1974924 7.10988,57.7549714 9.96926065,57.8941311" id="Fill-146" fill="#8A3833"></path>
                <polygon id="Fill-148" fill="#8A3833" points="10.1660452 57.3347092 10.1660452 61.0120034 8.51347097 64.5426 11.037371 65.7643059 14.2599484 64.2463059 12.6073742 61.6127092 12.6073742 57.3347092"></polygon>
                <path d="M3.28719065,64.1680866 C5.03850355,61.8765908 10.1671423,61.020179 10.1671423,61.020179 C10.1671423,61.020179 9.08967774,64.8093807 11.035581,64.9305655 C14.0087132,65.1161118 12.6055842,61.6133471 12.6055842,61.6133471 C12.6055842,61.6133471 16.9466229,62.2163723 18.0928003,62.9260866 C21.646239,65.1288681 21.646239,77.5853975 21.646239,77.5853975 C23.4656874,76.0778345 25.4393068,72.9832714 25.4393068,72.9832714 L29.0741616,75.6035319 C29.0741616,75.6035319 21.2224132,84.0180529 19.6495229,82.2768176 C17.6504971,80.0664983 17.9917519,70.4534647 17.9917519,70.4534647 L18.7868584,96.0843555 C18.7868584,96.0843555 18.7868584,99.2044311 11.2879132,99.2044311 C5.03850355,99.2044311 3.84497774,96.1985824 3.84497774,96.1985824 L4.64008419,71.1939101 C4.90742935,73.3201538 3.39516806,89.1710193 3.39516806,89.1710193 L0.00109709677,89.1907336 C0.00109709677,89.1907336 0.346393871,68.0181706 3.28719065,64.1680866" id="Fill-150" fill="#FEC70D"></path>
                <path d="M36.4877065,31.0502899 C32.1362742,31.1720546 27.6941871,30.6194748 23.7290484,28.7031303 C19.7639097,26.7850462 16.3063226,23.3860714 14.8200452,19.016458 C13.3308806,14.6497437 14.0849903,9.32456723 17.1868871,6.06533193 C19.5548839,3.57901261 22.9085355,2.51965966 26.1570968,1.78211345 C36.2809903,-0.524457983 46.8483419,-0.592878151 56.9993742,1.58207143 C60.4419484,2.31671849 64.0259903,3.42709664 66.4165065,6.16912185 C70.4145581,10.7567521 69.4398742,18.6111555 65.4903258,23.2440126 C61.5402,27.8797689 55.4703677,29.7879958 49.6193774,30.266937 C43.7689645,30.746458 42.3479355,30.7209454 36.4877065,31.0502899" id="Fill-152" fill="#9DCBEE"></path>
                <path d="M32.1525574,29.093937 C29.9491252,31.9930966 26.9453897,34.2695168 23.5657542,35.6048697 C24.8274155,33.1516008 25.5745961,30.4321891 25.7414703,27.6774076" id="Fill-154" fill="#9DCBEE"></path>
                <path d="M79.7664997,9.89036723 C75.4156448,9.77092185 70.9729803,10.3211824 67.0078416,12.2398462 C63.0432803,14.1556109 59.5856932,17.5574849 58.0988384,21.9241992 C56.6096739,26.2909134 57.364361,31.6160899 60.4662577,34.8753252 C62.8336771,37.3639639 66.1879061,38.4209975 69.43589,39.1585437 C79.5597835,41.4651151 90.1271352,41.5335353 100.278745,39.3614849 C103.721319,38.6239387 107.305361,37.5135605 109.6953,34.7715353 C113.693351,30.183905 112.719245,22.3295017 108.769696,17.6966445 C104.819571,13.0608882 98.749161,11.1526613 92.8987481,10.6737202 C87.0483352,10.1941992 85.6249965,10.2197118 79.7664997,9.89036723" id="Fill-156" fill="#FEFEFE"></path>
                <path d="M94.1845455,38.9686487 C96.3874003,41.8678084 99.3917132,44.1442286 102.770771,45.4772622 C101.50911,43.0239933 100.761929,40.3069008 100.595633,37.5521193" id="Fill-158" fill="#FEFEFE"></path>
                <path d="M131.357014,13.2796588 C127.005581,13.1584739 122.563494,13.7104739 118.598355,15.6268185 C114.633217,17.5454824 111.17563,20.9438773 109.689352,25.3134908 C108.200188,29.680205 108.954297,35.0053815 112.056194,38.2646168 C114.424191,40.7509361 117.777843,41.8079697 121.026404,42.5478353 C131.152607,44.8544067 141.717649,44.9228269 151.868681,42.7507765 C155.311255,42.0132303 158.895297,40.9034319 161.285814,38.1608269 C165.283865,33.5737765 164.309181,25.7193731 160.359633,21.0859361 C156.409507,16.4501798 150.339675,14.5419529 144.488685,14.0630118 C138.638272,13.5840706 137.217243,13.6090034 131.357014,13.2796588" id="Fill-160" fill="#D4DDE4"></path>
                <path d="M145.774482,42.3581723 C147.977914,45.2573319 150.98165,47.5337521 154.361285,48.869105 C153.099624,46.4135168 152.354175,43.6964244 152.185569,40.9416429" id="Fill-162" fill="#D4DDE4"></path>
            </g>
        </g>
    </g>
</svg>