<?xml version="1.0" encoding="UTF-8" standalone="no"?>
<svg width="116px" height="107px" viewBox="0 0 116 107" version="1.1" xmlns="http://www.w3.org/2000/svg" xmlns:xlink="http://www.w3.org/1999/xlink">
    <!-- Generator: Sketch 41.2 (35397) - http://www.bohemiancoding.com/sketch -->
    <title>Group 2</title>
    <desc>Created with Sketch.</desc>
    <defs></defs>
    <g id="Page-1" stroke="none" stroke-width="1" fill="none" fill-rule="evenodd">
        <g id="Paso-1-Copy-25" transform="translate(-724.000000, -404.000000)">
            <g id="Group-2" transform="translate(724.000000, 404.000000)">
                <polygon id="Fill-13" fill="#233346" points="99.9235204 68.4507795 115.573213 68.4507795 103.478726 102.510935 94.3322283 89.5312523"></polygon>
                <path d="M50.2638054,85.3167584 C50.2638054,85.3167584 50.0715367,91.8680575 51.1545197,95.1286884 C52.3805271,98.8201178 54.7466096,102.597509 57.3965827,104.218932 C61.0628333,106.461851 70.9962595,107.475808 74.5640215,104.910581 C78.3742774,102.171058 81.3840677,87.9997636 81.3840677,87.9997636 L75.5620531,87.5308256 C75.5620531,87.5308256 73.4828042,97.7478643 71.0651231,99.1797753 C69.2887955,100.231872 63.5101395,100.291947 61.984546,98.7845473 C59.9062781,96.7309427 57.3965827,85.9317331 57.3965827,85.9317331 L50.2638054,85.3167584 Z" id="Fill-15" fill="#2E4760"></path>
                <path d="M28.8950989,6.46588963 C5.60841369,23.5790639 -0.565766609,52.4652895 0.250394499,71.2832797 C0.343782164,73.4305533 3.99002115,82.8766998 3.99002115,82.8766998 L6.28861335,79.319648 L39.4382916,2.79046695 L41.5102814,0.196980897 C41.5102814,0.196980897 30.9084271,4.98635366 28.8950989,6.46588963" id="Fill-17" fill="#FFC809"></path>
                <path d="M33.6301674,6.34749909 C10.3434822,23.4606734 1.03551794,55.7355837 1.85187524,74.5535739 C1.94506671,76.7008475 3.98998191,82.8766801 3.98998191,82.8766801 L12.5669327,82.8766801 L45.7164147,6.34749909 L41.5102421,0.196961136 C41.5102421,0.196961136 35.6434956,4.86796311 33.6301674,6.34749909" id="Fill-19" fill="#6091BA"></path>
                <path d="M13.4497208,59.0641148 C13.0573356,44.844207 19.2974366,30.1735417 28.8951773,26.3589988 C32.8727856,24.7780868 33.7729171,25.4979946 33.7729171,25.4979946 C33.7729171,25.4979946 34.3442299,35.7456635 29.3413193,46.0215912 C24.2803356,56.4166801 14.3996852,65.9966113 14.3996852,65.9966113 C14.3996852,65.9966113 13.4897441,60.513811 13.4497208,59.0641148" id="Fill-21" fill="#EEEBDB"></path>
                <polygon id="Fill-23" fill="#4B7496" points="41.5102421 0.196961136 99.9234419 68.3977004 94.3321498 89.4912157 3.98998191 82.8766801 28.2623386 43.5177033"></polygon>
                <path d="M3.98994267,82.876601 C3.98994267,82.876601 18.174862,72.3969333 21.8532765,67.8579375 C26.1275279,62.5840152 33.7894365,51.712479 36.8947726,45.6654907 C45.6896933,28.5390763 41.5102029,0.19688209 41.5102029,0.19688209 L33.1090407,27.6685867 L26.1697094,46.9108541 L3.98994267,82.876601 Z" id="Fill-25" fill="#FFC809"></path>
            </g>
        </g>
    </g>
</svg>