<?xml version="1.0" encoding="UTF-8" standalone="no"?>
<svg width="170px" height="170px" viewBox="0 0 170 170" version="1.1" xmlns="http://www.w3.org/2000/svg" xmlns:xlink="http://www.w3.org/1999/xlink">
    <!-- Generator: Sketch 41.2 (35397) - http://www.bohemiancoding.com/sketch -->
    <title>Group 25</title>
    <desc>Created with Sketch.</desc>
    <defs></defs>
    <g id="Page-1" stroke="none" stroke-width="1" fill="none" fill-rule="evenodd">
        <g id="Group-25">
            <ellipse id="Oval-2" fill="#F3F8FF" cx="85" cy="85" rx="85" ry="85"></ellipse>
            <g id="Group-8" transform="translate(44.000000, 30.000000)" fill="#7AB7FF">
                <path d="M11.1270213,104.260213 C5.16255319,104.260213 0.308510638,99.4070745 0.308510638,93.4407979 L0.308510638,11.5640957 C0.308510638,5.5987234 5.16255319,0.744680851 11.1270213,0.744680851 L71.2328723,0.744680851 C77.1982447,0.744680851 82.0522872,5.5987234 82.0522872,11.5640957 L82.0522872,70.335266 C82.0522872,71.312766 81.2601596,72.1048936 80.2826596,72.1048936 C79.3042553,72.1048936 78.5130319,71.312766 78.5130319,70.335266 L78.5130319,11.5640957 C78.5130319,7.55010638 75.247766,4.28393617 71.2328723,4.28393617 L11.1270213,4.28393617 C7.11303191,4.28393617 3.84776596,7.55010638 3.84776596,11.5640957 L3.84776596,93.4407979 C3.84776596,97.4556915 7.11303191,100.720957 11.1270213,100.720957 L56.2403191,100.720957 C57.2187234,100.720957 58.0099468,101.513085 58.0099468,102.490585 C58.0099468,103.468085 57.2187234,104.260213 56.2403191,104.260213 L11.1270213,104.260213 Z" id="Fill-1"></path>
                <path d="M16.5073404,28.8109574 L66.1789894,28.8109574 L66.1789894,21.463883 L16.5073404,21.463883 L16.5073404,28.8109574 Z M67.948617,32.3502128 L14.7377128,32.3502128 C13.7593085,32.3502128 12.9680851,31.5580851 12.9680851,30.5805851 L12.9680851,19.6951596 C12.9680851,18.7176596 13.7593085,17.9255319 14.7377128,17.9255319 L67.948617,17.9255319 C68.9270213,17.9255319 69.7182447,18.7176596 69.7182447,19.6951596 L69.7182447,30.5805851 C69.7182447,31.5580851 68.9270213,32.3502128 67.948617,32.3502128 L67.948617,32.3502128 Z" id="Fill-4"></path>
                <path d="M67.948617,49.4967021 L14.7377128,49.4967021 C13.7593085,49.4967021 12.9680851,48.7045745 12.9680851,47.7270745 C12.9680851,46.7504787 13.7593085,45.9574468 14.7377128,45.9574468 L67.948617,45.9574468 C68.9270213,45.9574468 69.7182447,46.7504787 69.7182447,47.7270745 C69.7182447,48.7045745 68.9270213,49.4967021 67.948617,49.4967021" id="Fill-6"></path>
                <path d="M67.948617,56.7307447 L14.7377128,56.7307447 C13.7593085,56.7307447 12.9680851,55.938617 12.9680851,54.961117 C12.9680851,53.983617 13.7593085,53.1914894 14.7377128,53.1914894 L67.948617,53.1914894 C68.9270213,53.1914894 69.7182447,53.983617 69.7182447,54.961117 C69.7182447,55.938617 68.9270213,56.7307447 67.948617,56.7307447" id="Fill-7"></path>
                <path d="M67.948617,64.8690426 L14.7377128,64.8690426 C13.7593085,64.8690426 12.9680851,64.0769149 12.9680851,63.0994149 C12.9680851,62.1219149 13.7593085,61.3297872 14.7377128,61.3297872 L67.948617,61.3297872 C68.9270213,61.3297872 69.7182447,62.1219149 69.7182447,63.0994149 C69.7182447,64.0769149 68.9270213,64.8690426 67.948617,64.8690426" id="Fill-8"></path>
                <path d="M67.948617,72.1030851 L14.7377128,72.1030851 C13.7593085,72.1030851 12.9680851,71.3109574 12.9680851,70.3334574 C12.9680851,69.3559574 13.7593085,68.5638298 14.7377128,68.5638298 L67.948617,68.5638298 C68.9270213,68.5638298 69.7182447,69.3559574 69.7182447,70.3334574 C69.7182447,71.3109574 68.9270213,72.1030851 67.948617,72.1030851" id="Fill-9"></path>
                <path d="M51.1602128,79.3371277 L14.7377128,79.3371277 C13.7593085,79.3371277 12.9680851,78.545 12.9680851,77.5675 C12.9680851,76.59 13.7593085,75.7978723 14.7377128,75.7978723 L51.1602128,75.7978723 C52.138617,75.7978723 52.9298404,76.59 52.9298404,77.5675 C52.9298404,78.545 52.138617,79.3371277 51.1602128,79.3371277" id="Fill-10"></path>
                <path d="M48.653617,87.4754255 L14.7377128,87.4754255 C13.7593085,87.4754255 12.9680851,86.6832979 12.9680851,85.7057979 C12.9680851,84.7292021 13.7593085,83.9361702 14.7377128,83.9361702 L48.653617,83.9361702 C49.631117,83.9361702 50.4232447,84.7292021 50.4232447,85.7057979 C50.4232447,86.6832979 49.631117,87.4754255 48.653617,87.4754255" id="Fill-11"></path>
                <path d="M64.1932447,77.528617 C63.8342553,77.528617 55.3894149,77.6253723 55.3894149,86.0186702 C55.3894149,96.2729255 70.0085106,105.994574 73.7792553,108.33117 C77.5481915,105.994574 92.1672872,96.2729255 92.1672872,86.0186702 C92.1672872,77.6253723 83.7224468,77.528617 83.3616489,77.528617 C77.7688298,77.528617 75.4729255,82.1575 75.3770745,82.3537234 C75.081383,82.9659043 74.4601596,83.3601596 73.7810638,83.3601596 L73.7720213,83.3601596 C73.0875,83.3556383 72.4671809,82.9640957 72.1769149,82.3455851 C72.0855851,82.1575 69.7878723,77.528617 64.1932447,77.528617 M73.7792553,112.167021 C73.4763298,112.167021 73.1743085,112.089255 72.9030319,111.934628 C72.0439894,111.445426 51.8510638,99.7832447 51.8510638,86.0186702 C51.8510638,76.5040957 59.9233511,73.9893617 64.1932447,73.9893617 C69.0382447,73.9893617 72.1045745,76.4733511 73.7792553,78.4518617 C75.4512234,76.4733511 78.5175532,73.9893617 83.3616489,73.9893617 C87.6324468,73.9893617 95.7056383,76.5040957 95.7056383,86.0186702 C95.7056383,99.7832447 75.5145213,111.445426 74.6545745,111.933723 C74.3842021,112.088351 74.0812766,112.167021 73.7792553,112.167021" id="Fill-12"></path>
            </g>
        </g>
    </g>
</svg>