<?xml version="1.0" encoding="UTF-8" standalone="no"?>
<svg width="170px" height="170px" viewBox="0 0 170 170" version="1.1" xmlns="http://www.w3.org/2000/svg" xmlns:xlink="http://www.w3.org/1999/xlink">
    <!-- Generator: Sketch 41.2 (35397) - http://www.bohemiancoding.com/sketch -->
    <title>Group 24</title>
    <desc>Created with Sketch.</desc>
    <defs></defs>
    <g id="Page-1" stroke="none" stroke-width="1" fill="none" fill-rule="evenodd">
        <g id="Group-24">
            <g id="Group-22">
                <circle id="Oval-2-Copy-2" fill="#F3F8FF" cx="85" cy="85" r="85"></circle>
                <g id="Group-9" transform="translate(44.000000, 30.000000)" fill="#7AB7FF">
                    <path d="M50.7017553,102.490585 C50.7017553,101.513085 49.9105319,100.720957 48.9330319,100.720957 L11.1270213,100.720957 C7.11303191,100.720957 3.84776596,97.4556915 3.84776596,93.4407979 L3.84776596,11.5640957 C3.84776596,7.55010638 7.11303191,4.28393617 11.1270213,4.28393617 L71.2328723,4.28393617 C75.2468617,4.28393617 78.5130319,7.55010638 78.5130319,11.5640957 L78.5130319,66.0680851 C78.5130319,67.0455851 79.3042553,67.8377128 80.2826596,67.8377128 C81.2601596,67.8377128 82.051383,67.0455851 82.051383,66.0680851 L82.051383,11.5640957 C82.051383,5.5987234 77.1982447,0.744680851 71.2328723,0.744680851 L11.1270213,0.744680851 C5.16255319,0.744680851 0.308510638,5.5987234 0.308510638,11.5640957 L0.308510638,93.4407979 C0.308510638,99.4070745 5.16255319,104.260213 11.1270213,104.260213 L48.9330319,104.260213 C49.9105319,104.260213 50.7017553,103.468085 50.7017553,102.490585" id="Fill-1"></path>
                    <path d="M16.5073404,28.8109574 L66.1789894,28.8109574 L66.1789894,21.463883 L16.5073404,21.463883 L16.5073404,28.8109574 Z M69.7182447,19.6951596 C69.7182447,18.7176596 68.926117,17.9255319 67.948617,17.9255319 L14.7377128,17.9255319 C13.7593085,17.9255319 12.9680851,18.7176596 12.9680851,19.6951596 L12.9680851,30.5805851 C12.9680851,31.5580851 13.7593085,32.3502128 14.7377128,32.3502128 L67.948617,32.3502128 C68.926117,32.3502128 69.7182447,31.5580851 69.7182447,30.5805851 L69.7182447,19.6951596 Z" id="Fill-4"></path>
                    <path d="M67.948617,45.9574468 L14.7377128,45.9574468 C13.7593085,45.9574468 12.9680851,46.7495745 12.9680851,47.7270745 C12.9680851,48.7045745 13.7593085,49.4967021 14.7377128,49.4967021 L67.948617,49.4967021 C68.926117,49.4967021 69.7182447,48.7045745 69.7182447,47.7270745 C69.7182447,46.7495745 68.926117,45.9574468 67.948617,45.9574468" id="Fill-6"></path>
                    <path d="M67.948617,53.1914894 L14.7377128,53.1914894 C13.7593085,53.1914894 12.9680851,53.983617 12.9680851,54.961117 C12.9680851,55.938617 13.7593085,56.7307447 14.7377128,56.7307447 L67.948617,56.7307447 C68.926117,56.7307447 69.7182447,55.938617 69.7182447,54.961117 C69.7182447,53.983617 68.926117,53.1914894 67.948617,53.1914894" id="Fill-7"></path>
                    <path d="M67.948617,61.3297872 L14.7377128,61.3297872 C13.7593085,61.3297872 12.9680851,62.1219149 12.9680851,63.0994149 C12.9680851,64.0769149 13.7593085,64.8690426 14.7377128,64.8690426 L67.948617,64.8690426 C68.926117,64.8690426 69.7182447,64.0769149 69.7182447,63.0994149 C69.7182447,62.1219149 68.926117,61.3297872 67.948617,61.3297872" id="Fill-8"></path>
                    <path d="M67.948617,68.5638298 L14.7377128,68.5638298 C13.7593085,68.5638298 12.9680851,69.3559574 12.9680851,70.3334574 C12.9680851,71.3100532 13.7593085,72.1030851 14.7377128,72.1030851 L67.948617,72.1030851 C68.926117,72.1030851 69.7182447,71.3100532 69.7182447,70.3334574 C69.7182447,69.3559574 68.926117,68.5638298 67.948617,68.5638298" id="Fill-9"></path>
                    <path d="M69.7182447,77.5675 C69.7182447,76.59 68.926117,75.7978723 67.948617,75.7978723 L14.7377128,75.7978723 C13.7593085,75.7978723 12.9680851,76.59 12.9680851,77.5675 C12.9680851,78.545 13.7593085,79.3371277 14.7377128,79.3371277 L67.948617,79.3371277 C68.926117,79.3371277 69.7182447,78.545 69.7182447,77.5675" id="Fill-10"></path>
                    <path d="M14.7377128,83.9361702 C13.7593085,83.9361702 12.9680851,84.7282979 12.9680851,85.7057979 C12.9680851,86.6832979 13.7593085,87.4754255 14.7377128,87.4754255 L60.5970213,87.4754255 C61.5754255,87.4754255 62.3666489,86.6832979 62.3666489,85.7057979 C62.3666489,84.7282979 61.5754255,83.9361702 60.5970213,83.9361702 L14.7377128,83.9361702 Z" id="Fill-11"></path>
                    <path d="M91.2061134,78.7258511 L84.043507,71.5632447 L87.2924964,68.3142553 L94.4551028,75.4768617 L91.2061134,78.7258511 Z M64.9980815,104.934787 L57.8354751,97.7721809 L81.5414326,74.0653191 L88.704039,81.2279255 L64.9980815,104.934787 Z M57.5904219,107.112234 L55.1769645,104.699681 L56.2032943,101.144149 L61.4090921,106.349043 L57.5904219,107.112234 Z M98.2077624,74.2262766 L88.5439858,64.5606915 C87.8522304,63.8698404 86.7327624,63.8698404 86.041007,64.5606915 L54.0819113,96.5206915 C54.0602092,96.5423936 54.0529751,96.572234 54.0330815,96.5948404 C53.9526028,96.6834574 53.896539,96.7874468 53.8350496,96.8923404 C53.7744645,96.9945213 53.7120709,97.0912766 53.6749964,97.2015957 C53.6641453,97.2305319 53.641539,97.252234 53.6324964,97.2820745 L50.086007,109.585372 C50.0805815,109.607979 50.086007,109.630585 50.0805815,109.653191 C50.0525496,109.764415 50.0579751,109.881064 50.0525496,109.998617 C50.0471241,110.119787 50.0335602,110.239149 50.0516453,110.356702 C50.0552624,110.379309 50.0471241,110.400106 50.0516453,110.421809 C50.075156,110.536649 50.1312198,110.631596 50.1746241,110.735585 C50.2053687,110.811543 50.2216453,110.890213 50.2632411,110.960745 C50.3672304,111.141596 50.4992517,111.301649 50.6565921,111.431862 C50.6755815,111.447234 50.6945709,111.458085 50.7135602,111.472553 C50.8745177,111.595532 51.0544645,111.68867 51.2488794,111.751064 C51.2669645,111.756489 51.2796241,111.770053 51.2959007,111.775479 C51.4604751,111.823404 51.6259538,111.846011 51.7869113,111.846011 C51.7923368,111.846011 51.7977624,111.843298 51.8031879,111.843298 C51.9116985,111.842394 52.0229219,111.832447 52.1341453,111.80984 L65.3444113,109.171223 C65.3995709,109.161277 65.4402624,109.125106 65.4927092,109.109734 C65.6066453,109.076277 65.7124432,109.03016 65.8182411,108.973191 C65.9267517,108.915319 66.023507,108.852926 66.1157411,108.776064 C66.1582411,108.740798 66.2097836,108.727234 66.2486666,108.687447 L98.2077624,76.7283511 C98.8995177,76.0365957 98.8995177,74.9171277 98.2077624,74.2262766 L98.2077624,74.2262766 Z" id="Fill-12"></path>
                </g>
            </g>
        </g>
    </g>
</svg>