<?xml version="1.0" encoding="UTF-8" standalone="no"?>
<svg width="170px" height="170px" viewBox="0 0 170 170" version="1.1" xmlns="http://www.w3.org/2000/svg" xmlns:xlink="http://www.w3.org/1999/xlink">
    <!-- Generator: Sketch 41.2 (35397) - http://www.bohemiancoding.com/sketch -->
    <title>Group 18</title>
    <desc>Created with Sketch.</desc>
    <defs></defs>
    <g id="Page-1" stroke="none" stroke-width="1" fill="none" fill-rule="evenodd">
        <g id="Group-18">
            <ellipse id="Oval-2-Copy-4" fill="#F3F8FF" cx="85" cy="85.2787856" rx="85" ry="84.502924"></ellipse>
            <path d="M94.7017553,132.491648 C94.7017553,131.519864 93.9105319,130.732369 92.9330319,130.732369 L55.1270213,130.732369 C51.1130319,130.732369 47.847766,127.486198 47.847766,123.494784 L47.847766,42.0968925 C47.847766,38.1063768 51.1130319,34.859307 55.1270213,34.859307 L115.232872,34.859307 C119.246862,34.859307 122.513032,38.1063768 122.513032,42.0968925 L122.513032,96.2821451 C122.513032,97.2539287 123.304255,98.041424 124.28266,98.041424 C125.26016,98.041424 126.051383,97.2539287 126.051383,96.2821451 L126.051383,42.0968925 C126.051383,36.1664054 121.198245,31.340749 115.232872,31.340749 L55.1270213,31.340749 C49.1625532,31.340749 44.3085106,36.1664054 44.3085106,42.0968925 L44.3085106,123.494784 C44.3085106,129.42617 49.1625532,134.250927 55.1270213,134.250927 L92.9330319,134.250927 C93.9105319,134.250927 94.7017553,133.463432 94.7017553,132.491648" id="Fill-1" fill="#233346"></path>
            <path d="M60.5073404,59.2428954 L110.178989,59.2428954 L110.178989,51.9387862 L60.5073404,51.9387862 L60.5073404,59.2428954 Z M113.718245,50.1804062 C113.718245,49.2086226 112.926117,48.4211273 111.948617,48.4211273 L58.7377128,48.4211273 C57.7593085,48.4211273 56.9680851,49.2086226 56.9680851,50.1804062 L56.9680851,61.0021743 C56.9680851,61.9739579 57.7593085,62.7614533 58.7377128,62.7614533 L111.948617,62.7614533 C112.926117,62.7614533 113.718245,61.9739579 113.718245,61.0021743 L113.718245,50.1804062 Z" id="Fill-4" fill="#233346"></path>
            <path d="M111.948617,76.2891129 L58.7377128,76.2891129 C57.7593085,76.2891129 56.9680851,77.0766082 56.9680851,78.0483918 C56.9680851,79.0201754 57.7593085,79.8076708 58.7377128,79.8076708 L111.948617,79.8076708 C112.926117,79.8076708 113.718245,79.0201754 113.718245,78.0483918 C113.718245,77.0766082 112.926117,76.2891129 111.948617,76.2891129" id="Fill-6" fill="#233346"></path>
            <path d="M111.948617,83.4808511 L58.7377128,83.4808511 C57.7593085,83.4808511 56.9680851,84.2683464 56.9680851,85.24013 C56.9680851,86.2119136 57.7593085,86.999409 58.7377128,86.999409 L111.948617,86.999409 C112.926117,86.999409 113.718245,86.2119136 113.718245,85.24013 C113.718245,84.2683464 112.926117,83.4808511 111.948617,83.4808511" id="Fill-7" fill="#233346"></path>
            <path d="M111.948617,91.5715566 L58.7377128,91.5715566 C57.7593085,91.5715566 56.9680851,92.3590519 56.9680851,93.3308355 C56.9680851,94.3026191 57.7593085,95.0901145 58.7377128,95.0901145 L111.948617,95.0901145 C112.926117,95.0901145 113.718245,94.3026191 113.718245,93.3308355 C113.718245,92.3590519 112.926117,91.5715566 111.948617,91.5715566" id="Fill-8" fill="#233346"></path>
            <path d="M111.948617,98.7632948 L58.7377128,98.7632948 C57.7593085,98.7632948 56.9680851,99.5507901 56.9680851,100.522574 C56.9680851,101.493458 57.7593085,102.281853 58.7377128,102.281853 L111.948617,102.281853 C112.926117,102.281853 113.718245,101.493458 113.718245,100.522574 C113.718245,99.5507901 112.926117,98.7632948 111.948617,98.7632948" id="Fill-9" fill="#233346"></path>
            <path d="M113.718245,107.714312 C113.718245,106.742528 112.926117,105.955033 111.948617,105.955033 L58.7377128,105.955033 C57.7593085,105.955033 56.9680851,106.742528 56.9680851,107.714312 C56.9680851,108.686096 57.7593085,109.473591 58.7377128,109.473591 L111.948617,109.473591 C112.926117,109.473591 113.718245,108.686096 113.718245,107.714312" id="Fill-10" fill="#233346"></path>
            <path d="M58.7377128,114.045738 C57.7593085,114.045738 56.9680851,114.833234 56.9680851,115.805017 C56.9680851,116.776801 57.7593085,117.564296 58.7377128,117.564296 L104.597021,117.564296 C105.575426,117.564296 106.366649,116.776801 106.366649,115.805017 C106.366649,114.833234 105.575426,114.045738 104.597021,114.045738 L58.7377128,114.045738 Z" id="Fill-11" fill="#233346"></path>
            <path d="M135.206113,108.865889 L128.043507,101.745169 L131.292496,98.5151798 L138.455103,105.6359 L135.206113,108.865889 Z M108.998082,134.921557 L101.835475,127.800837 L125.541433,104.232612 L132.704039,111.353331 L108.998082,134.921557 Z M101.590422,137.08627 L99.1769645,134.687825 L100.203294,131.153086 L105.409092,136.327541 L101.590422,137.08627 Z M142.207762,104.392628 L132.543986,94.7835666 C131.85223,94.0967556 130.732762,94.0967556 130.041007,94.7835666 L98.0819113,126.556666 C98.0602092,126.578241 98.0529751,126.607907 98.0330815,126.630381 C97.9526028,126.71848 97.896539,126.821861 97.8350496,126.926142 C97.7744645,127.027725 97.7120709,127.123914 97.6749964,127.233588 C97.6641453,127.262355 97.641539,127.283931 97.6324964,127.313596 L94.086007,139.544945 C94.0805815,139.567419 94.086007,139.589894 94.0805815,139.612368 C94.0525496,139.722941 94.0579751,139.838908 94.0525496,139.955773 C94.0471241,140.076235 94.0335602,140.194899 94.0516453,140.311764 C94.0552624,140.334239 94.0471241,140.354915 94.0516453,140.37649 C94.075156,140.490659 94.1312198,140.58505 94.1746241,140.688432 C94.2053687,140.763945 94.2216453,140.842155 94.2632411,140.912274 C94.3672304,141.092068 94.4992517,141.251185 94.6565921,141.380636 C94.6755815,141.395919 94.6945709,141.406706 94.7135602,141.42109 C94.8745177,141.54335 95.0544645,141.635943 95.2488794,141.697972 C95.2669645,141.703366 95.2796241,141.71685 95.2959007,141.722244 C95.4604751,141.769889 95.6259538,141.792363 95.7869113,141.792363 C95.7923368,141.792363 95.7977624,141.789667 95.8031879,141.789667 C95.9116985,141.788768 96.0229219,141.778879 96.1341453,141.756405 L109.344411,139.133218 C109.399571,139.12333 109.440262,139.087371 109.492709,139.072088 C109.606645,139.038827 109.712443,138.992979 109.818241,138.936344 C109.926752,138.878811 110.023507,138.816782 110.115741,138.74037 C110.158241,138.70531 110.209784,138.691825 110.248667,138.652271 L142.207762,106.88007 C142.899518,106.19236 142.899518,105.079439 142.207762,104.392628 L142.207762,104.392628 Z" id="Fill-12" fill="#233346"></path>
        </g>
    </g>
</svg>