<?xml version="1.0" encoding="UTF-8" standalone="no"?>
<svg width="170px" height="170px" viewBox="0 0 170 170" version="1.1" xmlns="http://www.w3.org/2000/svg" xmlns:xlink="http://www.w3.org/1999/xlink">
    <!-- Generator: Sketch 41.2 (35397) - http://www.bohemiancoding.com/sketch -->
    <title>Group 21</title>
    <desc>Created with Sketch.</desc>
    <defs></defs>
    <g id="Page-1" stroke="none" stroke-width="1" fill="none" fill-rule="evenodd">
        <g id="Group-21">
            <circle id="Oval-2-Copy" fill="#F3F8FF" cx="85" cy="85" r="85"></circle>
            <path d="M47.9273404,94.7798404 C47.9273404,89.6843617 52.0733511,85.5383511 57.1679255,85.5383511 C62.2634043,85.5383511 66.4085106,89.6843617 66.4085106,94.7798404 C66.4085106,99.8753191 62.2634043,104.020426 57.1679255,104.020426 C52.0733511,104.020426 47.9273404,99.8753191 47.9273404,94.7798404 M69.0209043,104.099096 C68.3463298,103.696702 67.6473404,103.336809 66.9347872,103.004947 C68.811117,100.780479 69.947766,97.9112766 69.947766,94.7798404 C69.947766,87.7329787 64.2147872,82 57.1679255,82 C50.1210638,82 44.3889894,87.7329787 44.3889894,94.7798404 C44.3889894,97.9139894 45.5265426,100.784096 47.4055851,103.009468 C39.2980319,106.77117 34,114.904947 34,124.009894 C34,124.987394 34.7912234,125.779521 35.7696277,125.779521 C36.7480319,125.779521 37.5392553,124.987394 37.5392553,124.009894 C37.5392553,115.748617 42.6835638,108.429574 50.3932447,105.595638 C52.3590957,106.83266 54.6776064,107.559681 57.1679255,107.559681 C59.6528191,107.559681 61.9668085,106.835372 63.9308511,105.603777 C65.063883,106.019734 66.1706915,106.518883 67.2069681,107.138298 C67.4927128,107.308298 67.8028723,107.388777 68.1121277,107.388777 C68.715266,107.388777 69.3030319,107.08133 69.6330851,106.526117 C70.1349468,105.686968 69.8600532,104.600053 69.0209043,104.099096" id="Fill-1" fill="#7AB7FF"></path>
            <path d="M100.539255,94.7798404 C100.539255,89.6843617 104.684362,85.5383511 109.778936,85.5383511 C114.875319,85.5383511 119.019521,89.6843617 119.019521,94.7798404 C119.019521,99.8753191 114.875319,104.020426 109.778936,104.020426 C104.684362,104.020426 100.539255,99.8753191 100.539255,94.7798404 M119.542181,103.009468 C121.420319,100.784096 122.559681,97.9139894 122.559681,94.7798404 C122.559681,87.7329787 116.825798,82 109.778936,82 C102.732074,82 97,87.7329787 97,94.7798404 C97,97.9112766 98.1366489,100.780479 100.012979,103.004947 C99.3058511,103.334096 98.611383,103.691277 97.942234,104.090957 C97.1021809,104.591915 96.8272872,105.677926 97.3264362,106.51617 C97.6582979,107.072287 98.2460638,107.380638 98.8492021,107.380638 C99.1566489,107.380638 99.468617,107.30016 99.7525532,107.131064 C100.787021,106.514362 101.8875,106.016117 103.014202,105.602872 C104.978245,106.835372 107.293138,107.559681 109.778936,107.559681 C112.269255,107.559681 114.586862,106.83266 116.553617,105.596543 C124.268723,108.42867 129.409415,115.726915 129.409415,124.009894 C129.409415,124.987394 130.200638,125.779521 131.178138,125.779521 C132.156543,125.779521 132.947766,124.987394 132.947766,124.009894 C132.947766,114.881436 127.65516,106.768457 119.542181,103.009468" id="Fill-3" fill="#7AB7FF"></path>
            <path d="M74.9282447,102.780745 C74.9282447,97.6843617 79.0733511,93.5392553 84.169734,93.5392553 C89.2643085,93.5392553 93.4103191,97.6843617 93.4103191,102.780745 C93.4103191,107.875319 89.2643085,112.02133 84.169734,112.02133 C79.0733511,112.02133 74.9282447,107.875319 74.9282447,102.780745 M93.9320745,111.010372 C95.811117,108.785 96.9504787,105.914894 96.9504787,102.780745 C96.9504787,95.733883 91.2165957,90 84.169734,90 C77.1228723,90 71.3889894,95.733883 71.3889894,102.780745 C71.3889894,105.914894 72.5274468,108.785 74.4073936,111.010372 C66.2944149,114.77117 61,122.893191 61,132.010798 C61,132.988298 61.7921277,133.780426 62.7696277,133.780426 C63.7480319,133.780426 64.5392553,132.988298 64.5392553,132.010798 C64.5392553,123.736862 69.6817553,116.430479 77.3959574,113.597447 C79.3618085,114.833564 81.6803191,115.559681 84.169734,115.559681 C86.6591489,115.559681 88.9767553,114.833564 90.9435106,113.597447 C98.662234,116.430479 103.799309,123.722394 103.799309,132.010798 C103.799309,132.988298 104.591436,133.780426 105.568936,133.780426 C106.54734,133.780426 107.338564,132.988298 107.338564,132.010798 C107.338564,122.876915 102.047766,114.768457 93.9320745,111.010372" id="Fill-6" fill="#7AB7FF"></path>
            <path d="M56.7701596,80.626383 C56.4175,80.626383 56.0639362,80.5214894 55.7601064,80.3080851 C55.0873404,79.8405851 54.8251064,78.9734043 55.1235106,78.2120213 L57.7503723,71.5033511 C53.4307447,71.2311702 50,67.6295213 50,63.2429787 L50,48.2766489 C50,43.7128723 53.7119681,40 58.2757447,40 L77.8492553,40 C78.8267553,40 79.618883,40.7921277 79.618883,41.7696277 C79.618883,42.7462234 78.8267553,43.5392553 77.8492553,43.5392553 L58.2757447,43.5392553 C55.6642553,43.5392553 53.5392553,45.6642553 53.5392553,48.2766489 L53.5392553,63.2429787 C53.5392553,65.8553723 55.6642553,67.9812766 58.2757447,67.9812766 L60.3365426,67.9812766 C60.9215957,67.9812766 61.4686702,68.269734 61.7996277,68.7535106 C62.1287766,69.236383 62.1984043,69.8512766 61.9840957,70.3956383 L61.1114894,72.6273404 L65.8307979,68.4279787 C66.5578191,67.7787234 67.6781915,67.8438298 68.3292553,68.5744681 C68.9785106,69.3042021 68.9134043,70.422766 68.1836702,71.0720213 L57.9475,80.1787766 C57.6138298,80.4753723 57.1924468,80.626383 56.7701596,80.626383" id="Fill-9" fill="#7AB7FF"></path>
            <path d="M88.7489362,88.2754255 C88.2787234,88.2754255 87.8148404,88.0873404 87.4721277,87.7310638 L80.5500532,80.5196277 L77.2766489,80.5196277 C72.7137766,80.5196277 69,76.8076596 69,72.243883 L69,57.2766489 C69,52.7128723 72.7137766,49 77.2766489,49 L78.1619149,49 C79.1394149,49 79.9315426,49.7921277 79.9315426,50.7696277 C79.9315426,51.7471277 79.1394149,52.5392553 78.1619149,52.5392553 L77.2766489,52.5392553 C74.6642553,52.5392553 72.5383511,54.6651596 72.5383511,57.2766489 L72.5383511,72.243883 C72.5383511,74.8553723 74.6642553,76.9812766 77.2766489,76.9812766 L81.3032979,76.9812766 C81.785266,76.9812766 82.2473404,77.1775 82.5801064,77.5256383 L86.1826596,81.2782979 L85.8462766,79.0104255 C85.7703191,78.5013298 85.9204255,77.985 86.2577128,77.595266 C86.5922872,77.2046277 87.0814894,76.9812766 87.5969149,76.9812766 L100.220319,76.9812766 C102.832713,76.9812766 104.958617,74.8553723 104.958617,72.243883 L104.958617,68.638617 C104.958617,67.661117 105.74984,66.8689894 106.72734,66.8689894 C107.705745,66.8689894 108.496968,67.661117 108.496968,68.638617 L108.496968,72.243883 C108.496968,76.8076596 104.783191,80.5196277 100.220319,80.5196277 L89.647766,80.5196277 L90.5004787,86.2453723 C90.6126064,87.0076596 90.2201596,87.7554787 89.5284043,88.0936702 C89.279734,88.2166489 89.013883,88.2754255 88.7489362,88.2754255" id="Fill-11" fill="#7AB7FF"></path>
            <path d="M88.2775532,36.5392553 C85.6642553,36.5392553 83.5392553,38.6651596 83.5392553,41.2766489 L83.5392553,56.243883 C83.5392553,58.8553723 85.6642553,60.9812766 88.2775532,60.9812766 L107.885426,60.9812766 C108.570851,60.9812766 109.194787,61.3764362 109.486862,61.9967553 L110.784468,64.7574468 L110.948138,62.445266 C111.002394,61.6739362 111.551277,61.0273936 112.304521,60.8483511 C114.422287,60.3464894 115.957713,58.4104787 115.957713,56.243883 L115.957713,41.2766489 C115.957713,38.6651596 113.832713,36.5392553 111.221223,36.5392553 L88.2775532,36.5392553 Z M112.073032,73.4202128 C111.397553,73.4202128 110.769096,73.0322872 110.471596,72.404734 L106.761436,64.5196277 L88.2775532,64.5196277 C83.7137766,64.5196277 80,60.8076596 80,56.243883 L80,41.2766489 C80,36.7128723 83.7137766,33 88.2775532,33 L111.221223,33 C115.785904,33 119.496968,36.7128723 119.496968,41.2766489 L119.496968,56.243883 C119.496968,59.640266 117.45516,62.6161702 114.392447,63.8812234 L113.838138,71.7744681 C113.782979,72.5774468 113.189787,73.2420745 112.398564,73.3894681 C112.290053,73.410266 112.181543,73.4202128 112.073032,73.4202128 L112.073032,73.4202128 Z" id="Fill-13" fill="#7AB7FF"></path>
        </g>
    </g>
</svg>