<?xml version="1.0" encoding="UTF-8" standalone="no"?>
<svg width="170px" height="170px" viewBox="0 0 170 170" version="1.1" xmlns="http://www.w3.org/2000/svg" xmlns:xlink="http://www.w3.org/1999/xlink">
    <!-- Generator: Sketch 41.2 (35397) - http://www.bohemiancoding.com/sketch -->
    <title>Group 19</title>
    <desc>Created with Sketch.</desc>
    <defs></defs>
    <g id="Page-1" stroke="none" stroke-width="1" fill="none" fill-rule="evenodd">
        <g id="Group-19">
            <ellipse id="Oval-2-Copy-3" fill="#F3F8FF" cx="85" cy="85.2787856" rx="85" ry="84.502924"></ellipse>
            <path d="M47.9273404,95.001434 C47.9273404,89.9357534 52.0733511,85.8139884 57.1679255,85.8139884 C62.2634043,85.8139884 66.4085106,89.9357534 66.4085106,95.001434 C66.4085106,100.067115 62.2634043,104.187981 57.1679255,104.187981 C52.0733511,104.187981 47.9273404,100.067115 47.9273404,95.001434 M69.0209043,104.266191 C68.3463298,103.86615 67.6473404,103.508361 66.9347872,103.17844 C68.811117,100.966981 69.947766,98.1145577 69.947766,95.001434 C69.947766,87.995782 64.2147872,82.2963295 57.1679255,82.2963295 C50.1210638,82.2963295 44.3889894,87.995782 44.3889894,95.001434 C44.3889894,98.1172546 45.5265426,100.970577 47.4055851,103.182935 C39.2980319,106.922639 34,115.00885 34,124.060551 C34,125.032335 34.7912234,125.81983 35.7696277,125.81983 C36.7480319,125.81983 37.5392553,125.032335 37.5392553,124.060551 C37.5392553,115.847586 42.6835638,108.571345 50.3932447,105.753982 C52.3590957,106.983769 54.6776064,107.706539 57.1679255,107.706539 C59.6528191,107.706539 61.9668085,106.986466 63.9308511,105.762072 C65.063883,106.175597 66.1706915,106.671827 67.2069681,107.28762 C67.4927128,107.456626 67.8028723,107.536634 68.1121277,107.536634 C68.715266,107.536634 69.3030319,107.230985 69.6330851,106.679019 C70.1349468,105.844777 69.8600532,104.764219 69.0209043,104.266191" id="Fill-1-Copy-15" fill="#233346"></path>
            <path d="M100.539255,95.001434 C100.539255,89.9357534 104.684362,85.8139884 109.778936,85.8139884 C114.875319,85.8139884 119.019521,89.9357534 119.019521,95.001434 C119.019521,100.067115 114.875319,104.187981 109.778936,104.187981 C104.684362,104.187981 100.539255,100.067115 100.539255,95.001434 M119.542181,103.182935 C121.420319,100.970577 122.559681,98.1172546 122.559681,95.001434 C122.559681,87.995782 116.825798,82.2963295 109.778936,82.2963295 C102.732074,82.2963295 97,87.995782 97,95.001434 C97,98.1145577 98.1366489,100.966981 100.012979,103.17844 C99.3058511,103.505664 98.611383,103.860757 97.942234,104.2581 C97.1021809,104.756128 96.8272872,105.835788 97.3264362,106.66913 C97.6582979,107.221995 98.2460638,107.528543 98.8492021,107.528543 C99.1566489,107.528543 99.468617,107.448535 99.7525532,107.280428 C100.787021,106.667332 101.8875,106.172001 103.014202,105.761173 C104.978245,106.986466 107.293138,107.706539 109.778936,107.706539 C112.269255,107.706539 114.586862,106.983769 116.553617,105.754881 C124.268723,108.570446 129.409415,115.826011 129.409415,124.060551 C129.409415,125.032335 130.200638,125.81983 131.178138,125.81983 C132.156543,125.81983 132.947766,125.032335 132.947766,124.060551 C132.947766,114.985477 127.65516,106.919942 119.542181,103.182935" id="Fill-3-Copy" fill="#233346"></path>
            <path d="M74.9282447,101.961397 C74.9282447,96.8948177 79.0733511,92.7739517 84.169734,92.7739517 C89.2643085,92.7739517 93.4103191,96.8948177 93.4103191,101.961397 C93.4103191,107.026179 89.2643085,111.147944 84.169734,111.147944 C79.0733511,111.147944 74.9282447,107.026179 74.9282447,101.961397 M93.9320745,110.142898 C95.811117,107.93054 96.9504787,105.077218 96.9504787,101.961397 C96.9504787,94.9557453 91.2165957,89.2553938 84.169734,89.2553938 C77.1228723,89.2553938 71.3889894,94.9557453 71.3889894,101.961397 C71.3889894,105.077218 72.5274468,107.93054 74.4073936,110.142898 C66.2944149,113.881703 61,121.956227 61,131.020514 C61,131.992298 61.7921277,132.779793 62.7696277,132.779793 C63.7480319,132.779793 64.5392553,131.992298 64.5392553,131.020514 C64.5392553,122.794964 69.6817553,115.531308 77.3959574,112.714844 C79.3618085,113.943732 81.6803191,114.665603 84.169734,114.665603 C86.6591489,114.665603 88.9767553,113.943732 90.9435106,112.714844 C98.662234,115.531308 103.799309,122.78058 103.799309,131.020514 C103.799309,131.992298 104.591436,132.779793 105.568936,132.779793 C106.54734,132.779793 107.338564,131.992298 107.338564,131.020514 C107.338564,121.940046 102.047766,113.879006 93.9320745,110.142898" id="Fill-6-Copy" fill="#233346"></path>
            <path d="M56.7701596,80.9307453 C56.4175,80.9307453 56.0639362,80.8264651 55.7601064,80.6143088 C55.0873404,80.1495427 54.8251064,79.2874331 55.1235106,78.5305027 L57.7503723,71.8610645 C53.4307447,71.5904753 50,68.0098886 50,63.6489984 L50,48.770191 C50,44.2331031 53.7119681,40.5419435 58.2757447,40.5419435 L77.8492553,40.5419435 C78.8267553,40.5419435 79.618883,41.3294388 79.618883,42.3012225 C79.618883,43.2721071 78.8267553,44.0605014 77.8492553,44.0605014 L58.2757447,44.0605014 C55.6642553,44.0605014 53.5392553,46.1730745 53.5392553,48.770191 L53.5392553,63.6489984 C53.5392553,66.2461148 55.6642553,68.3595869 58.2757447,68.3595869 L60.3365426,68.3595869 C60.9215957,68.3595869 61.4686702,68.6463575 61.7996277,69.127305 C62.1287766,69.6073535 62.1984043,70.2186512 61.9840957,70.7598295 L61.1114894,72.9784808 L65.8307979,68.8036767 C66.5578191,68.1582182 67.6781915,68.2229439 68.3292553,68.9493094 C68.9785106,69.674776 68.9134043,70.7867986 68.1836702,71.4322571 L57.9475,80.4857565 C57.6138298,80.7806178 57.1924468,80.9307453 56.7701596,80.9307453" id="Fill-9-Copy" fill="#233346"></path>
            <path d="M88.7489362,88.5350566 C88.2787234,88.5350566 87.8148404,88.3480714 87.4721277,87.9938783 L80.5500532,80.8246143 L77.2766489,80.8246143 C72.7137766,80.8246143 69,77.1343536 69,72.5972658 L69,57.7175594 C69,53.1804716 72.7137766,49.4893119 77.2766489,49.4893119 L78.1619149,49.4893119 C79.1394149,49.4893119 79.9315426,50.2768073 79.9315426,51.2485909 C79.9315426,52.2203745 79.1394149,53.0078699 78.1619149,53.0078699 L77.2766489,53.0078699 C74.6642553,53.0078699 72.5383511,55.1213419 72.5383511,57.7175594 L72.5383511,72.5972658 C72.5383511,75.1934833 74.6642553,77.3069553 77.2766489,77.3069553 L81.3032979,77.3069553 C81.785266,77.3069553 82.2473404,77.5020312 82.5801064,77.8481336 L86.1826596,81.5788478 L85.8462766,79.3242379 C85.7703191,78.8181193 85.9204255,78.304809 86.2577128,77.9173541 C86.5922872,77.5290002 87.0814894,77.3069553 87.5969149,77.3069553 L100.220319,77.3069553 C102.832713,77.3069553 104.958617,75.1934833 104.958617,72.5972658 L104.958617,69.0130832 C104.958617,68.0412996 105.74984,67.2538043 106.72734,67.2538043 C107.705745,67.2538043 108.496968,68.0412996 108.496968,69.0130832 L108.496968,72.5972658 C108.496968,77.1343536 104.783191,80.8246143 100.220319,80.8246143 L89.647766,80.8246143 L90.5004787,86.5168751 C90.6126064,87.2747045 90.2201596,88.0181504 89.5284043,88.3543642 C89.279734,88.4766237 89.013883,88.5350566 88.7489362,88.5350566" id="Fill-11-Copy" fill="#233346"></path>
            <path d="M88.2775532,37.1014371 C85.6642553,37.1014371 83.5392553,39.2149092 83.5392553,41.8111267 L83.5392553,56.690833 C83.5392553,59.2870505 85.6642553,61.4005226 88.2775532,61.4005226 L107.885426,61.4005226 C108.570851,61.4005226 109.194787,61.7933713 109.486862,62.4100628 L110.784468,65.1546099 L110.948138,62.8559506 C111.002394,62.0891315 111.551277,61.4463699 112.304521,61.2683744 C114.422287,60.7694476 115.957713,58.8447586 115.957713,56.690833 L115.957713,41.8111267 C115.957713,39.2149092 113.832713,37.1014371 111.221223,37.1014371 L88.2775532,37.1014371 Z M112.073032,73.7667164 C111.397553,73.7667164 110.769096,73.3810595 110.471596,72.7571762 L106.761436,64.9181815 L88.2775532,64.9181815 C83.7137766,64.9181815 80,61.2279209 80,56.690833 L80,41.8111267 C80,37.2740388 83.7137766,33.5828792 88.2775532,33.5828792 L111.221223,33.5828792 C115.785904,33.5828792 119.496968,37.2740388 119.496968,41.8111267 L119.496968,56.690833 C119.496968,60.0673541 117.45516,63.0258554 114.392447,64.2835106 L113.838138,72.130596 C113.782979,72.9288789 113.189787,73.5896199 112.398564,73.7361515 C112.290053,73.7568278 112.181543,73.7667164 112.073032,73.7667164 L112.073032,73.7667164 Z" id="Fill-13-Copy" fill="#233346"></path>
        </g>
    </g>
</svg>