<?xml version="1.0" encoding="UTF-8" standalone="no"?>
<svg width="359px" height="70px" viewBox="0 0 359 70" version="1.1" xmlns="http://www.w3.org/2000/svg" xmlns:xlink="http://www.w3.org/1999/xlink">
    <!-- Generator: Sketch 39.1 (31720) - http://www.bohemiancoding.com/sketch -->
    <title>Group 18</title>
    <desc>Created with Sketch.</desc>
    <defs></defs>
    <g id="Page-1" stroke="none" stroke-width="1" fill="none" fill-rule="evenodd">
        <g id="Home-2do-lanzamiento" transform="translate(-62.000000, -306.000000)">
            <g id="Group-18" transform="translate(62.000000, 306.000000)">
                <path d="M4.405,53.62 C5.1716705,53.62 5.7983309,53.3166697 6.285,52.71 L7.285,53.74 C6.4916627,54.6333378 5.55667205,55.08 4.48,55.08 C3.40332795,55.08 2.51667015,54.7400034 1.82,54.06 C1.12332985,53.3799966 0.775,52.5216719 0.775,51.485 C0.775,50.4483282 1.12999645,49.5833368 1.84,48.89 C2.55000355,48.1966632 3.4183282,47.85 4.445,47.85 C5.5916724,47.85 6.5516628,48.2866623 7.325,49.16 L6.355,50.26 C5.8616642,49.6466636 5.248337,49.34 4.515,49.34 C3.9283304,49.34 3.42666875,49.5316648 3.01,49.915 C2.59333125,50.2983353 2.385,50.8149968 2.385,51.465 C2.385,52.1150033 2.5816647,52.6366647 2.975,53.03 C3.3683353,53.4233353 3.8449972,53.62 4.405,53.62 L4.405,53.62 Z M15.115,49.87 C14.714998,49.4299978 14.2233362,49.21 13.64,49.21 C13.0566637,49.21 12.565002,49.4299978 12.165,49.87 C11.764998,50.3100022 11.565,50.8416636 11.565,51.465 C11.565,52.0883365 11.764998,52.6183312 12.165,53.055 C12.565002,53.4916689 13.0566637,53.71 13.64,53.71 C14.2233362,53.71 14.714998,53.4916689 15.115,53.055 C15.515002,52.6183312 15.715,52.0883365 15.715,51.465 C15.715,50.8416636 15.515002,50.3100022 15.115,49.87 L15.115,49.87 Z M13.635,55.07 C12.6016615,55.07 11.7316702,54.7250035 11.025,54.035 C10.3183298,53.3449966 9.965,52.4866718 9.965,51.46 C9.965,50.4333282 10.3183298,49.5750035 11.025,48.885 C11.7316702,48.1949966 12.6016615,47.85 13.635,47.85 C14.6683385,47.85 15.5383298,48.1949966 16.245,48.885 C16.9516702,49.5750035 17.305,50.4333282 17.305,51.46 C17.305,52.4866718 16.9516702,53.3449966 16.245,54.035 C15.5383298,54.7250035 14.6683385,55.07 13.635,55.07 L13.635,55.07 Z M25.515,48.01 L27.075,48.01 L27.075,55 L25.515,55 L22.185,50.62 L22.185,55 L20.625,55 L20.625,48.01 L22.085,48.01 L25.515,52.51 L25.515,48.01 Z M35.545,49.87 C35.144998,49.4299978 34.6533362,49.21 34.07,49.21 C33.4866637,49.21 32.995002,49.4299978 32.595,49.87 C32.194998,50.3100022 31.995,50.8416636 31.995,51.465 C31.995,52.0883365 32.194998,52.6183312 32.595,53.055 C32.995002,53.4916689 33.4866637,53.71 34.07,53.71 C34.6533362,53.71 35.144998,53.4916689 35.545,53.055 C35.945002,52.6183312 36.145,52.0883365 36.145,51.465 C36.145,50.8416636 35.945002,50.3100022 35.545,49.87 L35.545,49.87 Z M34.065,55.07 C33.0316615,55.07 32.1616702,54.7250035 31.455,54.035 C30.7483298,53.3449966 30.395,52.4866718 30.395,51.46 C30.395,50.4333282 30.7483298,49.5750035 31.455,48.885 C32.1616702,48.1949966 33.0316615,47.85 34.065,47.85 C35.0983385,47.85 35.9683298,48.1949966 36.675,48.885 C37.3816702,49.5750035 37.735,50.4333282 37.735,51.46 C37.735,52.4866718 37.3816702,53.3449966 36.675,54.035 C35.9683298,54.7250035 35.0983385,55.07 34.065,55.07 L34.065,55.07 Z M44.265,53.62 C45.0316705,53.62 45.6583309,53.3166697 46.145,52.71 L47.145,53.74 C46.3516627,54.6333378 45.416672,55.08 44.34,55.08 C43.2633279,55.08 42.3766701,54.7400034 41.68,54.06 C40.9833298,53.3799966 40.635,52.5216719 40.635,51.485 C40.635,50.4483282 40.9899964,49.5833368 41.7,48.89 C42.4100035,48.1966632 43.2783282,47.85 44.305,47.85 C45.4516724,47.85 46.4116628,48.2866623 47.185,49.16 L46.215,50.26 C45.7216642,49.6466636 45.108337,49.34 44.375,49.34 C43.7883304,49.34 43.2866687,49.5316648 42.87,49.915 C42.4533312,50.2983353 42.245,50.8149968 42.245,51.465 C42.245,52.1150033 42.4416647,52.6366647 42.835,53.03 C43.2283353,53.4233353 43.7049972,53.62 44.265,53.62 L44.265,53.62 Z M55.415,48.01 L55.415,49.4 L51.935,49.4 L51.935,50.84 L55.065,50.84 L55.065,52.17 L51.935,52.17 L51.935,53.62 L55.525,53.62 L55.525,55 L50.375,55 L50.375,48.01 L55.415,48.01 Z M66.515,49.36 L66.515,55 L64.955,55 L64.955,49.36 L62.975,49.36 L62.975,48.01 L68.495,48.01 L68.495,49.36 L66.515,49.36 Z M74.535,53.68 C74.9750022,53.68 75.323332,53.518335 75.58,53.195 C75.8366679,52.8716651 75.965,52.4300028 75.965,51.87 L75.965,48.01 L77.525,48.01 L77.525,51.92 C77.525,52.9333384 77.2450028,53.711664 76.685,54.255 C76.1249972,54.7983361 75.4083377,55.07 74.535,55.07 C73.6616623,55.07 72.9433361,54.7966694 72.38,54.25 C71.8166638,53.7033306 71.535,52.9266717 71.535,51.92 L71.535,48.01 L73.095,48.01 L73.095,51.87 C73.095,52.4300028 73.2249987,52.8716651 73.485,53.195 C73.7450013,53.518335 74.0949978,53.68 74.535,53.68 L74.535,53.68 Z M82.78,49.405 C82.6299992,49.528334 82.555,49.6916657 82.555,49.895 C82.555,50.0983344 82.6466657,50.2599994 82.83,50.38 C83.0133342,50.5000006 83.4366633,50.6416659 84.1,50.805 C84.7633366,50.9683342 85.2783315,51.2133317 85.645,51.54 C86.0116685,51.8666683 86.195,52.3433302 86.195,52.97 C86.195,53.5966698 85.9600023,54.1049981 85.49,54.495 C85.0199976,54.885002 84.4016705,55.08 83.635,55.08 C82.5283278,55.08 81.5316711,54.6700041 80.645,53.85 L81.575,52.71 C82.3283371,53.3700033 83.0249968,53.7 83.665,53.7 C83.9516681,53.7 84.1766658,53.638334 84.34,53.515 C84.5033341,53.3916661 84.585,53.2250011 84.585,53.015 C84.585,52.804999 84.4983342,52.638334 84.325,52.515 C84.1516658,52.3916661 83.8083359,52.2666673 83.295,52.14 C82.4816626,51.9466657 81.8866685,51.6950016 81.51,51.385 C81.1333314,51.0749985 80.945,50.5883367 80.945,49.925 C80.945,49.2616634 81.1833309,48.7500018 81.66,48.39 C82.136669,48.0299982 82.7316631,47.85 83.445,47.85 C83.911669,47.85 84.378331,47.9299992 84.845,48.09 C85.311669,48.2500008 85.7183316,48.4766652 86.065,48.77 L85.275,49.91 C84.6683303,49.4499977 84.0416699,49.22 83.395,49.22 C83.1349987,49.22 82.9300007,49.2816661 82.78,49.405 L82.78,49.405 Z M5.19,66.62 C5.9566705,66.62 6.5833309,66.3166697 7.07,65.71 L8.07,66.74 C7.2766627,67.6333378 6.34167205,68.08 5.265,68.08 C4.18832795,68.08 3.30167015,67.7400034 2.605,67.06 C1.90832985,66.3799966 1.56,65.5216719 1.56,64.485 C1.56,63.4483282 1.91499645,62.5833368 2.625,61.89 C3.33500355,61.1966632 4.2033282,60.85 5.23,60.85 C6.3766724,60.85 7.3366628,61.2866623 8.11,62.16 L7.14,63.26 C6.6466642,62.6466636 6.033337,62.34 5.3,62.34 C4.7133304,62.34 4.21166875,62.5316648 3.795,62.915 C3.37833125,63.2983353 3.17,63.8149968 3.17,64.465 C3.17,65.1150033 3.3666647,65.6366647 3.76,66.03 C4.1533353,66.4233353 4.6299972,66.62 5.19,66.62 L5.19,66.62 Z M16.23,68 L15.58,66.49 L12.65,66.49 L12,68 L10.34,68 L13.36,61.01 L14.87,61.01 L17.89,68 L16.23,68 Z M14.12,63.09 L13.24,65.12 L14.99,65.12 L14.12,63.09 Z M25.59,61.01 L27.15,61.01 L27.15,68 L25.59,68 L22.26,63.62 L22.26,68 L20.7,68 L20.7,61.01 L22.16,61.01 L25.59,65.51 L25.59,61.01 Z M36.21,61.925 C36.87667,62.5350031 37.21,63.3833279 37.21,64.47 C37.21,65.5566721 36.8850032,66.4166635 36.235,67.05 C35.5849967,67.6833365 34.59334,68 33.26,68 L30.87,68 L30.87,61.01 L33.34,61.01 C34.5866729,61.01 35.54333,61.314997 36.21,61.925 L36.21,61.925 Z M35.065,66.08 C35.4483352,65.7199982 35.64,65.1966701 35.64,64.51 C35.64,63.8233299 35.4483352,63.2950019 35.065,62.925 C34.6816647,62.5549982 34.0933373,62.37 33.3,62.37 L32.43,62.37 L32.43,66.62 L33.42,66.62 C34.1333369,66.62 34.6816647,66.4400018 35.065,66.08 L35.065,66.08 Z M40.56,61.01 L42.12,61.01 L42.12,68 L40.56,68 L40.56,61.01 Z M51.18,61.925 C51.84667,62.5350031 52.18,63.3833279 52.18,64.47 C52.18,65.5566721 51.8550032,66.4166635 51.205,67.05 C50.5549967,67.6833365 49.56334,68 48.23,68 L45.84,68 L45.84,61.01 L48.31,61.01 C49.5566729,61.01 50.51333,61.314997 51.18,61.925 L51.18,61.925 Z M50.035,66.08 C50.4183352,65.7199982 50.61,65.1966701 50.61,64.51 C50.61,63.8233299 50.4183352,63.2950019 50.035,62.925 C49.6516647,62.5549982 49.0633373,62.37 48.27,62.37 L47.4,62.37 L47.4,66.62 L48.39,66.62 C49.1033369,66.62 49.6516647,66.4400018 50.035,66.08 L50.035,66.08 Z M60.31,68 L59.66,66.49 L56.73,66.49 L56.08,68 L54.42,68 L57.44,61.01 L58.95,61.01 L61.97,68 L60.31,68 Z M58.2,63.09 L57.32,65.12 L59.07,65.12 L58.2,63.09 Z M67.23,62.36 L67.23,68 L65.67,68 L65.67,62.36 L63.69,62.36 L63.69,61.01 L69.21,61.01 L69.21,62.36 L67.23,62.36 Z M76.91,62.87 C76.509998,62.4299978 76.0183362,62.21 75.435,62.21 C74.8516637,62.21 74.360002,62.4299978 73.96,62.87 C73.559998,63.3100022 73.36,63.8416636 73.36,64.465 C73.36,65.0883365 73.559998,65.6183312 73.96,66.055 C74.360002,66.4916689 74.8516637,66.71 75.435,66.71 C76.0183362,66.71 76.509998,66.4916689 76.91,66.055 C77.310002,65.6183312 77.51,65.0883365 77.51,64.465 C77.51,63.8416636 77.310002,63.3100022 76.91,62.87 L76.91,62.87 Z M75.43,68.07 C74.3966615,68.07 73.5266702,67.7250035 72.82,67.035 C72.1133298,66.3449966 71.76,65.4866718 71.76,64.46 C71.76,63.4333282 72.1133298,62.5750035 72.82,61.885 C73.5266702,61.1949966 74.3966615,60.85 75.43,60.85 C76.4633385,60.85 77.3333298,61.1949966 78.04,61.885 C78.7466702,62.5750035 79.1,63.4333282 79.1,64.46 C79.1,65.4866718 78.7466702,66.3449966 78.04,67.035 C77.3333298,67.7250035 76.4633385,68.07 75.43,68.07 L75.43,68.07 Z M83.995,62.405 C83.8449992,62.528334 83.77,62.6916657 83.77,62.895 C83.77,63.0983344 83.8616657,63.2599994 84.045,63.38 C84.2283342,63.5000006 84.6516633,63.6416659 85.315,63.805 C85.9783366,63.9683342 86.4933315,64.2133317 86.86,64.54 C87.2266685,64.8666683 87.41,65.3433302 87.41,65.97 C87.41,66.5966698 87.1750023,67.1049981 86.705,67.495 C86.2349976,67.885002 85.6166705,68.08 84.85,68.08 C83.7433278,68.08 82.7466711,67.6700041 81.86,66.85 L82.79,65.71 C83.5433371,66.3700033 84.2399968,66.7 84.88,66.7 C85.1666681,66.7 85.3916658,66.638334 85.555,66.515 C85.7183341,66.3916661 85.8,66.2250011 85.8,66.015 C85.8,65.804999 85.7133342,65.638334 85.54,65.515 C85.3666658,65.3916661 85.0233359,65.2666673 84.51,65.14 C83.6966626,64.9466657 83.1016685,64.6950016 82.725,64.385 C82.3483314,64.0749985 82.16,63.5883367 82.16,62.925 C82.16,62.2616634 82.3983309,61.7500018 82.875,61.39 C83.351669,61.0299982 83.9466631,60.85 84.66,60.85 C85.126669,60.85 85.593331,60.9299992 86.06,61.09 C86.526669,61.2500008 86.9333316,61.4766652 87.28,61.77 L86.49,62.91 C85.8833303,62.4499977 85.2566699,62.22 84.61,62.22 C84.3499987,62.22 84.1450007,62.2816661 83.995,62.405 L83.995,62.405 Z" id="CONOCE-TUS-CANDIDATO" fill="#5F1A1C"></path>
                <path d="M135.26,48.01 L135.26,49.4 L131.78,49.4 L131.78,50.84 L134.91,50.84 L134.91,52.17 L131.78,52.17 L131.78,53.62 L135.37,53.62 L135.37,55 L130.22,55 L130.22,48.01 L135.26,48.01 Z M143.65,48.01 L145.21,48.01 L145.21,55 L143.65,55 L140.32,50.62 L140.32,55 L138.76,55 L138.76,48.01 L140.22,48.01 L143.65,52.51 L143.65,48.01 Z M152.14,53.62 C152.906671,53.62 153.533331,53.3166697 154.02,52.71 L155.02,53.74 C154.226663,54.6333378 153.291672,55.08 152.215,55.08 C151.138328,55.08 150.25167,54.7400034 149.555,54.06 C148.85833,53.3799966 148.51,52.5216719 148.51,51.485 C148.51,50.4483282 148.864996,49.5833368 149.575,48.89 C150.285004,48.1966632 151.153328,47.85 152.18,47.85 C153.326672,47.85 154.286663,48.2866623 155.06,49.16 L154.09,50.26 C153.596664,49.6466636 152.983337,49.34 152.25,49.34 C151.66333,49.34 151.161669,49.5316648 150.745,49.915 C150.328331,50.2983353 150.12,50.8149968 150.12,51.465 C150.12,52.1150033 150.316665,52.6366647 150.71,53.03 C151.103335,53.4233353 151.579997,53.62 152.14,53.62 L152.14,53.62 Z M161.15,53.68 C161.590002,53.68 161.938332,53.518335 162.195,53.195 C162.451668,52.8716651 162.58,52.4300028 162.58,51.87 L162.58,48.01 L164.14,48.01 L164.14,51.92 C164.14,52.9333384 163.860003,53.711664 163.3,54.255 C162.739997,54.7983361 162.023338,55.07 161.15,55.07 C160.276662,55.07 159.558336,54.7966694 158.995,54.25 C158.431664,53.7033306 158.15,52.9266717 158.15,51.92 L158.15,48.01 L159.71,48.01 L159.71,51.87 C159.71,52.4300028 159.839999,52.8716651 160.1,53.195 C160.360001,53.518335 160.709998,53.68 161.15,53.68 L161.15,53.68 Z M172.8,48.01 L172.8,49.4 L169.32,49.4 L169.32,50.84 L172.45,50.84 L172.45,52.17 L169.32,52.17 L169.32,53.62 L172.91,53.62 L172.91,55 L167.76,55 L167.76,48.01 L172.8,48.01 Z M181.19,48.01 L182.75,48.01 L182.75,55 L181.19,55 L177.86,50.62 L177.86,55 L176.3,55 L176.3,48.01 L177.76,48.01 L181.19,52.51 L181.19,48.01 Z M189.43,49.36 L189.43,55 L187.87,55 L187.87,49.36 L185.89,49.36 L185.89,48.01 L191.41,48.01 L191.41,49.36 L189.43,49.36 Z M200.22,50.33 C200.22,51.4500056 199.776671,52.1733317 198.89,52.5 L200.66,55 L198.74,55 L197.19,52.77 L196.11,52.77 L196.11,55 L194.55,55 L194.55,48.01 L197.2,48.01 C198.286672,48.01 199.061664,48.1933315 199.525,48.56 C199.988336,48.9266685 200.22,49.5166626 200.22,50.33 L200.22,50.33 Z M198.34,51.16 C198.533334,50.9866658 198.63,50.7116686 198.63,50.335 C198.63,49.9583315 198.530001,49.7000007 198.33,49.56 C198.129999,49.4199993 197.780003,49.35 197.28,49.35 L196.11,49.35 L196.11,51.42 L197.25,51.42 C197.783336,51.42 198.146666,51.3333342 198.34,51.16 L198.34,51.16 Z M208.8,55 L208.15,53.49 L205.22,53.49 L204.57,55 L202.91,55 L205.93,48.01 L207.44,48.01 L210.46,55 L208.8,55 Z M206.69,50.09 L205.81,52.12 L207.56,52.12 L206.69,50.09 Z M220.87,49.36 L220.87,55 L219.31,55 L219.31,49.36 L217.33,49.36 L217.33,48.01 L222.85,48.01 L222.85,49.36 L220.87,49.36 Z M228.89,53.68 C229.330002,53.68 229.678332,53.518335 229.935,53.195 C230.191668,52.8716651 230.32,52.4300028 230.32,51.87 L230.32,48.01 L231.88,48.01 L231.88,51.92 C231.88,52.9333384 231.600003,53.711664 231.04,54.255 C230.479997,54.7983361 229.763338,55.07 228.89,55.07 C228.016662,55.07 227.298336,54.7966694 226.735,54.25 C226.171664,53.7033306 225.89,52.9266717 225.89,51.92 L225.89,48.01 L227.45,48.01 L227.45,51.87 C227.45,52.4300028 227.579999,52.8716651 227.84,53.195 C228.100001,53.518335 228.449998,53.68 228.89,53.68 L228.89,53.68 Z M137.17,61.01 L140,61.01 L140,68 L138.5,68 L138.5,62.34 L137.17,62.34 L137.17,61.01 Z M147.35,59.95 L148.77,59.95 L144.57,69.12 L143.16,69.12 L147.35,59.95 Z M154.545,63.735 C154.721668,63.4849988 154.81,63.2433345 154.81,63.01 C154.81,62.7766655 154.733334,62.5816675 154.58,62.425 C154.426666,62.2683326 154.230001,62.19 153.99,62.19 C153.549998,62.19 153.133335,62.5033302 152.74,63.13 L151.49,62.39 C151.816668,61.8833308 152.174998,61.5000013 152.565,61.24 C152.955002,60.9799987 153.451664,60.85 154.055,60.85 C154.658336,60.85 155.188331,61.0416648 155.645,61.425 C156.101669,61.8083353 156.33,62.3299967 156.33,62.99 C156.33,63.3500018 156.238334,63.6949984 156.055,64.025 C155.871666,64.3550017 155.533336,64.7766641 155.04,65.29 L153.78,66.6 L156.54,66.6 L156.54,68 L151.61,68 L151.61,66.84 L153.66,64.74 C154.073335,64.3199979 154.368332,63.9850013 154.545,63.735 L154.545,63.735 Z M169.47,61.01 L171.03,61.01 L171.03,68 L169.47,68 L166.14,63.62 L166.14,68 L164.58,68 L164.58,61.01 L166.04,61.01 L169.47,65.51 L169.47,61.01 Z M179.73,68 L179.08,66.49 L176.15,66.49 L175.5,68 L173.84,68 L176.86,61.01 L178.37,61.01 L181.39,68 L179.73,68 Z M177.62,63.09 L176.74,65.12 L178.49,65.12 L177.62,63.09 Z M189.87,63.33 C189.87,64.4500056 189.426671,65.1733317 188.54,65.5 L190.31,68 L188.39,68 L186.84,65.77 L185.76,65.77 L185.76,68 L184.2,68 L184.2,61.01 L186.85,61.01 C187.936672,61.01 188.711664,61.1933315 189.175,61.56 C189.638336,61.9266685 189.87,62.5166626 189.87,63.33 L189.87,63.33 Z M187.99,64.16 C188.183334,63.9866658 188.28,63.7116686 188.28,63.335 C188.28,62.9583315 188.180001,62.7000007 187.98,62.56 C187.779999,62.4199993 187.430003,62.35 186.93,62.35 L185.76,62.35 L185.76,64.42 L186.9,64.42 C187.433336,64.42 187.796666,64.3333342 187.99,64.16 L187.99,64.16 Z M198.45,68 L197.8,66.49 L194.87,66.49 L194.22,68 L192.56,68 L195.58,61.01 L197.09,61.01 L200.11,68 L198.45,68 Z M196.34,63.09 L195.46,65.12 L197.21,65.12 L196.34,63.09 Z M207.81,61.01 L209.37,61.01 L209.37,68 L207.81,68 L204.48,63.62 L204.48,68 L202.92,68 L202.92,61.01 L204.38,61.01 L207.81,65.51 L207.81,61.01 Z M213.35,62.35 L213.35,61.01 L216.99,61.01 L216.99,65.57 C216.99,66.4033375 216.775002,67.0266646 216.345,67.44 C215.914998,67.8533354 215.363337,68.06 214.69,68.06 C213.849996,68.06 213.11667,67.7366699 212.49,67.09 L213.3,65.97 C213.720002,66.4233356 214.159998,66.65 214.62,66.65 C214.840001,66.65 215.028333,66.5650009 215.185,66.395 C215.341667,66.2249992 215.42,65.9700017 215.42,65.63 L215.42,62.35 L213.35,62.35 Z M225.53,68 L224.88,66.49 L221.95,66.49 L221.3,68 L219.64,68 L222.66,61.01 L224.17,61.01 L227.19,68 L225.53,68 Z M223.42,63.09 L222.54,65.12 L224.29,65.12 L223.42,63.09 Z" id="ENCUENTRA-TU-1/2-NAR" fill="#5F1A1C"></path>
                <polygon id="Page-1" fill="#8AC1F9" transform="translate(182.031969, 18.062175) rotate(90.000000) translate(-182.031969, -18.062175) " points="174.323514 9.03020633 163.969794 18.4622251 174.982627 27.0941437 174.982627 20.4853861 200.094144 22.6195742 199.877376 14.5375043 174.543806 15.6389639"></polygon>
                <path d="M293.875,48.01 L295.435,48.01 L295.435,55 L293.875,55 L293.875,52.25 L291.095,52.25 L291.095,55 L289.535,55 L289.535,48.01 L291.095,48.01 L291.095,50.93 L293.875,50.93 L293.875,48.01 Z M304.135,55 L303.485,53.49 L300.555,53.49 L299.905,55 L298.245,55 L301.265,48.01 L302.775,48.01 L305.795,55 L304.135,55 Z M302.025,50.09 L301.145,52.12 L302.895,52.12 L302.025,50.09 Z M308.205,55 L308.205,53.93 L311.865,49.36 L308.325,49.36 L308.325,48.01 L313.995,48.01 L313.995,49.09 L310.345,53.64 L314.055,53.64 L314.055,55 L308.205,55 Z M324.955,53.68 C325.395002,53.68 325.743332,53.5183349 326,53.195 C326.256668,52.871665 326.385,52.4300028 326.385,51.87 L326.385,48.01 L327.945,48.01 L327.945,51.92 C327.945,52.9333384 327.665003,53.7116639 327.105,54.255 C326.544997,54.798336 325.828338,55.07 324.955,55.07 C324.081662,55.07 323.363336,54.7966694 322.8,54.25 C322.236664,53.7033306 321.955,52.9266717 321.955,51.92 L321.955,48.01 L323.515,48.01 L323.515,51.87 C323.515,52.4300028 323.644999,52.871665 323.905,53.195 C324.165001,53.5183349 324.514998,53.68 324.955,53.68 L324.955,53.68 Z M336.455,48.01 L338.015,48.01 L338.015,55 L336.455,55 L333.125,50.62 L333.125,55 L331.565,55 L331.565,48.01 L333.025,48.01 L336.455,52.51 L336.455,48.01 Z M346.715,55 L346.065,53.49 L343.135,53.49 L342.485,55 L340.825,55 L343.845,48.01 L345.355,48.01 L348.375,55 L346.715,55 Z M344.605,50.09 L343.725,52.12 L345.475,52.12 L344.605,50.09 Z M285.98,61.635 C286.470002,62.0516687 286.715,62.6916623 286.715,63.555 C286.715,64.4183376 286.463336,65.049998 285.96,65.45 C285.456664,65.850002 284.688338,66.05 283.655,66.05 L282.725,66.05 L282.725,68 L281.165,68 L281.165,61.01 L283.635,61.01 C284.708339,61.01 285.489998,61.2183312 285.98,61.635 L285.98,61.635 Z M284.835,64.385 C285.021668,64.174999 285.115,63.8683353 285.115,63.465 C285.115,63.0616646 284.993335,62.7750008 284.75,62.605 C284.506665,62.4349991 284.128336,62.35 283.615,62.35 L282.725,62.35 L282.725,64.7 L283.775,64.7 C284.295003,64.7 284.648332,64.5950011 284.835,64.385 L284.835,64.385 Z M295.605,63.33 C295.605,64.4500056 295.161671,65.1733317 294.275,65.5 L296.045,68 L294.125,68 L292.575,65.77 L291.495,65.77 L291.495,68 L289.935,68 L289.935,61.01 L292.585,61.01 C293.671672,61.01 294.446664,61.1933315 294.91,61.56 C295.373336,61.9266685 295.605,62.5166626 295.605,63.33 L295.605,63.33 Z M293.725,64.16 C293.918334,63.9866658 294.015,63.7116685 294.015,63.335 C294.015,62.9583314 293.915001,62.7000007 293.715,62.56 C293.514999,62.4199993 293.165002,62.35 292.665,62.35 L291.495,62.35 L291.495,64.42 L292.635,64.42 C293.168336,64.42 293.531666,64.3333342 293.725,64.16 L293.725,64.16 Z M303.885,62.87 C303.484998,62.4299978 302.993336,62.21 302.41,62.21 C301.826664,62.21 301.335002,62.4299978 300.935,62.87 C300.534998,63.3100022 300.335,63.8416635 300.335,64.465 C300.335,65.0883364 300.534998,65.6183311 300.935,66.055 C301.335002,66.4916688 301.826664,66.71 302.41,66.71 C302.993336,66.71 303.484998,66.4916688 303.885,66.055 C304.285002,65.6183311 304.485,65.0883364 304.485,64.465 C304.485,63.8416635 304.285002,63.3100022 303.885,62.87 L303.885,62.87 Z M302.405,68.07 C301.371661,68.07 300.50167,67.7250035 299.795,67.035 C299.08833,66.3449965 298.735,65.4866718 298.735,64.46 C298.735,63.4333282 299.08833,62.5750034 299.795,61.885 C300.50167,61.1949965 301.371661,60.85 302.405,60.85 C303.438338,60.85 304.30833,61.1949965 305.015,61.885 C305.72167,62.5750034 306.075,63.4333282 306.075,64.46 C306.075,65.4866718 305.72167,66.3449965 305.015,67.035 C304.30833,67.7250035 303.438338,68.07 302.405,68.07 L302.405,68.07 Z M314.21,61.635 C314.700002,62.0516687 314.945,62.6916623 314.945,63.555 C314.945,64.4183376 314.693336,65.049998 314.19,65.45 C313.686664,65.850002 312.918338,66.05 311.885,66.05 L310.955,66.05 L310.955,68 L309.395,68 L309.395,61.01 L311.865,61.01 C312.938339,61.01 313.719998,61.2183312 314.21,61.635 L314.21,61.635 Z M313.065,64.385 C313.251668,64.174999 313.345,63.8683353 313.345,63.465 C313.345,63.0616646 313.223335,62.7750008 312.98,62.605 C312.736665,62.4349991 312.358336,62.35 311.845,62.35 L310.955,62.35 L310.955,64.7 L312.005,64.7 C312.525003,64.7 312.878332,64.5950011 313.065,64.385 L313.065,64.385 Z M321.065,66.68 C321.505002,66.68 321.853332,66.5183349 322.11,66.195 C322.366668,65.871665 322.495,65.4300028 322.495,64.87 L322.495,61.01 L324.055,61.01 L324.055,64.92 C324.055,65.9333384 323.775003,66.711664 323.215,67.255 C322.654997,67.798336 321.938338,68.07 321.065,68.07 C320.191662,68.07 319.473336,67.7966694 318.91,67.25 C318.346664,66.7033306 318.065,65.9266717 318.065,64.92 L318.065,61.01 L319.625,61.01 L319.625,64.87 C319.625,65.4300028 319.754999,65.871665 320.015,66.195 C320.275001,66.5183349 320.624998,66.68 321.065,66.68 L321.065,66.68 Z M332.715,61.01 L332.715,62.4 L329.235,62.4 L329.235,63.84 L332.365,63.84 L332.365,65.17 L329.235,65.17 L329.235,66.62 L332.825,66.62 L332.825,68 L327.675,68 L327.675,61.01 L332.715,61.01 Z M337.85,62.405 C337.699999,62.5283339 337.625,62.6916656 337.625,62.895 C337.625,63.0983343 337.716666,63.2599994 337.9,63.38 C338.083334,63.5000006 338.506663,63.6416658 339.17,63.805 C339.833337,63.9683341 340.348331,64.2133317 340.715,64.54 C341.081668,64.8666683 341.265,65.3433302 341.265,65.97 C341.265,66.5966698 341.030002,67.1049981 340.56,67.495 C340.089998,67.885002 339.47167,68.08 338.705,68.08 C337.598328,68.08 336.601671,67.6700041 335.715,66.85 L336.645,65.71 C337.398337,66.3700033 338.094997,66.7 338.735,66.7 C339.021668,66.7 339.246666,66.638334 339.41,66.515 C339.573334,66.391666 339.655,66.2250011 339.655,66.015 C339.655,65.8049989 339.568334,65.638334 339.395,65.515 C339.221666,65.391666 338.878336,65.2666673 338.365,65.14 C337.551663,64.9466657 336.956669,64.6950016 336.58,64.385 C336.203331,64.0749984 336.015,63.5883366 336.015,62.925 C336.015,62.2616633 336.253331,61.7500018 336.73,61.39 C337.206669,61.0299982 337.801663,60.85 338.515,60.85 C338.981669,60.85 339.448331,60.9299992 339.915,61.09 C340.381669,61.2500008 340.788332,61.4766652 341.135,61.77 L340.345,62.91 C339.73833,62.4499977 339.11167,62.22 338.465,62.22 C338.204999,62.22 338.000001,62.281666 337.85,62.405 L337.85,62.405 Z M347.495,62.36 L347.495,68 L345.935,68 L345.935,62.36 L343.955,62.36 L343.955,61.01 L349.475,61.01 L349.475,62.36 L347.495,62.36 Z M357.085,68 L356.435,66.49 L353.505,66.49 L352.855,68 L351.195,68 L354.215,61.01 L355.725,61.01 L358.745,68 L357.085,68 Z M354.975,63.09 L354.095,65.12 L355.845,65.12 L354.975,63.09 Z" id="HAZ-UNA-PROPUESTA" fill="#5F1A1C"></path>
                <path d="M323.086271,11.0132287 C321.088754,19.8767341 309.394257,31.5497349 307.789669,32.1495175 C308.31461,33.5620392 308.839551,34.9759088 309.364493,36.3897783 C304.95661,36.2455609 300.548728,36.1013435 296.140846,35.958474 C296.140846,35.958474 299.577316,27.5628653 301.328022,24.0261696 L304.11914,27.3728218 C306.991434,26.5614305 311.449192,17.5985168 315.454081,5.86960442" id="Fill-1" fill="#8AC1F9" transform="translate(309.613558, 21.129691) rotate(130.000000) translate(-309.613558, -21.129691) "></path>
                <path d="M50.9302405,6.99563409 C50.9302402,13.8884453 35.3727219,28.0795682 33.7681337,28.6793508 C34.2930748,30.0918725 36.040936,33.1559724 36.040936,33.1559724 C36.040936,33.1559724 28.1606285,32.0320315 23.7527461,31.889162 C23.7527461,31.889162 27.1892167,23.4935533 28.9399226,19.9568576 L31.377686,23.7232231 C37.6423564,20.7041782 40.423223,13.0612735 40.423223,5.4635452" id="Fill-1-Copy" fill="#8AC1F9" transform="translate(37.341493, 19.309759) scale(-1, 1) rotate(130.000000) translate(-37.341493, -19.309759) "></path>
            </g>
        </g>
    </g>
</svg>