<?xml version="1.0" encoding="UTF-8" standalone="no"?>
<svg width="200px" height="196px" viewBox="0 0 200 196" version="1.1" xmlns="http://www.w3.org/2000/svg" xmlns:xlink="http://www.w3.org/1999/xlink">
    <!-- Generator: Sketch 41.2 (35397) - http://www.bohemiancoding.com/sketch -->
    <title>Group 70</title>
    <desc>Created with Sketch.</desc>
    <defs>
        <polygon id="path-1" points="88.9448825 57.2880389 88.9448825 0.157184076 0.490474778 0.157184076 0.490474778 57.2880389"></polygon>
        <polygon id="path-3" points="88.9448825 57.2880389 88.9448825 0.157184076 0.490474778 0.157184076 0.490474778 57.2880389"></polygon>
    </defs>
    <g id="Page-1" stroke="none" stroke-width="1" fill="none" fill-rule="evenodd">
        <g id="Group-70">
            <g id="Group-66-Copy">
                <polygon id="Page-1-Copy-6" fill="#5CA7FF" points="0 1.04694806 0 194.799884 200 195.880604 200 0"></polygon>
                <path d="M25.0009766,138.72487 C24.5452451,138.073825 24.1342792,137.611997 23.7680664,137.339372 C23.4018536,137.066747 23.0071636,136.871437 22.5839844,136.753435 C22.1608052,136.635433 21.7172875,136.576433 21.253418,136.576433 C20.5698208,136.576433 19.9350615,136.729019 19.3491211,137.034197 C18.7631807,137.339374 18.2565939,137.754409 17.8293457,138.279314 C17.4020975,138.804219 17.0664075,139.414564 16.8222656,140.110368 C16.5781238,140.806173 16.4560547,141.544691 16.4560547,142.325945 C16.4560547,143.115337 16.5760893,143.857924 16.8161621,144.553728 C17.0562349,145.249532 17.387856,145.857843 17.8110352,146.378679 C18.2342144,146.899515 18.7387666,147.312515 19.324707,147.617693 C19.9106475,147.92287 20.5535447,148.075456 21.253418,148.075456 C21.7417017,148.075456 22.1974263,147.996111 22.6206055,147.837419 C23.0437847,147.678727 23.4283023,147.469175 23.7741699,147.208757 C24.1200375,146.948339 24.4231758,146.64927 24.6835938,146.31154 C24.9440117,145.973811 25.1474602,145.621845 25.2939453,145.255632 L29.2246094,146.354265 C28.9723295,147.151795 28.6020532,147.890313 28.1137695,148.569841 C27.6254858,149.249369 27.0375197,149.837335 26.3498535,150.333757 C25.6621873,150.830179 24.8890831,151.2208 24.0305176,151.505632 C23.1719521,151.790464 22.2462615,151.932878 21.253418,151.932878 C20.4151976,151.932878 19.6136106,151.818947 18.8486328,151.591081 C18.083655,151.363216 17.3695508,151.041767 16.7062988,150.626726 C16.0430468,150.211685 15.4408393,149.711201 14.8996582,149.125261 C14.3584771,148.539321 13.896649,147.89032 13.5141602,147.17824 C13.1316713,146.466159 12.8346365,145.701193 12.6230469,144.883318 C12.4114573,144.065442 12.3056641,143.212993 12.3056641,142.325945 C12.3056641,140.999441 12.5375953,139.75637 13.0014648,138.596697 C13.4653344,137.437023 14.1000936,136.423849 14.9057617,135.557146 C15.7114298,134.690442 16.6574653,134.006855 17.7438965,133.506365 C18.8303277,133.005874 20.0001565,132.755632 21.253418,132.755632 C22.2543995,132.755632 23.0966763,132.879736 23.7802734,133.127947 C24.4638706,133.376157 25.21663,133.866468 26.0385742,134.598894 L28.7729492,134.598894 L28.7729492,138.72487 L25.0009766,138.72487 Z M41.3706055,148.258562 L43.2138672,148.258562 L42.3837891,145.597429 L36.6953125,145.597429 L35.8652344,148.258562 L37.8183594,148.258562 L37.8183594,151.603288 L30.7993164,151.603288 L30.7993164,148.258562 L32.1787109,148.258562 L37.2202148,133.097429 L42.1152344,133.097429 L47.046875,148.258562 L48.3896484,148.258562 L48.3896484,151.603288 L41.3706055,151.603288 L41.3706055,148.258562 Z M37.659668,142.472429 L41.3950195,142.472429 L39.5151367,136.454363 L37.659668,142.472429 Z M61.7441406,133.097429 L68.7753906,133.097429 L68.7753906,136.454363 L67.2739258,136.454363 L67.2739258,151.603288 L63.2211914,151.603288 L55.5185547,139.640398 L55.5185547,148.258562 L57.0688477,148.258562 L57.0688477,151.603288 L50.0498047,151.603288 L50.0498047,148.258562 L51.5756836,148.258562 L51.5756836,136.454363 L50.0742188,136.454363 L50.0742188,133.097429 L55.6650391,133.097429 L63.3188477,145.219011 L63.3188477,136.454363 L61.7441406,136.454363 L61.7441406,133.097429 Z M70.3989258,133.097429 L77.503418,133.097429 C78.3497764,133.097429 79.1615358,133.207291 79.9387207,133.427019 C80.7159056,133.646746 81.4401822,133.955988 82.1115723,134.354753 C82.7829623,134.753518 83.3933078,135.231622 83.942627,135.789079 C84.4919461,136.346537 84.9619121,136.967054 85.3525391,137.650652 C85.743166,138.334249 86.0442698,139.070732 86.2558594,139.860124 C86.467449,140.649516 86.5732422,141.471448 86.5732422,142.325945 C86.5732422,143.180441 86.467449,144.002373 86.2558594,144.791765 C86.0442698,145.581157 85.743166,146.319675 85.3525391,147.007341 C84.9619121,147.695007 84.4919461,148.321629 83.942627,148.887224 C83.3933078,149.452819 82.7829623,149.937027 82.1115723,150.339861 C81.4401822,150.742695 80.7159056,151.053971 79.9387207,151.273698 C79.1615358,151.493426 78.3497764,151.603288 77.503418,151.603288 L70.3989258,151.603288 L70.3989258,148.258562 L71.8759766,148.258562 L71.8759766,136.454363 L70.3989258,136.454363 L70.3989258,133.097429 Z M75.9287109,136.454363 L75.9287109,148.258562 L77.4790039,148.258562 C78.1381869,148.258562 78.7607393,148.103941 79.3466797,147.794695 C79.9326201,147.485448 80.4412413,147.06431 80.8725586,146.531267 C81.3038759,145.998224 81.6456693,145.371602 81.8979492,144.651384 C82.1502291,143.931166 82.2763672,143.156027 82.2763672,142.325945 C82.2763672,141.504 82.1502291,140.734965 81.8979492,140.018816 C81.6456693,139.302666 81.3038759,138.680114 80.8725586,138.15114 C80.4412413,137.622166 79.9326201,137.207131 79.3466797,136.906023 C78.7607393,136.604914 78.1381869,136.454363 77.4790039,136.454363 L75.9287109,136.454363 Z M88.6972656,133.097429 L96.6196289,133.097429 L96.6196289,136.442156 L94.6665039,136.442156 L94.6665039,148.258562 L96.6196289,148.258562 L96.6196289,151.603288 L88.6972656,151.603288 L88.6972656,148.258562 L90.6137695,148.258562 L90.6137695,136.442156 L88.6972656,136.442156 L88.6972656,133.097429 Z M98.206543,133.097429 L105.311035,133.097429 C106.157394,133.097429 106.969153,133.207291 107.746338,133.427019 C108.523523,133.646746 109.247799,133.955988 109.919189,134.354753 C110.59058,134.753518 111.200925,135.231622 111.750244,135.789079 C112.299563,136.346537 112.769529,136.967054 113.160156,137.650652 C113.550783,138.334249 113.851887,139.070732 114.063477,139.860124 C114.275066,140.649516 114.380859,141.471448 114.380859,142.325945 C114.380859,143.180441 114.275066,144.002373 114.063477,144.791765 C113.851887,145.581157 113.550783,146.319675 113.160156,147.007341 C112.769529,147.695007 112.299563,148.321629 111.750244,148.887224 C111.200925,149.452819 110.59058,149.937027 109.919189,150.339861 C109.247799,150.742695 108.523523,151.053971 107.746338,151.273698 C106.969153,151.493426 106.157394,151.603288 105.311035,151.603288 L98.206543,151.603288 L98.206543,148.258562 L99.6835938,148.258562 L99.6835938,136.454363 L98.206543,136.454363 L98.206543,133.097429 Z M103.736328,136.454363 L103.736328,148.258562 L105.286621,148.258562 C105.945804,148.258562 106.568356,148.103941 107.154297,147.794695 C107.740237,147.485448 108.248859,147.06431 108.680176,146.531267 C109.111493,145.998224 109.453286,145.371602 109.705566,144.651384 C109.957846,143.931166 110.083984,143.156027 110.083984,142.325945 C110.083984,141.504 109.957846,140.734965 109.705566,140.018816 C109.453286,139.302666 109.111493,138.680114 108.680176,138.15114 C108.248859,137.622166 107.740237,137.207131 107.154297,136.906023 C106.568356,136.604914 105.945804,136.454363 105.286621,136.454363 L103.736328,136.454363 Z M126.026367,148.258562 L127.869629,148.258562 L127.039551,145.597429 L121.351074,145.597429 L120.520996,148.258562 L122.474121,148.258562 L122.474121,151.603288 L115.455078,151.603288 L115.455078,148.258562 L116.834473,148.258562 L121.875977,133.097429 L126.770996,133.097429 L131.702637,148.258562 L133.04541,148.258562 L133.04541,151.603288 L126.026367,151.603288 L126.026367,148.258562 Z M122.31543,142.472429 L126.050781,142.472429 L124.170898,136.454363 L122.31543,142.472429 Z M137.879395,148.258562 L139.795898,148.258562 L139.795898,136.332292 L137.549805,136.332292 L137.549805,138.72487 L133.570312,138.72487 L133.570312,133.097429 L150.403809,133.097429 L150.403809,138.72487 L146.399902,138.72487 L146.399902,136.332292 L143.848633,136.332292 L143.848633,148.258562 L145.801758,148.258562 L145.801758,151.603288 L137.879395,151.603288 L137.879395,148.258562 Z M160.535645,151.932878 C159.697424,151.932878 158.895837,151.818947 158.130859,151.591081 C157.365882,151.363216 156.651777,151.041767 155.988525,150.626726 C155.325273,150.211685 154.723066,149.713236 154.181885,149.131365 C153.640704,148.549493 153.178876,147.902527 152.796387,147.190447 C152.413898,146.478366 152.116863,145.715434 151.905273,144.901628 C151.693684,144.087822 151.587891,143.237407 151.587891,142.350359 C151.587891,141.46331 151.693684,140.610861 151.905273,139.792986 C152.116863,138.97511 152.413898,138.210144 152.796387,137.498064 C153.178876,136.785983 153.640704,136.139017 154.181885,135.557146 C154.723066,134.975274 155.325273,134.476826 155.988525,134.061784 C156.651777,133.646743 157.365882,133.325295 158.130859,133.097429 C158.895837,132.869563 159.697424,132.755632 160.535645,132.755632 C161.373865,132.755632 162.177486,132.869563 162.946533,133.097429 C163.71558,133.325295 164.431719,133.646743 165.094971,134.061784 C165.758223,134.476826 166.36043,134.975274 166.901611,135.557146 C167.442792,136.139017 167.906655,136.785983 168.293213,137.498064 C168.679771,138.210144 168.97884,138.97511 169.19043,139.792986 C169.402019,140.610861 169.507812,141.46331 169.507812,142.350359 C169.507812,143.229269 169.402019,144.077649 169.19043,144.895525 C168.97884,145.7134 168.679771,146.478366 168.293213,147.190447 C167.906655,147.902527 167.442792,148.549493 166.901611,149.131365 C166.36043,149.713236 165.758223,150.211685 165.094971,150.626726 C164.431719,151.041767 163.71558,151.363216 162.946533,151.591081 C162.177486,151.818947 161.373865,151.932878 160.535645,151.932878 Z M160.535645,148.09987 C161.243656,148.09987 161.892657,147.947284 162.482666,147.642107 C163.072675,147.336929 163.579262,146.921894 164.002441,146.39699 C164.425621,145.872085 164.753173,145.261739 164.985107,144.565935 C165.217042,143.870131 165.333008,143.131613 165.333008,142.350359 C165.333008,141.560967 165.215008,140.816345 164.979004,140.116472 C164.743,139.416599 164.411379,138.804219 163.984131,138.279314 C163.556883,137.754409 163.050296,137.339374 162.464355,137.034197 C161.878415,136.729019 161.235518,136.576433 160.535645,136.576433 C159.835771,136.576433 159.192874,136.729019 158.606934,137.034197 C158.020993,137.339374 157.516441,137.754409 157.093262,138.279314 C156.670083,138.804219 156.338461,139.416599 156.098389,140.116472 C155.858316,140.816345 155.738281,141.560967 155.738281,142.350359 C155.738281,143.131613 155.858316,143.870131 156.098389,144.565935 C156.338461,145.261739 156.670083,145.872085 157.093262,146.39699 C157.516441,146.921894 158.020993,147.336929 158.606934,147.642107 C159.192874,147.947284 159.835771,148.09987 160.535645,148.09987 Z M13.2456055,157.097429 L19.1538086,157.097429 L19.1538086,159.209245 L17.3959961,159.209245 L17.3959961,173.503679 L19.1538086,173.503679 L19.1538086,175.603288 L13.2456055,175.603288 L13.2456055,173.503679 L15.003418,173.503679 L15.003418,159.209245 L13.2456055,159.209245 L13.2456055,157.097429 Z M34.0952148,157.097429 L40.1010742,157.097429 L40.1010742,159.209245 L38.5263672,159.209245 L38.5263672,175.603288 L35.4013672,175.603288 L26.7954102,160.25905 L26.7954102,173.503679 L28.699707,173.503679 L28.699707,175.603288 L22.6938477,175.603288 L22.6938477,173.503679 L24.402832,173.503679 L24.402832,159.209245 L22.6450195,159.209245 L22.6450195,157.073015 L27.6254883,157.073015 L36.0727539,172.270769 L36.1704102,171.684831 L36.1704102,159.209245 L34.0952148,159.209245 L34.0952148,157.097429 Z M46.253418,173.503679 L47.9501953,173.503679 L47.9501953,159.099382 L43.7265625,159.099382 L43.7265625,161.980241 L41.2241211,161.980241 L41.2241211,157.097429 L57.7280273,157.097429 L57.7280273,161.980241 L55.2255859,161.980241 L55.2255859,159.099382 L50.3427734,159.099382 L50.3427734,173.503679 L52.2470703,173.503679 L52.2470703,175.603288 L46.253418,175.603288 L46.253418,173.503679 Z M59.9741211,157.097429 L73.230957,157.097429 L73.230957,162.334245 L70.7285156,162.334245 L70.7285156,159.209245 L64.1245117,159.209245 L64.1245117,165.129656 L69.6787109,165.129656 L69.6787109,167.229265 L64.1245117,167.229265 L64.1245117,173.503679 L70.7285156,173.503679 L70.7285156,170.378679 L73.230957,170.378679 L73.230957,175.603288 L59.9741211,175.603288 L59.9741211,173.503679 L61.7319336,173.503679 L61.7319336,159.209245 L59.9741211,159.209245 L59.9741211,157.097429 Z M75.6723633,157.097429 L81.6782227,157.097429 L81.6782227,159.209245 L79.8227539,159.209245 L79.8227539,173.503679 L86.2070312,173.503679 C86.3372402,173.503679 86.4674473,173.473162 86.5976562,173.412126 C86.7278652,173.351091 86.8458654,173.271746 86.9516602,173.174089 C87.057455,173.076432 87.1429033,172.964536 87.2080078,172.838396 C87.2731123,172.712256 87.3056641,172.584083 87.3056641,172.453874 L87.3056641,170.122331 L89.625,170.122331 L89.625,175.603288 L75.6723633,175.603288 L75.6723633,173.503679 L77.4301758,173.503679 L77.4301758,159.209245 L75.6723633,159.209245 L75.6723633,157.097429 Z M91.4926758,157.097429 L97.4008789,157.097429 L97.4008789,159.209245 L95.6430664,159.209245 L95.6430664,173.503679 L97.4008789,173.503679 L97.4008789,175.603288 L91.4926758,175.603288 L91.4926758,173.503679 L93.2504883,173.503679 L93.2504883,159.209245 L91.4926758,159.209245 L91.4926758,157.097429 Z M115.174316,175.676531 L115.174316,171.965593 C114.86507,172.6085 114.478518,173.167983 114.014648,173.64406 C113.550779,174.120136 113.03402,174.512792 112.464355,174.822038 C111.894691,175.131285 111.28638,175.363216 110.639404,175.517839 C109.992428,175.672462 109.33529,175.749773 108.667969,175.749773 C107.463536,175.749773 106.352707,175.548359 105.335449,175.145525 C104.318192,174.742691 103.39657,174.101828 102.570557,173.222917 C101.744543,172.344007 101.113853,171.30235 100.678467,170.097917 C100.243081,168.893484 100.025391,167.636172 100.025391,166.325945 C100.025391,165.007579 100.243081,163.762474 100.678467,162.590593 C101.113853,161.418712 101.724199,160.397401 102.509521,159.526628 C103.294844,158.655856 104.230707,157.972269 105.317139,157.475847 C106.40357,156.979425 107.581537,156.731218 108.851074,156.731218 C110.022955,156.731218 111.030025,156.898046 111.872314,157.231706 C112.714604,157.565367 113.434811,157.970229 114.032959,158.446306 C114.631107,158.922383 115.10921,159.376073 115.467285,159.80739 L116.651367,159.80739 L116.651367,161.980241 L114.026855,161.980241 C113.481605,161.052502 112.759363,160.320088 111.860107,159.782976 C110.960852,159.245864 109.953782,158.98545 108.838867,159.001726 C107.90299,159.001726 107.044438,159.201105 106.263184,159.59987 C105.48193,159.998635 104.812584,160.535739 104.255127,161.211198 C103.69767,161.886658 103.264324,162.663831 102.955078,163.542741 C102.645832,164.421652 102.491211,165.349377 102.491211,166.325945 C102.491211,167.408307 102.662108,168.413342 103.003906,169.341081 C103.345705,170.26882 103.781085,171.02158 104.310059,171.599382 C104.839033,172.177184 105.492102,172.655288 106.269287,173.033708 C107.046472,173.412128 107.907059,173.601335 108.851074,173.601335 C110.413582,173.601335 111.695307,173.220887 112.696289,172.459978 C113.697271,171.699069 114.397133,170.512964 114.795898,168.901628 L109.620117,168.901628 L109.620117,166.802019 L117.444824,166.802019 L117.444824,175.676531 L115.174316,175.676531 Z M121.436523,157.097429 L134.693359,157.097429 L134.693359,162.334245 L132.190918,162.334245 L132.190918,159.209245 L125.586914,159.209245 L125.586914,165.129656 L131.141113,165.129656 L131.141113,167.229265 L125.586914,167.229265 L125.586914,173.503679 L132.190918,173.503679 L132.190918,170.378679 L134.693359,170.378679 L134.693359,175.603288 L121.436523,175.603288 L121.436523,173.503679 L123.194336,173.503679 L123.194336,159.209245 L121.436523,159.209245 L121.436523,157.097429 Z M148.584961,157.097429 L154.59082,157.097429 L154.59082,159.209245 L153.016113,159.209245 L153.016113,175.603288 L149.891113,175.603288 L141.285156,160.25905 L141.285156,173.503679 L143.189453,173.503679 L143.189453,175.603288 L137.183594,175.603288 L137.183594,173.503679 L138.892578,173.503679 L138.892578,159.209245 L137.134766,159.209245 L137.134766,157.073015 L142.115234,157.073015 L150.5625,172.270769 L150.660156,171.684831 L150.660156,159.209245 L148.584961,159.209245 L148.584961,157.097429 Z M160.743164,173.503679 L162.439941,173.503679 L162.439941,159.099382 L158.216309,159.099382 L158.216309,161.980241 L155.713867,161.980241 L155.713867,157.097429 L172.217773,157.097429 L172.217773,161.980241 L169.715332,161.980241 L169.715332,159.099382 L164.83252,159.099382 L164.83252,173.503679 L166.736816,173.503679 L166.736816,175.603288 L160.743164,175.603288 L160.743164,173.503679 Z M174.463867,157.097429 L187.720703,157.097429 L187.720703,162.334245 L185.218262,162.334245 L185.218262,159.209245 L178.614258,159.209245 L178.614258,165.129656 L184.168457,165.129656 L184.168457,167.229265 L178.614258,167.229265 L178.614258,173.503679 L185.218262,173.503679 L185.218262,170.378679 L187.720703,170.378679 L187.720703,175.603288 L174.463867,175.603288 L174.463867,173.503679 L176.22168,173.503679 L176.22168,159.209245 L174.463867,159.209245 L174.463867,157.097429 Z" id="CANDIDATO-INTELIGENT" fill="#FFFFFF"></path>
                <path d="M17.154541,122.426531 C16.947346,122.07399 16.672894,121.797218 16.3311768,121.596208 C15.9894596,121.395198 15.6083192,121.294695 15.1877441,121.294695 C14.8290184,121.294695 14.5012222,121.370459 14.2043457,121.52199 C13.9074692,121.67352 13.6531179,121.876847 13.4412842,122.131975 C13.2294504,122.387103 13.0647792,122.682429 12.9472656,123.017961 C12.829752,123.353493 12.7709961,123.706802 12.7709961,124.077898 C12.7709961,124.517028 12.8359369,124.905899 12.9658203,125.244524 C13.0957038,125.583148 13.2650136,125.864558 13.4737549,126.088762 C13.6824962,126.312966 13.9306626,126.500057 14.2182617,126.650041 C14.5058608,126.800026 14.8290184,126.875017 15.1877441,126.875017 C15.6763534,126.875017 16.1015607,126.756732 16.4633789,126.520158 C16.8251971,126.283585 17.1344388,125.894714 17.3911133,125.353532 L18.2075195,125.738542 C18.0900059,126.072528 17.890545,126.394913 17.6091309,126.705705 C17.3277167,127.016498 16.9805929,127.266984 16.567749,127.45717 C16.1549052,127.647357 15.6980006,127.742448 15.1970215,127.742448 C14.7176897,127.742448 14.2770202,127.651995 13.875,127.471086 C13.4729798,127.290177 13.1150325,127.032733 12.8011475,126.698747 C12.4872624,126.364761 12.2476001,125.968932 12.0821533,125.511247 C11.9167065,125.053563 11.8339844,124.575784 11.8339844,124.077898 C11.8339844,123.576919 11.9167065,123.103779 12.0821533,122.658464 C12.2476001,122.213149 12.4795314,121.825824 12.7779541,121.496477 C13.0763768,121.167129 13.4320048,120.907366 13.8448486,120.71718 C14.2576925,120.526993 14.7053199,120.431902 15.1877441,120.431902 C15.6175966,120.431902 15.9886866,120.492977 16.3010254,120.615129 C16.6133642,120.737281 16.8785389,120.882625 17.0965576,121.051164 C17.3145763,121.219704 17.5024406,121.402929 17.6601562,121.600847 L18.1518555,121.600847 L18.1518555,122.426531 L17.154541,122.426531 Z M24.1032715,120.571062 L26.385498,120.571062 L26.385498,121.368913 L25.7175293,121.368913 L25.7175293,126.805437 L26.385498,126.805437 L26.385498,127.603288 L24.1032715,127.603288 L24.1032715,126.805437 L24.8083496,126.805437 L24.8083496,124.277361 L20.7402344,124.277361 L20.7402344,126.805437 L21.4453125,126.805437 L21.4453125,127.603288 L19.1630859,127.603288 L19.1630859,126.805437 L19.8310547,126.805437 L19.8310547,121.368913 L19.1630859,121.368913 L19.1630859,120.571062 L21.4453125,120.571062 L21.4453125,121.368913 L20.7402344,121.368913 L20.7402344,123.498064 L24.8083496,123.498064 L24.8083496,121.368913 L24.1032715,121.368913 L24.1032715,120.571062 Z M31.8730469,126.805437 L32.4575195,126.805437 L31.9008789,125.209734 L29.1965332,125.209734 L28.6538086,126.805437 L29.3774414,126.805437 L29.3774414,127.603288 L27.0952148,127.603288 L27.0952148,126.805437 L27.7075195,126.805437 L29.8969727,120.571062 L31.2653809,120.571062 L33.4501953,126.805437 L34.1552734,126.805437 L34.1552734,127.603288 L31.8730469,127.603288 L31.8730469,126.805437 Z M29.4609375,124.439714 L31.6318359,124.439714 L30.5371094,121.294695 L29.4609375,124.439714 Z M36.3029785,126.805437 L36.9477539,126.805437 L36.9477539,121.331804 L35.3427734,121.331804 L35.3427734,122.426531 L34.3918457,122.426531 L34.3918457,120.571062 L40.6633301,120.571062 L40.6633301,122.426531 L39.7124023,122.426531 L39.7124023,121.331804 L37.8569336,121.331804 L37.8569336,126.805437 L38.5805664,126.805437 L38.5805664,127.603288 L36.3029785,127.603288 L36.3029785,126.805437 Z M41.5168457,120.571062 L46.5544434,120.571062 L46.5544434,122.561052 L45.6035156,122.561052 L45.6035156,121.373552 L43.0939941,121.373552 L43.0939941,123.623308 L45.2045898,123.623308 L45.2045898,124.421159 L43.0939941,124.421159 L43.0939941,126.805437 L45.6035156,126.805437 L45.6035156,125.617937 L46.5544434,125.617937 L46.5544434,127.603288 L41.5168457,127.603288 L41.5168457,126.805437 L42.1848145,126.805437 L42.1848145,121.373552 L41.5168457,121.373552 L41.5168457,120.571062 Z M51.6430664,126.805437 L52.2275391,126.805437 L51.6708984,125.209734 L48.9665527,125.209734 L48.4238281,126.805437 L49.1474609,126.805437 L49.1474609,127.603288 L46.8652344,127.603288 L46.8652344,126.805437 L47.4775391,126.805437 L49.6669922,120.571062 L51.0354004,120.571062 L53.2202148,126.805437 L53.925293,126.805437 L53.925293,127.603288 L51.6430664,127.603288 L51.6430664,126.805437 Z M49.230957,124.439714 L51.4018555,124.439714 L50.3071289,121.294695 L49.230957,124.439714 Z M61.7043457,122.426531 C61.4971507,122.07399 61.2226986,121.797218 60.8809814,121.596208 C60.5392642,121.395198 60.1581238,121.294695 59.7375488,121.294695 C59.3788231,121.294695 59.0510269,121.370459 58.7541504,121.52199 C58.4572739,121.67352 58.2029226,121.876847 57.9910889,122.131975 C57.7792551,122.387103 57.6145839,122.682429 57.4970703,123.017961 C57.3795567,123.353493 57.3208008,123.706802 57.3208008,124.077898 C57.3208008,124.517028 57.3857415,124.905899 57.515625,125.244524 C57.6455085,125.583148 57.8148183,125.864558 58.0235596,126.088762 C58.2323008,126.312966 58.4804673,126.500057 58.7680664,126.650041 C59.0556655,126.800026 59.3788231,126.875017 59.7375488,126.875017 C60.226158,126.875017 60.6513654,126.756732 61.0131836,126.520158 C61.3750018,126.283585 61.6842435,125.894714 61.940918,125.353532 L62.7573242,125.738542 C62.6398106,126.072528 62.4403497,126.394913 62.1589355,126.705705 C61.8775214,127.016498 61.5303976,127.266984 61.1175537,127.45717 C60.7047098,127.647357 60.2478052,127.742448 59.7468262,127.742448 C59.2674943,127.742448 58.8268249,127.651995 58.4248047,127.471086 C58.0227844,127.290177 57.6648372,127.032733 57.3509521,126.698747 C57.0370671,126.364761 56.7974048,125.968932 56.631958,125.511247 C56.4665112,125.053563 56.3837891,124.575784 56.3837891,124.077898 C56.3837891,123.576919 56.4665112,123.103779 56.631958,122.658464 C56.7974048,122.213149 57.0293361,121.825824 57.3277588,121.496477 C57.6261815,121.167129 57.9818095,120.907366 58.3946533,120.71718 C58.8074972,120.526993 59.2551245,120.431902 59.7375488,120.431902 C60.1674012,120.431902 60.5384913,120.492977 60.8508301,120.615129 C61.1631689,120.737281 61.4283436,120.882625 61.6463623,121.051164 C61.864381,121.219704 62.0522453,121.402929 62.2099609,121.600847 L62.7016602,121.600847 L62.7016602,122.426531 L61.7043457,122.426531 Z M66.7558594,127.742448 C66.2703426,127.742448 65.8265808,127.651995 65.4245605,127.471086 C65.0225403,127.290177 64.6638199,127.032733 64.3483887,126.698747 C64.0329574,126.364761 63.7932951,125.968932 63.6293945,125.511247 C63.465494,125.053563 63.3835449,124.578877 63.3835449,124.087175 C63.3835449,123.580011 63.4662671,123.103779 63.6317139,122.658464 C63.7971607,122.213149 64.0290919,121.825824 64.3275146,121.496477 C64.6259374,121.167129 64.9815653,120.907366 65.3944092,120.71718 C65.807253,120.526993 66.2610652,120.431902 66.7558594,120.431902 C67.253746,120.431902 67.7098775,120.526993 68.1242676,120.71718 C68.5386577,120.907366 68.8942856,121.167129 69.1911621,121.496477 C69.4880386,121.825824 69.7184237,122.213149 69.8823242,122.658464 C70.0462248,123.103779 70.1281738,123.580011 70.1281738,124.087175 C70.1281738,124.594339 70.0454517,125.069798 69.8800049,125.513567 C69.7145581,125.957335 69.4826268,126.34466 69.1842041,126.675554 C68.8857814,127.006448 68.5301534,127.266984 68.1173096,127.45717 C67.7044657,127.647357 67.2506535,127.742448 66.7558594,127.742448 Z M66.7558594,126.879656 C67.1238625,126.879656 67.4570704,126.803891 67.7554932,126.652361 C68.0539159,126.50083 68.3082672,126.297503 68.5185547,126.042375 C68.7288422,125.787247 68.8911941,125.491148 69.0056152,125.15407 C69.1200364,124.816991 69.1772461,124.461363 69.1772461,124.087175 C69.1772461,123.70371 69.1146246,123.333393 68.9893799,122.976213 C68.8641351,122.619034 68.6894136,122.31675 68.46521,122.069353 C68.2410064,121.821956 67.9804702,121.630999 67.6835938,121.496477 C67.3867173,121.361955 67.0774756,121.294695 66.7558594,121.294695 C66.3878562,121.294695 66.0538752,121.370459 65.7539062,121.52199 C65.4539373,121.67352 65.1988129,121.876847 64.9885254,122.131975 C64.7782379,122.387103 64.615886,122.683975 64.5014648,123.0226 C64.3870437,123.361225 64.329834,123.716079 64.329834,124.087175 C64.329834,124.52012 64.3932285,124.905899 64.5200195,125.244524 C64.6468105,125.583148 64.8145742,125.864558 65.0233154,126.088762 C65.2320567,126.312966 65.4809963,126.50083 65.7701416,126.652361 C66.0592869,126.803891 66.3878562,126.879656 66.7558594,126.879656 Z M75.4719238,120.571062 L77.7541504,120.571062 L77.7541504,121.373552 L77.1557617,121.373552 L77.1557617,127.603288 L75.9682617,127.603288 L72.697998,121.772478 L72.697998,126.805437 L73.4216309,126.805437 L73.4216309,127.603288 L71.1394043,127.603288 L71.1394043,126.805437 L71.7888184,126.805437 L71.7888184,121.373552 L71.1208496,121.373552 L71.1208496,120.561784 L73.0134277,120.561784 L76.2233887,126.336931 L76.260498,126.114275 L76.260498,121.373552 L75.4719238,121.373552 L75.4719238,120.571062 Z M80.7321777,120.571062 L83.0144043,120.571062 L83.0144043,121.373552 L82.3093262,121.373552 L82.3093262,126.805437 L84.7353516,126.805437 C84.784831,126.805437 84.8343096,126.79384 84.8837891,126.770647 C84.9332685,126.747453 84.9781085,126.717302 85.0183105,126.680193 C85.0585126,126.643083 85.0909829,126.600562 85.1157227,126.552629 C85.1404624,126.504696 85.152832,126.45599 85.152832,126.406511 L85.152832,125.520525 L86.0341797,125.520525 L86.0341797,127.603288 L80.7321777,127.603288 L80.7321777,126.805437 L81.4001465,126.805437 L81.4001465,121.373552 L80.7321777,121.373552 L80.7321777,120.571062 Z M89.7868652,127.742448 C89.3013485,127.742448 88.8575866,127.651995 88.4555664,127.471086 C88.0535462,127.290177 87.6948258,127.032733 87.3793945,126.698747 C87.0639633,126.364761 86.8243009,125.968932 86.6604004,125.511247 C86.4964998,125.053563 86.4145508,124.578877 86.4145508,124.087175 C86.4145508,123.580011 86.4972729,123.103779 86.6627197,122.658464 C86.8281665,122.213149 87.0600978,121.825824 87.3585205,121.496477 C87.6569432,121.167129 88.0125712,120.907366 88.425415,120.71718 C88.8382589,120.526993 89.2920711,120.431902 89.7868652,120.431902 C90.2847518,120.431902 90.7408833,120.526993 91.1552734,120.71718 C91.5696635,120.907366 91.9252915,121.167129 92.222168,121.496477 C92.5190445,121.825824 92.7494295,122.213149 92.9133301,122.658464 C93.0772306,123.103779 93.1591797,123.580011 93.1591797,124.087175 C93.1591797,124.594339 93.0764575,125.069798 92.9110107,125.513567 C92.745564,125.957335 92.5136327,126.34466 92.21521,126.675554 C91.9167872,127.006448 91.5611593,127.266984 91.1483154,127.45717 C90.7354716,127.647357 90.2816594,127.742448 89.7868652,127.742448 Z M89.7868652,126.879656 C90.1548684,126.879656 90.4880763,126.803891 90.786499,126.652361 C91.0849217,126.50083 91.339273,126.297503 91.5495605,126.042375 C91.7598481,125.787247 91.9221999,125.491148 92.0366211,125.15407 C92.1510422,124.816991 92.208252,124.461363 92.208252,124.087175 C92.208252,123.70371 92.1456305,123.333393 92.0203857,122.976213 C91.895141,122.619034 91.7204194,122.31675 91.4962158,122.069353 C91.2720122,121.821956 91.0114761,121.630999 90.7145996,121.496477 C90.4177231,121.361955 90.1084814,121.294695 89.7868652,121.294695 C89.4188621,121.294695 89.0848811,121.370459 88.7849121,121.52199 C88.4849432,121.67352 88.2298188,121.876847 88.0195312,122.131975 C87.8092437,122.387103 87.6468918,122.683975 87.5324707,123.0226 C87.4180496,123.361225 87.3608398,123.716079 87.3608398,124.087175 C87.3608398,124.52012 87.4242344,124.905899 87.5510254,125.244524 C87.6778164,125.583148 87.84558,125.864558 88.0543213,126.088762 C88.2630626,126.312966 88.5120021,126.50083 88.8011475,126.652361 C89.0902928,126.803891 89.4188621,126.879656 89.7868652,126.879656 Z M97.607666,121.86989 C97.5087072,121.733822 97.3996995,121.629452 97.2806396,121.55678 C97.1615798,121.484107 97.0309252,121.428443 96.8886719,121.389787 C96.7464186,121.351132 96.6041674,121.331804 96.4619141,121.331804 C96.2268868,121.331804 96.0212411,121.358863 95.8449707,121.412981 C95.6687003,121.467099 95.5225836,121.540544 95.4066162,121.633318 C95.2906488,121.726092 95.2032881,121.834326 95.1445312,121.958025 C95.0857744,122.081723 95.0563965,122.211605 95.0563965,122.347673 C95.0563965,122.551776 95.0927324,122.716447 95.1654053,122.841692 C95.2380782,122.966936 95.3300776,123.06744 95.4414062,123.143205 C95.5527349,123.218971 95.6756585,123.2785 95.8101807,123.321794 C95.9447028,123.365089 96.0738112,123.408383 96.1975098,123.451677 L97.1345215,123.757829 C97.4159357,123.847511 97.6641021,123.949561 97.8790283,124.063982 C98.0939545,124.178403 98.2740878,124.313696 98.4194336,124.469865 C98.5647794,124.626035 98.6753333,124.806168 98.7510986,125.010271 C98.826864,125.214373 98.8647461,125.450943 98.8647461,125.719988 C98.8647461,126.010679 98.8052171,126.279719 98.6861572,126.527116 C98.5670974,126.774514 98.40088,126.989437 98.1875,127.171892 C97.97412,127.354347 97.7197687,127.497371 97.4244385,127.600969 C97.1291082,127.704567 96.8051775,127.756365 96.4526367,127.756365 C96.0908185,127.756365 95.7815768,127.71539 95.5249023,127.63344 C95.2682279,127.551489 95.0525318,127.441709 94.8778076,127.304094 C94.7030834,127.166479 94.5631516,127.009539 94.4580078,126.833269 C94.3528641,126.656998 94.270915,126.476092 94.2121582,126.290544 L93.8596191,126.290544 L93.8596191,125.492693 L95.0285645,125.492693 C95.0285645,125.835956 95.0649004,126.078711 95.1375732,126.220964 C95.2102461,126.363217 95.3115228,126.481502 95.4414062,126.575823 C95.5712897,126.670143 95.7259106,126.741268 95.9052734,126.789201 C96.0846363,126.837135 96.282551,126.861101 96.4990234,126.861101 C96.7093109,126.861101 96.8987215,126.836362 97.0672607,126.786882 C97.2358,126.737403 97.3795974,126.665504 97.4986572,126.571184 C97.6177171,126.476864 97.7089434,126.362444 97.7723389,126.227922 C97.8357344,126.0934 97.8674316,125.941098 97.8674316,125.771013 C97.8674316,125.582373 97.8280033,125.42234 97.7491455,125.29091 C97.6702877,125.159481 97.569011,125.047381 97.4453125,124.954607 C97.321614,124.861833 97.1863207,124.786069 97.0394287,124.727312 C96.8925367,124.668555 96.7510586,124.61753 96.6149902,124.574236 L95.5991211,124.286638 C95.3764637,124.218604 95.1731373,124.132016 94.9891357,124.026872 C94.8051342,123.921729 94.6474209,123.793393 94.5159912,123.641863 C94.3845615,123.490332 94.2832849,123.313291 94.2121582,123.110735 C94.1410315,122.908178 94.1054688,122.673928 94.1054688,122.407976 C94.1054688,122.138932 94.1580398,121.8869 94.2631836,121.651872 C94.3683273,121.416845 94.5229482,121.211199 94.7270508,121.034929 C94.9311534,120.858659 95.180866,120.720273 95.4761963,120.619768 C95.7715265,120.519263 96.1093731,120.469011 96.4897461,120.469011 C96.7402356,120.469011 96.9713938,120.498389 97.1832275,120.557146 C97.3950613,120.615903 97.5867911,120.698625 97.7584229,120.805315 C97.9300546,120.912005 98.081583,121.04034 98.2130127,121.190324 C98.3444424,121.340309 98.4549963,121.50498 98.5446777,121.684343 L98.8925781,121.684343 L98.8925781,122.482195 L97.7561035,122.482195 C97.7561035,122.210058 97.7066248,122.005958 97.607666,121.86989 Z M106.833984,122.426531 C106.626789,122.07399 106.352337,121.797218 106.01062,121.596208 C105.668903,121.395198 105.287763,121.294695 104.867187,121.294695 C104.508462,121.294695 104.180666,121.370459 103.883789,121.52199 C103.586913,121.67352 103.332561,121.876847 103.120728,122.131975 C102.908894,122.387103 102.744223,122.682429 102.626709,123.017961 C102.509195,123.353493 102.450439,123.706802 102.450439,124.077898 C102.450439,124.517028 102.51538,124.905899 102.645264,125.244524 C102.775147,125.583148 102.944457,125.864558 103.153198,126.088762 C103.36194,126.312966 103.610106,126.500057 103.897705,126.650041 C104.185304,126.800026 104.508462,126.875017 104.867187,126.875017 C105.355797,126.875017 105.781004,126.756732 106.142822,126.520158 C106.50464,126.283585 106.813882,125.894714 107.070557,125.353532 L107.886963,125.738542 C107.769449,126.072528 107.569988,126.394913 107.288574,126.705705 C107.00716,127.016498 106.660036,127.266984 106.247192,127.45717 C105.834349,127.647357 105.377444,127.742448 104.876465,127.742448 C104.397133,127.742448 103.956464,127.651995 103.554443,127.471086 C103.152423,127.290177 102.794476,127.032733 102.480591,126.698747 C102.166706,126.364761 101.927043,125.968932 101.761597,125.511247 C101.59615,125.053563 101.513428,124.575784 101.513428,124.077898 C101.513428,123.576919 101.59615,123.103779 101.761597,122.658464 C101.927043,122.213149 102.158975,121.825824 102.457397,121.496477 C102.75582,121.167129 103.111448,120.907366 103.524292,120.71718 C103.937136,120.526993 104.384763,120.431902 104.867187,120.431902 C105.29704,120.431902 105.66813,120.492977 105.980469,120.615129 C106.292808,120.737281 106.557982,120.882625 106.776001,121.051164 C106.99402,121.219704 107.181884,121.402929 107.3396,121.600847 L107.831299,121.600847 L107.831299,122.426531 L106.833984,122.426531 Z M113.003418,126.805437 L113.587891,126.805437 L113.03125,125.209734 L110.326904,125.209734 L109.78418,126.805437 L110.507812,126.805437 L110.507812,127.603288 L108.225586,127.603288 L108.225586,126.805437 L108.837891,126.805437 L111.027344,120.571062 L112.395752,120.571062 L114.580566,126.805437 L115.285645,126.805437 L115.285645,127.603288 L113.003418,127.603288 L113.003418,126.805437 Z M110.591309,124.439714 L112.762207,124.439714 L111.66748,121.294695 L110.591309,124.439714 Z M120.346436,120.571062 L122.628662,120.571062 L122.628662,121.373552 L122.030273,121.373552 L122.030273,127.603288 L120.842773,127.603288 L117.57251,121.772478 L117.57251,126.805437 L118.296143,126.805437 L118.296143,127.603288 L116.013916,127.603288 L116.013916,126.805437 L116.66333,126.805437 L116.66333,121.373552 L115.995361,121.373552 L115.995361,120.561784 L117.887939,120.561784 L121.0979,126.336931 L121.13501,126.114275 L121.13501,121.373552 L120.346436,121.373552 L120.346436,120.571062 Z M123.528564,120.571062 L126.144775,120.571062 C126.466392,120.571062 126.772541,120.612809 127.063232,120.696306 C127.353924,120.779802 127.62451,120.897314 127.875,121.048845 C128.12549,121.200376 128.352782,121.382055 128.556885,121.593889 C128.760987,121.805723 128.934936,122.041519 129.078735,122.301286 C129.222535,122.561053 129.333089,122.840144 129.4104,123.138567 C129.487712,123.436989 129.526367,123.747004 129.526367,124.06862 C129.526367,124.396421 129.487712,124.710302 129.4104,125.010271 C129.333089,125.31024 129.222535,125.59165 129.078735,125.854509 C128.934936,126.117368 128.760987,126.356258 128.556885,126.571184 C128.352782,126.78611 128.12549,126.970109 127.875,127.123186 C127.62451,127.276263 127.353924,127.394548 127.063232,127.478044 C126.772541,127.561541 126.466392,127.603288 126.144775,127.603288 L123.528564,127.603288 L123.528564,126.805437 L124.196533,126.805437 L124.196533,121.373552 L123.528564,121.373552 L123.528564,120.571062 Z M125.105713,121.373552 L125.105713,126.805437 L126.200439,126.805437 C126.525148,126.805437 126.830524,126.734311 127.116577,126.592058 C127.40263,126.449805 127.652343,126.255755 127.865723,126.009905 C128.079103,125.764054 128.247639,125.474913 128.371338,125.142473 C128.495036,124.810033 128.556885,124.452086 128.556885,124.06862 C128.556885,123.69134 128.495036,123.338804 128.371338,123.011003 C128.247639,122.683202 128.079103,122.397927 127.865723,122.155168 C127.652343,121.91241 127.40263,121.721453 127.116577,121.582292 C126.830524,121.443131 126.525148,121.373552 126.200439,121.373552 L125.105713,121.373552 Z M130.519043,120.571062 L132.76416,120.571062 L132.76416,121.373552 L132.096191,121.373552 L132.096191,126.805437 L132.76416,126.805437 L132.76416,127.603288 L130.519043,127.603288 L130.519043,126.805437 L131.187012,126.805437 L131.187012,121.373552 L130.519043,121.373552 L130.519043,120.571062 Z M134.09082,120.571062 L136.707031,120.571062 C137.028647,120.571062 137.334797,120.612809 137.625488,120.696306 C137.91618,120.779802 138.186766,120.897314 138.437256,121.048845 C138.687745,121.200376 138.915038,121.382055 139.119141,121.593889 C139.323243,121.805723 139.497192,122.041519 139.640991,122.301286 C139.784791,122.561053 139.895345,122.840144 139.972656,123.138567 C140.049968,123.436989 140.088623,123.747004 140.088623,124.06862 C140.088623,124.396421 140.049968,124.710302 139.972656,125.010271 C139.895345,125.31024 139.784791,125.59165 139.640991,125.854509 C139.497192,126.117368 139.323243,126.356258 139.119141,126.571184 C138.915038,126.78611 138.687745,126.970109 138.437256,127.123186 C138.186766,127.276263 137.91618,127.394548 137.625488,127.478044 C137.334797,127.561541 137.028647,127.603288 136.707031,127.603288 L134.09082,127.603288 L134.09082,126.805437 L134.758789,126.805437 L134.758789,121.373552 L134.09082,121.373552 L134.09082,120.571062 Z M135.667969,121.373552 L135.667969,126.805437 L136.762695,126.805437 C137.087404,126.805437 137.39278,126.734311 137.678833,126.592058 C137.964886,126.449805 138.214599,126.255755 138.427979,126.009905 C138.641358,125.764054 138.809895,125.474913 138.933594,125.142473 C139.057292,124.810033 139.119141,124.452086 139.119141,124.06862 C139.119141,123.69134 139.057292,123.338804 138.933594,123.011003 C138.809895,122.683202 138.641358,122.397927 138.427979,122.155168 C138.214599,121.91241 137.964886,121.721453 137.678833,121.582292 C137.39278,121.443131 137.087404,121.373552 136.762695,121.373552 L135.667969,121.373552 Z M145.242188,126.805437 L145.82666,126.805437 L145.27002,125.209734 L142.565674,125.209734 L142.022949,126.805437 L142.746582,126.805437 L142.746582,127.603288 L140.464355,127.603288 L140.464355,126.805437 L141.07666,126.805437 L143.266113,120.571062 L144.634521,120.571062 L146.819336,126.805437 L147.524414,126.805437 L147.524414,127.603288 L145.242188,127.603288 L145.242188,126.805437 Z M142.830078,124.439714 L145.000977,124.439714 L143.90625,121.294695 L142.830078,124.439714 Z M149.672119,126.805437 L150.316895,126.805437 L150.316895,121.331804 L148.711914,121.331804 L148.711914,122.426531 L147.760986,122.426531 L147.760986,120.571062 L154.032471,120.571062 L154.032471,122.426531 L153.081543,122.426531 L153.081543,121.331804 L151.226074,121.331804 L151.226074,126.805437 L151.949707,126.805437 L151.949707,127.603288 L149.672119,127.603288 L149.672119,126.805437 Z M157.928955,127.742448 C157.443438,127.742448 156.999676,127.651995 156.597656,127.471086 C156.195636,127.290177 155.836916,127.032733 155.521484,126.698747 C155.206053,126.364761 154.966391,125.968932 154.80249,125.511247 C154.63859,125.053563 154.556641,124.578877 154.556641,124.087175 C154.556641,123.580011 154.639363,123.103779 154.80481,122.658464 C154.970256,122.213149 155.202188,121.825824 155.50061,121.496477 C155.799033,121.167129 156.154661,120.907366 156.567505,120.71718 C156.980349,120.526993 157.434161,120.431902 157.928955,120.431902 C158.426842,120.431902 158.882973,120.526993 159.297363,120.71718 C159.711753,120.907366 160.067381,121.167129 160.364258,121.496477 C160.661134,121.825824 160.891519,122.213149 161.05542,122.658464 C161.21932,123.103779 161.30127,123.580011 161.30127,124.087175 C161.30127,124.594339 161.218547,125.069798 161.053101,125.513567 C160.887654,125.957335 160.655723,126.34466 160.3573,126.675554 C160.058877,127.006448 159.703249,127.266984 159.290405,127.45717 C158.877561,127.647357 158.423749,127.742448 157.928955,127.742448 Z M157.928955,126.879656 C158.296958,126.879656 158.630166,126.803891 158.928589,126.652361 C159.227012,126.50083 159.481363,126.297503 159.69165,126.042375 C159.901938,125.787247 160.06429,125.491148 160.178711,125.15407 C160.293132,124.816991 160.350342,124.461363 160.350342,124.087175 C160.350342,123.70371 160.28772,123.333393 160.162476,122.976213 C160.037231,122.619034 159.862509,122.31675 159.638306,122.069353 C159.414102,121.821956 159.153566,121.630999 158.856689,121.496477 C158.559813,121.361955 158.250571,121.294695 157.928955,121.294695 C157.560952,121.294695 157.226971,121.370459 156.927002,121.52199 C156.627033,121.67352 156.371909,121.876847 156.161621,122.131975 C155.951334,122.387103 155.788982,122.683975 155.674561,123.0226 C155.560139,123.361225 155.50293,123.716079 155.50293,124.087175 C155.50293,124.52012 155.566324,124.905899 155.693115,125.244524 C155.819906,125.583148 155.98767,125.864558 156.196411,126.088762 C156.405152,126.312966 156.654092,126.50083 156.943237,126.652361 C157.232383,126.803891 157.560952,126.879656 157.928955,126.879656 Z M165.749756,121.86989 C165.650797,121.733822 165.541789,121.629452 165.422729,121.55678 C165.30367,121.484107 165.173015,121.428443 165.030762,121.389787 C164.888508,121.351132 164.746257,121.331804 164.604004,121.331804 C164.368977,121.331804 164.163331,121.358863 163.987061,121.412981 C163.81079,121.467099 163.664673,121.540544 163.548706,121.633318 C163.432739,121.726092 163.345378,121.834326 163.286621,121.958025 C163.227864,122.081723 163.198486,122.211605 163.198486,122.347673 C163.198486,122.551776 163.234822,122.716447 163.307495,122.841692 C163.380168,122.966936 163.472167,123.06744 163.583496,123.143205 C163.694825,123.218971 163.817748,123.2785 163.952271,123.321794 C164.086793,123.365089 164.215901,123.408383 164.3396,123.451677 L165.276611,123.757829 C165.558025,123.847511 165.806192,123.949561 166.021118,124.063982 C166.236044,124.178403 166.416178,124.313696 166.561523,124.469865 C166.706869,124.626035 166.817423,124.806168 166.893188,125.010271 C166.968954,125.214373 167.006836,125.450943 167.006836,125.719988 C167.006836,126.010679 166.947307,126.279719 166.828247,126.527116 C166.709187,126.774514 166.54297,126.989437 166.32959,127.171892 C166.11621,127.354347 165.861859,127.497371 165.566528,127.600969 C165.271198,127.704567 164.947267,127.756365 164.594727,127.756365 C164.232908,127.756365 163.923667,127.71539 163.666992,127.63344 C163.410318,127.551489 163.194622,127.441709 163.019897,127.304094 C162.845173,127.166479 162.705241,127.009539 162.600098,126.833269 C162.494954,126.656998 162.413005,126.476092 162.354248,126.290544 L162.001709,126.290544 L162.001709,125.492693 L163.170654,125.492693 C163.170654,125.835956 163.20699,126.078711 163.279663,126.220964 C163.352336,126.363217 163.453613,126.481502 163.583496,126.575823 C163.71338,126.670143 163.868,126.741268 164.047363,126.789201 C164.226726,126.837135 164.424641,126.861101 164.641113,126.861101 C164.851401,126.861101 165.040811,126.836362 165.209351,126.786882 C165.37789,126.737403 165.521687,126.665504 165.640747,126.571184 C165.759807,126.476864 165.851033,126.362444 165.914429,126.227922 C165.977824,126.0934 166.009521,125.941098 166.009521,125.771013 C166.009521,125.582373 165.970093,125.42234 165.891235,125.29091 C165.812378,125.159481 165.711101,125.047381 165.587402,124.954607 C165.463704,124.861833 165.328411,124.786069 165.181519,124.727312 C165.034627,124.668555 164.893148,124.61753 164.75708,124.574236 L163.741211,124.286638 C163.518554,124.218604 163.315227,124.132016 163.131226,124.026872 C162.947224,123.921729 162.789511,123.793393 162.658081,123.641863 C162.526651,123.490332 162.425375,123.313291 162.354248,123.110735 C162.283121,122.908178 162.247559,122.673928 162.247559,122.407976 C162.247559,122.138932 162.30013,121.8869 162.405273,121.651872 C162.510417,121.416845 162.665038,121.211199 162.869141,121.034929 C163.073243,120.858659 163.322956,120.720273 163.618286,120.619768 C163.913616,120.519263 164.251463,120.469011 164.631836,120.469011 C164.882325,120.469011 165.113484,120.498389 165.325317,120.557146 C165.537151,120.615903 165.728881,120.698625 165.900513,120.805315 C166.072144,120.912005 166.223673,121.04034 166.355103,121.190324 C166.486532,121.340309 166.597086,121.50498 166.686768,121.684343 L167.034668,121.684343 L167.034668,122.482195 L165.898193,122.482195 C165.898193,122.210058 165.848715,122.005958 165.749756,121.86989 Z M169.984863,120.571062 L175.022461,120.571062 L175.022461,122.561052 L174.071533,122.561052 L174.071533,121.373552 L171.562012,121.373552 L171.562012,123.623308 L173.672607,123.623308 L173.672607,124.421159 L171.562012,124.421159 L171.562012,126.805437 L174.071533,126.805437 L174.071533,125.617937 L175.022461,125.617937 L175.022461,127.603288 L169.984863,127.603288 L169.984863,126.805437 L170.652832,126.805437 L170.652832,121.373552 L169.984863,121.373552 L169.984863,120.571062 Z M180.30127,120.571062 L182.583496,120.571062 L182.583496,121.373552 L181.985107,121.373552 L181.985107,127.603288 L180.797607,127.603288 L177.527344,121.772478 L177.527344,126.805437 L178.250977,126.805437 L178.250977,127.603288 L175.96875,127.603288 L175.96875,126.805437 L176.618164,126.805437 L176.618164,121.373552 L175.950195,121.373552 L175.950195,120.561784 L177.842773,120.561784 L181.052734,126.336931 L181.089844,126.114275 L181.089844,121.373552 L180.30127,121.373552 L180.30127,120.571062 Z" id="CHATEA-CON-LOS-CANDI" fill="#FFFFFF"></path>
                <g id="Group-63" transform="translate(32.954207, 32.255327)">
                    <g id="Group-61" style="mix-blend-mode: multiply;" transform="translate(3.505381, 2.629036)">
                        <g id="Group-3-Copy-15" transform="translate(0.706419, 0.518100)" fill="#5CA7FF">
                            <path d="M84.3301277,10.4685386 C80.4788335,6.0672778 74.7018923,4.28599696 69.157923,3.10433253 C52.8009986,-0.382608736 35.7734203,-0.272615408 19.4569795,3.42667409 C14.2223665,4.61368542 8.81741654,6.31017973 5.00202297,10.3020209 C0.0034372915,15.5328147 -1.21030853,24.0756299 1.18815709,31.0838853 C3.58662272,38.0921408 9.15579879,43.5497958 15.5453418,46.625026 C16.5039642,47.0863869 17.4816826,47.4935149 18.4723864,47.8593955 C17.9453351,51.2829379 16.8721363,54.6216937 15.2825799,57.6999792 C19.634191,55.9904995 23.5863123,53.3010099 26.814311,49.9217704 C29.8872496,50.3525776 33.0090741,50.4778478 36.1034003,50.3930613 C45.546022,49.8644822 47.8360219,49.9057297 57.2626029,49.1373041 C66.6899477,48.3688785 76.474007,45.3028145 82.8383432,37.8683349 C89.2026794,30.4330915 90.7723758,17.8289255 84.3301277,10.4685386" id="Fill-1"></path>
                        </g>
                        <g id="Group-6-Copy-6" transform="translate(47.300815, 13.503424)">
                            <mask id="mask-2" fill="white">
                                <use xlink:href="#path-1"></use>
                            </mask>
                            <g id="Clip-5"></g>
                            <path d="M83.3290357,12.707132 C76.9646995,5.27188855 67.1806402,2.20582453 57.7540592,1.43739892 C48.3267144,0.66897331 46.0367144,0.710220808 36.5940928,0.182405602 C29.5827819,-0.0108465643 22.4255772,0.874446957 16.0360342,3.94967708 C9.64649125,7.02567105 4.07731518,12.4825623 1.67808571,19.4908177 C-0.719616071,26.4990732 0.494129749,35.0418883 5.49347927,40.2726821 C9.30810899,44.2645233 14.7130589,45.9610176 19.9476719,47.148029 C33.5860808,50.2400636 47.7194596,50.8152371 61.544246,48.8865346 C64.8730718,52.5629088 69.0459437,55.4739128 73.6618443,57.2880389 C72.0493726,54.1639228 70.9685354,50.7709342 70.451414,47.293159 C75.7440791,46.1092031 81.1543759,44.295077 84.8208202,40.1061644 C91.2630683,32.7457776 89.6933718,20.1416116 83.3290357,12.707132" id="Fill-4" fill="#5CA7FF" mask="url(#mask-2)"></path>
                        </g>
                    </g>
                    <g id="Group-3" transform="translate(0.706419, 0.195391)" fill="#B2E1FF">
                        <path d="M84.3301277,10.4685386 C80.4788335,6.0672778 74.7018923,4.28599696 69.157923,3.10433253 C52.8009986,-0.382608736 35.7734203,-0.272615408 19.4569795,3.42667409 C14.2223665,4.61368542 8.81741654,6.31017973 5.00202297,10.3020209 C0.0034372915,15.5328147 -1.21030853,24.0756299 1.18815709,31.0838853 C3.58662272,38.0921408 9.15579879,43.5497958 15.5453418,46.625026 C16.5039642,47.0863869 17.4816826,47.4935149 18.4723864,47.8593955 C17.9453351,51.2829379 16.8721363,54.6216937 15.2825799,57.6999792 C19.634191,55.9904995 23.5863123,53.3010099 26.814311,49.9217704 C29.8872496,50.3525776 33.0090741,50.4778478 36.1034003,50.3930613 C45.546022,49.8644822 47.8360219,49.9057297 57.2626029,49.1373041 C66.6899477,48.3688785 76.474007,45.3028145 82.8383432,37.8683349 C89.2026794,30.4330915 90.7723758,17.8289255 84.3301277,10.4685386" id="Fill-1"></path>
                    </g>
                    <g id="Group-6" transform="translate(47.300815, 13.180714)">
                        <mask id="mask-4" fill="white">
                            <use xlink:href="#path-3"></use>
                        </mask>
                        <g id="Clip-5"></g>
                        <path d="M83.3290357,12.707132 C76.9646995,5.27188855 67.1806402,2.20582453 57.7540592,1.43739892 C48.3267144,0.66897331 46.0367144,0.710220808 36.5940928,0.182405602 C29.5827819,-0.0108465643 22.4255772,0.874446957 16.0360342,3.94967708 C9.64649125,7.02567105 4.07731518,12.4825623 1.67808571,19.4908177 C-0.719616071,26.4990732 0.494129749,35.0418883 5.49347927,40.2726821 C9.30810899,44.2645233 14.7130589,45.9610176 19.9476719,47.148029 C33.5860808,50.2400636 47.7194596,50.8152371 61.544246,48.8865346 C64.8730718,52.5629088 69.0459437,55.4739128 73.6618443,57.2880389 C72.0493726,54.1639228 70.9685354,50.7709342 70.451414,47.293159 C75.7440791,46.1092031 81.1543759,44.295077 84.8208202,40.1061644 C91.2630683,32.7457776 89.6933718,20.1416116 83.3290357,12.707132" id="Fill-4" fill="#FFFFFF" mask="url(#mask-4)"></path>
                    </g>
                </g>
            </g>
        </g>
    </g>
</svg>