<?xml version="1.0" encoding="UTF-8" standalone="no"?>
<svg width="201px" height="197px" viewBox="0 0 201 197" version="1.1" xmlns="http://www.w3.org/2000/svg" xmlns:xlink="http://www.w3.org/1999/xlink">
    <!-- Generator: Sketch 41.2 (35397) - http://www.bohemiancoding.com/sketch -->
    <title>Group 46</title>
    <desc>Created with Sketch.</desc>
    <defs></defs>
    <g id="Page-1" stroke="none" stroke-width="1" fill="none" fill-rule="evenodd">
        <g id="Group-46">
            <polygon id="Page-1-Copy-13" fill="#5CA7FF" points="0.108256631 1.17794323 0.108256631 194.930879 200.108257 196.011599 200.108257 0.130995178"></polygon>
            <path d="M13.4383887,117.311659 L19.7240332,117.311659 C20.4213023,117.311659 21.0621651,117.402235 21.6466407,117.583388 C22.2311162,117.764541 22.7369705,118.03114 23.1642188,118.383192 C23.591467,118.735245 23.9230067,119.17445 24.1588477,119.700819 C24.3946887,120.227189 24.5126074,120.832164 24.5126074,121.515761 C24.5126074,122.083146 24.3963977,122.618053 24.1639746,123.120497 C23.9315516,123.622941 23.6034299,124.062146 23.1795996,124.438124 C22.7557694,124.814103 22.2482061,125.111463 21.6568946,125.330214 C21.065583,125.548965 20.4076306,125.658339 19.6830176,125.658339 L16.9247168,125.658339 L16.9247168,131.092909 L18.4833106,131.092909 L18.4833106,132.856581 L13.4383887,132.856581 L13.4383887,131.092909 L14.9149512,131.092909 L14.9149512,119.085585 L13.4383887,119.085585 L13.4383887,117.311659 Z M16.9247168,119.085585 L16.9247168,123.976698 L19.7240332,123.976698 C20.1136836,123.976698 20.4708578,123.92372 20.7955664,123.817763 C21.1202751,123.711805 21.4005457,123.556289 21.6363867,123.35121 C21.8722278,123.146131 22.0567962,122.889786 22.1900977,122.582167 C22.3233991,122.274548 22.3900489,121.919083 22.3900489,121.515761 C22.3900489,120.750132 22.1576293,120.153702 21.6927832,119.726454 C21.2279372,119.299206 20.4862454,119.085585 19.4676856,119.085585 L16.9247168,119.085585 Z M26.4813574,117.311659 L32.9515723,117.311659 C33.6420054,117.311659 34.2794502,117.402235 34.8639258,117.583388 C35.4484014,117.764541 35.9542557,118.03114 36.3815039,118.383192 C36.8087522,118.735245 37.1420008,119.17445 37.3812598,119.700819 C37.6205188,120.227189 37.7401465,120.832164 37.7401465,121.515761 C37.7401465,121.905411 37.6700789,122.289929 37.5299414,122.669325 C37.389804,123.048722 37.1949817,123.400769 36.9454688,123.725478 C36.6959558,124.050186 36.4003045,124.339002 36.0585059,124.591933 C35.7167073,124.844864 35.3441524,125.039686 34.9408301,125.176405 C35.1117294,125.251601 35.2843351,125.359266 35.4586524,125.499403 C35.6329696,125.639541 35.7970305,125.810438 35.9508399,126.012099 C36.1046492,126.21376 36.2447846,126.442761 36.37125,126.69911 C36.4977155,126.955459 36.5985446,127.230603 36.6737403,127.52455 L37.5350684,130.908339 L38.8783301,130.908339 L38.8988379,132.856581 L35.8739356,132.856581 L34.7152442,128.12953 C34.503329,127.28187 34.1803342,126.658097 33.74625,126.258192 C33.3121658,125.858288 32.7191542,125.658339 31.9671973,125.658339 L29.9676856,125.658339 L29.9676856,131.092909 L31.5262793,131.092909 L31.5262793,132.856581 L26.4813574,132.856581 L26.4813574,131.092909 L27.9579199,131.092909 L27.9579199,119.085585 L26.4813574,119.085585 L26.4813574,117.311659 Z M29.9676856,119.085585 L29.9676856,123.976698 L32.9515723,123.976698 C33.3412227,123.976698 33.6983968,123.925429 34.0231055,123.82289 C34.3478142,123.72035 34.6280848,123.566543 34.8639258,123.361464 C35.0997668,123.156385 35.2843353,122.901749 35.4176367,122.597548 C35.5509382,122.293347 35.6175879,121.939591 35.6175879,121.536269 C35.6175879,120.763804 35.3851684,120.162247 34.9203223,119.731581 C34.4554762,119.300915 33.7172024,119.085585 32.7054785,119.085585 L29.9676856,119.085585 Z M48.1581153,133.164198 C47.0848677,133.164198 46.1039205,132.964249 45.2152442,132.564345 C44.3265679,132.16444 43.533607,131.595354 42.8363379,130.857069 C42.1390688,130.118784 41.6092889,129.243793 41.2469824,128.232069 C40.884676,127.220346 40.7035254,126.17104 40.7035254,125.08412 C40.7035254,123.963021 40.8863849,122.910297 41.2521094,121.925917 C41.6178339,120.941537 42.1305241,120.085345 42.7901953,119.357314 C43.4498666,118.629283 44.2359916,118.05507 45.1485938,117.634657 C46.061196,117.214245 47.0643598,117.004042 48.1581153,117.004042 C49.2587067,117.004042 50.2669974,117.214245 51.1830176,117.634657 C52.0990378,118.05507 52.8851628,118.629283 53.541416,119.357314 C54.1976693,120.085345 54.7069416,120.941537 55.0692481,121.925917 C55.4315546,122.910297 55.6127051,123.963021 55.6127051,125.08412 C55.6127051,126.20522 55.4298456,127.256234 55.0641211,128.237196 C54.6983966,129.218158 54.1857065,130.074351 53.5260352,130.8058 C52.8663639,131.537249 52.080239,132.113171 51.1676367,132.533583 C50.2550345,132.953995 49.2518707,133.164198 48.1581153,133.164198 Z M48.1581153,131.256972 C48.9715959,131.256972 49.7081608,131.089493 50.3678321,130.75453 C51.0275033,130.419568 51.5897536,129.970109 52.0545996,129.406142 C52.5194457,128.842174 52.8783288,128.18764 53.1312598,127.442519 C53.3841907,126.697398 53.5106543,125.911273 53.5106543,125.08412 C53.5106543,124.23646 53.372228,123.417864 53.0953711,122.62831 C52.8185143,121.838755 52.4322877,121.170549 51.9366797,120.623671 C51.4410718,120.076793 50.8651498,119.654678 50.2088965,119.357314 C49.5526432,119.059949 48.8690563,118.911269 48.1581153,118.911269 C47.3446346,118.911269 46.6063608,119.078747 45.9432715,119.41371 C45.2801823,119.748673 44.7162231,120.198131 44.251377,120.762099 C43.7865309,121.326066 43.4276478,121.98231 43.1747168,122.730849 C42.9217859,123.479388 42.7953223,124.263804 42.7953223,125.08412 C42.7953223,126.041156 42.9354576,126.893931 43.2157324,127.64247 C43.4960073,128.391009 43.8668532,129.013073 44.3282813,129.508681 C44.7897094,130.004289 45.3399968,130.419568 45.9791602,130.75453 C46.6183235,131.089493 47.3446346,131.256972 48.1581153,131.256972 Z M57.807041,117.311659 L64.0926856,117.311659 C64.7899547,117.311659 65.4308174,117.402235 66.015293,117.583388 C66.5997686,117.764541 67.1056229,118.03114 67.5328711,118.383192 C67.9601194,118.735245 68.291659,119.17445 68.5275,119.700819 C68.7633411,120.227189 68.8812598,120.832164 68.8812598,121.515761 C68.8812598,122.083146 68.76505,122.618053 68.532627,123.120497 C68.3002039,123.622941 67.9720822,124.062146 67.548252,124.438124 C67.1244217,124.814103 66.6168585,125.111463 66.0255469,125.330214 C65.4342354,125.548965 64.7762829,125.658339 64.0516699,125.658339 L61.2933692,125.658339 L61.2933692,131.092909 L62.8519629,131.092909 L62.8519629,132.856581 L57.807041,132.856581 L57.807041,131.092909 L59.2836035,131.092909 L59.2836035,119.085585 L57.807041,119.085585 L57.807041,117.311659 Z M61.2933692,119.085585 L61.2933692,123.976698 L64.0926856,123.976698 C64.482336,123.976698 64.8395101,123.92372 65.1642188,123.817763 C65.4889274,123.711805 65.7691981,123.556289 66.0050391,123.35121 C66.2408801,123.146131 66.4254486,122.889786 66.55875,122.582167 C66.6920515,122.274548 66.7587012,121.919083 66.7587012,121.515761 C66.7587012,120.750132 66.5262816,120.153702 66.0614356,119.726454 C65.5965895,119.299206 64.8548977,119.085585 63.8363379,119.085585 L61.2933692,119.085585 Z M70.5423926,117.311659 L75.5770606,117.311659 L75.5770606,119.085585 L73.9877051,119.085585 L73.9877051,126.324843 C73.9877051,127.193011 74.0851162,127.932994 74.2799414,128.544814 C74.4747666,129.156633 74.7447835,129.655651 75.09,130.041884 C75.4352166,130.428116 75.8453687,130.710096 76.3204688,130.887831 C76.7955688,131.065566 77.3168038,131.154433 77.8841895,131.154433 C78.472083,131.154433 79.0121167,131.07582 79.5043067,130.918593 C79.9964966,130.761365 80.4186115,130.496476 80.7706641,130.123915 C81.1227166,129.751355 81.3961514,129.255754 81.5909766,128.637099 C81.7858018,128.018443 81.8832129,127.247699 81.8832129,126.324843 L81.8832129,119.085585 L80.2015723,119.085585 L80.2015723,117.311659 L85.2362403,117.311659 L85.2362403,119.085585 L83.8519629,119.085585 L83.8519629,126.099257 C83.8519629,127.220356 83.6964469,128.214975 83.3854102,129.083144 C83.0743735,129.951312 82.6488406,130.679332 82.1087989,131.267226 C81.5687571,131.855119 80.9330213,132.30116 80.2015723,132.60536 C79.4701233,132.909561 78.6839984,133.061659 77.8431739,133.061659 C77.0228573,133.061659 76.2555309,132.91127 75.5411719,132.610487 C74.8268129,132.309705 74.2047488,131.868791 73.674961,131.287733 C73.1451732,130.706676 72.7281851,129.997454 72.4239844,129.160048 C72.1197837,128.322641 71.9676856,127.363911 71.9676856,126.283827 L71.9676856,119.085585 L70.5423926,119.085585 L70.5423926,117.311659 Z M86.7435645,117.311659 L97.8793067,117.311659 L97.8793067,121.710585 L95.7772559,121.710585 L95.7772559,119.085585 L90.2298926,119.085585 L90.2298926,124.05873 L94.8954199,124.05873 L94.8954199,125.822401 L90.2298926,125.822401 L90.2298926,131.092909 L95.7772559,131.092909 L95.7772559,128.467909 L97.8793067,128.467909 L97.8793067,132.856581 L86.7435645,132.856581 L86.7435645,131.092909 L88.220127,131.092909 L88.220127,119.085585 L86.7435645,119.085585 L86.7435645,117.311659 Z M107.569248,120.182753 C107.350497,119.88197 107.109533,119.65126 106.846348,119.490614 C106.583163,119.329969 106.294347,119.206923 105.979893,119.121474 C105.665438,119.036024 105.350988,118.9933 105.036533,118.9933 C104.516999,118.9933 104.062414,119.053114 103.672764,119.172743 C103.283113,119.292373 102.960118,119.454725 102.70377,119.659804 C102.447421,119.864883 102.254307,120.104138 102.124424,120.377577 C101.99454,120.651016 101.9296,120.938123 101.9296,121.238905 C101.9296,121.690079 102.009921,122.054089 102.170566,122.330946 C102.331212,122.607803 102.534579,122.829969 102.780674,122.99745 C103.026769,123.164932 103.298495,123.296522 103.595859,123.392226 C103.893224,123.487929 104.178622,123.583631 104.452061,123.679335 L106.52335,124.356093 C107.145423,124.554336 107.694002,124.77992 108.169102,125.032851 C108.644202,125.285782 109.042391,125.584851 109.363682,125.930067 C109.684972,126.275284 109.929355,126.673473 110.096836,127.124648 C110.264317,127.575822 110.348057,128.098766 110.348057,128.693495 C110.348057,129.336077 110.216466,129.930797 109.953281,130.477675 C109.690096,131.024553 109.322668,131.499646 108.850986,131.902968 C108.379304,132.30629 107.817054,132.622449 107.164219,132.851454 C106.511383,133.080459 105.795326,133.19496 105.016025,133.19496 C104.216217,133.19496 103.53263,133.104385 102.965244,132.923232 C102.397859,132.742078 101.921057,132.499405 101.534824,132.195204 C101.148592,131.891003 100.839269,131.544083 100.606846,131.154433 C100.374423,130.764782 100.193272,130.364884 100.063389,129.954726 L99.2840918,129.954726 L99.2840918,128.191054 L101.868076,128.191054 C101.868076,128.949847 101.948398,129.486462 102.109043,129.800917 C102.269688,130.115372 102.493563,130.376844 102.780674,130.585341 C103.067785,130.793838 103.409578,130.951063 103.806064,131.057021 C104.202551,131.162978 104.640046,131.215956 105.118564,131.215956 C105.583411,131.215956 106.002108,131.161269 106.374668,131.051894 C106.747228,130.942518 107.065096,130.783584 107.328281,130.575087 C107.591466,130.36659 107.793124,130.113663 107.933262,129.816298 C108.073399,129.518933 108.143467,129.182267 108.143467,128.806288 C108.143467,128.389294 108.056309,128.035538 107.881992,127.745009 C107.707675,127.45448 107.4838,127.20668 107.210361,127.001601 C106.936922,126.796521 106.637853,126.629043 106.313145,126.499159 C105.988436,126.369276 105.675695,126.256484 105.374912,126.16078 L103.129307,125.525038 C102.637117,125.374647 102.187658,125.183242 101.780918,124.950819 C101.374178,124.718396 101.025548,124.434708 100.73502,124.099745 C100.444491,123.764783 100.220616,123.373429 100.063389,122.925673 C99.9061614,122.477917 99.8275489,121.9601 99.8275489,121.372206 C99.8275489,120.777477 99.9437586,120.220353 100.176182,119.700819 C100.408605,119.181286 100.750398,118.7267 101.201572,118.33705 C101.652746,117.947399 102.204743,117.641494 102.857578,117.419325 C103.510413,117.197156 104.257232,117.086073 105.098057,117.086073 C105.65177,117.086073 106.162752,117.151014 106.631016,117.280898 C107.09928,117.410781 107.523104,117.59364 107.9025,117.829482 C108.281896,118.065323 108.616854,118.349011 108.907383,118.680556 C109.197912,119.0121 109.442294,119.37611 109.640537,119.772597 L110.40958,119.772597 L110.40958,121.536269 L107.897373,121.536269 C107.897373,120.934703 107.787999,120.483536 107.569248,120.182753 Z M115.516025,131.092909 L116.941318,131.092909 L116.941318,118.9933 L113.393467,118.9933 L113.393467,121.413222 L111.291416,121.413222 L111.291416,117.311659 L125.154697,117.311659 L125.154697,121.413222 L123.052647,121.413222 L123.052647,118.9933 L118.951084,118.9933 L118.951084,131.092909 L120.550693,131.092909 L120.550693,132.856581 L115.516025,132.856581 L115.516025,131.092909 Z M136.23917,131.092909 L137.531162,131.092909 L136.300693,127.565565 L130.322666,127.565565 L129.122959,131.092909 L130.722568,131.092909 L130.722568,132.856581 L125.677647,132.856581 L125.677647,131.092909 L127.031162,131.092909 L131.871006,117.311659 L134.895908,117.311659 L139.725498,131.092909 L141.284092,131.092909 L141.284092,132.856581 L136.23917,132.856581 L136.23917,131.092909 Z M130.907139,125.863417 L135.705967,125.863417 L133.286045,118.911269 L130.907139,125.863417 Z M150.4921,120.182753 C150.273349,119.88197 150.032384,119.65126 149.769199,119.490614 C149.506014,119.329969 149.217199,119.206923 148.902744,119.121474 C148.588289,119.036024 148.273839,118.9933 147.959385,118.9933 C147.439851,118.9933 146.985266,119.053114 146.595615,119.172743 C146.205965,119.292373 145.88297,119.454725 145.626621,119.659804 C145.370272,119.864883 145.177159,120.104138 145.047275,120.377577 C144.917392,120.651016 144.852451,120.938123 144.852451,121.238905 C144.852451,121.690079 144.932773,122.054089 145.093418,122.330946 C145.254063,122.607803 145.45743,122.829969 145.703525,122.99745 C145.94962,123.164932 146.221346,123.296522 146.518711,123.392226 C146.816076,123.487929 147.101473,123.583631 147.374912,123.679335 L149.446201,124.356093 C150.068275,124.554336 150.616853,124.77992 151.091953,125.032851 C151.567053,125.285782 151.965243,125.584851 152.286533,125.930067 C152.607824,126.275284 152.852206,126.673473 153.019688,127.124648 C153.187169,127.575822 153.270908,128.098766 153.270908,128.693495 C153.270908,129.336077 153.139318,129.930797 152.876133,130.477675 C152.612948,131.024553 152.24552,131.499646 151.773838,131.902968 C151.302156,132.30629 150.739906,132.622449 150.08707,132.851454 C149.434235,133.080459 148.718178,133.19496 147.938877,133.19496 C147.139068,133.19496 146.455481,133.104385 145.888096,132.923232 C145.32071,132.742078 144.843908,132.499405 144.457676,132.195204 C144.071443,131.891003 143.76212,131.544083 143.529697,131.154433 C143.297274,130.764782 143.116124,130.364884 142.98624,129.954726 L142.206943,129.954726 L142.206943,128.191054 L144.790928,128.191054 C144.790928,128.949847 144.871249,129.486462 145.031895,129.800917 C145.19254,130.115372 145.416415,130.376844 145.703525,130.585341 C145.990636,130.793838 146.33243,130.951063 146.728916,131.057021 C147.125402,131.162978 147.562898,131.215956 148.041416,131.215956 C148.506262,131.215956 148.924959,131.161269 149.29752,131.051894 C149.67008,130.942518 149.987948,130.783584 150.251133,130.575087 C150.514318,130.36659 150.715976,130.113663 150.856113,129.816298 C150.996251,129.518933 151.066318,129.182267 151.066318,128.806288 C151.066318,128.389294 150.979161,128.035538 150.804844,127.745009 C150.630527,127.45448 150.406652,127.20668 150.133213,127.001601 C149.859774,126.796521 149.560705,126.629043 149.235996,126.499159 C148.911287,126.369276 148.598546,126.256484 148.297764,126.16078 L146.052158,125.525038 C145.559968,125.374647 145.11051,125.183242 144.70377,124.950819 C144.297029,124.718396 143.9484,124.434708 143.657871,124.099745 C143.367342,123.764783 143.143468,123.373429 142.98624,122.925673 C142.829013,122.477917 142.7504,121.9601 142.7504,121.372206 C142.7504,120.777477 142.86661,120.220353 143.099033,119.700819 C143.331456,119.181286 143.67325,118.7267 144.124424,118.33705 C144.575598,117.947399 145.127594,117.641494 145.78043,117.419325 C146.433265,117.197156 147.180084,117.086073 148.020908,117.086073 C148.574622,117.086073 149.085603,117.151014 149.553867,117.280898 C150.022131,117.410781 150.445955,117.59364 150.825352,117.829482 C151.204748,118.065323 151.539706,118.349011 151.830234,118.680556 C152.120763,119.0121 152.365146,119.37611 152.563389,119.772597 L153.332432,119.772597 L153.332432,121.536269 L150.820225,121.536269 C150.820225,120.934703 150.710851,120.483536 150.4921,120.182753 Z M159.853916,117.311659 L165.637119,117.311659 C166.34806,117.311659 167.024811,117.403943 167.667393,117.588515 C168.309974,117.773086 168.908112,118.032849 169.461826,118.367812 C170.01554,118.702774 170.517976,119.104382 170.96915,119.572646 C171.420325,120.04091 171.804842,120.562145 172.122715,121.136366 C172.440588,121.710588 172.68497,122.327525 172.855869,122.987196 C173.026768,123.646868 173.112217,124.332163 173.112217,125.043105 C173.112217,125.767718 173.026768,126.461558 172.855869,127.124648 C172.68497,127.787737 172.440588,128.409801 172.122715,128.990858 C171.804842,129.571916 171.420325,130.099987 170.96915,130.575087 C170.517976,131.050187 170.01554,131.456921 169.461826,131.795302 C168.908112,132.133682 168.309974,132.395154 167.667393,132.579726 C167.024811,132.764297 166.34806,132.856581 165.637119,132.856581 L159.853916,132.856581 L159.853916,131.092909 L161.330479,131.092909 L161.330479,119.085585 L159.853916,119.085585 L159.853916,117.311659 Z M163.340244,119.085585 L163.340244,131.092909 L165.760166,131.092909 C166.477943,131.092909 167.152985,130.935684 167.785313,130.62123 C168.41764,130.306775 168.969636,129.877824 169.441318,129.334364 C169.913,128.790905 170.285555,128.151751 170.558994,127.416884 C170.832433,126.682017 170.96915,125.890765 170.96915,125.043105 C170.96915,124.209116 170.832433,123.429827 170.558994,122.705214 C170.285555,121.980601 169.913,121.349992 169.441318,120.813368 C168.969636,120.276744 168.41764,119.85463 167.785313,119.547011 C167.152985,119.239392 166.477943,119.085585 165.760166,119.085585 L163.340244,119.085585 Z M175.306553,117.311659 L186.442295,117.311659 L186.442295,121.710585 L184.340244,121.710585 L184.340244,119.085585 L178.792881,119.085585 L178.792881,124.05873 L183.458408,124.05873 L183.458408,125.822401 L178.792881,125.822401 L178.792881,131.092909 L184.340244,131.092909 L184.340244,128.467909 L186.442295,128.467909 L186.442295,132.856581 L175.306553,132.856581 L175.306553,131.092909 L176.783115,131.092909 L176.783115,119.085585 L175.306553,119.085585 L175.306553,117.311659 Z M22.9540137,141.311659 L28.8602637,141.311659 L28.8602637,144.131483 L27.5990332,144.131483 L27.5990332,156.856581 L24.1947364,156.856581 L17.7245215,146.807753 L17.7245215,154.047011 L19.0267676,154.047011 L19.0267676,156.856581 L13.1307715,156.856581 L13.1307715,154.047011 L14.4125098,154.047011 L14.4125098,144.131483 L13.1512793,144.131483 L13.1512793,141.311659 L17.8475684,141.311659 L24.2767676,151.493788 L24.2767676,144.131483 L22.9540137,144.131483 L22.9540137,141.311659 Z M30.5419043,141.311659 L37.1966895,141.311659 L37.1966895,144.12123 L35.5560645,144.12123 L35.5560645,154.047011 L37.1966895,154.047011 L37.1966895,156.856581 L30.5419043,156.856581 L30.5419043,154.047011 L32.1517676,154.047011 L32.1517676,144.12123 L30.5419043,144.12123 L30.5419043,141.311659 Z M48.6708106,141.311659 L54.5770606,141.311659 L54.5770606,144.131483 L53.3158301,144.131483 L53.3158301,156.856581 L49.9115332,156.856581 L43.4413184,146.807753 L43.4413184,154.047011 L44.7435645,154.047011 L44.7435645,156.856581 L38.8475684,156.856581 L38.8475684,154.047011 L40.1293067,154.047011 L40.1293067,144.131483 L38.8680762,144.131483 L38.8680762,141.311659 L43.5643653,141.311659 L49.9935645,151.493788 L49.9935645,144.131483 L48.6708106,144.131483 L48.6708106,141.311659 Z M44.8153418,136.769179 C45.1024526,136.769179 45.3793053,136.818739 45.6459082,136.91786 C45.9125111,137.016982 46.1739831,137.126356 46.4303321,137.245985 C46.686681,137.365615 46.9361902,137.474989 47.1788672,137.57411 C47.4215442,137.673232 47.6625086,137.722792 47.9017676,137.722792 C48.1888784,137.722792 48.4435145,137.671523 48.6656836,137.568983 C48.8878527,137.466444 49.0878019,137.285293 49.2655371,137.025526 L50.8856543,137.7433 C50.7831147,138.050919 50.6378525,138.338025 50.4498633,138.604628 C50.2618741,138.871231 50.0448352,139.105359 49.7987403,139.307021 C49.5526453,139.508682 49.2826285,139.665907 48.9886817,139.7787 C48.6947349,139.891494 48.3871208,139.94789 48.0658301,139.94789 C47.7103596,139.94789 47.3890737,139.901748 47.1019629,139.809462 C46.8148521,139.717176 46.5431263,139.614638 46.2867774,139.501845 C46.0304284,139.389051 45.7792102,139.284804 45.5331153,139.189101 C45.2870203,139.093397 45.0272573,139.045546 44.7538184,139.045546 C44.4461997,139.045546 44.1864366,139.108778 43.9745215,139.235243 C43.7626064,139.361709 43.5882917,139.513807 43.4515723,139.691542 L41.8929785,138.973769 C41.9886821,138.604626 42.151034,138.28334 42.3800391,138.009901 C42.6090441,137.736463 42.8636803,137.507461 43.1439551,137.32289 C43.4242299,137.138318 43.7130454,136.999892 44.0104102,136.907607 C44.307775,136.815321 44.5760828,136.769179 44.8153418,136.769179 Z M63.2928809,157.133437 C62.5887758,157.133437 61.9154427,157.037734 61.2728614,156.846327 C60.63028,156.65492 60.0304325,156.384903 59.4733008,156.036269 C58.9161691,155.687634 58.4103148,155.268937 57.9557227,154.780165 C57.5011306,154.291393 57.113195,153.747942 56.7919043,153.149794 C56.4706137,152.551646 56.2211044,151.910784 56.0433692,151.227187 C55.8656339,150.543589 55.7767676,149.829241 55.7767676,149.08412 C55.7767676,148.338999 55.8656339,147.622942 56.0433692,146.935927 C56.2211044,146.248912 56.4706137,145.60634 56.7919043,145.008192 C57.113195,144.410045 57.5011306,143.866593 57.9557227,143.377821 C58.4103148,142.889049 58.9161691,142.470352 59.4733008,142.121718 C60.0304325,141.773083 60.63028,141.503066 61.2728614,141.311659 C61.9154427,141.120252 62.5887758,141.02455 63.2928809,141.02455 C63.996986,141.02455 64.672028,141.120252 65.3180274,141.311659 C65.9640267,141.503066 66.5655832,141.773083 67.1227149,142.121718 C67.6798466,142.470352 68.1857009,142.889049 68.640293,143.377821 C69.0948851,143.866593 69.4845297,144.410045 69.8092383,145.008192 C70.133947,145.60634 70.3851652,146.248912 70.5629004,146.935927 C70.7406357,147.622942 70.829502,148.338999 70.829502,149.08412 C70.829502,149.822405 70.7406357,150.535044 70.5629004,151.22206 C70.3851652,151.909075 70.133947,152.551646 69.8092383,153.149794 C69.4845297,153.747942 69.0948851,154.291393 68.640293,154.780165 C68.1857009,155.268937 67.6798466,155.687634 67.1227149,156.036269 C66.5655832,156.384903 65.9640267,156.65492 65.3180274,156.846327 C64.672028,157.037734 63.996986,157.133437 63.2928809,157.133437 Z M63.2928809,153.91371 C63.8876104,153.91371 64.432771,153.785537 64.9283789,153.529189 C65.4239869,153.27284 65.8495197,152.92421 66.2049903,152.48329 C66.5604608,152.04237 66.8356045,151.52968 67.0304297,150.945204 C67.2252549,150.360729 67.322666,149.740373 67.322666,149.08412 C67.322666,148.421031 67.2235459,147.795549 67.0253028,147.207655 C66.8270596,146.619762 66.5484979,146.105363 66.1896094,145.664442 C65.8307209,145.223522 65.405188,144.874893 64.9129981,144.618544 C64.4208081,144.362195 63.8807745,144.234023 63.2928809,144.234023 C62.7049873,144.234023 62.1649537,144.362195 61.6727637,144.618544 C61.1805737,144.874893 60.7567499,145.223522 60.4012793,145.664442 C60.0458088,146.105363 59.7672471,146.619762 59.565586,147.207655 C59.3639248,147.795549 59.2630957,148.421031 59.2630957,149.08412 C59.2630957,149.740373 59.3639248,150.360729 59.565586,150.945204 C59.7672471,151.52968 60.0458088,152.04237 60.4012793,152.48329 C60.7567499,152.92421 61.1805737,153.27284 61.6727637,153.529189 C62.1649537,153.785537 62.7049873,153.91371 63.2928809,153.91371 Z M80.345127,145.690077 C80.3109471,145.450818 80.2272077,145.225235 80.0939063,145.013319 C79.9606048,144.801404 79.7897081,144.618545 79.581211,144.464735 C79.3727138,144.310926 79.1368763,144.189589 78.8736914,144.100722 C78.6105065,144.011854 78.3353628,143.967421 78.048252,143.967421 C77.7884851,143.967421 77.5458117,143.994764 77.3202246,144.049452 C77.0946376,144.10414 76.8981063,144.187879 76.730625,144.300673 C76.5631437,144.413466 76.4298443,144.558729 76.3307227,144.736464 C76.2316011,144.914199 76.182041,145.126111 76.182041,145.372206 C76.182041,145.679825 76.2486908,145.924207 76.3819922,146.10536 C76.5152937,146.286514 76.6861904,146.435194 76.8946875,146.551405 C77.1031847,146.667617 77.3338952,146.759901 77.5868262,146.828261 C77.8397572,146.896621 78.0858484,146.971815 78.3251074,147.053847 L81.1449317,147.997206 C81.5345821,148.133926 81.9003011,148.321912 82.2420996,148.561171 C82.5838982,148.80043 82.8795496,149.090954 83.1290625,149.432753 C83.3785755,149.774552 83.5751067,150.167614 83.7186621,150.611952 C83.8622175,151.05629 83.9339942,151.555309 83.9339942,152.109023 C83.9339942,152.860979 83.7955678,153.547984 83.518711,154.170058 C83.2418541,154.792131 82.8539185,155.325329 82.3548926,155.769667 C81.8558667,156.214005 81.2577281,156.559217 80.560459,156.805312 C79.8631899,157.051407 79.0907367,157.174452 78.2430762,157.174452 C77.6483467,157.174452 77.0860964,157.107802 76.5563086,156.974501 C76.0265208,156.8412 75.5428831,156.648086 75.1053809,156.395155 C74.6678787,156.142224 74.28507,155.839737 73.9569434,155.487685 C73.6288167,155.135632 73.3724717,154.737443 73.1879004,154.293105 L72.1317481,154.293105 L72.1317481,151.206679 L75.8436621,151.206679 L75.8436621,151.842421 C75.8436621,152.15004 75.8932222,152.433728 75.9923438,152.693495 C76.0914654,152.953262 76.2401455,153.178846 76.4383887,153.370253 C76.6366319,153.56166 76.8861411,153.71034 77.1869239,153.816298 C77.4877066,153.922255 77.8397539,153.975233 78.2430762,153.975233 C78.8583137,153.975233 79.3265707,153.833389 79.6478614,153.549696 C79.969152,153.266004 80.1297949,152.871232 80.1297949,152.36537 C80.1297949,152.105603 80.073399,151.888564 79.9606055,151.714247 C79.847812,151.53993 79.7025497,151.392959 79.5248145,151.273329 C79.3470792,151.1537 79.148839,151.052871 78.9300879,150.970839 C78.7113368,150.888807 78.4960069,150.813613 78.2840918,150.745253 L75.9359473,149.986464 C75.4916091,149.849744 75.0626583,149.65834 74.6490821,149.412245 C74.2355058,149.16615 73.8697868,148.858536 73.5519141,148.489394 C73.2340414,148.120251 72.9811142,147.687882 72.793125,147.192274 C72.6051358,146.696667 72.5111426,146.130998 72.5111426,145.495253 C72.5111426,144.756968 72.64786,144.099016 72.9212989,143.521376 C73.1947377,142.943736 73.5775464,142.456681 74.0697364,142.060194 C74.5619263,141.663708 75.1463931,141.36293 75.8231543,141.157851 C76.4999155,140.952771 77.2416073,140.850233 78.048252,140.850233 C78.6839973,140.850233 79.2718821,140.923719 79.8119239,141.070692 C80.3519656,141.217666 80.8356034,141.414197 81.2628516,141.660292 C81.6900998,141.906387 82.0524009,142.188367 82.3497657,142.506239 C82.6471304,142.824112 82.8744231,143.153943 83.0316504,143.495741 L84.057041,143.495741 L84.057041,146.592421 L80.345127,146.592421 L80.345127,145.690077 Z M86.579502,153.954726 L89.7069434,155.051894 L86.7845801,160.599257 L84.6825293,159.799452 L86.579502,153.954726 Z M105.118564,141.311659 L111.024814,141.311659 L111.024814,144.131483 L109.763584,144.131483 L109.763584,156.856581 L106.359287,156.856581 L99.8890723,146.807753 L99.8890723,154.047011 L101.191318,154.047011 L101.191318,156.856581 L95.2953223,156.856581 L95.2953223,154.047011 L96.5770606,154.047011 L96.5770606,144.131483 L95.3158301,144.131483 L95.3158301,141.311659 L100.012119,141.311659 L106.441318,151.493788 L106.441318,144.131483 L105.118564,144.131483 L105.118564,141.311659 Z M112.706455,141.311659 L119.36124,141.311659 L119.36124,144.12123 L117.720615,144.12123 L117.720615,154.047011 L119.36124,154.047011 L119.36124,156.856581 L112.706455,156.856581 L112.706455,154.047011 L114.316318,154.047011 L114.316318,144.12123 L112.706455,144.12123 L112.706455,141.311659 Z M130.835361,141.311659 L136.741611,141.311659 L136.741611,144.131483 L135.480381,144.131483 L135.480381,156.856581 L132.076084,156.856581 L125.605869,146.807753 L125.605869,154.047011 L126.908115,154.047011 L126.908115,156.856581 L121.012119,156.856581 L121.012119,154.047011 L122.293857,154.047011 L122.293857,144.131483 L121.032627,144.131483 L121.032627,141.311659 L125.728916,141.311659 L132.158115,151.493788 L132.158115,144.131483 L130.835361,144.131483 L130.835361,141.311659 Z M126.979893,136.769179 C127.267003,136.769179 127.543856,136.818739 127.810459,136.91786 C128.077062,137.016982 128.338534,137.126356 128.594883,137.245985 C128.851232,137.365615 129.100741,137.474989 129.343418,137.57411 C129.586095,137.673232 129.827059,137.722792 130.066318,137.722792 C130.353429,137.722792 130.608065,137.671523 130.830234,137.568983 C131.052403,137.466444 131.252353,137.285293 131.430088,137.025526 L133.050205,137.7433 C132.947666,138.050919 132.802403,138.338025 132.614414,138.604628 C132.426425,138.871231 132.209386,139.105359 131.963291,139.307021 C131.717196,139.508682 131.447179,139.665907 131.153232,139.7787 C130.859286,139.891494 130.551672,139.94789 130.230381,139.94789 C129.87491,139.94789 129.553625,139.901748 129.266514,139.809462 C128.979403,139.717176 128.707677,139.614638 128.451328,139.501845 C128.194979,139.389051 127.943761,139.284804 127.697666,139.189101 C127.451571,139.093397 127.191808,139.045546 126.918369,139.045546 C126.61075,139.045546 126.350987,139.108778 126.139072,139.235243 C125.927157,139.361709 125.752843,139.513807 125.616123,139.691542 L124.057529,138.973769 C124.153233,138.604626 124.315585,138.28334 124.54459,138.009901 C124.773595,137.736463 125.028231,137.507461 125.308506,137.32289 C125.588781,137.138318 125.877596,136.999892 126.174961,136.907607 C126.472326,136.815321 126.740634,136.769179 126.979893,136.769179 Z M146.421299,154.047011 L147.969639,154.047011 L147.272373,151.811659 L142.494053,151.811659 L141.796787,154.047011 L143.437412,154.047011 L143.437412,156.856581 L137.541416,156.856581 L137.541416,154.047011 L138.700107,154.047011 L142.934971,141.311659 L147.046787,141.311659 L151.189365,154.047011 L152.317295,154.047011 L152.317295,156.856581 L146.421299,156.856581 L146.421299,154.047011 Z M143.304111,149.186659 L146.441807,149.186659 L144.862705,144.131483 L143.304111,149.186659 Z M161.186924,145.690077 C161.152744,145.450818 161.069005,145.225235 160.935703,145.013319 C160.802402,144.801404 160.631505,144.618545 160.423008,144.464735 C160.214511,144.310926 159.978673,144.189589 159.715488,144.100722 C159.452303,144.011854 159.17716,143.967421 158.890049,143.967421 C158.630282,143.967421 158.387609,143.994764 158.162022,144.049452 C157.936434,144.10414 157.739903,144.187879 157.572422,144.300673 C157.404941,144.413466 157.271641,144.558729 157.17252,144.736464 C157.073398,144.914199 157.023838,145.126111 157.023838,145.372206 C157.023838,145.679825 157.090488,145.924207 157.223789,146.10536 C157.357091,146.286514 157.527987,146.435194 157.736484,146.551405 C157.944982,146.667617 158.175692,146.759901 158.428623,146.828261 C158.681554,146.896621 158.927645,146.971815 159.166904,147.053847 L161.986729,147.997206 C162.376379,148.133926 162.742098,148.321912 163.083897,148.561171 C163.425695,148.80043 163.721346,149.090954 163.970859,149.432753 C164.220372,149.774552 164.416904,150.167614 164.560459,150.611952 C164.704014,151.05629 164.775791,151.555309 164.775791,152.109023 C164.775791,152.860979 164.637365,153.547984 164.360508,154.170058 C164.083651,154.792131 163.695715,155.325329 163.196689,155.769667 C162.697664,156.214005 162.099525,156.559217 161.402256,156.805312 C160.704987,157.051407 159.932534,157.174452 159.084873,157.174452 C158.490144,157.174452 157.927893,157.107802 157.398105,156.974501 C156.868318,156.8412 156.38468,156.648086 155.947178,156.395155 C155.509676,156.142224 155.126867,155.839737 154.79874,155.487685 C154.470614,155.135632 154.214269,154.737443 154.029697,154.293105 L152.973545,154.293105 L152.973545,151.206679 L156.685459,151.206679 L156.685459,151.842421 C156.685459,152.15004 156.735019,152.433728 156.834141,152.693495 C156.933262,152.953262 157.081942,153.178846 157.280186,153.370253 C157.478429,153.56166 157.727938,153.71034 158.028721,153.816298 C158.329503,153.922255 158.681551,153.975233 159.084873,153.975233 C159.700111,153.975233 160.168368,153.833389 160.489658,153.549696 C160.810949,153.266004 160.971592,152.871232 160.971592,152.36537 C160.971592,152.105603 160.915196,151.888564 160.802402,151.714247 C160.689609,151.53993 160.544347,151.392959 160.366611,151.273329 C160.188876,151.1537 159.990636,151.052871 159.771885,150.970839 C159.553134,150.888807 159.337804,150.813613 159.125889,150.745253 L156.777744,149.986464 C156.333406,149.849744 155.904455,149.65834 155.490879,149.412245 C155.077303,149.16615 154.711584,148.858536 154.393711,148.489394 C154.075838,148.120251 153.822911,147.687882 153.634922,147.192274 C153.446933,146.696667 153.352939,146.130998 153.352939,145.495253 C153.352939,144.756968 153.489657,144.099016 153.763096,143.521376 C154.036535,142.943736 154.419343,142.456681 154.911533,142.060194 C155.403723,141.663708 155.98819,141.36293 156.664951,141.157851 C157.341712,140.952771 158.083404,140.850233 158.890049,140.850233 C159.525794,140.850233 160.113679,140.923719 160.653721,141.070692 C161.193762,141.217666 161.6774,141.414197 162.104648,141.660292 C162.531897,141.906387 162.894198,142.188367 163.191563,142.506239 C163.488927,142.824112 163.71622,143.153943 163.873447,143.495741 L164.898838,143.495741 L164.898838,146.592421 L161.186924,146.592421 L161.186924,145.690077 Z M170.005283,141.311659 L176.660068,141.311659 L176.660068,144.131483 L175.357822,144.131483 L177.439365,147.699843 L179.643955,144.131483 L178.157139,144.131483 L178.157139,141.311659 L184.811924,141.311659 L184.811924,144.131483 L183.663486,144.131483 L179.038975,150.406874 L179.038975,154.047011 L180.925693,154.047011 L180.925693,156.856581 L173.994053,156.856581 L173.994053,154.047011 L175.716709,154.047011 L175.716709,150.365858 L171.369053,144.131483 L170.005283,144.131483 L170.005283,141.311659 Z M21.1288184,178.047011 L22.6771582,178.047011 L21.9798926,175.811659 L17.2015723,175.811659 L16.5043067,178.047011 L18.1449317,178.047011 L18.1449317,180.856581 L12.2489356,180.856581 L12.2489356,178.047011 L13.407627,178.047011 L17.6424903,165.311659 L21.7543067,165.311659 L25.8968848,178.047011 L27.0248145,178.047011 L27.0248145,180.856581 L21.1288184,180.856581 L21.1288184,178.047011 Z M18.0116309,173.186659 L21.1493262,173.186659 L19.5702246,168.131483 L18.0116309,173.186659 Z M28.1014746,165.311659 L34.0692481,165.311659 C34.7801891,165.311659 35.4620671,165.403943 36.1149024,165.588515 C36.7677377,165.773086 37.37613,166.032849 37.9400977,166.367812 C38.5040653,166.702774 39.0167555,167.104382 39.4781836,167.572646 C39.9396117,168.04091 40.3343832,168.562145 40.6625098,169.136366 C40.9906364,169.710588 41.2435636,170.329234 41.4212989,170.992323 C41.5990341,171.655413 41.6879004,172.345835 41.6879004,173.063612 C41.6879004,173.781389 41.5990341,174.471812 41.4212989,175.134901 C41.2435636,175.797991 40.9906364,176.418346 40.6625098,176.995985 C40.3343832,177.573625 39.9396117,178.099987 39.4781836,178.575087 C39.0167555,179.050187 38.5040653,179.456921 37.9400977,179.795302 C37.37613,180.133682 36.7677377,180.395154 36.1149024,180.579726 C35.4620671,180.764297 34.7801891,180.856581 34.0692481,180.856581 L28.1014746,180.856581 L28.1014746,178.047011 L29.3421973,178.047011 L29.3421973,168.131483 L28.1014746,168.131483 L28.1014746,165.311659 Z M32.7464942,168.131483 L32.7464942,178.047011 L34.0487403,178.047011 C34.602454,178.047011 35.125398,177.917129 35.6175879,177.657362 C36.1097779,177.397595 36.5370197,177.043839 36.8993262,176.596083 C37.2616327,176.148327 37.5487392,175.621965 37.7606543,175.016982 C37.9725694,174.411998 38.0785254,173.760881 38.0785254,173.063612 C38.0785254,172.373179 37.9725694,171.72719 37.7606543,171.125624 C37.5487392,170.524059 37.2616327,170.001115 36.8993262,169.556776 C36.5370197,169.112438 36.1097779,168.763809 35.6175879,168.510878 C35.125398,168.257947 34.602454,168.131483 34.0487403,168.131483 L32.7464942,168.131483 Z M50.5062598,181.133437 C49.8021547,181.133437 49.1288216,181.037734 48.4862403,180.846327 C47.8436589,180.65492 47.2438114,180.384903 46.6866797,180.036269 C46.129548,179.687634 45.6236937,179.268937 45.1691016,178.780165 C44.7145095,178.291393 44.3265739,177.747942 44.0052832,177.149794 C43.6839926,176.551646 43.4344833,175.910784 43.2567481,175.227187 C43.0790128,174.543589 42.9901465,173.829241 42.9901465,173.08412 C42.9901465,172.338999 43.0790128,171.622942 43.2567481,170.935927 C43.4344833,170.248912 43.6839926,169.60634 44.0052832,169.008192 C44.3265739,168.410045 44.7145095,167.866593 45.1691016,167.377821 C45.6236937,166.889049 46.129548,166.470352 46.6866797,166.121718 C47.2438114,165.773083 47.8436589,165.503066 48.4862403,165.311659 C49.1288216,165.120252 49.8021547,165.02455 50.5062598,165.02455 C51.2103649,165.02455 51.885407,165.120252 52.5314063,165.311659 C53.1774056,165.503066 53.7789621,165.773083 54.3360938,166.121718 C54.8932255,166.470352 55.3990798,166.889049 55.8536719,167.377821 C56.308264,167.866593 56.6979086,168.410045 57.0226172,169.008192 C57.3473259,169.60634 57.5985441,170.248912 57.7762793,170.935927 C57.9540146,171.622942 58.0428809,172.338999 58.0428809,173.08412 C58.0428809,173.822405 57.9540146,174.535044 57.7762793,175.22206 C57.5985441,175.909075 57.3473259,176.551646 57.0226172,177.149794 C56.6979086,177.747942 56.308264,178.291393 55.8536719,178.780165 C55.3990798,179.268937 54.8932255,179.687634 54.3360938,180.036269 C53.7789621,180.384903 53.1774056,180.65492 52.5314063,180.846327 C51.885407,181.037734 51.2103649,181.133437 50.5062598,181.133437 Z M50.5062598,177.91371 C51.1009893,177.91371 51.6461499,177.785537 52.1417578,177.529189 C52.6373658,177.27284 53.0628986,176.92421 53.4183692,176.48329 C53.7738397,176.04237 54.0489834,175.52968 54.2438086,174.945204 C54.4386338,174.360729 54.5360449,173.740373 54.5360449,173.08412 C54.5360449,172.421031 54.4369248,171.795549 54.2386817,171.207655 C54.0404385,170.619762 53.7618768,170.105363 53.4029883,169.664442 C53.0440998,169.223522 52.6185669,168.874893 52.126377,168.618544 C51.634187,168.362195 51.0941534,168.234023 50.5062598,168.234023 C49.9183662,168.234023 49.3783326,168.362195 48.8861426,168.618544 C48.3939526,168.874893 47.9701288,169.223522 47.6146582,169.664442 C47.2591877,170.105363 46.980626,170.619762 46.7789649,171.207655 C46.5773037,171.795549 46.4764746,172.421031 46.4764746,173.08412 C46.4764746,173.740373 46.5773037,174.360729 46.7789649,174.945204 C46.980626,175.52968 47.2591877,176.04237 47.6146582,176.48329 C47.9701288,176.92421 48.3939526,177.27284 48.8861426,177.529189 C49.3783326,177.785537 49.9183662,177.91371 50.5062598,177.91371 Z M60.0834082,165.311659 L66.7381934,165.311659 L66.7381934,168.131483 L65.0975684,168.131483 L65.0975684,178.047011 L68.4813574,178.047011 C68.5702251,178.047011 68.6573824,178.021376 68.7428321,177.970107 C68.8282817,177.918837 68.9034763,177.852187 68.968418,177.770155 C69.0333597,177.688124 69.0863377,177.599257 69.1273535,177.503554 C69.1683694,177.40785 69.188877,177.315566 69.188877,177.226698 L69.188877,175.145155 L72.5111426,175.145155 L72.5111426,180.856581 L60.0834082,180.856581 L60.0834082,178.047011 L61.6932715,178.047011 L61.6932715,168.131483 L60.0834082,168.131483 L60.0834082,165.311659 Z M73.885166,165.311659 L86.251377,165.311659 L86.251377,170.612929 L82.9086035,170.612929 L82.9086035,168.408339 L78.919834,168.408339 L78.919834,171.474257 L82.0062598,171.474257 L82.0062598,174.44789 L78.919834,174.44789 L78.919834,178.047011 L82.9086035,178.047011 L82.9086035,175.28871 L86.251377,175.28871 L86.251377,180.856581 L73.885166,180.856581 L73.885166,178.047011 L75.5155371,178.047011 L75.5155371,168.408339 L73.885166,168.408339 L73.885166,165.311659 Z M95.5106543,169.690077 C95.4764745,169.450818 95.3927351,169.225235 95.2594336,169.013319 C95.1261322,168.801404 94.9552354,168.618545 94.7467383,168.464735 C94.5382412,168.310926 94.3024037,168.189589 94.0392188,168.100722 C93.7760339,168.011854 93.5008901,167.967421 93.2137793,167.967421 C92.9540124,167.967421 92.711339,167.994764 92.485752,168.049452 C92.2601649,168.10414 92.0636337,168.187879 91.8961524,168.300673 C91.7286711,168.413466 91.5953716,168.558729 91.49625,168.736464 C91.3971284,168.914199 91.3475684,169.126111 91.3475684,169.372206 C91.3475684,169.679825 91.4142181,169.924207 91.5475196,170.10536 C91.680821,170.286514 91.8517177,170.435194 92.0602149,170.551405 C92.268712,170.667617 92.4994226,170.759901 92.7523535,170.828261 C93.0052845,170.896621 93.2513758,170.971815 93.4906348,171.053847 L96.310459,171.997206 C96.7001094,172.133926 97.0658284,172.321912 97.407627,172.561171 C97.7494256,172.80043 98.0450769,173.090954 98.2945899,173.432753 C98.5441028,173.774552 98.7406341,174.167614 98.8841895,174.611952 C99.0277449,175.05629 99.0995215,175.555309 99.0995215,176.109023 C99.0995215,176.860979 98.9610952,177.547984 98.6842383,178.170058 C98.4073815,178.792131 98.0194459,179.325329 97.5204199,179.769667 C97.021394,180.214005 96.4232555,180.559217 95.7259864,180.805312 C95.0287172,181.051407 94.256264,181.174452 93.4086035,181.174452 C92.813874,181.174452 92.2516238,181.107802 91.721836,180.974501 C91.1920482,180.8412 90.7084104,180.648086 90.2709082,180.395155 C89.833406,180.142224 89.4505974,179.839737 89.1224707,179.487685 C88.7943441,179.135632 88.537999,178.737443 88.3534278,178.293105 L87.2972754,178.293105 L87.2972754,175.206679 L91.0091895,175.206679 L91.0091895,175.842421 C91.0091895,176.15004 91.0587495,176.433728 91.1578711,176.693495 C91.2569927,176.953262 91.4056729,177.178846 91.603916,177.370253 C91.8021592,177.56166 92.0516684,177.71034 92.3524512,177.816298 C92.653234,177.922255 93.0052812,177.975233 93.4086035,177.975233 C94.023841,177.975233 94.492098,177.833389 94.8133887,177.549696 C95.1346794,177.266004 95.2953223,176.871232 95.2953223,176.36537 C95.2953223,176.105603 95.2389264,175.888564 95.1261328,175.714247 C95.0133393,175.53993 94.8680771,175.392959 94.6903418,175.273329 C94.5126066,175.1537 94.3143664,175.052871 94.0956153,174.970839 C93.8768642,174.888807 93.6615343,174.813613 93.4496192,174.745253 L91.1014746,173.986464 C90.6571365,173.849744 90.2281857,173.65834 89.8146094,173.412245 C89.4010331,173.16615 89.0353141,172.858536 88.7174414,172.489394 C88.3995688,172.120251 88.1466416,171.687882 87.9586524,171.192274 C87.7706632,170.696667 87.6766699,170.130998 87.6766699,169.495253 C87.6766699,168.756968 87.8133873,168.099016 88.0868262,167.521376 C88.3602651,166.943736 88.7430737,166.456681 89.2352637,166.060194 C89.7274537,165.663708 90.3119205,165.36293 90.9886817,165.157851 C91.6654429,164.952771 92.4071347,164.850233 93.2137793,164.850233 C93.8495247,164.850233 94.4374094,164.923719 94.9774512,165.070692 C95.517493,165.217666 96.0011307,165.414197 96.4283789,165.660292 C96.8556272,165.906387 97.2179282,166.188367 97.515293,166.506239 C97.8126578,166.824112 98.0399504,167.153943 98.1971778,167.495741 L99.2225684,167.495741 L99.2225684,170.592421 L95.5106543,170.592421 L95.5106543,169.690077 Z M110.983799,170.03871 C110.600984,169.491832 110.255773,169.103897 109.948154,168.874892 C109.640536,168.645887 109.308996,168.481826 108.953525,168.382704 C108.598055,168.283583 108.2255,168.234023 107.83585,168.234023 C107.261628,168.234023 106.72843,168.362195 106.23624,168.618544 C105.74405,168.874893 105.318517,169.223522 104.959629,169.664442 C104.60074,170.105363 104.318761,170.618053 104.113682,171.202528 C103.908603,171.787004 103.806064,172.407359 103.806064,173.063612 C103.806064,173.726702 103.906894,174.350475 104.108555,174.93495 C104.310216,175.519426 104.588778,176.030407 104.944248,176.467909 C105.299719,176.905411 105.723542,177.252332 106.215732,177.508681 C106.707922,177.76503 107.247956,177.893202 107.83585,177.893202 C108.246008,177.893202 108.628817,177.826552 108.984287,177.693251 C109.339758,177.55995 109.662752,177.383926 109.953281,177.165175 C110.24381,176.946424 110.498446,176.695206 110.717197,176.411513 C110.935948,176.12782 111.106845,175.832169 111.229893,175.52455 L114.53165,176.447401 C114.319735,177.117327 114.008703,177.737682 113.598545,178.308485 C113.188387,178.879289 112.694495,179.373181 112.116855,179.790175 C111.539216,180.207169 110.889808,180.535291 110.168613,180.77455 C109.447418,181.013809 108.669838,181.133437 107.83585,181.133437 C107.131745,181.133437 106.458411,181.037734 105.81583,180.846327 C105.173249,180.65492 104.573401,180.384903 104.01627,180.036269 C103.459138,179.687634 102.953284,179.267228 102.498691,178.775038 C102.044099,178.282848 101.656164,177.737688 101.334873,177.13954 C101.013582,176.541393 100.764073,175.898821 100.586338,175.211806 C100.408603,174.524791 100.319736,173.808733 100.319736,173.063612 C100.319736,171.949349 100.514559,170.90517 100.904209,169.931044 C101.293859,168.956918 101.827057,168.105852 102.503818,167.377821 C103.18058,166.64979 103.975249,166.075577 104.887852,165.655165 C105.800454,165.234753 106.78311,165.02455 107.83585,165.02455 C108.676674,165.02455 109.384187,165.128797 109.958408,165.337294 C110.53263,165.545791 111.164948,165.957652 111.855381,166.57289 L114.152256,166.57289 L114.152256,170.03871 L110.983799,170.03871 Z M116.73624,165.311659 L129.102451,165.311659 L129.102451,170.612929 L125.759678,170.612929 L125.759678,168.408339 L121.770908,168.408339 L121.770908,171.474257 L124.857334,171.474257 L124.857334,174.44789 L121.770908,174.44789 L121.770908,178.047011 L125.759678,178.047011 L125.759678,175.28871 L129.102451,175.28871 L129.102451,180.856581 L116.73624,180.856581 L116.73624,178.047011 L118.366611,178.047011 L118.366611,168.408339 L116.73624,168.408339 L116.73624,165.311659 Z M140.709873,165.311659 L146.616123,165.311659 L146.616123,168.131483 L145.354893,168.131483 L145.354893,180.856581 L141.950596,180.856581 L135.480381,170.807753 L135.480381,178.047011 L136.782627,178.047011 L136.782627,180.856581 L130.886631,180.856581 L130.886631,178.047011 L132.168369,178.047011 L132.168369,168.131483 L130.907139,168.131483 L130.907139,165.311659 L135.603428,165.311659 L142.032627,175.493788 L142.032627,168.131483 L140.709873,168.131483 L140.709873,165.311659 Z M150.963779,178.047011 L152.573643,178.047011 L152.573643,168.028944 L150.686924,168.028944 L150.686924,170.03871 L147.34415,170.03871 L147.34415,165.311659 L161.484287,165.311659 L161.484287,170.03871 L158.121006,170.03871 L158.121006,168.028944 L155.977939,168.028944 L155.977939,178.047011 L157.618564,178.047011 L157.618564,180.856581 L150.963779,180.856581 L150.963779,178.047011 Z M162.96085,165.311659 L175.327061,165.311659 L175.327061,170.612929 L171.984287,170.612929 L171.984287,168.408339 L167.995518,168.408339 L167.995518,171.474257 L171.081943,171.474257 L171.081943,174.44789 L167.995518,174.44789 L167.995518,178.047011 L171.984287,178.047011 L171.984287,175.28871 L175.327061,175.28871 L175.327061,180.856581 L162.96085,180.856581 L162.96085,178.047011 L164.591221,178.047011 L164.591221,168.408339 L162.96085,168.408339 L162.96085,165.311659 Z M184.586338,169.690077 C184.552158,169.450818 184.468419,169.225235 184.335117,169.013319 C184.201816,168.801404 184.030919,168.618545 183.822422,168.464735 C183.613925,168.310926 183.378087,168.189589 183.114902,168.100722 C182.851717,168.011854 182.576574,167.967421 182.289463,167.967421 C182.029696,167.967421 181.787023,167.994764 181.561436,168.049452 C181.335849,168.10414 181.139317,168.187879 180.971836,168.300673 C180.804355,168.413466 180.671055,168.558729 180.571934,168.736464 C180.472812,168.914199 180.423252,169.126111 180.423252,169.372206 C180.423252,169.679825 180.489902,169.924207 180.623203,170.10536 C180.756505,170.286514 180.927401,170.435194 181.135898,170.551405 C181.344396,170.667617 181.575106,170.759901 181.828037,170.828261 C182.080968,170.896621 182.327059,170.971815 182.566318,171.053847 L185.386143,171.997206 C185.775793,172.133926 186.141512,172.321912 186.483311,172.561171 C186.825109,172.80043 187.12076,173.090954 187.370273,173.432753 C187.619786,173.774552 187.816318,174.167614 187.959873,174.611952 C188.103428,175.05629 188.175205,175.555309 188.175205,176.109023 C188.175205,176.860979 188.036779,177.547984 187.759922,178.170058 C187.483065,178.792131 187.095129,179.325329 186.596104,179.769667 C186.097078,180.214005 185.498939,180.559217 184.80167,180.805312 C184.104401,181.051407 183.331948,181.174452 182.484287,181.174452 C181.889558,181.174452 181.327307,181.107802 180.79752,180.974501 C180.267732,180.8412 179.784094,180.648086 179.346592,180.395155 C178.90909,180.142224 178.526281,179.839737 178.198154,179.487685 C177.870028,179.135632 177.613683,178.737443 177.429111,178.293105 L176.372959,178.293105 L176.372959,175.206679 L180.084873,175.206679 L180.084873,175.842421 C180.084873,176.15004 180.134433,176.433728 180.233555,176.693495 C180.332676,176.953262 180.481356,177.178846 180.6796,177.370253 C180.877843,177.56166 181.127352,177.71034 181.428135,177.816298 C181.728918,177.922255 182.080965,177.975233 182.484287,177.975233 C183.099525,177.975233 183.567782,177.833389 183.889072,177.549696 C184.210363,177.266004 184.371006,176.871232 184.371006,176.36537 C184.371006,176.105603 184.31461,175.888564 184.201816,175.714247 C184.089023,175.53993 183.943761,175.392959 183.766025,175.273329 C183.58829,175.1537 183.39005,175.052871 183.171299,174.970839 C182.952548,174.888807 182.737218,174.813613 182.525303,174.745253 L180.177158,173.986464 C179.73282,173.849744 179.303869,173.65834 178.890293,173.412245 C178.476717,173.16615 178.110998,172.858536 177.793125,172.489394 C177.475252,172.120251 177.222325,171.687882 177.034336,171.192274 C176.846347,170.696667 176.752354,170.130998 176.752354,169.495253 C176.752354,168.756968 176.889071,168.099016 177.16251,167.521376 C177.435949,166.943736 177.818757,166.456681 178.310947,166.060194 C178.803137,165.663708 179.387604,165.36293 180.064365,165.157851 C180.741126,164.952771 181.482818,164.850233 182.289463,164.850233 C182.925208,164.850233 183.513093,164.923719 184.053135,165.070692 C184.593177,165.217666 185.076814,165.414197 185.504063,165.660292 C185.931311,165.906387 186.293612,166.188367 186.590977,166.506239 C186.888341,166.824112 187.115634,167.153943 187.272861,167.495741 L188.298252,167.495741 L188.298252,170.592421 L184.586338,170.592421 L184.586338,169.690077 Z" id="PROPUESTAS-de-NIOS,-Copy" fill="#FFFFFF"></path>
        </g>
    </g>
</svg>