<?xml version="1.0" encoding="UTF-8" standalone="no"?>
<svg width="201px" height="197px" viewBox="0 0 201 197" version="1.1" xmlns="http://www.w3.org/2000/svg" xmlns:xlink="http://www.w3.org/1999/xlink">
    <!-- Generator: Sketch 41.2 (35397) - http://www.bohemiancoding.com/sketch -->
    <title>Group 60</title>
    <desc>Created with Sketch.</desc>
    <defs>
        <polygon id="path-1" points="117.748107 0.310269576 0.000438027637 0.310269576 0.000438027637 25.8237003 117.748107 25.8237003 117.748107 0.310269576"></polygon>
        <polygon id="path-3" points="10.4717807 4.20418926 10.4717807 0.177255184 0.485699645 0.177255184 0.485699645 4.20418926 10.4717807 4.20418926"></polygon>
        <polygon id="path-5" points="117.748107 0.310269576 0.000438027637 0.310269576 0.000438027637 25.8237003 117.748107 25.8237003 117.748107 0.310269576"></polygon>
        <polygon id="path-7" points="10.4717807 4.20418926 10.4717807 0.177255184 0.485699645 0.177255184 0.485699645 4.20418926 10.4717807 4.20418926"></polygon>
    </defs>
    <g id="Page-1" stroke="none" stroke-width="1" fill="none" fill-rule="evenodd">
        <g id="Group-60">
            <g id="Group-46">
                <polygon id="Page-1-Copy-13" fill="#5CA7FF" points="0.108256631 1.17794323 0.108256631 194.930879 200.108257 196.011599 200.108257 0.130995178"></polygon>
                <path d="M13.4383887,117.311659 L19.7240332,117.311659 C20.4213023,117.311659 21.0621651,117.402235 21.6466407,117.583388 C22.2311162,117.764541 22.7369705,118.03114 23.1642188,118.383192 C23.591467,118.735245 23.9230067,119.17445 24.1588477,119.700819 C24.3946887,120.227189 24.5126074,120.832164 24.5126074,121.515761 C24.5126074,122.083146 24.3963977,122.618053 24.1639746,123.120497 C23.9315516,123.622941 23.6034299,124.062146 23.1795996,124.438124 C22.7557694,124.814103 22.2482061,125.111463 21.6568946,125.330214 C21.065583,125.548965 20.4076306,125.658339 19.6830176,125.658339 L16.9247168,125.658339 L16.9247168,131.092909 L18.4833106,131.092909 L18.4833106,132.856581 L13.4383887,132.856581 L13.4383887,131.092909 L14.9149512,131.092909 L14.9149512,119.085585 L13.4383887,119.085585 L13.4383887,117.311659 Z M16.9247168,119.085585 L16.9247168,123.976698 L19.7240332,123.976698 C20.1136836,123.976698 20.4708578,123.92372 20.7955664,123.817763 C21.1202751,123.711805 21.4005457,123.556289 21.6363867,123.35121 C21.8722278,123.146131 22.0567962,122.889786 22.1900977,122.582167 C22.3233991,122.274548 22.3900489,121.919083 22.3900489,121.515761 C22.3900489,120.750132 22.1576293,120.153702 21.6927832,119.726454 C21.2279372,119.299206 20.4862454,119.085585 19.4676856,119.085585 L16.9247168,119.085585 Z M26.4813574,117.311659 L32.9515723,117.311659 C33.6420054,117.311659 34.2794502,117.402235 34.8639258,117.583388 C35.4484014,117.764541 35.9542557,118.03114 36.3815039,118.383192 C36.8087522,118.735245 37.1420008,119.17445 37.3812598,119.700819 C37.6205188,120.227189 37.7401465,120.832164 37.7401465,121.515761 C37.7401465,121.905411 37.6700789,122.289929 37.5299414,122.669325 C37.389804,123.048722 37.1949817,123.400769 36.9454688,123.725478 C36.6959558,124.050186 36.4003045,124.339002 36.0585059,124.591933 C35.7167073,124.844864 35.3441524,125.039686 34.9408301,125.176405 C35.1117294,125.251601 35.2843351,125.359266 35.4586524,125.499403 C35.6329696,125.639541 35.7970305,125.810438 35.9508399,126.012099 C36.1046492,126.21376 36.2447846,126.442761 36.37125,126.69911 C36.4977155,126.955459 36.5985446,127.230603 36.6737403,127.52455 L37.5350684,130.908339 L38.8783301,130.908339 L38.8988379,132.856581 L35.8739356,132.856581 L34.7152442,128.12953 C34.503329,127.28187 34.1803342,126.658097 33.74625,126.258192 C33.3121658,125.858288 32.7191542,125.658339 31.9671973,125.658339 L29.9676856,125.658339 L29.9676856,131.092909 L31.5262793,131.092909 L31.5262793,132.856581 L26.4813574,132.856581 L26.4813574,131.092909 L27.9579199,131.092909 L27.9579199,119.085585 L26.4813574,119.085585 L26.4813574,117.311659 Z M29.9676856,119.085585 L29.9676856,123.976698 L32.9515723,123.976698 C33.3412227,123.976698 33.6983968,123.925429 34.0231055,123.82289 C34.3478142,123.72035 34.6280848,123.566543 34.8639258,123.361464 C35.0997668,123.156385 35.2843353,122.901749 35.4176367,122.597548 C35.5509382,122.293347 35.6175879,121.939591 35.6175879,121.536269 C35.6175879,120.763804 35.3851684,120.162247 34.9203223,119.731581 C34.4554762,119.300915 33.7172024,119.085585 32.7054785,119.085585 L29.9676856,119.085585 Z M48.1581153,133.164198 C47.0848677,133.164198 46.1039205,132.964249 45.2152442,132.564345 C44.3265679,132.16444 43.533607,131.595354 42.8363379,130.857069 C42.1390688,130.118784 41.6092889,129.243793 41.2469824,128.232069 C40.884676,127.220346 40.7035254,126.17104 40.7035254,125.08412 C40.7035254,123.963021 40.8863849,122.910297 41.2521094,121.925917 C41.6178339,120.941537 42.1305241,120.085345 42.7901953,119.357314 C43.4498666,118.629283 44.2359916,118.05507 45.1485938,117.634657 C46.061196,117.214245 47.0643598,117.004042 48.1581153,117.004042 C49.2587067,117.004042 50.2669974,117.214245 51.1830176,117.634657 C52.0990378,118.05507 52.8851628,118.629283 53.541416,119.357314 C54.1976693,120.085345 54.7069416,120.941537 55.0692481,121.925917 C55.4315546,122.910297 55.6127051,123.963021 55.6127051,125.08412 C55.6127051,126.20522 55.4298456,127.256234 55.0641211,128.237196 C54.6983966,129.218158 54.1857065,130.074351 53.5260352,130.8058 C52.8663639,131.537249 52.080239,132.113171 51.1676367,132.533583 C50.2550345,132.953995 49.2518707,133.164198 48.1581153,133.164198 Z M48.1581153,131.256972 C48.9715959,131.256972 49.7081608,131.089493 50.3678321,130.75453 C51.0275033,130.419568 51.5897536,129.970109 52.0545996,129.406142 C52.5194457,128.842174 52.8783288,128.18764 53.1312598,127.442519 C53.3841907,126.697398 53.5106543,125.911273 53.5106543,125.08412 C53.5106543,124.23646 53.372228,123.417864 53.0953711,122.62831 C52.8185143,121.838755 52.4322877,121.170549 51.9366797,120.623671 C51.4410718,120.076793 50.8651498,119.654678 50.2088965,119.357314 C49.5526432,119.059949 48.8690563,118.911269 48.1581153,118.911269 C47.3446346,118.911269 46.6063608,119.078747 45.9432715,119.41371 C45.2801823,119.748673 44.7162231,120.198131 44.251377,120.762099 C43.7865309,121.326066 43.4276478,121.98231 43.1747168,122.730849 C42.9217859,123.479388 42.7953223,124.263804 42.7953223,125.08412 C42.7953223,126.041156 42.9354576,126.893931 43.2157324,127.64247 C43.4960073,128.391009 43.8668532,129.013073 44.3282813,129.508681 C44.7897094,130.004289 45.3399968,130.419568 45.9791602,130.75453 C46.6183235,131.089493 47.3446346,131.256972 48.1581153,131.256972 Z M57.807041,117.311659 L64.0926856,117.311659 C64.7899547,117.311659 65.4308174,117.402235 66.015293,117.583388 C66.5997686,117.764541 67.1056229,118.03114 67.5328711,118.383192 C67.9601194,118.735245 68.291659,119.17445 68.5275,119.700819 C68.7633411,120.227189 68.8812598,120.832164 68.8812598,121.515761 C68.8812598,122.083146 68.76505,122.618053 68.532627,123.120497 C68.3002039,123.622941 67.9720822,124.062146 67.548252,124.438124 C67.1244217,124.814103 66.6168585,125.111463 66.0255469,125.330214 C65.4342354,125.548965 64.7762829,125.658339 64.0516699,125.658339 L61.2933692,125.658339 L61.2933692,131.092909 L62.8519629,131.092909 L62.8519629,132.856581 L57.807041,132.856581 L57.807041,131.092909 L59.2836035,131.092909 L59.2836035,119.085585 L57.807041,119.085585 L57.807041,117.311659 Z M61.2933692,119.085585 L61.2933692,123.976698 L64.0926856,123.976698 C64.482336,123.976698 64.8395101,123.92372 65.1642188,123.817763 C65.4889274,123.711805 65.7691981,123.556289 66.0050391,123.35121 C66.2408801,123.146131 66.4254486,122.889786 66.55875,122.582167 C66.6920515,122.274548 66.7587012,121.919083 66.7587012,121.515761 C66.7587012,120.750132 66.5262816,120.153702 66.0614356,119.726454 C65.5965895,119.299206 64.8548977,119.085585 63.8363379,119.085585 L61.2933692,119.085585 Z M70.5423926,117.311659 L75.5770606,117.311659 L75.5770606,119.085585 L73.9877051,119.085585 L73.9877051,126.324843 C73.9877051,127.193011 74.0851162,127.932994 74.2799414,128.544814 C74.4747666,129.156633 74.7447835,129.655651 75.09,130.041884 C75.4352166,130.428116 75.8453687,130.710096 76.3204688,130.887831 C76.7955688,131.065566 77.3168038,131.154433 77.8841895,131.154433 C78.472083,131.154433 79.0121167,131.07582 79.5043067,130.918593 C79.9964966,130.761365 80.4186115,130.496476 80.7706641,130.123915 C81.1227166,129.751355 81.3961514,129.255754 81.5909766,128.637099 C81.7858018,128.018443 81.8832129,127.247699 81.8832129,126.324843 L81.8832129,119.085585 L80.2015723,119.085585 L80.2015723,117.311659 L85.2362403,117.311659 L85.2362403,119.085585 L83.8519629,119.085585 L83.8519629,126.099257 C83.8519629,127.220356 83.6964469,128.214975 83.3854102,129.083144 C83.0743735,129.951312 82.6488406,130.679332 82.1087989,131.267226 C81.5687571,131.855119 80.9330213,132.30116 80.2015723,132.60536 C79.4701233,132.909561 78.6839984,133.061659 77.8431739,133.061659 C77.0228573,133.061659 76.2555309,132.91127 75.5411719,132.610487 C74.8268129,132.309705 74.2047488,131.868791 73.674961,131.287733 C73.1451732,130.706676 72.7281851,129.997454 72.4239844,129.160048 C72.1197837,128.322641 71.9676856,127.363911 71.9676856,126.283827 L71.9676856,119.085585 L70.5423926,119.085585 L70.5423926,117.311659 Z M86.7435645,117.311659 L97.8793067,117.311659 L97.8793067,121.710585 L95.7772559,121.710585 L95.7772559,119.085585 L90.2298926,119.085585 L90.2298926,124.05873 L94.8954199,124.05873 L94.8954199,125.822401 L90.2298926,125.822401 L90.2298926,131.092909 L95.7772559,131.092909 L95.7772559,128.467909 L97.8793067,128.467909 L97.8793067,132.856581 L86.7435645,132.856581 L86.7435645,131.092909 L88.220127,131.092909 L88.220127,119.085585 L86.7435645,119.085585 L86.7435645,117.311659 Z M107.569248,120.182753 C107.350497,119.88197 107.109533,119.65126 106.846348,119.490614 C106.583163,119.329969 106.294347,119.206923 105.979893,119.121474 C105.665438,119.036024 105.350988,118.9933 105.036533,118.9933 C104.516999,118.9933 104.062414,119.053114 103.672764,119.172743 C103.283113,119.292373 102.960118,119.454725 102.70377,119.659804 C102.447421,119.864883 102.254307,120.104138 102.124424,120.377577 C101.99454,120.651016 101.9296,120.938123 101.9296,121.238905 C101.9296,121.690079 102.009921,122.054089 102.170566,122.330946 C102.331212,122.607803 102.534579,122.829969 102.780674,122.99745 C103.026769,123.164932 103.298495,123.296522 103.595859,123.392226 C103.893224,123.487929 104.178622,123.583631 104.452061,123.679335 L106.52335,124.356093 C107.145423,124.554336 107.694002,124.77992 108.169102,125.032851 C108.644202,125.285782 109.042391,125.584851 109.363682,125.930067 C109.684972,126.275284 109.929355,126.673473 110.096836,127.124648 C110.264317,127.575822 110.348057,128.098766 110.348057,128.693495 C110.348057,129.336077 110.216466,129.930797 109.953281,130.477675 C109.690096,131.024553 109.322668,131.499646 108.850986,131.902968 C108.379304,132.30629 107.817054,132.622449 107.164219,132.851454 C106.511383,133.080459 105.795326,133.19496 105.016025,133.19496 C104.216217,133.19496 103.53263,133.104385 102.965244,132.923232 C102.397859,132.742078 101.921057,132.499405 101.534824,132.195204 C101.148592,131.891003 100.839269,131.544083 100.606846,131.154433 C100.374423,130.764782 100.193272,130.364884 100.063389,129.954726 L99.2840918,129.954726 L99.2840918,128.191054 L101.868076,128.191054 C101.868076,128.949847 101.948398,129.486462 102.109043,129.800917 C102.269688,130.115372 102.493563,130.376844 102.780674,130.585341 C103.067785,130.793838 103.409578,130.951063 103.806064,131.057021 C104.202551,131.162978 104.640046,131.215956 105.118564,131.215956 C105.583411,131.215956 106.002108,131.161269 106.374668,131.051894 C106.747228,130.942518 107.065096,130.783584 107.328281,130.575087 C107.591466,130.36659 107.793124,130.113663 107.933262,129.816298 C108.073399,129.518933 108.143467,129.182267 108.143467,128.806288 C108.143467,128.389294 108.056309,128.035538 107.881992,127.745009 C107.707675,127.45448 107.4838,127.20668 107.210361,127.001601 C106.936922,126.796521 106.637853,126.629043 106.313145,126.499159 C105.988436,126.369276 105.675695,126.256484 105.374912,126.16078 L103.129307,125.525038 C102.637117,125.374647 102.187658,125.183242 101.780918,124.950819 C101.374178,124.718396 101.025548,124.434708 100.73502,124.099745 C100.444491,123.764783 100.220616,123.373429 100.063389,122.925673 C99.9061614,122.477917 99.8275489,121.9601 99.8275489,121.372206 C99.8275489,120.777477 99.9437586,120.220353 100.176182,119.700819 C100.408605,119.181286 100.750398,118.7267 101.201572,118.33705 C101.652746,117.947399 102.204743,117.641494 102.857578,117.419325 C103.510413,117.197156 104.257232,117.086073 105.098057,117.086073 C105.65177,117.086073 106.162752,117.151014 106.631016,117.280898 C107.09928,117.410781 107.523104,117.59364 107.9025,117.829482 C108.281896,118.065323 108.616854,118.349011 108.907383,118.680556 C109.197912,119.0121 109.442294,119.37611 109.640537,119.772597 L110.40958,119.772597 L110.40958,121.536269 L107.897373,121.536269 C107.897373,120.934703 107.787999,120.483536 107.569248,120.182753 Z M115.516025,131.092909 L116.941318,131.092909 L116.941318,118.9933 L113.393467,118.9933 L113.393467,121.413222 L111.291416,121.413222 L111.291416,117.311659 L125.154697,117.311659 L125.154697,121.413222 L123.052647,121.413222 L123.052647,118.9933 L118.951084,118.9933 L118.951084,131.092909 L120.550693,131.092909 L120.550693,132.856581 L115.516025,132.856581 L115.516025,131.092909 Z M136.23917,131.092909 L137.531162,131.092909 L136.300693,127.565565 L130.322666,127.565565 L129.122959,131.092909 L130.722568,131.092909 L130.722568,132.856581 L125.677647,132.856581 L125.677647,131.092909 L127.031162,131.092909 L131.871006,117.311659 L134.895908,117.311659 L139.725498,131.092909 L141.284092,131.092909 L141.284092,132.856581 L136.23917,132.856581 L136.23917,131.092909 Z M130.907139,125.863417 L135.705967,125.863417 L133.286045,118.911269 L130.907139,125.863417 Z M150.4921,120.182753 C150.273349,119.88197 150.032384,119.65126 149.769199,119.490614 C149.506014,119.329969 149.217199,119.206923 148.902744,119.121474 C148.588289,119.036024 148.273839,118.9933 147.959385,118.9933 C147.439851,118.9933 146.985266,119.053114 146.595615,119.172743 C146.205965,119.292373 145.88297,119.454725 145.626621,119.659804 C145.370272,119.864883 145.177159,120.104138 145.047275,120.377577 C144.917392,120.651016 144.852451,120.938123 144.852451,121.238905 C144.852451,121.690079 144.932773,122.054089 145.093418,122.330946 C145.254063,122.607803 145.45743,122.829969 145.703525,122.99745 C145.94962,123.164932 146.221346,123.296522 146.518711,123.392226 C146.816076,123.487929 147.101473,123.583631 147.374912,123.679335 L149.446201,124.356093 C150.068275,124.554336 150.616853,124.77992 151.091953,125.032851 C151.567053,125.285782 151.965243,125.584851 152.286533,125.930067 C152.607824,126.275284 152.852206,126.673473 153.019688,127.124648 C153.187169,127.575822 153.270908,128.098766 153.270908,128.693495 C153.270908,129.336077 153.139318,129.930797 152.876133,130.477675 C152.612948,131.024553 152.24552,131.499646 151.773838,131.902968 C151.302156,132.30629 150.739906,132.622449 150.08707,132.851454 C149.434235,133.080459 148.718178,133.19496 147.938877,133.19496 C147.139068,133.19496 146.455481,133.104385 145.888096,132.923232 C145.32071,132.742078 144.843908,132.499405 144.457676,132.195204 C144.071443,131.891003 143.76212,131.544083 143.529697,131.154433 C143.297274,130.764782 143.116124,130.364884 142.98624,129.954726 L142.206943,129.954726 L142.206943,128.191054 L144.790928,128.191054 C144.790928,128.949847 144.871249,129.486462 145.031895,129.800917 C145.19254,130.115372 145.416415,130.376844 145.703525,130.585341 C145.990636,130.793838 146.33243,130.951063 146.728916,131.057021 C147.125402,131.162978 147.562898,131.215956 148.041416,131.215956 C148.506262,131.215956 148.924959,131.161269 149.29752,131.051894 C149.67008,130.942518 149.987948,130.783584 150.251133,130.575087 C150.514318,130.36659 150.715976,130.113663 150.856113,129.816298 C150.996251,129.518933 151.066318,129.182267 151.066318,128.806288 C151.066318,128.389294 150.979161,128.035538 150.804844,127.745009 C150.630527,127.45448 150.406652,127.20668 150.133213,127.001601 C149.859774,126.796521 149.560705,126.629043 149.235996,126.499159 C148.911287,126.369276 148.598546,126.256484 148.297764,126.16078 L146.052158,125.525038 C145.559968,125.374647 145.11051,125.183242 144.70377,124.950819 C144.297029,124.718396 143.9484,124.434708 143.657871,124.099745 C143.367342,123.764783 143.143468,123.373429 142.98624,122.925673 C142.829013,122.477917 142.7504,121.9601 142.7504,121.372206 C142.7504,120.777477 142.86661,120.220353 143.099033,119.700819 C143.331456,119.181286 143.67325,118.7267 144.124424,118.33705 C144.575598,117.947399 145.127594,117.641494 145.78043,117.419325 C146.433265,117.197156 147.180084,117.086073 148.020908,117.086073 C148.574622,117.086073 149.085603,117.151014 149.553867,117.280898 C150.022131,117.410781 150.445955,117.59364 150.825352,117.829482 C151.204748,118.065323 151.539706,118.349011 151.830234,118.680556 C152.120763,119.0121 152.365146,119.37611 152.563389,119.772597 L153.332432,119.772597 L153.332432,121.536269 L150.820225,121.536269 C150.820225,120.934703 150.710851,120.483536 150.4921,120.182753 Z M159.853916,117.311659 L165.637119,117.311659 C166.34806,117.311659 167.024811,117.403943 167.667393,117.588515 C168.309974,117.773086 168.908112,118.032849 169.461826,118.367812 C170.01554,118.702774 170.517976,119.104382 170.96915,119.572646 C171.420325,120.04091 171.804842,120.562145 172.122715,121.136366 C172.440588,121.710588 172.68497,122.327525 172.855869,122.987196 C173.026768,123.646868 173.112217,124.332163 173.112217,125.043105 C173.112217,125.767718 173.026768,126.461558 172.855869,127.124648 C172.68497,127.787737 172.440588,128.409801 172.122715,128.990858 C171.804842,129.571916 171.420325,130.099987 170.96915,130.575087 C170.517976,131.050187 170.01554,131.456921 169.461826,131.795302 C168.908112,132.133682 168.309974,132.395154 167.667393,132.579726 C167.024811,132.764297 166.34806,132.856581 165.637119,132.856581 L159.853916,132.856581 L159.853916,131.092909 L161.330479,131.092909 L161.330479,119.085585 L159.853916,119.085585 L159.853916,117.311659 Z M163.340244,119.085585 L163.340244,131.092909 L165.760166,131.092909 C166.477943,131.092909 167.152985,130.935684 167.785313,130.62123 C168.41764,130.306775 168.969636,129.877824 169.441318,129.334364 C169.913,128.790905 170.285555,128.151751 170.558994,127.416884 C170.832433,126.682017 170.96915,125.890765 170.96915,125.043105 C170.96915,124.209116 170.832433,123.429827 170.558994,122.705214 C170.285555,121.980601 169.913,121.349992 169.441318,120.813368 C168.969636,120.276744 168.41764,119.85463 167.785313,119.547011 C167.152985,119.239392 166.477943,119.085585 165.760166,119.085585 L163.340244,119.085585 Z M175.306553,117.311659 L186.442295,117.311659 L186.442295,121.710585 L184.340244,121.710585 L184.340244,119.085585 L178.792881,119.085585 L178.792881,124.05873 L183.458408,124.05873 L183.458408,125.822401 L178.792881,125.822401 L178.792881,131.092909 L184.340244,131.092909 L184.340244,128.467909 L186.442295,128.467909 L186.442295,132.856581 L175.306553,132.856581 L175.306553,131.092909 L176.783115,131.092909 L176.783115,119.085585 L175.306553,119.085585 L175.306553,117.311659 Z M22.9540137,141.311659 L28.8602637,141.311659 L28.8602637,144.131483 L27.5990332,144.131483 L27.5990332,156.856581 L24.1947364,156.856581 L17.7245215,146.807753 L17.7245215,154.047011 L19.0267676,154.047011 L19.0267676,156.856581 L13.1307715,156.856581 L13.1307715,154.047011 L14.4125098,154.047011 L14.4125098,144.131483 L13.1512793,144.131483 L13.1512793,141.311659 L17.8475684,141.311659 L24.2767676,151.493788 L24.2767676,144.131483 L22.9540137,144.131483 L22.9540137,141.311659 Z M30.5419043,141.311659 L37.1966895,141.311659 L37.1966895,144.12123 L35.5560645,144.12123 L35.5560645,154.047011 L37.1966895,154.047011 L37.1966895,156.856581 L30.5419043,156.856581 L30.5419043,154.047011 L32.1517676,154.047011 L32.1517676,144.12123 L30.5419043,144.12123 L30.5419043,141.311659 Z M48.6708106,141.311659 L54.5770606,141.311659 L54.5770606,144.131483 L53.3158301,144.131483 L53.3158301,156.856581 L49.9115332,156.856581 L43.4413184,146.807753 L43.4413184,154.047011 L44.7435645,154.047011 L44.7435645,156.856581 L38.8475684,156.856581 L38.8475684,154.047011 L40.1293067,154.047011 L40.1293067,144.131483 L38.8680762,144.131483 L38.8680762,141.311659 L43.5643653,141.311659 L49.9935645,151.493788 L49.9935645,144.131483 L48.6708106,144.131483 L48.6708106,141.311659 Z M44.8153418,136.769179 C45.1024526,136.769179 45.3793053,136.818739 45.6459082,136.91786 C45.9125111,137.016982 46.1739831,137.126356 46.4303321,137.245985 C46.686681,137.365615 46.9361902,137.474989 47.1788672,137.57411 C47.4215442,137.673232 47.6625086,137.722792 47.9017676,137.722792 C48.1888784,137.722792 48.4435145,137.671523 48.6656836,137.568983 C48.8878527,137.466444 49.0878019,137.285293 49.2655371,137.025526 L50.8856543,137.7433 C50.7831147,138.050919 50.6378525,138.338025 50.4498633,138.604628 C50.2618741,138.871231 50.0448352,139.105359 49.7987403,139.307021 C49.5526453,139.508682 49.2826285,139.665907 48.9886817,139.7787 C48.6947349,139.891494 48.3871208,139.94789 48.0658301,139.94789 C47.7103596,139.94789 47.3890737,139.901748 47.1019629,139.809462 C46.8148521,139.717176 46.5431263,139.614638 46.2867774,139.501845 C46.0304284,139.389051 45.7792102,139.284804 45.5331153,139.189101 C45.2870203,139.093397 45.0272573,139.045546 44.7538184,139.045546 C44.4461997,139.045546 44.1864366,139.108778 43.9745215,139.235243 C43.7626064,139.361709 43.5882917,139.513807 43.4515723,139.691542 L41.8929785,138.973769 C41.9886821,138.604626 42.151034,138.28334 42.3800391,138.009901 C42.6090441,137.736463 42.8636803,137.507461 43.1439551,137.32289 C43.4242299,137.138318 43.7130454,136.999892 44.0104102,136.907607 C44.307775,136.815321 44.5760828,136.769179 44.8153418,136.769179 Z M63.2928809,157.133437 C62.5887758,157.133437 61.9154427,157.037734 61.2728614,156.846327 C60.63028,156.65492 60.0304325,156.384903 59.4733008,156.036269 C58.9161691,155.687634 58.4103148,155.268937 57.9557227,154.780165 C57.5011306,154.291393 57.113195,153.747942 56.7919043,153.149794 C56.4706137,152.551646 56.2211044,151.910784 56.0433692,151.227187 C55.8656339,150.543589 55.7767676,149.829241 55.7767676,149.08412 C55.7767676,148.338999 55.8656339,147.622942 56.0433692,146.935927 C56.2211044,146.248912 56.4706137,145.60634 56.7919043,145.008192 C57.113195,144.410045 57.5011306,143.866593 57.9557227,143.377821 C58.4103148,142.889049 58.9161691,142.470352 59.4733008,142.121718 C60.0304325,141.773083 60.63028,141.503066 61.2728614,141.311659 C61.9154427,141.120252 62.5887758,141.02455 63.2928809,141.02455 C63.996986,141.02455 64.672028,141.120252 65.3180274,141.311659 C65.9640267,141.503066 66.5655832,141.773083 67.1227149,142.121718 C67.6798466,142.470352 68.1857009,142.889049 68.640293,143.377821 C69.0948851,143.866593 69.4845297,144.410045 69.8092383,145.008192 C70.133947,145.60634 70.3851652,146.248912 70.5629004,146.935927 C70.7406357,147.622942 70.829502,148.338999 70.829502,149.08412 C70.829502,149.822405 70.7406357,150.535044 70.5629004,151.22206 C70.3851652,151.909075 70.133947,152.551646 69.8092383,153.149794 C69.4845297,153.747942 69.0948851,154.291393 68.640293,154.780165 C68.1857009,155.268937 67.6798466,155.687634 67.1227149,156.036269 C66.5655832,156.384903 65.9640267,156.65492 65.3180274,156.846327 C64.672028,157.037734 63.996986,157.133437 63.2928809,157.133437 Z M63.2928809,153.91371 C63.8876104,153.91371 64.432771,153.785537 64.9283789,153.529189 C65.4239869,153.27284 65.8495197,152.92421 66.2049903,152.48329 C66.5604608,152.04237 66.8356045,151.52968 67.0304297,150.945204 C67.2252549,150.360729 67.322666,149.740373 67.322666,149.08412 C67.322666,148.421031 67.2235459,147.795549 67.0253028,147.207655 C66.8270596,146.619762 66.5484979,146.105363 66.1896094,145.664442 C65.8307209,145.223522 65.405188,144.874893 64.9129981,144.618544 C64.4208081,144.362195 63.8807745,144.234023 63.2928809,144.234023 C62.7049873,144.234023 62.1649537,144.362195 61.6727637,144.618544 C61.1805737,144.874893 60.7567499,145.223522 60.4012793,145.664442 C60.0458088,146.105363 59.7672471,146.619762 59.565586,147.207655 C59.3639248,147.795549 59.2630957,148.421031 59.2630957,149.08412 C59.2630957,149.740373 59.3639248,150.360729 59.565586,150.945204 C59.7672471,151.52968 60.0458088,152.04237 60.4012793,152.48329 C60.7567499,152.92421 61.1805737,153.27284 61.6727637,153.529189 C62.1649537,153.785537 62.7049873,153.91371 63.2928809,153.91371 Z M80.345127,145.690077 C80.3109471,145.450818 80.2272077,145.225235 80.0939063,145.013319 C79.9606048,144.801404 79.7897081,144.618545 79.581211,144.464735 C79.3727138,144.310926 79.1368763,144.189589 78.8736914,144.100722 C78.6105065,144.011854 78.3353628,143.967421 78.048252,143.967421 C77.7884851,143.967421 77.5458117,143.994764 77.3202246,144.049452 C77.0946376,144.10414 76.8981063,144.187879 76.730625,144.300673 C76.5631437,144.413466 76.4298443,144.558729 76.3307227,144.736464 C76.2316011,144.914199 76.182041,145.126111 76.182041,145.372206 C76.182041,145.679825 76.2486908,145.924207 76.3819922,146.10536 C76.5152937,146.286514 76.6861904,146.435194 76.8946875,146.551405 C77.1031847,146.667617 77.3338952,146.759901 77.5868262,146.828261 C77.8397572,146.896621 78.0858484,146.971815 78.3251074,147.053847 L81.1449317,147.997206 C81.5345821,148.133926 81.9003011,148.321912 82.2420996,148.561171 C82.5838982,148.80043 82.8795496,149.090954 83.1290625,149.432753 C83.3785755,149.774552 83.5751067,150.167614 83.7186621,150.611952 C83.8622175,151.05629 83.9339942,151.555309 83.9339942,152.109023 C83.9339942,152.860979 83.7955678,153.547984 83.518711,154.170058 C83.2418541,154.792131 82.8539185,155.325329 82.3548926,155.769667 C81.8558667,156.214005 81.2577281,156.559217 80.560459,156.805312 C79.8631899,157.051407 79.0907367,157.174452 78.2430762,157.174452 C77.6483467,157.174452 77.0860964,157.107802 76.5563086,156.974501 C76.0265208,156.8412 75.5428831,156.648086 75.1053809,156.395155 C74.6678787,156.142224 74.28507,155.839737 73.9569434,155.487685 C73.6288167,155.135632 73.3724717,154.737443 73.1879004,154.293105 L72.1317481,154.293105 L72.1317481,151.206679 L75.8436621,151.206679 L75.8436621,151.842421 C75.8436621,152.15004 75.8932222,152.433728 75.9923438,152.693495 C76.0914654,152.953262 76.2401455,153.178846 76.4383887,153.370253 C76.6366319,153.56166 76.8861411,153.71034 77.1869239,153.816298 C77.4877066,153.922255 77.8397539,153.975233 78.2430762,153.975233 C78.8583137,153.975233 79.3265707,153.833389 79.6478614,153.549696 C79.969152,153.266004 80.1297949,152.871232 80.1297949,152.36537 C80.1297949,152.105603 80.073399,151.888564 79.9606055,151.714247 C79.847812,151.53993 79.7025497,151.392959 79.5248145,151.273329 C79.3470792,151.1537 79.148839,151.052871 78.9300879,150.970839 C78.7113368,150.888807 78.4960069,150.813613 78.2840918,150.745253 L75.9359473,149.986464 C75.4916091,149.849744 75.0626583,149.65834 74.6490821,149.412245 C74.2355058,149.16615 73.8697868,148.858536 73.5519141,148.489394 C73.2340414,148.120251 72.9811142,147.687882 72.793125,147.192274 C72.6051358,146.696667 72.5111426,146.130998 72.5111426,145.495253 C72.5111426,144.756968 72.64786,144.099016 72.9212989,143.521376 C73.1947377,142.943736 73.5775464,142.456681 74.0697364,142.060194 C74.5619263,141.663708 75.1463931,141.36293 75.8231543,141.157851 C76.4999155,140.952771 77.2416073,140.850233 78.048252,140.850233 C78.6839973,140.850233 79.2718821,140.923719 79.8119239,141.070692 C80.3519656,141.217666 80.8356034,141.414197 81.2628516,141.660292 C81.6900998,141.906387 82.0524009,142.188367 82.3497657,142.506239 C82.6471304,142.824112 82.8744231,143.153943 83.0316504,143.495741 L84.057041,143.495741 L84.057041,146.592421 L80.345127,146.592421 L80.345127,145.690077 Z M86.579502,153.954726 L89.7069434,155.051894 L86.7845801,160.599257 L84.6825293,159.799452 L86.579502,153.954726 Z M105.118564,141.311659 L111.024814,141.311659 L111.024814,144.131483 L109.763584,144.131483 L109.763584,156.856581 L106.359287,156.856581 L99.8890723,146.807753 L99.8890723,154.047011 L101.191318,154.047011 L101.191318,156.856581 L95.2953223,156.856581 L95.2953223,154.047011 L96.5770606,154.047011 L96.5770606,144.131483 L95.3158301,144.131483 L95.3158301,141.311659 L100.012119,141.311659 L106.441318,151.493788 L106.441318,144.131483 L105.118564,144.131483 L105.118564,141.311659 Z M112.706455,141.311659 L119.36124,141.311659 L119.36124,144.12123 L117.720615,144.12123 L117.720615,154.047011 L119.36124,154.047011 L119.36124,156.856581 L112.706455,156.856581 L112.706455,154.047011 L114.316318,154.047011 L114.316318,144.12123 L112.706455,144.12123 L112.706455,141.311659 Z M130.835361,141.311659 L136.741611,141.311659 L136.741611,144.131483 L135.480381,144.131483 L135.480381,156.856581 L132.076084,156.856581 L125.605869,146.807753 L125.605869,154.047011 L126.908115,154.047011 L126.908115,156.856581 L121.012119,156.856581 L121.012119,154.047011 L122.293857,154.047011 L122.293857,144.131483 L121.032627,144.131483 L121.032627,141.311659 L125.728916,141.311659 L132.158115,151.493788 L132.158115,144.131483 L130.835361,144.131483 L130.835361,141.311659 Z M126.979893,136.769179 C127.267003,136.769179 127.543856,136.818739 127.810459,136.91786 C128.077062,137.016982 128.338534,137.126356 128.594883,137.245985 C128.851232,137.365615 129.100741,137.474989 129.343418,137.57411 C129.586095,137.673232 129.827059,137.722792 130.066318,137.722792 C130.353429,137.722792 130.608065,137.671523 130.830234,137.568983 C131.052403,137.466444 131.252353,137.285293 131.430088,137.025526 L133.050205,137.7433 C132.947666,138.050919 132.802403,138.338025 132.614414,138.604628 C132.426425,138.871231 132.209386,139.105359 131.963291,139.307021 C131.717196,139.508682 131.447179,139.665907 131.153232,139.7787 C130.859286,139.891494 130.551672,139.94789 130.230381,139.94789 C129.87491,139.94789 129.553625,139.901748 129.266514,139.809462 C128.979403,139.717176 128.707677,139.614638 128.451328,139.501845 C128.194979,139.389051 127.943761,139.284804 127.697666,139.189101 C127.451571,139.093397 127.191808,139.045546 126.918369,139.045546 C126.61075,139.045546 126.350987,139.108778 126.139072,139.235243 C125.927157,139.361709 125.752843,139.513807 125.616123,139.691542 L124.057529,138.973769 C124.153233,138.604626 124.315585,138.28334 124.54459,138.009901 C124.773595,137.736463 125.028231,137.507461 125.308506,137.32289 C125.588781,137.138318 125.877596,136.999892 126.174961,136.907607 C126.472326,136.815321 126.740634,136.769179 126.979893,136.769179 Z M146.421299,154.047011 L147.969639,154.047011 L147.272373,151.811659 L142.494053,151.811659 L141.796787,154.047011 L143.437412,154.047011 L143.437412,156.856581 L137.541416,156.856581 L137.541416,154.047011 L138.700107,154.047011 L142.934971,141.311659 L147.046787,141.311659 L151.189365,154.047011 L152.317295,154.047011 L152.317295,156.856581 L146.421299,156.856581 L146.421299,154.047011 Z M143.304111,149.186659 L146.441807,149.186659 L144.862705,144.131483 L143.304111,149.186659 Z M161.186924,145.690077 C161.152744,145.450818 161.069005,145.225235 160.935703,145.013319 C160.802402,144.801404 160.631505,144.618545 160.423008,144.464735 C160.214511,144.310926 159.978673,144.189589 159.715488,144.100722 C159.452303,144.011854 159.17716,143.967421 158.890049,143.967421 C158.630282,143.967421 158.387609,143.994764 158.162022,144.049452 C157.936434,144.10414 157.739903,144.187879 157.572422,144.300673 C157.404941,144.413466 157.271641,144.558729 157.17252,144.736464 C157.073398,144.914199 157.023838,145.126111 157.023838,145.372206 C157.023838,145.679825 157.090488,145.924207 157.223789,146.10536 C157.357091,146.286514 157.527987,146.435194 157.736484,146.551405 C157.944982,146.667617 158.175692,146.759901 158.428623,146.828261 C158.681554,146.896621 158.927645,146.971815 159.166904,147.053847 L161.986729,147.997206 C162.376379,148.133926 162.742098,148.321912 163.083897,148.561171 C163.425695,148.80043 163.721346,149.090954 163.970859,149.432753 C164.220372,149.774552 164.416904,150.167614 164.560459,150.611952 C164.704014,151.05629 164.775791,151.555309 164.775791,152.109023 C164.775791,152.860979 164.637365,153.547984 164.360508,154.170058 C164.083651,154.792131 163.695715,155.325329 163.196689,155.769667 C162.697664,156.214005 162.099525,156.559217 161.402256,156.805312 C160.704987,157.051407 159.932534,157.174452 159.084873,157.174452 C158.490144,157.174452 157.927893,157.107802 157.398105,156.974501 C156.868318,156.8412 156.38468,156.648086 155.947178,156.395155 C155.509676,156.142224 155.126867,155.839737 154.79874,155.487685 C154.470614,155.135632 154.214269,154.737443 154.029697,154.293105 L152.973545,154.293105 L152.973545,151.206679 L156.685459,151.206679 L156.685459,151.842421 C156.685459,152.15004 156.735019,152.433728 156.834141,152.693495 C156.933262,152.953262 157.081942,153.178846 157.280186,153.370253 C157.478429,153.56166 157.727938,153.71034 158.028721,153.816298 C158.329503,153.922255 158.681551,153.975233 159.084873,153.975233 C159.700111,153.975233 160.168368,153.833389 160.489658,153.549696 C160.810949,153.266004 160.971592,152.871232 160.971592,152.36537 C160.971592,152.105603 160.915196,151.888564 160.802402,151.714247 C160.689609,151.53993 160.544347,151.392959 160.366611,151.273329 C160.188876,151.1537 159.990636,151.052871 159.771885,150.970839 C159.553134,150.888807 159.337804,150.813613 159.125889,150.745253 L156.777744,149.986464 C156.333406,149.849744 155.904455,149.65834 155.490879,149.412245 C155.077303,149.16615 154.711584,148.858536 154.393711,148.489394 C154.075838,148.120251 153.822911,147.687882 153.634922,147.192274 C153.446933,146.696667 153.352939,146.130998 153.352939,145.495253 C153.352939,144.756968 153.489657,144.099016 153.763096,143.521376 C154.036535,142.943736 154.419343,142.456681 154.911533,142.060194 C155.403723,141.663708 155.98819,141.36293 156.664951,141.157851 C157.341712,140.952771 158.083404,140.850233 158.890049,140.850233 C159.525794,140.850233 160.113679,140.923719 160.653721,141.070692 C161.193762,141.217666 161.6774,141.414197 162.104648,141.660292 C162.531897,141.906387 162.894198,142.188367 163.191563,142.506239 C163.488927,142.824112 163.71622,143.153943 163.873447,143.495741 L164.898838,143.495741 L164.898838,146.592421 L161.186924,146.592421 L161.186924,145.690077 Z M170.005283,141.311659 L176.660068,141.311659 L176.660068,144.131483 L175.357822,144.131483 L177.439365,147.699843 L179.643955,144.131483 L178.157139,144.131483 L178.157139,141.311659 L184.811924,141.311659 L184.811924,144.131483 L183.663486,144.131483 L179.038975,150.406874 L179.038975,154.047011 L180.925693,154.047011 L180.925693,156.856581 L173.994053,156.856581 L173.994053,154.047011 L175.716709,154.047011 L175.716709,150.365858 L171.369053,144.131483 L170.005283,144.131483 L170.005283,141.311659 Z M21.1288184,178.047011 L22.6771582,178.047011 L21.9798926,175.811659 L17.2015723,175.811659 L16.5043067,178.047011 L18.1449317,178.047011 L18.1449317,180.856581 L12.2489356,180.856581 L12.2489356,178.047011 L13.407627,178.047011 L17.6424903,165.311659 L21.7543067,165.311659 L25.8968848,178.047011 L27.0248145,178.047011 L27.0248145,180.856581 L21.1288184,180.856581 L21.1288184,178.047011 Z M18.0116309,173.186659 L21.1493262,173.186659 L19.5702246,168.131483 L18.0116309,173.186659 Z M28.1014746,165.311659 L34.0692481,165.311659 C34.7801891,165.311659 35.4620671,165.403943 36.1149024,165.588515 C36.7677377,165.773086 37.37613,166.032849 37.9400977,166.367812 C38.5040653,166.702774 39.0167555,167.104382 39.4781836,167.572646 C39.9396117,168.04091 40.3343832,168.562145 40.6625098,169.136366 C40.9906364,169.710588 41.2435636,170.329234 41.4212989,170.992323 C41.5990341,171.655413 41.6879004,172.345835 41.6879004,173.063612 C41.6879004,173.781389 41.5990341,174.471812 41.4212989,175.134901 C41.2435636,175.797991 40.9906364,176.418346 40.6625098,176.995985 C40.3343832,177.573625 39.9396117,178.099987 39.4781836,178.575087 C39.0167555,179.050187 38.5040653,179.456921 37.9400977,179.795302 C37.37613,180.133682 36.7677377,180.395154 36.1149024,180.579726 C35.4620671,180.764297 34.7801891,180.856581 34.0692481,180.856581 L28.1014746,180.856581 L28.1014746,178.047011 L29.3421973,178.047011 L29.3421973,168.131483 L28.1014746,168.131483 L28.1014746,165.311659 Z M32.7464942,168.131483 L32.7464942,178.047011 L34.0487403,178.047011 C34.602454,178.047011 35.125398,177.917129 35.6175879,177.657362 C36.1097779,177.397595 36.5370197,177.043839 36.8993262,176.596083 C37.2616327,176.148327 37.5487392,175.621965 37.7606543,175.016982 C37.9725694,174.411998 38.0785254,173.760881 38.0785254,173.063612 C38.0785254,172.373179 37.9725694,171.72719 37.7606543,171.125624 C37.5487392,170.524059 37.2616327,170.001115 36.8993262,169.556776 C36.5370197,169.112438 36.1097779,168.763809 35.6175879,168.510878 C35.125398,168.257947 34.602454,168.131483 34.0487403,168.131483 L32.7464942,168.131483 Z M50.5062598,181.133437 C49.8021547,181.133437 49.1288216,181.037734 48.4862403,180.846327 C47.8436589,180.65492 47.2438114,180.384903 46.6866797,180.036269 C46.129548,179.687634 45.6236937,179.268937 45.1691016,178.780165 C44.7145095,178.291393 44.3265739,177.747942 44.0052832,177.149794 C43.6839926,176.551646 43.4344833,175.910784 43.2567481,175.227187 C43.0790128,174.543589 42.9901465,173.829241 42.9901465,173.08412 C42.9901465,172.338999 43.0790128,171.622942 43.2567481,170.935927 C43.4344833,170.248912 43.6839926,169.60634 44.0052832,169.008192 C44.3265739,168.410045 44.7145095,167.866593 45.1691016,167.377821 C45.6236937,166.889049 46.129548,166.470352 46.6866797,166.121718 C47.2438114,165.773083 47.8436589,165.503066 48.4862403,165.311659 C49.1288216,165.120252 49.8021547,165.02455 50.5062598,165.02455 C51.2103649,165.02455 51.885407,165.120252 52.5314063,165.311659 C53.1774056,165.503066 53.7789621,165.773083 54.3360938,166.121718 C54.8932255,166.470352 55.3990798,166.889049 55.8536719,167.377821 C56.308264,167.866593 56.6979086,168.410045 57.0226172,169.008192 C57.3473259,169.60634 57.5985441,170.248912 57.7762793,170.935927 C57.9540146,171.622942 58.0428809,172.338999 58.0428809,173.08412 C58.0428809,173.822405 57.9540146,174.535044 57.7762793,175.22206 C57.5985441,175.909075 57.3473259,176.551646 57.0226172,177.149794 C56.6979086,177.747942 56.308264,178.291393 55.8536719,178.780165 C55.3990798,179.268937 54.8932255,179.687634 54.3360938,180.036269 C53.7789621,180.384903 53.1774056,180.65492 52.5314063,180.846327 C51.885407,181.037734 51.2103649,181.133437 50.5062598,181.133437 Z M50.5062598,177.91371 C51.1009893,177.91371 51.6461499,177.785537 52.1417578,177.529189 C52.6373658,177.27284 53.0628986,176.92421 53.4183692,176.48329 C53.7738397,176.04237 54.0489834,175.52968 54.2438086,174.945204 C54.4386338,174.360729 54.5360449,173.740373 54.5360449,173.08412 C54.5360449,172.421031 54.4369248,171.795549 54.2386817,171.207655 C54.0404385,170.619762 53.7618768,170.105363 53.4029883,169.664442 C53.0440998,169.223522 52.6185669,168.874893 52.126377,168.618544 C51.634187,168.362195 51.0941534,168.234023 50.5062598,168.234023 C49.9183662,168.234023 49.3783326,168.362195 48.8861426,168.618544 C48.3939526,168.874893 47.9701288,169.223522 47.6146582,169.664442 C47.2591877,170.105363 46.980626,170.619762 46.7789649,171.207655 C46.5773037,171.795549 46.4764746,172.421031 46.4764746,173.08412 C46.4764746,173.740373 46.5773037,174.360729 46.7789649,174.945204 C46.980626,175.52968 47.2591877,176.04237 47.6146582,176.48329 C47.9701288,176.92421 48.3939526,177.27284 48.8861426,177.529189 C49.3783326,177.785537 49.9183662,177.91371 50.5062598,177.91371 Z M60.0834082,165.311659 L66.7381934,165.311659 L66.7381934,168.131483 L65.0975684,168.131483 L65.0975684,178.047011 L68.4813574,178.047011 C68.5702251,178.047011 68.6573824,178.021376 68.7428321,177.970107 C68.8282817,177.918837 68.9034763,177.852187 68.968418,177.770155 C69.0333597,177.688124 69.0863377,177.599257 69.1273535,177.503554 C69.1683694,177.40785 69.188877,177.315566 69.188877,177.226698 L69.188877,175.145155 L72.5111426,175.145155 L72.5111426,180.856581 L60.0834082,180.856581 L60.0834082,178.047011 L61.6932715,178.047011 L61.6932715,168.131483 L60.0834082,168.131483 L60.0834082,165.311659 Z M73.885166,165.311659 L86.251377,165.311659 L86.251377,170.612929 L82.9086035,170.612929 L82.9086035,168.408339 L78.919834,168.408339 L78.919834,171.474257 L82.0062598,171.474257 L82.0062598,174.44789 L78.919834,174.44789 L78.919834,178.047011 L82.9086035,178.047011 L82.9086035,175.28871 L86.251377,175.28871 L86.251377,180.856581 L73.885166,180.856581 L73.885166,178.047011 L75.5155371,178.047011 L75.5155371,168.408339 L73.885166,168.408339 L73.885166,165.311659 Z M95.5106543,169.690077 C95.4764745,169.450818 95.3927351,169.225235 95.2594336,169.013319 C95.1261322,168.801404 94.9552354,168.618545 94.7467383,168.464735 C94.5382412,168.310926 94.3024037,168.189589 94.0392188,168.100722 C93.7760339,168.011854 93.5008901,167.967421 93.2137793,167.967421 C92.9540124,167.967421 92.711339,167.994764 92.485752,168.049452 C92.2601649,168.10414 92.0636337,168.187879 91.8961524,168.300673 C91.7286711,168.413466 91.5953716,168.558729 91.49625,168.736464 C91.3971284,168.914199 91.3475684,169.126111 91.3475684,169.372206 C91.3475684,169.679825 91.4142181,169.924207 91.5475196,170.10536 C91.680821,170.286514 91.8517177,170.435194 92.0602149,170.551405 C92.268712,170.667617 92.4994226,170.759901 92.7523535,170.828261 C93.0052845,170.896621 93.2513758,170.971815 93.4906348,171.053847 L96.310459,171.997206 C96.7001094,172.133926 97.0658284,172.321912 97.407627,172.561171 C97.7494256,172.80043 98.0450769,173.090954 98.2945899,173.432753 C98.5441028,173.774552 98.7406341,174.167614 98.8841895,174.611952 C99.0277449,175.05629 99.0995215,175.555309 99.0995215,176.109023 C99.0995215,176.860979 98.9610952,177.547984 98.6842383,178.170058 C98.4073815,178.792131 98.0194459,179.325329 97.5204199,179.769667 C97.021394,180.214005 96.4232555,180.559217 95.7259864,180.805312 C95.0287172,181.051407 94.256264,181.174452 93.4086035,181.174452 C92.813874,181.174452 92.2516238,181.107802 91.721836,180.974501 C91.1920482,180.8412 90.7084104,180.648086 90.2709082,180.395155 C89.833406,180.142224 89.4505974,179.839737 89.1224707,179.487685 C88.7943441,179.135632 88.537999,178.737443 88.3534278,178.293105 L87.2972754,178.293105 L87.2972754,175.206679 L91.0091895,175.206679 L91.0091895,175.842421 C91.0091895,176.15004 91.0587495,176.433728 91.1578711,176.693495 C91.2569927,176.953262 91.4056729,177.178846 91.603916,177.370253 C91.8021592,177.56166 92.0516684,177.71034 92.3524512,177.816298 C92.653234,177.922255 93.0052812,177.975233 93.4086035,177.975233 C94.023841,177.975233 94.492098,177.833389 94.8133887,177.549696 C95.1346794,177.266004 95.2953223,176.871232 95.2953223,176.36537 C95.2953223,176.105603 95.2389264,175.888564 95.1261328,175.714247 C95.0133393,175.53993 94.8680771,175.392959 94.6903418,175.273329 C94.5126066,175.1537 94.3143664,175.052871 94.0956153,174.970839 C93.8768642,174.888807 93.6615343,174.813613 93.4496192,174.745253 L91.1014746,173.986464 C90.6571365,173.849744 90.2281857,173.65834 89.8146094,173.412245 C89.4010331,173.16615 89.0353141,172.858536 88.7174414,172.489394 C88.3995688,172.120251 88.1466416,171.687882 87.9586524,171.192274 C87.7706632,170.696667 87.6766699,170.130998 87.6766699,169.495253 C87.6766699,168.756968 87.8133873,168.099016 88.0868262,167.521376 C88.3602651,166.943736 88.7430737,166.456681 89.2352637,166.060194 C89.7274537,165.663708 90.3119205,165.36293 90.9886817,165.157851 C91.6654429,164.952771 92.4071347,164.850233 93.2137793,164.850233 C93.8495247,164.850233 94.4374094,164.923719 94.9774512,165.070692 C95.517493,165.217666 96.0011307,165.414197 96.4283789,165.660292 C96.8556272,165.906387 97.2179282,166.188367 97.515293,166.506239 C97.8126578,166.824112 98.0399504,167.153943 98.1971778,167.495741 L99.2225684,167.495741 L99.2225684,170.592421 L95.5106543,170.592421 L95.5106543,169.690077 Z M110.983799,170.03871 C110.600984,169.491832 110.255773,169.103897 109.948154,168.874892 C109.640536,168.645887 109.308996,168.481826 108.953525,168.382704 C108.598055,168.283583 108.2255,168.234023 107.83585,168.234023 C107.261628,168.234023 106.72843,168.362195 106.23624,168.618544 C105.74405,168.874893 105.318517,169.223522 104.959629,169.664442 C104.60074,170.105363 104.318761,170.618053 104.113682,171.202528 C103.908603,171.787004 103.806064,172.407359 103.806064,173.063612 C103.806064,173.726702 103.906894,174.350475 104.108555,174.93495 C104.310216,175.519426 104.588778,176.030407 104.944248,176.467909 C105.299719,176.905411 105.723542,177.252332 106.215732,177.508681 C106.707922,177.76503 107.247956,177.893202 107.83585,177.893202 C108.246008,177.893202 108.628817,177.826552 108.984287,177.693251 C109.339758,177.55995 109.662752,177.383926 109.953281,177.165175 C110.24381,176.946424 110.498446,176.695206 110.717197,176.411513 C110.935948,176.12782 111.106845,175.832169 111.229893,175.52455 L114.53165,176.447401 C114.319735,177.117327 114.008703,177.737682 113.598545,178.308485 C113.188387,178.879289 112.694495,179.373181 112.116855,179.790175 C111.539216,180.207169 110.889808,180.535291 110.168613,180.77455 C109.447418,181.013809 108.669838,181.133437 107.83585,181.133437 C107.131745,181.133437 106.458411,181.037734 105.81583,180.846327 C105.173249,180.65492 104.573401,180.384903 104.01627,180.036269 C103.459138,179.687634 102.953284,179.267228 102.498691,178.775038 C102.044099,178.282848 101.656164,177.737688 101.334873,177.13954 C101.013582,176.541393 100.764073,175.898821 100.586338,175.211806 C100.408603,174.524791 100.319736,173.808733 100.319736,173.063612 C100.319736,171.949349 100.514559,170.90517 100.904209,169.931044 C101.293859,168.956918 101.827057,168.105852 102.503818,167.377821 C103.18058,166.64979 103.975249,166.075577 104.887852,165.655165 C105.800454,165.234753 106.78311,165.02455 107.83585,165.02455 C108.676674,165.02455 109.384187,165.128797 109.958408,165.337294 C110.53263,165.545791 111.164948,165.957652 111.855381,166.57289 L114.152256,166.57289 L114.152256,170.03871 L110.983799,170.03871 Z M116.73624,165.311659 L129.102451,165.311659 L129.102451,170.612929 L125.759678,170.612929 L125.759678,168.408339 L121.770908,168.408339 L121.770908,171.474257 L124.857334,171.474257 L124.857334,174.44789 L121.770908,174.44789 L121.770908,178.047011 L125.759678,178.047011 L125.759678,175.28871 L129.102451,175.28871 L129.102451,180.856581 L116.73624,180.856581 L116.73624,178.047011 L118.366611,178.047011 L118.366611,168.408339 L116.73624,168.408339 L116.73624,165.311659 Z M140.709873,165.311659 L146.616123,165.311659 L146.616123,168.131483 L145.354893,168.131483 L145.354893,180.856581 L141.950596,180.856581 L135.480381,170.807753 L135.480381,178.047011 L136.782627,178.047011 L136.782627,180.856581 L130.886631,180.856581 L130.886631,178.047011 L132.168369,178.047011 L132.168369,168.131483 L130.907139,168.131483 L130.907139,165.311659 L135.603428,165.311659 L142.032627,175.493788 L142.032627,168.131483 L140.709873,168.131483 L140.709873,165.311659 Z M150.963779,178.047011 L152.573643,178.047011 L152.573643,168.028944 L150.686924,168.028944 L150.686924,170.03871 L147.34415,170.03871 L147.34415,165.311659 L161.484287,165.311659 L161.484287,170.03871 L158.121006,170.03871 L158.121006,168.028944 L155.977939,168.028944 L155.977939,178.047011 L157.618564,178.047011 L157.618564,180.856581 L150.963779,180.856581 L150.963779,178.047011 Z M162.96085,165.311659 L175.327061,165.311659 L175.327061,170.612929 L171.984287,170.612929 L171.984287,168.408339 L167.995518,168.408339 L167.995518,171.474257 L171.081943,171.474257 L171.081943,174.44789 L167.995518,174.44789 L167.995518,178.047011 L171.984287,178.047011 L171.984287,175.28871 L175.327061,175.28871 L175.327061,180.856581 L162.96085,180.856581 L162.96085,178.047011 L164.591221,178.047011 L164.591221,168.408339 L162.96085,168.408339 L162.96085,165.311659 Z M184.586338,169.690077 C184.552158,169.450818 184.468419,169.225235 184.335117,169.013319 C184.201816,168.801404 184.030919,168.618545 183.822422,168.464735 C183.613925,168.310926 183.378087,168.189589 183.114902,168.100722 C182.851717,168.011854 182.576574,167.967421 182.289463,167.967421 C182.029696,167.967421 181.787023,167.994764 181.561436,168.049452 C181.335849,168.10414 181.139317,168.187879 180.971836,168.300673 C180.804355,168.413466 180.671055,168.558729 180.571934,168.736464 C180.472812,168.914199 180.423252,169.126111 180.423252,169.372206 C180.423252,169.679825 180.489902,169.924207 180.623203,170.10536 C180.756505,170.286514 180.927401,170.435194 181.135898,170.551405 C181.344396,170.667617 181.575106,170.759901 181.828037,170.828261 C182.080968,170.896621 182.327059,170.971815 182.566318,171.053847 L185.386143,171.997206 C185.775793,172.133926 186.141512,172.321912 186.483311,172.561171 C186.825109,172.80043 187.12076,173.090954 187.370273,173.432753 C187.619786,173.774552 187.816318,174.167614 187.959873,174.611952 C188.103428,175.05629 188.175205,175.555309 188.175205,176.109023 C188.175205,176.860979 188.036779,177.547984 187.759922,178.170058 C187.483065,178.792131 187.095129,179.325329 186.596104,179.769667 C186.097078,180.214005 185.498939,180.559217 184.80167,180.805312 C184.104401,181.051407 183.331948,181.174452 182.484287,181.174452 C181.889558,181.174452 181.327307,181.107802 180.79752,180.974501 C180.267732,180.8412 179.784094,180.648086 179.346592,180.395155 C178.90909,180.142224 178.526281,179.839737 178.198154,179.487685 C177.870028,179.135632 177.613683,178.737443 177.429111,178.293105 L176.372959,178.293105 L176.372959,175.206679 L180.084873,175.206679 L180.084873,175.842421 C180.084873,176.15004 180.134433,176.433728 180.233555,176.693495 C180.332676,176.953262 180.481356,177.178846 180.6796,177.370253 C180.877843,177.56166 181.127352,177.71034 181.428135,177.816298 C181.728918,177.922255 182.080965,177.975233 182.484287,177.975233 C183.099525,177.975233 183.567782,177.833389 183.889072,177.549696 C184.210363,177.266004 184.371006,176.871232 184.371006,176.36537 C184.371006,176.105603 184.31461,175.888564 184.201816,175.714247 C184.089023,175.53993 183.943761,175.392959 183.766025,175.273329 C183.58829,175.1537 183.39005,175.052871 183.171299,174.970839 C182.952548,174.888807 182.737218,174.813613 182.525303,174.745253 L180.177158,173.986464 C179.73282,173.849744 179.303869,173.65834 178.890293,173.412245 C178.476717,173.16615 178.110998,172.858536 177.793125,172.489394 C177.475252,172.120251 177.222325,171.687882 177.034336,171.192274 C176.846347,170.696667 176.752354,170.130998 176.752354,169.495253 C176.752354,168.756968 176.889071,168.099016 177.16251,167.521376 C177.435949,166.943736 177.818757,166.456681 178.310947,166.060194 C178.803137,165.663708 179.387604,165.36293 180.064365,165.157851 C180.741126,164.952771 181.482818,164.850233 182.289463,164.850233 C182.925208,164.850233 183.513093,164.923719 184.053135,165.070692 C184.593177,165.217666 185.076814,165.414197 185.504063,165.660292 C185.931311,165.906387 186.293612,166.188367 186.590977,166.506239 C186.888341,166.824112 187.115634,167.153943 187.272861,167.495741 L188.298252,167.495741 L188.298252,170.592421 L184.586338,170.592421 L184.586338,169.690077 Z" id="PROPUESTAS-de-NIOS,-Copy" fill="#FFFFFF"></path>
            </g>
            <g id="Group-11" transform="translate(26.000000, 36.614269)">
                <g id="Group-10" style="mix-blend-mode: multiply;" transform="translate(2.233942, 2.749932)">
                    <path d="M27.3131718,12.0557786 C26.7809682,12.0557786 26.3553513,12.2266094 26.0355912,12.569731 C25.715831,12.9113926 25.5245589,13.4100141 25.4646952,14.0648654 L29.0484913,14.0648654 C28.9565055,12.7252309 28.3775789,12.0557786 27.3131718,12.0557786" id="Fill-1" fill="#5CA7FF"></path>
                    <path d="M57.5822686,16.197914 C57.1719827,16.3738551 56.9661097,16.6658735 56.9661097,17.0776195 C56.9661097,17.4280416 57.0763467,17.7164098 57.2968206,17.9441841 C57.5172945,18.1726886 57.8034726,18.2865758 58.1531646,18.2865758 C58.7014292,18.2865758 59.1496775,18.0923835 59.5000996,17.703999 C59.8490616,17.3170746 60.0250027,16.8184531 60.0250027,16.2103247 L60.0250027,15.9365575 L59.6599797,15.9365575 C58.6860983,15.9365575 57.9932845,16.023433 57.5822686,16.197914" id="Fill-3" fill="#5CA7FF"></path>
                    <g id="Group-7" transform="translate(0.045367, 0.511122)">
                        <mask id="mask-2" fill="white">
                            <use xlink:href="#path-1"></use>
                        </mask>
                        <g id="Clip-6"></g>
                        <path d="M110.894435,18.5977044 C110.894435,19.1759009 110.723604,19.6285295 110.380482,19.9555901 C110.038821,20.2833808 109.562831,20.4461811 108.953972,20.4461811 C108.421769,20.4461811 107.984471,20.2943315 107.64208,19.9899023 C107.299688,19.6854731 107.112796,19.2744571 107.082134,18.7575845 C106.868961,19.3051191 106.511968,19.731466 106.010427,20.0351651 C105.507425,20.3403244 104.906597,20.492174 104.207213,20.492174 C103.430444,20.492174 102.73033,20.335214 102.1076,20.0242144 C101.482681,19.7117547 100.99209,19.2788374 100.633637,18.7232723 C100.276645,18.1677073 100.098514,17.5398677 100.098514,16.8397535 C100.098514,16.0330526 100.307307,15.3906121 100.725623,14.9117019 C101.14467,14.4320616 101.810472,14.0852897 102.723029,13.8728463 C103.636317,13.6589428 104.868635,13.5538162 106.419983,13.5538162 L107.036871,13.5538162 L107.036871,13.2793189 C107.036871,12.7463852 106.915684,12.362381 106.672578,12.1273062 C106.428013,11.8907712 106.016997,11.7732338 105.439531,11.7732338 C104.815341,11.7732338 103.902784,11.9856772 102.700398,12.4120241 C102.349976,12.5339418 102.053577,12.5938056 101.810472,12.5938056 C101.429388,12.5938056 101.125689,12.457287 100.897184,12.1835197 C100.66868,11.9097524 100.554062,11.5520299 100.554062,11.1110821 C100.554062,10.776721 100.623417,10.5022236 100.760665,10.2890502 C100.897184,10.0766068 101.116928,9.88533471 101.421357,9.71888421 C101.955021,9.44438689 102.623743,9.22464303 103.430444,9.05673243 C104.237145,8.88955189 105.028515,8.80559659 105.804554,8.80559659 C107.539143,8.80559659 108.821104,9.21953271 109.650436,10.0495951 C110.480499,10.8789274 110.894435,12.1382569 110.894435,13.8268534 L110.894435,18.5977044 Z M94.698363,20.1037894 C94.2873471,20.3622258 93.7011201,20.4688125 92.9404121,20.4235496 L92.3016218,20.3775567 C90.9327854,20.27097 89.8931998,19.8570339 89.1872453,19.1335582 C88.4791006,18.4108126 88.1250282,17.4033491 88.1250282,16.1097074 L88.1250282,12.0696325 L87.4628765,12.0696325 C86.2451596,12.0696325 85.6363012,11.5666308 85.6363012,10.5628175 C85.6363012,9.57360505 86.2451596,9.07936386 87.4628765,9.07936386 L88.1250282,9.07936386 L88.1250282,7.59518022 C88.1250282,7.01771378 88.3075398,6.55705472 88.6732928,6.21466311 C89.0383159,5.87227151 89.531827,5.70071069 90.1567464,5.70071069 C90.7802058,5.70071069 91.274447,5.87227151 91.63947,6.21466311 C92.0052231,6.55705472 92.1877346,7.01771378 92.1877346,7.59518022 L92.1877346,9.07936386 L93.4434138,9.07936386 C94.6611306,9.07936386 95.269259,9.57360505 95.269259,10.5628175 C95.269259,11.5666308 94.6611306,12.0696325 93.4434138,12.0696325 L92.1877346,12.0696325 L92.1877346,16.452099 C92.1877346,16.7411973 92.2746101,16.9843026 92.4498211,17.1821451 C92.6250322,17.3799876 92.8498864,17.4873044 93.1236536,17.5019053 L93.7858054,17.5471681 C94.8049497,17.608492 95.3145219,18.0647708 95.3145219,18.9167346 C95.3145219,19.4503982 95.1093789,19.8446231 94.698363,20.1037894 L94.698363,20.1037894 Z M81.226093,18.5743429 C81.226093,19.1532695 81.0428514,19.6102783 80.6778284,19.9446394 C80.3128053,20.2790005 79.8185641,20.4461811 79.1951048,20.4461811 C78.5709154,20.4461811 78.0759442,20.2790005 77.7109212,19.9446394 C77.3458981,19.6102783 77.1626566,19.1532695 77.1626566,18.5743429 L77.1626566,13.8268534 C77.1626566,13.1581312 77.0451192,12.6704604 76.8093143,12.3667613 C76.5727794,12.061602 76.2194371,11.9097524 75.7478273,11.9097524 C75.1389689,11.9097524 74.6556784,12.1032147 74.2986859,12.4915992 C73.9409633,12.8799837 73.762102,13.4012366 73.762102,14.0546278 L73.762102,18.5743429 C73.762102,19.1532695 73.5795905,19.6102783 73.2145675,19.9446394 C72.8488144,20.2790005 72.3545732,20.4461811 71.7303838,20.4461811 C71.1061944,20.4461811 70.6119533,20.2790005 70.2469302,19.9446394 C69.8819072,19.6102783 69.6993957,19.1532695 69.6993957,18.5743429 L69.6993957,10.6767046 C69.6993957,10.1445011 69.8899377,9.70647343 70.2695617,9.36481187 C70.6506457,9.02169022 71.1448869,8.85085944 71.7537453,8.85085944 C72.3319418,8.85085944 72.7926008,9.01073953 73.1342624,9.33049971 C73.476654,9.65025988 73.6482148,10.0685763 73.6482148,10.5861789 C74.0424397,10.0072524 74.5534719,9.56630459 75.1769313,9.26187538 C75.8018507,8.95817622 76.4932043,8.80559659 77.2546424,8.80559659 C78.5935469,8.80559659 79.5893297,9.20493178 80.244911,10.0036022 C80.8983023,10.8022726 81.226093,12.0163392 81.226093,13.6443419 L81.226093,18.5743429 Z M63.8371258,18.5977044 C63.8371258,19.1759009 63.666295,19.6285295 63.3231734,19.9555901 C62.9815118,20.2833808 62.5047917,20.4461811 61.8966634,20.4461811 C61.3644598,20.4461811 60.9271622,20.2943315 60.5840405,19.9899023 C60.242379,19.6854731 60.0554872,19.2744571 60.0248253,18.7575845 C59.8109218,19.3051191 59.4546593,19.731466 58.9531176,20.0351651 C58.4501159,20.3403244 57.849288,20.492174 57.1499039,20.492174 C56.3731349,20.492174 55.6730207,20.335214 55.0495613,20.0242144 C54.425372,19.7117547 53.934781,19.2788374 53.5763284,18.7232723 C53.2193359,18.1677073 53.0412046,17.5398677 53.0412046,16.8397535 C53.0412046,16.0330526 53.2499978,15.3906121 53.6683142,14.9117019 C54.0866306,14.4320616 54.7524326,14.0852897 55.6657202,13.8728463 C56.5790078,13.6589428 57.8105956,13.5538162 59.3626735,13.5538162 L59.9795624,13.5538162 L59.9795624,13.2793189 C59.9795624,12.7463852 59.8583748,12.362381 59.6145394,12.1273062 C59.370704,11.8907712 58.9596881,11.7732338 58.3822216,11.7732338 C57.7580322,11.7732338 56.8454747,11.9856772 55.6430888,12.4120241 C55.2919366,12.5339418 54.996268,12.5938056 54.7524326,12.5938056 C54.3713486,12.5938056 54.0676494,12.457287 53.839875,12.1835197 C53.6106406,11.9097524 53.4967534,11.5520299 53.4967534,11.1110821 C53.4967534,10.776721 53.5661078,10.5022236 53.7026264,10.2890502 C53.839875,10.0766068 54.0596189,9.88533471 54.3640481,9.71888421 C54.8977118,9.44438689 55.566434,9.22464303 56.3731349,9.05673243 C57.1798358,8.88955189 57.9704756,8.80559659 58.7472447,8.80559659 C60.4818341,8.80559659 61.763795,9.21953271 62.5931273,10.0495951 C63.4231897,10.8789274 63.8371258,12.1382569 63.8371258,13.8268534 L63.8371258,18.5977044 Z M48.799637,11.3395865 L44.805555,19.2817576 C44.6237735,19.6628416 44.3602269,19.9555901 44.0192954,20.160733 C43.6761737,20.365876 43.2987399,20.4688125 42.888454,20.4688125 C42.4781682,20.4688125 42.0978142,20.365876 41.746662,20.160733 C41.3969699,19.9555901 41.1312332,19.6628416 40.9479916,19.2817576 L36.9539096,11.3395865 C36.8319919,11.0650892 36.7721281,10.8219838 36.7721281,10.6088104 C36.7721281,10.1218696 36.9809213,9.70647343 37.3992377,9.36481187 C37.8168241,9.02169022 38.3001145,8.85085944 38.8483791,8.85085944 C39.2134022,8.85085944 39.5521435,8.94576543 39.8646033,9.13630745 C40.1756029,9.32684948 40.415058,9.61156744 40.5829686,9.99265149 L43.0030713,15.2197813 L45.3990825,9.99265149 C45.5677231,9.61156744 45.7991477,9.33049971 46.0955464,9.14725815 C46.3926751,8.96547668 46.7153555,8.87349087 47.0657776,8.87349087 C47.5680493,8.87349087 48.0126474,9.04140147 48.4003018,9.37576256 C48.7894164,9.71158375 48.9828786,10.1138391 48.9828786,10.5861789 C48.9828786,10.8438852 48.9215547,11.0957511 48.799637,11.3395865 L48.799637,11.3395865 Z M26.1499579,17.0456265 C26.514981,17.3653867 27.054485,17.5245367 27.7706602,17.5245367 C28.1502841,17.5245367 28.5007063,17.4829241 28.8197364,17.3996988 C29.1394966,17.3157435 29.4972191,17.1982061 29.8929041,17.0456265 C30.1206785,16.9536407 30.3448026,16.8740657 30.5660066,16.8061714 C30.7864805,16.7375471 30.9887032,16.7032349 31.1704847,16.7032349 C31.5209068,16.7032349 31.8056248,16.8397535 32.0275588,17.1135208 C32.2473026,17.387288 32.3575396,17.7450106 32.3575396,18.1866885 C32.3575396,18.7955469 32.0618709,19.2598562 31.4676134,19.5796164 C30.9507408,19.8373226 30.3375021,20.0548764 29.6300875,20.2293574 C28.9234029,20.4038384 28.2722018,20.492174 27.6786744,20.492174 C26.4317557,20.492174 25.342527,20.2563691 24.4146384,19.7847593 C23.4867499,19.3124195 22.7713048,18.6356668 22.2697631,17.7523111 C21.7667614,16.8704154 21.5163556,15.8352101 21.5163556,14.6481552 C21.5163556,13.5231542 21.7558107,12.5142306 22.2354509,11.6243044 C22.7143612,10.7336482 23.3838134,10.0415646 24.2445377,9.54732339 C25.1030719,9.05235216 26.072573,8.80559659 27.1537713,8.80559659 C28.2028475,8.80559659 29.1248956,9.03337096 29.9155355,9.48964975 C30.7061754,9.94592854 31.3194141,10.5934794 31.7530615,11.4301122 C32.1867088,12.267475 32.4028025,13.2486569 32.4028025,14.374388 C32.4028025,14.7248101 32.3232274,14.9949271 32.1633473,15.1854691 C32.0034673,15.3752811 31.7713126,15.4701871 31.4676134,15.4701871 L25.4418132,15.4701871 C25.5484,16.2002332 25.7842049,16.7265964 26.1499579,17.0456265 L26.1499579,17.0456265 Z M17.2988795,19.8986465 C16.9718188,20.1731438 16.4731974,20.3096624 15.8037451,20.3096624 L8.29449134,20.3096624 C7.67030196,20.3096624 7.19066169,20.1424819 6.8563006,19.8066607 C6.52120946,19.4722996 6.35475895,18.9860889 6.35475895,18.3458385 L6.35475895,6.15771952 C6.35475895,5.53353014 6.54019065,5.03563872 6.91324419,4.66258519 C7.28556768,4.28953165 7.7914896,4.1033699 8.43100995,4.1033699 C9.08586127,4.1033699 9.60346393,4.28953165 9.98235784,4.66258519 C10.3634419,5.03563872 10.5547139,5.53353014 10.5547139,6.15771952 L10.5547139,16.9083778 L15.8037451,16.9083778 C17.1280487,16.9083778 17.7894704,17.4792739 17.7894704,18.6196058 C17.7894704,19.1985323 17.6259401,19.6248792 17.2988795,19.8986465 L17.2988795,19.8986465 Z M116.787367,2.28263502 L21.4550317,0.310050563 C21.4550317,0.310050563 7.46661911,0.963441788 0.000438027637,1.67596675 L0.886713947,24.8863212 L46.6613321,25.8237003 L117.748107,24.2672421 L116.787367,2.28263502 Z" id="Fill-5" fill="#5CA7FF" mask="url(#mask-2)"></path>
                    </g>
                    <path d="M104.639651,16.197914 C104.229365,16.3738551 104.024222,16.6658735 104.024222,17.0776195 C104.024222,17.4280416 104.133729,17.7164098 104.354203,17.9441841 C104.574677,18.1726886 104.860855,18.2865758 105.210547,18.2865758 C105.758811,18.2865758 106.20706,18.0923835 106.557482,17.703999 C106.906444,17.3170746 107.082385,16.8184531 107.082385,16.2103247 L107.082385,15.9365575 L106.718092,15.9365575 C105.74348,15.9365575 105.050667,16.023433 104.639651,16.197914" id="Fill-8" fill="#5CA7FF"></path>
                    <path d="M10.4393981,42.7205604 L16.6484399,42.7205604 C17.1499815,42.7205604 17.5157346,42.776774 17.743509,42.8906611 C17.9720134,43.0060084 18.123863,43.1848697 18.2005178,43.427975 C18.2764426,43.6718104 18.314405,43.9944908 18.314405,44.3974762 C18.314405,44.8011917 18.2764426,45.1246021 18.2005178,45.3684375 C18.123863,45.6115428 17.9953749,45.7787234 17.8128634,45.8692491 C17.5230351,46.0218287 17.1273501,46.0984835 16.6258085,46.0984835 L8.40840999,46.0984835 C7.34327278,46.0984835 6.7190834,45.8093853 6.53584184,45.2304588 C6.44458608,44.9873534 6.40005327,44.5989689 6.40005327,44.0674954 L6.40005327,31.3756446 C6.40005327,31.0259525 6.41027392,30.763136 6.43436544,30.5886549 C6.45626682,30.4134439 6.52927142,30.2112211 6.65045907,29.9834468 C6.86436257,29.5724308 7.45715997,29.3672879 8.43104142,29.3672879 C9.49617862,29.3672879 10.1276685,29.6490857 10.3255109,30.2112211 C10.4014357,30.4711175 10.4393981,30.8668025 10.4393981,31.398276 L10.4393981,42.7205604 Z" id="Fill-10" fill="#5CA7FF"></path>
                    <path d="M30.8001638,36.0324624 L29.2940788,39.1592497 L32.3303403,39.1592497 L30.8001638,36.0324624 Z M32.6493705,30.5541968 L38.8116893,43.2905804 C39.0708556,43.807453 39.2000738,44.1965675 39.2000738,44.4550038 C39.2000738,45.0018083 38.7583959,45.4975096 37.8765003,45.9384574 C37.3581676,46.1968938 36.9515319,46.3268419 36.6551332,46.3268419 C36.3580045,46.3268419 36.1141691,46.2582176 35.9243571,46.120969 C35.7338151,45.9837203 35.5972965,45.8406313 35.5133412,45.6880516 C35.4301159,45.535472 35.3125785,45.3069676 35.1599989,45.0018083 L33.972944,42.5371728 L27.6507451,42.5371728 L26.4644202,45.0018083 C26.3118406,45.3069676 26.1928431,45.5281716 26.1096178,45.6639601 C26.0256625,45.8019388 25.8884139,45.9421077 25.6986019,46.0866568 C25.5080599,46.2312059 25.2649546,46.3034805 24.9685558,46.3034805 C24.6706971,46.3034805 24.2647914,46.1742623 23.7471888,45.915096 C22.8645631,45.4894791 22.4236153,45.0018083 22.4236153,44.4550038 C22.4236153,44.1965675 22.5528334,43.807453 22.8112697,43.2905804 L28.9743186,30.5315653 C29.1414991,30.1804132 29.3970153,29.9000755 29.7386768,29.6869021 C30.0817985,29.4744586 30.4424412,29.3671419 30.8235253,29.3671419 C31.644097,29.3671419 32.2522254,29.7628268 32.6493705,30.5541968 L32.6493705,30.5541968 Z" id="Fill-12" fill="#5CA7FF"></path>
                    <path d="M70.4015854,30.0060782 C70.5235031,30.2345826 70.5965077,30.4404556 70.6184091,30.6222371 C70.6410406,30.8054786 70.6527213,31.0719454 70.6527213,31.4216375 L70.6527213,44.0893968 C70.6527213,45.139203 70.363623,45.7553619 69.7846965,45.9386035 C69.4963283,46.0291292 69.1313053,46.0751221 68.6896274,46.0751221 C68.2479496,46.0751221 67.8975275,46.0378897 67.6398212,45.9612349 C67.3799248,45.8853101 67.1835424,45.7933243 67.0455637,45.6874676 C66.9097751,45.5808809 66.8024584,45.4283013 66.7265336,45.2304588 C66.6506088,44.9727525 66.6126464,44.5770675 66.6126464,44.0441339 L66.6126464,36.3976315 C66.2315623,36.8685112 65.6767273,37.6189985 64.9459512,38.6461733 C64.2159052,39.6726181 63.7523259,40.3157887 63.5537534,40.574955 C63.3566409,40.8326613 63.2186622,41.0122526 63.1434675,41.1108088 C63.0660826,41.2100951 62.8806509,41.3466137 62.5835222,41.5218248 C62.2871235,41.6970358 61.9673633,41.7839113 61.6249717,41.7839113 C61.2833101,41.7839113 60.9708504,41.7036062 60.6897827,41.5444562 C60.4079849,41.3845761 60.2057621,41.2283463 60.0838444,41.0764967 L59.902063,40.8253608 C59.5976338,40.4457369 58.9968059,39.6346557 58.0981192,38.3950375 C57.2001625,37.1539592 56.7139518,36.4896173 56.637297,36.3976315 L56.637297,44.0893968 C56.637297,44.4398189 56.6263463,44.7026355 56.6044449,44.8771165 C56.5803534,45.0523275 56.5088089,45.2465198 56.3868912,45.4589632 C56.1583868,45.8692491 55.5648593,46.0751221 54.6063088,46.0751221 C53.6784203,46.0751221 53.1002238,45.8692491 52.8709894,45.4589632 C52.7498017,45.2465198 52.6775271,45.0486773 52.6548957,44.8654357 C52.6315342,44.6829242 52.6205836,44.409157 52.6205836,44.0441339 L52.6205836,31.3756446 C52.6205836,31.0259525 52.6315342,30.763136 52.6548957,30.5886549 C52.6775271,30.4134439 52.7498017,30.2112211 52.8709894,29.9834468 C53.1002238,29.5877618 53.6930212,29.3891893 54.6523017,29.3891893 C55.0633177,29.3891893 55.41739,29.4402925 55.7137887,29.5381187 C56.0101874,29.6374049 56.2036496,29.7403414 56.2956354,29.8461981 L56.432154,29.9834468 L61.614021,36.7852859 C64.2005742,33.3620999 65.9278632,31.1026074 66.7958879,30.0060782 C67.0535942,29.5957923 67.6653728,29.3891893 68.6326838,29.3891893 C69.5978047,29.3891893 70.188412,29.5957923 70.4015854,30.0060782" id="Fill-14" fill="#5CA7FF"></path>
                    <path d="M83.4804337,36.0324624 L81.9743486,39.1592497 L85.0106102,39.1592497 L83.4804337,36.0324624 Z M85.3296403,30.5541968 L91.4926892,43.2905804 C91.7511255,43.807453 91.8803436,44.1965675 91.8803436,44.4550038 C91.8803436,45.0018083 91.4386658,45.4975096 90.5567701,45.9384574 C90.0384374,46.1968938 89.6318018,46.3268419 89.3361331,46.3268419 C89.0382743,46.3268419 88.795169,46.2582176 88.605357,46.120969 C88.4140849,45.9837203 88.2775663,45.8406313 88.1943411,45.6880516 C88.1103858,45.535472 87.9928484,45.3069676 87.8402687,45.0018083 L86.6539439,42.5371728 L80.331745,42.5371728 L79.1446901,45.0018083 C78.9921105,45.3069676 78.873843,45.5281716 78.7906177,45.6639601 C78.7059324,45.8019388 78.5694138,45.9421077 78.3788718,46.0866568 C78.1883297,46.2312059 77.9452244,46.3034805 77.6495558,46.3034805 C77.351697,46.3034805 76.9450613,46.1742623 76.4274586,45.915096 C75.545563,45.4894791 75.1038851,45.0018083 75.1038851,44.4550038 C75.1038851,44.1965675 75.2331033,43.807453 75.4915396,43.2905804 L81.6545885,30.5315653 C81.822499,30.1804132 82.0772851,29.9000755 82.4189467,29.6869021 C82.7620683,29.4744586 83.1234411,29.3671419 83.5037951,29.3671419 C84.3250969,29.3671419 84.9332253,29.7628268 85.3296403,30.5541968 L85.3296403,30.5541968 Z" id="Fill-16" fill="#5CA7FF"></path>
                    <path d="M107.139182,30.0630948 C107.283001,29.797358 107.500555,29.6184967 107.789653,29.527241 C108.078022,29.4367153 108.440124,29.3892623 108.873772,29.3892623 C109.306689,29.3892623 109.657111,29.4279547 109.923578,29.5038795 C110.190045,29.5805343 110.387887,29.6725201 110.517106,29.7776468 C110.646324,29.8849635 110.74196,30.0448436 110.802554,30.257287 C110.894539,30.5018525 110.939802,30.8887769 110.939802,31.4217105 L110.939802,44.0894698 C110.939802,44.4552229 110.927391,44.7209596 110.90476,44.8881402 C110.882129,45.0560508 110.809124,45.2538933 110.687936,45.4816676 C110.474763,45.8934136 109.881965,46.0985565 108.907354,46.0985565 C108.313827,46.0985565 107.903541,46.0525636 107.675036,45.9613079 C107.447262,45.8693221 107.25599,45.725503 107.10487,45.5283906 C103.681684,40.9626825 101.429492,37.9797143 100.347564,36.580216 L100.347564,44.0894698 C100.347564,44.4552229 100.337343,44.7209596 100.313982,44.8881402 C100.29135,45.0560508 100.219076,45.2538933 100.097158,45.4816676 C99.8839846,45.8934136 99.2904572,46.0985565 98.3165757,46.0985565 C97.3733562,46.0985565 96.7951597,45.8934136 96.5819863,45.4816676 C96.4600686,45.2538933 96.387064,45.0487503 96.3651626,44.8655087 C96.3425312,44.6822672 96.3308504,44.4172605 96.3308504,44.0675684 L96.3308504,31.3297247 C96.3308504,30.7522583 96.4038551,30.3295616 96.5484042,30.0630948 C96.6922233,29.797358 96.909777,29.6184967 97.1988752,29.527241 C97.4872434,29.4367153 97.861027,29.3892623 98.3165757,29.3892623 C98.7735846,29.3892623 99.1349574,29.432335 99.4014242,29.5162903 C99.667161,29.5995155 99.8540527,29.6944215 99.9606395,29.8017383 C100.021233,29.8462711 100.195714,30.0448436 100.485543,30.3945357 C103.696285,34.7616712 105.841891,37.6453532 106.921629,39.0455815 L106.921629,31.3297247 C106.921629,30.7522583 106.994633,30.3295616 107.139182,30.0630948" id="Fill-18" fill="#5CA7FF"></path>
                    <path d="M119.657574,37.7670519 C119.657574,39.1212873 120.095602,40.2207367 120.970197,41.0654 C121.844792,41.9093332 122.823054,42.3320299 123.902792,42.3320299 C124.98472,42.3320299 125.957872,41.921014 126.825166,41.0989821 C127.692461,40.2769502 128.126839,39.1745807 128.126839,37.7889533 C128.126839,36.405516 127.688811,35.2936558 126.814216,34.457023 C125.938891,33.6196602 124.961359,33.2020738 123.880891,33.2020738 C122.800423,33.2020738 121.826541,33.6240405 120.959246,34.4687038 C120.091952,35.3133671 119.657574,36.4135465 119.657574,37.7670519 M123.812266,29.1619989 C126.064458,29.1619989 128.019522,29.9760003 129.678917,31.604003 C131.336851,33.2327358 132.166914,35.2535033 132.166914,37.6641154 C132.166914,40.0761876 131.375544,42.1305372 129.792804,43.8271642 C128.210064,45.5245213 126.262301,46.3721048 123.949515,46.3721048 C121.635999,46.3721048 119.669985,45.535472 118.049283,43.8622064 C116.428581,42.1874808 115.618229,40.193725 115.618229,37.8809391 C115.618229,36.6186894 115.846004,35.4352847 116.303013,34.3314551 C116.759291,33.2283555 117.36742,32.3041172 118.128858,31.5580101 C118.889566,30.8140932 119.764161,30.2278662 120.754103,29.8015193 C121.742586,29.3751724 122.76319,29.1619989 123.812266,29.1619989" id="Fill-20" fill="#5CA7FF"></path>
                    <g id="Group-24" transform="translate(134.373843, 35.553333)">
                        <mask id="mask-4" fill="white">
                            <use xlink:href="#path-3"></use>
                        </mask>
                        <g id="Clip-23"></g>
                        <path d="M0.485699645,2.71562534 L0.485699645,1.6658191 C0.485699645,0.846707423 1.15515188,0.177255184 1.97426357,0.177255184 L8.98416586,0.177255184 C9.80254749,0.177255184 10.4719997,0.846707423 10.4719997,1.6658191 L10.4719997,2.71562534 C10.4719997,3.53400698 9.80254749,4.20418926 8.98416586,4.20418926 L1.97426357,4.20418926 C1.15515188,4.20418926 0.485699645,3.53400698 0.485699645,2.71562534" id="Fill-22" fill="#7AB7FF" mask="url(#mask-4)"></path>
                    </g>
                    <path d="M133.853612,32.696663 L133.333089,31.7848354 C132.926453,31.0737706 133.176129,30.1597529 133.887194,29.7545773 L139.973588,26.2773679 C140.683923,25.8714623 141.597941,26.1211381 142.003846,26.8322029 L142.525099,27.7440305 C142.931735,28.4543653 142.682059,29.3676529 141.970994,29.7742886 L135.88387,33.2507679 C135.173535,33.6566735 134.260248,33.4077278 133.853612,32.696663" id="Fill-25" fill="#5CA7FF"></path>
                    <path d="M130.091393,28.3192338 L129.187596,27.78484 C128.483101,27.3679837 128.247296,26.4503158 128.664153,25.7465514 L130.085552,23.3410497 C130.502409,22.6365552 131.419346,22.4007503 132.124571,22.8176066 L133.028368,23.3520004 C133.732862,23.7688567 133.968667,24.6857945 133.551811,25.390289 L132.130411,27.7950607 C131.713555,28.5002852 130.796617,28.73536 130.091393,28.3192338" id="Fill-27" fill="#5CA7FF"></path>
                    <path d="M130.052189,47.3667196 L129.148392,47.9011133 C128.443168,48.3179696 128.208093,49.2356375 128.624219,49.9394019 L130.046349,52.3449037 C130.462475,53.0493981 131.380143,53.2844729 132.084637,52.8683467 L132.988434,52.333953 C133.692929,51.9170967 133.929464,51.0001588 133.511877,50.2956644 L132.090478,47.8908926 C131.674351,47.1856681 130.756684,46.9505933 130.052189,47.3667196" id="Fill-29" fill="#5CA7FF"></path>
                    <path d="M133.620435,43.0598858 L133.099912,43.9717134 C132.693277,44.6827782 132.942952,45.5960658 133.654017,46.0019715 L139.741141,49.4784508 C140.450746,49.8850865 141.364764,49.6354107 141.7714,48.9243458 L142.291922,48.0125183 C142.698558,47.3021835 142.448882,46.3881658 141.737817,45.9822602 L135.651423,42.5050508 C134.941089,42.0998752 134.027071,42.348821 133.620435,43.0598858" id="Fill-31" fill="#5CA7FF"></path>
                </g>
                <path d="M27.3759651,12.1736755 C26.8437616,12.1736755 26.4181447,12.3445063 26.0983845,12.6876279 C25.7786244,13.0292895 25.5873523,13.527911 25.5274885,14.1827623 L29.1112846,14.1827623 C29.0192988,12.8431277 28.4403723,12.1736755 27.3759651,12.1736755" id="Fill-1" fill="#FFFFFF"></path>
                <path d="M57.645062,16.3158109 C57.2347761,16.491752 57.0289031,16.7837704 57.0289031,17.1955164 C57.0289031,17.5459385 57.13914,17.8343067 57.359614,18.062081 C57.5800879,18.2905855 57.8662659,18.4044726 58.215958,18.4044726 C58.7642226,18.4044726 59.2124709,18.2102804 59.562893,17.8218959 C59.911855,17.4349715 60.0877961,16.93635 60.0877961,16.3282216 L60.0877961,16.0544544 L59.7227731,16.0544544 C58.7488916,16.0544544 58.0560779,16.1413298 57.645062,16.3158109" id="Fill-3" fill="#FFFFFF"></path>
                <g id="Group-7" transform="translate(0.108161, 0.629019)">
                    <mask id="mask-6" fill="white">
                        <use xlink:href="#path-5"></use>
                    </mask>
                    <g id="Clip-6"></g>
                    <path d="M110.894435,18.5977044 C110.894435,19.1759009 110.723604,19.6285295 110.380482,19.9555901 C110.038821,20.2833808 109.562831,20.4461811 108.953972,20.4461811 C108.421769,20.4461811 107.984471,20.2943315 107.64208,19.9899023 C107.299688,19.6854731 107.112796,19.2744571 107.082134,18.7575845 C106.868961,19.3051191 106.511968,19.731466 106.010427,20.0351651 C105.507425,20.3403244 104.906597,20.492174 104.207213,20.492174 C103.430444,20.492174 102.73033,20.335214 102.1076,20.0242144 C101.482681,19.7117547 100.99209,19.2788374 100.633637,18.7232723 C100.276645,18.1677073 100.098514,17.5398677 100.098514,16.8397535 C100.098514,16.0330526 100.307307,15.3906121 100.725623,14.9117019 C101.14467,14.4320616 101.810472,14.0852897 102.723029,13.8728463 C103.636317,13.6589428 104.868635,13.5538162 106.419983,13.5538162 L107.036871,13.5538162 L107.036871,13.2793189 C107.036871,12.7463852 106.915684,12.362381 106.672578,12.1273062 C106.428013,11.8907712 106.016997,11.7732338 105.439531,11.7732338 C104.815341,11.7732338 103.902784,11.9856772 102.700398,12.4120241 C102.349976,12.5339418 102.053577,12.5938056 101.810472,12.5938056 C101.429388,12.5938056 101.125689,12.457287 100.897184,12.1835197 C100.66868,11.9097524 100.554062,11.5520299 100.554062,11.1110821 C100.554062,10.776721 100.623417,10.5022236 100.760665,10.2890502 C100.897184,10.0766068 101.116928,9.88533471 101.421357,9.71888421 C101.955021,9.44438689 102.623743,9.22464303 103.430444,9.05673243 C104.237145,8.88955189 105.028515,8.80559659 105.804554,8.80559659 C107.539143,8.80559659 108.821104,9.21953271 109.650436,10.0495951 C110.480499,10.8789274 110.894435,12.1382569 110.894435,13.8268534 L110.894435,18.5977044 Z M94.698363,20.1037894 C94.2873471,20.3622258 93.7011201,20.4688125 92.9404121,20.4235496 L92.3016218,20.3775567 C90.9327854,20.27097 89.8931998,19.8570339 89.1872453,19.1335582 C88.4791006,18.4108126 88.1250282,17.4033491 88.1250282,16.1097074 L88.1250282,12.0696325 L87.4628765,12.0696325 C86.2451596,12.0696325 85.6363012,11.5666308 85.6363012,10.5628175 C85.6363012,9.57360505 86.2451596,9.07936386 87.4628765,9.07936386 L88.1250282,9.07936386 L88.1250282,7.59518022 C88.1250282,7.01771378 88.3075398,6.55705472 88.6732928,6.21466311 C89.0383159,5.87227151 89.531827,5.70071069 90.1567464,5.70071069 C90.7802058,5.70071069 91.274447,5.87227151 91.63947,6.21466311 C92.0052231,6.55705472 92.1877346,7.01771378 92.1877346,7.59518022 L92.1877346,9.07936386 L93.4434138,9.07936386 C94.6611306,9.07936386 95.269259,9.57360505 95.269259,10.5628175 C95.269259,11.5666308 94.6611306,12.0696325 93.4434138,12.0696325 L92.1877346,12.0696325 L92.1877346,16.452099 C92.1877346,16.7411973 92.2746101,16.9843026 92.4498211,17.1821451 C92.6250322,17.3799876 92.8498864,17.4873044 93.1236536,17.5019053 L93.7858054,17.5471681 C94.8049497,17.608492 95.3145219,18.0647708 95.3145219,18.9167346 C95.3145219,19.4503982 95.1093789,19.8446231 94.698363,20.1037894 L94.698363,20.1037894 Z M81.226093,18.5743429 C81.226093,19.1532695 81.0428514,19.6102783 80.6778284,19.9446394 C80.3128053,20.2790005 79.8185641,20.4461811 79.1951048,20.4461811 C78.5709154,20.4461811 78.0759442,20.2790005 77.7109212,19.9446394 C77.3458981,19.6102783 77.1626566,19.1532695 77.1626566,18.5743429 L77.1626566,13.8268534 C77.1626566,13.1581312 77.0451192,12.6704604 76.8093143,12.3667613 C76.5727794,12.061602 76.2194371,11.9097524 75.7478273,11.9097524 C75.1389689,11.9097524 74.6556784,12.1032147 74.2986859,12.4915992 C73.9409633,12.8799837 73.762102,13.4012366 73.762102,14.0546278 L73.762102,18.5743429 C73.762102,19.1532695 73.5795905,19.6102783 73.2145675,19.9446394 C72.8488144,20.2790005 72.3545732,20.4461811 71.7303838,20.4461811 C71.1061944,20.4461811 70.6119533,20.2790005 70.2469302,19.9446394 C69.8819072,19.6102783 69.6993957,19.1532695 69.6993957,18.5743429 L69.6993957,10.6767046 C69.6993957,10.1445011 69.8899377,9.70647343 70.2695617,9.36481187 C70.6506457,9.02169022 71.1448869,8.85085944 71.7537453,8.85085944 C72.3319418,8.85085944 72.7926008,9.01073953 73.1342624,9.33049971 C73.476654,9.65025988 73.6482148,10.0685763 73.6482148,10.5861789 C74.0424397,10.0072524 74.5534719,9.56630459 75.1769313,9.26187538 C75.8018507,8.95817622 76.4932043,8.80559659 77.2546424,8.80559659 C78.5935469,8.80559659 79.5893297,9.20493178 80.244911,10.0036022 C80.8983023,10.8022726 81.226093,12.0163392 81.226093,13.6443419 L81.226093,18.5743429 Z M63.8371258,18.5977044 C63.8371258,19.1759009 63.666295,19.6285295 63.3231734,19.9555901 C62.9815118,20.2833808 62.5047917,20.4461811 61.8966634,20.4461811 C61.3644598,20.4461811 60.9271622,20.2943315 60.5840405,19.9899023 C60.242379,19.6854731 60.0554872,19.2744571 60.0248253,18.7575845 C59.8109218,19.3051191 59.4546593,19.731466 58.9531176,20.0351651 C58.4501159,20.3403244 57.849288,20.492174 57.1499039,20.492174 C56.3731349,20.492174 55.6730207,20.335214 55.0495613,20.0242144 C54.425372,19.7117547 53.934781,19.2788374 53.5763284,18.7232723 C53.2193359,18.1677073 53.0412046,17.5398677 53.0412046,16.8397535 C53.0412046,16.0330526 53.2499978,15.3906121 53.6683142,14.9117019 C54.0866306,14.4320616 54.7524326,14.0852897 55.6657202,13.8728463 C56.5790078,13.6589428 57.8105956,13.5538162 59.3626735,13.5538162 L59.9795624,13.5538162 L59.9795624,13.2793189 C59.9795624,12.7463852 59.8583748,12.362381 59.6145394,12.1273062 C59.370704,11.8907712 58.9596881,11.7732338 58.3822216,11.7732338 C57.7580322,11.7732338 56.8454747,11.9856772 55.6430888,12.4120241 C55.2919366,12.5339418 54.996268,12.5938056 54.7524326,12.5938056 C54.3713486,12.5938056 54.0676494,12.457287 53.839875,12.1835197 C53.6106406,11.9097524 53.4967534,11.5520299 53.4967534,11.1110821 C53.4967534,10.776721 53.5661078,10.5022236 53.7026264,10.2890502 C53.839875,10.0766068 54.0596189,9.88533471 54.3640481,9.71888421 C54.8977118,9.44438689 55.566434,9.22464303 56.3731349,9.05673243 C57.1798358,8.88955189 57.9704756,8.80559659 58.7472447,8.80559659 C60.4818341,8.80559659 61.763795,9.21953271 62.5931273,10.0495951 C63.4231897,10.8789274 63.8371258,12.1382569 63.8371258,13.8268534 L63.8371258,18.5977044 Z M48.799637,11.3395865 L44.805555,19.2817576 C44.6237735,19.6628416 44.3602269,19.9555901 44.0192954,20.160733 C43.6761737,20.365876 43.2987399,20.4688125 42.888454,20.4688125 C42.4781682,20.4688125 42.0978142,20.365876 41.746662,20.160733 C41.3969699,19.9555901 41.1312332,19.6628416 40.9479916,19.2817576 L36.9539096,11.3395865 C36.8319919,11.0650892 36.7721281,10.8219838 36.7721281,10.6088104 C36.7721281,10.1218696 36.9809213,9.70647343 37.3992377,9.36481187 C37.8168241,9.02169022 38.3001145,8.85085944 38.8483791,8.85085944 C39.2134022,8.85085944 39.5521435,8.94576543 39.8646033,9.13630745 C40.1756029,9.32684948 40.415058,9.61156744 40.5829686,9.99265149 L43.0030713,15.2197813 L45.3990825,9.99265149 C45.5677231,9.61156744 45.7991477,9.33049971 46.0955464,9.14725815 C46.3926751,8.96547668 46.7153555,8.87349087 47.0657776,8.87349087 C47.5680493,8.87349087 48.0126474,9.04140147 48.4003018,9.37576256 C48.7894164,9.71158375 48.9828786,10.1138391 48.9828786,10.5861789 C48.9828786,10.8438852 48.9215547,11.0957511 48.799637,11.3395865 L48.799637,11.3395865 Z M26.1499579,17.0456265 C26.514981,17.3653867 27.054485,17.5245367 27.7706602,17.5245367 C28.1502841,17.5245367 28.5007063,17.4829241 28.8197364,17.3996988 C29.1394966,17.3157435 29.4972191,17.1982061 29.8929041,17.0456265 C30.1206785,16.9536407 30.3448026,16.8740657 30.5660066,16.8061714 C30.7864805,16.7375471 30.9887032,16.7032349 31.1704847,16.7032349 C31.5209068,16.7032349 31.8056248,16.8397535 32.0275588,17.1135208 C32.2473026,17.387288 32.3575396,17.7450106 32.3575396,18.1866885 C32.3575396,18.7955469 32.0618709,19.2598562 31.4676134,19.5796164 C30.9507408,19.8373226 30.3375021,20.0548764 29.6300875,20.2293574 C28.9234029,20.4038384 28.2722018,20.492174 27.6786744,20.492174 C26.4317557,20.492174 25.342527,20.2563691 24.4146384,19.7847593 C23.4867499,19.3124195 22.7713048,18.6356668 22.2697631,17.7523111 C21.7667614,16.8704154 21.5163556,15.8352101 21.5163556,14.6481552 C21.5163556,13.5231542 21.7558107,12.5142306 22.2354509,11.6243044 C22.7143612,10.7336482 23.3838134,10.0415646 24.2445377,9.54732339 C25.1030719,9.05235216 26.072573,8.80559659 27.1537713,8.80559659 C28.2028475,8.80559659 29.1248956,9.03337096 29.9155355,9.48964975 C30.7061754,9.94592854 31.3194141,10.5934794 31.7530615,11.4301122 C32.1867088,12.267475 32.4028025,13.2486569 32.4028025,14.374388 C32.4028025,14.7248101 32.3232274,14.9949271 32.1633473,15.1854691 C32.0034673,15.3752811 31.7713126,15.4701871 31.4676134,15.4701871 L25.4418132,15.4701871 C25.5484,16.2002332 25.7842049,16.7265964 26.1499579,17.0456265 L26.1499579,17.0456265 Z M17.2988795,19.8986465 C16.9718188,20.1731438 16.4731974,20.3096624 15.8037451,20.3096624 L8.29449134,20.3096624 C7.67030196,20.3096624 7.19066169,20.1424819 6.8563006,19.8066607 C6.52120946,19.4722996 6.35475895,18.9860889 6.35475895,18.3458385 L6.35475895,6.15771952 C6.35475895,5.53353014 6.54019065,5.03563872 6.91324419,4.66258519 C7.28556768,4.28953165 7.7914896,4.1033699 8.43100995,4.1033699 C9.08586127,4.1033699 9.60346393,4.28953165 9.98235784,4.66258519 C10.3634419,5.03563872 10.5547139,5.53353014 10.5547139,6.15771952 L10.5547139,16.9083778 L15.8037451,16.9083778 C17.1280487,16.9083778 17.7894704,17.4792739 17.7894704,18.6196058 C17.7894704,19.1985323 17.6259401,19.6248792 17.2988795,19.8986465 L17.2988795,19.8986465 Z M116.787367,2.28263502 L21.4550317,0.310050563 C21.4550317,0.310050563 7.46661911,0.963441788 0.000438027637,1.67596675 L0.886713947,24.8863212 L46.6613321,25.8237003 L117.748107,24.2672421 L116.787367,2.28263502 Z" id="Fill-5" fill="#FFFFFF" mask="url(#mask-6)"></path>
                </g>
                <path d="M104.702444,16.3158109 C104.292158,16.491752 104.087015,16.7837704 104.087015,17.1955164 C104.087015,17.5459385 104.196522,17.8343067 104.416996,18.062081 C104.63747,18.2905855 104.923648,18.4044726 105.27334,18.4044726 C105.821605,18.4044726 106.269853,18.2102804 106.620275,17.8218959 C106.969237,17.4349715 107.145178,16.93635 107.145178,16.3282216 L107.145178,16.0544544 L106.780885,16.0544544 C105.806274,16.0544544 105.11346,16.1413298 104.702444,16.3158109" id="Fill-8" fill="#FFFFFF"></path>
                <path d="M10.5021915,42.8384573 L16.7112333,42.8384573 C17.2127749,42.8384573 17.578528,42.8946708 17.8063023,43.008558 C18.0348068,43.1239053 18.1866563,43.3027666 18.2633112,43.5458719 C18.339236,43.7897073 18.3771984,44.1123877 18.3771984,44.5153731 C18.3771984,44.9190886 18.339236,45.242499 18.2633112,45.4863344 C18.1866563,45.7294397 18.0581682,45.8966203 17.8756567,45.987146 C17.5858284,46.1397256 17.1901435,46.2163804 16.6886018,46.2163804 L8.47120335,46.2163804 C7.40606614,46.2163804 6.78187676,45.9272822 6.5986352,45.3483557 C6.50737944,45.1052503 6.46284663,44.7168658 6.46284663,44.1853923 L6.46284663,31.4935415 C6.46284663,31.1438494 6.47306727,30.8810328 6.49715879,30.7065518 C6.51906018,30.5313408 6.59206478,30.329118 6.71325243,30.1013437 C6.92715593,29.6903277 7.51995333,29.4851848 8.49383477,29.4851848 C9.55897198,29.4851848 10.1904618,29.7669826 10.3883043,30.329118 C10.4642291,30.5890144 10.5021915,30.9846994 10.5021915,31.5161729 L10.5021915,42.8384573 Z" id="Fill-10" fill="#FFFFFF"></path>
                <path d="M30.8629572,36.1503593 L29.3568721,39.2771466 L32.3931337,39.2771466 L30.8629572,36.1503593 Z M32.7121638,30.6720937 L38.8744826,43.4084773 C39.133649,43.9253499 39.2628671,44.3144644 39.2628671,44.5729007 C39.2628671,45.1197052 38.8211893,45.6154065 37.9392936,46.0563543 C37.4209609,46.3147906 37.0143253,46.4447388 36.7179266,46.4447388 C36.4207978,46.4447388 36.1769624,46.3761145 35.9871505,46.2388658 C35.7966084,46.1016172 35.6600898,45.9585282 35.5761345,45.8059485 C35.4929093,45.6533689 35.3753719,45.4248645 35.2227922,45.1197052 L34.0357373,42.6550697 L27.7135384,42.6550697 L26.5272136,45.1197052 C26.374634,45.4248645 26.2556365,45.6460684 26.1724112,45.781857 C26.0884559,45.9198357 25.9512072,46.0600046 25.7613953,46.2045537 C25.5708532,46.3491028 25.3277479,46.4213774 25.0313492,46.4213774 C24.7334904,46.4213774 24.3275848,46.2921592 23.8099821,46.0329929 C22.9273565,45.607376 22.4864086,45.1197052 22.4864086,44.5729007 C22.4864086,44.3144644 22.6156268,43.9253499 22.8740631,43.4084773 L29.037112,30.6494622 C29.2042925,30.2983101 29.4598086,30.0179724 29.8014702,29.8047989 C30.1445918,29.5923555 30.5052346,29.4850388 30.8863186,29.4850388 C31.7068904,29.4850388 32.3150188,29.8807237 32.7121638,30.6720937 L32.7121638,30.6720937 Z" id="Fill-12" fill="#FFFFFF"></path>
                <path d="M70.4643788,30.1239751 C70.5862965,30.3524795 70.6593011,30.5583525 70.6812025,30.740134 C70.7038339,30.9233755 70.7155146,31.1898423 70.7155146,31.5395344 L70.7155146,44.2072937 C70.7155146,45.2570999 70.4264164,45.8732588 69.8474899,46.0565003 C69.5591217,46.1470261 69.1940987,46.193019 68.7524208,46.193019 C68.3107429,46.193019 67.9603208,46.1557866 67.7026145,46.0791318 C67.4427182,46.003207 67.2463358,45.9112212 67.1083571,45.8053645 C66.9725685,45.6987778 66.8652517,45.5461981 66.7893269,45.3483557 C66.7134021,45.0906494 66.6754397,44.6949644 66.6754397,44.1620308 L66.6754397,36.5155284 C66.2943557,36.9864081 65.7395207,37.7368954 65.0087446,38.7640702 C64.2786985,39.790515 63.8151193,40.4336856 63.6165467,40.6928519 C63.4194343,40.9505582 63.2814556,41.1301495 63.2062609,41.2287057 C63.128876,41.327992 62.9434443,41.4645106 62.6463155,41.6397217 C62.3499168,41.8149327 62.0301566,41.9018082 61.687765,41.9018082 C61.3461035,41.9018082 61.0336438,41.8215031 60.752576,41.6623531 C60.4707783,41.502473 60.2685555,41.3462431 60.1466378,41.1943936 L59.9648563,40.9432577 C59.6604271,40.5636338 59.0595992,39.7525526 58.1609125,38.5129344 C57.2629559,37.2718561 56.7767452,36.6075142 56.7000903,36.5155284 L56.7000903,44.2072937 C56.7000903,44.5577158 56.6891397,44.8205324 56.6672383,44.9950134 C56.6431468,45.1702244 56.5716022,45.3644167 56.4496845,45.5768601 C56.2211801,45.987146 55.6276527,46.193019 54.6691022,46.193019 C53.7412137,46.193019 53.1630172,45.987146 52.9337827,45.5768601 C52.8125951,45.3644167 52.7403205,45.1665742 52.7176891,44.9833326 C52.6943276,44.8008211 52.6833769,44.5270538 52.6833769,44.1620308 L52.6833769,31.4935415 C52.6833769,31.1438494 52.6943276,30.8810328 52.7176891,30.7065518 C52.7403205,30.5313408 52.8125951,30.329118 52.9337827,30.1013437 C53.1630172,29.7056587 53.7558146,29.5070862 54.7150951,29.5070862 C55.126111,29.5070862 55.4801834,29.5581894 55.7765821,29.6560156 C56.0729808,29.7553018 56.266443,29.8582383 56.3584288,29.964095 L56.4949474,30.1013437 L61.6768144,36.9031828 C64.2633676,33.4799968 65.9906565,31.2205043 66.8586813,30.1239751 C67.1163876,29.7136892 67.7281662,29.5070862 68.6954772,29.5070862 C69.6605981,29.5070862 70.2512054,29.7136892 70.4643788,30.1239751" id="Fill-14" fill="#FFFFFF"></path>
                <path d="M83.543227,36.1503593 L82.037142,39.2771466 L85.0734036,39.2771466 L83.543227,36.1503593 Z M85.3924337,30.6720937 L91.5554825,43.4084773 C91.8139189,43.9253499 91.943137,44.3144644 91.943137,44.5729007 C91.943137,45.1197052 91.5014591,45.6154065 90.6195635,46.0563543 C90.1012308,46.3147906 89.6945951,46.4447388 89.3989265,46.4447388 C89.1010677,46.4447388 88.8579623,46.3761145 88.6681504,46.2388658 C88.4768783,46.1016172 88.3403597,45.9585282 88.2571344,45.8059485 C88.1731791,45.6533689 88.0556417,45.4248645 87.9030621,45.1197052 L86.7167372,42.6550697 L80.3945383,42.6550697 L79.2074834,45.1197052 C79.0549038,45.4248645 78.9366364,45.6460684 78.8534111,45.781857 C78.7687258,45.9198357 78.6322072,46.0600046 78.4416651,46.2045537 C78.2511231,46.3491028 78.0080178,46.4213774 77.7123491,46.4213774 C77.4144903,46.4213774 77.0078547,46.2921592 76.490252,46.0329929 C75.6083564,45.607376 75.1666785,45.1197052 75.1666785,44.5729007 C75.1666785,44.3144644 75.2958966,43.9253499 75.554333,43.4084773 L81.7173818,30.6494622 C81.8852924,30.2983101 82.1400785,30.0179724 82.48174,29.8047989 C82.8248617,29.5923555 83.1862345,29.4850388 83.5665885,29.4850388 C84.3878903,29.4850388 84.9960187,29.8807237 85.3924337,30.6720937 L85.3924337,30.6720937 Z" id="Fill-16" fill="#FFFFFF"></path>
                <path d="M107.201976,30.1809917 C107.345795,29.9152549 107.563349,29.7363936 107.852447,29.6451379 C108.140815,29.5546122 108.502918,29.5071592 108.936565,29.5071592 C109.369483,29.5071592 109.719905,29.5458516 109.986371,29.6217764 C110.252838,29.6984312 110.450681,29.790417 110.579899,29.8955437 C110.709117,30.0028604 110.804753,30.1627405 110.865347,30.3751839 C110.957333,30.6197494 111.002596,31.0066738 111.002596,31.5396074 L111.002596,44.2073667 C111.002596,44.5731197 110.990185,44.8388565 110.967553,45.0060371 C110.944922,45.1739477 110.871917,45.3717901 110.75073,45.5995645 C110.537556,46.0113105 109.944759,46.2164534 108.970147,46.2164534 C108.37662,46.2164534 107.966334,46.1704605 107.73783,46.0792048 C107.510055,45.987219 107.318783,45.8433999 107.167664,45.6462875 C103.744478,41.0805794 101.492286,38.0976112 100.410357,36.6981129 L100.410357,44.2073667 C100.410357,44.5731197 100.400137,44.8388565 100.376775,45.0060371 C100.354144,45.1739477 100.281869,45.3717901 100.159951,45.5995645 C99.946778,46.0113105 99.3532505,46.2164534 98.3793691,46.2164534 C97.4361496,46.2164534 96.8579531,46.0113105 96.6447797,45.5995645 C96.522862,45.3717901 96.4498574,45.1666472 96.427956,44.9834056 C96.4053245,44.8001641 96.3936438,44.5351574 96.3936438,44.1854653 L96.3936438,31.4476216 C96.3936438,30.8701552 96.4666484,30.4474585 96.6111975,30.1809917 C96.7550166,29.9152549 96.9725703,29.7363936 97.2616686,29.6451379 C97.5500368,29.5546122 97.9238204,29.5071592 98.3793691,29.5071592 C98.8363779,29.5071592 99.1977507,29.5502319 99.4642175,29.6341872 C99.7299543,29.7174124 99.9168461,29.8123184 100.023433,29.9196352 C100.084027,29.964168 100.258508,30.1627405 100.548336,30.5124326 C103.759079,34.8795681 105.904684,37.7632501 106.984422,39.1634784 L106.984422,31.4476216 C106.984422,30.8701552 107.057427,30.4474585 107.201976,30.1809917" id="Fill-18" fill="#FFFFFF"></path>
                <path d="M119.720368,37.8849488 C119.720368,39.2391842 120.158395,40.3386336 121.03299,41.1832969 C121.907586,42.0272301 122.885847,42.4499268 123.965585,42.4499268 C125.047514,42.4499268 126.020665,42.0389109 126.88796,41.216879 C127.755255,40.3948471 128.189632,39.2924776 128.189632,37.9068501 C128.189632,36.5234129 127.751604,35.4115527 126.877009,34.5749199 C126.001684,33.7375571 125.024152,33.3199707 123.943684,33.3199707 C122.863216,33.3199707 121.889334,33.7419374 121.02204,34.5866007 C120.154745,35.4312639 119.720368,36.5314434 119.720368,37.8849488 M123.87506,29.2798958 C126.127252,29.2798958 128.082315,30.0938972 129.74171,31.7218999 C131.399645,33.3506327 132.229707,35.3714002 132.229707,37.7820123 C132.229707,40.1940845 131.438337,42.2484341 129.855597,43.9450611 C128.272857,45.6424182 126.325094,46.4900017 124.012308,46.4900017 C121.698792,46.4900017 119.732778,45.6533689 118.112076,43.9801033 C116.491374,42.3053777 115.681023,40.3116219 115.681023,37.9988359 C115.681023,36.7365863 115.908797,35.5531816 116.365806,34.449352 C116.822085,33.3462524 117.430213,32.4220141 118.191651,31.675907 C118.952359,30.9319901 119.826954,30.3457631 120.816897,29.9194162 C121.805379,29.4930693 122.825984,29.2798958 123.87506,29.2798958" id="Fill-20" fill="#FFFFFF"></path>
                <g id="Group-24" transform="translate(134.436636, 35.671230)">
                    <mask id="mask-8" fill="white">
                        <use xlink:href="#path-7"></use>
                    </mask>
                    <g id="Clip-23"></g>
                    <path d="M0.485699645,2.71562534 L0.485699645,1.6658191 C0.485699645,0.846707423 1.15515188,0.177255184 1.97426357,0.177255184 L8.98416586,0.177255184 C9.80254749,0.177255184 10.4719997,0.846707423 10.4719997,1.6658191 L10.4719997,2.71562534 C10.4719997,3.53400698 9.80254749,4.20418926 8.98416586,4.20418926 L1.97426357,4.20418926 C1.15515188,4.20418926 0.485699645,3.53400698 0.485699645,2.71562534" id="Fill-22" fill="#FFFFFF" mask="url(#mask-8)"></path>
                </g>
                <path d="M133.916405,32.8145598 L133.395882,31.9027323 C132.989247,31.1916674 133.238923,30.2776498 133.949987,29.8724742 L140.036381,26.3952648 C140.746716,25.9893592 141.660734,26.239035 142.06664,26.9500998 L142.587892,27.8619274 C142.994528,28.5722622 142.744852,29.4855498 142.033787,29.8921855 L135.946663,33.3686648 C135.236329,33.7745704 134.323041,33.5256247 133.916405,32.8145598" id="Fill-25" fill="#FFFFFF"></path>
                <path d="M130.154186,28.4371307 L129.250389,27.9027369 C128.545894,27.4858806 128.31009,26.5682127 128.726946,25.8644483 L130.148346,23.4589466 C130.565202,22.7544521 131.48214,22.5186472 132.187364,22.9355035 L133.091161,23.4698972 C133.795656,23.8867535 134.031461,24.8036914 133.614604,25.5081858 L132.193205,27.9129576 C131.776348,28.6181821 130.85941,28.8532569 130.154186,28.4371307" id="Fill-27" fill="#FFFFFF"></path>
                <path d="M130.114982,47.4846165 L129.211185,48.0190102 C128.505961,48.4358665 128.270886,49.3535344 128.687012,50.0572988 L130.109142,52.4628005 C130.525268,53.167295 131.442936,53.4023698 132.147431,52.9862436 L133.051228,52.4518499 C133.755722,52.0349936 133.992257,51.1180557 133.574671,50.4135613 L132.153271,48.0087895 C131.737145,47.303565 130.819477,47.0684902 130.114982,47.4846165" id="Fill-29" fill="#FFFFFF"></path>
                <path d="M133.683229,43.1777827 L133.162706,44.0896102 C132.75607,44.8006751 133.005746,45.7139627 133.716811,46.1198683 L139.803935,49.5963477 C140.51354,50.0029833 141.427557,49.7533076 141.834193,49.0422427 L142.354716,48.1304152 C142.761351,47.4200804 142.511676,46.5060627 141.800611,46.1001571 L135.714217,42.6229477 C135.003882,42.2177721 134.089864,42.4667178 133.683229,43.1777827" id="Fill-31" fill="#FFFFFF"></path>
            </g>
        </g>
    </g>
</svg>