<?xml version="1.0" encoding="UTF-8" standalone="no"?>
<svg width="201px" height="197px" viewBox="0 0 201 197" version="1.1" xmlns="http://www.w3.org/2000/svg" xmlns:xlink="http://www.w3.org/1999/xlink">
    <!-- Generator: Sketch 41.2 (35397) - http://www.bohemiancoding.com/sketch -->
    <title>Group 48</title>
    <desc>Created with Sketch.</desc>
    <defs></defs>
    <g id="Page-1" stroke="none" stroke-width="1" fill="none" fill-rule="evenodd">
        <g id="Group-48">
            <polygon id="Page-1-Copy-10" fill="#ED64C5" points="0.453089869 1.17794323 0.453089869 194.930879 200.45309 196.011599 200.45309 0.130995178"></polygon>
            <path d="M16.1986953,131.625136 L22.2045547,131.625136 L22.2045547,133.736952 L20.349086,133.736952 L20.349086,148.031386 L26.7333633,148.031386 C26.8635723,148.031386 26.9937793,148.000869 27.1239883,147.939833 C27.2541973,147.878798 27.3721974,147.799453 27.4779922,147.701796 C27.583787,147.604139 27.6692354,147.492243 27.7343399,147.366103 C27.7994444,147.239963 27.8319961,147.11179 27.8319961,146.981581 L27.8319961,144.650038 L30.1513321,144.650038 L30.1513321,150.130995 L16.1986953,150.130995 L16.1986953,148.031386 L17.9565078,148.031386 L17.9565078,133.736952 L16.1986953,133.736952 L16.1986953,131.625136 Z M42.9687149,148.031386 L44.5068008,148.031386 L43.0419571,143.832167 L35.9252578,143.832167 L34.4970352,148.031386 L36.4013321,148.031386 L36.4013321,150.130995 L30.3954727,150.130995 L30.3954727,148.031386 L32.0068008,148.031386 L37.7685196,131.625136 L41.3695938,131.625136 L47.1191055,148.031386 L48.9745742,148.031386 L48.9745742,150.130995 L42.9687149,150.130995 L42.9687149,148.031386 Z M36.6210586,141.8058 L42.3339492,141.8058 L39.4530899,133.529433 L36.6210586,141.8058 Z M56.311,131.625136 L63.7939102,131.625136 C64.6239925,131.625136 65.3869243,131.732964 66.0827285,131.948622 C66.7785328,132.164281 67.3807403,132.48166 67.8893692,132.900771 C68.397998,133.319881 68.7926881,133.842743 69.0734512,134.469374 C69.3542143,135.096005 69.4945938,135.816212 69.4945938,136.630019 C69.4945938,137.305478 69.3562488,137.942271 69.0795547,138.540419 C68.8028606,139.138567 68.4122395,139.661429 67.9076797,140.109023 C67.4031199,140.556616 66.7988779,140.910616 66.0949356,141.171034 C65.3909933,141.431452 64.6077166,141.561659 63.7450821,141.561659 L60.4613907,141.561659 L60.4613907,148.031386 L62.3168594,148.031386 L62.3168594,150.130995 L56.311,150.130995 L56.311,148.031386 L58.0688125,148.031386 L58.0688125,133.736952 L56.311,133.736952 L56.311,131.625136 Z M60.4613907,133.736952 L60.4613907,139.559706 L63.7939102,139.559706 C64.2577797,139.559706 64.682987,139.496637 65.0695449,139.370497 C65.4561029,139.244357 65.7897584,139.059219 66.0705215,138.815077 C66.3512846,138.570935 66.571009,138.265763 66.7297012,137.89955 C66.8883934,137.533337 66.9677383,137.110164 66.9677383,136.630019 C66.9677383,135.718556 66.6910484,135.008521 66.1376602,134.499892 C65.584272,133.991263 64.7013056,133.736952 63.4887344,133.736952 L60.4613907,133.736952 Z M71.8383438,131.625136 L77.8442032,131.625136 L77.8442032,133.736952 L75.9887344,133.736952 L75.9887344,148.031386 L82.3730117,148.031386 C82.5032207,148.031386 82.6334278,148.000869 82.7636367,147.939833 C82.8938457,147.878798 83.0118459,147.799453 83.1176407,147.701796 C83.2234355,147.604139 83.3088838,147.492243 83.3739883,147.366103 C83.4390928,147.239963 83.4716446,147.11179 83.4716446,146.981581 L83.4716446,144.650038 L85.7909805,144.650038 L85.7909805,150.130995 L71.8383438,150.130995 L71.8383438,148.031386 L73.5961563,148.031386 L73.5961563,133.736952 L71.8383438,133.736952 L71.8383438,131.625136 Z M98.6083633,148.031386 L100.146449,148.031386 L98.6816055,143.832167 L91.5649063,143.832167 L90.1366836,148.031386 L92.0409805,148.031386 L92.0409805,150.130995 L86.0351211,150.130995 L86.0351211,148.031386 L87.6464492,148.031386 L93.408168,131.625136 L97.0092422,131.625136 L102.758754,148.031386 L104.614223,148.031386 L104.614223,150.130995 L98.6083633,150.130995 L98.6083633,148.031386 Z M92.2607071,141.8058 L97.9735977,141.8058 L95.0927383,133.529433 L92.2607071,141.8058 Z M105.358852,131.625136 L111.364711,131.625136 L111.364711,133.736952 L109.606898,133.736952 L113.085902,139.681776 L116.809047,133.736952 L114.880336,133.736952 L114.880336,131.625136 L120.886195,131.625136 L120.886195,133.736952 L119.311488,133.736952 L114.111293,141.622694 L114.111293,148.031386 L116.01559,148.031386 L116.01559,150.130995 L110.00973,150.130995 L110.00973,148.031386 L111.706508,148.031386 L111.706508,141.561659 L106.799281,133.736952 L105.358852,133.736952 L105.358852,131.625136 Z M123.010219,131.625136 L129.016078,131.625136 L129.016078,133.736952 L127.160609,133.736952 L127.160609,148.031386 L133.544887,148.031386 C133.675096,148.031386 133.805303,148.000869 133.935512,147.939833 C134.065721,147.878798 134.183721,147.799453 134.289516,147.701796 C134.39531,147.604139 134.480759,147.492243 134.545863,147.366103 C134.610968,147.239963 134.64352,147.11179 134.64352,146.981581 L134.64352,144.650038 L136.962855,144.650038 L136.962855,150.130995 L123.010219,150.130995 L123.010219,148.031386 L124.768031,148.031386 L124.768031,133.736952 L123.010219,133.736952 L123.010219,131.625136 Z M138.830531,131.625136 L144.738734,131.625136 L144.738734,133.736952 L142.980922,133.736952 L142.980922,148.031386 L144.738734,148.031386 L144.738734,150.130995 L138.830531,150.130995 L138.830531,148.031386 L140.588344,148.031386 L140.588344,133.736952 L138.830531,133.736952 L138.830531,131.625136 Z M157.324184,135.043105 C157.063766,134.68503 156.776903,134.410374 156.463588,134.21913 C156.150273,134.027885 155.806445,133.881403 155.432094,133.779677 C155.057743,133.677951 154.683398,133.627089 154.309047,133.627089 C153.690554,133.627089 153.149381,133.698296 152.685512,133.840712 C152.221642,133.983128 151.837125,134.176404 151.531947,134.420546 C151.22677,134.664688 150.996873,134.949516 150.84225,135.275038 C150.687627,135.600561 150.610316,135.942354 150.610316,136.300429 C150.610316,136.837541 150.705937,137.270886 150.897182,137.600478 C151.088426,137.930069 151.33053,138.194552 151.6235,138.393935 C151.91647,138.593317 152.239953,138.749972 152.593959,138.863905 C152.947965,138.977838 153.287724,139.091769 153.613246,139.205702 L156.079066,140.011366 C156.81963,140.24737 157.4727,140.515922 158.038295,140.81703 C158.60389,141.118139 159.077925,141.474173 159.460414,141.885146 C159.842903,142.296118 160.133834,142.770153 160.333217,143.307265 C160.532599,143.844377 160.632289,144.466929 160.632289,145.17494 C160.632289,145.939918 160.475634,146.647919 160.162318,147.298964 C159.849003,147.950009 159.411589,148.515596 158.850063,148.995741 C158.288536,149.475887 157.619191,149.852267 156.842006,150.124892 C156.064821,150.397517 155.212372,150.533827 154.284633,150.533827 C153.33248,150.533827 152.518686,150.426 151.843227,150.210341 C151.167767,149.994682 150.600146,149.705785 150.140346,149.343642 C149.680545,148.981498 149.312303,148.568497 149.035609,148.104628 C148.758915,147.640758 148.54326,147.164689 148.388637,146.676405 L147.460902,146.676405 L147.460902,144.576796 L150.537074,144.576796 C150.537074,145.480121 150.632695,146.118949 150.823939,146.4933 C151.015184,146.867651 151.281701,147.178927 151.6235,147.427138 C151.965299,147.675349 152.372196,147.862521 152.844203,147.988661 C153.316211,148.114801 153.837039,148.17787 154.406703,148.17787 C154.960091,148.17787 155.45854,148.112767 155.902064,147.982558 C156.345589,147.852349 156.724003,147.663142 157.037318,147.414931 C157.350634,147.16672 157.590703,146.865616 157.757533,146.51161 C157.924363,146.157605 158.007777,145.756811 158.007777,145.309218 C158.007777,144.812796 157.904019,144.391658 157.696498,144.04579 C157.488978,143.699922 157.22246,143.404922 156.896938,143.16078 C156.571415,142.916638 156.21538,142.717259 155.828822,142.562636 C155.442264,142.408013 155.069954,142.273737 154.711879,142.159804 L152.038539,141.402968 C151.452599,141.22393 150.917529,140.996068 150.433314,140.719374 C149.9491,140.44268 149.534065,140.104956 149.188197,139.70619 C148.84233,139.307425 148.575812,138.841528 148.388637,138.308485 C148.201461,137.775442 148.107875,137.158993 148.107875,136.45912 C148.107875,135.751109 148.24622,135.087867 148.522914,134.469374 C148.799608,133.850881 149.206505,133.309708 149.743617,132.845839 C150.280729,132.381969 150.937868,132.017797 151.715053,131.75331 C152.492238,131.488823 153.381308,131.356581 154.382289,131.356581 C155.041472,131.356581 155.649783,131.433892 156.20724,131.588515 C156.764697,131.743138 157.26925,131.960828 157.720912,132.241591 C158.172575,132.522354 158.571334,132.860078 158.917201,133.254774 C159.263069,133.64947 159.554,134.082816 159.790004,134.554823 L160.705531,134.554823 L160.705531,136.654433 L157.714809,136.654433 C157.714809,135.938283 157.584602,135.401179 157.324184,135.043105 Z M166.784633,148.031386 L168.48141,148.031386 L168.48141,133.627089 L164.257777,133.627089 L164.257777,136.507948 L161.755336,136.507948 L161.755336,131.625136 L178.259242,131.625136 L178.259242,136.507948 L175.756801,136.507948 L175.756801,133.627089 L170.873988,133.627089 L170.873988,148.031386 L172.778285,148.031386 L172.778285,150.130995 L166.784633,150.130995 L166.784633,148.031386 Z M15.8324844,155.625136 L30.5541641,155.625136 L30.5541641,161.936171 L26.5746719,161.936171 L26.5746719,159.311659 L21.8261367,159.311659 L21.8261367,162.961562 L25.5004532,162.961562 L25.5004532,166.501601 L21.8261367,166.501601 L21.8261367,170.786269 L26.5746719,170.786269 L26.5746719,167.502577 L30.5541641,167.502577 L30.5541641,174.130995 L15.8324844,174.130995 L15.8324844,170.786269 L17.7734024,170.786269 L17.7734024,159.311659 L15.8324844,159.311659 L15.8324844,155.625136 Z M32.6781875,155.625136 L40.6005508,155.625136 L40.6005508,158.982069 L38.6474258,158.982069 L38.6474258,170.786269 L42.6757461,170.786269 C42.7815409,170.786269 42.8852996,170.755751 42.9870254,170.694716 C43.0887512,170.63368 43.1782685,170.554336 43.2555801,170.456679 C43.3328917,170.359022 43.3959607,170.253229 43.4447891,170.139296 C43.4936175,170.025363 43.5180313,169.915501 43.5180313,169.809706 L43.5180313,167.331679 L47.4731094,167.331679 L47.4731094,174.130995 L32.6781875,174.130995 L32.6781875,170.786269 L34.5946914,170.786269 L34.5946914,158.982069 L32.6781875,158.982069 L32.6781875,155.625136 Z M49.1088516,155.625136 L63.8305313,155.625136 L63.8305313,161.936171 L59.8510391,161.936171 L59.8510391,159.311659 L55.1025039,159.311659 L55.1025039,162.961562 L58.7768203,162.961562 L58.7768203,166.501601 L55.1025039,166.501601 L55.1025039,170.786269 L59.8510391,170.786269 L59.8510391,167.502577 L63.8305313,167.502577 L63.8305313,174.130995 L49.1088516,174.130995 L49.1088516,170.786269 L51.0497696,170.786269 L51.0497696,159.311659 L49.1088516,159.311659 L49.1088516,155.625136 Z M78.0761367,161.252577 C77.6204053,160.601532 77.2094394,160.139704 76.8432266,159.867079 C76.4770138,159.594454 76.0823238,159.399144 75.6591446,159.281142 C75.2359654,159.16314 74.7924477,159.10414 74.3285782,159.10414 C73.644981,159.10414 73.0102217,159.256726 72.4242813,159.561903 C71.8383408,159.867081 71.3317541,160.282116 70.9045059,160.807021 C70.4772577,161.331926 70.1415677,161.942271 69.8974258,162.638075 C69.653284,163.33388 69.5312149,164.072398 69.5312149,164.853651 C69.5312149,165.643043 69.6512495,166.38563 69.8913223,167.081435 C70.1313951,167.777239 70.4630161,168.38555 70.8861953,168.906386 C71.3093745,169.427222 71.8139268,169.840222 72.3998672,170.145399 C72.9858076,170.450577 73.6287049,170.603163 74.3285782,170.603163 C74.8168618,170.603163 75.2725865,170.523818 75.6957657,170.365126 C76.1189448,170.206434 76.5034625,169.996882 76.8493301,169.736464 C77.1951977,169.476046 77.498336,169.176977 77.7587539,168.839247 C78.0191719,168.501518 78.2226204,168.149552 78.3691055,167.783339 L82.2997696,168.881972 C82.0474896,169.679502 81.6772134,170.41802 81.1889297,171.097548 C80.700646,171.777076 80.1126799,172.365042 79.4250137,172.861464 C78.7373475,173.357886 77.9642433,173.748507 77.1056778,174.033339 C76.2471123,174.318171 75.3214217,174.460585 74.3285782,174.460585 C73.4903578,174.460585 72.6887708,174.346654 71.923793,174.118788 C71.1588152,173.890922 70.444711,173.569474 69.781459,173.154433 C69.118207,172.739392 68.5159995,172.238908 67.9748184,171.652968 C67.4336373,171.067027 66.9718092,170.418027 66.5893203,169.705946 C66.2068314,168.993866 65.9097967,168.2289 65.6982071,167.411024 C65.4866175,166.593149 65.3808242,165.7407 65.3808242,164.853651 C65.3808242,163.527147 65.6127555,162.284077 66.076625,161.124403 C66.5404945,159.96473 67.1752538,158.951556 67.9809219,158.084853 C68.78659,157.218149 69.7326255,156.534562 70.8190567,156.034071 C71.9054879,155.533581 73.0753167,155.283339 74.3285782,155.283339 C75.3295597,155.283339 76.1718365,155.407443 76.8554336,155.655653 C77.5390308,155.903864 78.2917902,156.394175 79.1137344,157.126601 L81.8481094,157.126601 L81.8481094,161.252577 L78.0761367,161.252577 Z M88.0981094,170.786269 L90.0146133,170.786269 L90.0146133,158.859999 L87.7685196,158.859999 L87.7685196,161.252577 L83.7890274,161.252577 L83.7890274,155.625136 L100.622523,155.625136 L100.622523,161.252577 L96.6186172,161.252577 L96.6186172,158.859999 L94.0673477,158.859999 L94.0673477,170.786269 L96.0204727,170.786269 L96.0204727,174.130995 L88.0981094,174.130995 L88.0981094,170.786269 Z M110.754359,174.460585 C109.916139,174.460585 109.114552,174.346654 108.349574,174.118788 C107.584596,173.890922 106.870492,173.569474 106.20724,173.154433 C105.543988,172.739392 104.941781,172.240943 104.4006,171.659071 C103.859419,171.0772 103.39759,170.430234 103.015102,169.718153 C102.632613,169.006073 102.335578,168.243141 102.123988,167.429335 C101.912399,166.615529 101.806605,165.765114 101.806605,164.878065 C101.806605,163.991017 101.912399,163.138568 102.123988,162.320692 C102.335578,161.502817 102.632613,160.737851 103.015102,160.025771 C103.39759,159.31369 103.859419,158.666724 104.4006,158.084853 C104.941781,157.502981 105.543988,157.004532 106.20724,156.589491 C106.870492,156.17445 107.584596,155.853002 108.349574,155.625136 C109.114552,155.39727 109.916139,155.283339 110.754359,155.283339 C111.59258,155.283339 112.396201,155.39727 113.165248,155.625136 C113.934295,155.853002 114.650434,156.17445 115.313686,156.589491 C115.976938,157.004532 116.579145,157.502981 117.120326,158.084853 C117.661507,158.666724 118.12537,159.31369 118.511928,160.025771 C118.898486,160.737851 119.197555,161.502817 119.409145,162.320692 C119.620734,163.138568 119.726527,163.991017 119.726527,164.878065 C119.726527,165.756976 119.620734,166.605356 119.409145,167.423232 C119.197555,168.241107 118.898486,169.006073 118.511928,169.718153 C118.12537,170.430234 117.661507,171.0772 117.120326,171.659071 C116.579145,172.240943 115.976938,172.739392 115.313686,173.154433 C114.650434,173.569474 113.934295,173.890922 113.165248,174.118788 C112.396201,174.346654 111.59258,174.460585 110.754359,174.460585 Z M110.754359,170.627577 C111.462371,170.627577 112.111371,170.474991 112.701381,170.169814 C113.29139,169.864636 113.797977,169.449601 114.221156,168.924696 C114.644335,168.399791 114.971888,167.789446 115.203822,167.093642 C115.435757,166.397837 115.551723,165.659319 115.551723,164.878065 C115.551723,164.088674 115.433723,163.344052 115.197719,162.644179 C114.961715,161.944305 114.630094,161.331926 114.202846,160.807021 C113.775597,160.282116 113.269011,159.867081 112.68307,159.561903 C112.09713,159.256726 111.454233,159.10414 110.754359,159.10414 C110.054486,159.10414 109.411589,159.256726 108.825648,159.561903 C108.239708,159.867081 107.735156,160.282116 107.311977,160.807021 C106.888797,161.331926 106.557176,161.944305 106.317104,162.644179 C106.077031,163.344052 105.956996,164.088674 105.956996,164.878065 C105.956996,165.659319 106.077031,166.397837 106.317104,167.093642 C106.557176,167.789446 106.888797,168.399791 107.311977,168.924696 C107.735156,169.449601 108.239708,169.864636 108.825648,170.169814 C109.411589,170.474991 110.054486,170.627577 110.754359,170.627577 Z M122.155727,155.625136 L131.945766,155.625136 C132.897919,155.625136 133.748334,155.76755 134.497035,156.052382 C135.245737,156.337214 135.876427,156.717663 136.389125,157.193739 C136.901823,157.669816 137.294478,158.223196 137.567104,158.853896 C137.839729,159.484595 137.976039,160.141734 137.976039,160.825331 C137.976039,161.451962 137.908901,162.001273 137.774623,162.47328 C137.640345,162.945288 137.445035,163.364392 137.188686,163.730605 C136.932337,164.096817 136.616991,164.4203 136.242641,164.701064 C135.86829,164.981827 135.441048,165.236137 134.960902,165.464003 C135.375944,165.675593 135.742151,165.999076 136.059535,166.434462 C136.37692,166.869848 136.616989,167.433401 136.77975,168.125136 L137.402309,170.529921 L138.928188,170.529921 L138.952602,174.130995 L133.581508,174.130995 L132.849086,169.736464 C132.775843,169.215628 132.663947,168.766007 132.513393,168.387587 C132.362838,168.009167 132.161424,167.699925 131.909145,167.459853 C131.656865,167.21978 131.349657,167.04278 130.987514,166.928847 C130.62537,166.814914 130.196094,166.757948 129.699672,166.757948 L128.124965,166.757948 L128.124965,170.786269 L129.821742,170.786269 L129.821742,174.130995 L122.155727,174.130995 L122.155727,170.786269 L124.07223,170.786269 L124.07223,158.982069 L122.155727,158.982069 L122.155727,155.625136 Z M128.124965,158.982069 L128.124965,163.46205 L130.554164,163.46205 C131.018034,163.46205 131.435103,163.419326 131.805385,163.333876 C132.175667,163.248426 132.493046,163.11415 132.757533,162.931044 C133.02202,162.747938 133.225469,162.518041 133.367885,162.241347 C133.510301,161.964653 133.581508,161.635066 133.581508,161.252577 C133.581508,160.536428 133.325163,159.978979 132.812465,159.580214 C132.299767,159.181449 131.547008,158.982069 130.554164,158.982069 L128.124965,158.982069 Z M150.353969,170.786269 L152.19723,170.786269 L151.367152,168.125136 L145.678676,168.125136 L144.848598,170.786269 L146.801723,170.786269 L146.801723,174.130995 L139.78268,174.130995 L139.78268,170.786269 L141.162074,170.786269 L146.203578,155.625136 L151.098598,155.625136 L156.030238,170.786269 L157.373012,170.786269 L157.373012,174.130995 L150.353969,174.130995 L150.353969,170.786269 Z M146.643031,165.000136 L150.378383,165.000136 L148.4985,158.982069 L146.643031,165.000136 Z M159.033168,155.625136 L166.955531,155.625136 L166.955531,158.982069 L165.002406,158.982069 L165.002406,170.786269 L169.030727,170.786269 C169.136521,170.786269 169.24028,170.755751 169.342006,170.694716 C169.443732,170.63368 169.533249,170.554336 169.610561,170.456679 C169.687872,170.359022 169.750941,170.253229 169.79977,170.139296 C169.848598,170.025363 169.873012,169.915501 169.873012,169.809706 L169.873012,167.331679 L173.82809,167.331679 L173.82809,174.130995 L159.033168,174.130995 L159.033168,170.786269 L160.949672,170.786269 L160.949672,158.982069 L159.033168,158.982069 L159.033168,155.625136 Z" id="LA-PLAYLIST-ELECTORA-Copy" fill="#FFFFFF"></path>
            <polygon id="Fill-1" fill="#ED64C5" style="mix-blend-mode: multiply;" points="54.3825883 47.1741596 110.392437 46.6065339 110.392437 36.7347827 54.3825883 36.7347827"></polygon>
            <polygon id="Fill-2" fill="#ED64C5" style="mix-blend-mode: multiply;" points="54.3825883 53.5694679 110.392437 53.5694679 110.392437 64.2626898 54.3825883 65.2851212"></polygon>
            <polygon id="Fill-3" fill="#ED64C5" style="mix-blend-mode: multiply;" points="54.3817069 81.6946331 110.391555 81.6946331 110.391555 71.6289725 54.3817069 71.6289725"></polygon>
            <path d="M118.427337,43.0976552 L118.427337,92.0104198 C118.427337,92.0104198 101.0936,93.6709894 103.231892,103.644984 C103.231892,103.644984 105.842617,112.42908 114.864693,112.905039 C114.864693,112.905039 127.925372,113.853432 129.111745,98.6579865 L129.111745,59.3525513 L140.272113,62.0919623 L152.380873,66.3667831 L154.041443,52.5956901 L140.508329,48.3226321 L119.137751,40.0109701 L118.427337,43.0976552 Z" id="Fill-4" fill="#ED64C5" style="mix-blend-mode: multiply;"></path>
            <polygon id="Fill-7" fill="#FFBCEC" points="52.0325827 44.1615127 108.042431 43.5956498 108.042431 33.7221357 52.0325827 33.7221357"></polygon>
            <polygon id="Fill-7-Copy-2" fill="#FFBCEC" points="52.0325827 61.7583131 108.042431 61.1924502 108.042431 51.3189362 52.0325827 51.3189362"></polygon>
            <polygon id="Fill-12" fill="#FFBCEC" points="52.0318775 79.8593517 108.041726 79.8593517 108.041726 69.793691 52.0318775 69.793691"></polygon>
            <path d="M116.075745,40.0865948 L116.075745,88.9975965 C116.075745,88.9975965 98.7437704,90.6581661 100.880299,100.632161 C100.880299,100.632161 103.491025,109.416256 112.513101,109.892216 C112.513101,109.892216 125.57378,110.842372 126.761916,95.6469261 L126.761916,56.3414909 L137.92052,59.0809019 L150.029281,63.3539599 L151.691613,49.5846297 L138.156737,45.3098089 L116.787921,36.9999097 L116.075745,40.0865948 Z" id="Fill-14" fill="#FFFFFF"></path>
        </g>
    </g>
</svg>