<?xml version="1.0" encoding="UTF-8" standalone="no"?>
<svg width="201px" height="197px" viewBox="0 0 201 197" version="1.1" xmlns="http://www.w3.org/2000/svg" xmlns:xlink="http://www.w3.org/1999/xlink">
    <!-- Generator: Sketch 41.2 (35397) - http://www.bohemiancoding.com/sketch -->
    <title>Group 41</title>
    <desc>Created with Sketch.</desc>
    <defs>
        <polygon id="path-1" points="88.0441254 0.147718383 0.0719387761 0.147718383 0.0719387761 91.4256551 88.0441254 91.4256551 88.0441254 0.147718383"></polygon>
        <polygon id="path-3" points="3.42902088e-20 0.642113763 3.42902088e-20 35.7270741 42.9128539 35.7270741 42.9128539 0.642113763 0 0.642113763"></polygon>
    </defs>
    <g id="Page-1" stroke="none" stroke-width="1" fill="none" fill-rule="evenodd">
        <g id="Group-41">
            <polygon id="Page-1-Copy-12" fill="#CB78D3" points="0.400865347 1.17794323 0.400865347 194.930879 200.400865 196.011599 200.400865 0.130995178"></polygon>
            <path d="M8.93699816,133.845839 L15.5219591,133.845839 C16.2524315,133.845839 16.9238115,133.940727 17.5361193,134.130507 C18.148427,134.320286 18.6783696,134.599581 19.125963,134.968398 C19.5735564,135.337214 19.9208836,135.797334 20.1679552,136.348769 C20.4150267,136.900204 20.5385607,137.533986 20.5385607,138.250136 C20.5385607,138.84454 20.4168171,139.404918 20.1733263,139.931288 C19.9298355,140.457658 19.5860889,140.917777 19.1420763,141.311659 C18.6980636,141.705541 18.1663307,142.017062 17.5468614,142.24623 C16.9273922,142.475397 16.2381087,142.58998 15.4789903,142.58998 L12.5893419,142.58998 L12.5893419,148.283339 L14.2221544,148.283339 L14.2221544,150.130995 L8.93699816,150.130995 L8.93699816,148.283339 L10.4838732,148.283339 L10.4838732,135.704237 L8.93699816,135.704237 L8.93699816,133.845839 Z M12.5893419,135.704237 L12.5893419,140.828261 L15.5219591,140.828261 C15.9301643,140.828261 16.3043467,140.77276 16.6445177,140.661757 C16.9846887,140.550754 17.2783055,140.387832 17.5253771,140.172987 C17.7724486,139.958143 17.9658061,139.689591 18.1054552,139.367323 C18.2451043,139.045056 18.3149278,138.672664 18.3149278,138.250136 C18.3149278,137.448048 18.0714407,136.823217 17.5844591,136.375624 C17.0974775,135.928031 16.320467,135.704237 15.2534044,135.704237 L12.5893419,135.704237 Z M22.6010607,133.845839 L29.379381,133.845839 C30.1026919,133.845839 30.7704912,133.940727 31.3827989,134.130507 C31.9951067,134.320286 32.5250493,134.599581 32.9726427,134.968398 C33.4202361,135.337214 33.7693537,135.797334 34.020006,136.348769 C34.2706583,136.900204 34.3959825,137.533986 34.3959825,138.250136 C34.3959825,138.658341 34.3225783,139.061169 34.1757677,139.458632 C34.0289571,139.856095 33.8248575,140.224906 33.563463,140.565077 C33.3020685,140.905248 32.9923385,141.207817 32.6342638,141.472792 C32.2761891,141.737767 31.8858935,141.941867 31.4633653,142.085097 C31.6424027,142.163873 31.8232277,142.276665 32.0058458,142.423476 C32.1884639,142.570286 32.3603372,142.749321 32.5214708,142.960585 C32.6826044,143.171849 32.8294129,143.411756 32.9619005,143.680312 C33.0943881,143.948868 33.2000186,144.237113 33.278795,144.545058 L34.1811388,148.08998 L35.5883653,148.08998 L35.6098497,150.130995 L32.4409044,150.130995 L31.2270372,145.178847 C31.0050309,144.290821 30.6666554,143.637345 30.2119005,143.218398 C29.7571456,142.79945 29.1358953,142.58998 28.348131,142.58998 L26.2534044,142.58998 L26.2534044,148.283339 L27.8862169,148.283339 L27.8862169,150.130995 L22.6010607,150.130995 L22.6010607,148.283339 L24.1479357,148.283339 L24.1479357,135.704237 L22.6010607,135.704237 L22.6010607,133.845839 Z M26.2534044,135.704237 L26.2534044,140.828261 L29.379381,140.828261 C29.7875861,140.828261 30.1617686,140.77455 30.5019396,140.667128 C30.8421105,140.559706 31.1357274,140.398574 31.3827989,140.18373 C31.6298705,139.968885 31.8232279,139.702123 31.9628771,139.383437 C32.1025262,139.06475 32.1723497,138.694148 32.1723497,138.27162 C32.1723497,137.462371 31.9288626,136.832169 31.441881,136.380995 C30.9548994,135.929821 30.1814696,135.704237 29.1215685,135.704237 L26.2534044,135.704237 Z M45.310045,150.453261 C44.1856905,150.453261 43.1580315,150.24379 42.2270372,149.824843 C41.296043,149.405895 40.4653221,148.80971 39.7348497,148.036269 C39.0043773,147.262827 38.4493698,146.34617 38.0698107,145.286269 C37.6902515,144.226367 37.5004747,143.127095 37.5004747,141.988417 C37.5004747,140.813932 37.6920418,139.711078 38.0751818,138.679823 C38.4583217,137.648568 38.9954257,136.751604 39.6865099,135.988905 C40.3775941,135.226206 41.2011535,134.62465 42.157213,134.184218 C43.1132725,133.743786 44.164206,133.523573 45.310045,133.523573 C46.4630456,133.523573 47.5193501,133.743786 48.4789903,134.184218 C49.4386306,134.62465 50.26219,135.226206 50.9496935,135.988905 C51.6371969,136.751604 52.1707202,137.648568 52.5502794,138.679823 C52.9298386,139.711078 53.1196153,140.813932 53.1196153,141.988417 C53.1196153,143.162902 52.9280483,144.263965 52.5449083,145.29164 C52.1617684,146.319314 51.6246644,147.216278 50.9335802,147.982558 C50.242496,148.748838 49.4189365,149.352184 48.4628771,149.792616 C47.5068176,150.233048 46.4558841,150.453261 45.310045,150.453261 Z M45.310045,148.455214 C46.1622628,148.455214 46.9339023,148.27976 47.6249864,147.928847 C48.3160706,147.577934 48.9050947,147.107072 49.3920763,146.516249 C49.8790579,145.925426 50.2550307,145.239723 50.520006,144.45912 C50.7849813,143.678517 50.9174669,142.854958 50.9174669,141.988417 C50.9174669,141.100392 50.7724488,140.242816 50.4824083,139.415663 C50.1923678,138.588511 49.7877495,137.888485 49.2685411,137.315565 C48.7493328,136.742646 48.145986,136.30043 47.4584825,135.988905 C46.7709791,135.67738 46.0548404,135.52162 45.310045,135.52162 C44.4578272,135.52162 43.6843975,135.697074 42.9897325,136.047987 C42.2950676,136.398901 41.7042532,136.869762 41.2172716,137.460585 C40.73029,138.051408 40.3543172,138.738901 40.0893419,139.523085 C39.8243666,140.307269 39.691881,141.129038 39.691881,141.988417 C39.691881,142.991026 39.8386894,143.884409 40.1323107,144.668593 C40.4259319,145.452776 40.8144371,146.104463 41.297838,146.623671 C41.7812389,147.142879 42.3577305,147.577934 43.0273302,147.928847 C43.6969299,148.27976 44.4578272,148.455214 45.310045,148.455214 Z M55.4184435,133.845839 L62.0034044,133.845839 C62.7338768,133.845839 63.4052568,133.940727 64.0175646,134.130507 C64.6298723,134.320286 65.1598149,134.599581 65.6074083,134.968398 C66.0550017,135.337214 66.402329,135.797334 66.6494005,136.348769 C66.8964721,136.900204 67.020006,137.533986 67.020006,138.250136 C67.020006,138.84454 66.8982624,139.404918 66.6547716,139.931288 C66.4112808,140.457658 66.0675342,140.917777 65.6235216,141.311659 C65.179509,141.705541 64.647776,142.017062 64.0283068,142.24623 C63.4088375,142.475397 62.719554,142.58998 61.9604357,142.58998 L59.0707872,142.58998 L59.0707872,148.283339 L60.7035997,148.283339 L60.7035997,150.130995 L55.4184435,150.130995 L55.4184435,148.283339 L56.9653185,148.283339 L56.9653185,135.704237 L55.4184435,135.704237 L55.4184435,133.845839 Z M59.0707872,135.704237 L59.0707872,140.828261 L62.0034044,140.828261 C62.4116096,140.828261 62.785792,140.77276 63.125963,140.661757 C63.466134,140.550754 63.7597508,140.387832 64.0068224,140.172987 C64.2538939,139.958143 64.4472514,139.689591 64.5869005,139.367323 C64.7265496,139.045056 64.7963732,138.672664 64.7963732,138.250136 C64.7963732,137.448048 64.552886,136.823217 64.0659044,136.375624 C63.5789228,135.928031 62.8019123,135.704237 61.7348497,135.704237 L59.0707872,135.704237 Z M68.7602403,133.845839 L74.0346544,133.845839 L74.0346544,135.704237 L72.3696153,135.704237 L72.3696153,143.288222 C72.3696153,144.197731 72.4716651,144.972952 72.6757677,145.613905 C72.8798703,146.254859 73.162745,146.77764 73.5244005,147.182265 C73.886056,147.586889 74.3157392,147.882296 74.813463,148.068495 C75.3111868,148.254694 75.8572426,148.347792 76.4516466,148.347792 C77.0675351,148.347792 77.6332846,148.265436 78.1489122,148.100722 C78.6645398,147.936007 79.1067554,147.658504 79.4755724,147.268202 C79.8443893,146.877901 80.1308448,146.3587 80.3349474,145.710585 C80.53905,145.06247 80.6410997,144.255023 80.6410997,143.288222 L80.6410997,135.704237 L78.879381,135.704237 L78.879381,133.845839 L84.153795,133.845839 L84.153795,135.704237 L82.7035997,135.704237 L82.7035997,143.051894 C82.7035997,144.226379 82.5406782,145.26836 82.2148302,146.17787 C81.8889822,147.08738 81.4431859,147.850068 80.8774278,148.465956 C80.3116698,149.081845 79.6456608,149.549125 78.879381,149.867812 C78.1131011,150.186498 77.2895416,150.345839 76.4086778,150.345839 C75.5492986,150.345839 74.7454329,150.188288 73.9970568,149.873183 C73.2486806,149.558077 72.5969944,149.096167 72.0419786,148.48744 C71.4869628,147.878713 71.0501182,147.13572 70.7314318,146.258437 C70.4127453,145.381154 70.2534044,144.376769 70.2534044,143.245253 L70.2534044,135.704237 L68.7602403,135.704237 L68.7602403,133.845839 Z M85.7328966,133.845839 L97.3989122,133.845839 L97.3989122,138.454237 L95.1967638,138.454237 L95.1967638,135.704237 L89.3852403,135.704237 L89.3852403,140.914198 L94.2729357,140.914198 L94.2729357,142.761855 L89.3852403,142.761855 L89.3852403,148.283339 L95.1967638,148.283339 L95.1967638,145.533339 L97.3989122,145.533339 L97.3989122,150.130995 L85.7328966,150.130995 L85.7328966,148.283339 L87.2797716,148.283339 L87.2797716,135.704237 L85.7328966,135.704237 L85.7328966,133.845839 Z M107.550279,136.853651 C107.321112,136.538546 107.068673,136.296849 106.792955,136.128554 C106.517238,135.960259 106.214669,135.831354 105.88524,135.741835 C105.555812,135.652316 105.226388,135.607558 104.896959,135.607558 C104.352686,135.607558 103.876453,135.67022 103.468248,135.795546 C103.060043,135.920872 102.721667,136.090955 102.453111,136.3058 C102.184555,136.520645 101.982246,136.771293 101.846178,137.057753 C101.710109,137.344213 101.642076,137.644991 101.642076,137.960097 C101.642076,138.432755 101.726223,138.814099 101.894518,139.10414 C102.062813,139.39418 102.275864,139.626925 102.533678,139.802382 C102.791492,139.977839 103.076157,140.115695 103.387682,140.215956 C103.699207,140.316217 103.998195,140.416476 104.284654,140.516737 L106.454576,141.225722 C107.106272,141.433405 107.680974,141.669731 108.178697,141.934706 C108.676421,142.199681 109.093572,142.512992 109.430162,142.874648 C109.766752,143.236303 110.022772,143.653454 110.198229,144.126112 C110.373685,144.598771 110.461412,145.146617 110.461412,145.769667 C110.461412,146.442848 110.323556,147.065888 110.047838,147.638808 C109.77212,148.211727 109.387196,148.709444 108.893053,149.131972 C108.39891,149.5545 107.809886,149.885714 107.125963,150.125624 C106.44204,150.365534 105.691885,150.485487 104.875475,150.485487 C104.03758,150.485487 103.321441,150.390599 102.727037,150.200819 C102.132633,150.01104 101.633126,149.756811 101.228502,149.438124 C100.823878,149.119438 100.499825,148.755997 100.256334,148.347792 C100.012843,147.939587 99.8230665,147.520646 99.6869982,147.090956 L98.8705919,147.090956 L98.8705919,145.2433 L101.577623,145.2433 C101.577623,146.038226 101.661769,146.600395 101.830065,146.929823 C101.99836,147.259252 102.232895,147.533175 102.533678,147.751601 C102.834461,147.970026 103.19253,148.134738 103.607897,148.245741 C104.023263,148.356744 104.481592,148.412245 104.982897,148.412245 C105.469878,148.412245 105.908513,148.354954 106.298815,148.24037 C106.689116,148.125786 107.02212,147.959284 107.297838,147.740858 C107.573556,147.522433 107.784816,147.257462 107.931627,146.945937 C108.078438,146.634412 108.151842,146.281713 108.151842,145.887831 C108.151842,145.45098 108.060534,145.080378 107.877916,144.776015 C107.695298,144.471651 107.460763,144.212051 107.174303,143.997206 C106.887843,143.782361 106.574532,143.606907 106.234361,143.470839 C105.89419,143.334771 105.566557,143.216608 105.251451,143.116347 L102.898912,142.450331 C102.383285,142.292778 101.912423,142.092259 101.486315,141.848769 C101.060206,141.605278 100.694975,141.30808 100.390611,140.957167 C100.086248,140.606254 99.8517125,140.196264 99.6869982,139.727187 C99.5222838,139.258109 99.4399278,138.715634 99.4399278,138.099745 C99.4399278,137.476695 99.5616714,136.893042 99.8051622,136.348769 C100.048653,135.804495 100.406722,135.328263 100.879381,134.920058 C101.35204,134.511853 101.930322,134.19138 102.614244,133.958632 C103.298167,133.725883 104.080548,133.609511 104.961412,133.609511 C105.541493,133.609511 106.076807,133.677544 106.567369,133.813612 C107.057932,133.949681 107.501938,134.141248 107.899401,134.388319 C108.296863,134.635391 108.647771,134.932588 108.952135,135.279921 C109.256498,135.627253 109.512518,136.008597 109.720201,136.423964 L110.525865,136.423964 L110.525865,138.27162 L107.894029,138.27162 C107.894029,137.641409 107.779447,137.168757 107.550279,136.853651 Z M115.875475,148.283339 L117.368639,148.283339 L117.368639,135.607558 L113.651842,135.607558 L113.651842,138.142714 L111.449693,138.142714 L111.449693,133.845839 L125.973131,133.845839 L125.973131,138.142714 L123.770983,138.142714 L123.770983,135.607558 L119.474108,135.607558 L119.474108,148.283339 L121.149889,148.283339 L121.149889,150.130995 L115.875475,150.130995 L115.875475,148.283339 Z M137.585436,148.283339 L138.938951,148.283339 L137.649889,144.588026 L131.387193,144.588026 L130.130358,148.283339 L131.806139,148.283339 L131.806139,150.130995 L126.520983,150.130995 L126.520983,148.283339 L127.938951,148.283339 L133.009264,133.845839 L136.178209,133.845839 L141.237779,148.283339 L142.870592,148.283339 L142.870592,150.130995 L137.585436,150.130995 L137.585436,148.283339 Z M131.999498,142.804823 L137.026842,142.804823 L134.491686,135.52162 L131.999498,142.804823 Z M152.517076,136.853651 C152.287908,136.538546 152.03547,136.296849 151.759752,136.128554 C151.484035,135.960259 151.181466,135.831354 150.852037,135.741835 C150.522608,135.652316 150.193185,135.607558 149.863756,135.607558 C149.319482,135.607558 148.84325,135.67022 148.435045,135.795546 C148.02684,135.920872 147.688464,136.090955 147.419908,136.3058 C147.151352,136.520645 146.949043,136.771293 146.812975,137.057753 C146.676906,137.344213 146.608873,137.644991 146.608873,137.960097 C146.608873,138.432755 146.693019,138.814099 146.861315,139.10414 C147.02961,139.39418 147.242661,139.626925 147.500475,139.802382 C147.758289,139.977839 148.042954,140.115695 148.354479,140.215956 C148.666004,140.316217 148.964992,140.416476 149.251451,140.516737 L151.421373,141.225722 C152.073069,141.433405 152.64777,141.669731 153.145494,141.934706 C153.643218,142.199681 154.060369,142.512992 154.396959,142.874648 C154.733549,143.236303 154.989569,143.653454 155.165026,144.126112 C155.340482,144.598771 155.428209,145.146617 155.428209,145.769667 C155.428209,146.442848 155.290352,147.065888 155.014635,147.638808 C154.738917,148.211727 154.353993,148.709444 153.85985,149.131972 C153.365707,149.5545 152.776683,149.885714 152.09276,150.125624 C151.408837,150.365534 150.658682,150.485487 149.842272,150.485487 C149.004377,150.485487 148.288238,150.390599 147.693834,150.200819 C147.09943,150.01104 146.599923,149.756811 146.195299,149.438124 C145.790675,149.119438 145.466622,148.755997 145.223131,148.347792 C144.97964,147.939587 144.789863,147.520646 144.653795,147.090956 L143.837389,147.090956 L143.837389,145.2433 L146.54442,145.2433 C146.54442,146.038226 146.628566,146.600395 146.796861,146.929823 C146.965157,147.259252 147.199692,147.533175 147.500475,147.751601 C147.801257,147.970026 148.159327,148.134738 148.574693,148.245741 C148.99006,148.356744 149.448389,148.412245 149.949693,148.412245 C150.436675,148.412245 150.87531,148.354954 151.265611,148.24037 C151.655913,148.125786 151.988917,147.959284 152.264635,147.740858 C152.540352,147.522433 152.751613,147.257462 152.898424,146.945937 C153.045235,146.634412 153.118639,146.281713 153.118639,145.887831 C153.118639,145.45098 153.027331,145.080378 152.844713,144.776015 C152.662095,144.471651 152.427559,144.212051 152.1411,143.997206 C151.85464,143.782361 151.541329,143.606907 151.201158,143.470839 C150.860987,143.334771 150.533354,143.216608 150.218248,143.116347 L147.865709,142.450331 C147.350082,142.292778 146.87922,142.092259 146.453111,141.848769 C146.027003,141.605278 145.661772,141.30808 145.357408,140.957167 C145.053045,140.606254 144.818509,140.196264 144.653795,139.727187 C144.489081,139.258109 144.406725,138.715634 144.406725,138.099745 C144.406725,137.476695 144.528468,136.893042 144.771959,136.348769 C145.01545,135.804495 145.373519,135.328263 145.846178,134.920058 C146.318836,134.511853 146.897118,134.19138 147.581041,133.958632 C148.264964,133.725883 149.047345,133.609511 149.928209,133.609511 C150.50829,133.609511 151.043604,133.677544 151.534166,133.813612 C152.024728,133.949681 152.468734,134.141248 152.866197,134.388319 C153.26366,134.635391 153.614568,134.932588 153.918932,135.279921 C154.223295,135.627253 154.479315,136.008597 154.686998,136.423964 L155.492662,136.423964 L155.492662,138.27162 L152.860826,138.27162 C152.860826,137.641409 152.746244,137.168757 152.517076,136.853651 Z M161.336412,133.845839 L166.621568,133.845839 L166.621568,135.704237 L165.074693,135.704237 L168.136217,140.935683 L171.412584,135.704237 L169.715318,135.704237 L169.715318,133.845839 L175.000475,133.845839 L175.000475,135.704237 L173.614733,135.704237 L169.038561,142.64369 L169.038561,148.283339 L170.714342,148.283339 L170.714342,150.130995 L165.429186,150.130995 L165.429186,148.283339 L166.92235,148.283339 L166.92235,142.58998 L162.60399,135.704237 L161.336412,135.704237 L161.336412,133.845839 Z M19.2817247,162.797987 C18.8806811,162.225068 18.519031,161.818659 18.1967638,161.578749 C17.8744965,161.338839 17.5271693,161.166966 17.1547716,161.063124 C16.7823739,160.959282 16.3920783,160.907362 15.9838732,160.907362 C15.3823077,160.907362 14.8237195,161.041638 14.3080919,161.310194 C13.7924643,161.57875 13.346668,161.943981 12.9706896,162.405898 C12.5947111,162.867814 12.2993039,163.404918 12.0844591,164.017226 C11.8696143,164.629533 11.7621935,165.279429 11.7621935,165.966933 C11.7621935,166.661598 11.8678239,167.315074 12.079088,167.927382 C12.2903521,168.53969 12.5821786,169.075003 12.9545763,169.533339 C13.326974,169.991675 13.77098,170.355115 14.2866075,170.623671 C14.8022351,170.892227 15.3679847,171.026503 15.9838732,171.026503 C16.4135628,171.026503 16.8146005,170.956679 17.1869982,170.81703 C17.5593959,170.677381 17.8977714,170.492975 18.2021349,170.263808 C18.5064984,170.03464 18.77326,169.771459 19.0024278,169.474257 C19.2315957,169.177055 19.4106303,168.867325 19.5395372,168.545058 L22.9985216,169.511855 C22.7765153,170.213681 22.4506722,170.863577 22.0209825,171.461562 C21.5912929,172.059546 21.0738827,172.576957 20.4687364,173.013808 C19.8635902,173.450659 19.1832584,173.794405 18.4277208,174.045058 C17.6721832,174.29571 16.8575754,174.421034 15.9838732,174.421034 C15.2462393,174.421034 14.5408427,174.320775 13.8676622,174.120253 C13.1944818,173.919731 12.5660701,173.636856 11.9824083,173.27162 C11.3987465,172.906384 10.8688039,172.465959 10.3925646,171.950331 C9.91632521,171.434704 9.50991651,170.863583 9.17332628,170.236952 C8.83673606,169.610321 8.57534544,168.937151 8.3891466,168.217421 C8.20294775,167.497691 8.10984972,166.747536 8.10984972,165.966933 C8.10984972,164.799609 8.31394924,163.705707 8.72215441,162.685194 C9.13035958,161.664681 9.68894774,160.773089 10.3979357,160.01039 C11.1069236,159.247691 11.9394348,158.646134 12.8954943,158.205702 C13.8515537,157.76527 14.8810031,157.545058 15.9838732,157.545058 C16.8647369,157.545058 17.6059405,157.654269 18.207506,157.872694 C18.8090715,158.09112 19.4714998,158.522594 20.1948107,159.167128 L22.6010607,159.167128 L22.6010607,162.797987 L19.2817247,162.797987 Z M32.6772325,174.421034 C31.9395986,174.421034 31.234202,174.320775 30.5610216,174.120253 C29.8878411,173.919731 29.2594295,173.636856 28.6757677,173.27162 C28.0921059,172.906384 27.5621633,172.467749 27.0859239,171.955702 C26.6096846,171.443655 26.2032759,170.874325 25.8666857,170.247694 C25.5300954,169.621064 25.2687048,168.949684 25.082506,168.233534 C24.8963071,167.517385 24.8032091,166.76902 24.8032091,165.988417 C24.8032091,165.207814 24.8963071,164.457659 25.082506,163.737929 C25.2687048,163.018199 25.5300954,162.345028 25.8666857,161.718398 C26.2032759,161.091767 26.6096846,160.522437 27.0859239,160.01039 C27.5621633,159.498343 28.0921059,159.059708 28.6757677,158.694472 C29.2594295,158.329236 29.8878411,158.046361 30.5610216,157.845839 C31.234202,157.645317 31.9395986,157.545058 32.6772325,157.545058 C33.4148664,157.545058 34.1220534,157.645317 34.7988146,157.845839 C35.4755758,158.046361 36.1057778,158.329236 36.6894396,158.694472 C37.2731013,159.059708 37.803044,159.498343 38.2792833,160.01039 C38.7555227,160.522437 39.1637217,161.091767 39.5038927,161.718398 C39.8440637,162.345028 40.1072446,163.018199 40.2934435,163.737929 C40.4796423,164.457659 40.5727403,165.207814 40.5727403,165.988417 C40.5727403,166.761858 40.4796423,167.508433 40.2934435,168.228163 C40.1072446,168.947893 39.8440637,169.621064 39.5038927,170.247694 C39.1637217,170.874325 38.7555227,171.443655 38.2792833,171.955702 C37.803044,172.467749 37.2731013,172.906384 36.6894396,173.27162 C36.1057778,173.636856 35.4755758,173.919731 34.7988146,174.120253 C34.1220534,174.320775 33.4148664,174.421034 32.6772325,174.421034 Z M32.6772325,171.047987 C33.3002825,171.047987 33.8714031,170.913711 34.3906114,170.645155 C34.9098198,170.376599 35.3556161,170.011369 35.7280138,169.549452 C36.1004115,169.087536 36.3886573,168.550432 36.5927599,167.938124 C36.7968625,167.325816 36.8989122,166.67592 36.8989122,165.988417 C36.8989122,165.293752 36.7950721,164.638485 36.5873888,164.022597 C36.3797055,163.406708 36.0878789,162.867814 35.7119005,162.405898 C35.3359221,161.943981 34.8901257,161.57875 34.3744982,161.310194 C33.8588706,161.041638 33.293121,160.907362 32.6772325,160.907362 C32.061344,160.907362 31.4955945,161.041638 30.9799669,161.310194 C30.4643393,161.57875 30.0203334,161.943981 29.6479357,162.405898 C29.275538,162.867814 28.9837115,163.406708 28.7724474,164.022597 C28.5611833,164.638485 28.4555528,165.293752 28.4555528,165.988417 C28.4555528,166.67592 28.5611833,167.325816 28.7724474,167.938124 C28.9837115,168.550432 29.275538,169.087536 29.6479357,169.549452 C30.0203334,170.011369 30.4643393,170.376599 30.9799669,170.645155 C31.4955945,170.913711 32.061344,171.047987 32.6772325,171.047987 Z M42.7104357,171.187636 L44.2250841,171.187636 L44.2250841,160.79994 L42.7104357,160.79994 L42.7104357,157.845839 L49.4135607,157.845839 L54.2153185,169.597792 L58.6733263,157.845839 L65.473131,157.845839 L65.473131,160.79994 L63.9584825,160.79994 L63.9584825,171.187636 L65.4516466,171.187636 L65.4516466,174.130995 L59.3608263,174.130995 L59.3608263,171.187636 L60.4780138,171.187636 L60.4780138,161.820448 L55.6010607,173.937636 L52.582506,173.937636 L47.6196153,162.142714 L47.6196153,171.187636 L48.8334825,171.187636 L48.8334825,174.130995 L42.7104357,174.130995 L42.7104357,171.187636 Z M67.9008653,157.845839 L75.4203966,157.845839 C76.2582914,157.845839 77.0281405,157.976534 77.7299669,158.237929 C78.4317933,158.499323 79.0369305,158.852022 79.5453966,159.296034 C80.0538627,159.740047 80.4513196,160.252086 80.7377794,160.832167 C81.0242392,161.412248 81.1674669,162.017385 81.1674669,162.647597 C81.1674669,163.406715 81.0546751,164.117483 80.829088,164.779921 C80.6035009,165.442359 80.2543833,166.01706 79.7817247,166.504042 C79.3090661,166.991024 78.7110903,167.375948 77.9877794,167.658827 C77.2644685,167.941706 76.4086828,168.083144 75.4203966,168.083144 L73.153795,168.083144 L73.153795,171.187636 L74.6469591,171.187636 L74.6469591,174.130995 L67.9008653,174.130995 L67.9008653,171.187636 L69.5873888,171.187636 L69.5873888,160.79994 L67.9008653,160.79994 L67.9008653,157.845839 Z M73.153795,160.79994 L73.153795,165.172011 L74.6254747,165.172011 C75.4418851,165.172011 76.0899906,165.000138 76.5698107,164.656386 C77.0496308,164.312634 77.2895372,163.768369 77.2895372,163.023573 C77.2895372,162.328908 77.0639535,161.784643 76.6127794,161.390761 C76.1616053,160.996879 75.499177,160.79994 74.6254747,160.79994 L73.153795,160.79994 Z M82.9399278,157.845839 L91.5551622,157.845839 C92.393057,157.845839 93.1414219,157.971163 93.8002794,158.221815 C94.4591369,158.472468 95.0141443,158.807263 95.4653185,159.22621 C95.9164926,159.645157 96.2620295,160.132132 96.5019396,160.687148 C96.7418496,161.242163 96.8618028,161.820445 96.8618028,162.422011 C96.8618028,162.973446 96.8027214,163.456839 96.6845568,163.872206 C96.5663921,164.287573 96.3945188,164.656384 96.1689318,164.978651 C95.9433447,165.300919 95.665841,165.585584 95.3364122,165.832655 C95.0069835,166.079727 94.6310107,166.30352 94.2084825,166.504042 C94.5737187,166.690241 94.8959811,166.974906 95.1752794,167.358046 C95.4545777,167.741186 95.6658386,168.237112 95.8090685,168.845839 L96.35692,170.96205 L97.6996935,170.96205 L97.7211778,174.130995 L92.9946153,174.130995 L92.3500841,170.263808 C92.2856306,169.805472 92.1871616,169.409805 92.0546739,169.076796 C91.9221863,168.743786 91.744942,168.471654 91.5229357,168.26039 C91.3009293,168.049126 91.030587,167.893365 90.7119005,167.793105 C90.393214,167.692844 90.0154509,167.642714 89.5785997,167.642714 L88.1928575,167.642714 L88.1928575,171.187636 L89.6860216,171.187636 L89.6860216,174.130995 L82.9399278,174.130995 L82.9399278,171.187636 L84.6264513,171.187636 L84.6264513,160.79994 L82.9399278,160.79994 L82.9399278,157.845839 Z M88.1928575,160.79994 L88.1928575,164.742323 L90.3305528,164.742323 C90.738758,164.742323 91.1057791,164.704726 91.4316271,164.62953 C91.757475,164.554335 92.0367691,164.436172 92.2695177,164.275038 C92.5022663,164.113905 92.6813009,163.911595 92.8066271,163.668105 C92.9319532,163.424614 92.9946153,163.134578 92.9946153,162.797987 C92.9946153,162.167776 92.7690317,161.677221 92.3178575,161.326308 C91.8666834,160.975394 91.2042551,160.79994 90.3305528,160.79994 L88.1928575,160.79994 Z M106.744615,174.421034 C106.006981,174.421034 105.301585,174.320775 104.628404,174.120253 C103.955224,173.919731 103.326812,173.636856 102.743151,173.27162 C102.159489,172.906384 101.629546,172.467749 101.153307,171.955702 C100.677067,171.443655 100.270659,170.874325 99.9340685,170.247694 C99.5974782,169.621064 99.3360876,168.949684 99.1498888,168.233534 C98.9636899,167.517385 98.8705919,166.76902 98.8705919,165.988417 C98.8705919,165.207814 98.9636899,164.457659 99.1498888,163.737929 C99.3360876,163.018199 99.5974782,162.345028 99.9340685,161.718398 C100.270659,161.091767 100.677067,160.522437 101.153307,160.01039 C101.629546,159.498343 102.159489,159.059708 102.743151,158.694472 C103.326812,158.329236 103.955224,158.046361 104.628404,157.845839 C105.301585,157.645317 106.006981,157.545058 106.744615,157.545058 C107.482249,157.545058 108.189436,157.645317 108.866197,157.845839 C109.542959,158.046361 110.173161,158.329236 110.756822,158.694472 C111.340484,159.059708 111.870427,159.498343 112.346666,160.01039 C112.822905,160.522437 113.231105,161.091767 113.571276,161.718398 C113.911446,162.345028 114.174627,163.018199 114.360826,163.737929 C114.547025,164.457659 114.640123,165.207814 114.640123,165.988417 C114.640123,166.761858 114.547025,167.508433 114.360826,168.228163 C114.174627,168.947893 113.911446,169.621064 113.571276,170.247694 C113.231105,170.874325 112.822905,171.443655 112.346666,171.955702 C111.870427,172.467749 111.340484,172.906384 110.756822,173.27162 C110.173161,173.636856 109.542959,173.919731 108.866197,174.120253 C108.189436,174.320775 107.482249,174.421034 106.744615,174.421034 Z M106.744615,171.047987 C107.367665,171.047987 107.938786,170.913711 108.457994,170.645155 C108.977203,170.376599 109.422999,170.011369 109.795397,169.549452 C110.167794,169.087536 110.45604,168.550432 110.660143,167.938124 C110.864245,167.325816 110.966295,166.67592 110.966295,165.988417 C110.966295,165.293752 110.862455,164.638485 110.654772,164.022597 C110.447088,163.406708 110.155262,162.867814 109.779283,162.405898 C109.403305,161.943981 108.957509,161.57875 108.441881,161.310194 C107.926253,161.041638 107.360504,160.907362 106.744615,160.907362 C106.128727,160.907362 105.562977,161.041638 105.04735,161.310194 C104.531722,161.57875 104.087716,161.943981 103.715318,162.405898 C103.342921,162.867814 103.051094,163.406708 102.83983,164.022597 C102.628566,164.638485 102.522936,165.293752 102.522936,165.988417 C102.522936,166.67592 102.628566,167.325816 102.83983,167.938124 C103.051094,168.550432 103.342921,169.087536 103.715318,169.549452 C104.087716,170.011369 104.531722,170.376599 105.04735,170.645155 C105.562977,170.913711 106.128727,171.047987 106.744615,171.047987 Z M116.777818,171.187636 L118.292467,171.187636 L118.292467,160.79994 L116.777818,160.79994 L116.777818,157.845839 L123.480943,157.845839 L128.282701,169.597792 L132.740709,157.845839 L139.540514,157.845839 L139.540514,160.79994 L138.025865,160.79994 L138.025865,171.187636 L139.519029,171.187636 L139.519029,174.130995 L133.428209,174.130995 L133.428209,171.187636 L134.545397,171.187636 L134.545397,161.820448 L129.668443,173.937636 L126.649889,173.937636 L121.686998,162.142714 L121.686998,171.187636 L122.900865,171.187636 L122.900865,174.130995 L116.777818,174.130995 L116.777818,171.187636 Z M141.968248,157.845839 L148.939928,157.845839 L148.939928,160.789198 L147.221178,160.789198 L147.221178,171.187636 L148.939928,171.187636 L148.939928,174.130995 L141.968248,174.130995 L141.968248,171.187636 L143.654772,171.187636 L143.654772,160.789198 L141.968248,160.789198 L141.968248,157.845839 Z M158.500475,162.432753 C158.464667,162.182101 158.37694,161.945775 158.237291,161.723769 C158.097642,161.501762 157.918607,161.310195 157.700182,161.149062 C157.481756,160.987928 157.234688,160.860813 156.958971,160.767714 C156.683253,160.674615 156.395007,160.628065 156.094225,160.628065 C155.822088,160.628065 155.567859,160.656711 155.331529,160.714003 C155.0952,160.771295 154.88931,160.859022 154.713854,160.977187 C154.538397,161.095351 154.39875,161.247531 154.294908,161.43373 C154.191067,161.619928 154.139147,161.841931 154.139147,162.099745 C154.139147,162.422012 154.20897,162.678032 154.348619,162.867812 C154.488268,163.057591 154.667303,163.213351 154.885729,163.335097 C155.104154,163.456842 155.345851,163.553521 155.610826,163.625136 C155.875802,163.696751 156.133611,163.775526 156.384264,163.861464 L159.338365,164.849745 C159.746571,164.992975 160.129705,165.189913 160.487779,165.440565 C160.845854,165.691218 161.155584,165.995577 161.416979,166.353651 C161.678373,166.711726 161.884263,167.123506 162.034654,167.589003 C162.185046,168.0545 162.26024,168.577281 162.26024,169.157362 C162.26024,169.945127 162.115222,170.664846 161.825182,171.316542 C161.535141,171.968238 161.128733,172.526826 160.605943,172.992323 C160.083154,173.45782 159.456533,173.81947 158.726061,174.077284 C157.995588,174.335098 157.186352,174.464003 156.298326,174.464003 C155.675276,174.464003 155.086252,174.394179 154.531236,174.25453 C153.976221,174.114881 153.469553,173.912572 153.011217,173.647597 C152.552881,173.382621 152.151844,173.06573 151.808092,172.696913 C151.46434,172.328096 151.195788,171.910945 151.002428,171.445448 L149.895983,171.445448 L149.895983,168.21205 L153.784654,168.21205 L153.784654,168.878065 C153.784654,169.200333 153.836574,169.49753 153.940416,169.769667 C154.044258,170.041804 154.200018,170.27813 154.407701,170.478651 C154.615385,170.679173 154.876775,170.834933 155.191881,170.945937 C155.506987,171.05694 155.875798,171.11244 156.298326,171.11244 C156.942861,171.11244 157.433416,170.963842 157.770006,170.66664 C158.106596,170.369438 158.274889,169.955868 158.274889,169.425917 C158.274889,169.15378 158.215807,168.926406 158.097643,168.743788 C157.979478,168.56117 157.827299,168.4072 157.6411,168.281874 C157.454901,168.156548 157.247221,168.050917 157.018053,167.96498 C156.788885,167.879042 156.563301,167.800266 156.341295,167.728651 L153.881334,166.93373 C153.415837,166.7905 152.96646,166.589981 152.53319,166.332167 C152.099919,166.074353 151.716785,165.752091 151.383776,165.36537 C151.050766,164.978649 150.785795,164.525692 150.588854,164.006483 C150.391913,163.487275 150.293443,162.89467 150.293443,162.228651 C150.293443,161.45521 150.436671,160.765927 150.723131,160.16078 C151.009591,159.555634 151.410628,159.045385 151.926256,158.630019 C152.441884,158.214652 153.054182,157.899551 153.76317,157.684706 C154.472158,157.469861 155.249168,157.36244 156.094225,157.36244 C156.760244,157.36244 157.376123,157.439425 157.941881,157.593398 C158.507639,157.74737 159.014307,157.95326 159.461901,158.211073 C159.909494,158.468887 160.289047,158.764294 160.600572,159.097304 C160.912097,159.430313 161.150213,159.77585 161.314928,160.133925 L162.389147,160.133925 L162.389147,163.378065 L158.500475,163.378065 L158.500475,162.432753 Z M171.412584,174.421034 C170.67495,174.421034 169.969554,174.320775 169.296373,174.120253 C168.623193,173.919731 167.994781,173.636856 167.411119,173.27162 C166.827457,172.906384 166.297515,172.467749 165.821276,171.955702 C165.345036,171.443655 164.938627,170.874325 164.602037,170.247694 C164.265447,169.621064 164.004056,168.949684 163.817858,168.233534 C163.631659,167.517385 163.538561,166.76902 163.538561,165.988417 C163.538561,165.207814 163.631659,164.457659 163.817858,163.737929 C164.004056,163.018199 164.265447,162.345028 164.602037,161.718398 C164.938627,161.091767 165.345036,160.522437 165.821276,160.01039 C166.297515,159.498343 166.827457,159.059708 167.411119,158.694472 C167.994781,158.329236 168.623193,158.046361 169.296373,157.845839 C169.969554,157.645317 170.67495,157.545058 171.412584,157.545058 C172.150218,157.545058 172.857405,157.645317 173.534166,157.845839 C174.210927,158.046361 174.841129,158.329236 175.424791,158.694472 C176.008453,159.059708 176.538396,159.498343 177.014635,160.01039 C177.490874,160.522437 177.899073,161.091767 178.239244,161.718398 C178.579415,162.345028 178.842596,163.018199 179.028795,163.737929 C179.214994,164.457659 179.308092,165.207814 179.308092,165.988417 C179.308092,166.761858 179.214994,167.508433 179.028795,168.228163 C178.842596,168.947893 178.579415,169.621064 178.239244,170.247694 C177.899073,170.874325 177.490874,171.443655 177.014635,171.955702 C176.538396,172.467749 176.008453,172.906384 175.424791,173.27162 C174.841129,173.636856 174.210927,173.919731 173.534166,174.120253 C172.857405,174.320775 172.150218,174.421034 171.412584,174.421034 Z M171.412584,171.047987 C172.035634,171.047987 172.606755,170.913711 173.125963,170.645155 C173.645171,170.376599 174.090968,170.011369 174.463365,169.549452 C174.835763,169.087536 175.124009,168.550432 175.328111,167.938124 C175.532214,167.325816 175.634264,166.67592 175.634264,165.988417 C175.634264,165.293752 175.530424,164.638485 175.32274,164.022597 C175.115057,163.406708 174.823231,162.867814 174.447252,162.405898 C174.071274,161.943981 173.625477,161.57875 173.10985,161.310194 C172.594222,161.041638 172.028473,160.907362 171.412584,160.907362 C170.796696,160.907362 170.230946,161.041638 169.715318,161.310194 C169.199691,161.57875 168.755685,161.943981 168.383287,162.405898 C168.01089,162.867814 167.719063,163.406708 167.507799,164.022597 C167.296535,164.638485 167.190904,165.293752 167.190904,165.988417 C167.190904,166.67592 167.296535,167.325816 167.507799,167.938124 C167.719063,168.550432 168.01089,169.087536 168.383287,169.549452 C168.755685,170.011369 169.199691,170.376599 169.715318,170.645155 C170.230946,170.913711 170.796696,171.047987 171.412584,171.047987 Z M189.276842,162.432753 C189.241034,162.182101 189.153307,161.945775 189.013658,161.723769 C188.874009,161.501762 188.694975,161.310195 188.476549,161.149062 C188.258123,160.987928 188.011056,160.860813 187.735338,160.767714 C187.45962,160.674615 187.171375,160.628065 186.870592,160.628065 C186.598455,160.628065 186.344226,160.656711 186.107897,160.714003 C185.871567,160.771295 185.665677,160.859022 185.490221,160.977187 C185.314764,161.095351 185.175117,161.247531 185.071276,161.43373 C184.967434,161.619928 184.915514,161.841931 184.915514,162.099745 C184.915514,162.422012 184.985337,162.678032 185.124986,162.867812 C185.264636,163.057591 185.44367,163.213351 185.662096,163.335097 C185.880521,163.456842 186.122218,163.553521 186.387193,163.625136 C186.652169,163.696751 186.909979,163.775526 187.160631,163.861464 L190.114733,164.849745 C190.522938,164.992975 190.906072,165.189913 191.264147,165.440565 C191.622221,165.691218 191.931951,165.995577 192.193346,166.353651 C192.45474,166.711726 192.66063,167.123506 192.811022,167.589003 C192.961413,168.0545 193.036608,168.577281 193.036608,169.157362 C193.036608,169.945127 192.891589,170.664846 192.601549,171.316542 C192.311508,171.968238 191.9051,172.526826 191.382311,172.992323 C190.859522,173.45782 190.2329,173.81947 189.502428,174.077284 C188.771955,174.335098 187.962719,174.464003 187.074693,174.464003 C186.451643,174.464003 185.862619,174.394179 185.307604,174.25453 C184.752588,174.114881 184.24592,173.912572 183.787584,173.647597 C183.329248,173.382621 182.928211,173.06573 182.584459,172.696913 C182.240707,172.328096 181.972155,171.910945 181.778795,171.445448 L180.67235,171.445448 L180.67235,168.21205 L184.561022,168.21205 L184.561022,168.878065 C184.561022,169.200333 184.612942,169.49753 184.716783,169.769667 C184.820625,170.041804 184.976385,170.27813 185.184068,170.478651 C185.391752,170.679173 185.653142,170.834933 185.968248,170.945937 C186.283354,171.05694 186.652165,171.11244 187.074693,171.11244 C187.719228,171.11244 188.209783,170.963842 188.546373,170.66664 C188.882963,170.369438 189.051256,169.955868 189.051256,169.425917 C189.051256,169.15378 188.992175,168.926406 188.87401,168.743788 C188.755845,168.56117 188.603666,168.4072 188.417467,168.281874 C188.231268,168.156548 188.023588,168.050917 187.79442,167.96498 C187.565252,167.879042 187.339669,167.800266 187.117662,167.728651 L184.657701,166.93373 C184.192204,166.7905 183.742827,166.589981 183.309557,166.332167 C182.876286,166.074353 182.493152,165.752091 182.160143,165.36537 C181.827133,164.978649 181.562162,164.525692 181.365221,164.006483 C181.16828,163.487275 181.069811,162.89467 181.069811,162.228651 C181.069811,161.45521 181.213038,160.765927 181.499498,160.16078 C181.785958,159.555634 182.186996,159.045385 182.702623,158.630019 C183.218251,158.214652 183.830549,157.899551 184.539537,157.684706 C185.248525,157.469861 186.025536,157.36244 186.870592,157.36244 C187.536611,157.36244 188.15249,157.439425 188.718248,157.593398 C189.284006,157.74737 189.790674,157.95326 190.238268,158.211073 C190.685861,158.468887 191.065415,158.764294 191.37694,159.097304 C191.688465,159.430313 191.926581,159.77585 192.091295,160.133925 L193.165514,160.133925 L193.165514,163.378065 L189.276842,163.378065 L189.276842,162.432753 Z" id="PROPUESTAS-Y-COMPROM-Copy" fill="#FFFFFF"></path>
            <g id="Page-1-Copy-14" transform="translate(54.400865, 19.468555)">
                <path d="M24.0940577,6.36531658 C11.167415,6.36531658 0.606481947,22.7633537 1.17071004,31.1913527 C3.40991122,64.6857542 50.5596446,97.5172508 50.5596446,97.5172508 C50.5596446,97.5172508 91.932998,51.0481334 91.932998,31.5885896 C91.932998,7.22810483 71.9471786,2.04884515 61.7657712,3.5618873 C48.7075595,5.5050585 44.4771139,36.2972375 44.4771139,36.2972375 C44.4771139,36.2972375 41.056323,6.36531658 24.0940577,6.36531658 Z" id="Fill-1" fill="#CB78D3" style="mix-blend-mode: multiply;"></path>
                <g id="Group-5" transform="translate(0.000000, 0.021969)">
                    <mask id="mask-2" fill="white">
                        <use xlink:href="#path-1"></use>
                    </mask>
                    <g id="Clip-4"></g>
                    <path d="M42.0582706,32.1007397 C42.0582706,32.1007397 38.7412167,3.09739153 22.3077571,3.09739153 C9.78088137,3.09739153 -0.453659629,18.9868643 0.0928572694,27.1542558 C2.26374384,59.6112871 47.9535686,91.4256551 47.9535686,91.4256551 C47.9535686,91.4256551 88.0441254,46.3936747 88.0441254,27.5388417 C88.0441254,3.93234791 68.6781979,-1.08498084 58.8105317,0.379988065 C46.1571474,2.26243516 42.0582706,32.1007397 42.0582706,32.1007397" id="Fill-3" fill="#F7ADFE" mask="url(#mask-2)"></path>
                </g>
                <g id="Group-8" transform="translate(0.000000, 20.263336)">
                    <mask id="mask-4" fill="white">
                        <use xlink:href="#path-3"></use>
                    </mask>
                    <g id="Clip-7"></g>
                    <path d="M0.993598084,13.0070586 C3.68569984,14.3733508 9.54557548,17.3159395 11.8455008,19.2717616 C12.9233535,20.1876834 14.4212147,22.6621905 15.463645,23.618595 C17.0399415,25.0709131 24.5317773,30.1337849 25.2326346,30.6423493 C26.2700046,31.3963402 28.4054688,32.800585 29.399826,33.6406017 C30.1183945,34.2503729 31.6871004,35.7836564 32.6257938,35.7254625 C32.9724272,35.7052211 33.473401,35.1637645 33.4480993,34.8171311 C33.4101467,34.2630237 32.377837,33.4204768 31.8869839,33.02324 C30.406834,31.8188787 26.7482069,29.1621993 26.3813322,27.8895234 C26.3459098,27.765545 26.7659181,27.527709 26.8924267,27.5454202 C27.400991,27.6137348 37.2560064,34.1845884 37.2560064,34.1845884 C37.2560064,34.1845884 38.1567472,34.7918294 38.7361563,34.015067 C39.1283328,33.4837311 38.9486907,33.0536021 38.7285658,32.8410677 C36.6690068,30.8574138 28.8811409,26.3157571 28.7976453,25.5820076 C28.7748738,25.3897146 29.1392184,24.9241632 29.3163303,25.0051287 C29.9412825,25.2885078 39.67991,31.7328529 39.67991,31.7328529 C39.67991,31.7328529 40.9424653,32.4337102 41.4839218,31.7227322 C42.182249,30.8093405 41.2258444,29.9111299 41.2258444,29.9111299 C41.2258444,29.9111299 34.2223316,25.0076588 32.5777205,23.9576379 C32.0539752,23.6211252 30.9913034,22.9936429 30.5308123,22.5432724 C29.9817653,22.0043461 30.6522605,21.589398 30.8825061,21.6526523 C31.8313201,21.9056694 32.8686902,22.3611001 35.4545248,24.1752326 C36.5121362,24.9191029 39.7077419,27.112761 39.7077419,27.112761 C39.7077419,27.112761 42.0405594,28.772553 42.7439469,27.7098813 C43.4549249,26.6370888 41.6913958,25.4732103 41.6913958,25.4732103 L38.0783119,22.9329188 C38.0783119,22.9329188 28.4282404,15.7902465 27.3832798,14.9603505 C27.208698,14.8211911 27.6287064,14.1582863 27.8488312,14.1987691 C29.0101797,14.4290146 32.9749573,16.3038712 34.7840295,16.6100219 C35.2748826,16.6935175 36.5450284,16.612552 36.5753904,15.7573543 C36.6057525,14.9072169 35.7556151,14.4087732 35.7556151,14.4087732 C35.7556151,14.4087732 29.3315114,11.0309952 27.0492973,10.2517026 C25.6956559,9.7886813 22.8416232,9.34337124 21.4120767,9.26999628 C19.6232459,9.18144031 15.8305198,9.66976327 14.2618139,8.80444485 C8.54109766,5.65691234 1.21119278,0.642113763 1.21119278,0.642113763 C1.21119278,0.642113763 0.00177111958,2.43347471 -0.00075905125,6.26415334 C-0.00075905125,8.65010443 0.993598084,13.0070586 0.993598084,13.0070586" id="Fill-6" fill="#FEFEFE" mask="url(#mask-4)"></path>
                </g>
                <path d="M87.4654753,20.8677497 C87.4654753,20.8677497 72.5273468,36.5497485 67.8844833,40.0843972 C66.6092772,41.0534526 63.1960768,41.1167069 61.6248407,41.4329782 C60.3724061,41.6834651 57.9080197,42.4501069 56.771973,43.0371065 C54.8566337,44.0238731 49.6217103,47.8545518 49.6217103,47.8545518 C49.6217103,47.8545518 48.9335038,48.406129 49.0751934,49.1525294 C49.2143528,49.9039901 50.3478693,49.8078437 50.7678777,49.6712144 C52.3264629,49.1626501 55.5853229,46.9867032 56.5822102,46.6324793 C56.771973,46.5666948 57.2299339,47.0980307 57.0958349,47.2422504 C56.2785897,48.1151594 48.6880772,55.693021 48.6880772,55.693021 L45.826454,58.4104245 C45.826454,58.4104245 44.419679,59.6704495 45.1913811,60.5256473 C45.9529626,61.3732545 47.7949269,59.5996048 47.7949269,59.5996048 C47.7949269,59.5996048 50.3301581,57.2414855 51.1676446,56.4470119 C53.2145528,54.5038407 54.0748109,53.9674445 54.8794052,53.6157507 C55.0742284,53.5297249 55.7219521,53.8105739 55.3070041,54.3570908 C54.9578405,54.8175819 54.1026428,55.5108487 53.6826344,55.8751933 C52.3669456,57.0188305 46.8208112,62.2714651 46.8208112,62.2714651 C46.8208112,62.2714651 46.092122,63.1924473 46.8284017,63.9084857 C47.4027505,64.4651233 48.4249395,63.6807703 48.4249395,63.6807703 C48.4249395,63.6807703 56.1875036,56.7076195 56.7036584,56.373637 C56.8478781,56.2800206 57.2299339,56.6443652 57.2375245,56.8164168 C57.260296,57.4742613 50.9728215,62.5093012 49.4117061,64.5334379 C49.2447148,64.7510326 49.143508,65.1533297 49.5609862,65.5708079 C50.1707573,66.1856394 50.8893259,65.527795 50.8893259,65.527795 C50.8893259,65.527795 58.7379158,58.4306658 59.1781655,58.3016271 C59.2869628,58.2687349 59.68926,58.4256055 59.674079,58.5394632 C59.5172084,59.7134624 56.6302835,62.5396633 55.4815859,63.7971582 C55.1020603,64.2146363 54.2999961,65.0926056 54.3379487,65.5885191 C54.3607202,65.8997301 54.8743449,66.312148 55.1855559,66.2843161 C56.0205123,66.2109411 57.2071624,64.6498257 57.7612698,64.0198132 C58.5304418,63.1443741 60.2332467,61.6237414 61.0530221,60.8216773 C61.6045993,60.2802207 67.5606214,54.8226422 68.7649827,53.3349018 C69.5594564,52.3506653 70.5588739,49.9672444 71.3913001,49.0159002 C73.16748,46.9867032 77.7040763,43.6747096 79.9053249,42.1135942 C82.2103105,40.4791038 85.5931489,37.6124203 85.5931489,37.6124203 C86.7519672,35.3226157 88.0448845,30.4242049 88.0448845,27.5600516 C88.0448845,24.159502 87.4654753,20.8677497 87.4654753,20.8677497" id="Fill-9" fill="#FEFEFE"></path>
            </g>
            <g id="Group-17-Copy" transform="translate(54.060692, 27.910281)"></g>
            <g id="Group-7-Copy" transform="translate(49.729927, 24.229529)"></g>
        </g>
    </g>
</svg>