<?xml version="1.0" encoding="UTF-8" standalone="no"?>
<svg width="201px" height="197px" viewBox="0 0 201 197" version="1.1" xmlns="http://www.w3.org/2000/svg" xmlns:xlink="http://www.w3.org/1999/xlink">
    <!-- Generator: Sketch 41.2 (35397) - http://www.bohemiancoding.com/sketch -->
    <title>Group 45</title>
    <desc>Created with Sketch.</desc>
    <defs></defs>
    <g id="Page-1" stroke="none" stroke-width="1" fill="none" fill-rule="evenodd">
        <g id="Group-45">
            <polygon id="Page-1-Copy-9" fill="#49D1A9" points="0.8861672 1.83870352 0.8861672 195.591639 200.886167 196.67236 200.886167 0.791755467"></polygon>
            <path d="M40.0082375,132.285896 L46.0140969,132.285896 L46.0140969,134.397712 L44.4027688,134.397712 L39.1171242,150.791755 L35.3817727,150.791755 L30.3646828,134.666267 L25.738218,150.791755 L22.0394875,150.791755 L16.6439797,134.397712 L15.0082375,134.397712 L15.0082375,132.285896 L21.0140969,132.285896 L21.0140969,134.397712 L19.4027688,134.397712 L23.8827492,148.618904 L28.6068703,132.285896 L32.2567727,132.285896 L37.2860695,148.618904 L41.8514992,134.397712 L40.0082375,134.397712 L40.0082375,132.285896 Z M60.882261,132.285896 L66.8881203,132.285896 L66.8881203,134.385505 L65.1303078,134.385505 L65.1303078,148.692146 L66.8881203,148.692146 L66.8881203,150.791755 L60.882261,150.791755 L60.882261,148.692146 L62.7377297,148.692146 L62.7377297,142.039314 L52.0321633,142.039314 L52.0321633,148.692146 L53.887632,148.692146 L53.887632,150.791755 L47.8817727,150.791755 L47.8817727,148.692146 L49.6395852,148.692146 L49.6395852,134.385505 L47.8817727,134.385505 L47.8817727,132.285896 L53.887632,132.285896 L53.887632,134.385505 L52.0321633,134.385505 L52.0321633,139.988533 L62.7377297,139.988533 L62.7377297,134.385505 L60.882261,134.385505 L60.882261,132.285896 Z M81.3290383,148.692146 L82.8671242,148.692146 L81.4022805,144.492927 L74.2855813,144.492927 L72.8573586,148.692146 L74.7616555,148.692146 L74.7616555,150.791755 L68.7557961,150.791755 L68.7557961,148.692146 L70.3671242,148.692146 L76.128843,132.285896 L79.7299172,132.285896 L85.4794289,148.692146 L87.3348977,148.692146 L87.3348977,150.791755 L81.3290383,150.791755 L81.3290383,148.692146 Z M74.981382,142.46656 L80.6942727,142.46656 L77.8134133,134.190193 L74.981382,142.46656 Z M92.9867531,148.692146 L94.6835305,148.692146 L94.6835305,134.287849 L90.4598977,134.287849 L90.4598977,137.168709 L87.9574563,137.168709 L87.9574563,132.285896 L104.461363,132.285896 L104.461363,137.168709 L101.958921,137.168709 L101.958921,134.287849 L97.0761086,134.287849 L97.0761086,148.692146 L98.9804055,148.692146 L98.9804055,150.791755 L92.9867531,150.791755 L92.9867531,148.692146 Z M115.801695,135.703865 C115.541277,135.34579 115.254414,135.071135 114.941099,134.87989 C114.627783,134.688646 114.283956,134.542163 113.909605,134.440437 C113.535254,134.338711 113.160909,134.287849 112.786558,134.287849 C112.168065,134.287849 111.626892,134.359056 111.163023,134.501472 C110.699153,134.643888 110.314636,134.837164 110.009458,135.081306 C109.704281,135.325448 109.474384,135.610276 109.319761,135.935798 C109.165138,136.261321 109.087827,136.603114 109.087827,136.961189 C109.087827,137.498301 109.183448,137.931646 109.374693,138.261238 C109.565937,138.590829 109.808041,138.855312 110.101011,139.054695 C110.393981,139.254077 110.717464,139.410733 111.07147,139.524666 C111.425476,139.638598 111.765235,139.75253 112.090757,139.866462 L114.556577,140.672127 C115.297141,140.90813 115.950211,141.176682 116.515806,141.477791 C117.081401,141.778899 117.555436,142.134934 117.937925,142.545906 C118.320414,142.956878 118.611345,143.430913 118.810728,143.968025 C119.01011,144.505137 119.1098,145.127689 119.1098,145.835701 C119.1098,146.600679 118.953145,147.308679 118.639829,147.959724 C118.326514,148.610769 117.8891,149.176356 117.327573,149.656502 C116.766047,150.136647 116.096702,150.513027 115.319517,150.785652 C114.542332,151.058277 113.689883,151.194587 112.762144,151.194587 C111.809991,151.194587 110.996197,151.08676 110.320738,150.871101 C109.645278,150.655443 109.077657,150.366546 108.617857,150.004402 C108.158056,149.642258 107.789814,149.229258 107.51312,148.765388 C107.236426,148.301519 107.020771,147.825449 106.866148,147.337166 L105.938413,147.337166 L105.938413,145.237556 L109.014585,145.237556 C109.014585,146.140881 109.110206,146.779709 109.30145,147.15406 C109.492695,147.528411 109.759212,147.839687 110.101011,148.087898 C110.44281,148.336109 110.849707,148.523282 111.321714,148.649421 C111.793722,148.775561 112.31455,148.83863 112.884214,148.83863 C113.437602,148.83863 113.936051,148.773527 114.379575,148.643318 C114.8231,148.513109 115.201514,148.323902 115.514829,148.075691 C115.828145,147.82748 116.068214,147.526376 116.235044,147.172371 C116.401874,146.818365 116.485288,146.417572 116.485288,145.969978 C116.485288,145.473556 116.38153,145.052418 116.174009,144.70655 C115.966488,144.360683 115.699971,144.065682 115.374448,143.821541 C115.048926,143.577399 114.692891,143.378019 114.306333,143.223396 C113.919775,143.068773 113.547465,142.934497 113.18939,142.820564 L110.51605,142.063728 C109.93011,141.884691 109.39504,141.656828 108.910825,141.380134 C108.426611,141.10344 108.011576,140.765716 107.665708,140.366951 C107.319841,139.968186 107.053323,139.502289 106.866148,138.969246 C106.678972,138.436203 106.585386,137.819754 106.585386,137.11988 C106.585386,136.411869 106.723731,135.748627 107.000425,135.130134 C107.277119,134.511642 107.684016,133.970469 108.221128,133.506599 C108.75824,133.04273 109.415379,132.678557 110.192564,132.41407 C110.969749,132.149583 111.858818,132.017341 112.8598,132.017341 C113.518983,132.017341 114.127294,132.094652 114.684751,132.249275 C115.242208,132.403898 115.746761,132.621588 116.198423,132.902351 C116.650085,133.183114 117.048845,133.520839 117.394712,133.915535 C117.74058,134.310231 118.031511,134.743576 118.267515,135.215584 L119.183042,135.215584 L119.183042,137.315193 L116.19232,137.315193 C116.19232,136.599044 116.062113,136.06194 115.801695,135.703865 Z M132.427671,148.692146 L133.965757,148.692146 L132.500913,144.492927 L125.384214,144.492927 L123.955991,148.692146 L125.860288,148.692146 L125.860288,150.791755 L119.854429,150.791755 L119.854429,148.692146 L121.465757,148.692146 L127.227476,132.285896 L130.82855,132.285896 L136.578062,148.692146 L138.43353,148.692146 L138.43353,150.791755 L132.427671,150.791755 L132.427671,148.692146 Z M126.080015,142.46656 L131.792905,142.46656 L128.912046,134.190193 L126.080015,142.46656 Z M140.301206,132.285896 L147.784116,132.285896 C148.614199,132.285896 149.377131,132.393724 150.072935,132.609382 C150.768739,132.825041 151.370947,133.142421 151.879575,133.561531 C152.388204,133.980641 152.782894,134.503504 153.063657,135.130134 C153.344421,135.756765 153.4848,136.476973 153.4848,137.290779 C153.4848,137.966238 153.346455,138.603032 153.069761,139.201179 C152.793067,139.799327 152.402446,140.322189 151.897886,140.769783 C151.393326,141.217376 150.789084,141.571377 150.085142,141.831795 C149.381199,142.092212 148.597923,142.22242 147.735288,142.22242 L144.451597,142.22242 L144.451597,148.692146 L146.307066,148.692146 L146.307066,150.791755 L140.301206,150.791755 L140.301206,148.692146 L142.059019,148.692146 L142.059019,134.397712 L140.301206,134.397712 L140.301206,132.285896 Z M144.451597,134.397712 L144.451597,140.220466 L147.784116,140.220466 C148.247986,140.220466 148.673193,140.157397 149.059751,140.031257 C149.446309,139.905117 149.779965,139.719979 150.060728,139.475837 C150.341491,139.231696 150.561215,138.926523 150.719907,138.56031 C150.8786,138.194097 150.957945,137.770925 150.957945,137.290779 C150.957945,136.379316 150.681255,135.669281 150.127866,135.160652 C149.574478,134.652023 148.691512,134.397712 147.478941,134.397712 L144.451597,134.397712 Z M155.82855,132.285896 L163.31146,132.285896 C164.141542,132.285896 164.904474,132.393724 165.600279,132.609382 C166.296083,132.825041 166.89829,133.142421 167.406919,133.561531 C167.915548,133.980641 168.310238,134.503504 168.591001,135.130134 C168.871764,135.756765 169.012144,136.476973 169.012144,137.290779 C169.012144,137.966238 168.873799,138.603032 168.597105,139.201179 C168.320411,139.799327 167.92979,140.322189 167.42523,140.769783 C166.92067,141.217376 166.316428,141.571377 165.612486,141.831795 C164.908543,142.092212 164.125267,142.22242 163.262632,142.22242 L159.978941,142.22242 L159.978941,148.692146 L161.834409,148.692146 L161.834409,150.791755 L155.82855,150.791755 L155.82855,148.692146 L157.586363,148.692146 L157.586363,134.397712 L155.82855,134.397712 L155.82855,132.285896 Z M159.978941,134.397712 L159.978941,140.220466 L163.31146,140.220466 C163.77533,140.220466 164.200537,140.157397 164.587095,140.031257 C164.973653,139.905117 165.307308,139.719979 165.588071,139.475837 C165.868835,139.231696 166.088559,138.926523 166.247251,138.56031 C166.405943,138.194097 166.485288,137.770925 166.485288,137.290779 C166.485288,136.379316 166.208598,135.669281 165.65521,135.160652 C165.101822,134.652023 164.218856,134.397712 163.006284,134.397712 L159.978941,134.397712 Z M16.2655617,156.285896 L24.8104836,156.285896 C25.7626368,156.285896 26.6374653,156.434413 27.4349953,156.731453 C28.2325254,157.028492 28.9201812,157.429285 29.4979836,157.933845 C30.075786,158.438405 30.5274416,159.020268 30.8529641,159.679451 C31.1784865,160.338634 31.3412453,161.02629 31.3412453,161.742439 C31.3412453,162.605074 31.2130728,163.412764 30.9567238,164.165535 C30.7003749,164.918305 30.3036504,165.571375 29.7665383,166.124763 C29.2294262,166.678151 28.5499083,167.115566 27.7279641,167.437019 C26.9060199,167.758473 25.9335361,167.919197 24.8104836,167.919197 L22.2348,167.919197 L22.2348,171.447029 L23.9315774,171.447029 L23.9315774,174.791755 L16.2655617,174.791755 L16.2655617,171.447029 L18.1820656,171.447029 L18.1820656,159.64283 L16.2655617,159.64283 L16.2655617,156.285896 Z M22.2348,159.64283 L22.2348,164.611091 L23.9071633,164.611091 C24.8349023,164.611091 25.5713858,164.415781 26.116636,164.025154 C26.6618861,163.634527 26.934507,163.016044 26.934507,162.169685 C26.934507,161.380293 26.678162,160.76181 26.1654641,160.314216 C25.6527662,159.866623 24.9000068,159.64283 23.9071633,159.64283 L22.2348,159.64283 Z M33.3554055,156.285896 L43.1454445,156.285896 C44.0975977,156.285896 44.9480124,156.42831 45.6967141,156.713142 C46.4454157,156.997974 47.076106,157.378423 47.5888039,157.8545 C48.1015018,158.330576 48.4941574,158.883956 48.7667824,159.514656 C49.0394075,160.145356 49.175718,160.802494 49.175718,161.486091 C49.175718,162.112722 49.10858,162.662033 48.974302,163.134041 C48.840024,163.606048 48.6447134,164.025152 48.3883645,164.391365 C48.1320155,164.757578 47.8166704,165.081061 47.4423195,165.361824 C47.0679687,165.642587 46.6407269,165.896898 46.1605813,166.124763 C46.5756224,166.336353 46.9418297,166.659836 47.2592141,167.095222 C47.5765985,167.530609 47.8166677,168.094161 47.9794289,168.785896 L48.6019875,171.190681 L50.1278664,171.190681 L50.1522805,174.791755 L44.7811867,174.791755 L44.0487649,170.397224 C43.9755223,169.876388 43.8636256,169.426767 43.7130715,169.048347 C43.5625174,168.669927 43.3611034,168.360686 43.1088235,168.120613 C42.8565435,167.88054 42.5493363,167.70354 42.1871926,167.589607 C41.8250489,167.475674 41.3957725,167.418709 40.8993508,167.418709 L39.3246438,167.418709 L39.3246438,171.447029 L41.0214211,171.447029 L41.0214211,174.791755 L33.3554055,174.791755 L33.3554055,171.447029 L35.2719094,171.447029 L35.2719094,159.64283 L33.3554055,159.64283 L33.3554055,156.285896 Z M39.3246438,159.64283 L39.3246438,164.12281 L41.753843,164.12281 C42.2177125,164.12281 42.6347819,164.080086 43.0050637,163.994636 C43.3753455,163.909187 43.6927251,163.774911 43.9572121,163.591804 C44.2216991,163.408698 44.4251476,163.178801 44.5675637,162.902107 C44.7099798,162.625413 44.7811867,162.295826 44.7811867,161.913337 C44.7811867,161.197188 44.5248416,160.639739 44.0121438,160.240974 C43.4994459,159.842209 42.7466865,159.64283 41.753843,159.64283 L39.3246438,159.64283 Z M52.0321633,156.285896 L66.753843,156.285896 L66.753843,162.596931 L62.7743508,162.596931 L62.7743508,159.97242 L58.0258156,159.97242 L58.0258156,163.622322 L61.700132,163.622322 L61.700132,167.162361 L58.0258156,167.162361 L58.0258156,171.447029 L62.7743508,171.447029 L62.7743508,168.163337 L66.753843,168.163337 L66.753843,174.791755 L52.0321633,174.791755 L52.0321633,171.447029 L53.9730813,171.447029 L53.9730813,159.97242 L52.0321633,159.97242 L52.0321633,156.285896 Z M82.2933938,174.791755 L82.2933938,171.617927 C81.7888339,172.504976 81.2964886,173.156011 80.816343,173.571052 C80.3361974,173.986093 79.7929899,174.319749 79.1867043,174.572029 C78.5804187,174.824309 77.7686593,174.946378 76.7514016,174.93824 C76.2468418,174.930102 75.7422895,174.871102 75.2377297,174.761238 C74.7331699,174.651374 74.2448935,174.496753 73.772886,174.297371 C73.3008784,174.097988 72.8390503,173.857919 72.3873879,173.577156 C71.9357255,173.296393 71.526794,172.97291 71.1605813,172.606697 C70.2572564,171.695234 69.5553592,170.639336 69.0548684,169.438972 C68.5543776,168.238608 68.304136,166.930434 68.304136,165.514412 C68.304136,164.643639 68.4099292,163.801362 68.6215188,162.987556 C68.8331084,162.17375 69.1301432,161.412853 69.512632,160.704841 C69.8951209,159.99683 70.356949,159.351898 70.8981301,158.770027 C71.4393112,158.188156 72.0415187,157.689707 72.7047707,157.274666 C73.3680227,156.859624 74.0821269,156.538176 74.8471047,156.31031 C75.6120825,156.082444 76.4136695,155.968513 77.2518899,155.968513 C78.2121811,155.968513 79.0463199,156.096686 79.7543313,156.353035 C80.4623426,156.609384 81.22324,157.087488 82.0370461,157.787361 L84.7714211,157.787361 L84.7714211,161.913337 L80.9994485,161.913337 C80.6250976,161.335535 80.2731317,160.916431 79.9435402,160.656013 C79.6139488,160.395595 79.2558794,160.17994 78.8693215,160.009041 C78.4827636,159.838141 77.9436251,159.752693 77.2518899,159.752693 C76.5682927,159.752693 75.9335334,159.907314 75.347593,160.21656 C74.7616526,160.525806 74.2550658,160.942876 73.8278176,161.467781 C73.4005694,161.992686 73.0648794,162.611169 72.8207375,163.32325 C72.5765957,164.03533 72.4545266,164.76571 72.4545266,165.514412 C72.4545266,166.254975 72.5643888,166.958907 72.7841164,167.626228 C73.0038441,168.293549 73.3374996,168.893722 73.785093,169.426765 C74.2326864,169.959808 74.7535145,170.36874 75.347593,170.653572 C75.9416715,170.938404 76.5764307,171.080818 77.2518899,171.080818 C78.1145244,171.080818 78.8672838,170.828542 79.5101906,170.323982 C80.1530975,169.819422 80.61696,169.131766 80.9017922,168.260994 L77.3739602,168.260994 L77.3739602,164.916267 L85.9432961,164.916267 L85.9432961,174.791755 L82.2933938,174.791755 Z M88.0917336,156.285896 L95.5136086,156.285896 L95.5136086,159.64283 L93.8168313,159.64283 L93.8168313,167.321052 C93.8168313,168.020926 93.8961762,168.614995 94.0548684,169.103279 C94.2135606,169.591563 94.4353194,169.990322 94.7201516,170.299568 C95.0049837,170.608814 95.3427082,170.834642 95.7333352,170.977058 C96.1239621,171.119474 96.5512039,171.190681 97.0150735,171.190681 C97.4952191,171.190681 97.9326333,171.129647 98.3273293,171.007576 C98.7220253,170.885505 99.0597498,170.675953 99.3405129,170.378914 C99.621276,170.081874 99.8369314,169.68515 99.9874856,169.188728 C100.13804,168.692306 100.213316,168.069754 100.213316,167.321052 L100.213316,159.64283 L98.2479836,159.64283 L98.2479836,156.285896 L105.669859,156.285896 L105.669859,159.64283 L104.192808,159.64283 L104.192808,166.844978 C104.192808,168.147068 104.005635,169.30469 103.631284,170.317879 C103.256934,171.331067 102.742209,172.187585 102.087095,172.887459 C101.431981,173.587332 100.662946,174.120367 99.779966,174.48658 C98.8969864,174.852792 97.9509509,175.035896 96.9418313,175.035896 C95.9408497,175.035896 95.0049867,174.854827 94.1342141,174.492683 C93.2634415,174.130539 92.5045786,173.605642 91.8576027,172.917976 C91.2106269,172.23031 90.6999712,171.394137 90.3256203,170.409431 C89.9512695,169.424726 89.7640969,168.309828 89.7640969,167.064705 L89.7640969,159.64283 L88.0917336,159.64283 L88.0917336,156.285896 Z M119.598081,156.285896 L126.629331,156.285896 L126.629331,159.64283 L125.127866,159.64283 L125.127866,174.791755 L121.075132,174.791755 L113.372495,162.828865 L113.372495,171.447029 L114.922788,171.447029 L114.922788,174.791755 L107.903745,174.791755 L107.903745,171.447029 L109.429624,171.447029 L109.429624,159.64283 L107.928159,159.64283 L107.928159,156.285896 L113.51898,156.285896 L121.172788,168.407478 L121.172788,159.64283 L119.598081,159.64283 L119.598081,156.285896 Z M131.805113,171.447029 L133.721616,171.447029 L133.721616,159.520759 L131.475523,159.520759 L131.475523,161.913337 L127.49603,161.913337 L127.49603,156.285896 L144.329527,156.285896 L144.329527,161.913337 L140.32562,161.913337 L140.32562,159.520759 L137.774351,159.520759 L137.774351,171.447029 L139.727476,171.447029 L139.727476,174.791755 L131.805113,174.791755 L131.805113,171.447029 Z M154.461363,175.121345 C153.623142,175.121345 152.821555,175.007414 152.056577,174.779548 C151.2916,174.551683 150.577495,174.230234 149.914243,173.815193 C149.250991,173.400152 148.648784,172.901703 148.107603,172.319832 C147.566422,171.73796 147.104594,171.090994 146.722105,170.378914 C146.339616,169.666833 146.042581,168.903901 145.830991,168.090095 C145.619402,167.276289 145.513609,166.425874 145.513609,165.538826 C145.513609,164.651777 145.619402,163.799328 145.830991,162.981453 C146.042581,162.163578 146.339616,161.398611 146.722105,160.686531 C147.104594,159.97445 147.566422,159.327484 148.107603,158.745613 C148.648784,158.163741 149.250991,157.665293 149.914243,157.250252 C150.577495,156.83521 151.2916,156.513762 152.056577,156.285896 C152.821555,156.05803 153.623142,155.944099 154.461363,155.944099 C155.299583,155.944099 156.103204,156.05803 156.872251,156.285896 C157.641298,156.513762 158.357437,156.83521 159.020689,157.250252 C159.683941,157.665293 160.286148,158.163741 160.827329,158.745613 C161.36851,159.327484 161.832373,159.97445 162.218931,160.686531 C162.605489,161.398611 162.904558,162.163578 163.116148,162.981453 C163.327737,163.799328 163.43353,164.651777 163.43353,165.538826 C163.43353,166.417736 163.327737,167.266117 163.116148,168.083992 C162.904558,168.901867 162.605489,169.666833 162.218931,170.378914 C161.832373,171.090994 161.36851,171.73796 160.827329,172.319832 C160.286148,172.901703 159.683941,173.400152 159.020689,173.815193 C158.357437,174.230234 157.641298,174.551683 156.872251,174.779548 C156.103204,175.007414 155.299583,175.121345 154.461363,175.121345 Z M154.461363,171.288337 C155.169374,171.288337 155.818375,171.135751 156.408384,170.830574 C156.998393,170.525397 157.50498,170.110362 157.928159,169.585457 C158.351339,169.060552 158.678891,168.450206 158.910825,167.754402 C159.14276,167.058598 159.258726,166.32008 159.258726,165.538826 C159.258726,164.749434 159.140726,164.004812 158.904722,163.304939 C158.668718,162.605066 158.337097,161.992686 157.909849,161.467781 C157.482601,160.942876 156.976014,160.527841 156.390073,160.222664 C155.804133,159.917486 155.161236,159.7649 154.461363,159.7649 C153.761489,159.7649 153.118592,159.917486 152.532652,160.222664 C151.946711,160.527841 151.442159,160.942876 151.01898,161.467781 C150.595801,161.992686 150.264179,162.605066 150.024107,163.304939 C149.784034,164.004812 149.663999,164.749434 149.663999,165.538826 C149.663999,166.32008 149.784034,167.058598 150.024107,167.754402 C150.264179,168.450206 150.595801,169.060552 151.01898,169.585457 C151.442159,170.110362 151.946711,170.525397 152.532652,170.830574 C153.118592,171.135751 153.761489,171.288337 154.461363,171.288337 Z M153.789976,150.756111 L157.769468,150.756111 L157.769468,151.061287 L154.034116,154.552498 L151.165464,154.552498 L153.789976,150.756111 Z M177.557066,156.285896 L184.588316,156.285896 L184.588316,159.64283 L183.086851,159.64283 L183.086851,174.791755 L179.034116,174.791755 L171.33148,162.828865 L171.33148,171.447029 L172.881773,171.447029 L172.881773,174.791755 L165.86273,174.791755 L165.86273,171.447029 L167.388609,171.447029 L167.388609,159.64283 L165.887144,159.64283 L165.887144,156.285896 L171.477964,156.285896 L179.131773,168.407478 L179.131773,159.64283 L177.557066,159.64283 L177.557066,156.285896 Z" id="WHATSAPP-PREGUNTÓN-Copy" fill="#FFFFFF"></path>
            <path d="M122.485731,94.9619264 C122.571247,94.1052119 122.809137,93.3138005 123.197846,92.5939115 C123.585,91.8709129 124.085657,91.2536431 124.698262,90.7421022 C125.312422,90.2290064 126.012098,89.8496264 126.79729,89.6008527 C127.584037,89.352079 128.415874,89.2712275 129.297466,89.3582983 C130.132413,89.4422595 130.903612,89.683259 131.614172,90.081297 C132.323177,90.4808897 132.926453,90.9924307 133.42711,91.6159199 C133.926212,92.239409 134.300928,92.9437496 134.549701,93.7304965 C134.798475,94.5156885 134.879327,95.3366418 134.793811,96.1949112 C134.708295,97.0531805 134.46574,97.8430371 134.064593,98.562926 C133.665,99.282815 133.159678,99.8954203 132.547073,100.394523 C131.934468,100.89518 131.241011,101.27145 130.468258,101.521778 C129.693949,101.772107 128.888544,101.856068 128.055152,101.772107 C127.173561,101.683481 126.37282,101.439372 125.652931,101.038225 C124.931487,100.638632 124.320437,100.13331 123.81978,99.5222597 C123.319123,98.9096544 122.950627,98.2115331 122.712737,97.4263411 C122.474847,96.641149 122.39866,95.8201957 122.485731,94.9619264 L122.485731,94.9619264 Z M124.141631,86.4896264 C124.303334,84.8663778 124.469701,83.4437031 124.639178,82.2200474 C124.808655,80.9963916 125.017003,79.9095614 125.264222,78.9642213 C125.511441,78.0173263 125.817744,77.1808247 126.181575,76.457826 C126.546962,75.7332726 127.000974,75.0693577 127.540502,74.4676363 C128.081585,73.8674697 128.729951,73.2921804 129.485601,72.7495427 C130.242806,72.2037954 131.155495,71.6347255 132.220557,71.0376686 C133.3758,70.2649152 134.338244,69.5465811 135.106333,68.8857759 C135.874422,68.2265255 136.491691,67.5563913 136.958142,66.8784829 C137.423038,66.1990197 137.775986,65.4837952 138.01543,64.7359192 C138.25332,63.9864884 138.421243,63.1375481 138.516087,62.1875434 C138.652913,60.819288 138.422797,59.673374 137.824186,58.7466919 C137.225574,57.8200098 136.348646,57.2991398 135.188739,57.1825271 C134.470405,57.1110047 133.795606,57.1249982 133.165898,57.2260625 C132.534634,57.3271269 131.965564,57.5743457 131.458688,57.9677192 C130.950257,58.3626475 130.524232,58.9286077 130.182168,59.6671547 C129.838549,60.4041468 129.606879,61.3759192 129.485601,62.5824717 L118.536448,60.3979275 C118.839641,57.8526613 119.506665,55.6758913 120.542186,53.8722818 C121.577707,52.0686723 122.894653,50.6149009 124.491469,49.5094127 C126.088285,48.4054793 127.921437,47.6451646 129.987813,47.2331331 C132.05419,46.8195468 134.269831,46.7309212 136.633181,46.968811 C138.836384,47.1880429 140.866999,47.7197967 142.725028,48.5609628 C144.584611,49.402129 146.16277,50.5324946 147.459503,51.9505048 C148.757791,53.368515 149.726453,55.044628 150.362381,56.9819533 C150.999864,58.9177238 151.197328,61.0929391 150.956328,63.5044893 C150.70289,66.0310974 149.891266,68.2902738 148.521456,70.2835732 C147.151645,72.2768727 145.178559,74.091366 142.602196,75.7317177 C141.286805,76.4889228 140.184426,77.2088117 139.296615,77.8929394 C138.407249,78.5770672 137.676476,79.3467109 137.098077,80.2018705 C136.521233,81.0570302 136.074995,82.0661186 135.759364,83.2275809 C135.443732,84.3905981 135.198068,85.8412598 135.023926,87.5795662 L124.141631,86.4896264 Z" id="Fill-5-Copy" fill="#49D1A9" style="mix-blend-mode: multiply;"></path>
            <path d="M107.029109,53.9378959 C106.984018,53.415471 107.036883,52.9163688 107.189257,52.440589 C107.340076,51.9648093 107.570191,51.5403391 107.878049,51.1656237 C108.187461,50.7909083 108.563731,50.4846056 109.005305,50.2467158 C109.446878,50.0103807 109.936651,49.8688907 110.47307,49.8222456 C110.981501,49.7787102 111.469719,49.8346843 111.937725,49.9948324 C112.407285,50.1534256 112.827091,50.3913155 113.194032,50.708502 C113.564083,51.0241336 113.865721,51.4035136 114.103611,51.8450869 C114.341501,52.2866603 114.481436,52.7702142 114.526527,53.292639 C114.571617,53.8150638 114.515643,54.3141661 114.357049,54.7899459 C114.198456,55.2657256 113.965231,55.6870861 113.655819,56.0555822 C113.344851,56.4240782 112.973246,56.7257164 112.537892,56.9620514 C112.104092,57.1999413 111.631422,57.3398765 111.122991,57.3834119 C110.588128,57.430057 110.081251,57.3740829 109.605471,57.2154896 C109.129692,57.0568964 108.706776,56.8221162 108.33828,56.5127039 C107.971339,56.2032916 107.672811,55.8285761 107.442695,55.385448 C107.211024,54.9423198 107.074199,54.4603207 107.029109,53.9378959 L107.029109,53.9378959 Z M107.067979,48.6856607 C106.982463,47.6967851 106.921825,46.8276319 106.886064,46.0766463 C106.848748,45.3256606 106.851857,44.6539715 106.893838,44.0584694 C106.934264,43.466077 107.024444,42.9327684 107.159715,42.4569886 C107.298095,41.9843185 107.494004,41.5365258 107.748997,41.1167202 C108.003991,40.6953597 108.327396,40.2802186 108.719215,39.8697419 C109.111034,39.4577104 109.591478,39.0161371 110.162103,38.5403573 C110.765379,37.9479649 111.259817,37.4115466 111.645416,36.9295475 C112.031015,36.4475484 112.324879,35.977988 112.527008,35.5193115 C112.729136,35.0606349 112.859743,34.595739 112.918826,34.1199593 C112.97791,33.6457344 112.982575,33.118645 112.931265,32.5402461 C112.859743,31.7068542 112.593866,31.0476038 112.132079,30.5609402 C111.670293,30.0742766 111.08723,29.8612641 110.381334,29.9219027 C109.942871,29.9607736 109.541723,30.0447347 109.174782,30.175341 C108.81095,30.3059472 108.496873,30.5174048 108.237216,30.8112688 C107.979113,31.1035779 107.787868,31.4891772 107.666591,31.9696214 C107.543759,32.4500657 107.514217,33.0564516 107.577966,33.7903341 L100.784888,33.7141471 C100.679159,32.1593114 100.836198,30.7832817 101.251339,29.587613 C101.668035,28.3934992 102.291524,27.3766366 103.121806,26.5354704 C103.953643,25.6958591 104.962732,25.0366088 106.153736,24.5577194 C107.341631,24.0772751 108.657022,23.7771918 110.096799,23.6512501 C111.438623,23.5361923 112.712033,23.6263727 113.918586,23.9202367 C115.123583,24.2156555 116.194865,24.7132029 117.129322,25.4144339 C118.065333,26.1172196 118.831867,27.0112502 119.430479,28.0965255 C120.02909,29.1833557 120.391367,30.4614307 120.517309,31.9291957 C120.651025,33.4684831 120.419354,34.9113707 119.823852,36.2563036 C119.22835,37.6027914 118.253468,38.9104082 116.897651,40.1791542 C116.194865,40.7793208 115.616466,41.335952 115.162454,41.8443833 C114.708442,42.3528146 114.357049,42.8938975 114.108276,43.4707415 C113.859502,44.0475856 113.705573,44.7006166 113.64649,45.4298346 C113.588961,46.1606074 113.606064,47.0561928 113.697799,48.1150359 L107.067979,48.6856607 Z" id="Fill-7-Copy" fill="#49D1A9" style="mix-blend-mode: multiply;"></path>
            <path d="M93.4911536,53.4793748 C86.5581409,51.8374682 80.3465721,53.9022901 77.8930412,54.7185789 C75.3057945,55.5784031 66.1618054,58.7673712 60.561287,68.0886116 C55.5391675,76.4458538 54.265757,88.2548314 59.8693851,98.1715739 L54.2097829,115.633934 L71.154383,109.254443 C78.1184924,113.108881 86.5783538,114.247021 94.4815839,111.910103 C106.105536,108.47547 114.311959,98.2135544 115.77506,86.9036791 C117.828998,71.0256963 106.150626,56.4770981 93.4911536,53.4793748" id="Fill-9-Copy" fill="#49D1A9" style="mix-blend-mode: multiply;"></path>
            <path d="M74.7838362,51.6087519 C72.1965895,52.4685761 63.0526004,55.6575442 57.4520819,64.9787846 C52.367769,73.438646 51.1114617,85.4404232 56.9576442,95.4317978 C63.7927022,107.114834 78.3506294,112.650049 91.3723789,108.800276 C102.996331,105.365643 111.201199,95.1037274 112.6643,83.7938521 C114.719793,67.9158693 103.041421,53.3672711 90.3819485,50.3695478 C83.4489358,48.7276412 77.237367,50.794018 74.7838362,51.6087519" id="Fill-12-Copy" fill="#9FF8DE"></path>
            <polyline id="Fill-14-Copy" fill="#9FF8DE" points="57.2417127 93.578589 51.1001114 112.524263 69.943166 105.429547"></polyline>
            <path d="M76.0485396,55.7858182 C73.8608857,56.5134813 66.1271326,59.2126762 61.389548,67.0941386 C57.0888723,74.2510476 56.0269195,84.4025703 60.9712972,92.8531027 C66.7521766,102.734084 79.0649209,107.417249 90.0793775,104.161423 C99.910604,101.255435 106.852946,92.5747871 108.08904,83.0109923 C109.827346,69.580321 99.9494749,57.273796 89.241321,54.7394137 C83.3780353,53.3509454 78.1242453,55.0970259 76.0485396,55.7858182" id="Fill-16-Copy" fill="#FEFEFE"></path>
            <polyline id="Fill-18-Copy" fill="#FEFEFE" points="63.699412 86.8461502 57.5562559 105.791824 76.4008653 98.6986632"></polyline>
            <path d="M71.3142202,66.0121284 C71.3142202,66.0121284 66.8627254,70.6921841 68.4035676,75.7702777 C69.9444099,80.8483713 77.3625313,90.1493988 84.7246786,92.0338597 C84.7246786,92.0338597 92.256303,95.3425502 96.1371731,91.6342669 L97.9019116,89.5228 L97.9019116,86.7831793 L90.9440216,83.018922 L86.7210877,87.2403011 L79.9311199,83.1883991 L75.4796252,77.0250301 L78.1041879,73.5453077 L75.0240583,66.0121284 L71.3142202,66.0121284 Z" id="Fill-20-Copy" fill="#49D1A9"></path>
            <path d="M119.959123,92.5217672 C120.044639,91.6650527 120.282529,90.8736413 120.671237,90.1537523 C121.058392,89.4307537 121.559049,88.8134839 122.171654,88.3019429 C122.785814,87.7888471 123.48549,87.4094672 124.270682,87.1606935 C125.057429,86.9119197 125.889266,86.8310683 126.770858,86.9181391 C127.605805,87.0021002 128.377003,87.2430998 129.087563,87.6411377 C129.796569,88.0407305 130.399845,88.5522715 130.900502,89.1757606 C131.399604,89.7992498 131.77432,90.5035904 132.023093,91.2903372 C132.271867,92.0755293 132.352719,92.8964826 132.267203,93.7547519 C132.181687,94.6130213 131.939132,95.4028778 131.537985,96.1227668 C131.138392,96.8426557 130.63307,97.455261 130.020465,97.9543633 C129.40786,98.4550204 128.714403,98.8312907 127.941649,99.0816192 C127.167341,99.3319478 126.361936,99.4159089 125.528544,99.3319478 C124.646953,99.2433222 123.846212,98.9992129 123.126323,98.5980653 C122.404879,98.1984725 121.793829,97.6931509 121.293172,97.0821004 C120.792515,96.4694952 120.424019,95.7713739 120.186129,94.9861818 C119.948239,94.2009898 119.872052,93.3800365 119.959123,92.5217672 L119.959123,92.5217672 Z M121.615023,84.0494671 C121.776726,82.4262186 121.943093,81.0035439 122.11257,79.7798881 C122.282047,78.5562324 122.490395,77.4694022 122.737614,76.524062 C122.984833,75.5771671 123.291136,74.7406654 123.654967,74.0176668 C124.020354,73.2931133 124.474366,72.6291985 125.013894,72.027477 C125.554977,71.4273104 126.203343,70.8520212 126.958993,70.3093835 C127.716198,69.7636362 128.628887,69.1945663 129.693949,68.5975093 C130.849192,67.824756 131.811636,67.1064218 132.579725,66.4456166 C133.347813,65.7863663 133.965083,65.1162321 134.431534,64.4383237 C134.89643,63.7588605 135.249378,63.043636 135.488822,62.29576 C135.726712,61.5463292 135.894634,60.6973888 135.989479,59.7473842 C136.126305,58.3791287 135.896189,57.2332148 135.297577,56.3065327 C134.698966,55.3798505 133.822038,54.8589806 132.662131,54.7423679 C131.943797,54.6708454 131.268998,54.684839 130.63929,54.7859033 C130.008026,54.8869676 129.438956,55.1341865 128.93208,55.5275599 C128.423649,55.9224882 127.997624,56.4884484 127.65556,57.2269954 C127.311941,57.9639876 127.08027,58.9357599 126.958993,60.1423125 L116.00984,57.9577682 C116.313033,55.4125021 116.980057,53.235732 118.015578,51.4321226 C119.051099,49.6285131 120.368045,48.1747416 121.964861,47.0708082 C123.561677,45.96532 125.394829,45.2050053 127.461205,44.7929739 C129.527582,44.3793875 131.743223,44.2907619 134.106573,44.5286518 C136.309776,44.7478836 138.340391,45.2796375 140.19842,46.1208036 C142.058003,46.9619697 143.636162,48.0923353 144.932895,49.5103456 C146.231183,50.9283558 147.199845,52.6044687 147.835773,54.5417941 C148.473256,56.4775646 148.67072,58.6527798 148.42972,61.0643301 C148.176282,63.5909382 147.364658,65.8501145 145.994847,67.843414 C144.625037,69.8367134 142.651951,71.6512068 140.075588,73.2915585 C138.760197,74.0487635 137.657818,74.7686525 136.770007,75.4527802 C135.880641,76.1369079 135.149868,76.9065516 134.571469,77.7617113 C133.994625,78.616871 133.548387,79.6259594 133.232756,80.7874217 C132.917124,81.9504388 132.67146,83.4011006 132.497318,85.139407 L121.615023,84.0494671 Z" id="Fill-35-Copy" fill="#9FF8DE"></path>
            <path d="M104.5025,51.4978921 C104.45741,50.9754673 104.510275,50.476365 104.662648,50.0005853 C104.813468,49.5248055 105.043583,49.1003354 105.351441,48.7256199 C105.660853,48.3509045 106.037123,48.0446019 106.478697,47.806712 C106.92027,47.570377 107.410043,47.4288869 107.946462,47.3822419 C108.454893,47.3387064 108.943111,47.3946805 109.411117,47.5548286 C109.880677,47.7134219 110.300483,47.9513117 110.667424,48.2684982 C111.037475,48.5841299 111.339113,48.9635098 111.577003,49.4050832 C111.814893,49.8466565 111.954828,50.3302105 111.999918,50.8526353 C112.045009,51.3750601 111.989035,51.8741624 111.830441,52.3499421 C111.671848,52.8257218 111.438623,53.2470823 111.12921,53.6155784 C110.818243,53.9840745 110.446638,54.2857126 110.011284,54.5220477 C109.577484,54.7599375 109.104814,54.8998727 108.596383,54.9434081 C108.061519,54.9900532 107.554643,54.9340791 107.078863,54.7754859 C106.603084,54.6168926 106.180168,54.3821124 105.811672,54.0727001 C105.444731,53.7632878 105.146202,53.3885724 104.916087,52.9454442 C104.684416,52.502316 104.547591,52.0203169 104.5025,51.4978921 L104.5025,51.4978921 Z M104.541371,46.2456569 C104.455855,45.2567814 104.395217,44.3876282 104.359456,43.6366425 C104.322139,42.8856568 104.325249,42.2139678 104.36723,41.6184657 C104.407655,41.0260733 104.497836,40.4927646 104.633107,40.0169849 C104.771487,39.5443148 104.967396,39.0965221 105.222389,38.6767164 C105.477382,38.2553559 105.800788,37.8402148 106.192607,37.4297382 C106.584425,37.0192615 107.06487,36.5761333 107.635494,36.1003536 C108.238771,35.5079612 108.733209,34.9715428 109.118808,34.4895437 C109.504407,34.0075446 109.798271,33.5379842 110.0004,33.0793077 C110.202528,32.6206312 110.333135,32.1557353 110.392218,31.6799555 C110.451302,31.2057306 110.455967,30.6786413 110.404657,30.1002424 C110.333135,29.2668504 110.067258,28.6076001 109.605471,28.1209365 C109.143685,27.6342729 108.560622,27.4212604 107.854726,27.481899 C107.416263,27.5207699 107.015115,27.604731 106.648174,27.7353372 C106.284342,27.8659434 105.970265,28.0774011 105.710608,28.371265 C105.452505,28.6635741 105.26126,29.0491734 105.139983,29.5296177 C105.017151,30.0100619 104.987609,30.6164479 105.051357,31.3503303 L98.25828,31.2741434 C98.1525512,29.7193076 98.3095896,28.343278 98.7247307,27.1476093 C99.1414267,25.9534954 99.7649159,24.9366328 100.595198,24.0954667 C101.427035,23.2558554 102.436124,22.596605 103.627128,22.1177156 C104.815022,21.6372713 106.130413,21.337188 107.570191,21.2112463 C108.912015,21.0961885 110.185425,21.186369 111.391978,21.4802329 C112.596975,21.7756517 113.668257,22.2731992 114.602714,22.9744301 C115.538725,23.6772159 116.305259,24.5712464 116.90387,25.6565218 C117.502482,26.7449068 117.864759,28.021427 117.990701,29.4891919 C118.124417,31.0284793 117.892746,32.4713669 117.297244,33.8162998 C116.701742,35.1627876 115.72686,36.4704045 114.371043,37.7391505 C113.668257,38.3393171 113.089858,38.8959483 112.635846,39.4043796 C112.181834,39.9128109 111.830441,40.4538937 111.581668,41.0307378 C111.332894,41.6075818 111.178965,42.2606129 111.119881,42.9898308 C111.062352,43.7206036 111.079456,44.616189 111.171191,45.6750322 L104.541371,46.2456569 Z" id="Fill-37-Copy" fill="#9FF8DE"></path>
        </g>
    </g>
</svg>