<?xml version="1.0" encoding="UTF-8" standalone="no"?>
<svg width="200px" height="58px" viewBox="0 0 200 58" version="1.1" xmlns="http://www.w3.org/2000/svg" xmlns:xlink="http://www.w3.org/1999/xlink">
    <!-- Generator: Sketch 41.2 (35397) - http://www.bohemiancoding.com/sketch -->
    <title>Group</title>
    <desc>Created with Sketch.</desc>
    <defs>
        <polygon id="path-1" points="0 41.9891398 168.254379 41.9891398 168.254379 0.0759107169 0 0.0759107169"></polygon>
    </defs>
    <g id="Page-1" stroke="none" stroke-width="1" fill="none" fill-rule="evenodd">
        <g id="Artboard" transform="translate(-166.000000, -3876.000000)">
            <g id="Group" transform="translate(165.000000, 3870.000000)">
                <polyline id="Path-3" fill="#233346" transform="translate(100.500000, 32.486726) rotate(-2.000000) translate(-100.500000, -32.486726) " points="2.24364141 8.0227582 1.15517241 50.1367521 1.15517241 59.8156034 173.138038 61.5074131 199.844828 61.5074131 199.71383 14.0323359 93.9513227 7.46522901 3.30142486 3.466039"></polyline>
                <g id="Group-2-Copy-3" transform="translate(14.069788, 16.250000)">
                    <polygon id="Fill-1" fill="#FFFFFF" points="38.6974824 12.6930093 41.604552 12.6930093 37.8655993 23.3146962 35.0097688 23.3146962 31.2964357 12.6930093 34.3361244 12.6930093 36.4926908 20.5274888"></polygon>
                    <path d="M49.6088646,20.4804943 C50.0323413,19.9038841 50.2448332,19.083026 50.2448332,18.019466 C50.2448332,16.9543602 50.0323413,16.135048 49.6088646,15.5615295 C49.1838808,14.9880109 48.5765459,14.7004787 47.7853528,14.7004787 C46.9926526,14.7004787 46.3838107,14.9880109 45.9558129,15.5615295 C45.527815,16.135048 45.3138161,16.9543602 45.3138161,18.019466 C45.3138161,19.083026 45.527815,19.9038841 45.9558129,20.4804943 C46.3838107,21.0571046 46.9926526,21.3461827 47.7853528,21.3461827 C48.5765459,21.3461827 49.1838808,21.0571046 49.6088646,20.4804943 L49.6088646,20.4804943 Z M51.7744732,22.0155453 C50.9003932,23.1223897 49.5742028,23.6758119 47.794395,23.6758119 C46.0145872,23.6758119 44.6868898,23.1223897 43.8128097,22.0155453 C42.9402367,20.9087009 42.5016897,19.5761592 42.5016897,18.019466 C42.5016897,16.4859609 42.9402367,15.1596027 43.8128097,14.0357537 C44.6868898,12.9134506 46.0145872,12.3522991 47.794395,12.3522991 C49.5742028,12.3522991 50.9003932,12.9134506 51.7744732,14.0357537 C52.6485533,15.1596027 53.0855933,16.4859609 53.0855933,18.019466 C53.0855933,19.5761592 52.6485533,20.9087009 51.7744732,22.0155453 L51.7744732,22.0155453 Z" id="Fill-2" fill="#FFFFFF"></path>
                    <path d="M53.9599747,14.7683425 L53.9599747,12.7911721 L55.4037138,12.7911721 L55.4037138,9.82773541 L58.0832212,9.82773541 L58.0832212,12.7911721 L59.7650718,12.7911721 L59.7650718,14.7683425 L58.0832212,14.7683425 L58.0832212,20.3814039 C58.0832212,20.8173399 58.1374745,21.0878675 58.2444739,21.1960785 C58.3529804,21.3027437 58.681514,21.3568492 59.2330886,21.3568492 C59.3144685,21.3568492 59.4018765,21.3553033 59.4938056,21.3522116 C59.5857347,21.3491198 59.6761568,21.3429364 59.7650718,21.3367529 L59.7650718,23.412859 L58.4825854,23.4607811 C57.2031131,23.5056114 56.329033,23.279914 55.8603453,22.7790515 C55.5559243,22.4606019 55.4037138,21.9705604 55.4037138,21.3073813 L55.4037138,14.7683425 L53.9599747,14.7683425 Z" id="Fill-4" fill="#FFFFFF"></path>
                    <path d="M67.2610616,18.1500922 C67.0877527,18.2598491 66.9129367,18.3495097 66.7366136,18.4175281 C66.5587835,18.4870923 66.317658,18.5504731 66.0087159,18.6076703 L65.3923388,18.7251566 C64.8151446,18.82873 64.399203,18.9554916 64.1475283,19.1054411 C63.7225445,19.3589642 63.5085456,19.7516157 63.5085456,20.2849415 C63.5085456,20.7579784 63.6381506,21.101162 63.8988676,21.3129464 C64.1595845,21.5247309 64.4760618,21.6298502 64.8498064,21.6298502 C65.4405639,21.6298502 65.9861104,21.4536208 66.4849388,21.1027078 C66.9822602,20.7517949 67.2414702,20.1133497 67.2610616,19.1827347 L67.2610616,18.1500922 Z M65.6048307,16.8531056 C66.1096872,16.7897248 66.4698685,16.7077936 66.6868815,16.6104036 C67.0772034,16.4419036 67.2701038,16.1775595 67.2701038,15.8220089 C67.2701038,15.386073 67.1209074,15.0846279 66.8225146,14.9192196 C66.5241217,14.7538113 66.0855747,14.6718801 65.5083805,14.6718801 C64.8588486,14.6718801 64.4007101,14.8341967 64.1309509,15.1588298 C63.9380505,15.39844 63.8099525,15.7230731 63.74515,16.1327292 L61.1334592,16.1327292 C61.1907265,15.2036601 61.4454153,14.4399993 61.8960186,13.8417468 C62.6148741,12.9080401 63.8491354,12.4396408 65.5988025,12.4396408 C66.7381206,12.4396408 67.7493408,12.6699758 68.6324631,13.1306456 C69.5170923,13.5928614 69.9586535,14.4631874 69.9586535,15.7431694 L69.9586535,20.6157581 C69.9586535,20.9543041 69.9646816,21.3624143 69.9782449,21.8431806 C69.9978364,22.2064605 70.0505826,22.4538 70.1394976,22.5836533 C70.2284127,22.7135065 70.3610317,22.8217176 70.5388618,22.9051947 L70.5388618,23.3148508 L67.5941163,23.3148508 C67.5112294,23.0999745 67.4539621,22.900557 67.4223143,22.7104148 C67.3906666,22.5218184 67.365047,22.308488 67.3469626,22.067332 C66.971711,22.4831716 66.5376851,22.8371763 66.0463918,23.130892 C65.4616624,23.4756214 64.7985672,23.6472132 64.0586132,23.6472132 C63.1167166,23.6472132 62.3375798,23.372048 61.7227097,22.8232634 C61.1078396,22.2744789 60.8004045,21.4953593 60.8004045,20.4889966 C60.8004045,19.1827347 61.2947119,18.2382069 62.2833265,17.6523214 C62.825859,17.3354176 63.6245873,17.1081744 64.6764974,16.9705918 L65.6048307,16.8531056 Z" id="Fill-6" fill="#FFFFFF"></path>
                    <mask id="mask-2" fill="white">
                        <use xlink:href="#path-1"></use>
                    </mask>
                    <g id="Clip-9"></g>
                    <path d="M72.3632778,23.3150053 L75.1090947,23.3150053 L75.1090947,12.6933184 L72.3632778,12.6933184 L72.3632778,23.3150053 Z M72.3632778,11.4257034 L75.1090947,11.4257034 L75.1090947,8.86264749 L72.3632778,8.86264749 L72.3632778,11.4257034 Z" id="Fill-8" fill="#FFFFFF" mask="url(#mask-2)"></path>
                    <path d="M86.0813612,13.302392 C86.7595267,13.8774564 87.0986095,14.8312595 87.0986095,16.1622553 L87.0986095,23.3150053 L84.3241589,23.3150053 L84.3241589,16.8532601 C84.3241589,16.2952003 84.2518212,15.8669938 84.1071459,15.5670946 C83.8434149,15.0214018 83.3400653,14.7493283 82.5986043,14.7493283 C81.6868484,14.7493283 81.0614291,15.1481633 80.7208393,15.9473791 C80.5460233,16.3694022 80.4571082,16.9089115 80.4571082,17.5659072 L80.4571082,23.3150053 L77.7504742,23.3150053 L77.7504742,12.7118689 L80.3727143,12.7118689 L80.3727143,14.2623786 C80.7193322,13.7166857 81.0463587,13.3224884 81.3553008,13.0828782 C81.9098895,12.6546716 82.6136747,12.4397954 83.4651492,12.4397954 C84.5306226,12.4397954 85.4031956,12.7273276 86.0813612,13.302392" id="Fill-10" fill="#FFFFFF" mask="url(#mask-2)"></path>
                    <path d="M88.5518429,14.7683425 L88.5518429,12.7911721 L89.995582,12.7911721 L89.995582,9.82773541 L92.6750894,9.82773541 L92.6750894,12.7911721 L94.35694,12.7911721 L94.35694,14.7683425 L92.6750894,14.7683425 L92.6750894,20.3814039 C92.6750894,20.8173399 92.7293426,21.0878675 92.8363421,21.1960785 C92.9448486,21.3027437 93.2733821,21.3568492 93.8249568,21.3568492 C93.9063366,21.3568492 93.9937446,21.3553033 94.0856737,21.3522116 C94.1776028,21.3491198 94.2680249,21.3429364 94.35694,21.3367529 L94.35694,23.412859 L93.0744536,23.4607811 C91.7949812,23.5056114 90.9209012,23.279914 90.4522134,22.7790515 C90.1477925,22.4606019 89.995582,21.9705604 89.995582,21.3073813 L89.995582,14.7683425 L88.5518429,14.7683425 Z" id="Fill-11" fill="#FFFFFF" mask="url(#mask-2)"></path>
                    <path d="M98.7927454,15.3070789 C98.4099587,15.7120974 98.1703402,16.2593361 98.0708759,16.9518868 L102.736655,16.9518868 C102.686923,16.2145058 102.447304,15.6549001 102.014785,15.2730697 C101.583773,14.8912393 101.047269,14.6995512 100.409794,14.6995512 C99.7135435,14.6995512 99.1755322,14.9020604 98.7927454,15.3070789 M102.843654,12.9078855 C103.565524,13.240248 104.16231,13.7642986 104.632504,14.4784915 C105.057488,15.1107532 105.331768,15.8419506 105.458359,16.6751757 C105.530697,17.1636713 105.560838,17.8654972 105.547274,18.7837452 L98.0045664,18.7837452 C98.0467633,19.848851 98.4084516,20.5955072 99.0881242,21.0252597 C99.5010517,21.2911496 99.9983731,21.4256405 100.581595,21.4256405 C101.197973,21.4256405 101.698308,21.2617781 102.084109,20.9371449 C102.295094,20.7624614 102.480459,20.5182136 102.641712,20.2059475 L105.405613,20.2059475 C105.333275,20.8366633 104.998714,21.4766543 104.401928,22.1259206 C103.473595,23.1585631 102.176038,23.6764302 100.506244,23.6764302 C99.1273071,23.6764302 97.9126373,23.2404943 96.8592201,22.3686225 C95.805803,21.4967506 95.2783409,20.0807318 95.2783409,18.1159284 C95.2783409,16.2763407 95.7545638,14.8649595 96.7055026,13.8833308 C97.6564414,12.901702 98.8907027,12.4101147 100.408286,12.4101147 C101.309493,12.4101147 102.121785,12.575523 102.843654,12.9078855" id="Fill-12" fill="#FFFFFF" mask="url(#mask-2)"></path>
                    <polygon id="Fill-13" fill="#FFFFFF" mask="url(#mask-2)" points="106.973833 23.3150053 109.681974 23.3150053 109.681974 8.95076219 106.973833 8.95076219"></polygon>
                    <path d="M112.359975,23.3150053 L115.105792,23.3150053 L115.105792,12.6933184 L112.359975,12.6933184 L112.359975,23.3150053 Z M112.359975,11.4257034 L115.105792,11.4257034 L115.105792,8.86264749 L112.359975,8.86264749 L112.359975,11.4257034 Z" id="Fill-14" fill="#FFFFFF" mask="url(#mask-2)"></path>
                    <path d="M123.773651,20.2988544 C124.209184,19.8088129 124.426197,19.0266017 124.426197,17.9553123 C124.426197,16.9489496 124.219734,16.1821971 123.806806,15.6550547 C123.392372,15.1294582 122.83929,14.86666 122.146054,14.86666 C121.199636,14.86666 120.547091,15.3242381 120.188416,16.2393944 C119.99853,16.726344 119.903587,17.3276883 119.903587,18.043427 C119.903587,18.66023 120.004558,19.2090146 120.206501,19.6897808 C120.57271,20.5863866 121.22827,21.0346895 122.174688,21.0346895 C122.804628,21.0346895 123.338118,20.7904417 123.773651,20.2988544 M122.851346,12.6823427 C123.508413,12.9621456 124.040397,13.4753751 124.445789,14.2220313 L124.445789,12.6931639 L127.086113,12.6931639 L127.086113,22.7691579 C127.086113,24.1403464 126.861565,25.172989 126.410962,25.8686314 C125.63936,27.0635905 124.156438,27.661843 121.96521,27.661843 C120.642034,27.661843 119.56149,27.3944071 118.726593,26.8626271 C117.890189,26.3293013 117.427529,25.534723 117.338614,24.4742548 L120.283359,24.4742548 C120.360218,24.8004338 120.483795,25.0338605 120.65409,25.1760807 C120.944948,25.4296037 121.436241,25.5563652 122.12797,25.5563652 C123.103021,25.5563652 123.75406,25.2224569 124.084101,24.5530943 C124.299607,24.1248877 124.408113,23.4029655 124.408113,22.3888734 L124.408113,21.7071438 C124.147396,22.1616302 123.868595,22.5032679 123.571709,22.7305111 C123.03219,23.1525342 122.332926,23.3643187 121.47241,23.3643187 C120.141698,23.3643187 119.079239,22.8850983 118.283525,21.9266576 C117.489317,20.968217 117.09146,19.6696844 117.09146,18.0326059 C117.09146,16.4542706 117.474247,15.1279123 118.239821,14.0519854 C119.005394,12.9776043 120.090459,12.4396408 121.493508,12.4396408 C122.013435,12.4396408 122.465545,12.5200262 122.851346,12.6823427" id="Fill-15" fill="#FFFFFF" mask="url(#mask-2)"></path>
                    <path d="M132.311002,15.3070789 C131.928215,15.7120974 131.688597,16.2593361 131.589133,16.9518868 L136.254912,16.9518868 C136.205179,16.2145058 135.964054,15.6549001 135.533042,15.2730697 C135.10203,14.8912393 134.565526,14.6995512 133.92805,14.6995512 C133.2318,14.6995512 132.693789,14.9020604 132.311002,15.3070789 M136.361911,12.9078855 C137.083781,13.240248 137.680566,13.7642986 138.150761,14.4784915 C138.575745,15.1107532 138.850025,15.8419506 138.976616,16.6751757 C139.048954,17.1636713 139.079094,17.8654972 139.065531,18.7837452 L131.522823,18.7837452 C131.56502,19.848851 131.926708,20.5955072 132.606381,21.0252597 C133.019308,21.2911496 133.51663,21.4256405 134.098345,21.4256405 C134.716229,21.4256405 135.216565,21.2617781 135.602366,20.9371449 C135.81335,20.7624614 135.998716,20.5182136 136.159968,20.2059475 L138.92387,20.2059475 C138.851532,20.8366633 138.51697,21.4766543 137.920185,22.1259206 C136.993359,23.1585631 135.694295,23.6764302 134.0245,23.6764302 C132.645564,23.6764302 131.429387,23.2404943 130.37597,22.3686225 C129.322553,21.4967506 128.796598,20.0807318 128.796598,18.1159284 C128.796598,16.2763407 129.271314,14.8649595 130.223759,13.8833308 C131.173191,12.901702 132.408959,12.4101147 133.926543,12.4101147 C134.82775,12.4101147 135.640041,12.575523 136.361911,12.9078855" id="Fill-16" fill="#FFFFFF" mask="url(#mask-2)"></path>
                    <path d="M148.785301,13.302392 C149.463467,13.8774564 149.802549,14.8312595 149.802549,16.1622553 L149.802549,23.3150053 L147.028099,23.3150053 L147.028099,16.8532601 C147.028099,16.2952003 146.955761,15.8669938 146.811086,15.5670946 C146.547355,15.0214018 146.044005,14.7493283 145.302544,14.7493283 C144.390788,14.7493283 143.765369,15.1481633 143.424779,15.9473791 C143.248456,16.3694022 143.161048,16.9089115 143.161048,17.5659072 L143.161048,23.3150053 L140.452907,23.3150053 L140.452907,12.7118689 L143.076654,12.7118689 L143.076654,14.2623786 C143.423272,13.7166857 143.750299,13.3224884 144.059241,13.0828782 C144.613829,12.6546716 145.317615,12.4397954 146.169089,12.4397954 C147.234562,12.4397954 148.107135,12.7273276 148.785301,13.302392" id="Fill-17" fill="#FFFFFF" mask="url(#mask-2)"></path>
                    <path d="M151.256084,14.7683425 L151.256084,12.7911721 L152.699823,12.7911721 L152.699823,9.82773541 L155.379331,9.82773541 L155.379331,12.7911721 L157.061181,12.7911721 L157.061181,14.7683425 L155.379331,14.7683425 L155.379331,20.3814039 C155.379331,20.8173399 155.433584,21.0878675 155.540583,21.1960785 C155.64909,21.3027437 155.977623,21.3568492 156.529198,21.3568492 C156.610578,21.3568492 156.697986,21.3553033 156.789915,21.3522116 C156.881844,21.3491198 156.972266,21.3429364 157.061181,21.3367529 L157.061181,23.412859 L155.777188,23.4607811 C154.499223,23.5056114 153.625142,23.279914 153.156455,22.7790515 C152.852034,22.4606019 152.699823,21.9705604 152.699823,21.3073813 L152.699823,14.7683425 L151.256084,14.7683425 Z" id="Fill-18" fill="#FFFFFF" mask="url(#mask-2)"></path>
                    <path d="M161.496987,15.3070789 C161.1142,15.7120974 160.873074,16.2593361 160.775117,16.9518868 L165.440896,16.9518868 C165.391164,16.2145058 165.150038,15.6549001 164.719027,15.2730697 C164.286508,14.8912393 163.75151,14.6995512 163.112528,14.6995512 C162.417785,14.6995512 161.879773,14.9020604 161.496987,15.3070789 M165.546389,12.9078855 C166.269765,13.240248 166.866551,13.7642986 167.336746,14.4784915 C167.761729,15.1107532 168.03601,15.8419506 168.162601,16.6751757 C168.234938,17.1636713 168.265079,17.8654972 168.251516,18.7837452 L160.708808,18.7837452 C160.751005,19.848851 161.111186,20.5955072 161.792365,21.0252597 C162.205293,21.2911496 162.702614,21.4256405 163.28433,21.4256405 C163.902214,21.4256405 164.402549,21.2617781 164.78835,20.9371449 C164.999335,20.7624614 165.1847,20.5182136 165.345953,20.2059475 L168.109854,20.2059475 C168.037517,20.8366633 167.702955,21.4766543 167.106169,22.1259206 C166.177836,23.1585631 164.880279,23.6764302 163.210485,23.6764302 C161.833055,23.6764302 160.616879,23.2404943 159.563461,22.3686225 C158.508537,21.4967506 157.982582,20.0807318 157.982582,18.1159284 C157.982582,16.2763407 158.458805,14.8649595 159.409744,13.8833308 C160.360683,12.901702 161.593437,12.4101147 163.112528,12.4101147 C164.013734,12.4101147 164.824519,12.575523 165.546389,12.9078855" id="Fill-19" fill="#FFFFFF" mask="url(#mask-2)"></path>
                    <path d="M13.9893496,33.1257278 L13.9893496,18.8495993 C13.3669443,19.1340398 12.6345255,19.2979022 11.7875721,19.2979022 L10.691958,19.2979022 L4.41968021,25.7333676 L16.756265,38.3878762 L16.756265,34.0362464 L14.8785,34.0362464 C14.4052911,34.0362464 13.9893496,33.6080398 13.9893496,33.1257278" id="Fill-20" fill="#FFFFFF" mask="url(#mask-2)"></path>
                    <path d="M19.3616263,28.7945034 C18.3549273,28.7945034 17.5381145,27.9597325 17.5381145,26.9239982 C17.5381145,25.8929016 18.3549273,25.0565848 19.3616263,25.0565848 C20.3683254,25.0565848 21.1836311,25.8929016 21.1836311,26.9239982 C21.1836311,27.9597325 20.3683254,28.7945034 19.3616263,28.7945034 L19.3616263,28.7945034 Z M23.4698025,22.5306299 C21.833163,23.7642358 19.4023163,23.9250065 17.384397,21.8581755 L15.7643349,20.1963631 L15.7643349,32.2139724 L17.6436069,32.2139724 C18.1153088,32.2139724 18.5297433,32.6406331 18.5297433,33.1260369 L18.5297433,35.6968222 C19.2907957,35.710735 20.5160148,35.6272579 21.2619969,35.0691981 C22.3184281,34.2808034 23.2829302,35.6241662 22.5173567,36.350726 C21.3735174,37.4359282 19.5289072,37.5518686 18.5297433,37.5286806 L18.5297433,40.2045851 L20.2703682,41.9885214 L31.3561143,30.6201783 L23.4698025,22.5306299 Z" id="Fill-21" fill="#FFFFFF" mask="url(#mask-2)"></path>
                    <path d="M17.9050774,5.67552307 C21.8896768,5.68943592 22.0976475,0.0841038388 17.9020634,0.0779203506 L8.7423074,0.0763744785 C9.20345997,0.447383772 9.66461254,0.880227948 10.1589199,1.38418224 L14.3349126,5.66779371 L17.9050774,5.67552307 Z" id="Fill-22" fill="#FFFFFF" mask="url(#mask-2)"></path>
                    <path d="M22.4988201,16.6150413 L8.90235447,2.67127531 C7.19639136,0.916710528 6.08419987,0.239618568 3.7603526,0.117494675 C3.50114266,0.106673571 3.22686237,0.0989442105 2.9360047,0.0989442105 L0.000301406908,0.0989442105 L0.000301406908,7.15894189 L5.56577998,7.15894189 L8.39599086,10.0667272 L11.7883256,10.0636355 C16.4932875,10.0636355 17.7079573,14.8372884 15.6629114,17.5209223 L18.6377976,20.5724737 C21.4589663,23.4632545 25.4661712,19.6604092 22.4988201,16.6150413" id="Fill-23" fill="#FFFFFF" mask="url(#mask-2)"></path>
                    <path d="M11.7881749,17.4788746 C15.7848305,17.4788746 15.9958154,11.8812719 11.7881749,11.8812719 L0.000150703454,11.8812719 L0.000150703454,17.4788746 L11.7881749,17.4788746 Z" id="Fill-24" fill="#FFFFFF" mask="url(#mask-2)"></path>
                </g>
            </g>
        </g>
    </g>
</svg>