<?xml version="1.0" encoding="UTF-8" standalone="no"?>
<svg width="171px" height="76px" viewBox="0 0 171 76" version="1.1" xmlns="http://www.w3.org/2000/svg" xmlns:xlink="http://www.w3.org/1999/xlink">
    <!-- Generator: Sketch 41.2 (35397) - http://www.bohemiancoding.com/sketch -->
    <title>Group 2</title>
    <desc>Created with Sketch.</desc>
    <defs></defs>
    <g id="Page-1" stroke="none" stroke-width="1" fill="none" fill-rule="evenodd">
        <g id="Artboard" transform="translate(-912.000000, -3874.000000)" fill="#042637">
            <g id="Group-2" transform="translate(912.000000, 3874.000000)">
                <path d="M27.8683965,7.05826823 C27.556503,7.60319283 27.1130359,8.0231105 26.5379821,8.31803385 C25.9629283,8.6129572 25.2874939,8.76041667 24.5116586,8.76041667 C23.728026,8.76041667 23.045769,8.6129572 22.4648672,8.31803385 C21.8839654,8.0231105 21.4356251,7.60319283 21.1198329,7.05826823 C20.8040406,6.51334363 20.6461469,5.87370159 20.6461469,5.13932292 L20.6461469,0.264322917 L22.7748099,0.264322917 L22.7748099,5.13932292 C22.7748099,5.69791946 22.9366023,6.14322751 23.2601919,6.47526042 C23.5837815,6.80729333 24.0048315,6.97330729 24.5233546,6.97330729 C25.0340803,6.97330729 25.4434345,6.80924643 25.7514294,6.48111979 C26.0594244,6.15299315 26.2134195,5.705732 26.2134195,5.13932292 L26.2134195,0.264322917 L28.3362346,0.264322917 L28.3362346,5.13932292 C28.3362346,5.87370159 28.1802901,6.51334363 27.8683965,7.05826823 Z M37.3191148,8.66666667 L33.459451,3.49283854 L33.459451,8.66666667 L31.4594434,8.66666667 L31.4594434,0.264322917 L33.3424915,0.264322917 L37.2080033,5.44986979 L37.2080033,0.264322917 L39.1963149,0.264322917 L39.1963149,8.66666667 L37.3191148,8.66666667 Z M52.9866208,1.02604167 C53.5792186,1.53385671 53.8755131,2.25650573 53.8755131,3.19401042 C53.8755131,4.17839034 53.5792186,4.94303113 52.9866208,5.48795573 C52.394023,6.03288033 51.5636188,6.30533854 50.4953833,6.30533854 L48.9749097,6.30533854 L48.9749097,8.66666667 L46.8403987,8.66666667 L46.8403987,0.264322917 L50.4953833,0.264322917 C51.5636188,0.264322917 52.394023,0.518226628 52.9866208,1.02604167 Z M48.9749097,4.62369792 L50.3901197,4.62369792 C50.8618588,4.62369792 51.2244296,4.50748814 51.4778432,4.2750651 C51.7312567,4.04264207 51.8579616,3.70573137 51.8579616,3.26432292 C51.8579616,2.830727 51.7302821,2.50260528 51.4749192,2.27994792 C51.2195563,2.05729055 50.8579601,1.94596354 50.3901197,1.94596354 L48.9749097,1.94596354 L48.9749097,4.62369792 Z M60.3905477,6.30533854 L58.7121787,6.30533854 L58.7121787,8.66666667 L56.5776677,8.66666667 L56.5776677,0.264322917 L60.3262199,0.264322917 C61.4373408,0.264322917 62.29601,0.518226628 62.9022531,1.02604167 C63.5084963,1.53385671 63.8116133,2.25650573 63.8116133,3.19401042 C63.8116133,3.83463862 63.6819845,4.3824847 63.4227229,4.8375651 C63.1634614,5.2926455 62.7862708,5.64518104 62.2911397,5.89518229 L64.0513803,8.66666667 L61.6361664,8.66666667 L60.3905477,6.30533854 Z M60.3262199,4.62369792 C60.7901616,4.62369792 61.1498085,4.50748814 61.4051714,4.2750651 C61.6605343,4.04264207 61.7882138,3.70573137 61.7882138,3.26432292 C61.7882138,2.830727 61.6605343,2.50260528 61.4051714,2.27994792 C61.1498085,2.05729055 60.7901616,1.94596354 60.3262199,1.94596354 L58.7121787,1.94596354 L58.7121787,4.62369792 L60.3262199,4.62369792 Z M73.1366001,0.753580729 C73.828614,1.12662947 74.3714956,1.63639 74.7652612,2.2828776 C75.1590269,2.92936521 75.3559067,3.65299079 75.3559067,4.45377604 C75.3559067,5.26237383 75.1590269,5.99478839 74.7652612,6.65104167 C74.3714956,7.30729495 73.828614,7.82291479 73.1366001,8.19791667 C72.4445862,8.57291854 71.6716865,8.76041667 70.8178778,8.76041667 C69.9718665,8.76041667 69.20384,8.57291854 68.5137755,8.19791667 C67.8237109,7.82291479 67.2808293,7.30729495 66.8851143,6.65104167 C66.4893993,5.99478839 66.2915448,5.26237383 66.2915448,4.45377604 C66.2915448,3.64517825 66.4893993,2.91764646 66.8851143,2.27115885 C67.2808293,1.62467125 67.8217616,1.11686382 68.5079275,0.747721354 C69.1940934,0.378578883 69.9640691,0.194010417 70.8178778,0.194010417 C71.6716865,0.194010417 72.4445862,0.380531989 73.1366001,0.753580729 Z M69.6629027,2.3063151 C69.298377,2.52311306 69.0089051,2.82096165 68.7944783,3.19986979 C68.5800515,3.57877794 68.4728397,4.00064872 68.4728397,4.46549479 C68.4728397,4.93034087 68.5800515,5.35514131 68.7944783,5.73990885 C69.0089051,6.1246764 69.298377,6.4264312 69.6629027,6.64518229 C70.0274283,6.86393339 70.4202134,6.97330729 70.8412697,6.97330729 C71.2662247,6.97330729 71.6560858,6.86393339 72.0108648,6.64518229 C72.3656437,6.4264312 72.6473184,6.1246764 72.8558972,5.73990885 C73.0644761,5.35514131 73.1687639,4.93034087 73.1687639,4.46549479 C73.1687639,4.00064872 73.0644761,3.57877794 72.8558972,3.19986979 C72.6473184,2.82096165 72.3656437,2.52311306 72.0108648,2.3063151 C71.6560858,2.08951715 71.2662247,1.98111979 70.8412697,1.98111979 C70.4202134,1.98111979 70.0274283,2.08951715 69.6629027,2.3063151 Z M82.3914111,8.66666667 L80.268596,8.66666667 L80.268596,6.01236979 L77.1691691,0.264322917 L79.2978321,0.264322917 L81.3212316,3.92643229 L83.2978473,0.264322917 L85.4323584,0.264322917 L82.3914111,5.95377604 L82.3914111,8.66666667 Z M89.9356894,1.94596354 L89.9356894,3.61588542 L93.9357046,3.61588542 L93.9357046,5.29752604 L89.9356894,5.29752604 L89.9356894,6.98502604 L94.4971102,6.98502604 L94.4971102,8.66666667 L87.8011783,8.66666667 L87.8011783,0.264322917 L94.3684548,0.264322917 L94.3684548,1.94596354 L89.9356894,1.94596354 Z M103.237299,0.577799479 C103.839644,0.833660133 104.353286,1.17838325 104.778241,1.61197917 L103.544318,3.07682292 C103.271411,2.74088374 102.945877,2.47428484 102.567706,2.27701823 C102.189535,2.07975162 101.81137,1.98111979 101.433199,1.98111979 C100.992649,1.98111979 100.594991,2.08756404 100.240212,2.30045573 C99.8854331,2.51334742 99.6066824,2.80533669 99.4039515,3.17643229 C99.2012207,3.5475279 99.0998568,3.96158626 99.0998568,4.41861979 C99.0998568,4.88346587 99.2012207,5.30338354 99.4039515,5.67838542 C99.6066824,6.05338729 99.8864077,6.34928277 100.243136,6.56608073 C100.599864,6.78287869 100.996548,6.89127604 101.433199,6.89127604 C101.784079,6.89127604 102.149574,6.8033863 102.529694,6.62760417 C102.909815,6.45182204 103.248019,6.21159007 103.544318,5.90690104 L104.789937,7.22526042 C104.333793,7.69010649 103.796759,8.06217308 103.17882,8.34147135 C102.560881,8.62076963 101.943925,8.76041667 101.327935,8.76041667 C100.497519,8.76041667 99.7470361,8.57291854 99.0764649,8.19791667 C98.4058937,7.82291479 97.8786065,7.30534184 97.4945876,6.64518229 C97.1105686,5.98502274 96.918562,5.25065508 96.918562,4.44205729 C96.918562,3.64127204 97.1144672,2.91959957 97.5062835,2.27701823 C97.8980998,1.63443689 98.4351335,1.12662947 99.1174007,0.753580729 C99.7996679,0.380531989 100.559897,0.194010417 101.398111,0.194010417 C102.021898,0.194010417 102.634955,0.321938825 103.237299,0.577799479 Z M111.234796,1.98111979 L111.234796,8.66666667 L109.100285,8.66666667 L109.100285,1.98111979 L106.597351,1.98111979 L106.597351,0.252604167 L113.761121,0.252604167 L113.761121,1.98111979 L111.234796,1.98111979 Z M122.12704,0.753580729 C122.819054,1.12662947 123.361935,1.63639 123.755701,2.2828776 C124.149467,2.92936521 124.346347,3.65299079 124.346347,4.45377604 C124.346347,5.26237383 124.149467,5.99478839 123.755701,6.65104167 C123.361935,7.30729495 122.819054,7.82291479 122.12704,8.19791667 C121.435026,8.57291854 120.662126,8.76041667 119.808318,8.76041667 C118.962306,8.76041667 118.19428,8.57291854 117.504215,8.19791667 C116.814151,7.82291479 116.271269,7.30729495 115.875554,6.65104167 C115.479839,5.99478839 115.281985,5.26237383 115.281985,4.45377604 C115.281985,3.64517825 115.479839,2.91764646 115.875554,2.27115885 C116.271269,1.62467125 116.812202,1.11686382 117.498367,0.747721354 C118.184533,0.378578883 118.954509,0.194010417 119.808318,0.194010417 C120.662126,0.194010417 121.435026,0.380531989 122.12704,0.753580729 Z M118.653343,2.3063151 C118.288817,2.52311306 117.999345,2.82096165 117.784918,3.19986979 C117.570491,3.57877794 117.46328,4.00064872 117.46328,4.46549479 C117.46328,4.93034087 117.570491,5.35514131 117.784918,5.73990885 C117.999345,6.1246764 118.288817,6.4264312 118.653343,6.64518229 C119.017868,6.86393339 119.410653,6.97330729 119.83171,6.97330729 C120.256665,6.97330729 120.646526,6.86393339 121.001305,6.64518229 C121.356084,6.4264312 121.637758,6.1246764 121.846337,5.73990885 C122.054916,5.35514131 122.159204,4.93034087 122.159204,4.46549479 C122.159204,4.00064872 122.054916,3.57877794 121.846337,3.19986979 C121.637758,2.82096165 121.356084,2.52311306 121.001305,2.3063151 C120.646526,2.08951715 120.256665,1.98111979 119.83171,1.98111979 C119.410653,1.98111979 119.017868,2.08951715 118.653343,2.3063151 Z M137.36472,0.794596354 C138.03919,1.14811375 138.564528,1.64224943 138.940749,2.27701823 C139.316971,2.91178703 139.505079,3.64127192 139.505079,4.46549479 C139.505079,5.28190512 139.313072,6.00846036 138.929053,6.64518229 C138.545034,7.28190423 138.00995,7.77799301 137.323784,8.13346354 C136.637618,8.48893407 135.850099,8.66666667 134.961202,8.66666667 L131.440721,8.66666667 L131.440721,0.264322917 L135.048922,0.264322917 C135.918325,0.264322917 136.69025,0.441078962 137.36472,0.794596354 Z M133.575232,6.96158854 L135.095705,6.96158854 C135.528458,6.96158854 135.91442,6.85807395 136.253604,6.65104167 C136.592789,6.44400938 136.857894,6.15202011 137.048929,5.7750651 C137.239964,5.39811009 137.33548,4.96549723 137.33548,4.47721354 C137.33548,3.98892985 137.236065,3.55534044 137.037233,3.17643229 C136.838401,2.79752415 136.560625,2.50162867 136.203897,2.28873698 C135.847168,2.07584529 135.446586,1.96940104 135.002138,1.96940104 L133.575232,1.96940104 L133.575232,6.96158854 Z M144.35344,1.94596354 L144.35344,3.61588542 L148.353456,3.61588542 L148.353456,5.29752604 L144.35344,5.29752604 L144.35344,6.98502604 L148.914861,6.98502604 L148.914861,8.66666667 L142.218929,8.66666667 L142.218929,0.264322917 L148.786206,0.264322917 L148.786206,1.94596354 L144.35344,1.94596354 Z" id="UN-PROYECTO-DE"></path>
                <g id="Group-10" transform="translate(0.000000, 20.000000)">
                    <path d="M9.65178871,47.2882156 C8.65138919,46.6504758 8.35315688,45.3062578 8.98170979,44.3000037 C9.61215024,43.2899307 10.9296575,42.9920642 11.926282,43.6336228 C12.9210189,44.2790003 13.2230263,45.6174901 12.5906983,46.6294724 C12.5095338,46.7650399 12.4094938,46.8929697 12.3019037,47.0018055 C11.6129493,47.7025556 10.5087347,47.8438512 9.65178871,47.2882156 L9.65178871,47.2882156 Z" id="Fill-1"></path>
                    <path d="M3.50744808,37.9649943 C2.50704855,37.3272545 2.21070379,35.9830365 2.8392567,34.9748729 C3.46780961,33.9667094 4.78531691,33.6669335 5.78005379,34.3104015 C6.77667823,34.9557789 7.07868563,36.2942688 6.44635763,37.3062511 C6.36330559,37.4418185 6.26515319,37.567839 6.1556755,37.6766748 C5.46672111,38.3793342 4.36439409,38.5206299 3.50744808,37.9649943" id="Fill-3"></path>
                    <path d="M1.66501416,27.399326 C0.664614631,26.7596768 0.364494773,25.4173682 0.99493523,24.4092046 C1.62537569,23.3991317 2.94099544,23.1012652 3.93761987,23.7447332 C4.93235676,24.3882012 5.23436416,25.7266911 4.60203616,26.7386734 C4.51898413,26.8742408 4.42083172,27.0002613 4.31324158,27.1110065 C3.62428719,27.8117565 2.52196017,27.9549616 1.66501416,27.399326" id="Fill-5"></path>
                    <path d="M3.50744808,16.2094746 C2.50704855,15.5717348 2.21070379,14.2275168 2.8392567,13.2193533 C3.46780961,12.2111898 4.78531691,11.9114139 5.78005379,12.5548819 C6.77667823,13.1983499 7.07868563,14.5387491 6.44635763,15.5507314 C6.36330559,15.6862989 6.26515319,15.8123193 6.1556755,15.9230645 C5.46672111,16.6238146 4.36439409,16.7651102 3.50744808,16.2094746" id="Fill-8"></path>
                    <path d="M9.65178871,7.50795416 C8.65138919,6.87021435 8.35315688,5.52599632 8.98170979,4.51783279 C9.61215024,3.50966927 10.9296575,3.20989337 11.926282,3.85336138 C12.9210189,4.49682939 13.2230263,5.83722862 12.5906983,6.84921094 C12.5095338,6.98477839 12.4094938,7.11079883 12.3019037,7.21963466 C11.6129493,7.92038469 10.5087347,8.06358974 9.65178871,7.50795416" id="Fill-10"></path>
                    <path d="M48.3640415,7.50795416 C47.363642,6.87021435 47.0672973,5.52599632 47.6939626,4.51783279 C48.3244031,3.50966927 49.6419104,3.20989337 50.6366473,3.85336138 C51.6332717,4.49682939 51.9333915,5.83722862 51.3010635,6.84921094 C51.2198991,6.98477839 51.1217466,7.11079883 51.012269,7.21963466 C50.3233146,7.92038469 49.2209876,8.06358974 48.3640415,7.50795416" id="Fill-12"></path>
                    <path d="M54.5095147,16.8311755 C53.5072276,16.1934357 53.2089953,14.8492176 53.8394358,13.8410541 C54.4679887,12.8328906 55.785496,12.5331147 56.7821204,13.1765827 C57.7768573,13.8200507 58.0807523,15.1585405 57.4446492,16.1705229 C57.3634847,16.3079997 57.2653323,16.4359296 57.1577421,16.5447654 C56.4669002,17.2455154 55.3664607,17.3868111 54.5095147,16.8311755" id="Fill-14"></path>
                    <path d="M56.3515711,27.399326 C55.3511716,26.7596768 55.0529393,25.4173682 55.6833797,24.4092046 C56.3119326,23.3991317 57.6294399,23.1012652 58.6260644,23.7447332 C59.6189137,24.3882012 59.9228087,25.7266911 59.2904807,26.7386734 C59.2074286,26.8742408 59.1092762,27.0002613 59.0016861,27.1110065 C58.3108441,27.8117565 57.2085171,27.9549616 56.3515711,27.399326" id="Fill-16"></path>
                    <path d="M54.5095147,37.9649943 C53.5072276,37.3272545 53.2089953,35.9830365 53.8394358,34.9748729 C54.4679887,33.9667094 55.785496,33.6669335 56.7821204,34.3104015 C57.7768573,34.9557789 58.0807523,36.2942688 57.4446492,37.3062511 C57.3634847,37.4418185 57.2653323,37.567839 57.1577421,37.6766748 C56.4669002,38.3793342 55.3664607,38.5206299 54.5095147,37.9649943" id="Fill-18"></path>
                    <path d="M48.9771166,47.2882156 C47.9786046,46.6504758 47.6803723,45.3062578 48.3089252,44.3000037 C48.9374781,43.2899307 50.2568729,42.9920642 51.2516098,43.6336228 C52.2463467,44.2790003 52.5483541,45.6174901 51.9160261,46.6294724 C51.8329741,46.7650399 51.7348217,46.8929697 51.6272315,47.0018055 C50.9363896,47.7025556 49.8359501,47.8438512 48.9771166,47.2882156" id="Fill-20"></path>
                    <path d="M39.7621157,53.5056059 C38.7617161,52.8659567 38.4615963,51.5236481 39.0920367,50.5135751 C39.7205896,49.507321 41.0380969,49.2075451 42.0347214,49.8510131 C43.0294583,50.4944811 43.3314657,51.832971 42.6991377,52.8449533 C42.6160856,52.9805207 42.5179332,53.1084506 42.4103431,53.2172864 C41.7213887,53.9180364 40.6171741,54.0612415 39.7621157,53.5056059" id="Fill-22"></path>
                    <path d="M28.7003395,55.3697537 C27.7018275,54.7320139 27.4035952,53.3877959 28.0321481,52.3796324 C28.660701,51.3714688 29.9782083,51.0716929 30.9729452,51.7151609 C31.9695696,52.358629 32.2734646,53.6971188 31.639249,54.7091011 C31.556197,54.846578 31.4580446,54.9725984 31.3485669,55.0833436 C30.6596125,55.7821843 29.559173,55.9253893 28.7003395,55.3697537" id="Fill-24"></path>
                    <path d="M18.2542809,53.5056059 C17.2538813,52.8659567 16.9575366,51.5236481 17.5860895,50.5135751 C18.2146424,49.507321 19.5321497,49.2075451 20.5287741,49.8510131 C21.523511,50.4944811 21.8255184,51.832971 21.1931904,52.8449533 C21.1101384,52.9805207 21.011986,53.1084506 20.9025083,53.2172864 C20.2154414,53.9180364 19.1112269,54.0612415 18.2542809,53.5056059" id="Fill-26"></path>
                    <path d="M15.1084962,41.6153864 C14.3383774,41.122761 14.1080967,40.0878659 14.5931961,39.3107399 C15.076408,38.5336138 16.0937954,38.3044857 16.8582516,38.7990205 C17.6245954,39.2954646 17.8586512,40.3284504 17.3716642,41.1074858 C17.3093752,41.2125029 17.2319858,41.3098823 17.1489338,41.3938959 C16.6185333,41.9342563 15.7691374,42.0430921 15.1084962,41.6153864" id="Fill-28"></path>
                    <path d="M10.5987707,34.7747678 C9.8286518,34.2821424 9.6002587,33.2472473 10.0853581,32.4701212 C10.5685699,31.6929952 11.5840698,31.4619577 12.3504136,31.9584018 C13.1167574,32.454846 13.3508131,33.4859223 12.8619387,34.2668672 C12.7996496,34.3718842 12.7241478,34.4673543 12.6410957,34.5532773 C12.1088077,35.0936377 11.2594119,35.2005641 10.5987707,34.7747678" id="Fill-30"></path>
                    <path d="M9.24634377,27.0216466 C8.47622489,26.5290212 8.24783179,25.4941261 8.73104364,24.717 C9.21425549,23.939874 10.2316429,23.7107459 10.9979867,24.2052807 C11.7662181,24.7017248 11.9964987,25.7328011 11.5095118,26.5118366 C11.4453352,26.6168536 11.3717209,26.7142331 11.2886688,26.8001561 C10.7563808,27.3386071 9.90698497,27.4474429 9.24634377,27.0216466" id="Fill-32"></path>
                    <path d="M10.5987707,18.8114149 C9.8286518,18.3187895 9.6002587,17.2838944 10.0853581,16.5086777 C10.5685699,15.7315517 11.5840698,15.4986048 12.3504136,15.9950489 C13.1167574,16.4914931 13.3508131,17.5244788 12.8619387,18.3035143 C12.7996496,18.4085313 12.7241478,18.5078202 12.6410957,18.5899244 C12.1088077,19.1283754 11.2594119,19.2391206 10.5987707,18.8114149" id="Fill-34"></path>
                    <path d="M15.1084962,12.427143 C14.3383774,11.9326082 14.1080967,10.8996225 14.5931961,10.1224964 C15.076408,9.34537037 16.0937954,9.11433289 16.8582516,9.61077705 C17.6245954,10.1072212 17.8586512,11.1402069 17.3716642,11.9192424 C17.3093752,12.0242594 17.2319858,12.1216389 17.1489338,12.2056525 C16.6185333,12.7460129 15.7691374,12.8548487 15.1084962,12.427143" id="Fill-36"></path>
                    <path d="M43.5126701,12.427143 C42.7406637,11.9326082 42.5122706,10.8996225 42.9954824,10.1224964 C43.4805818,9.34537037 44.4960817,9.11433289 45.2624255,9.61077705 C46.0306568,10.1072212 46.2647126,11.1402069 45.7758381,11.9192424 C45.7135491,12.0242594 45.6380472,12.1216389 45.5531076,12.2056525 C45.0227071,12.7460129 44.1733113,12.8548487 43.5126701,12.427143" id="Fill-38"></path>
                    <path d="M48.0206969,19.2669978 C47.250578,18.7743725 47.0202973,17.7394774 47.5053967,16.9623513 C47.9886086,16.1871347 49.0041085,15.9560972 49.7723398,16.4525413 C50.5386836,16.9470761 50.7708518,17.9781524 50.2838649,18.7590973 C50.2196883,18.8641143 50.146074,18.9614937 50.0611344,19.0474168 C49.5307339,19.5858677 48.6813381,19.6947036 48.0206969,19.2669978" id="Fill-40"></path>
                    <path d="M49.3735013,27.0216466 C48.6033824,26.5290212 48.3731018,25.4941261 48.8582012,24.717 C49.341413,23.939874 50.3569129,23.7107459 51.1232567,24.2052807 C51.891488,24.7017248 52.1255438,25.7328011 51.6366693,26.5118366 C51.5743802,26.6168536 51.4988784,26.7142331 51.4139388,26.8001561 C50.8816508,27.3386071 50.0341425,27.4474429 49.3735013,27.0216466" id="Fill-42"></path>
                    <path d="M48.0206969,34.7747678 C47.250578,34.2821424 47.0202973,33.2472473 47.5053967,32.4701212 C47.9886086,31.6929952 49.0041085,31.4619577 49.7723398,31.9584018 C50.5386836,32.454846 50.7708518,33.4878317 50.2838649,34.2668672 C50.2196883,34.3718842 50.146074,34.4673543 50.0611344,34.5532773 C49.5307339,35.0936377 48.6813381,35.2005641 48.0206969,34.7747678" id="Fill-44"></path>
                    <path d="M43.9626611,41.6153864 C43.1925423,41.122761 42.9641492,40.0878659 43.447361,39.3107399 C43.9324604,38.5336138 44.9479603,38.3044857 45.7143041,38.7990205 C46.4806479,39.2954646 46.7128161,40.3284504 46.2258291,41.1074858 C46.1635401,41.2125029 46.0880382,41.3098823 46.0049862,41.3938959 C45.4726982,41.9342563 44.6233023,42.0430921 43.9626611,41.6153864" id="Fill-46"></path>
                    <path d="M37.2001491,46.1763716 C36.4281427,45.6837463 36.1997496,44.6488512 36.684849,43.8717251 C37.1680608,43.0965085 38.1835607,42.865471 38.9499045,43.3600057 C39.7181358,43.8545405 39.9521916,44.8894356 39.4633171,45.6684711 C39.3991405,45.7715787 39.3255262,45.8689581 39.2405866,45.9548812 C38.7101861,46.4933321 37.8607903,46.6040774 37.2001491,46.1763716" id="Fill-48"></path>
                    <path d="M29.0840776,47.5454119 C28.3139587,47.0508771 28.0855656,46.015982 28.5687775,45.2407653 C29.0519893,44.4636393 30.0674892,44.2326018 30.8357206,44.729046 C31.6020644,45.2235807 31.8361201,46.2565665 31.3472456,47.0356019 C31.2849566,47.140619 31.2094547,47.2379984 31.1264027,47.322012 C30.5941146,47.8642818 29.7428313,47.9712082 29.0840776,47.5454119" id="Fill-50"></path>
                    <path d="M21.4206397,46.1763716 C20.6486333,45.6837463 20.4202402,44.6488512 20.9034521,43.8717251 C21.3885515,43.0965085 22.4059389,42.865471 23.1703951,43.3600057 C23.9386265,43.8545405 24.1726822,44.8894356 23.6838077,45.6684711 C23.6196312,45.7715787 23.5441293,45.8689581 23.4610773,45.9548812 C22.9287892,46.4933321 22.0812809,46.6040774 21.4206397,46.1763716" id="Fill-52"></path>
                    <path d="M78.7833598,19.8732325 C77.854687,20.7248252 76.6976212,21.4026624 74.9289903,21.4026624 C71.4785557,21.4026624 70.183699,18.1528626 70.183699,15.0959122 C70.183699,12.073331 71.6540975,9.08511906 74.9478658,9.08511906 C76.4541277,9.08511906 77.5036034,9.46699919 78.4492641,10.0589134 L77.6980207,11.2045537 C76.9448897,10.6661028 76.0671807,10.3873303 75.0346929,10.3873303 C72.5487945,10.3873303 71.7239367,13.0280313 71.7239367,15.0959122 C71.7239367,17.1466085 72.4600798,20.1157264 75.0875442,20.1157264 C76.1728833,20.1157264 77.1544074,19.6479233 77.9773775,18.8822536 L78.7833598,19.8732325 Z" id="Fill-54"></path>
                    <polygon id="Fill-56" points="82.197931 21.1947287 83.687205 21.1947287 83.687205 9.3812671 82.197931 9.3812671"></polygon>
                    <path d="M87.9262565,9.38069428 L89.396655,9.38069428 L89.396655,17.2321496 C89.396655,19.9244045 90.9029169,20.1688078 92.2695004,20.1688078 C94.2665244,20.1688078 94.9498161,19.0575366 94.9498161,17.8412484 L94.9498161,9.38069428 L96.4221022,9.38069428 L96.4221022,17.7190468 C96.4221022,19.9778677 94.7044351,21.4022805 92.2166491,21.4022805 C90.0459709,21.4022805 87.9262565,20.846645 87.9262565,17.1805958 L87.9262565,9.38069428 Z" id="Fill-58"></path>
                    <path d="M103.514369,19.9253592 C105.143321,19.9253592 107.595244,19.89099 107.595244,15.2874251 C107.595244,10.7182294 105.143321,10.649491 103.514369,10.649491 L102.130797,10.649491 L102.130797,19.9253592 L103.514369,19.9253592 Z M100.658511,9.38164898 L104.127821,9.38164898 C104.914928,9.38164898 109.137369,9.38164898 109.137369,15.2874251 C109.137369,21.1932012 104.914928,21.1932012 104.127821,21.1932012 L100.658511,21.1932012 L100.658511,9.38164898 Z" id="Fill-59"></path>
                    <path d="M117.334039,13.5846216 C116.931991,12.3683334 116.703598,11.55111 116.511068,10.9611052 L116.475205,10.9611052 C116.301551,11.55111 116.054282,12.3683334 115.635247,13.5846216 L114.636735,16.4678165 C115.214324,16.4506319 115.897616,16.4506319 116.458217,16.4506319 C117.018818,16.4506319 117.737974,16.4506319 118.279699,16.4678165 L117.334039,13.5846216 Z M119.821825,21.1935831 L118.613795,17.6841047 L114.251676,17.6841047 L113.007783,21.1935831 L111.465657,21.1935831 C112.868104,17.2506708 114.391354,12.9774322 115.705086,9.36293685 L117.351027,9.36293685 C118.613795,12.9774322 120.084194,17.2506708 121.431902,21.1935831 L119.821825,21.1935831 Z" id="Fill-60"></path>
                    <path d="M127.527921,19.9253592 C129.156874,19.9253592 131.608796,19.89099 131.608796,15.2874251 C131.608796,10.7182294 129.156874,10.649491 127.527921,10.649491 L126.14435,10.649491 L126.14435,19.9253592 L127.527921,19.9253592 Z M124.673951,9.38164898 L128.141374,9.38164898 C128.92848,9.38164898 133.150921,9.38164898 133.150921,15.2874251 C133.150921,21.1932012 128.92848,21.1932012 128.141374,21.1932012 L124.673951,21.1932012 L124.673951,9.38164898 Z" id="Fill-61"></path>
                    <path d="M141.347591,13.5846216 C140.945544,12.3683334 140.717151,11.55111 140.524621,10.9611052 L140.488758,10.9611052 C140.315103,11.55111 140.069722,12.3683334 139.648799,13.5846216 L138.650288,16.4678165 C139.227877,16.4506319 139.911168,16.4506319 140.47177,16.4506319 C141.032371,16.4506319 141.749639,16.4506319 142.293252,16.4678165 L141.347591,13.5846216 Z M143.835377,21.1935831 L142.62546,17.6841047 L138.265228,17.6841047 L137.021335,21.1935831 L135.47921,21.1935831 C136.881657,17.2506708 138.404907,12.9774322 139.718639,9.36293685 L141.364579,9.36293685 C142.62546,12.9774322 144.097746,17.2506708 145.445454,21.1935831 L143.835377,21.1935831 Z" id="Fill-62"></path>
                    <path d="M148.686371,9.38069428 L150.385163,9.38069428 L154.605716,16.5371278 C154.992663,17.1805958 155.447562,18.0493731 155.77977,18.8837811 L155.832621,18.8837811 C155.798645,17.5452913 155.77977,16.4512048 155.77977,15.303655 L155.77977,9.38069428 L157.233181,9.38069428 L157.233181,21.1941559 L155.58724,21.1941559 L151.366687,14.0529976 C150.962752,13.3770698 150.596568,12.6114001 150.122794,11.6032366 L150.069942,11.6032366 C150.122794,12.9073572 150.122794,14.0529976 150.122794,15.1833627 L150.139782,21.1941559 L148.686371,21.1941559 L148.686371,9.38069428 Z" id="Fill-63"></path>
                    <path d="M169.144353,15.1134787 C169.144353,13.0284132 168.321382,10.353343 165.780745,10.353343 C163.275971,10.353343 162.436013,13.0284132 162.436013,15.1134787 C162.436013,17.1278963 163.206132,20.1676621 165.780745,20.1676621 C168.391222,20.1676621 169.144353,17.1278963 169.144353,15.1134787 M160.893888,15.1134787 C160.893888,12.0565283 162.40015,9.08550094 165.780745,9.08550094 C169.161341,9.08550094 170.703466,12.0565283 170.703466,15.1134787 C170.703466,18.1532445 169.35387,21.4011349 165.780745,21.4011349 C162.226496,21.4011349 160.893888,18.1532445 160.893888,15.1134787" id="Fill-64"></path>
                    <polygon id="Fill-65" points="71.714499 39.0094364 73.1735723 39.0094364 73.1735723 27.1978842 71.714499 27.1978842"></polygon>
                    <path d="M76.3686219,27.1973114 L78.0334377,27.1973114 L82.1728267,34.3537449 C82.5503359,34.9972129 82.9976844,35.8659902 83.3242299,36.6984889 L83.3751936,36.6984889 C83.3412178,35.3619084 83.3242299,34.2659125 83.3242299,33.1202721 L83.3242299,27.1973114 L84.7493273,27.1973114 L84.7493273,39.0088636 L83.1354753,39.0088636 L78.9960863,31.8696147 C78.6015891,31.1917775 78.2410678,30.4280173 77.7767314,29.4198537 L77.7257676,29.4198537 C77.7767314,30.7239744 77.7767314,31.8696147 77.7767314,32.9980705 L77.7937193,39.0088636 L76.3686219,39.0088636 L76.3686219,27.1973114 Z" id="Fill-66"></path>
                    <path d="M90.4836929,28.4821471 C88.73205,28.5165163 86.9634191,28.5165163 86.7916524,28.5165163 L86.7916524,27.1971205 L95.6008309,27.1971205 L95.6008309,28.5165163 C95.4290641,28.5165163 93.6944091,28.5165163 91.9257783,28.4821471 L91.9257783,39.0086727 L90.4836929,39.0086727 L90.4836929,28.4821471 Z" id="Fill-67"></path>
                    <path d="M97.6786418,27.1973114 L104.496459,27.1973114 L104.496459,28.5338918 C104.324692,28.5338918 100.925221,28.5338918 99.1207272,28.5167072 C99.1207272,28.6904627 99.1207272,31.365533 99.1037392,32.2343102 C100.753455,32.2171256 103.705577,32.2171256 103.877344,32.2171256 L103.877344,33.4849676 C103.705577,33.4849676 100.753455,33.4849676 99.1037392,33.467783 C99.1207272,35.3275392 99.1207272,37.5157123 99.1207272,37.6894678 C100.993173,37.6722832 104.496459,37.6722832 104.668226,37.6722832 L104.668226,39.0088636 L97.6786418,39.0088636 L97.6786418,27.1973114 Z" id="Fill-68"></path>
                    <path d="M107.191686,27.1973114 L108.633772,27.1973114 C108.633772,27.3710669 108.616784,36.0206517 108.599796,37.7066524 C110.472242,37.6722832 113.339424,37.6722832 113.511191,37.6722832 L113.511191,39.0088636 L107.191686,39.0088636 L107.191686,27.1973114 Z" id="Fill-69"></path>
                    <polygon id="Fill-70" points="115.588625 39.0094364 117.049585 39.0094364 117.049585 27.1978842 115.588625 27.1978842"></polygon>
                    <path d="M125.290612,39.1484408 C121.53062,39.1484408 119.554359,36.647126 119.554359,32.929523 C119.554359,29.5250617 121.238051,26.9015453 124.7923,26.9015453 C125.89274,26.9015453 127.025268,27.1612237 128.020004,27.6843995 L127.419765,28.8815937 C126.71571,28.4653444 125.634146,28.2037565 124.620534,28.2037565 C122.027045,28.2037565 121.066284,30.3403758 121.066284,32.929523 C121.066284,35.8127179 122.302627,37.914968 125.37744,37.914968 C125.926716,37.914968 126.42314,37.8805988 126.853501,37.6724741 C126.853501,37.5330879 126.853501,35.8127179 126.887477,33.467974 C125.479367,33.5023432 125.118846,33.5023432 124.947079,33.5023432 L124.947079,32.2173166 L128.295586,32.2173166 L128.295586,38.6615436 C127.591531,38.9575007 126.440128,39.1484408 125.290612,39.1484408" id="Fill-71"></path>
                    <path d="M131.351901,27.1973114 L138.169718,27.1973114 L138.169718,28.5338918 C137.997952,28.5338918 134.598481,28.5338918 132.793986,28.5167072 C132.793986,28.6904627 132.793986,31.365533 132.776999,32.2343102 C134.426714,32.2171256 137.378836,32.2171256 137.550603,32.2171256 L137.550603,33.4849676 C137.378836,33.4849676 134.426714,33.4849676 132.776999,33.467783 C132.793986,35.3275392 132.793986,37.5157123 132.793986,37.6894678 C134.666432,37.6722832 138.169718,37.6722832 138.341485,37.6722832 L138.341485,39.0088636 L131.351901,39.0088636 L131.351901,27.1973114 Z" id="Fill-72"></path>
                    <path d="M140.864757,27.1973114 L142.53146,27.1973114 L146.668962,34.3537449 C147.046471,34.9972129 147.493819,35.8659902 147.818477,36.6984889 L147.871329,36.6984889 C147.837353,35.3619084 147.818477,34.2659125 147.818477,33.1202721 L147.818477,27.1973114 L149.245462,27.1973114 L149.245462,39.0088636 L147.63161,39.0088636 L143.492221,31.8696147 C143.097724,31.1917775 142.737203,30.4280173 142.272866,29.4198537 L142.221903,29.4198537 C142.272866,30.7239744 142.272866,31.8696147 142.272866,32.9980705 L142.289854,39.0088636 L140.864757,39.0088636 L140.864757,27.1973114 Z" id="Fill-73"></path>
                    <path d="M154.980583,28.4821471 C153.22894,28.5165163 151.460309,28.5165163 151.288542,28.5165163 L151.288542,27.1971205 L160.097721,27.1971205 L160.097721,28.5165163 C159.925954,28.5165163 158.191299,28.5165163 156.422668,28.4821471 L156.422668,39.0086727 L154.980583,39.0086727 L154.980583,28.4821471 Z" id="Fill-74"></path>
                    <path d="M162.174777,27.1973114 L168.992594,27.1973114 L168.992594,28.5338918 C168.820827,28.5338918 165.421356,28.5338918 163.616862,28.5167072 C163.616862,28.6904627 163.616862,31.365533 163.599874,32.2343102 C165.24959,32.2171256 168.2036,32.2171256 168.375366,32.2171256 L168.375366,33.4849676 C168.2036,33.4849676 165.24959,33.4849676 163.599874,33.467783 C163.616862,35.3275392 163.616862,37.5157123 163.616862,37.6894678 C165.489308,37.6722832 168.992594,37.6722832 169.164361,37.6722832 L169.164361,39.0088636 L162.174777,39.0088636 L162.174777,27.1973114 Z" id="Fill-75"></path>
                    <path d="M22.7647614,27.6506031 C23.1422707,27.6506031 23.4990169,27.8854594 23.6349203,28.2635207 C23.7821489,28.6664042 23.9652409,29.0521032 24.1823087,29.4148893 C25.416764,31.5075924 27.5949924,32.754431 29.9997263,32.754431 C30.5150265,32.754431 30.9302866,33.1725897 30.9302866,33.6919467 C30.9283991,34.2093942 30.5150265,34.627553 29.9997263,34.627553 C26.9834274,34.627553 24.1426702,33.0007436 22.5892196,30.381046 C22.317413,29.9189711 22.0814697,29.4244363 21.9002652,28.9108075 C21.7209484,28.4277292 21.9663294,27.8892782 22.4457661,27.7097945 C22.5495812,27.6696971 22.6571713,27.6506031 22.7647614,27.6506031" id="Fill-80"></path>
                    <path d="M23.1660538,25.8845985 C23.1660538,26.4096837 22.7470185,26.8335706 22.2298308,26.8335706 C21.7107556,26.8335706 21.2936079,26.4096837 21.2936079,25.8845985 C21.2936079,25.3614227 21.7107556,24.9375358 22.2298308,24.9375358 C22.7470185,24.9375358 23.1660538,25.3614227 23.1660538,25.8845985" id="Fill-81"></path>
                    <path d="M40.1375486,19.2179262 L39.6618869,18.501901 L39.6486741,18.501901 C39.1862253,17.8240638 38.704901,17.214965 38.2386771,16.6211414 L37.0098844,17.6140297 C37.5138593,18.2517695 38.0385972,18.9162409 38.5123713,19.6399038 L38.8143787,20.0905223 L38.8257039,20.0905223 C39.9299185,21.7917983 40.5112828,23.7871219 40.5112828,25.8970096 C40.5093952,31.7283191 35.8207303,36.4731796 30.056164,36.4865454 C24.2934852,36.4731796 19.6067078,31.7283191 19.6104829,25.8970096 C19.6104829,23.7871219 20.1937347,21.7917983 21.2998368,20.0905223 L21.3149371,20.0905223 L21.6093944,19.6399038 C22.0888311,18.9124221 22.6154565,18.2460413 23.1269816,17.6025733 C24.427501,15.9490324 25.6600687,14.3871427 25.6600687,12.296349 L25.6600687,11.6070554 C25.6846068,10.2742938 26.203682,9.77975901 27.5778157,9.77975901 L30.1958424,9.77975901 L32.5533877,9.77975901 C33.9275214,9.77975901 34.4465966,10.2742938 34.4673596,11.5879614 L34.4673596,12.2944396 C34.4673596,14.3871427 35.6999273,15.9490324 37.0023342,17.6044827 C37.0061093,17.6063921 37.0079969,17.6102109 37.0098844,17.6140297 L38.2273518,16.6077756 C37.0042218,15.0554329 36.0396856,13.8276883 36.0396856,12.2944396 L36.0396856,11.5612298 C36.0038223,9.38833188 34.7655919,8.1930471 32.5533877,8.1930471 L27.5778157,8.1930471 C24.7464963,8.1930471 24.1179434,10.0317999 24.0896302,11.576505 L24.0896302,12.296349 C24.0896302,13.8276883 23.0760178,15.1165337 21.901964,16.6058662 C21.3885515,17.253153 20.9223275,17.8469766 20.4749791,18.501901 L20.4523285,18.501901 L19.9879921,19.2179262 C18.7120108,21.1788807 18.0381568,23.4892554 18.0381568,25.8951002 C18.0362693,32.5970964 23.4252139,38.0598915 30.0523889,38.0751667 L30.056164,38.0751667 L30.059939,38.0751667 C36.6852265,38.0598915 42.0798337,32.5970964 42.0817213,25.8970096 C42.0817213,23.4835272 41.4097548,21.1750619 40.1375486,19.2179262" id="Fill-82"></path>
                    <path d="M34.2068782,3.81498243 L26.0866541,3.81498243 C25.6959321,3.81498243 25.3769367,4.23123176 25.3769367,4.74104173 C25.3769367,5.25467049 25.6959321,5.67091983 26.0866541,5.67091983 L34.2068782,5.66901042 C34.5976003,5.66901042 34.9184832,5.25276109 34.9184832,4.74104173 C34.9184832,4.22932236 34.5976003,3.81498243 34.2068782,3.81498243" id="Fill-83"></path>
                    <path d="M34.2068782,0 L26.0866541,0 C25.6959321,0 25.3769367,0.416249334 25.3769367,0.926059298 C25.3769367,1.43968806 25.6959321,1.8559374 26.0866541,1.8559374 L34.2068782,1.8559374 C34.5976003,1.8559374 34.9184832,1.43777866 34.9184832,0.926059298 C34.9184832,0.414339933 34.5976003,0 34.2068782,0" id="Fill-84"></path>
                </g>
            </g>
        </g>
    </g>
</svg>