<svg width="68" height="60" viewBox="0 0 68 60" xmlns="http://www.w3.org/2000/svg"><title>Group 8</title><g fill="none" fill-rule="evenodd"><circle cx="30" cy="30" r="30" fill="#FFC80A"/><path d="M45.737 40.304c-.084-.452-.513-.75-.965-.665-.448.084-.745.517-.66.968l.594 3.208c.13.623.056 1.122-.227 1.525-.43.614-1.366 1.04-2.68 1.225l-7.12.773c-1.125-.045-2.333-.493-2.888-3.274l-.354-1.932c-.083-.45-.507-.75-.964-.664-.45.083-.745.516-.662.967l.358 1.943c.595 2.998 2.116 4.552 4.514 4.622h.025c.03 0 .058 0 .088-.004l7.205-.782c1.832-.26 3.12-.905 3.83-1.917.543-.776.713-1.752.496-2.803l-.593-3.19zm21.137-6.072L56.234 5.308c-.366-1.002-1.522-1.567-2.566-1.19-.504.186-.904.56-1.128 1.05-.196.43-.225.905-.1 1.352L10.74 35.072c-.256-.037-.52-.014-.76.08-.38.144-.68.432-.844.81-.172.388-.177.84-.022 1.232l2.072 5.337c.244.637.845 1.032 1.478 1.032.182 0 .365-.03.542-.1.305-.12.555-.333.723-.604l49.504-6.702c.373.473.95.765 1.575.765.112 0 .226-.01.364-.032.1-.02.195-.046.308-.086.51-.183.912-.552 1.138-1.04.224-.484.244-1.03.058-1.53zm-53.656 7.046c-.254.034-.468.18-.595.388l-1.904-4.85c.297.063.61-.036.808-.278l7.23-4.948 3.11 8.516-8.65 1.172zm10.33-1.4l-3.38-9.253 32.85-22.49 9.724 26.44-39.194 5.304zm41.767-4.814c-.026.057-.082.134-.25.19l-.06.006c-.122 0-.273-.067-.33-.22L54.032 6.103c-.038-.1-.014-.19.01-.245.024-.05.08-.14.19-.182.04-.014.083-.02.123-.02.122 0 .27.067.328.224l10.64 28.928c.04.11.02.2-.008.254z" stroke="#4990E2" stroke-width=".55" fill="#4990E2"/></g></svg>