<?xml version="1.0" encoding="UTF-8" standalone="no"?>
<svg width="69px" height="65px" viewBox="0 0 69 65" version="1.1" xmlns="http://www.w3.org/2000/svg" xmlns:xlink="http://www.w3.org/1999/xlink">
    <!-- Generator: Sketch 39.1 (31720) - http://www.bohemiancoding.com/sketch -->
    <title>Artboard 2 Copy 2</title>
    <desc>Created with Sketch.</desc>
    <defs></defs>
    <g id="Page-1" stroke="none" stroke-width="1" fill="none" fill-rule="evenodd">
        <g id="Artboard-2-Copy-2">
            <g id="Group-6" transform="translate(5.000000, 2.000000)">
                <g id="Icon" transform="translate(0.000000, 2.000000)" fill="#EEB902">
                    <circle id="Oval" cx="30" cy="30" r="30"></circle>
                </g>
                <path d="M59.9824849,18.5970103 C59.9934319,18.4330087 59.971538,18.2678989 59.8839628,18.1160866 C59.5500821,17.5487295 51.5708812,4.20032579 39.2577997,0.0426625888 C39.0892173,-0.0138514899 38.9074986,-0.0149596091 38.7400109,0.043770708 C35.8970991,1.00451005 33.0498084,2.54590384 30.2780515,4.62584356 C30.2638205,4.63803287 30.2561576,4.65576277 30.2419267,4.66795208 L28.350301,4.66795208 C26.074439,4.66795208 24.2397373,6.47307824 24.1696771,8.80677726 L24.1718664,10.2539809 C24.1149425,10.291657 24.0547345,10.3226843 24.0054735,10.375874 C20.3032293,14.4249415 18.2025178,17.9664905 18.1149425,18.1160866 C18.0262726,18.2667908 18.0043788,18.4330087 18.0164204,18.5970103 C18.0131363,18.6247133 18,18.6513081 18,18.6801192 L18,49.1689106 C18,49.2021542 18.014231,49.2298572 18.0175151,49.2631007 C18.0251779,49.3207229 18.0339354,49.3761289 18.0503558,49.4315349 C18.0678708,49.4825083 18.091954,49.5268331 18.1171319,49.572266 C18.1412151,49.618807 18.1685824,49.6620236 18.2047072,49.7030241 C18.240832,49.7462407 18.2813355,49.7805924 18.3273125,49.8160522 C18.3546798,49.8359984 18.3711002,49.8648095 18.3995621,49.8825394 C18.4126984,49.8902962 18.4291188,49.8869718 18.4422551,49.8947287 C18.5561029,49.9556752 18.679803,49.9988919 18.8166393,49.9988919 L18.8188287,50 L18.8210181,50 L59.1789819,50 C59.1975917,50 59.2129174,49.9900269 59.2315271,49.9889188 C59.2851669,49.9855945 59.3377121,49.9711889 59.3924466,49.9556752 C59.4460865,49.9401616 59.4997263,49.9246479 59.5489874,49.9002693 C59.5632184,49.8914043 59.5829228,49.8914043 59.5982485,49.8814312 C59.6256158,49.8648095 59.6420361,49.8382146 59.6661193,49.8182685 C59.713191,49.7817005 59.7580733,49.7462407 59.7941981,49.7008078 C59.8292282,49.6609155 59.8544061,49.618807 59.879584,49.572266 C59.908046,49.5268331 59.9288451,49.4825083 59.9463602,49.4315349 C59.9649699,49.3761289 59.9737274,49.3207229 59.9802956,49.2631007 C59.9846743,49.2298572 60,49.2021542 60,49.1689106 L60,18.6801192 C60,18.6513081 59.985769,18.6258214 59.9824849,18.5970103 L59.9824849,18.5970103 Z M28.350301,6.33013087 L40.573618,6.33013087 C41.0257252,6.33013087 41.394636,5.95780282 41.394636,5.49904148 C41.394636,5.04028013 41.0257252,4.66795208 40.573618,4.66795208 L33.104543,4.66795208 C35.0563766,3.39472314 37.030104,2.3996321 38.9994527,1.70816573 C49.3683634,5.34833727 56.7104543,16.1879592 58.1926656,18.5172257 C58.1762452,18.5404962 58.152162,18.5549018 58.1390257,18.5781723 C58.1105638,18.6269295 56.5385878,21.2564963 53.8314176,24.6251787 L53.8314176,18.2512771 C53.8314176,17.7925158 53.4636015,17.4201877 53.0103996,17.4201877 C52.5561029,17.4201877 52.1893815,17.7925158 52.1893815,18.2512771 L52.1893815,26.5854415 C50.2047072,28.8593021 47.7909141,31.2882994 45.0399562,33.4192126 C43.2413793,32.3155259 41.3125342,31.3625434 39.2577997,30.6688607 C39.0892173,30.6123467 38.9074986,30.6123467 38.7400109,30.6688607 C36.6841817,31.3625434 34.7531472,32.3177421 32.9534756,33.4214288 C30.2244116,31.3082455 27.8259442,28.9003025 25.8489327,26.6375231 L25.8117132,8.83004776 C25.8533114,7.42827699 26.9688013,6.33013087 28.350301,6.33013087 L28.350301,6.33013087 Z M24.1784346,12.6730051 L24.2036125,24.6783684 C21.469075,21.2841993 19.8784893,18.6269295 19.8489327,18.5781723 C19.8368911,18.5560099 19.8149973,18.5438206 19.8007663,18.5227663 C20.3853311,17.5974868 21.9058566,15.312545 24.1784346,12.6730051 L24.1784346,12.6730051 Z M19.6420361,21.3041455 C21.5763547,24.181931 25.7602627,29.8122846 31.4887794,34.371087 C25.8544061,38.2373148 21.7285167,43.4410425 19.6420361,46.4152344 L19.6420361,21.3041455 L19.6420361,21.3041455 Z M20.3338807,48.3378212 C22.6108374,44.9503009 29.5402299,35.654289 38.9994527,32.335472 C48.4477285,35.6509646 55.3836891,44.9480846 57.6650246,48.3378212 L20.3338807,48.3378212 L20.3338807,48.3378212 Z M58.3579639,46.4152344 C56.2681992,43.4410425 52.1401204,38.2339904 46.5046524,34.3677626 C52.2386426,29.8034197 56.42474,24.1653092 58.3579639,21.2919562 L58.3579639,46.4152344 L58.3579639,46.4152344 Z M47.5457033,27.4652882 L30.3656267,27.4652882 C29.9124247,27.4652882 29.543514,27.8376162 29.543514,28.2963776 C29.543514,28.7551389 29.9124247,29.127467 30.3656267,29.127467 L47.5457033,29.127467 C47.9989053,29.127467 48.3667214,28.7551389 48.3667214,28.2963776 C48.3667214,27.8376162 47.9989053,27.4652882 47.5457033,27.4652882 L47.5457033,27.4652882 Z M45.5216201,17.2295912 L53.0311987,17.2295912 C53.48659,17.2295912 53.8511221,16.8572632 53.8511221,16.3985018 C53.8511221,16.1126071 53.709907,15.861064 53.4931582,15.7114679 L42.9819376,4.91617078 C42.7476738,4.6746008 42.392994,4.60368117 42.0842912,4.73000676 C41.7766831,4.85854859 41.5763547,5.16217324 41.5763547,5.49904148 L41.5763547,13.2348215 C41.5763547,15.4377625 43.3464696,17.2295912 45.5216201,17.2295912 L45.5216201,17.2295912 Z M43.2183908,7.52579147 L51.047619,15.5674124 L45.5216201,15.5674124 C44.2506842,15.5674124 43.2183908,14.5213479 43.2183908,13.2348215 L43.2183908,7.52579147 L43.2183908,7.52579147 Z M28.350301,23.2466784 L49.6825397,23.2466784 C50.1368363,23.2466784 50.5046524,22.8743504 50.5046524,22.415589 C50.5046524,21.9568277 50.1368363,21.5844996 49.6825397,21.5844996 L28.350301,21.5844996 C27.8960044,21.5844996 27.5281883,21.9568277 27.5281883,22.415589 C27.5281883,22.8743504 27.8960044,23.2466784 28.350301,23.2466784 L28.350301,23.2466784 Z M28.350301,11.481777 L39.36289,11.481777 C39.816092,11.481777 40.183908,11.1094489 40.183908,10.6506876 C40.183908,10.1919262 39.816092,9.8195982 39.36289,9.8195982 L28.350301,9.8195982 C27.8960044,9.8195982 27.5281883,10.1919262 27.5281883,10.6506876 C27.5281883,11.1094489 27.8960044,11.481777 28.350301,11.481777 L28.350301,11.481777 Z M28.350301,17.3636736 L39.36289,17.3636736 C39.816092,17.3636736 40.183908,16.9913456 40.183908,16.5325842 C40.183908,16.0738229 39.816092,15.7014949 39.36289,15.7014949 L28.350301,15.7014949 C27.8960044,15.7014949 27.5281883,16.0738229 27.5281883,16.5325842 C27.5281883,16.9913456 27.8960044,17.3636736 28.350301,17.3636736 L28.350301,17.3636736 Z" id="Fill-68" stroke="#4990E2" stroke-width="0.550000012" fill="#4990E2"></path>
            </g>
        </g>
    </g>
</svg>