<svg width="64" height="63" viewBox="0 0 64 63" xmlns="http://www.w3.org/2000/svg"><title>Group 7</title><g fill="none" fill-rule="evenodd"><circle cx="30" cy="30" r="30" transform="translate(0 3)" fill="#FFC80A"/><path d="M45.48 18.445c.032.024.058.055.094.073.725.348 1.49.63 2.285.84l-2 2.383c-.255.305-.254.748.004 1.052.162.192.397.293.637.293.14 0 .283-.036.41-.108l5.695-3.203C58.45 19.3 63 15.218 63 10.414c0-5.19-5.178-9.41-11.542-9.414h-.014c-.478 0-.95.033-1.415.08-.126.014-.252.024-.376.04-.376.048-.745.114-1.11.193-.243.05-.48.11-.716.172-.065.017-.128.04-.192.056-1.67.475-3.175 1.253-4.414 2.287-.013.012-.026.023-.04.033-.19.16-.373.322-.548.494-.234.224-.456.458-.666.7-.077.094-.152.19-.225.285-.254.32-.49.654-.698 1l-.005.008-.003.005c-.255.436-.476.89-.65 1.363-.317.87-.478 1.78-.478 2.698 0 3.307 2.154 6.344 5.57 8.03zM41.95 8.273c.14-.383.32-.75.53-1.106.19-.323.41-.632.65-.927.025-.03.05-.06.073-.09.235-.28.493-.544.767-.794.04-.038.084-.075.125-.112.278-.243.572-.473.88-.686.045-.028.09-.055.132-.083.31-.204.632-.395.97-.57.025-.01.05-.026.074-.04.346-.172.708-.324 1.078-.463l.203-.076c.362-.127.734-.237 1.113-.33.08-.02.158-.038.24-.055.385-.086.778-.156 1.178-.205.067-.01.134-.013.2-.02.423-.045.85-.073 1.284-.074h.01c5.45.002 9.886 3.49 9.886 7.774 0 3.998-3.972 7.397-9.04 7.738-.126.01-.246.044-.355.105l-1.904 1.07c.167-.22.208-.513.11-.773-.105-.276-.352-.475-.646-.522-.97-.155-1.883-.442-2.75-.813-3.158-1.35-5.184-3.97-5.184-6.806 0-.73.127-1.45.38-2.14zM59.19 41.95c-1.917-3.132-5.895-2.745-5.974-2.73H50.14c-.14 0-3.368-.083-5.258 2.607-.29.41-.605 1.086-.965 2.07-.016.043-.012.087-.02.13-.895-2.827-1.952-5.65-2.856-6.817-2.713-4.46-8.394-3.9-8.543-3.878h-4.584c-.2-.006-4.784-.124-7.474 3.698-1.482 2.106-3.657 10.146-4.42 13.49-.1.443.18.882.627.98.446.1.892-.176.993-.618.8-3.5 2.91-11.135 4.162-12.915 2.164-3.073 6.02-2.993 6.082-2.994l4.702-.005c.047-.006 4.902-.466 7.053 3.122.018.033.04.064.062.092 1.34 1.672 3.567 9.157 4.386 12.702.087.38.43.638.81.638.06 0 .122-.007.184-.02.447-.103.727-.54.624-.983-.278-1.203-.86-3.425-1.574-5.743.08.072.174.132.283.17.433.153.907-.065 1.063-.49.4-1.095.652-1.53.766-1.693 1.367-1.942 3.74-1.902 3.868-1.902l3.19-.003c.132-.018 3.13-.29 4.488 1.97.02.032.04.062.063.09.8 1 2.274 5.744 2.9 8.442.086.38.428.638.806.638.06 0 .124-.007.185-.02.447-.1.727-.54.625-.983-.437-1.887-1.99-7.49-3.18-9.048zm-28.9-9.932c5.74 0 10.41-4.614 10.41-10.286 0-5.67-4.67-10.282-10.41-10.282-5.736 0-10.403 4.613-10.403 10.282 0 5.672 4.667 10.286 10.403 10.286zm0-18.927c4.825 0 8.75 3.877 8.75 8.642 0 4.767-3.925 8.645-8.75 8.645-4.82 0-8.743-3.878-8.743-8.645 0-4.765 3.922-8.64 8.743-8.64zm14.168 18.597c0 3.964 3.263 7.19 7.273 7.19 4.013 0 7.278-3.226 7.278-7.19 0-3.965-3.265-7.19-7.277-7.19-4.01 0-7.272 3.225-7.272 7.19zm12.89 0c0 3.06-2.52 5.548-5.617 5.548-3.092 0-5.61-2.49-5.61-5.548 0-3.06 2.518-5.55 5.61-5.55 3.098 0 5.617 2.49 5.617 5.55z" stroke="#4990E2" stroke-width=".55" fill="#4990E2"/></g></svg>