<?xml version="1.0" encoding="UTF-8" standalone="no"?>
<svg width="69px" height="65px" viewBox="0 0 69 65" version="1.1" xmlns="http://www.w3.org/2000/svg" xmlns:xlink="http://www.w3.org/1999/xlink">
    <!-- Generator: Sketch 39.1 (31720) - http://www.bohemiancoding.com/sketch -->
    <title>Artboard 2</title>
    <desc>Created with Sketch.</desc>
    <defs></defs>
    <g id="Page-1" stroke="none" stroke-width="1" fill="none" fill-rule="evenodd">
        <g id="Artboard-2">
            <g id="Group-7" transform="translate(3.000000, 3.000000)">
                <g id="Icon" transform="translate(0.000000, 2.000000)" fill="#EEB902">
                    <circle id="Oval" cx="30" cy="30" r="30"></circle>
                </g>
                <path d="M45.4789732,17.4452094 C45.5121779,17.4692748 45.5376349,17.4999035 45.5741601,17.5184995 C46.2991299,17.8663535 47.0639454,18.1474809 47.8586452,18.3585998 L45.8608276,20.741072 C45.6051512,21.0451708 45.606258,21.4881925 45.864148,21.7922914 C46.0257444,21.9837205 46.2614979,22.0854514 46.5005719,22.0854514 C46.6400318,22.0854514 46.7828121,22.0493533 46.9112037,21.9771572 L52.6047073,18.7742745 C58.4498458,18.3006242 63,14.2182614 63,9.41393733 C63,4.22456727 57.8222765,0.00328164211 51.4580374,0 C51.4580374,0 51.4580374,0 51.4569306,0 L51.4536101,0 L51.4525033,0 L51.4436487,0 C50.9655007,0.0010938807 50.4951004,0.0328164211 50.0291274,0.080947172 C49.9040563,0.0940737404 49.7778783,0.103918667 49.653914,0.119232997 C49.2775938,0.168457628 48.9090214,0.23409047 48.5448762,0.312849881 C48.3013749,0.363168393 48.0645145,0.422237951 47.8276541,0.484589151 C47.7634583,0.502091243 47.7003694,0.523968857 47.6361735,0.541470948 C45.964869,1.01512129 44.460695,1.79287047 43.2221587,2.82658774 C43.2088768,2.83862042 43.1955949,2.84955923 43.1812062,2.86049804 C42.9919393,3.02020462 42.8093133,3.18209896 42.6344351,3.35383823 C42.3997884,3.57808378 42.1784235,3.81217425 41.9681269,4.05501576 C41.8906492,4.14799562 41.816492,4.24316325 41.7434416,4.33942475 C41.4888721,4.66102567 41.2520117,4.99356541 41.0450356,5.34032559 C41.0428219,5.34360723 41.0406083,5.34579499 41.0395014,5.34798276 C41.0383946,5.35017052 41.0383946,5.35235828 41.0372878,5.35345216 C40.7816114,5.78881668 40.5613534,6.24387105 40.387582,6.71642751 C40.0699235,7.58715655 39.9094339,8.49507754 39.9094339,9.41393733 C39.9094339,12.7207387 42.0644206,15.7584454 45.4789732,17.4452094 L45.4789732,17.4452094 Z M41.9504177,7.27321279 C42.0909844,6.89035455 42.2713967,6.52171675 42.4794797,6.1672994 C42.6698535,5.84351071 42.8901115,5.53503636 43.1313991,5.23968857 C43.1546424,5.21015379 43.1789926,5.17952513 43.2033427,5.14999035 C43.4379894,4.87105077 43.6958795,4.60633164 43.9703719,4.35583296 C44.0113244,4.31754713 44.0544905,4.28144907 44.095443,4.24425713 C44.3732559,4.00141561 44.6665643,3.77060678 44.976475,3.55839393 C45.0196412,3.52995303 45.0639142,3.50260601 45.1070803,3.47525899 C45.4158842,3.2707033 45.7390769,3.08036806 46.0777651,2.90644103 C46.1021152,2.89440834 46.1264654,2.87909401 46.1508155,2.86596744 C46.4961446,2.69313429 46.8580762,2.54108487 47.2277554,2.40216202 C47.2963785,2.37700277 47.3616812,2.35074963 47.4314111,2.32559037 C47.7922358,2.19870021 48.1641287,2.08931214 48.5426626,1.99633228 C48.6223539,1.97664243 48.7009384,1.95804646 48.7817366,1.94054437 C49.1680182,1.85412779 49.5609408,1.78411943 49.9605043,1.73489479 C50.0269138,1.72614375 50.0944301,1.72176823 50.1608395,1.71520494 C50.5825395,1.67035583 51.0108805,1.64191493 51.4436487,1.64082105 L51.4536101,1.64082105 C56.9047192,1.64191493 61.3397637,5.12920661 61.3397637,9.41393733 C61.3397637,13.4120713 57.3684786,16.8107586 52.2992238,17.1520494 C52.1741527,17.1608005 52.0535089,17.1958046 51.9450401,17.257062 L50.0413025,18.3279712 C50.2073261,18.1059134 50.2482786,17.8138472 50.1497713,17.5535036 C50.044623,17.2778457 49.7978012,17.0787594 49.5044928,17.0317225 C48.5349148,16.8774854 47.620678,16.5897947 46.7540347,16.2189692 C43.5962653,14.8691204 41.5696702,12.2514639 41.5696702,9.41393733 C41.5696702,8.68541278 41.696955,7.9645454 41.9504177,7.27321279 L41.9504177,7.27321279 Z M59.191418,40.9494241 C57.2732917,37.8176437 53.2953656,38.2048774 53.2156742,38.2212856 L50.1398098,38.2212856 C49.9992432,38.2190979 46.7717439,38.1370568 44.882395,40.8269095 C44.5924071,41.2360208 44.2769622,41.913133 43.9172443,42.8976256 C43.9006419,42.940287 43.9050692,42.9840422 43.8962146,43.0277974 C43.0019007,40.2001158 41.9448836,37.3779036 41.0406083,36.209639 C38.3266754,31.7498874 32.6464537,32.3110482 32.4970324,32.3318319 L27.9125667,32.3318319 C27.7133383,32.3263625 23.1288725,32.2082234 20.4392898,36.0302426 C18.958359,38.1359629 16.7834495,46.1759861 16.0208477,49.5210733 C15.9190198,49.9630011 16.2001532,50.4016473 16.6473101,50.5011904 C17.0933603,50.5996397 17.5394104,50.3239817 17.6401314,49.8820539 C18.4392585,46.3805418 20.5499722,38.7474422 21.8017904,36.9666045 C23.9656316,33.8938936 27.8218071,33.9737469 27.8837892,33.972653 L32.5855783,33.9682775 C32.6331718,33.9617142 37.4877026,33.5022843 39.6393688,37.090213 C39.6581849,37.1230294 39.6792145,37.1536581 39.7024578,37.182099 C41.0406083,38.8535487 43.2686453,46.3389743 44.0876952,49.8842417 C44.1751343,50.2638183 44.5182498,50.5219741 44.8967837,50.5219741 C44.9565522,50.5219741 45.0196412,50.5154108 45.0816233,50.5011904 C45.5287803,50.3994595 45.8088068,49.9608133 45.7058722,49.5188855 C45.4280593,48.3167106 44.844763,46.0950389 44.1319682,43.7771057 C44.2116595,43.8493018 44.3057396,43.9094653 44.4153152,43.9477511 C44.8480834,44.0998005 45.3218042,43.8821183 45.4778664,43.4555048 C45.8785368,42.3616241 46.1297858,41.9262596 46.2437887,41.7643652 C47.6107166,39.8216331 49.9826408,39.8621067 50.1121392,39.8621067 L53.3031134,39.858825 C53.4337186,39.8424168 56.4332121,39.5689467 57.7901786,41.8299981 C57.8089946,41.8617206 57.8289174,41.8923493 57.8532676,41.9207902 C58.6523946,42.9205971 60.1266844,47.6636639 60.7520401,50.3622676 C60.8394792,50.742938 61.1814879,51 61.5589149,51 C61.6208971,51 61.683986,50.9934367 61.7448614,50.9803101 C62.1920183,50.8785792 62.4720449,50.4388392 62.370217,49.9969114 C61.9330215,48.1099672 60.3801472,42.5071102 59.191418,40.9494241 L59.191418,40.9494241 Z M30.290025,31.0180812 C36.0300152,31.0180812 40.6997064,26.4040924 40.6997064,20.732321 C40.6997064,15.0627373 36.0300152,10.4498424 30.290025,10.4498424 C24.5544621,10.4498424 19.8869845,15.0627373 19.8869845,20.732321 C19.8869845,26.4040924 24.5544621,31.0180812 30.290025,31.0180812 L30.290025,31.0180812 Z M30.290025,12.0906634 C35.1146716,12.0906634 39.0394701,15.9673766 39.0394701,20.732321 C39.0394701,25.4994531 35.1146716,29.3772602 30.290025,29.3772602 C25.4686989,29.3772602 21.5472208,25.4994531 21.5472208,20.732321 C21.5472208,15.9673766 25.4686989,12.0906634 30.290025,12.0906634 L30.290025,12.0906634 Z M44.4584813,30.6866354 C44.4584813,34.650859 47.721399,37.8756193 51.731423,37.8756193 C55.7425538,37.8756193 59.0076852,34.650859 59.0076852,30.6866354 C59.0076852,26.7224117 55.7425538,23.4976514 51.731423,23.4976514 C47.721399,23.4976514 44.4584813,26.7224117 44.4584813,30.6866354 L44.4584813,30.6866354 Z M57.3474489,30.6866354 C57.3474489,33.7462197 54.8283171,36.2347983 51.731423,36.2347983 C48.6378494,36.2347983 46.1187176,33.7462197 46.1187176,30.6866354 C46.1187176,27.627051 48.6378494,25.1384724 51.731423,25.1384724 C54.8283171,25.1384724 57.3474489,27.627051 57.3474489,30.6866354 L57.3474489,30.6866354 Z" id="Fill-88" stroke="#4990E2" stroke-width="0.550000012" fill="#4990E2"></path>
            </g>
        </g>
    </g>
</svg>