<svg width="66" height="60" viewBox="0 0 66 60" xmlns="http://www.w3.org/2000/svg"><title>Group 5</title><g fill="none" fill-rule="evenodd"><circle cx="30" cy="30" r="30" fill="#FFC80A"/><path d="M25.364 31.826h15.11c.458 0 .828-.372.828-.83 0-.46-.37-.83-.828-.83h-15.11c-.458 0-.83.37-.83.83 0 .458.372.83.83.83zM35.79 6.662h13.722c1.6 0 2.892 1.258 2.94 2.866.015.45.383.804.83.804h.026c.458-.014.816-.397.804-.856-.078-2.51-2.1-4.476-4.6-4.476H35.79c-.458 0-.83.372-.83.83 0 .46.372.832.83.832zm-10.426 30.99h15.11c.458 0 .828-.374.828-.832 0-.46-.37-.83-.828-.83h-15.11c-.458 0-.83.37-.83.83 0 .458.372.83.83.83zm0 5.827h24.162c.457 0 .83-.373.83-.832 0-.458-.373-.83-.83-.83H25.364c-.458 0-.83.372-.83.83 0 .46.372.83.83.83zm27.92-9.725c-.457 0-.83.372-.83.83v9.8c0 1.63-1.32 2.953-2.942 2.953H25.606c-1.624 0-2.947-1.324-2.947-2.953v-24.39c0-.46-.372-.83-.83-.83-.458 0-.83.37-.83.83v24.39C21 46.93 23.068 49 25.606 49h23.906c2.537 0 4.602-2.07 4.602-4.615v-9.8c0-.458-.37-.83-.83-.83zm-12.81-9.416h-15.11c-.458 0-.83.37-.83.83 0 .46.372.83.83.83h15.11c.458 0 .828-.37.828-.83 0-.46-.37-.83-.828-.83zM21.83 18.767h8.405c2.39 0 4.337-1.95 4.337-4.345V5.83c0-.337-.203-.64-.515-.77-.312-.124-.67-.052-.906.187L21.24 17.354c-.234.238-.304.595-.175.903.13.31.432.51.766.51zm11.083-10.91v6.565c0 1.48-1.203 2.683-2.678 2.683h-6.423l9.1-9.248zm28.103 2.955C59.012 9.44 57.59 8.83 56.408 8.83c-1.015 0-1.842.455-2.453 1.352-.024.036-.085.113-.17.222-.204.26-.53.682-.887 1.17l-9.922 14.504c-.143.205-.23.34-.23.34-.08.12-.128.263-.136.41l-.52 9.567c-.015.276.107.543.328.71.146.11.322.167.5.167.092 0 .18-.015.27-.046l9.482-3.27c.167-.056.312-.165.412-.31l9.787-14.143 1.513-2.163c1.807-2.644-.672-4.674-3.367-6.527zm-17.203 24.44l.038-.7.65.463-.687.237zm2.613-.9L43.96 32.59l.26-4.787c.634.296 1.37.817 1.612 1.492.1.276.337.48.626.535.017.002 1.554.327 2.05 1.593.11.287.372.488.678.523.01 0 .874.132 1.722.866l-4.482 1.544zm5.885-2.508c-.895-.905-1.88-1.295-2.453-1.452-.696-1.295-1.97-1.86-2.648-2.08-.572-1.094-1.647-1.724-2.356-2.043l8.878-13.013.238-.33c1.18.164 2.826.89 4.352 1.937 1.553 1.068 2.834 2.353 3.406 3.392l-9.417 13.59zm10.702-15.44l-.262.374c-.78-1.102-2.003-2.265-3.488-3.285-1.433-.985-2.91-1.69-4.2-2.03l.032-.04c.126-.163.21-.274.23-.304.3-.44.626-.63 1.084-.63.803 0 2.006.555 3.67 1.693 3.668 2.52 3.515 3.37 2.934 4.22z" stroke="#4990E2" stroke-width=".55" fill="#4990E2"/></g></svg>