<?xml version="1.0" encoding="UTF-8" standalone="no"?>
<svg width="140px" height="140px" viewBox="0 0 140 140" version="1.1" xmlns="http://www.w3.org/2000/svg" xmlns:xlink="http://www.w3.org/1999/xlink">
    <!-- Generator: Sketch 41.2 (35397) - http://www.bohemiancoding.com/sketch -->
    <title>Artboard 4</title>
    <desc>Created with Sketch.</desc>
    <defs></defs>
    <g id="Page-1" stroke="none" stroke-width="1" fill="none" fill-rule="evenodd">
        <g id="Artboard-4">
            <g id="Group-Copy-2" transform="translate(37.000000, 20.000000)">
                <path d="M62.9079849,55.1399014 C62.7612492,55.6251971 62.307586,56.7453571 62.1954517,57.4662394 C62.1467534,56.8243139 62.0922882,56.1766111 62.0339784,55.5276244 C62.3139937,55.1996005 62.3998565,54.1596812 62.7247255,54.2180964 C63.0938074,54.2854986 62.9759063,54.9145856 62.9079849,55.1399014 M59.8784373,31.2750379 L59.8784373,31.2801733 C60.0213284,35.9039625 62.1916071,52.2448175 62.1916071,52.2448175 L62.569019,52.2846169 L62.5908051,52.5426709 C62.5908051,52.5426709 62.2947706,53.3290297 62.1813548,53.5209654 C62.0858805,53.6814467 61.9884839,53.9054787 61.9039026,54.1468427 C61.2048255,47.0388019 60.1039874,40.1920247 60.1039874,40.1920247 C60.1039874,40.1920247 59.6881294,33.4813357 59.8784373,31.2750379 M65.1013313,54.7752878 C64.969974,53.7636132 64.7046963,52.7474452 64.6380565,52.4996619 L65.3454636,52.5734834 C65.3454636,52.5734834 65.1955241,25.5773073 61.3592504,22.6289436 C59.953407,21.5479411 57.8651465,20.7769886 56.324742,20.3128764 C56.9501309,20.1799979 57.5043946,20.0182326 57.9535724,19.8320743 C59.2146024,19.3101888 62.9733432,18.2529376 62.1595688,14.7396794 C62.0000177,14.0508934 63.1835148,11.5319778 61.4297348,6.87159881 C60.878675,5.40672486 59.1063127,3.47452917 58.403391,2.68624468 C56.2273454,0.24885363 55.2642722,0.538362022 53.3708049,0.480588728 C51.4766969,0.422815435 48.4638092,1.2836375 47.5545604,3.10478009 C46.619681,4.97856057 46.6216033,6.04865034 45.3131565,7.73113703 C43.1582562,10.5004035 44.4897706,13.3800813 44.4372277,15.6756068 C44.4045485,17.1257164 44.607031,19.2851537 46.556245,19.9604593 C47.7077038,20.3590951 49.1000911,20.5895463 50.5334874,20.6806997 C48.9251616,21.0453134 46.082718,21.7649119 45.3137973,22.4543398 C40.3177349,26.9330539 40.3965493,51.9809861 40.3965493,51.9809861 L40.4068016,51.9816281 L40.3747632,52.3513771 C40.3747632,52.3513771 39.978769,53.5010657 39.7602674,54.65268 C39.4956305,56.0411648 39.0637534,57.1305123 39.2322751,57.1985564 C39.5840564,57.3423478 40.3209387,55.3690688 40.3209387,55.3690688 C40.3209387,55.3690688 39.5994348,58.5138618 39.8352371,58.6197795 C40.4208984,58.8816851 40.8027957,55.5622884 40.8027957,55.5622884 C40.8027957,55.5622884 40.7752427,58.6846139 41.0469281,58.6659981 C41.5999102,58.6274826 41.426903,55.7060797 41.426903,55.7060797 L41.5351927,55.703512 C41.5351927,55.703512 41.9452838,58.1993183 42.3073173,58.1505319 C42.8852893,58.0735009 42.1061163,55.8813254 41.9286238,55.1450368 C41.8741586,54.9165114 41.7927812,54.2816471 42.1657077,54.2360704 C42.5610611,54.1879259 42.5142851,55.7195601 42.974356,55.6938831 C43.3722725,55.6714157 43.067908,54.1892098 42.7488059,53.5710356 C42.6462832,53.3733225 42.3963839,52.5709157 42.3963839,52.5709157 L42.481606,52.1279871 L43.4337861,52.1947473 C43.4337861,52.1947473 45.4912898,35.6073929 46.2819966,32.9735727 C46.4114316,32.5421988 46.2986566,32.1962009 46.5133136,32.1962009 C46.6421078,32.1962009 46.7728244,32.2835028 46.7587275,32.5383472 C46.6190402,35.1830802 45.7642567,40.2664881 45.7642567,40.2664881 C45.7642567,40.2664881 40.4279469,65.6771082 43.3761171,68.9047095 C43.8252949,69.3977083 45.3509618,69.7462738 47.3450295,69.9626027 C47.0521989,75.8150373 48.2792682,88.2870074 48.9982091,94.8795821 L48.9918014,94.8795821 C48.9918014,94.8795821 48.9821899,97.6007042 48.3837133,98.3183769 C47.8070227,99.0090887 45.9077885,98.3472636 45.347758,98.8794198 C45.1536055,99.0636524 45.347758,99.9495096 45.347758,99.9495096 L51.5023276,99.9495096 L51.4792599,98.265739 C51.4805415,98.2310751 51.481823,98.1996207 51.4831045,98.163031 L51.7195477,94.8795821 L51.611258,94.8795821 C51.8547496,88.4314407 52.2616368,76.3465516 52.1584732,70.2251502 C52.3603149,70.227076 52.5621566,70.2290018 52.7639983,70.2296437 C52.6185441,76.3125295 53.6777324,88.4218118 54.2979951,94.8795821 L54.2595491,94.8795821 L54.4312747,98.2291493 L54.3005582,99.9495096 L60.8415105,99.9495096 C60.8415105,99.9495096 61.0350222,99.0636524 60.8415105,98.8794198 C60.2814799,98.3472636 58.3822457,99.0090887 57.8055552,98.3183769 C57.3044752,97.7181766 57.3108828,95.716653 57.3262613,95.078579 C57.3281836,95.0137446 57.3301059,94.9469843 57.3326689,94.8815079 L57.3326689,94.8795821 C57.5383552,88.4487727 57.8529719,76.3902025 57.5697528,70.054398 C59.8553697,69.8637462 61.5566068,69.5196741 61.7866422,69.0375881 C62.6074651,67.3197955 62.5869605,62.9065578 62.2377424,58.0349853 C62.2672177,58.0760686 62.3031006,58.1081649 62.3556435,58.1184357 C62.7138324,58.1877636 63.2687369,55.7202021 63.2687369,55.7202021 L63.3763858,55.7285471 C63.3763858,55.7285471 63.0335753,58.6351857 63.5827129,58.7064394 C63.8531166,58.7404615 64.0075416,55.6219875 64.0075416,55.6219875 C64.0075416,55.6219875 64.1959271,58.9580742 64.7956853,58.7308326 C65.0372546,58.6390372 64.4996508,55.4576545 64.4996508,55.4576545 C64.4996508,55.4576545 65.1205543,57.4700909 65.4806655,57.3474832 C65.6530319,57.2890679 65.2839499,56.1766111 65.1013313,54.7752878" id="Fill-1" fill="#000000"></path>
                <path d="M61.1652725,47.4777664 C61.1652725,47.4777664 61.0480121,46.5816384 60.8929464,45.4313079 C57.2918344,42.4007777 47.1946238,26.6203237 44.7693197,22.7899543 C44.3957524,23.1930835 44.1125332,23.6892919 44.0362819,24.2971954 C44.0362819,24.2971954 55.8315258,44.4010175 61.1652725,47.4777664" id="Fill-3" fill="#FF645B"></path>
                <path d="M46.0396408,21.8508815 C45.6026375,22.0800489 45.1412851,22.3881732 44.7689993,22.7900185 C47.1949442,26.6203879 57.2921548,42.4008419 60.8926261,45.4307302 C60.7811326,44.605214 60.6510568,43.6487451 60.5305925,42.7988357 C56.5136225,38.644936 48.3002677,25.5124245 46.0396408,21.8508815" id="Fill-5" fill="#FFFFFF"></path>
                <path d="M60.2375697,40.8541225 L47.4875826,21.2888758 C47.4875826,21.2888758 46.8013208,21.450641 46.0394486,21.8505606 C48.3007162,25.5127454 56.5134303,38.6452569 60.5304003,42.7985148 C60.4144214,41.9807017 60.3080541,41.2611032 60.2375697,40.8541225" id="Fill-7" fill="#7AB7FF"></path>
                <path d="M31.1866091,57.6714629 C31.1866091,57.6714629 34.2014191,30.1463403 28.7388781,23.9992619 C25.8233871,20.7190227 18.956925,19.4409491 18.956925,19.4409491 C18.6769097,18.640468 18.2719448,17.6852829 18.2507995,17.4419931 C18.2507995,17.4419931 20.4524758,14.9615931 21.0759424,10.7229591 C21.1220776,10.4090576 21.1682129,10.1118461 21.2143481,9.82297959 L21.1131069,11.524724 C22.4164275,10.4950756 22.3722146,8.32793514 22.426039,8.10390315 C22.4356505,8.06281992 22.7310442,5.71529844 22.5189503,4.64007326 C22.470252,4.41989282 22.4587182,4.36725493 22.4587182,4.34799717 C22.3677292,3.96540958 22.2491873,3.59116703 22.1030923,3.22847913 C21.8455039,2.86065583 18.8697807,1.20641387 18.5948915,1.25969368 C18.3687007,0.97467877 16.1067922,0.42647441 15.8171654,0.35265298 C15.2039512,0.195381238 12.9593434,0.583746153 12.5569416,0.782101126 C12.2551402,1.02988436 11.9719211,1.30077691 11.7085657,1.59285301 C11.6989542,1.610185 11.5624708,1.76488904 11.5156948,1.82073655 C10.8140546,2.66101701 9.94709649,4.8628214 9.93684421,4.90326271 C9.52290856,6.52412455 9.17176809,6.51385374 9.65618815,7.75148606 C9.59915986,8.18029228 9.56071383,8.62964012 9.54661695,9.09696187 C9.54661695,9.09696187 9.12371055,13.4736098 12.3345953,17.7764363 C12.3345953,17.7764363 11.4074051,19.0994447 10.9646349,19.9487121 C10.2085295,20.1348705 5.95896101,21.2036764 5.06765374,21.9335457 C-2.87465654,28.4381766 0.893054996,55.9010325 0.893054996,55.9010325 L1.29353454,55.8355561 C1.12693505,56.4184244 0.852686658,57.4519244 0.682242565,58.4879922 C0.372751975,60.3733273 -0.175104039,61.8587429 0.0549314101,61.9460447 C0.535506861,62.1277096 1.4646194,59.4373999 1.4646194,59.4373999 C1.4646194,59.4373999 0.595738984,63.7106979 0.91804492,63.8455022 C1.71836324,64.1799454 2.12268738,59.6819736 2.12268738,59.6819736 C2.12268738,59.6819736 2.19124948,63.9026336 2.55776836,63.8673277 C3.30298069,63.7967159 2.97106324,59.8540096 2.97106324,59.8540096 L3.11651741,59.8469484 C3.11651741,59.8469484 3.75472161,63.2061444 4.2423455,63.1284715 C5.0215185,63.0045798 3.89376811,60.0684127 3.629772,59.0792055 C3.54839455,58.7723651 3.41767803,57.9166785 3.9193988,57.8422151 C4.4518764,57.7639002 4.44098336,59.8360357 5.06124607,59.7859655 C5.59820904,59.7416726 5.13685661,57.7491359 4.68447492,56.9242617 C4.54030228,56.6604303 4.17506494,55.5852051 4.17506494,55.5852051 L4.99716935,55.232788 L6.78298772,35.6624059 C6.78298772,35.6624059 5.74430398,53.7480144 6.26973314,54.449639 C6.3017715,54.492648 6.33765447,54.5343731 6.3722559,54.5767402 L5.79172076,95.7479147 L7.87485514,95.7479147 L7.87485514,98.1333098 C7.87485514,98.1333098 2.57827291,96.7942533 1.9246903,98.1333098 C1.041713,99.9435397 3.37795046,100.47377 3.37795046,100.47377 L12.6242221,100.47377 L11.9956294,95.7479147 L12.4339143,95.7479147 L16.0286186,63.4975786 L17.3819191,95.7479147 L18.3725453,95.7479147 L17.7727871,100.252948 L27.0196996,100.252948 C27.0196996,100.252948 29.355937,99.7227173 28.472319,97.9118455 C27.8193771,96.5734309 22.5221541,97.9118455 22.5221541,97.9118455 L22.5221541,95.7479147 L23.7126997,95.7479147 L26.1085285,53.5753365 C26.4987558,49.8502429 25.7926302,38.1107097 26.357787,38.1107097 C27.2394827,38.1107097 27.2997149,57.163058 27.2997149,57.163058 C27.417616,57.3646226 27.6905829,57.5000688 28.0391603,57.5899384 C28.0500533,57.7414328 27.5867786,58.7781425 27.4188976,59.0272096 C26.8915461,59.8065071 26.2469342,61.7476897 26.7774895,61.8407689 C27.3907038,61.9492543 27.5726817,59.8854639 28.0955478,60.0132071 C28.5882978,60.1338891 28.3787669,60.9735276 28.268555,61.271381 C27.9142107,62.2310596 26.5186196,65.0497544 27.2830549,65.2455417 C27.7610673,65.3687914 28.7087621,62.0840587 28.7087621,62.0840587 L28.8529347,62.1039584 C28.8529347,62.1039584 28.1557799,65.9978784 28.8920215,66.13846 C29.2534143,66.207788 29.7134852,62.0108792 29.7134852,62.0108792 C29.7134852,62.0108792 29.6987475,66.5287507 30.5259781,66.2694128 C30.8598178,66.1654209 30.3914169,61.8285724 30.3914169,61.8285724 C30.3914169,61.8285724 31.0667856,64.5946293 31.5620987,64.458541 C31.7991826,64.3930647 31.3916546,62.8633562 31.258375,60.9568376 C31.1475223,59.3757751 30.7989449,57.7696775 30.7989449,57.7696775 C31.0385919,57.6875111 31.1866091,57.6714629 31.1866091,57.6714629 Z" id="Fill-9" fill="#000000"></path>
                <path d="M3.35037981,23.7208747 C3.35037981,23.7208747 20.8971507,45.934064 26.2315382,49.0108128 L26.2315382,46.9264808 C21.5039573,43.4709959 7.84792526,26.6608934 4.35125828,22.3163417 C3.93860416,22.6950777 3.57400759,23.1585479 3.35037981,23.7208747" id="Fill-12" fill="#FF645B"></path>
                <path d="M5.75575606,21.3719409 C5.30785974,21.5959729 4.8016536,21.9047391 4.35183497,22.3168552 C7.84786119,26.660765 21.5038932,43.4708675 26.2314741,46.9269943 L26.2314741,44.5537958 C21.8659267,41.0488827 9.34853813,25.7909559 5.75575606,21.3719409" id="Fill-14" fill="#FFFFFF"></path>
                <path d="M26.2312178,44.5539884 L26.2312178,42.3919834 L6.96590912,20.8926152 C6.96590912,20.8926152 6.42830538,21.0357646 5.75549975,21.3721335 C9.34828182,25.7911485 21.8656704,41.0490753 26.2312178,44.5539884" id="Fill-16" fill="#7AB7FF"></path>
            </g>
        </g>
    </g>
</svg>