<?xml version="1.0" encoding="UTF-8" standalone="no"?>
<svg width="140px" height="140px" viewBox="0 0 140 140" version="1.1" xmlns="http://www.w3.org/2000/svg" xmlns:xlink="http://www.w3.org/1999/xlink">
    <!-- Generator: Sketch 41.2 (35397) - http://www.bohemiancoding.com/sketch -->
    <title>Artboard 4 Copy 2</title>
    <desc>Created with Sketch.</desc>
    <defs></defs>
    <g id="Page-1" stroke="none" stroke-width="1" fill="none" fill-rule="evenodd">
        <g id="Artboard-4-Copy-2">
            <g id="Group-12-Copy" transform="translate(33.000000, 31.000000)">
                <path d="M57.0046875,37.0488041 C57.0046875,24.8993923 48.0609375,15.0499805 37.0289063,15.0499805 C25.996875,15.0499805 17.053125,24.8993923 17.053125,37.0488041 C17.053125,42.5488041 18.8859375,47.5770394 21.9152344,51.4346864 C22.1742188,51.7652747 22.44375,52.0876276 22.7214844,52.4017452 C26.3496094,56.5017452 31.4191406,59.0488041 37.0289063,59.0488041 C48.0609375,59.0488041 57.0046875,49.1993923 57.0046875,37.0488041 Z" id="Fill-1" fill="#FA589A"></path>
                <path d="M29.4312891,76.7845688 C29.4312891,76.7845688 28.3285547,60.7092747 21.9324609,51.5045688 L38.0258203,46.4163335 L46.8969141,48.5857452 L52.1516016,51.4210394 C52.1516016,51.4210394 44.5121484,63.4163335 44.6258203,76.7845688" id="Fill-3" fill="#FA589A"></path>
                <polygon id="Fill-8" fill="#000000" points="36.4394531 10.5712747 38.2195312 10.5712747 38.2195312 0.135980534 36.4394531 0.135980534"></polygon>
                <polygon id="Fill-10" fill="#000000" points="0.001171875 38.5042158 10.3957031 38.5042158 10.3957031 36.7159805 0.001171875 36.7159805"></polygon>
                <polygon id="Fill-11" fill="#000000" points="64.2632812 38.5042158 74.6589844 38.5042158 74.6589844 36.7159805 64.2632812 36.7159805"></polygon>
                <polygon id="Fill-12" fill="#000000" points="17.7903516 18.9972747 10.4368359 11.6149217 11.6930859 10.3502158 19.0466016 17.7337452"></polygon>
                <polygon id="Fill-13" fill="#000000" points="57.6352734 18.9972747 56.3755078 17.7337452 63.7278516 10.3502158 64.9876172 11.6149217"></polygon>
                <polygon id="Fill-14" fill="#000000" points="11.3142188 65.0876276 10.0532813 63.8240982 17.405625 56.4405688 18.6665625 57.7052747"></polygon>
                <polygon id="Fill-15" fill="#000000" points="63.3493359 65.0876276 55.9946484 57.7052747 57.2508984 56.4405688 64.6055859 63.8240982"></polygon>
                <path d="M27.8439844,66.1975099 L30.1267969,63.9610394 L34.16625,63.2716276 L39.7502344,63.2716276 L43.7885156,64.0469217 L45.885,65.8586864 C45.885,65.8586864 44.4529688,72.5939805 44.6252344,76.7845688 L29.4307031,76.7845688 C29.4307031,76.7845688 29.0603906,71.3469217 27.8439844,66.1975099" id="Fill-16" fill="#FFFFFF"></path>
                <path d="M36.9305859,75.7252747 C32.2442578,75.7252747 28.8716016,73.7335099 28.6618359,73.6052747 C28.3395703,73.4099805 28.2341016,72.991157 28.4298047,72.6664511 C28.6196484,72.3440982 29.0426953,72.2358629 29.3649609,72.4323335 C29.4364453,72.4735099 36.5919141,76.6758629 44.2969922,72.4182158 C44.6204297,72.2382158 45.0411328,72.3558629 45.2239453,72.6888041 C45.4044141,73.0205688 45.2848828,73.4370394 44.9567578,73.6205688 C42.0997266,75.1982158 39.3423047,75.7252747 36.9305859,75.7252747" id="Fill-17" fill="#000000"></path>
                <path d="M37.0176563,78.5309217 C32.4426563,78.5309217 29.1989063,76.9873923 28.9973438,76.8897452 C28.6598438,76.7250394 28.5192188,76.3156276 28.6821094,75.9756276 C28.845,75.6344511 29.2457813,75.4885688 29.5938281,75.6579805 C29.6653125,75.6909217 36.6285938,78.9862158 44.3582813,75.6438629 C44.7051563,75.499157 45.1071094,75.6544511 45.2535938,76.0026864 C45.4024219,76.3497452 45.2442188,76.7532747 44.8985156,76.9026864 C42.0742969,78.1226864 39.3696094,78.5309217 37.0176563,78.5309217" id="Fill-18" fill="#000000"></path>
                <path d="M37.2350391,72.8588041 C32.2463672,72.8588041 28.4201953,70.6505688 28.1799609,70.5082158 C27.8565234,70.3176276 27.7475391,69.8976276 27.9385547,69.5717452 C28.1283984,69.2458629 28.5491016,69.1340982 28.8713672,69.3270394 C28.9557422,69.3764511 37.1541797,74.0846864 44.8428516,69.3352747 C45.1686328,69.1399805 45.5869922,69.2364511 45.7838672,69.5588041 C45.9807422,69.8823335 45.8811328,70.3035099 45.5600391,70.501157 C42.6983203,72.2693923 39.8119922,72.8588041 37.2350391,72.8588041" id="Fill-19" fill="#000000"></path>
                <path d="M28.6736719,66.1136276 C28.681875,66.7959805 32.4002344,68.5383335 37.0420312,68.5383335 C40.1650781,68.5383335 44.638125,67.6842158 44.8267969,66.2936276 C44.8666406,66.0053923 44.7892969,65.7595099 44.5807031,65.5159805 C44.0791406,64.9289217 42.4244531,63.9324511 37.0197656,63.857157 C34.9045312,63.8183335 30.2299219,64.3253923 28.9303125,65.6159805 C28.6736719,65.8689217 28.6736719,66.0524511 28.6736719,66.1136276 M37.0420312,69.9089217 C32.5408594,69.9089217 27.3084375,68.2500982 27.3084375,66.1136276 C27.3084375,65.5700982 27.5310937,65.0748041 27.9705469,64.6395099 C29.8560937,62.7736276 35.5971094,62.5006864 37.0396875,62.4865688 C41.5689844,62.5500982 44.4553125,63.2689217 45.6142969,64.6230394 C46.0783594,65.1606864 46.2717187,65.8018629 46.1803125,66.4806864 C45.7174219,69.8677452 37.12875,69.9089217 37.0420312,69.9089217" id="Fill-20" fill="#000000"></path>
                <path d="M36.6570703,67.8253923 C35.8308984,63.0783335 31.9543359,55.8936276 28.8465234,50.7018629 C28.6519922,50.377157 28.7562891,49.957157 29.0785547,49.7618629 C29.4008203,49.5653923 29.8215234,49.6689217 30.0148828,49.997157 C32.4980859,54.1406864 35.4617578,59.5477452 37.0449609,64.077157 C38.1793359,59.157157 41.5133203,53.6148041 44.7125391,49.9018629 C44.9598047,49.6148041 45.3933984,49.5865688 45.6746484,49.8300982 C45.9582422,50.0783335 45.9910547,50.5100982 45.7437891,50.7959805 C41.7641016,55.4183335 37.8289453,62.7030394 38.0117578,67.6818629 L36.6570703,67.8253923 Z" id="Fill-21" fill="#000000"></path>
                <path d="M32.1012891,45.331157 C30.5637891,45.331157 29.3157422,46.5852747 29.3157422,48.1288041 C29.3157422,49.6699805 30.5637891,50.9240982 32.1012891,50.9240982 C33.6387891,50.9240982 34.8891797,49.6699805 34.8891797,48.1288041 C34.8891797,46.5852747 33.6387891,45.331157 32.1012891,45.331157 M32.1012891,52.2946864 C29.8137891,52.2946864 27.9505078,50.4264511 27.9505078,48.1288041 C27.9505078,45.831157 29.8137891,43.9605688 32.1012891,43.9605688 C34.3911328,43.9605688 36.2544141,45.831157 36.2544141,48.1288041 C36.2544141,50.4264511 34.3911328,52.2946864 32.1012891,52.2946864" id="Fill-22" fill="#000000"></path>
                <path d="M42.553125,45.331157 C41.0167969,45.331157 39.7664062,46.5852747 39.7664062,48.1288041 C39.7664062,49.6699805 41.0167969,50.9240982 42.553125,50.9240982 C44.090625,50.9240982 45.3386719,49.6699805 45.3386719,48.1288041 C45.3386719,46.5852747 44.090625,45.331157 42.553125,45.331157 M42.553125,52.2946864 C40.2644531,52.2946864 38.4011719,50.4264511 38.4011719,48.1288041 C38.4011719,45.831157 40.2644531,43.9605688 42.553125,43.9605688 C44.840625,43.9605688 46.7039062,45.831157 46.7039062,48.1288041 C46.7039062,50.4264511 44.840625,52.2946864 42.553125,52.2946864" id="Fill-23" fill="#000000"></path>
                <path d="M37.0290234,45.331157 C35.4926953,45.331157 34.2446484,46.5852747 34.2446484,48.1288041 C34.2446484,49.6699805 35.4926953,50.9240982 37.0290234,50.9240982 C38.5665234,50.9240982 39.8145703,49.6699805 39.8145703,48.1288041 C39.8145703,46.5852747 38.5665234,45.331157 37.0290234,45.331157 M37.0290234,52.2946864 C34.7415234,52.2946864 32.8782422,50.4264511 32.8782422,48.1288041 C32.8782422,45.831157 34.7415234,43.9605688 37.0290234,43.9605688 C39.3165234,43.9605688 41.1798047,45.831157 41.1798047,48.1288041 C41.1798047,50.4264511 39.3165234,52.2946864 37.0290234,52.2946864" id="Fill-24" fill="#000000"></path>
            </g>
        </g>
    </g>
</svg>