<?xml version="1.0" encoding="UTF-8" standalone="no"?>
<svg width="140px" height="140px" viewBox="0 0 140 140" version="1.1" xmlns="http://www.w3.org/2000/svg" xmlns:xlink="http://www.w3.org/1999/xlink">
    <!-- Generator: Sketch 41.2 (35397) - http://www.bohemiancoding.com/sketch -->
    <title>Artboard 4 Copy 5</title>
    <desc>Created with Sketch.</desc>
    <defs></defs>
    <g id="Page-1" stroke="none" stroke-width="1" fill="none" fill-rule="evenodd">
        <g id="Artboard-4-Copy-5">
            <g id="Group-16-Copy" transform="translate(24.000000, 37.000000)">
                <path d="M1.84957325,65.1720352 C1.26201519,44.1392928 0.674457135,23.1056324 0.086899077,2.07197197 C18.4223827,2.20876283 36.7541942,2.09125122 55.0795792,1.71943714 C67.0685177,1.47523332 79.0547021,1.12269848 91.0362962,0.660914571 C90.1641397,28.2109611 91.7422839,29.3805688 92.6869671,45.7899637 C93.1074384,53.0894546 92.5226345,59.4975096 90.6993684,65.1720352 C71.1199141,63.0448914 51.7929263,62.9356423 26.6647206,63.5085114 C20.1134483,63.6572371 9.74304854,63.9243924 3.57277087,64.5606076 L1.84957325,65.1720352 Z" id="Fill-1" fill="#7AB7FF"></path>
                <polygon id="Fill-4" fill="#000000" points="8.94433681 8.0053903 8.34943427 57.2152138 85.8777201 56.7965787 84.0498637 9.91128175"></polygon>
                <polygon id="Fill-6" fill="#FFFFFF" points="12.5633272 9.84150923 12.0216721 54.7190101 82.6057561 54.3389335 80.9403963 11.6152001"></polygon>
                <path d="M32.3429184,21.6741681 L32.2189804,22.6776071 C32.2189804,22.6776071 57.3334151,23.3477905 60.2298928,21.5401314 C60.4098324,21.4281282 60.5300982,21.333568 60.5906901,21.2509427 C61.4821259,20.020743 49.0047797,22.1139186 32.3429184,21.6741681" id="Fill-8" fill="#000000"></path>
                <path d="M15.69391,33.506098 L15.69391,34.4774049 C15.69391,34.4774049 73.4077183,34.2699235 76.305114,32.4622644 C76.4850537,32.3502611 76.6044014,32.255701 76.6649933,32.1730756 C77.5573471,30.942876 32.3566893,33.9458485 15.69391,33.506098" id="Fill-10" fill="#000000"></path>
                <path d="M15.69391,39.0153006 L15.69391,39.9856894 C15.69391,39.9856894 73.4077183,39.7791261 76.305114,37.971467 C76.4850537,37.8594637 76.6044014,37.7639855 76.6649933,37.6813602 C77.5573471,36.4511605 32.3566893,39.4550511 15.69391,39.0153006" id="Fill-12" fill="#000000"></path>
                <path d="M15.69391,43.6050771 L15.69391,44.575466 C15.69391,44.575466 73.4077183,44.3689026 76.305114,42.5612435 C76.4850537,42.4492403 76.6044014,42.3537621 76.6649933,42.2720548 C77.5573471,41.040937 32.3566893,44.0448276 15.69391,43.6050771" id="Fill-14" fill="#000000"></path>
            </g>
        </g>
    </g>
</svg>