<?xml version="1.0" encoding="UTF-8" standalone="no"?>
<svg width="140px" height="140px" viewBox="0 0 140 140" version="1.1" xmlns="http://www.w3.org/2000/svg" xmlns:xlink="http://www.w3.org/1999/xlink">
    <!-- Generator: Sketch 41.2 (35397) - http://www.bohemiancoding.com/sketch -->
    <title>Artboard 4 Copy</title>
    <desc>Created with Sketch.</desc>
    <defs>
        <polygon id="path-1" points="0 0.221031864 0 5.77048984 5.75381204 5.77048984 5.75381204 0.221031864 1.56026039e-20 0.221031864"></polygon>
    </defs>
    <g id="Page-1" stroke="none" stroke-width="1" fill="none" fill-rule="evenodd">
        <g id="Artboard-4-Copy">
            <g id="Group-7-Copy" transform="translate(35.000000, 31.000000)">
                <polygon id="Fill-1" fill="#FF645B" points="1.13686838e-13 77.5285899 2.13215013 78.3423103 22.2643905 71.6744196 17.2034122 60.8721365 7.10563206 55.9378743"></polygon>
                <path d="M75.3696649,17.9752188 C73.9674193,15.9403406 72.6480651,14.2759649 69.3381668,10.9172039 C66.0789244,7.61038257 64.5868798,6.38114532 62.610151,4.97300498" id="Stroke-2" stroke="#1D1D1B" stroke-width="7.327"></path>
                <polygon id="Fill-4" fill="#000000" points="7.10517155 55.9368355 11.8104078 59.9165632 18.1228156 66.8487688 22.2650813 71.6756892 79.6592931 14.944947 73.3319189 6.85968219 66.0109995 0.544980738"></polygon>
                <path d="M17.944484,61.4937958 C16.8484759,62.6491634 16.3983298,62.5406674 15.9550912,62.0824447 C15.5797775,61.6911663 15.5383319,60.959395 16.7172313,59.9806221 C21.1173813,55.7215747 64.8137949,13.4173456 69.2127936,9.15714394 C70.1810108,8.18298784 70.5459631,8.54079399 70.9166717,8.92399283 C71.239027,9.25640629 71.513029,9.78849866 70.417021,10.7257199 C66.0249299,14.9651457 22.3365751,57.2532158 17.944484,61.4937958" id="Fill-6" fill="#FFFFFF"></path>
                <path d="M14.3703695,58.7807018 C13.1960751,59.917602 12.8564508,59.911831 12.5237341,59.5667211 C12.142664,59.1719802 12.3245645,58.7368417 13.4827411,57.6161005 C17.9692363,53.2704871 61.7531464,10.8808462 66.2419441,6.53638702 C67.2343379,5.54838036 67.5083399,5.81269522 67.786947,6.10009436 C68.0298648,6.35055866 68.2014038,6.78108025 67.1007907,7.75523635 C62.6235057,12.0812281 18.8476545,54.4535558 14.3703695,58.7807018" id="Fill-8" fill="#FFFFFF"></path>
                <path d="M10.9288812,56.6413673 C9.67975434,57.8786841 9.42992898,57.8105855 9.15247316,57.5208779 C8.84163054,57.1976982 9.05922037,56.7510176 10.2024305,55.6441269 C14.7223124,51.268504 58.538458,8.84769933 63.0560374,4.47207637 C64.0576414,3.47714443 64.2925003,3.69990761 64.5262079,3.94229243 C64.7288312,4.15005084 64.8531683,4.53324968 63.7525552,5.52125634 C59.2441859,9.87841188 15.4384017,52.2830576 10.9288812,56.6413673" id="Fill-10" fill="#FFFFFF"></path>
                <path d="M20.4752034,65.092864 C19.3250857,66.2551569 18.9820076,66.2551569 18.6435345,65.9181266 C18.2555569,65.5326193 18.427096,65.092864 19.5622472,63.9478843 C23.9554895,59.5099339 67.6472981,17.0244932 72.042843,12.5865428 C73.0156653,11.5789145 73.2954236,11.8374583 73.5809383,12.1190863 C73.8284612,12.3626254 74.0092104,12.7896843 72.9293201,13.7846163 C68.5429853,18.2052535 24.8603869,60.6722267 20.4752034,65.092864" id="Fill-12" fill="#FFFFFF"></path>
                <path d="M23.0633712,68.3627505 C21.8453286,69.6300768 21.594352,69.5654409 21.3088373,69.2838128 C20.9899358,68.9687126 21.1960129,68.5185693 22.3138951,67.3839776 C26.7244065,62.8998586 70.4311816,20.3694036 74.8428442,15.8841304 C75.8191203,14.8661142 76.0585843,15.0807979 76.2991995,15.3174116 C76.5087304,15.5217074 76.6411264,15.9002894 75.5646899,16.914843 C71.1622374,21.3816488 27.4646725,63.8947905 23.0633712,68.3627505" id="Fill-14" fill="#FFFFFF"></path>
                <g id="Group-18" transform="translate(0.000000, 72.570897)">
                    <mask id="mask-2" fill="white">
                        <use xlink:href="#path-1"></use>
                    </mask>
                    <g id="Clip-17"></g>
                    <polygon id="Fill-16" fill="#000000" mask="url(#mask-2)" points="-0.000230253793 4.95792361 2.13307114 5.77048984 5.75381204 4.57241634 4.53231567 1.95350616 2.18948332 0.398780726 1.55858793 0.221031864"></polygon>
                </g>
                <path d="M75.2830895,18.8408788 C73.5147404,16.8637113 71.9708887,15.1924103 68.4387955,11.5439418 C64.9723246,7.96241766 63.475675,6.48617873 61.6152243,4.70984433 L65.7678515,0.335375587 C67.6881681,2.16711223 69.2239609,3.68259441 72.7618105,7.336834 C76.3641311,11.058018 77.9482772,12.7720248 79.7684334,14.8092115 L75.2830895,18.8408788 Z" id="Fill-19" fill="#FF645B"></path>
            </g>
        </g>
    </g>
</svg>