<?xml version="1.0" encoding="UTF-8" standalone="no"?>
<svg width="583px" height="211px" viewBox="0 0 583 211" version="1.1" xmlns="http://www.w3.org/2000/svg" xmlns:xlink="http://www.w3.org/1999/xlink">
    <!-- Generator: Sketch 41.2 (35397) - http://www.bohemiancoding.com/sketch -->
    <title>Page 1 Copy</title>
    <desc>Created with Sketch.</desc>
    <defs>
        <polygon id="path-1" points="0 0.8236 0 103.4486 473.6147 103.4486 473.6147 0.8236 0 0.8236"></polygon>
        <polygon id="path-3" points="40.427 16.4344 40.427 0.2384 0.2606 0.2384 0.2606 16.4344 40.427 16.4344"></polygon>
    </defs>
    <g id="Page-1" stroke="none" stroke-width="1" fill="none" fill-rule="evenodd">
        <g id="Paso-1-Copy-65" transform="translate(-349.000000, -163.000000)">
            <g id="Page-1-Copy" transform="translate(349.000000, 162.000000)">
                <path d="M420.7079,62.8495 C419.0569,63.5555 418.2309,64.7325 418.2309,66.3875 C418.2309,67.7955 418.6719,68.9575 419.5619,69.8725 C420.4469,70.7915 421.5969,71.2515 423.0059,71.2515 C425.2099,71.2515 427.0139,70.4705 428.4219,68.9095 C429.8269,67.3505 430.5329,65.3455 430.5329,62.8985 L430.5329,61.7965 L429.0649,61.7965 C425.1459,61.7965 422.3629,62.1475 420.7079,62.8495" id="Fill-1" fill="#1D1D1B"></path>
                <path d="M109.6801,46.1879 C107.5351,46.1879 105.8251,46.8749 104.5391,48.2539 C103.2541,49.6289 102.4851,51.6349 102.2421,54.2689 L116.6581,54.2689 C116.2881,48.8819 113.9611,46.1879 109.6801,46.1879" id="Fill-3" fill="#1D1D1B"></path>
                <path d="M231.4301,62.8495 C229.7791,63.5555 228.9531,64.7325 228.9531,66.3875 C228.9531,67.7955 229.3941,68.9575 230.2831,69.8725 C231.1681,70.7915 232.3191,71.2515 233.7271,71.2515 C235.9311,71.2515 237.7361,70.4705 239.1441,68.9095 C240.5491,67.3505 241.2551,65.3455 241.2551,62.8985 L241.2551,61.7965 L239.7871,61.7965 C235.8681,61.7965 233.0851,62.1475 231.4301,62.8495" id="Fill-5" fill="#1D1D1B"></path>
                <g id="Group-9" transform="translate(0.000000, 0.177000)">
                    <mask id="mask-2" fill="white">
                        <use xlink:href="#path-1"></use>
                    </mask>
                    <g id="Clip-8"></g>
                    <path d="M446.0477,74.3806 C446.0477,76.7076 445.3607,78.5266 443.9817,79.8416 C442.6077,81.1606 440.6907,81.8146 438.2437,81.8146 C436.1037,81.8146 434.3437,81.2056 432.9647,79.9806 C431.5897,78.7556 430.8397,77.1036 430.7157,75.0236 C429.8567,77.2276 428.4227,78.9416 426.4017,80.1636 C424.3807,81.3886 421.9637,82.0016 419.1507,82.0016 C416.0267,82.0016 413.2107,81.3706 410.7037,80.1186 C408.1937,78.8636 406.2167,77.1186 404.7787,74.8846 C403.3407,72.6506 402.6237,70.1256 402.6237,67.3086 C402.6237,64.0666 403.4637,61.4806 405.1487,59.5536 C406.8297,57.6256 409.5077,56.2326 413.1807,55.3766 C416.8527,54.5176 421.8097,54.0916 428.0527,54.0916 L430.5327,54.0916 L430.5327,52.9896 C430.5327,50.8456 430.0437,49.3026 429.0647,48.3536 C428.0827,47.4046 426.4317,46.9296 424.1077,46.9296 C421.5967,46.9296 417.9247,47.7856 413.0907,49.5006 C411.6787,49.9896 410.4867,50.2326 409.5077,50.2326 C407.9767,50.2326 406.7557,49.6836 405.8357,48.5816 C404.9167,47.4796 404.4577,46.0416 404.4577,44.2666 C404.4577,42.9216 404.7347,41.8196 405.2867,40.9606 C405.8357,40.1046 406.7217,39.3386 407.9467,38.6666 C410.0907,37.5646 412.7807,36.6796 416.0267,36.0036 C419.2697,35.3306 422.4527,34.9946 425.5757,34.9946 C432.5537,34.9946 437.7097,36.6606 441.0457,39.9966 C444.3817,43.3326 446.0477,48.3986 446.0477,55.1896 L446.0477,74.3806 Z M380.9057,80.4396 C379.2507,81.4786 376.8937,81.9076 373.8337,81.7246 L371.2637,81.5416 C365.7567,81.1126 361.5767,79.4456 358.7337,76.5356 C355.8867,73.6296 354.4637,69.5766 354.4637,64.3726 L354.4637,48.1216 L351.7997,48.1216 C346.9027,48.1216 344.4557,46.1006 344.4557,42.0626 C344.4557,38.0836 346.9027,36.0966 351.7997,36.0966 L354.4637,36.0966 L354.4637,30.1266 C354.4637,27.8026 355.1957,25.9506 356.6677,24.5716 C358.1357,23.1966 360.1237,22.5056 362.6337,22.5056 C365.1447,22.5056 367.1317,23.1966 368.5997,24.5716 C370.0717,25.9506 370.8037,27.8026 370.8037,30.1266 L370.8037,36.0966 L375.8547,36.0966 C380.7527,36.0966 383.1987,38.0836 383.1987,42.0626 C383.1987,46.1006 380.7527,48.1216 375.8547,48.1216 L370.8037,48.1216 L370.8037,65.7506 C370.8037,66.9126 371.1547,67.8916 371.8607,68.6876 C372.5637,69.4836 373.4677,69.9126 374.5697,69.9726 L377.2337,70.1556 C381.3317,70.4016 383.3817,72.2356 383.3817,75.6656 C383.3817,77.8096 382.5567,79.3976 380.9057,80.4396 L380.9057,80.4396 Z M326.7147,74.2876 C326.7147,76.6146 325.9787,78.4526 324.5107,79.7976 C323.0427,81.1426 321.0507,81.8146 318.5447,81.8146 C316.0337,81.8146 314.0427,81.1426 312.5747,79.7976 C311.1067,78.4526 310.3707,76.6146 310.3707,74.2876 L310.3707,55.1896 C310.3707,52.5006 309.8967,50.5386 308.9467,49.3176 C307.9987,48.0916 306.5747,47.4796 304.6807,47.4796 C302.2307,47.4796 300.2877,48.2596 298.8497,49.8216 C297.4117,51.3826 296.6907,53.4786 296.6907,56.1096 L296.6907,74.2876 C296.6907,76.6146 295.9577,78.4526 294.4897,79.7976 C293.0177,81.1426 291.0307,81.8146 288.5207,81.8146 C286.0097,81.8146 284.0227,81.1426 282.5537,79.7976 C281.0867,78.4526 280.3497,76.6146 280.3497,74.2876 L280.3497,42.5226 C280.3497,40.3816 281.1157,38.6186 282.6437,37.2436 C284.1757,35.8646 286.1627,35.1776 288.6137,35.1776 C290.9377,35.1776 292.7907,35.8196 294.1687,37.1056 C295.5437,38.3906 296.2347,40.0746 296.2347,42.1556 C297.8217,39.8286 299.8737,38.0536 302.3837,36.8286 C304.8937,35.6076 307.6767,34.9946 310.7407,34.9946 C316.1237,34.9946 320.1317,36.6006 322.7657,39.8136 C325.3957,43.0266 326.7147,47.9086 326.7147,54.4576 L326.7147,74.2876 Z M256.7697,74.3806 C256.7697,76.7076 256.0827,78.5266 254.7037,79.8416 C253.3287,81.1606 251.4127,81.8146 248.9657,81.8146 C246.8247,81.8146 245.0657,81.2056 243.6867,79.9806 C242.3127,78.7556 241.5617,77.1036 241.4377,75.0236 C240.5787,77.2276 239.1447,78.9416 237.1237,80.1636 C235.1027,81.3886 232.6857,82.0016 229.8717,82.0016 C226.7487,82.0016 223.9327,81.3706 221.4257,80.1186 C218.9157,78.8636 216.9387,77.1186 215.5007,74.8846 C214.0627,72.6506 213.3447,70.1256 213.3447,67.3086 C213.3447,64.0666 214.1857,61.4806 215.8707,59.5536 C217.5517,57.6256 220.2307,56.2326 223.9017,55.3766 C227.5747,54.5176 232.5317,54.0916 238.7747,54.0916 L241.2547,54.0916 L241.2547,52.9896 C241.2547,50.8456 240.7657,49.3026 239.7867,48.3536 C238.8047,47.4046 237.1527,46.9296 234.8297,46.9296 C232.3187,46.9296 228.6467,47.7856 223.8127,49.5006 C222.4007,49.9896 221.2087,50.2326 220.2307,50.2326 C218.6987,50.2326 217.4767,49.6836 216.5577,48.5816 C215.6387,47.4796 215.1797,46.0416 215.1797,44.2666 C215.1797,42.9216 215.4557,41.8196 216.0087,40.9606 C216.5577,40.1046 217.4437,39.3386 218.6687,38.6666 C220.8127,37.5646 223.5027,36.6796 226.7487,36.0036 C229.9917,35.3306 233.1747,34.9946 236.2977,34.9946 C243.2767,34.9946 248.4317,36.6606 251.7677,39.9966 C255.1037,43.3326 256.7697,48.3986 256.7697,55.1896 L256.7697,74.3806 Z M196.2877,45.1856 L180.2207,77.1336 C179.4877,78.6656 178.4307,79.8416 177.0567,80.6676 C175.6777,81.4936 174.1607,81.9076 172.5097,81.9076 C170.8587,81.9076 169.3267,81.4936 167.9187,80.6676 C166.5097,79.8416 165.4417,78.6656 164.7057,77.1336 L148.6387,45.1856 C148.1487,44.0836 147.9057,43.1046 147.9057,42.2456 C147.9057,40.2876 148.7467,38.6186 150.4317,37.2436 C152.1127,35.8646 154.0547,35.1776 156.2587,35.1776 C157.7277,35.1776 159.0907,35.5586 160.3457,36.3246 C161.5977,37.0896 162.5617,38.2366 163.2377,39.7686 L172.9697,60.7936 L182.6077,39.7686 C183.2837,38.2366 184.2177,37.1056 185.4097,36.3696 C186.6047,35.6366 187.9017,35.2676 189.3137,35.2676 C191.3307,35.2676 193.1197,35.9436 194.6817,37.2886 C196.2427,38.6366 197.0237,40.2576 197.0237,42.1556 C197.0237,43.1946 196.7767,44.2066 196.2877,45.1856 L196.2877,45.1856 Z M105.1817,68.1376 C106.6507,69.4226 108.8207,70.0656 111.7007,70.0656 C113.2287,70.0656 114.6367,69.8976 115.9227,69.5616 C117.2077,69.2256 118.6457,68.7506 120.2367,68.1376 C121.1557,67.7686 122.0567,67.4466 122.9457,67.1736 C123.8307,66.8976 124.6457,66.7596 125.3777,66.7596 C126.7857,66.7596 127.9327,67.3086 128.8217,68.4106 C129.7077,69.5126 130.1517,70.9506 130.1517,72.7256 C130.1517,75.1756 128.9597,77.0446 126.5727,78.3296 C124.4917,79.3676 122.0267,80.2416 119.1797,80.9436 C116.3367,81.6466 113.7177,82.0016 111.3307,82.0016 C106.3137,82.0016 101.9357,81.0526 98.2037,79.1546 C94.4677,77.2566 91.5907,74.5336 89.5737,70.9806 C87.5527,67.4316 86.5447,63.2706 86.5447,58.4966 C86.5447,53.9686 87.5077,49.9116 89.4357,46.3326 C91.3637,42.7496 94.0567,39.9666 97.5167,37.9756 C100.9717,35.9876 104.8717,34.9946 109.2207,34.9946 C113.4417,34.9946 117.1477,35.9096 120.3307,37.7476 C123.5097,39.5816 125.9757,42.1856 127.7197,45.5516 C129.4647,48.9176 130.3347,52.8666 130.3347,57.3936 C130.3347,58.8026 130.0137,59.8896 129.3707,60.6556 C128.7287,61.4216 127.7947,61.8016 126.5727,61.8016 L102.3357,61.8016 C102.7607,64.7386 103.7107,66.8526 105.1817,68.1376 L105.1817,68.1376 Z M69.5807,79.6146 C68.2657,80.7166 66.2597,81.2656 63.5667,81.2656 L33.3627,81.2656 C30.8527,81.2656 28.9247,80.5926 27.5797,79.2446 C26.2317,77.8996 25.5587,75.9426 25.5587,73.3676 L25.5587,24.3436 C25.5587,21.8336 26.3057,19.8316 27.8077,18.3296 C29.3057,16.8316 31.3417,16.0806 33.9117,16.0806 C36.5457,16.0806 38.6267,16.8316 40.1537,18.3296 C41.6857,19.8316 42.4517,21.8336 42.4517,24.3436 L42.4517,67.5856 L63.5667,67.5856 C68.8937,67.5856 71.5527,69.8826 71.5527,74.4696 C71.5527,76.7976 70.8957,78.5126 69.5807,79.6146 L69.5807,79.6146 Z M469.7517,8.7566 L86.2987,0.8236 C86.2987,0.8236 30.0317,3.4506 -0.0003,6.3156 L3.5687,99.6746 L187.6847,103.4486 L473.6147,97.1856 L469.7517,8.7566 Z" id="Fill-7" fill="#000000" mask="url(#mask-2)"></path>
                </g>
                <path d="M41.8094,169.5297 L66.7824,169.5297 C68.8004,169.5297 70.2714,169.7577 71.1874,170.2167 C72.1064,170.6757 72.7184,171.3977 73.0254,172.3767 C73.3314,173.3547 73.4844,174.6547 73.4844,176.2767 C73.4844,177.8977 73.3314,179.2017 73.0254,180.1797 C72.7184,181.1587 72.1994,181.8317 71.4634,182.1977 C70.3014,182.8097 68.7104,183.1167 66.6894,183.1167 L33.6394,183.1167 C29.3544,183.1167 26.8434,181.9547 26.1074,179.6277 C25.7414,178.6487 25.5584,177.0877 25.5584,174.9467 L25.5584,123.8977 C25.5584,122.4927 25.6034,121.4357 25.6974,120.7327 C25.7864,120.0267 26.0784,119.2167 26.5674,118.2977 C27.4264,116.6457 29.8134,115.8207 33.7284,115.8207 C38.0134,115.8207 40.5544,116.9527 41.3494,119.2167 C41.6564,120.2587 41.8094,121.8497 41.8094,123.9907 L41.8094,169.5297 Z" id="Fill-10" fill="#FFBC00"></path>
                <path d="M123.7045,142.6284 L117.6445,155.2064 L129.8575,155.2064 L123.7045,142.6284 Z M131.1425,120.5954 L155.9295,171.8234 C156.9715,173.9034 157.4905,175.4664 157.4905,176.5084 C157.4905,178.7084 155.7165,180.6994 152.1675,182.4744 C150.0825,183.5124 148.4465,184.0354 147.2545,184.0354 C146.0585,184.0354 145.0805,183.7594 144.3145,183.2104 C143.5485,182.6564 142.9995,182.0774 142.6635,181.4654 C142.3275,180.8534 141.8525,179.9344 141.2405,178.7084 L136.4655,168.7934 L111.0365,168.7934 L106.2625,178.7084 C105.6495,179.9344 105.1755,180.8224 104.8385,181.3714 C104.4985,181.9254 103.9495,182.4884 103.1835,183.0714 C102.4175,183.6504 101.4395,183.9414 100.2475,183.9414 C99.0525,183.9414 97.4155,183.4234 95.3355,182.3804 C91.7865,180.6694 90.0115,178.7084 90.0115,176.5084 C90.0115,175.4664 90.5315,173.9034 91.5695,171.8234 L116.3595,120.5014 C117.0325,119.0934 118.0595,117.9614 119.4345,117.1064 C120.8125,116.2504 122.2665,115.8204 123.7975,115.8204 C127.1005,115.8204 129.5475,117.4124 131.1425,120.5954 L131.1425,120.5954 Z" id="Fill-12" fill="#CB78D3"></path>
                <path d="M282.993,118.3911 C283.483,119.3101 283.774,120.1351 283.864,120.8681 C283.957,121.6041 284.002,122.6761 284.002,124.0841 L284.002,175.0371 C284.002,179.2611 282.84,181.7381 280.513,182.4741 C279.351,182.8401 277.883,183.0231 276.108,183.0231 C274.33,183.0231 272.922,182.8731 271.883,182.5681 C270.841,182.2611 270.049,181.8911 269.496,181.4651 C268.947,181.0361 268.517,180.4231 268.211,179.6271 C267.905,178.5891 267.751,176.9971 267.751,174.8531 L267.751,144.0971 C266.22,145.9951 263.99,149.0091 261.049,153.1411 C258.113,157.2731 256.245,159.8581 255.45,160.9001 C254.654,161.9391 254.101,162.6601 253.798,163.0551 C253.488,163.4551 252.741,164.0041 251.546,164.7101 C250.354,165.4121 249.069,165.7641 247.69,165.7641 C246.316,165.7641 245.06,165.4431 243.929,164.8001 C242.793,164.1581 241.982,163.5301 241.493,162.9171 L240.761,161.9091 C239.535,160.3801 237.118,157.1201 233.506,152.1321 C229.893,147.1411 227.936,144.4661 227.629,144.0971 L227.629,175.0371 C227.629,176.4451 227.584,177.5011 227.495,178.2041 C227.402,178.9111 227.11,179.6911 226.62,180.5461 C225.701,182.1981 223.314,183.0231 219.459,183.0231 C215.727,183.0231 213.4,182.1981 212.481,180.5461 C211.992,179.6911 211.7,178.8951 211.61,178.1601 C211.517,177.4231 211.472,176.3221 211.472,174.8531 L211.472,123.8981 C211.472,122.4931 211.517,121.4361 211.61,120.7331 C211.7,120.0271 211.992,119.2161 212.481,118.2971 C213.4,116.7061 215.787,115.9111 219.642,115.9111 C221.297,115.9111 222.721,116.1121 223.912,116.5081 C225.108,116.9081 225.885,117.3191 226.255,117.7481 L226.804,118.2971 L247.645,145.6591 C258.05,131.8881 264.998,122.7991 268.487,118.3911 C269.526,116.7401 271.988,115.9111 275.877,115.9111 C279.762,115.9111 282.134,116.7401 282.993,118.3911" id="Fill-14" fill="#FF645B"></path>
                <path d="M335.6,142.6284 L329.541,155.2064 L341.753,155.2064 L335.6,142.6284 Z M343.038,120.5954 L367.825,171.8234 C368.867,173.9034 369.386,175.4664 369.386,176.5084 C369.386,178.7084 367.612,180.6994 364.063,182.4744 C361.978,183.5124 360.342,184.0354 359.15,184.0354 C357.955,184.0354 356.976,183.7594 356.21,183.2104 C355.445,182.6564 354.895,182.0774 354.559,181.4654 C354.223,180.8534 353.748,179.9344 353.136,178.7084 L348.362,168.7934 L322.932,168.7934 L318.158,178.7084 C317.545,179.9344 317.071,180.8224 316.735,181.3714 C316.394,181.9254 315.846,182.4884 315.079,183.0714 C314.314,183.6504 313.335,183.9414 312.143,183.9414 C310.948,183.9414 309.311,183.4234 307.231,182.3804 C303.682,180.6694 301.908,178.7084 301.908,176.5084 C301.908,175.4664 302.427,173.9034 303.465,171.8234 L328.256,120.5014 C328.928,119.0934 329.955,117.9614 331.33,117.1064 C332.709,116.2504 334.162,115.8204 335.694,115.8204 C338.996,115.8204 341.443,117.4124 343.038,120.5954 L343.038,120.5954 Z" id="Fill-16" fill="#49B172"></path>
                <path d="M430.7611,118.6186 C431.3401,117.5506 432.2141,116.8296 433.3761,116.4636 C434.5381,116.0976 435.9951,115.9106 437.7401,115.9106 C439.4801,115.9106 440.8881,116.0636 441.9611,116.3696 C443.0331,116.6766 443.8281,117.0466 444.3481,117.4726 C444.8671,117.9016 445.2521,118.5446 445.4951,119.3996 C445.8651,120.3826 446.0481,121.9396 446.0481,124.0846 L446.0481,175.0366 C446.0481,176.5086 445.9991,177.5766 445.9091,178.2486 C445.8161,178.9256 445.5251,179.7216 445.0351,180.6366 C444.1801,182.2916 441.7931,183.1166 437.8741,183.1166 C435.4871,183.1166 433.8351,182.9336 432.9161,182.5676 C432.0011,182.1976 431.2321,181.6186 430.6231,180.8226 C416.8531,162.4576 407.7941,150.4626 403.4451,144.8326 L403.4451,175.0366 C403.4451,176.5086 403.4001,177.5766 403.3111,178.2486 C403.2171,178.9256 402.9261,179.7216 402.4361,180.6366 C401.5771,182.2916 399.1901,183.1166 395.2751,183.1166 C391.4791,183.1166 389.1561,182.2916 388.2971,180.6366 C387.8071,179.7216 387.5161,178.8946 387.4261,178.1596 C387.3331,177.4236 387.2881,176.3546 387.2881,174.9466 L387.2881,123.7146 C387.2881,121.3906 387.5791,119.6906 388.1621,118.6186 C388.7411,117.5506 389.6151,116.8296 390.7771,116.4636 C391.9391,116.0976 393.4411,115.9106 395.2751,115.9106 C397.1131,115.9106 398.5661,116.0826 399.6381,116.4186 C400.7071,116.7546 401.4581,117.1366 401.8871,117.5646 C402.1301,117.7486 402.8321,118.5446 403.9981,119.9526 C416.9121,137.5176 425.5421,149.1176 429.8871,154.7476 L429.8871,123.7146 C429.8871,121.3906 430.1781,119.6906 430.7611,118.6186" id="Fill-18" fill="#FA589A"></path>
                <path d="M481.1151,149.6069 C481.1151,155.0529 482.8751,159.4769 486.3941,162.8729 C489.9131,166.2679 493.8461,167.9679 498.1911,167.9679 C502.5401,167.9679 506.4551,166.3169 509.9441,163.0109 C513.4331,159.7049 515.1781,155.2659 515.1781,149.6969 C515.1781,144.1299 513.4181,139.6589 509.8991,136.2929 C506.3801,132.9269 502.4461,131.2459 498.1021,131.2459 C493.7531,131.2459 489.8381,132.9419 486.3491,136.3409 C482.8601,139.7369 481.1151,144.1609 481.1151,149.6069 M497.8251,114.9959 C506.8851,114.9959 514.7481,118.2679 521.4201,124.8169 C528.0921,131.3689 531.4281,139.4949 531.4281,149.1919 C531.4281,158.8939 528.2451,167.1579 521.8801,173.9829 C515.5141,180.8079 507.6801,184.2179 498.3781,184.2179 C489.0731,184.2179 481.1641,180.8529 474.6451,174.1209 C468.1261,167.3849 464.8651,159.3689 464.8651,150.0669 C464.8651,144.9859 465.7831,140.2259 467.6221,135.7889 C469.4561,131.3499 471.9031,127.6329 474.9661,124.6329 C478.0261,121.6369 481.5451,119.2799 485.5231,117.5649 C489.5021,115.8509 493.6041,114.9959 497.8251,114.9959" id="Fill-20" fill="#7AB7FF"></path>
                <g id="Group-24" transform="translate(542.000000, 141.177000)">
                    <mask id="mask-4" fill="white">
                        <use xlink:href="#path-3"></use>
                    </mask>
                    <g id="Clip-23"></g>
                    <path d="M0.2606,10.4484 L0.2606,6.2244 C0.2606,2.9314 2.9546,0.2384 6.2466,0.2384 L34.4416,0.2384 C37.7336,0.2384 40.4276,2.9314 40.4276,6.2244 L40.4276,10.4484 C40.4276,13.7404 37.7336,16.4344 34.4416,16.4344 L6.2466,16.4344 C2.9546,16.4344 0.2606,13.7404 0.2606,10.4484" id="Fill-22" fill="#1D1D1B" mask="url(#mask-4)"></path>
                </g>
                <path d="M538.2152,129.2123 L536.1202,125.5443 C534.4872,122.6853 535.4902,119.0103 538.3492,117.3773 L562.8312,103.3933 C565.6902,101.7603 569.3652,102.7633 570.9982,105.6213 L573.0932,109.2893 C574.7262,112.1493 573.7232,115.8233 570.8642,117.4563 L546.3822,131.4413 C543.5232,133.0733 539.8482,132.0703 538.2152,129.2123" id="Fill-25" fill="#000000"></path>
                <path d="M523.0824,111.6039 L519.4464,109.4549 C516.6124,107.7789 515.6644,104.0889 517.3404,101.2539 L523.0594,91.5819 C524.7354,88.7479 528.4254,87.7999 531.2594,89.4759 L534.8954,91.6249 C537.7284,93.3009 538.6774,96.9909 537.0014,99.8249 L531.2824,109.4979 C529.6064,112.3329 525.9164,113.2799 523.0824,111.6039" id="Fill-27" fill="#000000"></path>
                <path d="M522.9227,188.2202 L519.2867,190.3692 C516.4527,192.0452 515.5057,195.7352 517.1807,198.5692 L522.9007,208.2422 C524.5757,211.0762 528.2657,212.0242 531.0997,210.3482 L534.7357,208.1992 C537.5697,206.5232 538.5177,202.8332 536.8417,199.9992 L531.1227,190.3252 C529.4467,187.4912 525.7567,186.5442 522.9227,188.2202" id="Fill-29" fill="#000000"></path>
                <path d="M537.2777,170.895 L535.1827,174.562 C533.5497,177.421 534.5527,181.096 537.4117,182.73 L561.8937,196.713 C564.7527,198.346 568.4277,197.343 570.0607,194.485 L572.1557,190.817 C573.7887,187.958 572.7857,184.283 569.9267,182.65 L545.4447,168.666 C542.5857,167.033 538.9107,168.036 537.2777,170.895" id="Fill-31" fill="#000000"></path>
            </g>
        </g>
    </g>
</svg>