<?xml version="1.0" encoding="UTF-8" standalone="no"?>
<svg width="105px" height="75px" viewBox="0 0 105 75" version="1.1" xmlns="http://www.w3.org/2000/svg" xmlns:xlink="http://www.w3.org/1999/xlink">
    <!-- Generator: Sketch 41.2 (35397) - http://www.bohemiancoding.com/sketch -->
    <title>Artboard 3 Copy 22</title>
    <desc>Created with Sketch.</desc>
    <defs>
        <polygon id="path-1" points="0.184988998 59.3598536 100.489731 59.3598536 100.489731 0.30904398 0.184988998 0.30904398"></polygon>
    </defs>
    <g id="Page-1" stroke="none" stroke-width="1" fill="none" fill-rule="evenodd">
        <g id="Artboard-3-Copy-22">
            <g id="Group-19" transform="translate(2.000000, 7.000000)">
                <polygon id="Fill-1" fill="#FFFFFF" points="0.184988998 18.0027173 0.184988998 19.1250311 1.83200415 19.1250311 1.83200415 24.8242678 3.20690375 24.8242678 3.20690375 19.1250311 4.90469645 19.1250311 4.90469645 18.0027173"></polygon>
                <path d="M7.74654622,19.0435267 C6.55435897,19.0435267 6.2405798,20.1246109 6.2405798,21.3476119 C6.2405798,22.7021137 6.54394307,23.8135777 7.74654622,23.8135777 C8.91876965,23.8135777 9.26249456,22.7220775 9.26249456,21.3476119 C9.26249456,20.1046471 8.93916747,19.0435267 7.74654622,19.0435267 Z M7.74654622,24.9254756 C5.49323854,24.9254756 4.84615037,23.217701 4.84615037,21.3580278 C4.84615037,19.5690959 5.47284072,17.902117 7.74654622,17.902117 C10.0610474,17.902117 10.6673399,19.5486981 10.6673399,21.3580278 C10.6673399,23.1868873 10.0002879,24.9254756 7.74654622,24.9254756 Z" id="Fill-2" fill="#FFFFFF"></path>
                <path d="M13.9952219,19.07408 L13.095982,19.07408 L13.095982,23.6722685 C13.3281699,23.7430099 13.7834318,23.8137513 14.2682054,23.8137513 C15.1574634,23.8137513 15.8752929,23.2981639 15.8752929,21.3378036 C15.8752929,19.6903544 15.3597056,19.07408 13.9952219,19.07408 M14.1978981,24.9252152 C13.207085,24.9252152 12.3985503,24.7433709 11.7722939,24.5615265 L11.7722939,18.0025437 L14.0459994,18.0025437 C16.0267576,18.0025437 17.2797043,18.8110784 17.2797043,21.3477855 C17.2797043,23.5611655 16.3197049,24.9252152 14.1978981,24.9252152" id="Fill-4" fill="#FFFFFF"></path>
                <path d="M21.1535967,19.0435267 C19.9614095,19.0435267 19.6476303,20.1246109 19.6476303,21.3476119 C19.6476303,22.7021137 19.9509936,23.8135777 21.1535967,23.8135777 C22.3258202,23.8135777 22.6699791,22.7220775 22.6699791,21.3476119 C22.6699791,20.1046471 22.346652,19.0435267 21.1535967,19.0435267 M21.1535967,24.9254756 C18.9002891,24.9254756 18.2536349,23.217701 18.2536349,21.3580278 C18.2536349,19.5690959 18.8803252,17.902117 21.1535967,17.902117 C23.4680979,17.902117 24.0743904,19.5486981 24.0743904,21.3580278 C24.0743904,23.1868873 23.4073384,24.9254756 21.1535967,24.9254756" id="Fill-6" fill="#FFFFFF"></path>
                <path d="M26.9477049,24.9253888 C26.0384831,24.9253888 25.27031,24.6020618 24.7247769,24.1975774 L25.2299484,23.1564208 C25.6244508,23.5001457 26.3418464,23.8134909 26.9676687,23.8134909 C27.5943591,23.8134909 28.0192412,23.4294043 28.0192412,22.914251 C28.0192412,21.469044 24.8658257,22.1864395 24.8658257,19.7812332 C24.8658257,18.7504925 25.6743604,17.9020302 27.271032,17.9020302 C28.0695848,17.9020302 28.7466187,18.0734586 29.3021337,18.36684 L28.8581557,19.4279604 C28.4840511,19.2053204 27.8777585,19.0538558 27.2510682,19.0538558 C26.6347937,19.0538558 26.2303094,19.256098 26.2303094,19.7612694 C26.2303094,20.9838364 29.4036888,20.5090447 29.4036888,22.8330937 C29.4036888,23.914612 28.5040149,24.9253888 26.9477049,24.9253888" id="Fill-8" fill="#FFFFFF"></path>
                <path d="M14.4203211,27.5505444 L13.7033595,27.5505444 L13.7033595,29.8346658 L14.4203211,29.8346658 C15.198476,29.8346658 15.643322,29.3590061 15.643322,28.6116648 C15.643322,27.9142331 15.1785122,27.5505444 14.4203211,27.5505444 M14.4507008,30.8753884 L13.7033595,30.8753884 L13.7033595,33.250215 L12.3792375,33.250215 L12.3792375,26.4286645 L14.4507008,26.4286645 C15.8455642,26.4286645 17.0481674,27.0957165 17.0481674,28.5613213 C17.0481674,29.8745934 16.0577883,30.8753884 14.4507008,30.8753884" id="Fill-10" fill="#FFFFFF"></path>
                <path d="M20.588013,27.4696041 C19.3953918,27.4696041 19.0820466,28.5506884 19.0820466,29.7736893 C19.0820466,31.1281911 19.3854099,32.2396551 20.588013,32.2396551 C21.7602365,32.2396551 22.1039614,31.1481549 22.1039614,29.7736893 C22.1039614,28.5307245 21.7806343,27.4696041 20.588013,27.4696041 M20.588013,33.3515531 C18.3347054,33.3515531 17.6876172,31.6433445 17.6876172,29.7841052 C17.6876172,27.9951734 18.3143075,26.3277604 20.588013,26.3277604 C22.9025142,26.3277604 23.5083727,27.9747755 23.5083727,29.7841052 C23.5083727,31.6129647 22.8417547,33.3515531 20.588013,33.3515531" id="Fill-12" fill="#FFFFFF"></path>
                <path d="M26.604197,27.4596222 L25.937145,27.4596222 L25.937145,29.6421885 L26.604197,29.6421885 C27.4734912,29.6421885 27.8371799,29.2481201 27.8371799,28.4703991 C27.8371799,27.7122079 27.4027498,27.4596222 26.604197,27.4596222 L26.604197,27.4596222 Z M25.937145,33.249998 L24.6238729,33.249998 L24.6238729,26.4288815 L26.8164211,26.4288815 C28.160507,26.4288815 29.2524411,27.0551378 29.2524411,28.479947 C29.2524411,29.4000187 28.7264379,30.0870345 27.9586988,30.4407413 C28.4334905,31.3903248 28.92868,32.2999806 29.4034718,33.249998 L27.8475958,33.249998 L26.7257159,30.6733632 C26.4223526,30.6833451 26.2205445,30.6833451 25.937145,30.6833451 L25.937145,33.249998 Z" id="Fill-14" fill="#FFFFFF"></path>
                <path d="M7.3725284,41.7772833 C5.45252971,41.7772833 4.421789,40.5039388 4.421789,38.2302333 C4.421789,36.1079924 5.4425478,34.7539246 7.3725284,34.7539246 C8.30258201,34.7539246 9.14106245,34.9557328 9.69657744,35.3298374 L9.191406,36.4009398 C8.83813318,36.1279562 8.22142474,35.9261481 7.51401112,35.9261481 C6.38214932,35.9261481 5.81621843,36.7242669 5.81621843,38.2202514 C5.81621843,39.7965252 6.38214932,40.6046259 7.4940473,40.6046259 C8.16066529,40.6046259 8.82771728,40.3220944 9.29252709,39.9783695 L9.71740925,41.0494719 C9.03994136,41.5147157 8.27176829,41.7772833 7.3725284,41.7772833" id="Fill-16" fill="#FFFFFF"></path>
                <polygon id="Fill-18" fill="#FFFFFF" points="14.5506067 41.6762056 14.5506067 38.8461171 12.0243155 38.8461171 12.0243155 41.6762056 10.6902115 41.6762056 10.6902115 34.8546551 12.0243155 34.8546551 12.0243155 37.643948 14.5506067 37.643948 14.5506067 34.8546551 15.8946926 34.8546551 15.8946926 41.6762056"></polygon>
                <mask id="mask-2" fill="white">
                    <use xlink:href="#path-1"></use>
                </mask>
                <g id="Clip-21"></g>
                <polygon id="Fill-20" fill="#FFFFFF" mask="url(#mask-2)" points="17.3838199 41.676249 18.707508 41.676249 18.707508 34.8546985 17.3838199 34.8546985"></polygon>
                <polygon id="Fill-22" fill="#FFFFFF" mask="url(#mask-2)" points="20.2349572 41.6762056 20.2349572 34.8546551 21.5590793 34.8546551 21.5590793 40.5643076 24.4290954 40.5643076 24.4290954 41.6762056"></polygon>
                <polygon id="Fill-23" fill="#FFFFFF" mask="url(#mask-2)" points="25.209594 41.6762056 25.209594 34.8546551 29.4037322 34.8546551 29.4037322 35.976535 26.533282 35.976535 26.533282 37.6539299 28.7262643 37.6539299 28.6251432 38.8261533 26.533282 38.8261533 26.533282 40.5747235 29.4037322 40.5747235 29.4037322 41.6762056"></polygon>
                <path d="M35.2818186,59.3598536 L100.489731,59.3598536 L100.489731,0.30904398 L35.2818186,0.30904398 L35.2818186,59.3598536 Z M35.8807332,58.760939 L61.6553268,58.760939 L61.6553268,0.907524584 L35.8807332,0.907524584 L35.8807332,58.760939 Z M62.2546754,58.760939 L99.89125,58.760939 L99.89125,0.907524584 L62.2546754,0.907524584 L62.2546754,58.760939 Z" id="Fill-24" fill="#FFFFFF" mask="url(#mask-2)"></path>
                <path d="M49.204847,8.28011991 C49.2643045,8.23194635 49.3879934,8.12518331 49.2877403,7.92337513 C49.2400007,7.82876398 49.1145759,7.81965006 49.1688254,7.80836617 C49.8410853,7.65039159 50.2004341,6.66912644 50.1800362,6.29285183 C50.5250631,6.61183895 51.3006141,6.70254414 51.8630731,6.22428045 C52.2267618,5.8744796 52.4016622,4.95527589 51.7801798,4.49437205 C51.4624947,4.25958016 50.8991678,4.23918235 50.5467629,4.51173189 C50.4352259,4.32424558 50.2416637,4.19057478 50.0342136,4.1892728 C50.0311756,4.12373939 50.0428935,3.68062938 49.7803258,3.39375797 C49.4439789,3.02746527 48.4991694,2.99968952 48.1563125,3.40070191 C47.4775426,3.23057544 46.5960966,3.54348662 46.6451381,4.60677703 C46.1681764,4.41842273 45.8951929,4.41538476 45.6430411,4.43838655 C45.4060793,4.46095435 45.0892621,4.67274444 44.9798951,4.81813313 C44.9291176,4.88279854 44.8731321,4.97393772 44.8319025,5.05249101 C44.7546512,5.20569163 44.6947597,5.40619782 44.7168935,5.62970581 C44.7520472,6.0077164 44.9382315,6.32626953 45.213385,6.47730017 C45.5918296,6.6847503 46.0722633,6.65697455 46.2432577,6.62963279 C46.3747586,6.60055506 46.5162413,6.55281549 46.6655359,6.3965769 C46.7093695,6.3514413 46.7414852,6.28026594 46.8057167,6.27939795 C46.8039807,6.37487709 46.769695,6.88482249 47.3377959,7.12655831 C47.3403998,7.15086209 47.3486458,7.17473188 47.3542877,7.21118755 C47.5339621,7.91209123 48.0061498,7.82572601 48.0135278,7.87433357 C47.8043417,8.00106043 47.8928769,8.18464077 47.9423524,8.27968592 C48.2617735,8.1816028 48.4983014,8.16814892 48.5733827,8.16814892 C48.648898,8.16814892 48.8854259,8.1816028 49.204847,8.28011991" id="Fill-25" fill="#FFFFFF" mask="url(#mask-2)"></path>
                <path d="M50.4322314,10.3901221 L49.2066264,11.2680962 L49.6757762,12.6542797 L48.4992128,11.7619837 L47.3239514,12.6542797 L47.7922332,11.2680962 L46.5666282,10.3909901 L46.5622883,10.3892541 L48.0743306,10.3892541 L48.4992128,8.98614475 L48.923661,10.3892541 L50.4352693,10.3892541 L50.4322314,10.3901221 Z M50.8002601,10.396632 C50.7980901,9.69355837 51.2728818,9.15019527 51.2789577,9.14325133 C51.3306033,9.08509586 51.3362452,9.03041235 51.3323393,8.99222069 C51.3232253,8.92712128 51.2728818,8.88328768 51.2624659,8.88198569 C51.1266251,8.79041251 50.8223939,8.60422819 50.8223939,8.60422819 L50.7980901,8.58296238 L50.7720503,8.58296238 C50.7390666,8.58296238 50.7138948,8.60249221 50.6722312,8.63417392 C50.587602,8.69883934 50.4313634,8.81992425 50.1579458,8.81992425 C50.1097723,8.81992425 50.0602967,8.81558429 50.0073492,8.80820635 C49.8645645,8.78867653 49.6249986,8.66628963 49.6249986,8.66628963 C49.5464454,8.625494 49.4487962,8.58296238 49.4093026,8.56473455 L49.3919427,8.55822461 C49.0000443,8.39547607 48.6667353,8.38245619 48.5734261,8.38245619 C48.480551,8.38245619 48.146808,8.39547607 47.7540415,8.55822461 L47.7358137,8.56473455 C47.7154159,8.57428246 47.6793942,8.59077431 47.6377306,8.60943614 L47.3990327,8.72270912 C47.3187434,8.75786281 47.2163204,8.79779045 47.1382011,8.80820635 C47.0869895,8.81558429 47.03708,8.81992425 46.9876044,8.81992425 C46.7150549,8.81992425 46.5583823,8.69883934 46.4728851,8.63417392 C46.4312214,8.60249221 46.4051817,8.58296238 46.373934,8.58296238 L46.3500642,8.58513236 L46.3361763,8.59468028 C46.3344403,8.59511427 46.0236991,8.78694054 45.8948023,8.87590974 C45.8744045,8.88502366 45.8244949,8.92668728 45.814947,8.99352268 C45.810607,9.03041235 45.815815,9.08509586 45.8683285,9.14325133 C45.8874243,9.16668712 46.3483282,9.7013703 46.3470262,10.4074819 C46.3591781,10.4873372 46.3943318,10.9117854 46.033247,11.5350038 C46.0163212,11.5666855 45.6192148,12.2927609 46.0536448,12.9298672 C46.0558148,12.9359431 46.3804439,13.5283478 47.3304613,13.5283478 C47.4081466,13.5283478 48.1090503,13.5413677 48.3507861,13.9896856 C48.361202,14.0074795 48.474041,14.1871539 48.5187426,14.2752551 L48.5734261,14.3828861 L48.6268076,14.2752551 C48.6723772,14.1880218 48.7830462,14.0100835 48.7999721,13.9853457 C49.0373679,13.5413677 49.7382716,13.5283478 49.8163909,13.5283478 C50.7529545,13.5283478 51.0875655,12.9389811 51.0875655,12.9389811 C51.5328454,12.286251 51.1162092,11.5389097 51.1131712,11.5350038 C50.7529545,10.9117854 50.7876742,10.4873372 50.8002601,10.396632 L50.8002601,10.396632 Z" id="Fill-26" fill="#FFFFFF" mask="url(#mask-2)"></path>
                <path d="M51.0758042,8.46890821 C51.1005419,8.48843804 51.1300537,8.51187382 51.1630374,8.53834759 C51.1304877,8.51274182 51.1001079,8.48843804 51.0758042,8.46890821" id="Fill-27" fill="#FFFFFF" mask="url(#mask-2)"></path>
                <path d="M51.5420028,8.83064395 C51.4938292,8.79462227 51.4400137,8.75339265 51.3857642,8.71172902 C51.4421837,8.75512863 51.4929612,8.79375428 51.5420028,8.83064395" id="Fill-28" fill="#FFFFFF" mask="url(#mask-2)"></path>
                <path d="M51.2133375,8.57784123 C51.2615111,8.61559889 51.3057787,8.64988458 51.3582922,8.69068021 C51.3083827,8.65205456 51.2593411,8.6138629 51.2133375,8.57784123" id="Fill-29" fill="#FFFFFF" mask="url(#mask-2)"></path>
                <path d="M53.1408877,16.9034486 C53.0957522,16.8478971 53.0349927,16.5935754 53.0349927,16.5935754 C52.999839,16.4507906 52.9486275,16.3331777 52.8982839,16.2142628 C53.0553905,16.1704292 53.2068552,16.1170477 53.3604898,16.0671381 C53.3439979,16.5401938 53.1408877,16.9034486 53.1408877,16.9034486 M51.2191531,17.4589636 C51.0646505,17.4359618 50.9843612,16.961604 50.9448675,16.5931414 C51.5251203,16.518494 52.0875792,16.415203 52.6270364,16.2776262 C52.8071448,16.7250762 52.8544503,17.1534303 52.8544503,17.1534303 C52.1878323,17.8391441 51.2191531,17.4589636 51.2191531,17.4589636 M51.4279052,15.2664153 C51.7408164,15.2711893 51.9864582,15.3953122 52.1787184,15.5762885 C51.8141617,15.6600498 51.3871096,15.7368671 50.9153558,15.8032685 C50.9943431,15.2603394 51.4279052,15.2664153 51.4279052,15.2664153 M50.7408894,14.6236671 C52.2143061,14.0638122 53.0349927,15.0598332 53.0349927,15.0598332 C53.0992241,15.1405565 53.1426237,15.2225817 53.1855893,15.304607 C52.9803092,15.3697064 52.7177416,15.4417497 52.4269642,15.5146611 C51.8996589,15.0142636 51.2629867,14.972166 51.2109072,14.9608821 C50.8059888,14.8714789 50.7100757,14.633649 50.7408894,14.6236671 M49.0474367,15.9516951 C49.2748506,15.4860173 49.7735121,15.1787481 49.9588284,14.9231244 C50.0634215,14.7790377 50.2170561,14.7742638 50.2170561,14.7742638 C50.4305822,14.7720938 50.4739818,15.2681513 50.5356092,15.855348 C50.0838193,15.9074275 49.5803839,15.9382413 49.0474367,15.9516951 M46.7164437,15.854914 C46.7780711,15.2677173 46.8214707,14.7720938 47.0345628,14.7742638 C47.0345628,14.7742638 47.1881974,14.7790377 47.2932245,14.9231244 C47.4772388,15.1787481 47.9759003,15.4860173 48.2041823,15.9516951 C47.6712351,15.9378073 47.1677996,15.9069935 46.7164437,15.854914 M46.0411458,14.9608821 C45.9886322,14.972166 45.353262,15.0142636 44.8255227,15.5133591 C44.5343113,15.4400138 44.2717437,15.3675364 44.0668976,15.302871 C44.1094292,15.2212797 44.1523948,15.1396885 44.2157582,15.0598332 C44.2157582,15.0598332 45.0377468,14.0638122 46.5111635,14.6236671 C46.5402413,14.633649 46.4464981,14.8714789 46.0411458,14.9608821 M45.0750705,15.5745525 C45.2668967,15.3944442 45.5125385,15.2711893 45.8245817,15.2664153 C45.8245817,15.2664153 46.2572758,15.2607734 46.3358291,15.8024005 C45.8645094,15.7359991 45.4383252,15.6587478 45.0750705,15.5745525 M46.0333338,17.4589636 C46.0333338,17.4589636 45.0642206,17.8391441 44.3976026,17.1534303 C44.3976026,17.1534303 44.4444742,16.7242082 44.6254505,16.2758902 C45.1653417,16.413901 45.7269326,16.517192 46.3076194,16.5918394 C46.2676917,16.960736 46.1874024,17.4359618 46.0333338,17.4589636 M44.2157582,16.5935754 C44.2157582,16.5935754 44.1563008,16.8478971 44.1107312,16.9034486 C44.1107312,16.9034486 43.906753,16.5384579 43.8902612,16.0641001 C44.0443298,16.1140097 44.1957944,16.1682592 44.353335,16.2125268 C44.3029914,16.3318757 44.2513459,16.4499227 44.2157582,16.5935754 M41.9355428,15.9339013 C41.9355428,15.9339013 41.8899732,15.973395 41.8404976,15.9139375 C41.358762,15.3228348 42.0939513,14.6514429 42.3274412,15.0607012 C42.3274412,15.0607012 42.0509857,15.0706831 42.0813655,15.2655473 C42.0813655,15.2655473 42.0865734,15.4669215 42.3352532,15.4547696 C42.3352532,15.4547696 42.6815821,15.4191819 42.5991228,15.0012437 C42.5991228,15.0012437 42.5548552,14.8128894 42.3426311,14.748658 C42.3426311,14.748658 41.7359046,14.5837395 41.4776769,15.1114787 C41.4776769,15.1114787 41.4247294,15.2377716 41.4169175,15.4295979 C41.3466101,15.3731784 41.2671888,15.3284768 41.1808236,15.3141549 C41.0671166,15.194806 40.8692144,14.2261267 40.9959412,13.7283332 C41.9238249,13.5343369 42.2098283,12.7678999 42.2532279,12.5509018 C42.4407142,12.6125293 42.5509492,12.8290933 42.5600631,12.9206665 C42.574819,13.0460913 42.5170975,13.1767242 42.5904429,13.2787132 C42.6985079,13.4297439 42.9389417,13.5668866 43.0865004,13.6667057 C43.1368439,13.6988215 43.8173498,14.2252587 43.904583,14.2430526 C44.0017981,14.2634504 44.0612556,14.190973 44.1458848,14.2057289 C44.1762646,14.2118048 44.1966624,14.2339386 44.2196642,14.2521665 C44.2196642,14.2521665 44.2687057,14.301208 44.3381451,14.3502496 C44.1597727,14.4687305 43.9267168,14.637989 43.6190136,14.9118405 C43.6190136,14.9118405 43.3837877,15.2169398 41.9355428,15.9339013 M58.9985329,16.2207727 C58.8448983,16.0345884 58.43781,16.1270296 58.43781,16.1270296 C58.656978,15.4751674 58.0545914,15.302003 58.0545914,15.302003 C57.8388954,15.2451495 57.6974127,15.2855112 57.6054055,15.3484406 C57.6054055,15.3484406 57.6010655,15.3506106 57.5984616,15.3527805 C57.5967256,15.3549505 57.5949896,15.3553845 57.5949896,15.3571205 C57.5789317,15.3684044 57.5650439,15.3783863 57.552024,15.3918402 C57.4977745,15.4486937 57.4639228,15.525511 57.4639228,15.6092722 C57.4639228,15.7815687 57.6054055,15.9221834 57.7777019,15.9221834 C57.8445373,15.9221834 57.9065988,15.9004836 57.9578103,15.8653299 C58.0198718,15.8214963 58.0654413,15.7550949 58.0819332,15.6795796 C58.1665624,15.7329611 58.1973762,15.8258363 58.1973762,15.8258363 C58.3727106,16.3813513 57.7481902,16.5809895 57.7481902,16.5809895 C56.3685166,16.9950217 55.5248283,16.2828342 55.5248283,16.2828342 L55.7661301,16.1539373 C55.8494573,16.1170477 55.9254066,16.1066317 55.9848641,16.1066317 C55.9822601,16.1174817 55.9800902,16.1326715 55.9800902,16.1474274 C55.9800902,16.29542 56.104213,16.4178069 56.2539417,16.4178069 C56.4045383,16.4178069 56.5273592,16.29542 56.5273592,16.1474274 C56.5256232,16.0345884 56.4718077,15.9799049 56.4718077,15.9799049 C56.3107952,15.7364331 55.7539782,15.8974456 55.7539782,15.8974456 C55.9392945,15.4395798 55.773508,15.1114787 55.773508,15.1114787 C55.5165823,14.5837395 54.9085538,14.748658 54.9085538,14.748658 C54.6963297,14.8128894 54.6524961,15.0012437 54.6524961,15.0012437 C54.5700369,15.4191819 54.9167997,15.4547696 54.9167997,15.4547696 C55.1663475,15.4669215 55.1685175,15.2655473 55.1685175,15.2655473 C55.2006332,15.0706831 54.9250457,15.0607012 54.9250457,15.0607012 C55.1572336,14.6514429 55.891121,15.3228348 55.4115553,15.9139375 C55.3616457,15.973395 55.3156421,15.9339013 55.3156421,15.9339013 C54.4567639,15.5085851 54.0305797,15.2308276 53.8213936,15.0732871 C53.8009958,14.8393632 53.5965836,14.7208822 53.6356433,14.6583868 C53.669495,14.6444989 53.7910139,14.7056924 53.8587173,14.6041373 C53.8834551,14.5668136 53.9394405,14.197049 53.9854441,13.9344813 C54.7458053,14.2816782 55.3941954,14.1762172 55.5248283,14.1341195 C55.5912297,14.1067778 55.6454792,14.0590382 55.6463472,13.9592191 C55.6584991,13.6697437 54.9085538,11.9676111 54.887722,11.3665265 C55.2422968,11.5418609 55.4610308,10.9954598 55.5248283,10.8283713 C56.000922,11.0458034 56.1649725,15.4638835 56.5312652,15.6123102 C56.7148455,15.6869575 56.7868889,15.3861982 56.8038147,15.3302127 C57.3927474,13.3607385 57.4135792,11.4433438 57.3745196,10.8001616 C57.3159301,9.79285667 57.2343388,8.8914468 56.991735,8.06164628 C56.8424404,7.55126688 56.553833,6.50880828 55.8798371,6.36689156 C55.5643219,6.29962217 55.3251901,6.59387152 55.330398,6.85817513 C55.335606,7.08689107 55.4935805,7.19756007 55.4232732,7.42237005 C55.3390779,7.56949472 55.2544487,7.72963928 55.2132191,7.89412379 C55.1728574,8.05817431 55.3186801,8.12500971 55.2713745,8.29947614 C55.0582825,8.26736043 54.9515194,8.45441274 54.6164744,8.36891551 C54.8347745,8.26736043 54.8378125,7.64457604 54.5700369,7.53781301 C54.5301092,7.52132115 54.4849736,7.51567921 54.4771617,7.47965753 C54.4771617,7.47965753 54.5639609,7.38765036 54.6069265,7.29824717 C54.7605611,6.98316601 54.7596932,6.70540851 54.6377403,6.4957884 C54.7484093,6.50533631 54.8638522,6.30135815 54.8790421,6.13904362 L54.8816461,6.1407796 C54.8820801,6.13860962 54.8820801,6.13123169 54.8820801,6.12775972 L54.8820801,6.12645773 C54.884684,6.08392611 54.8768721,5.9415754 54.9415375,5.80877259 C54.9619353,5.76493899 54.9415375,5.71502944 54.9042139,5.69593361 C54.8660222,5.67813977 54.8156786,5.69419763 54.7935448,5.73803123 C54.7275774,5.87777797 54.5696029,5.80009267 54.6364383,5.66034593 C54.6564021,5.61607833 54.6364383,5.56703677 54.5986806,5.54837494 C54.5613569,5.5310151 54.5105794,5.54446898 54.4897476,5.58917057 C54.4259502,5.72327537 54.2727495,5.64819404 54.336113,5.51408925 C54.3565108,5.47068964 54.336981,5.42078009 54.2996573,5.40298625 C54.2632016,5.38562641 54.2115561,5.39951428 54.1898563,5.44464988 C54.1247569,5.58266063 53.9650463,5.50627732 54.0314477,5.36870056 C54.0518455,5.32226298 54.0314477,5.27322142 53.9941241,5.25455959 C53.9568004,5.23850174 53.9073248,5.25238961 53.885191,5.29622322 C53.8148837,5.4424799 53.7658421,5.50367335 53.6924968,5.56226282 C53.5436361,5.58873658 53.5831298,5.76016503 53.6009236,5.87604199 C53.3222981,5.81615053 53.112244,6.02794062 53.1039981,6.2188989 L53.0723164,6.2188989 C52.8422984,6.22454085 52.6213944,6.34345577 52.6387543,6.55611386 C52.6470002,6.67676477 52.7884829,6.82649342 52.8422984,6.8286634 C52.8666022,6.82041747 52.8297126,6.70063455 52.9494955,6.69325662 C53.0584285,6.68674668 53.221177,6.78005584 53.2407068,6.8837809 C53.2650106,7.00226183 53.1677955,7.28696327 53.5440701,7.32906089 C53.5440701,7.32906089 53.5410321,7.38678237 53.5358242,7.44797582 C53.4012854,7.4388619 53.3661317,7.43148396 53.2315929,7.45231578 C52.9941971,7.49007344 52.6687,7.62374423 52.5888447,7.8598381 C52.5736549,7.89889775 52.5671449,7.98135701 52.5736549,8.03821049 C52.5784288,8.08638406 52.6231304,8.14670952 52.6170545,8.20573298 C52.6127145,8.23437673 52.562805,8.29426819 52.5432751,8.31249602 C52.444324,8.41622109 52.2603097,8.51517219 52.0979952,8.52341812 C51.9183208,8.53253204 51.7429864,8.41622109 51.672679,8.31987395 C51.4335471,7.99828285 51.7429864,7.44233387 51.7386464,7.23488374 C51.7243245,6.68327471 51.0277608,7.01180975 50.7521733,7.15589645 C50.4232043,7.32862689 50.1610706,7.60681838 49.9401666,7.87980192 C49.8190817,8.02996457 49.6828069,8.21831887 49.6155375,8.37802943 C49.6033856,8.40710717 49.5769119,8.41231512 49.5478341,8.41144713 C49.6893169,8.47524455 49.9384306,8.56768572 50.1354648,8.5702897 C50.1354648,8.5702897 50.5199854,8.62280322 50.7960069,8.3927853 C50.7960069,8.3927853 50.8355005,8.35849961 50.891052,8.35849961 C50.9305457,8.35849961 50.9656994,8.37542545 50.9965131,8.4036352 C50.9991171,8.40710717 51.0342707,8.43575091 51.0759344,8.46873461 C51.0998042,8.48869843 51.1306179,8.51256822 51.1627336,8.53817399 C51.1792254,8.55119387 51.1952833,8.56377976 51.2135111,8.57766763 C51.2595147,8.61368931 51.3085563,8.65231496 51.3584658,8.69050661 C51.3675797,8.69745055 51.3762597,8.70439449 51.3858076,8.71177242 C51.4400571,8.75343605 51.4938726,8.79466567 51.5420462,8.83068735 C51.5984657,8.87321897 51.6527152,8.91314661 51.6839629,8.93441241 L51.6865669,8.93658239 C51.6922088,8.94135635 51.7056627,8.95437623 51.7104366,8.97564204 C51.7121726,8.99603986 51.7021907,9.02077764 51.6835289,9.04421342 C51.6822269,9.04551541 51.6531492,9.07763112 51.6093156,9.13318262 C51.5173084,9.25036157 51.3610698,9.4799455 51.2421549,9.76074096 C51.3723537,9.98728692 51.5906537,10.2576665 51.9039989,10.2607045 C52.1544146,10.2628744 52.2568377,10.1378836 52.2937274,9.97773901 C52.2985013,9.98121098 52.3115212,9.99770283 52.3136912,9.99857082 C52.3440709,9.97166306 52.4816477,10.7185703 52.663926,10.9212465 C52.4933656,11.0002338 52.229496,11.2684434 52.3727147,12.0053687 C52.2320999,11.8933977 51.9734383,11.6972315 51.8497494,11.5692027 C51.7755361,11.416436 51.6305814,11.0566533 51.2135111,11.0219336 C51.2738366,11.2068159 51.3615038,11.415134 51.4956086,11.646454 C51.4982126,11.6525299 51.7525343,12.1208117 51.673113,12.6524569 C51.8480134,12.4732165 51.8211056,11.9814989 51.8211056,11.9814989 C51.8271816,11.974989 51.8523534,11.9680451 51.8597313,11.9650071 C51.895319,11.9628371 52.0706534,12.304392 52.3727147,12.3755674 C52.7667831,13.0491293 53.2098931,13.4766155 53.6378133,13.746995 C53.6295673,13.9097436 53.6495312,14.2986041 53.5449381,14.2986041 C53.2077231,14.3728174 52.8969819,14.1458374 52.6001286,14.1614613 C52.5749569,14.1493094 52.5489171,14.1371575 52.5489171,14.1371575 C51.2712326,13.5217511 49.5877618,14.8424011 49.3069663,15.0988928 C49.1589737,15.2351676 48.9879792,15.0494173 48.9879792,15.0494173 C48.8872921,14.9222564 48.7553573,14.8645349 48.6255925,14.8792908 C48.4971296,14.8645349 48.3638928,14.9222564 48.2636397,15.0494173 C48.2636397,15.0494173 48.0922113,15.2351676 47.9437846,15.0988928 C47.678613,14.855855 46.1526828,13.6745177 44.904944,14.077266 C44.901906,14.0095627 44.7335156,13.974409 44.686644,13.9570491 C44.5876929,13.9288394 44.5008936,13.8507201 44.4388322,13.8199064 C44.3029914,13.751769 44.0820874,13.7934326 43.9275848,13.7756388 C43.8672594,13.7665248 43.7830641,13.7352771 43.7292486,13.7027274 C43.5296104,13.5799065 43.3017625,13.4297439 43.1741676,13.2496355 C43.1537698,13.2201238 43.1042942,13.1519864 43.0943123,13.1402685 C43.0322509,13.0625832 43.0014372,13.0048617 42.9541316,12.8759649 C42.8859942,12.6298891 42.9923232,12.3655855 43.0283449,12.1160377 C43.0548187,11.9315894 43.0487427,11.9198715 43.0652346,11.7215353 C43.8572775,11.4494197 44.1810385,10.8552791 44.3654869,10.538462 C44.3832807,10.5137242 44.4327563,10.4130371 44.4327563,10.4130371 C44.4679099,10.418245 44.5026296,10.420849 44.5408213,10.422585 C44.8576384,10.424755 45.0707305,10.2481186 45.4170594,10.2902162 C45.4170594,10.309312 45.463931,10.4547007 45.6883069,10.5471419 C45.6952509,10.7741218 45.7113087,10.9616081 45.798108,11.1378105 C45.8167698,11.1686243 45.8406396,11.194664 45.8579994,11.2198358 C46.0059921,10.8548451 46.0450517,10.5705777 46.0493917,10.3991492 C46.0385418,10.3843933 46.0289939,10.3631275 46.0229179,10.3305778 C45.9487046,9.9447553 45.7690302,9.83886026 45.5997717,9.74164514 C45.5164445,9.69650954 45.4235693,9.68218767 45.344148,9.62446619 C45.2208932,9.53983696 45.0902603,9.44913177 45.0086691,9.2907232 C45.0086691,9.2907232 45.0490307,9.25296554 45.0919963,9.19828204 C45.3133343,8.96652812 45.4240033,8.6258412 45.5051606,8.25217057 C45.6744191,8.02128465 46.1444368,8.11155583 46.3232432,8.14410554 C46.3692468,8.14974749 46.4473661,8.16754133 46.4838218,8.19575107 C46.5341653,8.23047076 46.5458832,8.31032604 46.6157566,8.34070577 C46.6904039,8.37108549 46.7741652,8.3480837 46.8644363,8.34070577 C46.896986,8.37802943 46.9152139,8.43010896 46.9386497,8.47698054 C46.9386497,8.47698054 46.9633874,8.52081414 47.010259,8.5698557 C47.229427,8.56551574 47.5249784,8.44963878 47.6486673,8.38670935 C47.6339114,8.37716144 47.6213255,8.36761352 47.6148156,8.35763161 C47.5154305,8.23177275 47.3674378,8.092894 47.2289931,8.0707602 C47.0536586,8.04211646 47.017203,7.88544387 46.8492465,7.85202617 C46.8067149,7.84030828 46.6578542,7.81774048 46.6075107,7.83596832 C46.236878,7.88457588 45.9747444,7.74396115 45.6279815,7.71878937 C45.2985785,7.69578758 45.2881625,7.92103155 45.1679456,8.10634788 C45.123244,8.17665525 45.0707305,8.25868051 45.016047,8.31076004 C44.9253418,8.39842725 44.8194468,8.40189922 44.7092118,8.48522646 L44.6584342,8.3480837 C44.6280545,8.23437673 44.5855229,8.11589579 44.5104416,8.0043588 C44.3316352,7.72312934 44.127223,7.5056973 43.7292486,7.41412412 C43.6532993,7.3828764 43.6415814,7.37853644 43.5916718,7.33817481 C43.5265724,7.28783126 43.57301,7.2279398 43.5916718,7.22142986 C43.7045108,7.15633045 43.9002431,7.17933224 44.0291399,7.12030877 C44.346391,6.9723161 44.2339861,6.70323853 44.1098632,6.68153873 C43.9505866,6.651593 43.6619792,6.57564368 43.6055597,6.54222598 C43.5287424,6.49405242 43.3950716,6.2523166 43.2692128,6.19242514 C43.130334,6.15510147 43.1780736,5.92725353 43.0496107,5.87777797 C42.9940592,5.86823006 42.912468,5.8964398 42.8226308,5.9415754 C42.8169888,5.89383583 42.7827031,5.63560816 42.6407864,5.55054492 C42.5344574,5.49021947 42.4953977,5.58439662 42.5001717,5.64689205 C42.5062476,5.70157556 42.6564103,5.77752488 42.68462,6.02143068 C42.6590143,6.03792253 42.6342765,6.0522444 42.6073687,6.07090623 C42.5874049,5.97021914 42.5422693,5.81441454 42.4381102,5.7523531 C42.3317812,5.69115966 42.2927216,5.7862048 42.2983635,5.84739825 C42.3031375,5.89991177 42.4355063,5.96891715 42.4771699,6.1746313 C42.4454882,6.20067106 42.4159764,6.22714482 42.3864647,6.25448658 C42.1733726,6.1958971 42.1156512,6.05137641 42.0627036,6.0413945 C42.0023782,6.02794062 41.9051631,6.05875434 41.9546386,6.17115933 C42.0067181,6.28356431 42.1664287,6.34475776 42.2640778,6.3738355 C42.242378,6.39727129 42.2241502,6.42070708 42.2050543,6.44370887 C41.9576766,6.39423332 41.8973511,6.23322077 41.8422336,6.22063488 C41.7819082,6.20935098 41.683391,6.23973071 41.7337346,6.35083371 C41.8057779,6.50794029 42.0857054,6.56826575 42.1121792,6.5739077 C42.0722515,6.64074309 42.0462118,6.70193654 42.0557597,6.74577015 C41.8634994,6.72363635 41.5223785,6.82692742 41.5866099,7.05390737 C41.6504073,7.09991095 41.8773873,6.91416063 42.0865734,7.01788569 C42.2245842,7.23141177 42.4454882,7.24052569 42.4953977,7.28045333 C42.572215,7.34121278 42.5843669,7.45144778 42.6199546,7.55126688 C42.6815821,7.73614922 42.8113469,7.88457588 42.9189779,8.0486264 C43.0370248,8.22786678 43.1607137,8.41665508 43.2844026,8.57376167 C43.2995925,8.61629328 43.3130464,8.66099488 43.3056684,8.72739628 C43.1641857,8.95220625 42.7414735,9.21477389 42.5678751,9.37708842 C42.3929747,9.54200694 40.7377136,10.8010296 40.5293955,11.3504686 C40.4838259,11.4737235 40.4569181,11.6316981 40.463862,11.7953146 C40.362741,11.8491301 40.140969,11.9372313 40.0710956,11.8378462 C39.9430667,11.6603418 40.1926145,11.5258031 40.137931,11.3539406 C40.1118912,11.2879732 40.0155441,11.2437056 39.9547846,11.2879732 C39.5424884,11.5835245 39.7551464,12.1073578 40.0155441,12.2262727 C40.3024155,12.3451877 40.3436451,12.0361824 40.5658511,12.1611733 C40.6187986,12.191553 41.1439339,12.6607028 41.0558327,13.0313355 C41.0506248,13.0504313 41.0302269,13.1042468 41.019811,13.1181347 C40.9043681,13.2609194 40.7125418,13.3711544 40.581909,13.5052592 C40.3080574,13.6784236 40.8410046,14.7677538 40.796737,15.3267408 C40.7659233,15.5389649 40.9733735,15.5142271 41.1001003,15.8471021 C40.9707695,15.8510081 40.8436086,15.8831238 40.7789432,15.9799049 C40.7789432,15.9799049 40.7246937,16.0345884 40.7246937,16.1474274 C40.7246937,16.29542 40.8457786,16.4178069 40.9968092,16.4178069 C41.1474059,16.4178069 41.2697928,16.29542 41.2697928,16.1474274 C41.2697928,16.1326715 41.2693588,16.1174817 41.2671888,16.1066317 C41.3266463,16.1066317 41.4034636,16.1170477 41.4863568,16.1539373 L41.7267907,16.2828342 C41.7267907,16.2828342 40.8826683,16.9950217 39.5047307,16.5809895 C39.5047307,16.5809895 38.8793423,16.3813513 39.0542428,15.8258363 C39.0542428,15.8258363 39.0850565,15.7329611 39.1701197,15.6795796 C39.1866116,15.7550949 39.2321812,15.8214963 39.2938086,15.8653299 C39.3450201,15.9004836 39.4070816,15.9221834 39.473917,15.9221834 C39.6462134,15.9221834 39.7863942,15.7815687 39.7863942,15.6092722 C39.7863942,15.525511 39.7538444,15.4486937 39.7000289,15.3918402 C39.6865751,15.3783863 39.6731212,15.3684044 39.6566293,15.3571205 C39.6566293,15.3553845 39.6548933,15.3549505 39.6548933,15.3549505 C39.6501194,15.3506106 39.6483834,15.3497426 39.6483834,15.3497426 C39.5542062,15.2855112 39.4122895,15.2451495 39.1965935,15.302003 C39.1965935,15.302003 38.5946409,15.4751674 38.8133749,16.1270296 C38.8133749,16.1270296 38.4067206,16.0345884 38.253086,16.2207727 C38.253086,16.2207727 38.2001385,16.2797962 38.2049124,16.3748413 L38.2049124,16.3783133 L38.2049124,16.3813513 C38.2088184,16.4199769 38.2201023,16.4638105 38.248312,16.5145881 C38.2908436,16.5749135 38.361585,16.6157092 38.4418743,16.6157092 C38.5156536,16.6157092 38.581187,16.5814235 38.6258886,16.5284759 C38.6258886,16.525872 38.6271906,16.525872 38.6271906,16.525872 C38.6441165,16.5050402 38.694026,16.4759624 38.7669373,16.5523457 C39.6813671,17.5054011 41.1721437,17.1122007 41.9989062,16.4737924 C41.9989062,16.4737924 42.4567721,16.0124546 42.9680195,15.7299231 C43.1667897,15.8158544 43.3777118,15.8792178 43.5829919,15.9534311 C43.5682361,16.2498505 43.6294295,16.6742986 43.9605685,17.1686202 C43.9605685,17.1686202 43.7275126,17.5995783 43.3334442,17.3626164 C43.3334442,17.3626164 43.0426668,17.1386744 43.2904786,16.8687289 C43.2904786,16.8687289 43.4558311,16.7307181 43.5274404,16.9034486 C43.4428112,16.9082225 43.3746738,16.9772279 43.3746738,17.0635931 C43.3746738,17.1529963 43.4449812,17.2228697 43.5335164,17.2228697 C43.6203156,17.2228697 43.688453,17.1564683 43.6927929,17.072707 C43.7010389,17.0080416 43.7045108,16.8422551 43.5625941,16.7224722 C43.5625941,16.7224722 43.4371692,16.5861974 43.1997734,16.6243891 C42.8530105,16.6782046 42.6568443,17.4038461 43.3416901,17.7046053 C43.3416901,17.7046053 43.8807132,17.9498131 44.1580367,17.5479328 C44.1580367,17.5479328 44.1536968,17.4897773 44.2578558,17.5900304 C44.8276927,18.1420734 46.1006032,17.9819288 46.6062087,17.6065222 C46.6062087,17.6065222 46.7342375,17.525365 46.8739843,17.4589636 C46.8804942,17.6716216 47.0540926,17.8456541 47.2706567,17.8456541 C47.4885227,17.8456541 47.6660271,17.6664137 47.6660271,17.4481137 C47.6660271,17.2528154 47.5254124,17.0913689 47.3387941,17.0579512 C47.3305481,17.0549132 47.0775284,16.9833038 46.7086317,17.2068118 C46.7086317,17.2068118 46.3180353,17.4515856 46.3410371,17.413828 C46.4721039,17.2076798 46.5536951,16.9290543 46.6101146,16.630899 C47.1647616,16.6920925 47.7345985,16.7324541 48.3243992,16.74504 C48.3174552,16.9164684 48.2940194,17.1265226 48.227618,17.2866671 C48.227618,17.2866671 48.0192999,17.3730323 48.014092,17.519723 C48.014092,17.519723 47.9910902,17.62692 48.1764065,17.7757807 C48.1764065,17.7757807 48.3113793,17.9250754 48.3504389,18.0409523 C48.3504389,18.0409523 48.3612888,18.2023989 48.5834948,18.2023989 C48.5999867,18.2023989 48.6130066,18.2002289 48.6255925,18.1976249 C48.6394803,18.2002289 48.6538022,18.2023989 48.6685581,18.2023989 C48.8907641,18.2023989 48.90118,18.0409523 48.90118,18.0409523 C48.9411076,17.9250754 49.0752124,17.7757807 49.0752124,17.7757807 C49.2600947,17.62692 49.2370929,17.519723 49.2370929,17.519723 C49.233621,17.3730323 49.0235669,17.2866671 49.0235669,17.2866671 C48.9575995,17.1265226 48.9341637,16.9164684 48.9272197,16.745474 C49.5170204,16.7328881 50.0868573,16.6929605 50.6415043,16.632201 C50.6983578,16.9299223 50.779081,17.2081138 50.9110159,17.413828 C50.9344516,17.4515856 50.5442892,17.2068118 50.5442892,17.2068118 C50.1745245,16.9833038 49.9197688,17.0549132 49.9115229,17.0579512 C49.7257725,17.0913689 49.5855918,17.2528154 49.5855918,17.4481137 C49.5855918,17.6664137 49.7626622,17.8456541 49.9813962,17.8456541 C50.1970923,17.8456541 50.3715587,17.6716216 50.3767667,17.4589636 C50.5178154,17.525365 50.6458442,17.6065222 50.6458442,17.6065222 C51.1497137,17.9819288 52.4239262,18.1420734 52.9941971,17.5900304 C53.0979221,17.4897773 53.0935822,17.5479328 53.0935822,17.5479328 C53.3713397,17.9498131 53.9107968,17.7046053 53.9107968,17.7046053 C54.5947746,17.4038461 54.3977404,16.6782046 54.0527135,16.6243891 C53.8153177,16.5861974 53.6885908,16.7224722 53.6885908,16.7224722 C53.5475421,16.8422551 53.5501461,17.0080416 53.558826,17.072707 C53.5631659,17.1564683 53.6321713,17.2228697 53.7176685,17.2228697 C53.8057698,17.2228697 53.8773791,17.1529963 53.8773791,17.0635931 C53.8773791,16.9772279 53.8088077,16.9082225 53.7250465,16.9034486 C53.7957878,16.7307181 53.9615744,16.8687289 53.9615744,16.8687289 C54.2089521,17.1386744 53.9173067,17.3626164 53.9173067,17.3626164 C53.5241063,17.5995783 53.2906164,17.1686202 53.2906164,17.1686202 C53.6208874,16.6760346 53.6833829,16.2524544 53.668627,15.9556011 C53.8752091,15.8818218 54.0869992,15.8175904 54.2866374,15.7312251 C54.7965828,16.0141906 55.2527127,16.4737924 55.2527127,16.4737924 C56.0794753,17.1122007 57.5698178,17.5054011 58.4846816,16.5523457 C58.5580269,16.4759624 58.6079365,16.5050402 58.6239943,16.525872 C58.6239943,16.525872 58.6261643,16.525872 58.6261643,16.5284759 C58.6699979,16.5814235 58.7359653,16.6157092 58.8097446,16.6157092 C58.8904679,16.6157092 58.9599073,16.5749135 59.0033069,16.5145881 C59.0315166,16.4638105 59.0428005,16.4199769 59.0471405,16.3813513 L59.0471405,16.3796153 L59.0471405,16.3748413 C59.0510465,16.2797962 58.9985329,16.2207727 58.9985329,16.2207727" id="Fill-30" fill="#FFFFFF" mask="url(#mask-2)"></path>
                <path d="M67.9834237,9.82705557 C67.957818,8.88441606 67.9309102,7.93656861 67.9000965,6.98828716 L67.8783967,6.98828716 C67.7898615,7.42835919 67.7000243,7.80550179 67.6114891,8.0932412 L67.171851,9.82705557 L66.2448354,9.82705557 L65.7210021,7.61671349 C65.6732626,7.41273533 65.6155411,7.19790727 65.5743115,6.98828716 L65.5478377,6.98828716 L65.4849083,9.82705557 L64.8564819,9.82705557 L64.9927567,6.26524968 L66.1502243,6.26524968 C66.2387595,6.53779922 66.5794464,8.03074576 66.7838585,9.17258947 L66.8098983,9.17258947 C67.0459922,8.03595371 67.4652324,6.53779922 67.5537676,6.26524968 L68.6331159,6.26524968 L68.7693906,9.82705557 L67.9834237,9.82705557 Z" id="Fill-31" fill="#FFFFFF" mask="url(#mask-2)"></path>
                <path d="M69.5488476,6.83634513 L70.2406374,6.83634513 L70.2406374,6.21269275 L69.5488476,6.21269275 L69.5488476,6.83634513 Z M69.5705474,9.82701217 L69.5705474,7.76336077 L69.2767321,7.70043134 L69.2767321,7.2607933 L70.2514873,7.2607933 L70.2514873,9.82701217 L69.5705474,9.82701217 Z" id="Fill-32" fill="#FFFFFF" mask="url(#mask-2)"></path>
                <path d="M72.461352,9.82705557 L72.461352,8.30286131 C72.461352,7.9153028 72.3150953,7.73215645 72.0000141,7.73215645 C71.8216417,7.73215645 71.6701771,7.81070975 71.5495262,7.88926304 L71.5495262,9.82705557 L70.8642464,9.82705557 L70.8642464,7.2608367 L71.3346981,7.2608367 L71.4397252,7.55378406 C71.5868498,7.38105362 71.8693813,7.20832318 72.2525998,7.20832318 C72.901424,7.20832318 73.1574817,7.59067373 73.1574817,8.24036587 L73.1574817,9.82705557 L72.461352,9.82705557 Z" id="Fill-33" fill="#FFFFFF" mask="url(#mask-2)"></path>
                <path d="M73.9066023,6.83634513 L74.5983921,6.83634513 L74.5983921,6.21269275 L73.9066023,6.21269275 L73.9066023,6.83634513 Z M73.9283021,9.82701217 L73.9283021,7.76336077 L73.6344868,7.70043134 L73.6344868,7.2607933 L74.608808,7.2607933 L74.608808,9.82701217 L73.9283021,9.82701217 Z" id="Fill-34" fill="#FFFFFF" mask="url(#mask-2)"></path>
                <path d="M75.8127131,7.93639501 C75.8127131,8.33436942 76.9241771,8.21415251 76.9241771,9.05219895 C76.9241771,9.51831075 76.5778482,9.87982949 75.9120982,9.87982949 C75.603527,9.87982949 75.3153536,9.7904263 75.1421892,9.69104119 L75.2841059,9.21451349 C75.4047568,9.29827473 75.6564745,9.39245188 75.8921344,9.39245188 C76.1165104,9.39245188 76.268843,9.26659302 76.268843,9.10948644 C76.268843,8.64858259 75.1738709,8.80048122 75.1738709,7.92597911 C75.1738709,7.54840251 75.4620443,7.20814958 76.1534001,7.20814958 C76.4203077,7.20814958 76.6984992,7.2606631 76.8764376,7.33400844 L76.7818264,7.83180196 C76.60953,7.75324866 76.3894939,7.70073514 76.16425,7.70073514 C75.9281561,7.70073514 75.8127131,7.78970433 75.8127131,7.93639501" id="Fill-35" fill="#FFFFFF" mask="url(#mask-2)"></path>
                <path d="M78.4262376,9.87961249 C77.9709757,9.87961249 77.6511206,9.6122709 77.6511206,8.96822071 L77.6511206,7.74782371 L77.273978,7.74782371 L77.273978,7.2608801 L77.6624045,7.2608801 L77.6624045,6.81516612 L78.3324944,6.5955641 L78.3324944,7.2608801 L79.0186422,7.2608801 L79.0186422,7.74782371 L78.3324944,7.74782371 L78.3324944,9.00467638 C78.3324944,9.18304877 78.4162557,9.29849173 78.598968,9.29849173 C78.7456587,9.29849173 78.8927834,9.24077025 78.9969424,9.18825673 L79.1024035,9.69125819 C78.9505049,9.77979339 78.6992211,9.87961249 78.4262376,9.87961249" id="Fill-36" fill="#FFFFFF" mask="url(#mask-2)"></path>
                <path d="M80.4902796,7.71132464 C80.1495926,7.71132464 80.0133179,8.02032986 80.0133179,8.32412712 L80.9507494,8.32412712 C80.9507494,7.99385609 80.8465904,7.71132464 80.4902796,7.71132464 L80.4902796,7.71132464 Z M80.0133179,8.72730948 C80.0133179,9.1356998 80.2446378,9.36094377 80.6738599,9.36094377 C80.9403335,9.36094377 81.1972592,9.25070876 81.4225032,9.14047376 L81.553136,9.62307741 C81.3391759,9.73808637 80.998489,9.87956909 80.5896647,9.87956909 C79.7880739,9.87956909 79.3223961,9.38741753 79.3223961,8.53895518 C79.3223961,7.74778031 79.6995387,7.20832318 80.5215273,7.20832318 C81.2966443,7.20832318 81.6056495,7.78423598 81.6056495,8.42872017 L81.6056495,8.72730948 L80.0133179,8.72730948 Z" id="Fill-37" fill="#FFFFFF" mask="url(#mask-2)"></path>
                <path d="M83.5801581,7.83193215 C83.4968309,7.80545839 83.3813879,7.78983453 83.261171,7.78983453 C83.0775906,7.78983453 82.9148421,7.86838783 82.7993991,7.96256498 L82.7993991,9.82701217 L82.1184593,9.82701217 L82.1184593,7.2607933 L82.595421,7.2607933 C82.6210268,7.38101022 82.6483685,7.49081123 82.6683323,7.60625419 L82.6900321,7.60625419 C82.7685854,7.42310784 82.9990373,7.21348773 83.3028346,7.21348773 C83.4391094,7.21348773 83.5389285,7.23475354 83.595782,7.2499434 C83.590574,7.44393965 83.590574,7.6379359 83.5801581,7.83193215" id="Fill-38" fill="#FFFFFF" mask="url(#mask-2)"></path>
                <path d="M84.1827617,6.83634513 L84.8732495,6.83634513 L84.8732495,6.21269275 L84.1827617,6.21269275 L84.1827617,6.83634513 Z M84.2031595,9.82701217 L84.2031595,7.76336077 L83.9097781,7.70043134 L83.9097781,7.2607933 L84.8840994,7.2607933 L84.8840994,9.82701217 L84.2031595,9.82701217 Z" id="Fill-39" fill="#FFFFFF" mask="url(#mask-2)"></path>
                <path d="M87.1053347,8.53886838 C87.1053347,7.92042396 86.9221884,7.70559589 86.6018993,7.70559589 C86.2824781,7.70559589 86.1041058,7.92606591 86.1041058,8.53886838 C86.1041058,9.135613 86.2668543,9.37648083 86.6018993,9.37648083 C86.9373782,9.37648083 87.1053347,9.15167086 87.1053347,8.53886838 M87.8066724,8.53886838 C87.8066724,9.4133705 87.3674684,9.87948229 86.6018993,9.87948229 C85.8324242,9.87948229 85.3975601,9.41857845 85.3975601,8.53886838 C85.3975601,7.78458318 85.8159324,7.20823638 86.6018993,7.20823638 C87.3774503,7.20823638 87.8066724,7.78458318 87.8066724,8.53886838" id="Fill-40" fill="#FFFFFF" mask="url(#mask-2)"></path>
                <path d="M91.0695418,7.84738241 C90.9640807,7.78445298 90.8026342,7.72152355 90.602996,7.72152355 C90.2788009,7.72152355 90.0748228,7.94155957 90.0748228,8.53873818 C90.0748228,9.15154066 90.267951,9.38199258 90.5925801,9.38199258 C90.7653105,9.38199258 90.938475,9.29823133 91.0695418,9.16195656 L91.0695418,7.84738241 Z M91.1320372,7.45938991 C91.0903736,7.31313323 91.0695418,7.18206641 91.0695418,6.98850416 L91.0695418,6.21295315 L91.7504816,6.21295315 L91.7504816,9.82727256 L91.1954007,9.82727256 L91.1168474,9.54430712 C91.0118203,9.7014137 90.7653105,9.87978609 90.4359075,9.87978609 C89.8543527,9.87978609 89.3878069,9.46054587 89.3878069,8.54394613 C89.3878069,7.69548378 89.8695426,7.20810618 90.493629,7.20810618 C90.7709525,7.20810618 90.9909885,7.30271733 91.1320372,7.45938991 L91.1320372,7.45938991 Z" id="Fill-41" fill="#FFFFFF" mask="url(#mask-2)"></path>
                <path d="M93.4364262,7.71132464 C93.0966073,7.71132464 92.9603325,8.02032986 92.9603325,8.32412712 L93.8973301,8.32412712 C93.8973301,7.99385609 93.792303,7.71132464 93.4364262,7.71132464 L93.4364262,7.71132464 Z M92.9603325,8.72730948 C92.9603325,9.1356998 93.1903505,9.36094377 93.6195726,9.36094377 C93.8873482,9.36094377 94.1434059,9.25070876 94.3690838,9.14047376 L94.5001507,9.62307741 C94.2848886,9.73808637 93.9450697,9.87956909 93.5362453,9.87956909 C92.7350886,9.87956909 92.2685428,9.38741753 92.2685428,8.53895518 C92.2685428,7.74778031 92.6456854,7.20832318 93.468108,7.20832318 C94.243659,7.20832318 94.5526642,7.78423598 94.5526642,8.42872017 L94.5526642,8.72730948 L92.9603325,8.72730948 Z" id="Fill-42" fill="#FFFFFF" mask="url(#mask-2)"></path>
                <polygon id="Fill-43" fill="#FFFFFF" mask="url(#mask-2)" points="64.9244891 15.0649109 64.9244891 11.5026711 67.0988095 11.5026711 67.0988095 12.0842258 65.6106369 12.0842258 65.6106369 12.9695778 66.7472727 12.9695778 66.6947591 13.5771724 65.6106369 13.5771724 65.6106369 14.4937721 67.0988095 14.4937721 67.0988095 15.0649109"></polygon>
                <path d="M69.015423,13.0848038 C68.910396,13.0218744 68.7476474,12.9589449 68.5488772,12.9589449 C68.2242482,12.9589449 68.019402,13.1789809 68.019402,13.7761596 C68.019402,14.388962 68.2129643,14.619414 68.5380273,14.619414 C68.7111918,14.619414 68.8834882,14.5360867 69.015423,14.3993779 L69.015423,13.0848038 Z M69.0783525,12.6972453 C69.0358208,12.5505546 69.015423,12.4194878 69.015423,12.2259255 L69.015423,11.4503745 L69.6959289,11.4503745 L69.6959289,15.0646939 L69.1408479,15.0646939 L69.0614266,14.7821625 C68.9572675,14.9388351 68.7111918,15.1172075 68.3809207,15.1172075 C67.800234,15.1172075 67.3332542,14.6979673 67.3332542,13.7813675 C67.3332542,12.9329052 67.8154238,12.4459616 68.4386422,12.4459616 C68.7168337,12.4459616 68.9355677,12.5401387 69.0783525,12.6972453 L69.0783525,12.6972453 Z" id="Fill-44" fill="#FFFFFF" mask="url(#mask-2)"></path>
                <path d="M72.104911,15.0649109 L71.9998839,14.7506978 C71.879233,14.9078044 71.6075515,15.1174245 71.1987271,15.1174245 C70.5594509,15.1174245 70.2665035,14.7611137 70.2665035,14.0537001 L70.2665035,12.4982581 L70.9474434,12.4982581 L70.9474434,14.059342 C70.9474434,14.4521085 71.0937001,14.5935912 71.4027053,14.5935912 C71.5810777,14.5935912 71.7381843,14.5250198 71.8592692,14.4416926 L71.8592692,12.4982581 L72.5549649,12.4982581 L72.5549649,15.0649109 L72.104911,15.0649109 Z" id="Fill-45" fill="#FFFFFF" mask="url(#mask-2)"></path>
                <path d="M75.1689667,14.8917465 C75.0218421,14.9702998 74.6763812,15.1174245 74.2883887,15.1174245 C73.5241216,15.1174245 73.0627837,14.6821264 73.0627837,13.7815845 C73.0627837,12.9431041 73.5241216,12.4457446 74.2831807,12.4457446 C74.6238677,12.4457446 74.917683,12.5138819 75.1637588,12.6553647 L74.9853864,13.1214765 C74.8022401,13.0116755 74.5661462,12.9643699 74.3409022,12.9643699 C73.9845914,12.9643699 73.7597815,13.2052377 73.7597815,13.7815845 C73.7597815,14.3627053 73.9746095,14.5987991 74.3461102,14.5987991 C74.6138857,14.5987991 74.8755854,14.49898 75.0431079,14.4043689 L75.1689667,14.8917465 Z" id="Fill-46" fill="#FFFFFF" mask="url(#mask-2)"></path>
                <path d="M77.0278588,13.9436821 L76.6034106,13.9436821 C76.3113312,13.9436821 76.1854724,14.0799568 76.1854724,14.2739531 C76.1854724,14.5096129 76.3161052,14.6506617 76.5725969,14.6506617 C76.7353454,14.6506617 76.9024339,14.5777503 77.0278588,14.4779312 L77.0278588,13.9436821 Z M77.222289,15.0646939 L77.1276779,14.7608967 C76.9970451,14.9388351 76.7353454,15.1172075 76.3790346,15.1172075 C75.8651833,15.1172075 75.5149484,14.7873704 75.5149484,14.2947849 C75.5149484,13.8178232 75.8703912,13.5352917 76.4884016,13.5352917 L77.0278588,13.5352917 L77.0278588,13.4046589 C77.0278588,13.0743879 76.8342965,12.9697948 76.5725969,12.9697948 C76.2687996,12.9697948 76.002326,13.0483481 75.7918379,13.1425253 L75.6191075,12.6551477 C75.8755992,12.5449127 76.2371179,12.4459616 76.6407343,12.4459616 C77.3685457,12.4459616 77.6879668,12.7810065 77.6879668,13.4359066 L77.6879668,15.0646939 L77.222289,15.0646939 Z" id="Fill-47" fill="#FFFFFF" mask="url(#mask-2)"></path>
                <path d="M80.3122544,14.8917465 C80.1651297,14.9702998 79.8196688,15.1174245 79.4316763,15.1174245 C78.6674092,15.1174245 78.2056374,14.6821264 78.2056374,13.7815845 C78.2056374,12.9431041 78.6674092,12.4457446 79.4264684,12.4457446 C79.7671553,12.4457446 80.0609706,12.5138819 80.3070464,12.6553647 L80.129108,13.1214765 C79.9455277,13.0116755 79.7094338,12.9643699 79.4841898,12.9643699 C79.1278791,12.9643699 78.9035031,13.2052377 78.9035031,13.7815845 C78.9035031,14.3627053 79.1174631,14.5987991 79.4893978,14.5987991 C79.7571734,14.5987991 80.018873,14.49898 80.1868295,14.4043689 L80.3122544,14.8917465 Z" id="Fill-48" fill="#FFFFFF" mask="url(#mask-2)"></path>
                <path d="M80.9551328,12.0742439 L81.6469225,12.0742439 L81.6469225,11.4505915 L80.9551328,11.4505915 L80.9551328,12.0742439 Z M80.9768326,15.0649109 L80.9768326,13.0008256 L80.6830172,12.9378961 L80.6830172,12.4982581 L81.6573384,12.4982581 L81.6573384,15.0649109 L80.9768326,15.0649109 Z" id="Fill-49" fill="#FFFFFF" mask="url(#mask-2)"></path>
                <path d="M83.8789644,13.7762464 C83.8789644,13.1578019 83.6953841,12.9429739 83.375529,12.9429739 C83.0561078,12.9429739 82.8777354,13.1634439 82.8777354,13.7762464 C82.8777354,14.372991 83.040484,14.6142928 83.375529,14.6142928 C83.7110079,14.6142928 83.8789644,14.3890488 83.8789644,13.7762464 L83.8789644,13.7762464 Z M82.7418947,12.1001535 L82.6737573,11.707387 L83.9991813,11.3354524 C84.0143712,11.4035898 84.0720927,11.7703164 84.0877165,11.8380198 L82.7418947,12.1001535 Z M84.5803021,13.7762464 C84.5803021,14.6507485 84.1406641,15.1172943 83.375529,15.1172943 C82.6056199,15.1172943 82.1707558,14.6563904 82.1707558,13.7762464 C82.1707558,13.0219612 82.589562,12.4460484 83.375529,12.4460484 C84.15108,12.4460484 84.5803021,13.0219612 84.5803021,13.7762464 L84.5803021,13.7762464 Z" id="Fill-50" fill="#FFFFFF" mask="url(#mask-2)"></path>
                <path d="M86.6853133,15.0649109 L86.6853133,13.5402827 C86.6853133,13.1527242 86.5390566,12.9695778 86.2248435,12.9695778 C86.0464711,12.9695778 85.8945724,13.0481311 85.7734875,13.1266844 L85.7734875,15.0649109 L85.0877737,15.0649109 L85.0877737,12.4982581 L85.5595275,12.4982581 L85.6645545,12.7912054 C85.8108112,12.618475 86.0942106,12.4457446 86.4761272,12.4457446 C87.1262533,12.4457446 87.382311,12.8285291 87.382311,13.4777873 L87.382311,15.0649109 L86.6853133,15.0649109 Z" id="Fill-51" fill="#FFFFFF" mask="url(#mask-2)"></path>
                <path d="M67.1919451,56.138344 C66.8039526,56.3132444 66.5057973,56.3944017 66.1520904,56.3944017 C65.2958162,56.3944017 64.8566121,55.7972231 64.8566121,54.8853973 C64.8566121,54.0117632 65.2958162,53.4323784 66.1902821,53.4323784 C66.6251462,53.4323784 66.9111496,53.5382735 67.1368276,53.6836622 L66.9024697,54.1098463 C66.7405891,53.9991773 66.4888714,53.926266 66.198962,53.926266 C65.6790347,53.926266 65.4446768,54.3060125 65.4446768,54.8771514 C65.4446768,55.5541853 65.6959606,55.917006 66.1902821,55.917006 C66.3734284,55.917006 66.5400829,55.8914003 66.6767917,55.8271688 L66.6767917,55.2946556 L66.2844592,55.2946556 L66.2501736,54.8810574 L67.1919451,54.8810574 L67.1919451,56.138344 Z" id="Fill-52" fill="#FFFFFF" mask="url(#mask-2)"></path>
                <path d="M68.95015,55.3029884 C68.95015,54.8004209 68.8012894,54.6259545 68.5413257,54.6259545 C68.281362,54.6259545 68.1364074,54.8043269 68.1364074,55.3029884 C68.1364074,55.789064 68.2687762,55.9847962 68.5413257,55.9847962 C68.8143092,55.9847962 68.95015,55.8016499 68.95015,55.3029884 M69.5212889,55.3029884 C69.5212889,56.0147419 69.1636761,56.3944885 68.5413257,56.3944885 C67.9150693,56.3944885 67.5613625,56.0190819 67.5613625,55.3029884 C67.5613625,54.6888839 67.9020495,54.2206021 68.5413257,54.2206021 C69.172356,54.2206021 69.5212889,54.6888839 69.5212889,55.3029884" id="Fill-53" fill="#FFFFFF" mask="url(#mask-2)"></path>
                <path d="M70.4920513,55.7719645 C70.5771145,55.8869735 70.7225032,55.9850566 70.8709299,55.9850566 C71.1144017,55.9850566 71.2932081,55.8062502 71.2932081,55.3028148 C71.2932081,54.8045872 71.1352335,54.6296868 70.8804778,54.6296868 C70.7394291,54.6296868 70.5862285,54.7025982 70.4920513,54.7959073 L70.4920513,55.7719645 Z M70.4534257,54.4764862 C70.5476028,54.3488914 70.7732808,54.2208625 71.0076387,54.2208625 C71.4976202,54.2208625 71.8513271,54.5693614 71.8513271,55.3028148 C71.8513271,56.0232483 71.4251429,56.3943149 70.9390673,56.3943149 C70.641346,56.3943149 70.4664455,56.279306 70.3345107,56.1000656 L70.2316537,56.3517833 L69.9339323,56.3517833 L69.9339323,53.4110258 L70.4920513,53.4110258 L70.4920513,54.1401392 L70.4534257,54.4764862 Z" id="Fill-54" fill="#FFFFFF" mask="url(#mask-2)"></path>
                <path d="M72.4253737,53.9179766 L72.9882666,53.9179766 L72.9882666,53.4106352 L72.4253737,53.4106352 L72.4253737,53.9179766 Z M72.4422995,56.3518267 L72.4422995,54.6644499 L72.1996957,54.6128044 L72.1996957,54.2634375 L72.9965125,54.2634375 L72.9965125,56.3518267 L72.4422995,56.3518267 Z" id="Fill-55" fill="#FFFFFF" mask="url(#mask-2)"></path>
                <path d="M74.3723669,54.6297302 C74.0950434,54.6297302 73.9800345,54.881014 73.9800345,55.1288257 L74.7429996,55.1288257 C74.7429996,54.8601821 74.6618423,54.6297302 74.3723669,54.6297302 L74.3723669,54.6297302 Z M73.9800345,55.4569268 C73.9800345,55.7889338 74.1679548,55.9720801 74.5168876,55.9720801 C74.7304137,55.9720801 74.9478457,55.8913569 75.1314261,55.7971797 L75.2377551,56.1890782 C75.0624207,56.2832553 74.7772853,56.3943583 74.4487502,56.3943583 C73.805568,56.3943583 73.4223495,55.9933459 73.4223495,55.3028582 C73.4223495,54.659676 73.7330907,54.2209059 74.4023127,54.2209059 C75.032909,54.2209059 75.2798527,54.6891877 75.2798527,55.213455 L75.2798527,55.4569268 L73.9800345,55.4569268 Z" id="Fill-56" fill="#FFFFFF" mask="url(#mask-2)"></path>
                <path d="M76.8854213,54.7276397 C76.8177179,54.7063739 76.7192008,54.693788 76.6250236,54.693788 C76.476163,54.693788 76.3442281,54.7575855 76.250485,54.8344028 L76.250485,56.3516531 L75.696706,56.3516531 L75.696706,54.2632639 L76.0838305,54.2632639 L76.143722,54.5449274 L76.1563078,54.5449274 C76.2209733,54.3951987 76.4080256,54.2250723 76.6549693,54.2250723 C76.7665063,54.2250723 76.8511356,54.2419981 76.8980072,54.255018 L76.8854213,54.7276397 Z" id="Fill-57" fill="#FFFFFF" mask="url(#mask-2)"></path>
                <path d="M78.5161182,56.3517399 L78.5161182,55.1118131 C78.5161182,54.7962979 78.3972032,54.6465693 78.1420135,54.6465693 C77.9966249,54.6465693 77.872936,54.7108007 77.7752868,54.7750321 L77.7752868,56.3517399 L77.2167339,56.3517399 L77.2167339,54.2633507 L77.6003864,54.2633507 L77.6858837,54.5020486 C77.8047986,54.3614338 78.0352505,54.2208191 78.3459917,54.2208191 C78.8745989,54.2208191 79.083785,54.5315603 79.083785,55.0601675 L79.083785,56.3517399 L78.5161182,56.3517399 Z" id="Fill-58" fill="#FFFFFF" mask="url(#mask-2)"></path>
                <path d="M80.8420334,55.3029884 C80.8420334,54.8004209 80.6931727,54.6259545 80.4332091,54.6259545 C80.1732454,54.6259545 80.0282907,54.8043269 80.0282907,55.3029884 C80.0282907,55.789064 80.1602255,55.9847962 80.4332091,55.9847962 C80.7057586,55.9847962 80.8420334,55.8016499 80.8420334,55.3029884 M81.4131722,55.3029884 C81.4131722,56.0147419 81.0551255,56.3944885 80.4332091,56.3944885 C79.8065187,56.3944885 79.4528119,56.0190819 79.4528119,55.3029884 C79.4528119,54.6888839 79.7939328,54.2206021 80.4332091,54.2206021 C81.0638054,54.2206021 81.4131722,54.6888839 81.4131722,55.3029884" id="Fill-59" fill="#FFFFFF" mask="url(#mask-2)"></path>
                <path d="M84.0667111,54.7407898 C83.9816479,54.6891443 83.8492791,54.6383667 83.6873985,54.6383667 C83.4235289,54.6383667 83.2568744,54.8176071 83.2568744,55.3028148 C83.2568744,55.8019103 83.414415,55.9893966 83.6787186,55.9893966 C83.8197673,55.9893966 83.9603821,55.9212592 84.0667111,55.8105902 L84.0667111,54.7407898 Z M84.1179227,54.4252747 C84.083637,54.3059257 84.0667111,54.1991627 84.0667111,54.0420561 L84.0667111,53.4110258 L84.6204901,53.4110258 L84.6204901,56.3517833 L84.1687002,56.3517833 L84.1053368,56.1217654 C84.0198395,56.2493602 83.8197673,56.3943149 83.5511238,56.3943149 C83.078068,56.3943149 82.6983215,56.053194 82.6983215,55.3075887 C82.6983215,54.6171009 83.0906539,54.2208625 83.5979953,54.2208625 C83.8236733,54.2208625 84.0029137,54.2976798 84.1179227,54.4252747 L84.1179227,54.4252747 Z" id="Fill-60" fill="#FFFFFF" mask="url(#mask-2)"></path>
                <path d="M85.9910932,54.6297302 C85.7142037,54.6297302 85.5991947,54.881014 85.5991947,55.1288257 L86.3621598,55.1288257 C86.3621598,54.8601821 86.2814366,54.6297302 85.9910932,54.6297302 L85.9910932,54.6297302 Z M85.5991947,55.4569268 C85.5991947,55.7889338 85.787115,55.9720801 86.1369159,55.9720801 C86.3495739,55.9720801 86.566572,55.8913569 86.7501523,55.7971797 L86.8569154,56.1890782 C86.6820149,56.2832553 86.3964455,56.3943583 86.0683445,56.3943583 C85.4247283,56.3943583 85.0410757,55.9933459 85.0410757,55.3028582 C85.0410757,54.659676 85.3518169,54.2209059 86.0214729,54.2209059 C86.6520692,54.2209059 86.899447,54.6891877 86.899447,55.213455 L86.899447,55.4569268 L85.5991947,55.4569268 Z" id="Fill-61" fill="#FFFFFF" mask="url(#mask-2)"></path>
                <path d="M89.4374127,56.3943149 C88.627576,56.3943149 88.1931459,55.8570278 88.1931459,54.8987644 C88.1931459,54.0034305 88.62367,53.4322916 89.4374127,53.4322916 C89.8293112,53.4322916 90.183018,53.5173549 90.4173759,53.6748954 L90.2047178,54.1266854 C90.0554231,54.0116764 89.7954595,53.9261792 89.4973042,53.9261792 C89.0194745,53.9261792 88.7807766,54.2633941 88.7807766,54.8944244 C88.7807766,55.5593064 89.0194745,55.8995594 89.4886242,55.8995594 C89.7702877,55.8995594 90.0510832,55.7802105 90.2468154,55.6356898 L90.4264898,56.0874797 C90.1409204,56.2832119 89.8167253,56.3943149 89.4374127,56.3943149" id="Fill-62" fill="#FFFFFF" mask="url(#mask-2)"></path>
                <path d="M90.7995962,56.3517399 L90.7995962,53.4109824 L91.3577152,53.4109824 L91.3577152,54.1821935 C91.3577152,54.3271482 91.3277695,54.4421571 91.3025977,54.5063885 C91.4176066,54.3614338 91.6094329,54.2208191 91.9032483,54.2208191 C92.4999929,54.2208191 92.6666474,54.5315603 92.6666474,55.0601675 L92.6666474,56.3517399 L92.0994145,56.3517399 L92.0994145,55.1070391 C92.0994145,54.8088838 91.9800656,54.6465693 91.7287818,54.6465693 C91.5838271,54.6465693 91.4514583,54.7064607 91.3577152,54.7750321 L91.3577152,56.3517399 L90.7995962,56.3517399 Z" id="Fill-63" fill="#FFFFFF" mask="url(#mask-2)"></path>
                <path d="M93.2697717,53.9179766 L93.8330987,53.9179766 L93.8330987,53.4106352 L93.2697717,53.4106352 L93.2697717,53.9179766 Z M93.2871316,56.3518267 L93.2871316,54.6644499 L93.0440938,54.6128044 L93.0440938,54.2634375 L93.8417786,54.2634375 L93.8417786,56.3518267 L93.2871316,56.3518267 Z" id="Fill-64" fill="#FFFFFF" mask="url(#mask-2)"></path>
                <path d="M94.3518542,55.7971797 L94.3518542,53.4106352 L94.9012932,53.4106352 L94.9012932,55.767668 C94.9012932,55.9421344 95.0076223,55.9681742 95.2380742,55.9681742 L95.2380742,56.3605066 C95.2380742,56.3605066 95.0757597,56.3943583 94.931239,56.3943583 C94.5054888,56.3943583 94.3518542,56.1682464 94.3518542,55.7971797" id="Fill-65" fill="#FFFFFF" mask="url(#mask-2)"></path>
                <path d="M96.4694947,54.6297302 C96.1921712,54.6297302 96.0775962,54.881014 96.0775962,55.1288257 L96.8401274,55.1288257 C96.8401274,54.8601821 96.7589701,54.6297302 96.4694947,54.6297302 L96.4694947,54.6297302 Z M96.0775962,55.4569268 C96.0775962,55.7889338 96.2646485,55.9720801 96.6140154,55.9720801 C96.8271075,55.9720801 97.0445395,55.8913569 97.2276859,55.7971797 L97.3344489,56.1890782 C97.1595485,56.2832553 96.874413,56.3943583 96.546312,56.3943583 C95.9026958,56.3943583 95.5190433,55.9933459 95.5190433,55.3028582 C95.5190433,54.659676 95.8302185,54.2209059 96.4990064,54.2209059 C97.1300367,54.2209059 97.3769805,54.6891877 97.3769805,55.213455 L97.3769805,55.4569268 L96.0775962,55.4569268 Z" id="Fill-66" fill="#FFFFFF" mask="url(#mask-2)"></path>
            </g>
        </g>
    </g>
</svg>