<?xml version="1.0" encoding="UTF-8" standalone="no"?>
<svg width="216px" height="28px" viewBox="0 0 216 28" version="1.1" xmlns="http://www.w3.org/2000/svg" xmlns:xlink="http://www.w3.org/1999/xlink">
    <!-- Generator: Sketch 41.2 (35397) - http://www.bohemiancoding.com/sketch -->
    <title>Page 1</title>
    <desc>Created with Sketch.</desc>
    <defs>
        <polygon id="path-1" points="0 27.1548336 215.356922 27.1548336 215.356922 0 0 0"></polygon>
    </defs>
    <g id="Page-1" stroke="none" stroke-width="1" fill="none" fill-rule="evenodd">
        <g id="Paso-1-Copy-45" transform="translate(-928.000000, -1372.000000)">
            <g id="Page-1" transform="translate(928.000000, 1372.380953)">
                <path d="M71.3948496,16.7876892 C70.4262035,16.2562007 70.4074933,15.5204585 70.4591414,15.2495494 C70.5105946,14.9739628 70.6996463,15.094605 70.8200936,15.094605 C71.455658,15.094605 72.1249398,14.9061381 72.9493609,14.064371 C73.8792222,13.1156045 74.1707905,11.0075812 72.7419888,9.63335106 C71.2026796,8.15173182 69.5653364,8.41094698 68.5095706,9.74229938 C68.293428,10.0153523 67.7650579,10.2151234 67.3082156,10.1997264 C66.6313327,10.1738049 67.0579657,10.7072424 67.0579657,10.817555 C67.0579657,10.9298166 66.9548644,11.0075812 66.8950305,10.9902352 C66.6648553,10.9245544 66.7572372,11.2646524 66.7572372,11.3677538 C66.7572372,11.4710501 66.6625165,11.5228931 66.6120377,11.5228931 C66.3274858,11.5228931 66.4054452,11.778795 66.4144105,11.8497381 C66.4224014,11.9173679 66.3972595,12.0360611 66.3025387,12.0888786 C66.211716,12.140137 66.1049115,12.3640755 66.1049115,12.5357812 C66.1049115,12.8450853 66.3882941,13.0590839 66.8620926,13.4122402 C67.3329677,13.7646169 67.3931914,14.0990629 67.4017669,14.3399576 C67.4107322,14.579488 67.432366,14.967726 67.5403398,15.2244075 C67.6674137,15.532932 67.6508473,16.1004767 66.9983268,16.1256187 C66.200217,16.1577769 64.7833041,16.7952903 64.6632465,16.8387527 C64.2130307,16.9981797 63.6174206,17.0560646 63.153367,16.9397102 C62.9033121,16.7627422 62.6649511,16.5692079 62.4396483,16.3612511 C62.3462918,16.0402531 62.5078628,15.6956723 62.670798,15.4639379 C62.9368346,15.7303643 63.3324788,15.7128234 63.5542734,15.7204245 C63.7778221,15.7303643 64.868085,15.5588535 65.0228345,15.5072054 C65.1781687,15.4555572 65.2459934,15.4725134 65.340909,15.5072054 C65.7566277,15.6582518 66.3280705,15.7036632 66.5598049,14.9061381 C66.792124,14.1076385 66.2430947,14.3307974 66.1741006,14.3649046 C66.1049115,14.4001813 66.0099959,14.391021 66.044493,14.3228065 C66.1466198,14.1193324 65.9940142,14.1403814 65.9072844,14.1325855 C65.684905,14.1105619 65.3929469,14.3477535 65.2982262,14.4331191 C65.2033106,14.5192643 65.1093694,14.5104939 65.0746775,14.4933428 C64.7788214,14.3461944 63.8971001,14.5590236 63.6230726,14.0809373 C63.6486044,13.9532788 63.3991341,12.0118937 63.2718653,11.6772528 C63.2439948,11.6051403 63.2198274,11.4885909 63.3053879,11.3601527 C63.5293264,11.0235628 64.1469601,11.3849049 64.4823806,11.376914 C64.883482,11.3656099 64.9476036,11.1983869 65.0577213,11.0631273 C65.1629666,10.9315707 65.2405362,11.0054373 65.2982262,10.9691861 C65.3715081,10.921436 65.3021242,10.827105 65.3282406,10.7758467 C65.3545519,10.7245884 65.3845663,10.7499252 65.4520012,10.6897015 C65.5211902,10.6285034 65.4424512,10.5010397 65.4779227,10.4493915 C65.5767363,10.300489 65.8468658,10.4193772 65.684905,10.0297748 C65.5960313,9.81519146 65.7194021,9.58209272 65.8392647,9.42792792 C66.0339685,9.17709341 66.7851077,8.11996335 65.4613563,7.02268417 C64.1988031,5.97646843 62.9187091,6.06066463 62.0944828,6.95369007 C61.2712311,7.8467155 61.6824672,9.15312088 61.7684175,9.49594754 C61.8541729,9.83994359 61.6068465,10.1511967 61.3219048,10.2862614 C61.0962122,10.3928709 60.5814849,10.7360874 60.193052,11.0744314 C60.2554196,8.27256896 61.9562997,5.80807604 64.5638482,4.75854702 C64.6747455,4.89770463 64.7987011,5.02867649 64.9327913,5.15224221 C64.6414179,5.3644868 64.0078025,5.93125196 64.0078025,5.93125196 C64.0078025,5.93125196 64.0947273,5.94431016 64.1748306,5.96399492 C64.2309614,5.97724803 64.3492649,6.01291447 64.3492649,6.01291447 C64.3492649,6.01291447 64.9074545,5.53833636 65.1693982,5.34928471 C65.3732622,5.504424 65.596616,5.63364178 65.8328331,5.73752274 C65.7059541,5.95210611 65.3884643,6.55024994 65.3884643,6.55024994 C65.3884643,6.55024994 65.4617461,6.59390723 65.5272321,6.63795432 C65.5936925,6.6821963 65.6352059,6.72098113 65.6352059,6.72098113 C65.6352059,6.72098113 65.9823203,6.06709629 66.1134871,5.84861495 C66.4054452,5.94567445 66.7092921,6.00200015 67.0176217,6.01564306 L67.0176217,7.21387971 C66.8470855,7.20920214 66.4073942,7.19146637 66.2292569,7.172951 L66.1173851,7.16184178 L66.1797526,7.25500332 C66.227113,7.32458212 66.2637539,7.39260174 66.2961071,7.45496929 L66.3087755,7.48089081 L66.3382052,7.48342449 C66.4672281,7.49394901 66.8685243,7.50817661 67.0176217,7.51207458 L67.0176217,9.69260024 L67.3204942,9.69260024 L67.3204942,9.19365979 C67.7640834,9.17222095 68.1328316,9.14162187 68.5791494,9.10303194 L68.5984444,9.10088806 L68.9898008,8.75455323 L68.7765817,8.77306859 C68.3053169,8.83465655 67.8911573,8.86311175 67.5157826,8.8841608 C67.5157826,8.8841608 67.3879291,8.89156695 67.3204942,8.89565982 L67.3204942,7.51148989 C67.8679644,7.49999087 68.4162142,7.42378551 68.9525751,7.28287382 C69.0991389,7.64246176 69.3751153,8.51619222 69.3751153,8.51619222 L69.6596673,8.42692866 C69.6596673,8.42692866 69.3838858,7.56021454 69.239271,7.20004191 C69.6928001,7.05952001 70.1315168,6.87183265 70.5458713,6.64458087 C70.8803173,7.05562204 71.1685723,7.50427864 71.4069333,7.98080574 C71.19235,8.08059383 70.8011885,8.21916674 70.8017732,8.21916674 C71.1149752,8.2536638 71.3529464,8.32811507 71.3529464,8.32811507 C71.3529464,8.32811507 71.4636488,8.2807547 71.534397,8.24937603 C71.5618777,8.31174358 71.6164493,8.43842768 71.6164493,8.43842768 L72.0080007,8.61247214 L71.9627842,8.50371871 C71.9627842,8.50371871 71.8333715,8.19344013 71.8027724,8.12171744 C72.2173218,7.9166841 72.6250497,7.68241597 73.0150418,7.42027734 C73.7570208,8.55497705 74.1509109,9.87229676 74.1509109,11.234638 C74.1509109,13.497216 73.068444,15.5109084 71.3948496,16.7876892 Z M66.4101228,4.30053528 C65.9801764,4.48822265 65.5693302,4.71352544 65.1816768,4.97780796 C65.0643479,4.8731474 64.9581281,4.76302969 64.8589247,4.6484293 C65.3600091,4.47263076 65.8784394,4.35705588 66.4101228,4.30053528 Z M65.9905061,5.48279025 C65.7903452,5.39820426 65.6053864,5.2935437 65.4319266,5.17036778 C65.8248422,4.91056793 66.2458232,4.68877332 66.6868788,4.50771251 C66.4389678,4.81818599 66.2027506,5.14464117 65.9905061,5.48279025 Z M67.0176217,4.56969027 L67.0176217,5.71705838 C66.7669821,5.70400018 66.5182915,5.6589786 66.2772019,5.58511203 C66.5007506,5.23604861 66.7496361,4.89614544 67.0176217,4.56969027 Z M67.3204942,6.01759204 C67.6329166,6.00297465 67.939882,5.94723364 68.2355432,5.84861495 C68.4577276,6.21833761 68.6574986,6.60638074 68.8323227,7.00592289 C68.33767,7.13280189 67.8297642,7.20316029 67.3204942,7.21446441 L67.3204942,6.01759204 Z M67.3204942,4.55604736 C67.5882849,4.87899436 67.8406786,5.22377 68.0716334,5.58511203 C67.8280102,5.66014799 67.5750318,5.70516957 67.3204942,5.71705838 L67.3204942,4.55604736 Z M68.9192475,5.17036778 C68.7442285,5.2947131 68.556931,5.39898385 68.3614477,5.48220556 C68.1503725,5.14892894 67.9120115,4.82266866 67.6594229,4.50498393 C68.1006733,4.68604474 68.5232135,4.90900875 68.9192475,5.17036778 Z M69.4887412,4.64998849 C69.3901225,4.76790215 69.2829283,4.87724027 69.1663789,4.97878245 C68.7826236,4.71527953 68.3737263,4.49056143 67.9472881,4.30443326 C68.4770225,4.36134365 68.9938936,4.47555424 69.4887412,4.64998849 Z M70.3488288,6.41245663 C69.958252,6.62294712 69.5462363,6.7950426 69.1235012,6.92406548 C68.9467282,6.51945596 68.7434489,6.1212781 68.5163921,5.73830233 C68.7514398,5.63500607 68.9732344,5.50637299 69.1802167,5.3498694 C69.60646,5.66014799 69.998596,6.01759204 70.3488288,6.41245663 Z M69.7849871,4.7608858 C70.3650054,4.99515393 70.9122807,5.30991519 71.4155089,5.69620423 C71.1652591,5.90338146 70.8953245,6.0928229 70.6131113,6.2616051 C70.2564468,5.85231802 69.8539812,5.48084127 69.416044,5.15458099 C69.5485751,5.03257446 69.6733102,4.9019924 69.7849871,4.7608858 Z M72.8456749,7.1739255 C72.4740032,7.4259294 72.0810876,7.65259648 71.6749189,7.85236756 C71.4353885,7.37155269 71.1438202,6.91432055 70.8062558,6.49333955 C71.1048405,6.31071955 71.3897823,6.108025 71.6534801,5.88623038 C72.1040857,6.26413878 72.5046023,6.69739839 72.8456749,7.1739255 Z M67.1713967,3.95887802 C63.1596037,3.95887802 59.8958316,7.22226035 59.8958316,11.234638 C59.8958316,15.2456514 63.1596037,18.5098134 67.1713967,18.5098134 C71.1822152,18.5098134 74.4465721,15.2456514 74.4465721,11.234638 C74.4465721,7.22226035 71.1822152,3.95887802 67.1713967,3.95887802 Z" id="Fill-1" fill="#FFFFFF"></path>
                <path d="M59.2373862,5.89287642 L59.1239552,5.99305431 C58.6967374,6.37115761 57.7222444,7.3682589 57.8721214,8.4624197 C57.8725112,8.46612277 57.8873235,8.53862505 57.8873235,8.53862505 C57.8877133,8.53998935 57.936243,8.75574211 57.936243,8.75574211 L58.0716976,8.63139679 C58.6688669,8.08490109 59.1169388,7.15913269 59.2995588,6.09108831 L59.3514018,5.79094445 L59.2373862,5.89287642 Z" id="Fill-3" fill="#FFFFFF"></path>
                <path d="M57.2573722,7.78247692 L57.2084526,7.91520287 C57.140433,8.09782287 57.017452,8.48099354 56.9513814,8.991433 C56.8595841,9.71372725 56.8806332,10.7351909 57.5082067,11.4982189 C57.5072322,11.4976342 57.5770059,11.5882621 57.5770059,11.5882621 L57.649898,11.6810338 L57.7426697,11.21737 C57.8463558,10.3974316 57.7097319,8.67940032 57.4090033,7.91227939 L57.3051224,7.65208975 L57.2573722,7.78247692 Z" id="Fill-5" fill="#FFFFFF"></path>
                <path d="M56.5345907,10.7376466 L56.5254305,10.8729062 C56.4730027,11.6082587 56.511008,13.4223749 57.9799588,14.3843945 C57.9799588,14.385369 58.1545879,14.4972408 58.1545879,14.4972408 L58.1465971,14.2914278 C58.1212603,13.6026562 57.3176933,11.5474503 56.7144821,10.8109285 L56.543556,10.6023869 L56.5345907,10.7376466 Z" id="Fill-7" fill="#FFFFFF"></path>
                <path d="M56.7875496,13.9839363 L56.8124966,14.1082816 C57.0272749,15.1507943 58.0161904,16.8395907 59.5430262,17.329371 L59.7517626,17.3968059 L59.6763368,17.1909929 C59.391395,16.4112036 57.9197156,14.5943588 56.9744574,13.9956302 L56.7610434,13.8601757 L56.7875496,13.9839363 Z" id="Fill-9" fill="#FFFFFF"></path>
                <path d="M59.8547275,7.46319401 L59.7338904,7.53647589 C58.5970468,8.23012004 58.0651685,9.07091265 58.1057074,10.1081631 L58.116037,10.3455496 L58.281311,10.2067817 C58.8962161,9.69809638 59.6648963,8.39753795 59.8923429,7.65926202 L59.9745901,7.38991214 L59.8547275,7.46319401 Z" id="Fill-11" fill="#FFFFFF"></path>
                <path d="M59.1864786,9.73423058 L59.0997488,9.8156982 C58.8085702,10.0930389 57.8668201,11.094428 57.9484827,12.3339831 C57.9611511,12.5247889 58.0046135,12.7288477 58.0778953,12.9424566 L58.1443558,13.1404736 L58.2661674,12.9699373 C58.7159934,12.3367117 59.3129678,10.6658459 59.2804198,9.88859028 L59.2704799,9.65295786 L59.1864786,9.73423058 Z" id="Fill-13" fill="#FFFFFF"></path>
                <path d="M59.2350084,11.885346 L59.170497,11.9800668 C58.695529,12.685015 58.4536599,13.4090634 58.4684722,14.0760064 C58.4815304,14.5692948 58.6392033,15.0413392 58.9366186,15.4794713 L59.0360169,15.6275942 L59.1194335,15.4710907 C59.3250515,15.0851914 59.4872072,13.8343321 59.4636245,12.8450268 C59.4542693,12.4955736 59.4187978,12.2061491 59.3609129,12.0091066 L59.2985453,11.7906253 L59.2350084,11.885346 Z" id="Fill-15" fill="#FFFFFF"></path>
                <path d="M59.7856359,14.1849158 L59.7558165,14.2845089 C59.6131507,14.7421309 59.5455209,15.1900079 59.5576046,15.6150818 C59.5852802,16.5765166 60.010354,17.3288252 60.8244455,17.850179 L60.9616542,17.936714 L60.9916685,17.7515603 C60.9916685,17.748247 61.0037523,17.6040221 61.0037523,17.6040221 C60.981144,16.8222837 60.3985921,14.853418 59.9425293,14.2523507 L59.8166248,14.0872715 L59.7856359,14.1849158 Z" id="Fill-17" fill="#FFFFFF"></path>
                <path d="M58.183238,17.2355273 L58.2420974,17.334146 C58.8544689,18.3602872 59.8930835,19.6842334 61.8358329,19.3443302 L61.9979885,19.315875 L61.9061913,19.1800307 C61.543485,18.6405514 59.1856016,17.3099785 58.3516304,17.1737444 L58.1239889,17.136129 L58.183238,17.2355273 Z" id="Fill-19" fill="#FFFFFF"></path>
                <path d="M61.0573299,19.8412632 L61.0573299,19.8412632 L60.7523136,19.9235104 L61.0450513,20.043568 C62.2799289,20.5487452 63.828983,20.6986222 64.7268809,20.3963345 C65.0642504,20.2813443 65.268894,20.0965804 65.5197285,19.8521775 C67.0999664,20.0158924 68.5804162,21.3300937 69.4432324,22.4035952 C69.4432324,22.403985 69.4898132,22.4566077 69.4898132,22.4566077 L69.5564685,22.4357535 C69.6537229,22.4026208 69.8030152,22.286851 69.8655777,22.219611 L69.926386,22.1537352 L69.8722042,22.0816227 C68.9717727,20.9050198 67.5622659,20.1749296 67.5006779,20.1456949 C66.231888,19.5274765 63.9928928,19.0447126 61.0573299,19.8412632" id="Fill-21" fill="#FFFFFF"></path>
                <path d="M61.1226209,16.5559548 L61.1399669,16.6592511 C61.3251206,17.8233805 61.7975548,19.3504111 63.7634971,19.181434 L63.8894016,19.1712992 L63.8580229,19.0485131 C63.725297,18.5193634 61.924044,16.9820032 61.2947164,16.549718 L61.1062494,16.4518789 L61.1226209,16.5559548 Z" id="Fill-23" fill="#FFFFFF"></path>
                <path d="M75.0190283,5.79096394 L75.0708713,6.0911078 C75.2536862,7.15915218 75.701953,8.08492058 76.2993172,8.63141628 L76.4357463,8.7557616 C76.4357463,8.7557616 76.4829117,8.54000884 76.4829117,8.53864454 C76.4829117,8.53864454 76.497724,8.46614226 76.4983087,8.46243919 C76.6485755,7.36827839 75.6740825,6.3711771 75.2474494,5.9930738 L75.1332388,5.89289591 L75.0190283,5.79096394 Z" id="Fill-25" fill="#FFFFFF"></path>
                <path d="M77.0656586,7.65210924 L76.9623623,7.91229888 C76.6604644,8.67941981 76.5232557,10.3972562 76.6271367,11.2173895 L76.7204931,11.6810533 L76.7935801,11.5882816 C76.7935801,11.5882816 76.8631589,11.4974588 76.862964,11.4982384 C77.4897579,10.7352104 77.5117815,9.71374674 77.4188149,8.99145249 C77.3529391,8.48101303 77.2307377,8.09784236 77.1633028,7.91522236 L77.1137985,7.78249641 L77.0656586,7.65210924 Z" id="Fill-27" fill="#FFFFFF"></path>
                <path d="M77.8272639,10.6024259 L77.655948,10.8109674 C77.0541011,11.5474893 76.2495596,13.6026951 76.2250024,14.2914668 L76.2172064,14.4970849 C76.2172064,14.4970849 76.3896917,14.385408 76.3896917,14.3844335 C77.8594221,13.4224139 77.8968427,11.6082977 77.8455843,10.8729452 L77.8354496,10.7376856 L77.8272639,10.6024259 Z" id="Fill-29" fill="#FFFFFF"></path>
                <path d="M77.6094452,13.8601172 L77.3958363,13.9955718 C76.450578,14.5943003 74.9783139,16.4111451 74.6941518,17.1909345 L74.6179464,17.3967474 L74.8278522,17.3293125 C76.3542981,16.8397272 77.3432137,15.1509307 77.5574073,14.1082232 L77.5846931,13.9838778 L77.6094452,13.8601172 Z" id="Fill-31" fill="#FFFFFF"></path>
                <path d="M74.4538418,7.354616 L74.532191,7.62552507 C74.7432662,8.36847857 75.4868044,9.68384929 76.0915748,10.2048133 L76.2554845,10.3461148 L76.2689325,10.1085334 C76.3301307,9.07245235 75.8140392,8.22133012 74.6916181,7.50585732 L74.5717554,7.43004176 L74.4538418,7.354616 Z" id="Fill-33" fill="#FFFFFF"></path>
                <path d="M75.099268,9.65305531 L75.0903027,9.88849283 C75.058924,10.6657485 75.6539495,12.3366143 76.1043602,12.9698399 L76.2261718,13.140571 L76.2938016,12.9425541 C76.3664988,12.7287503 76.4093765,12.5246914 76.4214602,12.3338857 C76.5039023,11.0943305 75.5619573,10.0929415 75.270389,9.81560075 L75.1854132,9.73432803 L75.099268,9.65305531 Z" id="Fill-35" fill="#FFFFFF"></path>
                <path d="M75.0740481,11.7906643 L75.0091469,12.0091456 C74.9506773,12.2061881 74.9161803,12.4956126 74.9077996,12.8450658 C74.8832424,13.8343711 75.0461776,15.0852304 75.2502365,15.4711296 L75.3346276,15.6276332 L75.4351953,15.4795103 C75.731831,15.0413782 75.8887243,14.5693338 75.9010029,14.0760454 C75.9171795,13.4091023 75.6755053,12.685054 75.1999526,11.9801057 L75.1370004,11.885385 L75.0740481,11.7906643 Z" id="Fill-37" fill="#FFFFFF"></path>
                <path d="M74.5519732,14.0872715 L74.427433,14.2523507 C73.9715652,14.853418 73.3884285,16.8222837 73.3669897,17.6040221 C73.3669897,17.6040221 73.377904,17.748247 73.3788785,17.7515603 L73.408698,17.936714 C73.408698,17.936714 73.5461015,17.850179 73.5462964,17.850179 C74.3596083,17.3288252 74.7864363,16.5763217 74.8137221,15.6150818 C74.825416,15.1900079 74.7585658,14.7421309 74.6143408,14.2845089 L74.5827672,14.1849158 L74.5519732,14.0872715 Z" id="Fill-39" fill="#FFFFFF"></path>
                <path d="M76.2461489,17.136129 C76.2461489,17.136129 76.0196767,17.1737444 76.0194818,17.1737444 C75.1855107,17.3099785 72.8270426,18.6405514 72.4641414,19.1800307 L72.3729288,19.315875 L72.5346947,19.3443302 C74.479393,19.6842334 75.5164485,18.3602872 76.128625,17.334146 L76.1872895,17.2355273 L76.2461489,17.136129 Z" id="Fill-41" fill="#FFFFFF"></path>
                <path d="M66.8706877,20.1455974 C66.8087099,20.1750271 65.3984236,20.9051173 64.4995512,22.0815253 L64.4447847,22.1536378 L64.5059828,22.2195135 C64.5685453,22.2869484 64.717058,22.4027182 64.8147022,22.4356561 L64.8811627,22.4567051 C64.8811627,22.4567051 64.9273536,22.4038876 64.9273536,22.4034978 C65.7891953,21.3301912 67.2694502,20.0157949 68.8504678,19.852275 C69.1007176,20.0966778 69.3057509,20.2814417 69.6448745,20.3964319 C70.5417979,20.6985248 72.0898776,20.5488426 73.3265092,20.0434705 L73.6190521,19.923413 L73.3138408,19.8411658 C70.3774984,19.0446152 68.1385031,19.527379 66.8706877,20.1455974" id="Fill-43" fill="#FFFFFF"></path>
                <path d="M73.2645705,16.4519569 L73.0761035,16.549796 C72.446581,16.9820811 70.6455229,18.5192465 70.5129919,19.0483962 L70.4821979,19.1713772 L70.6065432,19.181317 C72.5730702,19.350489 73.0456993,17.8234584 73.2312428,16.659329 L73.2485888,16.5560328 L73.2645705,16.4519569 Z" id="Fill-45" fill="#FFFFFF"></path>
                <mask id="mask-2" fill="white">
                    <use xlink:href="#path-1"></use>
                </mask>
                <g id="Clip-48"></g>
                <path d="M23.1789019,20.3478047 L25.2680201,20.3478047 L25.2680201,9.31069641 L23.1789019,9.31069641 L23.1789019,20.3478047 Z M22.9820543,6.73783986 L25.4666218,6.73783986 L25.4666218,4.47253331 L22.9820543,4.47253331 L22.9820543,6.73783986 Z" id="Fill-47" fill="#FFFFFF" mask="url(#mask-2)"></path>
                <path d="M7.41053241,9.32026593 L9.49945571,9.32026593 L9.49945571,20.3581538 L7.4541897,20.3581538 L7.4541897,18.7305555 L7.41053241,18.7305555 C6.57461227,20.1160898 5.1674443,20.6873376 3.62774528,20.6873376 C1.31936614,20.6873376 9.7449305e-05,18.9287674 9.7449305e-05,16.7078978 L9.7449305e-05,9.32026593 L2.08960545,9.32026593 L2.08960545,15.8507337 C2.08960545,17.7640533 2.52910182,19.1706366 4.52993095,19.1706366 C5.38806953,19.1706366 6.55278363,18.7305555 6.99208509,17.5886446 C7.38694968,16.5545125 7.41053241,15.2572674 7.41053241,14.9933747 L7.41053241,9.32026593 Z" id="Fill-49" fill="#FFFFFF" mask="url(#mask-2)"></path>
                <path d="M13.6700326,10.9468313 L13.7142746,10.9468313 C14.4172739,9.56207664 15.9565831,8.99082881 17.0562011,8.99082881 C17.825271,8.99082881 21.233463,9.1886509 21.233463,12.7283995 L21.233463,20.3580954 L19.1457091,20.3580954 L19.1457091,13.4103497 C19.1457091,11.5851242 18.3754698,10.5964036 16.6165098,10.5964036 C16.6165098,10.5964036 15.4720652,10.5303329 14.5932673,11.4095206 C14.286302,11.7166808 13.7142746,12.2004191 13.7142746,14.355608 L13.7142746,20.3580954 L11.6251564,20.3580954 L11.6251564,9.32020746 L13.6700326,9.32020746 L13.6700326,10.9468313 Z" id="Fill-50" fill="#FFFFFF" mask="url(#mask-2)"></path>
                <path d="M34.0149528,12.8606966 C33.9054198,11.4839329 33.251535,10.5246419 31.7650433,10.5246419 C29.7790264,10.5246419 29.0130749,12.2473507 29.0130749,14.8270287 C29.0130749,17.4047577 29.7790264,19.1313645 31.7650433,19.1313645 C33.1398581,19.1313645 33.9917599,18.2383391 34.1003184,16.6623889 L36.1781325,16.6623889 C36.0009697,19.1313645 34.1675584,20.637541 31.7418503,20.637541 C28.2258794,20.637541 26.8282615,18.1486857 26.8282615,14.9143433 C26.8282615,11.6991009 28.4435811,9.01437256 31.9197928,9.01437256 C34.2351882,9.01437256 35.9812849,10.480205 36.0873097,12.8606966 L34.0149528,12.8606966 Z" id="Fill-51" fill="#FFFFFF" mask="url(#mask-2)"></path>
                <path d="M44.8456245,13.7793317 C44.8894767,11.944946 44.0574545,10.524525 42.0480499,10.524525 C40.3202737,10.524525 39.2972509,11.983536 39.2972509,13.7793317 L44.8456245,13.7793317 Z M39.2972509,15.2190478 C39.1442555,17.1421124 39.9308663,19.1312476 42.0480499,19.1312476 C43.6651236,19.1312476 44.4729784,18.4988016 44.7119241,16.8998534 L46.8992712,16.8998534 C46.5700874,19.3943607 44.6472177,20.637424 42.0277804,20.637424 C38.5100554,20.637424 37.1097089,18.1487637 37.1097089,14.9144213 C37.1097089,11.698984 38.7297061,9.01445052 42.2022147,9.01445052 C45.4776807,9.08266504 47.0275144,11.1554118 47.0275144,14.1952454 L47.0275144,15.2190478 L39.2972509,15.2190478 Z" id="Fill-52" fill="#FFFFFF" mask="url(#mask-2)"></path>
                <path d="M49.3794144,20.3101503 L49.3794144,10.785845 L47.4922112,10.785845 L47.4922112,9.34086671 L49.3794144,9.34086671 L49.3794144,6.98434762 C49.4470443,4.58046816 51.2574575,3.94802217 52.8092402,3.94802217 C53.3107143,3.94802217 53.7936731,4.07782464 54.2976809,4.16416473 L54.2976809,5.88960212 C53.9445246,5.87108676 53.5962408,5.8229468 53.2452284,5.8229468 C52.0682357,5.8229468 51.3899885,6.13225089 51.4543051,7.33185184 L51.4543051,9.34086671 L53.9891564,9.34086671 L53.9891564,10.785845 L51.4543051,10.785845 L51.4543051,20.3101503 L49.3794144,20.3101503 Z" id="Fill-53" fill="#FFFFFF" mask="url(#mask-2)"></path>
                <path d="M95.513845,19.4198729 C98.0241391,19.4198729 98.6571698,16.6476351 98.6571698,14.6175712 C98.6571698,12.5220213 97.8058527,10.2083799 95.3173872,10.2083799 C92.7634358,10.2083799 91.7811468,12.3257584 91.7811468,14.5520852 C91.7811468,17.0407456 92.6542926,19.4198729 95.513845,19.4198729 L95.513845,19.4198729 Z M91.7811468,24.4841184 L90.4714281,24.4841184 L90.4714281,11.801871 C90.4932568,10.9505538 90.4059422,10.0772132 90.3622849,9.33523414 L91.7156609,9.33523414 L91.7811468,10.9505538 L91.8248041,10.9942111 C92.5888067,9.7063211 94.1168118,9.00780448 95.5793309,9.00780448 C98.8317989,9.00780448 100.076032,11.9326479 100.076032,14.7705666 C100.076032,17.5209758 98.8317989,20.6204484 95.6448169,20.6204484 C94.0513258,20.6204484 92.7197785,19.900298 91.8248041,18.5903845 L91.7811468,18.5903845 L91.7811468,24.4841184 Z" id="Fill-54" fill="#FFFFFF" mask="url(#mask-2)"></path>
                <path d="M105.116227,19.4198729 C107.975779,19.4198729 108.521495,17.0623793 108.390523,14.7705666 C106.535089,14.8358576 102.64959,14.4865993 102.64959,17.2372034 C102.64959,18.7213563 103.784679,19.4198729 105.116227,19.4198729 L105.116227,19.4198729 Z M108.390523,12.5658735 C108.259551,10.7757298 107.342748,10.2083799 105.792915,10.2083799 C104.41771,10.2083799 103.282621,10.6231242 103.107991,12.1072771 L101.710958,12.1072771 C102.038388,9.85912161 103.719193,9.00780448 105.814743,9.00780448 C108.237723,9.00780448 109.743899,10.1210653 109.700242,12.6311645 L109.700242,17.8263819 C109.678413,18.677699 109.765728,19.5510397 109.809385,20.2930187 L108.456009,20.2930187 L108.412352,18.677699 L108.368695,18.677699 L108.303209,18.8306944 C107.822979,19.7474975 106.360459,20.6204484 104.876112,20.6204484 C102.846048,20.6204484 101.230728,19.3762156 101.230728,17.2372034 C101.230728,15.7528556 102.125702,14.6175712 103.435421,14.07205 C104.89794,13.4390193 106.797227,13.6573057 108.390523,13.5697962 L108.390523,12.5658735 Z" id="Fill-55" fill="#FFFFFF" mask="url(#mask-2)"></path>
                <path d="M113.531208,20.2930187 L112.221489,20.2930187 L112.221489,11.801871 C112.243513,10.9505538 112.156003,10.0772132 112.112541,9.33523414 L113.465722,9.33523414 L113.531208,10.9505538 L113.57506,10.9505538 C113.967781,9.83729296 114.95007,9.05146177 116.041502,9.00780448 C116.478075,8.98597584 116.914648,9.00780448 117.351416,9.02943823 L117.351416,10.2956945 C117.089277,10.2738659 116.805505,10.2083799 116.543561,10.2083799 C114.600812,10.2083799 113.57506,11.6054132 113.531208,13.700963 L113.531208,20.2930187 Z" id="Fill-56" fill="#FFFFFF" mask="url(#mask-2)"></path>
                <path d="M121.611899,19.4198729 C124.471452,19.4198729 125.017168,17.0623793 124.886196,14.7705666 C123.030761,14.8358576 119.145263,14.4865993 119.145263,17.2372034 C119.145263,18.7213563 120.280352,19.4198729 121.611899,19.4198729 L121.611899,19.4198729 Z M124.886196,12.5658735 C124.755224,10.7757298 123.838421,10.2083799 122.288587,10.2083799 C120.913383,10.2083799 119.778293,10.6231242 119.603664,12.1072771 L118.206631,12.1072771 C118.53406,9.85912161 120.214866,9.00780448 122.310416,9.00780448 C124.733395,9.00780448 126.239572,10.1210653 126.195915,12.6311645 L126.195915,17.8263819 C126.174086,18.677699 126.261401,19.5510397 126.305058,20.2930187 L124.951682,20.2930187 L124.908025,18.677699 L124.864367,18.677699 L124.798881,18.8306944 C124.318651,19.7474975 122.856132,20.6204484 121.371979,20.6204484 C119.341915,20.6204484 117.726401,19.3762156 117.726401,17.2372034 C117.726401,15.7528556 118.621375,14.6175712 119.931094,14.07205 C121.393613,13.4390193 123.292705,13.6573057 124.886196,13.5697962 L124.886196,12.5658735 Z" id="Fill-57" fill="#FFFFFF" mask="url(#mask-2)"></path>
                <path d="M139.969848,12.6968259 C139.860704,11.0160203 138.791101,10.2083604 136.979323,10.2083604 C134.971283,10.2083604 133.726855,12.3039103 133.726855,14.7923757 C133.726855,17.3026698 134.971283,19.4198534 136.979323,19.4198534 C138.681958,19.4198534 139.860704,18.3722734 139.969848,16.866097 L141.38871,16.866097 C141.039451,19.3761962 139.598761,20.6204289 137.110295,20.6204289 C133.835999,20.6204289 132.307994,17.8047287 132.307994,14.8140095 C132.307994,11.8455088 133.945142,9.00778499 137.19761,9.00778499 C139.44596,9.00778499 141.279566,10.3611609 141.38871,12.6968259 L139.969848,12.6968259 Z" id="Fill-58" fill="#FFFFFF" mask="url(#mask-2)"></path>
                <path d="M146.43329,19.4198729 C149.292842,19.4198729 149.838558,17.0623793 149.707586,14.7705666 C147.852152,14.8358576 143.966653,14.4865993 143.966653,17.2372034 C143.966653,18.7213563 145.101742,19.4198729 146.43329,19.4198729 L146.43329,19.4198729 Z M149.707586,12.5658735 C149.576615,10.7757298 148.659812,10.2083799 147.109978,10.2083799 C145.734773,10.2083799 144.599684,10.6231242 144.425055,12.1072771 L143.028021,12.1072771 C143.355451,9.85912161 145.036257,9.00780448 147.131806,9.00780448 C149.554786,9.00780448 151.060962,10.1210653 151.017305,12.6311645 L151.017305,17.8263819 C150.995476,18.677699 151.082791,19.5510397 151.126448,20.2930187 L149.773072,20.2930187 L149.729415,18.677699 L149.685758,18.677699 L149.620272,18.8306944 C149.140042,19.7474975 147.677523,20.6204484 146.19337,20.6204484 C144.163306,20.6204484 142.547791,19.3762156 142.547791,17.2372034 C142.547791,15.7528556 143.442766,14.6175712 144.752484,14.07205 C146.215003,13.4390193 148.114095,13.6573057 149.707586,13.5697962 L149.707586,12.5658735 Z" id="Fill-59" fill="#FFFFFF" mask="url(#mask-2)"></path>
                <path d="M157.613882,10.2083409 C155.125417,10.2083409 154.317757,12.5221772 154.317757,14.6177271 C154.317757,16.647791 154.907131,19.419834 157.417425,19.419834 C160.276977,19.419834 161.150123,17.0407066 161.150123,14.5522412 C161.150123,12.3257194 160.167834,10.2083409 157.613882,10.2083409 L157.613882,10.2083409 Z M161.19378,18.6778549 L161.150123,18.5903455 C160.255148,19.900259 158.923601,20.6204094 157.395596,20.6204094 C154.143128,20.6204094 152.89909,17.5209368 152.89909,14.7705276 C152.89909,11.9328038 154.143128,9.0077655 157.395596,9.0077655 C158.858115,9.0077655 160.38612,9.70628212 161.150123,10.9941721 L161.19378,10.9505148 L161.19378,4.53289341 L162.503499,4.53289341 L162.503499,17.8263429 C162.503499,18.6778549 162.568985,19.5510007 162.612642,20.2929797 L161.259266,20.2929797 L161.19378,18.6778549 Z" id="Fill-60" fill="#FFFFFF" mask="url(#mask-2)"></path>
                <path d="M168.11576,19.4198729 C170.975313,19.4198729 171.521029,17.0623793 171.390057,14.7705666 C169.534622,14.8358576 165.649123,14.4865993 165.649123,17.2372034 C165.649123,18.7213563 166.784213,19.4198729 168.11576,19.4198729 L168.11576,19.4198729 Z M171.390057,12.5658735 C171.259085,10.7757298 170.342282,10.2083799 168.792448,10.2083799 C167.417244,10.2083799 166.282154,10.6231242 166.107525,12.1072771 L164.710492,12.1072771 C165.037921,9.85912161 166.718727,9.00780448 168.814277,9.00780448 C171.237256,9.00780448 172.743433,10.1210653 172.699775,12.6311645 L172.699775,17.8263819 C172.677947,18.677699 172.765261,19.5510397 172.808919,20.2930187 L171.455543,20.2930187 L171.411885,18.677699 L171.368228,18.677699 L171.302742,18.8306944 C170.822512,19.7474975 169.359993,20.6204484 167.87584,20.6204484 C165.845776,20.6204484 164.230261,19.3762156 164.230261,17.2372034 C164.230261,15.7528556 165.125236,14.6175712 166.434955,14.07205 C167.897474,13.4390193 169.796566,13.6573057 171.390057,13.5697962 L171.390057,12.5658735 Z" id="Fill-61" fill="#FFFFFF" mask="url(#mask-2)"></path>
                <path d="M180.863552,20.2930187 L179.553833,20.2930187 L179.553833,11.801871 C179.553833,10.9505538 179.488347,10.0772132 179.444885,9.33523414 L180.798066,9.33523414 L180.863552,10.9505538 L180.907404,10.9942111 C181.671407,9.64083517 182.915445,9.00780448 184.334501,9.00780448 C187.914204,9.00780448 188.197977,12.172763 188.197977,13.4390193 L188.197977,20.2930187 L186.888258,20.2930187 L186.888258,13.2205379 C186.888258,11.3216408 185.796826,10.2083799 184.006877,10.2083799 C181.845841,10.2083799 180.863552,12.0201574 180.863552,13.9847354 L180.863552,20.2930187 Z" id="Fill-62" fill="#FFFFFF" mask="url(#mask-2)"></path>
                <path d="M190.732458,20.2930382 L192.042176,20.2930382 L192.042176,9.33525363 L190.732458,9.33525363 L190.732458,20.2930382 Z M190.623314,6.16990531 L192.151319,6.16990531 L192.151319,4.53275698 L190.623314,4.53275698 L190.623314,6.16990531 Z" id="Fill-63" fill="#FFFFFF" mask="url(#mask-2)"></path>
                <path d="M201.947625,5.12222783 C201.70751,6.10451682 201.074674,6.9776626 199.961219,6.9776626 C199.633789,6.9776626 199.328188,6.89034802 198.97893,6.73754751 C198.6515,6.62840429 198.258584,6.51926106 197.800183,6.51926106 C197.36361,6.51926106 196.883575,6.71571886 196.774237,7.15229175 L195.944748,7.15229175 C196.206692,5.95171631 197.014352,5.2095424 198.302242,5.4060002 C198.498699,5.42782885 198.847958,5.53697207 199.175387,5.64611529 C199.502817,5.73342987 199.852075,5.84257309 200.026705,5.84257309 C200.528763,5.84257309 200.943508,5.58062936 201.118137,5.12222783 L201.947625,5.12222783 Z M195.922919,20.2929408 L194.613201,20.2929408 L194.613201,11.801793 C194.613201,10.9504759 194.569543,10.0991587 194.504252,9.33515619 L195.857433,9.33515619 L195.922919,10.9504759 L195.966577,10.9941332 C196.730579,9.61892856 197.974812,9.00772652 199.393674,9.00772652 C202.973572,9.00772652 203.257344,12.17288 203.257344,13.4389413 L203.257344,20.2929408 L201.947625,20.2929408 L201.947625,13.2206549 C201.947625,11.2997342 200.878022,10.208302 199.066244,10.208302 C196.905208,10.208302 195.922919,12.0200794 195.922919,13.9846574 L195.922919,20.2929408 Z" id="Fill-64" fill="#FFFFFF" mask="url(#mask-2)"></path>
                <path d="M210.249098,10.2083409 C207.607832,10.2083409 206.560057,12.784121 206.560057,14.81399 C206.560057,16.8440539 207.607832,19.419834 210.249098,19.419834 C212.890364,19.419834 213.938139,16.8440539 213.938139,14.81399 C213.938139,12.784121 212.890364,10.2083409 210.249098,10.2083409 M215.357,14.81399 C215.357,17.695566 213.741681,20.6204094 210.249098,20.6204094 C206.756515,20.6204094 205.141195,17.695566 205.141195,14.81399 C205.141195,11.9328038 206.756515,9.0077655 210.249098,9.0077655 C213.741681,9.0077655 215.357,11.9328038 215.357,14.81399" id="Fill-65" fill="#FFFFFF" mask="url(#mask-2)"></path>
                <polygon id="Fill-66" fill="#FFFFFF" mask="url(#mask-2)" points="83.6348916 27.1548336 84.1259972 27.1548336 84.1259972 0 83.6348916 0"></polygon>
            </g>
        </g>
    </g>
</svg>