<?xml version="1.0" encoding="UTF-8"?>
<svg width="1595px" height="163px" viewBox="0 0 1595 163" version="1.1" xmlns="http://www.w3.org/2000/svg" xmlns:xlink="http://www.w3.org/1999/xlink">
    <!-- Generator: Sketch 50.1 (55044) - http://www.bohemiancoding.com/sketch -->
    <title>Group 29</title>
    <desc>Created with Sketch.</desc>
    <defs></defs>
    <g id="Page-1" stroke="none" stroke-width="1" fill="none" fill-rule="evenodd">
        <g id="Group-29">
            <path d="M0.580361464,144.22429 C47.2259363,144.22429 92.9776282,118.860402 107.313621,111.213462 C134.108923,96.922248 163.835891,83.8154246 193.800202,79.4110827 C249.567694,71.2129973 303.89187,70.5732696 358.38309,86.8698166 C379.124526,93.0722098 412.885775,104.439573 436.945698,112.778017 C475.794321,126.241778 497.126025,130.791184 534.845899,136.882706 C579.578049,144.107047 659.614735,146.121338 704.828497,145.820859 C782.485267,145.303458 884.510636,142.917223 959.154215,136.882706 C1121.24341,123.778697 1159.64351,102.930652 1320.42656,102.567507 C1320.42656,102.567507 1370.05526,102.701226 1432.17046,120.191291 C1466.80822,129.944405 1520.34654,144.727933 1590.63688,144.22429 C1598.54354,144.167638 1590.76262,162.176681 1590.78735,162.176681 C1590.81209,162.176681 0.580361464,162.380086 0.580361464,162.380086" id="Fill-1" fill="#49B172" fill-rule="nonzero"></path>
            <rect id="Rectangle-7" fill="#FFFFFF" fill-rule="nonzero" x="1112" y="36" width="138.013889" height="94.4739884"></rect>
            <polygon id="Page-1-path" fill="#FEC70D" points="1179.82439 0 1159.83568 25.900685 1103.45175 25.900685 1098 53.6093474 1098 53.6134448 1103.45175 53.6134448 1103.45175 131.587977 1170.97402 131.091167 1170.97402 94.9316188 1192.17697 94.7349437 1192.17697 130.935466 1257.2113 130.458119 1257.2113 53.6134448 1262.66304 53.6134448 1257.2113 25.900685 1199.38238 25.900685"></polygon>
            <path d="M1170.00079,47.8760615 L1191.06631,47.8760615 L1191.06631,39.9619349 L1170.00079,39.9619349 L1170.00079,47.8760615 Z M1232.4559,64.3916535 L1249.24699,64.3916535 L1249.24699,58.0816587 L1232.4559,58.0816587 L1232.4559,64.3916535 Z M1210.95862,64.3916535 L1227.75279,64.3916535 L1227.75279,58.0816587 L1210.95862,58.0816587 L1210.95862,64.3916535 Z M1132.91333,64.3916535 L1149.70339,64.3916535 L1149.70339,58.0816587 L1132.91333,58.0816587 L1132.91333,64.3916535 Z M1111.41708,64.3916535 L1128.21125,64.3916535 L1128.21125,58.0816587 L1111.41708,58.0816587 L1111.41708,64.3916535 Z M1170.97402,86.2123532 L1170.97402,60.0566051 L1192.17697,59.9101231 L1192.17697,86.3578109 L1170.97402,86.2123532 Z M1235.53866,82.2573386 L1246.16423,82.2573386 L1246.16423,71.2742599 L1235.53866,71.2742599 L1235.53866,82.2573386 Z M1214.04138,82.2573386 L1224.67003,82.2573386 L1224.67003,71.2742599 L1214.04138,71.2742599 L1214.04138,82.2573386 Z M1135.99609,82.2573386 L1146.62166,82.2573386 L1146.62166,71.2742599 L1135.99609,71.2742599 L1135.99609,82.2573386 Z M1114.49881,82.2573386 L1125.12746,82.2573386 L1125.12746,71.2742599 L1114.49881,71.2742599 L1114.49881,82.2573386 Z M1235.53866,100.240824 L1246.16423,100.240824 L1246.16423,89.2567209 L1235.53866,89.2567209 L1235.53866,100.240824 Z M1214.04138,100.240824 L1224.67003,100.240824 L1224.67003,89.2567209 L1214.04138,89.2567209 L1214.04138,100.240824 Z M1135.99609,100.240824 L1146.62166,100.240824 L1146.62166,89.2567209 L1135.99609,89.2567209 L1135.99609,100.240824 Z M1114.49881,100.240824 L1125.12746,100.240824 L1125.12746,89.2567209 L1114.49881,89.2567209 L1114.49881,100.240824 Z M1235.53866,118.611513 L1246.16423,118.611513 L1246.16423,107.62741 L1235.53866,107.62741 L1235.53866,118.611513 Z M1214.04138,118.611513 L1224.67003,118.611513 L1224.67003,107.62741 L1214.04138,107.62741 L1214.04138,118.611513 Z M1135.99609,118.611513 L1146.62166,118.611513 L1146.62166,107.62741 L1135.99609,107.62741 L1135.99609,118.611513 Z M1114.49881,118.611513 L1125.12746,118.611513 L1125.12746,107.62741 L1114.49881,107.62741 L1114.49881,118.611513 Z" id="Page-1" fill="#FFFFFF" fill-rule="nonzero"></path>
            <path d="M168,99.034142 L224.80718,99.034142 L224.80718,45.131113 C224.80718,45.131113 206.896229,33 197.512028,33 C188.127827,33 168,45.131113 168,45.131113 L168,99.034142 Z" id="Fill-1" fill="#FEFEFE" fill-rule="nonzero"></path>
            <path d="M235,91.2715807 L291.80718,91.2715807 L291.80718,41.5186836 C291.80718,41.5186836 276.901356,28 268.060719,28 C259.220082,28 235,41.5186836 235,41.5186836 L235,91.2715807 Z" id="Fill-2" fill="#FEFEFE" fill-rule="nonzero"></path>
            <path d="M1028,139.706211 L1084.80718,139.706211 C1084.80718,139.706211 1090.72743,106.473123 1084.80718,90.2287576 C1078.88693,73.9843922 1059.76726,71 1059.76726,71 L1029.59412,90.2287576 L1028,139.706211 Z" id="Fill-2-Copy" fill="#FEFEFE" fill-rule="nonzero"></path>
            <path d="M163.228266,49.5700029 L163,103.287004 L229.019248,103.287004 L229.593927,50.2641166 L196.410523,15 L163.228266,49.5700029 Z M187.05966,43.6033161 L187.05966,38.1950602 L207.145892,38.1950602 L208.36522,44.2951872 L187.05966,43.6033161 Z M169.873205,73.8213718 L169.873205,48.4733256 L183.62191,48.4733256 L183.62191,75.0929792 L169.873205,73.8213718 Z M211.118173,49.3928301 L221.427981,49.5341198 L221.427981,72.45445 L211.118173,72.45445 L211.118173,49.3928301 Z M190.496263,75.0929792 L190.496263,49.6754095 L204.244968,49.5341198 L204.244968,75.2342689 L190.496263,75.0929792 Z M211.118173,82.1114893 L221.427981,82.1922262 L221.427981,96.4355743 L211.118173,96.4355743 L211.118173,82.1114893 Z M190.496263,96.5107045 L190.496263,82.2707205 L204.244968,82.1922262 L204.244968,96.5891988 L190.496263,96.5107045 Z M169.873205,95.7975279 L169.873205,82.7315941 L183.62191,82.7315941 L183.62191,96.5107045 L169.873205,95.7975279 Z" id="Fill-3" fill="#FEC70D" fill-rule="nonzero"></path>
            <path d="M264.373338,12 L233.214501,44.4629921 L233,94.90566 L294.994202,94.90566 L295.534469,45.1167373 L264.373338,12 Z M255.592566,38.8607431 L255.592566,33.7832844 L274.453733,33.7832844 L275.59965,39.5100029 L255.592566,38.8607431 Z M239.454527,67.2375472 L239.454527,43.4335957 L252.364729,43.4335957 L252.364729,68.4306603 L239.454527,67.2375472 Z M278.185131,44.2981541 L287.866349,44.430473 L287.866349,65.9524837 L278.185131,65.9524837 L278.185131,44.2981541 Z M258.819256,68.4306603 L258.819256,44.562792 L271.729457,44.430473 L271.729457,68.5629792 L258.819256,68.4306603 Z M278.185131,75.0219372 L287.866349,75.0959461 L287.866349,88.472493 L278.185131,88.472493 L278.185131,75.0219372 Z M258.819256,88.5420165 L258.819256,75.1710763 L271.729457,75.0959461 L271.729457,88.6160254 L258.819256,88.5420165 Z M239.454527,87.8736938 L239.454527,75.6039162 L252.364729,75.6039162 L252.364729,88.5420165 L239.454527,87.8736938 Z" id="Fill-4" fill="#CB78D3" fill-rule="nonzero"></path>
            <path d="M1059.37334,57 L1028.2145,89.4629921 L1028,139.90566 L1089.9942,139.90566 L1090.53447,90.1167373 L1059.37334,57 Z M1050.59257,83.8607431 L1050.59257,78.7832844 L1069.45373,78.7832844 L1070.59965,84.5100029 L1050.59257,83.8607431 Z M1034.45453,112.237547 L1034.45453,88.4335957 L1047.36473,88.4335957 L1047.36473,113.43066 L1034.45453,112.237547 Z M1073.18513,89.2981541 L1082.86635,89.430473 L1082.86635,110.952484 L1073.18513,110.952484 L1073.18513,89.2981541 Z M1053.81926,113.43066 L1053.81926,89.562792 L1066.72946,89.430473 L1066.72946,113.562979 L1053.81926,113.43066 Z M1073.18513,120.021937 L1082.86635,120.095946 L1082.86635,133.472493 L1073.18513,133.472493 L1073.18513,120.021937 Z M1053.81926,133.542017 L1053.81926,120.171076 L1066.72946,120.095946 L1066.72946,133.616025 L1053.81926,133.542017 Z M1034.45453,132.873694 L1034.45453,120.603916 L1047.36473,120.603916 L1047.36473,133.542017 L1034.45453,132.873694 Z" id="Fill-4-Copy" fill="#7AB7FF" fill-rule="nonzero"></path>
            <path d="M347.913379,89.6524341 C350.773075,88.1455072 355.630311,85.0510767 359.247402,79.3032674 C366.080944,68.4437812 365.131015,55.4016541 362.313789,51.6696776 C356.897355,44.4898637 358.934535,36.5820317 355.865316,32.5970158 C352.963149,28.9357207 350.113363,24.8093421 345.788427,25.1387173 C345.618544,25.1500263 345.452908,25.101963 345.278778,25.090654 C340.514977,24.7768287 334.332654,25.0567269 328.961521,29.5831621 C328.961521,29.5831621 325.22976,31.4802501 323.896178,35.537361 C322.77212,38.9512713 313.495095,57.2506789 320.74485,68.8339424 C324.13543,74.2495492 322.004815,76.9580594 323.489875,80.2489842 C325.252411,84.1576641 332.914131,90.0666269 337.171114,90.1712354 C341.428098,90.2772574 342.947134,90.1712354 342.947134,90.1712354 L347.913379,89.6524341 Z" id="Fill-1" fill="#FA589A" fill-rule="nonzero"></path>
            <polygon id="Fill-3" fill="#000000" fill-rule="nonzero" points="340 119.903029 343.039489 119.903029 343.039489 66 340 66"></polygon>
            <polygon id="Fill-4" fill="#000000" fill-rule="nonzero" points="333 67.3245689 335.756351 66 342.748449 81.4156075 339.993514 82.7430037"></polygon>
            <polygon id="Fill-5" fill="#000000" fill-rule="nonzero" points="345.633035 70 348.491316 71.0715296 342.859696 87.0695517 340 85.9994357"></polygon>
            <path d="M357.390649,90.2045437 C354.372395,88.4488184 350.458009,81.6323067 350.037549,78.0855154 C349.561876,74.0552635 353.763648,66.3524074 353.714099,62.2924693 C353.670212,58.6156243 349.709108,51.7439812 350.037549,48.082686 C350.293789,45.2384676 354.218085,40.66821 355.455399,38.1123715 C357.410468,34.0764651 358.53028,23.4643637 362.516866,21.6054435 C367.599198,19.2347903 380.334755,24.2800267 383.688528,28.8757296 C386.333039,32.5030977 386.812958,42.1030418 387.963915,46.4838734 C388.935079,50.1833364 393.572883,56.7312589 393.877257,60.5508803 C394.170305,64.2248981 389.750517,74.6701915 389.750517,74.6701915 C389.750517,74.6701915 387.828008,85.6102544 385.622362,88.3908597 C383.87823,90.5890504 378.283419,92.5243064 375.579449,93.0727938 C371.066225,93.9874108 361.397055,92.5356154 357.390649,90.2045437" id="Fill-6" fill="#7AB7FF" fill-rule="nonzero"></path>
            <polygon id="Fill-9" fill="#000000" fill-rule="nonzero" points="371 128.2423 374.341031 128.2423 374.341031 69 371 69"></polygon>
            <polygon id="Fill-10" fill="#000000" fill-rule="nonzero" points="364 73.4560363 367.028163 72 374.713951 88.9423252 371.685787 90.4026024"></polygon>
            <polygon id="Fill-11" fill="#000000" fill-rule="nonzero" points="377.192233 76 380.332236 77.1775517 374.14425 94.7602501 371 93.5826985"></polygon>
            <path d="M1339.83801,85.7929398 C1339.83801,85.7929398 1346.45639,82.8223516 1347.60696,78.9442486 C1347.63979,78.8343369 1351.40339,67.5639251 1351.51979,64.3556898 C1351.71081,59.1527045 1344.14779,46.5871163 1343.10318,45.7568369 C1343.10318,45.7568369 1341.42433,43.4442339 1338.38003,43.0907339 C1338.26512,43.0773663 1338.1517,43.0669692 1338.03232,43.0595427 C1334.76864,42.8530869 1330.52899,43.0372633 1326.84747,46.0331016 C1326.84747,46.0331016 1324.28966,47.2881751 1323.37487,49.9750722 C1322.37055,52.923381 1318.73678,70.2374545 1323.09581,79.5695574 C1324.30458,82.1569398 1329.55601,86.0677192 1332.47347,86.1360427 C1335.39243,86.2058516 1336.43406,86.1360427 1336.43406,86.1360427 L1339.83801,85.7929398 Z" id="Fill-1" fill="#CB78D3" fill-rule="nonzero"></path>
            <polygon id="Fill-3" fill="#000000" fill-rule="nonzero" points="1338.41929 73.3226029 1336.46138 72.6126324 1334.68255 77.4888529 1334.68255 71.3263676 1332.59929 71.3263676 1332.59929 75.7673971 1329.88926 70 1328 70.8778088 1332.59929 80.6673824 1332.59929 107.004618 1334.68255 107.004618 1334.68255 83.5726176"></polygon>
            <path d="M1366.56895,109.534886 C1369.20436,108.19515 1373.68129,105.43993 1377.01361,100.326062 C1383.31264,90.6612532 1382.43666,79.0551649 1379.84153,75.732562 C1374.84827,69.344312 1376.72709,62.3055032 1373.89767,58.7586208 C1371.22196,55.5013708 1368.5955,51.8297237 1364.61104,52.1223267 C1364.45435,52.134209 1364.30064,52.0896502 1364.14096,52.0807384 C1359.75209,51.8015032 1354.05147,52.0495473 1349.10298,56.0776649 C1349.10298,56.0776649 1345.66321,57.7664443 1344.43355,61.3771943 C1343.39789,64.4161061 1334.84846,80.7008708 1341.52952,91.0073267 C1344.65292,95.8271061 1342.69053,98.2377384 1344.05898,101.166738 C1345.6841,104.645297 1352.74421,109.903238 1356.66749,109.998297 C1360.59226,110.090386 1361.99204,109.998297 1361.99204,109.998297 L1366.56895,109.534886 Z" id="Fill-5" fill="#FF645B" fill-rule="nonzero"></path>
            <polygon id="Fill-8" fill="#000000" fill-rule="nonzero" points="1366.00978 90.4677647 1363.37437 89.5142059 1360.98518 96.0688088 1360.98518 87.7838382 1358.18412 87.7838382 1358.18412 93.7562059 1354.53991 86 1352 87.1793235 1358.18412 100.343485 1358.18412 135.752897 1360.98518 135.752897 1360.98518 104.248324"></polygon>
            <path d="M1291.81144,97.5857196 C1289.02829,96.0231902 1285.42138,89.957249 1285.03487,86.800999 C1284.59464,83.2140137 1288.46867,76.3593814 1288.42241,72.7456608 C1288.38063,69.4735578 1284.73193,63.358602 1285.03487,60.101352 C1285.27066,57.5704108 1288.88652,53.5021902 1290.02813,51.2267196 C1291.82935,47.6367637 1292.86053,38.1932637 1296.5346,36.5386461 C1301.21895,34.4295284 1312.95744,38.9180872 1316.04652,43.0085872 C1318.48495,46.2361314 1318.92817,54.7810284 1319.9877,58.6784402 C1320.8816,61.969852 1325.15706,67.7966608 1325.43761,71.196499 C1325.70772,74.4671167 1321.63372,83.7620872 1321.63372,83.7620872 C1321.63372,83.7620872 1319.86384,93.4981902 1317.83132,95.9712049 C1316.22112,97.9273372 1311.0652,99.6517637 1308.57304,100.13894 C1304.41398,100.952881 1295.50341,99.6591902 1291.81144,97.5857196" id="Fill-10" fill="#7AB7FF" fill-rule="nonzero"></path>
            <polygon id="Fill-13" fill="#000000" fill-rule="nonzero" points="1313.39465 80.9118676 1310.50106 79.86325 1307.8746 87.0684118 1307.8746 77.9620735 1304.79448 77.9620735 1304.79448 84.5255882 1300.79062 76 1298 77.2966618 1304.79448 91.7649118 1304.79448 130.682588 1307.8746 130.682588 1307.8746 96.0574118"></polygon>
        </g>
    </g>
</svg>