<?xml version="1.0" encoding="UTF-8" standalone="no"?>
<svg width="199px" height="73px" viewBox="0 0 199 73" version="1.1" xmlns="http://www.w3.org/2000/svg" xmlns:xlink="http://www.w3.org/1999/xlink">
    <!-- Generator: Sketch 41.2 (35397) - http://www.bohemiancoding.com/sketch -->
    <title>Group 14</title>
    <desc>Created with Sketch.</desc>
    <defs>
        <polygon id="path-1" points="161.2886 0.425 0.0006 0.425 0.0006 35.3736 161.2886 35.3736 161.2886 0.425"></polygon>
    </defs>
    <g id="Page-1" stroke="none" stroke-width="1" fill="none" fill-rule="evenodd">
        <g id="Group-14">
            <path d="M37.532,16 C36.803,16 36.22,16.234 35.782,16.704 C35.344,17.172 35.082,17.855 35,18.752 L39.909,18.752 C39.783,16.917 38.99,16 37.532,16" id="Fill-1" fill="#FFFFFF"></path>
            <path d="M78.844,21.358 C78.282,21.599 78,22 78,22.563 C78,23.043 78.151,23.438 78.453,23.75 C78.755,24.063 79.147,24.219 79.626,24.219 C80.377,24.219 80.991,23.954 81.471,23.421 C81.949,22.891 82.19,22.208 82.19,21.375 L82.19,21 L81.69,21 C80.356,21 79.407,21.119 78.844,21.358" id="Fill-3" fill="#FFFFFF"></path>
            <path d="M142,22.563 C142,23.043 142.15,23.438 142.452,23.75 C142.754,24.063 143.146,24.219 143.625,24.219 C144.376,24.219 144.99,23.954 145.47,23.421 C145.948,22.891 146.189,22.208 146.189,21.375 L146.189,21 L145.69,21 C144.355,21 143.406,21.119 142.843,21.358 C142.281,21.599 142,22 142,22.563 Z" id="Fill-5" fill="#FFFFFF"></path>
            <g id="Group-9">
                <mask id="mask-2" fill="white">
                    <use xlink:href="#path-1"></use>
                </mask>
                <g id="Clip-8"></g>
                <path d="M151.9006,25.4746 C151.9006,26.2666 151.6666,26.8866 151.1966,27.3346 C150.7286,27.7836 150.0766,28.0066 149.2426,28.0066 C148.5136,28.0066 147.9146,27.7986 147.4456,27.3816 C146.9766,26.9646 146.7206,26.4016 146.6786,25.6936 C146.3866,26.4436 145.8976,27.0276 145.2106,27.4436 C144.5216,27.8616 143.6986,28.0696 142.7406,28.0696 C141.6766,28.0696 140.7176,27.8546 139.8646,27.4286 C139.0086,27.0006 138.3366,26.4076 137.8456,25.6466 C137.3566,24.8856 137.1126,24.0256 137.1126,23.0666 C137.1126,21.9616 137.3986,21.0816 137.9716,20.4256 C138.5456,19.7686 139.4576,19.2936 140.7076,19.0026 C141.9586,18.7106 143.6466,18.5656 145.7716,18.5656 L146.6166,18.5656 L146.6166,18.1896 C146.6166,17.4596 146.4506,16.9336 146.1176,16.6116 C145.7826,16.2876 145.2196,16.1266 144.4286,16.1266 C143.5736,16.1266 142.3236,16.4176 140.6766,17.0016 C140.1966,17.1686 139.7906,17.2506 139.4576,17.2506 C138.9356,17.2506 138.5196,17.0636 138.2066,16.6886 C137.8936,16.3136 137.7366,15.8236 137.7366,15.2196 C137.7366,14.7616 137.8316,14.3866 138.0196,14.0936 C138.2066,13.8026 138.5076,13.5416 138.9246,13.3126 C139.6556,12.9366 140.5716,12.6356 141.6766,12.4056 C142.7816,12.1766 143.8656,12.0616 144.9286,12.0616 C147.3046,12.0616 149.0606,12.6286 150.1966,13.7656 C151.3336,14.9016 151.9006,16.6266 151.9006,18.9396 L151.9006,25.4746 Z M129.7156,27.5376 C129.1526,27.8916 128.3496,28.0376 127.3076,27.9756 L126.4326,27.9126 C124.5576,27.7666 123.1336,27.1996 122.1666,26.2086 C121.1966,25.2186 120.7116,23.8386 120.7116,22.0666 L120.7116,16.5326 L119.8046,16.5326 C118.1366,16.5326 117.3026,15.8436 117.3026,14.4686 C117.3026,13.1136 118.1366,12.4366 119.8046,12.4366 L120.7116,12.4366 L120.7116,10.4046 C120.7116,9.6126 120.9616,8.9816 121.4626,8.5126 C121.9626,8.0436 122.6386,7.8086 123.4946,7.8086 C124.3486,7.8086 125.0256,8.0436 125.5256,8.5126 C126.0266,8.9816 126.2766,9.6126 126.2766,10.4046 L126.2766,12.4366 L127.9966,12.4366 C129.6646,12.4366 130.4976,13.1136 130.4976,14.4686 C130.4976,15.8436 129.6646,16.5326 127.9966,16.5326 L126.2766,16.5326 L126.2766,22.5356 C126.2766,22.9316 126.3956,23.2646 126.6356,23.5356 C126.8756,23.8066 127.1836,23.9536 127.5586,23.9736 L128.4656,24.0356 C129.8616,24.1196 130.5596,24.7446 130.5596,25.9116 C130.5596,26.6426 130.2786,27.1826 129.7156,27.5376 L129.7156,27.5376 Z M111.2616,25.4426 C111.2616,26.2356 111.0106,26.8616 110.5106,27.3196 C110.0106,27.7776 109.3336,28.0066 108.4796,28.0066 C107.6246,28.0066 106.9466,27.7776 106.4466,27.3196 C105.9466,26.8616 105.6956,26.2356 105.6956,25.4426 L105.6956,18.9396 C105.6956,18.0236 105.5346,17.3556 105.2116,16.9396 C104.8876,16.5216 104.4036,16.3136 103.7576,16.3136 C102.9236,16.3136 102.2616,16.5786 101.7726,17.1116 C101.2826,17.6426 101.0376,18.3566 101.0376,19.2516 L101.0376,25.4426 C101.0376,26.2356 100.7876,26.8616 100.2876,27.3196 C99.7866,27.7776 99.1096,28.0066 98.2546,28.0066 C97.3996,28.0066 96.7226,27.7776 96.2226,27.3196 C95.7226,26.8616 95.4726,26.2356 95.4726,25.4426 L95.4726,14.6246 C95.4726,13.8966 95.7336,13.2956 96.2536,12.8276 C96.7756,12.3586 97.4526,12.1236 98.2866,12.1236 C99.0786,12.1236 99.7096,12.3426 100.1776,12.7806 C100.6466,13.2186 100.8816,13.7916 100.8816,14.5006 C101.4216,13.7076 102.1216,13.1036 102.9756,12.6866 C103.8316,12.2706 104.7786,12.0616 105.8216,12.0616 C107.6556,12.0616 109.0196,12.6086 109.9176,13.7036 C110.8126,14.7966 111.2616,16.4596 111.2616,18.6896 L111.2616,25.4426 Z M87.4426,25.4746 C87.4426,26.2666 87.2086,26.8866 86.7386,27.3346 C86.2706,27.7836 85.6176,28.0066 84.7846,28.0066 C84.0556,28.0066 83.4566,27.7986 82.9866,27.3816 C82.5186,26.9646 82.2626,26.4016 82.2206,25.6936 C81.9276,26.4436 81.4396,27.0276 80.7526,27.4436 C80.0636,27.8616 79.2406,28.0696 78.2826,28.0696 C77.2186,28.0696 76.2596,27.8546 75.4056,27.4286 C74.5506,27.0006 73.8786,26.4076 73.3876,25.6466 C72.8986,24.8856 72.6546,24.0256 72.6546,23.0666 C72.6546,21.9616 72.9406,21.0816 73.5136,20.4256 C74.0866,19.7686 74.9986,19.2936 76.2496,19.0026 C77.5006,18.7106 79.1876,18.5656 81.3136,18.5656 L82.1586,18.5656 L82.1586,18.1896 C82.1586,17.4596 81.9926,16.9336 81.6586,16.6116 C81.3246,16.2876 80.7616,16.1266 79.9706,16.1266 C79.1156,16.1266 77.8656,16.4176 76.2186,17.0016 C75.7376,17.1686 75.3326,17.2506 74.9986,17.2506 C74.4766,17.2506 74.0606,17.0636 73.7486,16.6886 C73.4346,16.3136 73.2786,15.8236 73.2786,15.2196 C73.2786,14.7616 73.3736,14.3866 73.5606,14.0936 C73.7486,13.8026 74.0496,13.5416 74.4666,13.3126 C75.1976,12.9366 76.1136,12.6356 77.2186,12.4056 C78.3236,12.1766 79.4066,12.0616 80.4706,12.0616 C82.8466,12.0616 84.6026,12.6286 85.7386,13.7656 C86.8756,14.9016 87.4426,16.6266 87.4426,18.9396 L87.4426,25.4746 Z M66.8446,15.5326 L61.3736,26.4116 C61.1246,26.9336 60.7636,27.3346 60.2966,27.6156 C59.8266,27.8966 59.3096,28.0376 58.7476,28.0376 C58.1856,28.0376 57.6646,27.8966 57.1836,27.6156 C56.7046,27.3346 56.3406,26.9336 56.0896,26.4116 L50.6186,15.5326 C50.4516,15.1576 50.3696,14.8236 50.3696,14.5316 C50.3696,13.8646 50.6556,13.2956 51.2286,12.8276 C51.8006,12.3586 52.4626,12.1236 53.2136,12.1236 C53.7136,12.1236 54.1776,12.2536 54.6056,12.5146 C55.0316,12.7756 55.3596,13.1656 55.5896,13.6876 L58.9046,20.8476 L62.1866,13.6876 C62.4176,13.1656 62.7346,12.7806 63.1406,12.5296 C63.5476,12.2806 63.9896,12.1546 64.4696,12.1546 C65.1576,12.1546 65.7666,12.3846 66.2976,12.8426 C66.8306,13.3026 67.0956,13.8546 67.0956,14.5006 C67.0956,14.8536 67.0116,15.1996 66.8446,15.5326 L66.8446,15.5326 Z M35.8196,23.3486 C36.3196,23.7866 37.0586,24.0046 38.0396,24.0046 C38.5596,24.0046 39.0396,23.9476 39.4766,23.8336 C39.9146,23.7186 40.4046,23.5576 40.9466,23.3486 C41.2586,23.2226 41.5656,23.1136 41.8686,23.0206 C42.1706,22.9266 42.4476,22.8796 42.6966,22.8796 C43.1766,22.8796 43.5666,23.0666 43.8706,23.4416 C44.1716,23.8166 44.3226,24.3066 44.3226,24.9116 C44.3226,25.7456 43.9176,26.3816 43.1036,26.8196 C42.3956,27.1726 41.5556,27.4706 40.5866,27.7096 C39.6186,27.9496 38.7266,28.0696 37.9136,28.0696 C36.2056,28.0696 34.7136,27.7466 33.4426,27.1006 C32.1716,26.4536 31.1916,25.5266 30.5046,24.3166 C29.8156,23.1086 29.4726,21.6906 29.4726,20.0646 C29.4726,18.5236 29.8006,17.1416 30.4576,15.9226 C31.1136,14.7026 32.0306,13.7546 33.2096,13.0776 C34.3856,12.4006 35.7136,12.0616 37.1946,12.0616 C38.6316,12.0616 39.8946,12.3736 40.9776,12.9996 C42.0606,13.6236 42.9006,14.5106 43.4946,15.6576 C44.0886,16.8036 44.3846,18.1476 44.3846,19.6896 C44.3846,20.1696 44.2756,20.5396 44.0566,20.8006 C43.8376,21.0616 43.5196,21.1906 43.1036,21.1906 L34.8496,21.1906 C34.9956,22.1906 35.3186,22.9116 35.8196,23.3486 L35.8196,23.3486 Z M23.6956,27.2566 C23.2476,27.6326 22.5646,27.8196 21.6476,27.8196 L11.3616,27.8196 C10.5066,27.8196 9.8496,27.5906 9.3916,27.1306 C8.9326,26.6726 8.7046,26.0066 8.7046,25.1296 L8.7046,8.4346 C8.7046,7.5796 8.9586,6.8976 9.4696,6.3866 C9.9796,5.8766 10.6726,5.6206 11.5486,5.6206 C12.4456,5.6206 13.1546,5.8766 13.6736,6.3866 C14.1956,6.8976 14.4576,7.5796 14.4576,8.4346 L14.4576,23.1606 L21.6476,23.1606 C23.4616,23.1606 24.3676,23.9426 24.3676,25.5046 C24.3676,26.2976 24.1436,26.8816 23.6956,27.2566 L23.6956,27.2566 Z M159.9726,3.1266 L29.3886,0.4246 C29.3886,0.4246 10.2276,1.3196 0.0006,2.2956 L1.2146,34.0886 L63.9156,35.3736 L161.2886,33.2406 L159.9726,3.1266 Z" id="Fill-7" fill="#FFFFFF" mask="url(#mask-2)"></path>
            </g>
            <path d="M14.533,57.29 L23.038,57.29 C23.725,57.29 24.226,57.368 24.538,57.524 C24.851,57.681 25.059,57.926 25.164,58.26 C25.268,58.593 25.32,59.036 25.32,59.588 C25.32,60.14 25.268,60.584 25.164,60.917 C25.059,61.25 24.883,61.479 24.633,61.604 C24.236,61.813 23.694,61.917 23.007,61.917 L11.751,61.917 C10.292,61.917 9.437,61.521 9.186,60.729 C9.061,60.395 9,59.864 9,59.135 L9,41.75 C9,41.272 9.014,40.912 9.047,40.673 C9.077,40.432 9.177,40.156 9.343,39.843 C9.636,39.281 10.448,39 11.782,39 C13.241,39 14.106,39.385 14.377,40.156 C14.481,40.511 14.533,41.053 14.533,41.782 L14.533,57.29 Z" id="Fill-10" fill="#FFFFFF"></path>
            <path d="M42.474,48.129 L40.411,52.413 L44.57,52.413 L42.474,48.129 Z M45.007,40.626 L53.448,58.071 C53.803,58.78 53.98,59.312 53.98,59.667 C53.98,60.416 53.375,61.094 52.167,61.698 C51.457,62.052 50.9,62.23 50.494,62.23 C50.087,62.23 49.753,62.136 49.493,61.949 C49.232,61.761 49.045,61.564 48.93,61.355 C48.816,61.147 48.655,60.834 48.446,60.416 L46.82,57.04 L38.16,57.04 L36.535,60.416 C36.326,60.834 36.163,61.136 36.049,61.323 C35.934,61.511 35.746,61.704 35.486,61.902 C35.225,62.099 34.892,62.198 34.486,62.198 C34.078,62.198 33.522,62.022 32.813,61.667 C31.604,61.084 31,60.416 31,59.667 C31,59.312 31.177,58.78 31.531,58.071 L39.973,40.594 C40.202,40.114 40.552,39.729 41.02,39.438 C41.49,39.146 41.984,39 42.506,39 C43.63,39 44.463,39.542 45.007,40.626 L45.007,40.626 Z" id="Fill-12" fill="#FFFFFF"></path>
            <path d="M96.356,39.845 C96.523,40.158 96.623,40.439 96.653,40.689 C96.684,40.939 96.7,41.304 96.7,41.784 L96.7,59.136 C96.7,60.574 96.304,61.418 95.511,61.668 C95.116,61.793 94.616,61.855 94.011,61.855 C93.406,61.855 92.926,61.804 92.573,61.7 C92.217,61.596 91.948,61.47 91.759,61.325 C91.573,61.178 91.426,60.97 91.322,60.699 C91.218,60.345 91.166,59.803 91.166,59.073 L91.166,48.599 C90.644,49.245 89.884,50.272 88.883,51.679 C87.883,53.086 87.248,53.967 86.976,54.322 C86.706,54.675 86.517,54.921 86.414,55.055 C86.308,55.192 86.054,55.379 85.647,55.619 C85.241,55.858 84.803,55.978 84.334,55.978 C83.866,55.978 83.438,55.868 83.053,55.65 C82.667,55.431 82.39,55.217 82.223,55.009 L81.974,54.665 C81.557,54.145 80.734,53.034 79.503,51.336 C78.273,49.636 77.607,48.725 77.502,48.599 L77.502,59.136 C77.502,59.615 77.487,59.975 77.457,60.214 C77.424,60.455 77.326,60.72 77.159,61.012 C76.846,61.574 76.033,61.855 74.72,61.855 C73.449,61.855 72.657,61.574 72.343,61.012 C72.177,60.72 72.078,60.449 72.047,60.199 C72.015,59.949 72,59.573 72,59.073 L72,41.72 C72,41.242 72.015,40.882 72.047,40.643 C72.078,40.402 72.177,40.126 72.343,39.813 C72.657,39.271 73.469,39 74.783,39 C75.346,39 75.831,39.069 76.237,39.204 C76.643,39.34 76.908,39.48 77.034,39.626 L77.221,39.813 L84.319,49.131 C87.862,44.442 90.228,41.346 91.417,39.845 C91.77,39.283 92.608,39 93.933,39 C95.255,39 96.064,39.283 96.356,39.845" id="Fill-14" fill="#FFFFFF"></path>
            <path d="M114.474,48.129 L112.411,52.413 L116.57,52.413 L114.474,48.129 Z M117.007,40.626 L125.449,58.071 C125.803,58.78 125.98,59.312 125.98,59.667 C125.98,60.416 125.375,61.094 124.167,61.698 C123.457,62.052 122.9,62.23 122.495,62.23 C122.087,62.23 121.754,62.136 121.494,61.949 C121.232,61.761 121.045,61.564 120.931,61.355 C120.816,61.147 120.655,60.834 120.446,60.416 L118.821,57.04 L110.161,57.04 L108.535,60.416 C108.326,60.834 108.164,61.136 108.05,61.323 C107.934,61.511 107.747,61.704 107.486,61.902 C107.225,62.099 106.892,62.198 106.487,62.198 C106.079,62.198 105.522,62.022 104.813,61.667 C103.605,61.084 103,60.416 103,59.667 C103,59.312 103.177,58.78 103.531,58.071 L111.973,40.594 C112.203,40.114 112.552,39.729 113.02,39.438 C113.49,39.146 113.985,39 114.506,39 C115.631,39 116.464,39.542 117.007,40.626 L117.007,40.626 Z" id="Fill-16" fill="#FFFFFF"></path>
            <path d="M146.805,39.922 C147.002,39.558 147.3,39.313 147.696,39.188 C148.091,39.063 148.587,39 149.181,39 C149.774,39 150.254,39.052 150.619,39.156 C150.984,39.26 151.255,39.386 151.432,39.531 C151.609,39.678 151.74,39.897 151.823,40.188 C151.949,40.523 152.011,41.053 152.011,41.783 L152.011,59.135 C152.011,59.636 151.994,60 151.963,60.229 C151.932,60.459 151.832,60.73 151.666,61.042 C151.374,61.606 150.562,61.886 149.227,61.886 C148.414,61.886 147.852,61.824 147.539,61.699 C147.227,61.574 146.965,61.377 146.758,61.106 C142.069,54.851 138.984,50.766 137.502,48.849 L137.502,59.135 C137.502,59.636 137.488,60 137.456,60.229 C137.425,60.459 137.326,60.73 137.159,61.042 C136.867,61.606 136.054,61.886 134.72,61.886 C133.428,61.886 132.636,61.606 132.344,61.042 C132.177,60.73 132.077,60.449 132.047,60.198 C132.016,59.948 132,59.584 132,59.104 L132,41.657 C132,40.866 132.1,40.287 132.298,39.922 C132.495,39.558 132.793,39.313 133.189,39.188 C133.584,39.063 134.096,39 134.72,39 C135.346,39 135.841,39.058 136.206,39.172 C136.57,39.287 136.826,39.417 136.972,39.563 C137.055,39.626 137.294,39.897 137.691,40.376 C142.089,46.358 145.028,50.308 146.507,52.226 L146.507,41.657 C146.507,40.866 146.607,40.287 146.805,39.922" id="Fill-18" fill="#FFFFFF"></path>
            <path d="M163.533,50.787 C163.533,52.642 164.133,54.148 165.331,55.305 C166.529,56.461 167.869,57.04 169.348,57.04 C170.83,57.04 172.163,56.478 173.351,55.352 C174.539,54.226 175.134,52.715 175.134,50.818 C175.134,48.922 174.534,47.399 173.336,46.253 C172.137,45.107 170.798,44.535 169.318,44.535 C167.838,44.535 166.504,45.112 165.316,46.269 C164.128,47.426 163.533,48.933 163.533,50.787 M169.224,39 C172.309,39 174.987,40.115 177.26,42.345 C179.531,44.577 180.668,47.343 180.668,50.646 C180.668,53.95 179.584,56.764 177.416,59.088 C175.248,61.412 172.58,62.574 169.412,62.574 C166.243,62.574 163.55,61.428 161.33,59.135 C159.11,56.842 158,54.111 158,50.944 C158,49.213 158.312,47.593 158.938,46.081 C159.563,44.57 160.396,43.304 161.439,42.283 C162.481,41.262 163.679,40.459 165.035,39.875 C166.389,39.291 167.787,39 169.224,39" id="Fill-20" fill="#FFFFFF"></path>
            <path d="M185,51.477 L185,50.039 C185,48.917 185.917,48 187.039,48 L196.641,48 C197.762,48 198.679,48.917 198.679,50.039 L198.679,51.477 C198.679,52.599 197.762,53.516 196.641,53.516 L187.039,53.516 C185.917,53.516 185,52.599 185,51.477" id="Fill-22" fill="#FFFFFF"></path>
            <path d="M182.980371,44.0593707 L182.267371,42.8103707 C181.710371,41.8363707 182.052371,40.5853707 183.026371,40.0293707 L191.363371,35.2673707 C192.336371,34.7103707 193.588371,35.0523707 194.144371,36.0263707 L194.858371,37.2753707 C195.415371,38.2483707 195.073371,39.5003707 194.099371,40.0563707 L185.761371,44.8183707 C184.788371,45.3743707 183.537371,45.0333707 182.980371,44.0593707" id="Fill-25" fill="#FFFFFF"></path>
            <path d="M178.237342,37.8178972 L176.999342,37.0858972 C176.034342,36.5148972 175.711342,35.2578972 176.282342,34.2938972 L178.229342,30.9988972 C178.800342,30.0338972 180.056342,29.7118972 181.022342,30.2818972 L182.260342,31.0138972 C183.225342,31.5848972 183.548342,32.8408972 182.977342,33.8058972 L181.030342,37.1008972 C180.459342,38.0658972 179.203342,38.3878972 178.237342,37.8178972" id="Fill-27" fill="#FFFFFF"></path>
            <path d="M178.23786,64.2823417 L176.99986,65.0143417 C176.03386,65.5853417 175.71186,66.8413417 176.28186,67.8063417 L178.22986,71.1003417 C178.79986,72.0663417 180.05686,72.3883417 181.02186,71.8183417 L182.25986,71.0863417 C183.22486,70.5153417 183.54886,69.2593417 182.97686,68.2933417 L181.02986,64.9993417 C180.45986,64.0343417 179.20286,63.7113417 178.23786,64.2823417" id="Fill-29" fill="#FFFFFF"></path>
            <path d="M182.980371,58.0259264 L182.267371,59.2749264 C181.710371,60.2489264 182.052371,61.5009264 183.026371,62.0559264 L191.364371,66.8189264 C192.336371,67.3749264 193.588371,67.0329264 194.145371,66.0599264 L194.858371,64.8109264 C195.415371,63.8369264 195.073371,62.5859264 194.099371,62.0289264 L185.762371,57.2669264 C184.789371,56.7109264 183.537371,57.0519264 182.980371,58.0259264" id="Fill-32" fill="#FFFFFF"></path>
        </g>
    </g>
</svg>