<?xml version="1.0" encoding="UTF-8" standalone="no"?>
<svg width="143px" height="75px" viewBox="0 0 143 75" version="1.1" xmlns="http://www.w3.org/2000/svg" xmlns:xlink="http://www.w3.org/1999/xlink">
    <!-- Generator: Sketch 41.2 (35397) - http://www.bohemiancoding.com/sketch -->
    <title>Artboard 3 Copy 20</title>
    <desc>Created with Sketch.</desc>
    <defs>
        <polygon id="path-1" points="0 45.0288986 139.242243 45.0288986 139.242243 0.000104259868 0 0.000104259868"></polygon>
    </defs>
    <g id="Page-1" stroke="none" stroke-width="1" fill="none" fill-rule="evenodd">
        <g id="Artboard-3-Copy-20">
            <g id="Group" transform="translate(1.000000, 19.000000)">
                <path d="M7.35928032,38.2210942 C6.53956949,37.7060504 6.29574467,36.6196626 6.81054396,35.805393 C7.32638746,34.9900808 8.40558638,34.748198 9.22059823,35.2679334 C10.0361322,35.7881901 10.2836118,36.8704076 9.76567983,37.6888475 C9.69832779,37.7977991 9.61687882,37.9015377 9.52864243,37.9896373 C8.9642428,38.5557683 8.06151667,38.6704542 7.35928032,38.2210942 Z" id="Fill-1" fill="#FFFFFF"></path>
                <path d="M2.32709118,30.6856601 C1.50842457,30.1695737 1.26459975,29.0831859 1.77939904,28.2694376 C2.29472043,27.4546468 3.37339724,27.2122426 4.18840909,27.7324993 C5.00394305,28.2527561 5.25142263,29.3349735 4.73349069,30.1534134 C4.66613865,30.262365 4.5857339,30.365061 4.49645329,30.4536819 C3.93153156,31.0203342 3.02932753,31.1350201 2.32709118,30.6856601" id="Fill-3" fill="#FFFFFF"></path>
                <path d="M0.818144506,22.1458385 C-0.000522108811,21.6287096 -0.245391141,20.5433644 0.269408146,19.7280522 C0.785251651,18.9137826 1.86340635,18.6718997 2.67946242,19.1916352 C3.49499638,19.7118919 3.74247596,20.7935881 3.2234998,21.6125493 C3.15614776,21.7220222 3.075743,21.8241969 2.98750661,21.913339 C2.42206277,22.4794701 1.52038086,22.594156 0.818144506,22.1458385" id="Fill-5" fill="#FFFFFF"></path>
                <path d="M2.32709118,13.1015035 C1.50842457,12.5859385 1.26459975,11.4995507 1.77939904,10.6842385 C2.29472043,9.87049022 3.37339724,9.62808602 4.18840909,10.1483428 C5.00394305,10.6680782 5.25142263,11.7508169 4.73349069,12.5692569 C4.66613865,12.6782085 4.5857339,12.7809044 4.49645329,12.8695253 C3.93153156,13.436699 3.02932753,13.549821 2.32709118,13.1015035" id="Fill-7" fill="#FFFFFF"></path>
                <path d="M7.35928032,6.06854987 C6.53956949,5.55246353 6.29574467,4.4660757 6.81054396,3.65076354 C7.32638746,2.83753657 8.40558638,2.59461107 9.22059823,3.11434652 C10.0361322,3.63460326 10.2836118,4.71734198 9.76567983,5.53630325 C9.69832779,5.64473351 9.61687882,5.74742948 9.52864243,5.83605037 C8.9642428,6.40218145 8.06151667,6.51686731 7.35928032,6.06854987" id="Fill-9" fill="#FFFFFF"></path>
                <path d="M39.0597955,6.06854987 C38.2400847,5.55246353 37.9973041,4.4660757 38.5110591,3.65076354 C39.0269026,2.83753657 40.1061016,2.59461107 40.9216355,3.11434652 C41.7366474,3.63460326 41.9830827,4.71734198 41.4656729,5.53630325 C41.3977988,5.64473351 41.3179161,5.74742948 41.2291576,5.83605037 C40.6637138,6.40218145 39.7609876,6.51686731 39.0597955,6.06854987" id="Fill-11" fill="#FFFFFF"></path>
                <path d="M44.0919846,13.603984 C43.2722738,13.0878976 43.028449,12.0015098 43.5432483,11.1872402 C44.0580476,10.3729707 45.1382907,10.1300452 45.9522583,10.6508232 C46.7677923,11.1700373 47.0163161,12.2522548 46.4962957,13.0706947 C46.43051,13.1806889 46.349061,13.2839062 46.2613468,13.3725271 C45.6959029,13.9386581 44.794221,14.053344 44.0919846,13.603984" id="Fill-13" fill="#FFFFFF"></path>
                <path d="M45.6009313,22.1458385 C44.7812205,21.6287096 44.5373957,20.5433644 45.0532392,19.7280522 C45.5680385,18.9137826 46.6472374,18.6718997 47.4627713,19.1916352 C48.276739,19.7118919 48.5252628,20.7935881 48.0068087,21.6125493 C47.9399788,21.7220222 47.8590519,21.8241969 47.7713376,21.913339 C47.2048496,22.4794701 46.3031677,22.594156 45.6009313,22.1458385" id="Fill-15" fill="#FFFFFF"></path>
                <path d="M44.0919846,30.6856601 C43.2722738,30.1695737 43.028449,29.0831859 43.5432483,28.2694376 C44.0580476,27.4546468 45.1382907,27.2122426 45.9522583,27.7324993 C46.7677923,28.2527561 47.0163161,29.3349735 46.4962957,30.1534134 C46.43051,30.262365 46.349061,30.365061 46.2613468,30.4536819 C45.6959029,31.0203342 44.794221,31.1350201 44.0919846,30.6856601" id="Fill-17" fill="#FFFFFF"></path>
                <path d="M39.562012,38.2210942 C38.7438675,37.7060504 38.5000426,36.6196626 39.015364,35.805393 C39.5301633,34.9900808 40.6093622,34.748198 41.4243741,35.2679334 C42.2399081,35.7881901 42.4873876,36.8704076 41.9684115,37.6888475 C41.9005373,37.7977991 41.8206547,37.9015377 41.7324183,37.9896373 C41.1669745,38.5557683 40.2647704,38.6704542 39.562012,38.2210942" id="Fill-19" fill="#FFFFFF"></path>
                <path d="M32.0159211,43.2462634 C31.1962103,42.7296558 30.9513413,41.6437892 31.4671848,40.8279558 C31.981984,40.0142075 33.061183,39.7718033 33.8761948,40.29206 C34.6917288,40.8128381 34.9392083,41.8945342 34.4212764,42.7134955 C34.3539244,42.8229683 34.2724754,42.9256643 34.1847611,43.0132426 C33.6198394,43.5804163 32.7165911,43.6945808 32.0159211,43.2462634" id="Fill-21" fill="#FFFFFF"></path>
                <path d="M22.9578031,44.7531313 C22.1386144,44.2375662 21.8953117,43.1506571 22.410111,42.3358662 C22.9249103,41.5210754 24.0035871,41.2791925 24.8191211,41.7999705 C25.6341329,42.3191847 25.8831788,43.4014021 25.3642027,44.219842 C25.2963285,44.3298362 25.2154016,44.4325322 25.1266431,44.5216744 C24.5617214,45.0867629 23.6605616,45.2024913 22.9578031,44.7531313" id="Fill-23" fill="#FFFFFF"></path>
                <path d="M14.4034158,43.2462634 C13.5847491,42.7296558 13.3409243,41.6437892 13.8557236,40.8279558 C14.371045,40.0142075 15.4497218,39.7718033 16.2657779,40.29206 C17.0797455,40.8128381 17.3277472,41.8945342 16.8098153,42.7134955 C16.7424632,42.8229683 16.6610143,42.9256643 16.5727779,43.0132426 C16.0083782,43.5804163 15.1056521,43.6945808 14.4034158,43.2462634" id="Fill-25" fill="#FFFFFF"></path>
                <path d="M11.8272787,33.6363186 C11.1965712,33.2380459 11.0086121,32.4024031 11.4043705,31.7742374 C11.8006511,31.1460716 12.6334147,30.9599678 13.2604674,31.3603257 C13.8885643,31.7612049 14.079134,32.5952838 13.6802428,33.2250134 C13.6285541,33.3099852 13.5664231,33.3892227 13.498549,33.4564703 C13.0631102,33.8933192 12.3676613,33.9819401 11.8272787,33.6363186" id="Fill-27" fill="#FFFFFF"></path>
                <path d="M8.13450748,28.1072093 C7.50380004,27.7084153 7.31636298,26.8727724 7.71368778,26.245128 C8.10996837,25.6169623 8.94064349,25.4298159 9.56874038,25.8312164 C10.1968373,26.231053 10.387407,27.0651319 9.98851587,27.6959041 C9.93578288,27.7808759 9.87469615,27.8590708 9.806822,27.9284036 C9.37138325,28.3642099 8.67593432,28.4517881 8.13450748,28.1072093" id="Fill-29" fill="#FFFFFF"></path>
                <path d="M7.02706248,21.8404093 C6.39635504,21.4416153 6.20891798,20.6054511 6.60519856,19.9772854 C7.00147915,19.3501623 7.83319849,19.1640585 8.46129539,19.5644163 C9.08939229,19.9652955 9.27891778,20.7983319 8.88002665,21.4291041 C8.82833788,21.5130333 8.76725115,21.5922708 8.6988549,21.6616036 C8.26289404,22.0974098 7.56848932,22.1849881 7.02706248,21.8404093" id="Fill-31" fill="#FFFFFF"></path>
                <path d="M8.13450748,15.2045293 C7.50380004,14.8062566 7.31636298,13.9706138 7.71368778,13.3434907 C8.10996837,12.715325 8.94064349,12.5271359 9.56874038,12.9285364 C10.1968373,13.3294156 10.387407,14.1645371 9.98851587,14.7937454 C9.93578288,14.8781959 9.87469615,14.958476 9.806822,15.0257236 C9.37138325,15.4615299 8.67593432,15.5511934 8.13450748,15.2045293" id="Fill-33" fill="#FFFFFF"></path>
                <path d="M11.8272787,10.0444478 C11.1965712,9.64513251 11.0086121,8.80948967 11.4043705,8.18236657 C11.8006511,7.55420086 12.6334147,7.3665331 13.2604674,7.76741229 C13.8885643,8.16829148 14.079134,9.00341303 13.6802428,9.63314263 C13.6285541,9.71811442 13.5664231,9.79735192 13.498549,9.86459954 C13.0631102,10.3014484 12.3676613,10.3900693 11.8272787,10.0444478" id="Fill-35" fill="#FFFFFF"></path>
                <path d="M35.0871218,10.0444478 C34.454848,9.64513251 34.2679331,8.80948967 34.6636915,8.18236657 C35.0610163,7.55420086 35.8922136,7.3665331 36.5203105,7.76741229 C37.1484074,8.16829148 37.3400213,9.00341303 36.9400859,9.63314263 C36.8889193,9.71811442 36.8273104,9.79735192 36.7573479,9.86459954 C36.3229533,10.3014484 35.6275044,10.3900693 35.0871218,10.0444478" id="Fill-37" fill="#FFFFFF"></path>
                <path d="M38.7788488,15.573088 C38.1481413,15.174294 37.9591379,14.3386511 38.3569848,13.7104854 C38.7532654,13.0838836 39.5839405,12.8967371 40.2130817,13.2976163 C40.8411786,13.6974529 41.0307041,14.5320532 40.6318129,15.1628254 C40.579602,15.2472759 40.5190374,15.3254708 40.4495969,15.3948036 C40.0152024,15.8300885 39.3202756,15.9181881 38.7788488,15.573088" id="Fill-39" fill="#FFFFFF"></path>
                <path d="M39.8862938,21.8404093 C39.2550642,21.4416153 39.0676271,20.6054511 39.4639077,19.9772854 C39.8607104,19.3501623 40.6919076,19.1640585 41.3194824,19.5644163 C41.9486236,19.9652955 42.1391933,20.7983319 41.7403021,21.4291041 C41.6880913,21.5130333 41.6264824,21.5922708 41.5575641,21.6616036 C41.1216032,22.0974098 40.4277206,22.1849881 39.8862938,21.8404093" id="Fill-41" fill="#FFFFFF"></path>
                <path d="M38.7788488,28.1072093 C38.1481413,27.7084153 37.9591379,26.8727724 38.3569848,26.245128 C38.7532654,25.6169623 39.5839405,25.4298159 40.2130817,25.8312164 C40.8411786,26.231053 41.0307041,27.0661745 40.6318129,27.6969467 C40.579602,27.7808759 40.5190374,27.8590708 40.4495969,27.9284036 C40.0152024,28.3642099 39.3202756,28.4517881 38.7788488,28.1072093" id="Fill-43" fill="#FFFFFF"></path>
                <path d="M35.4555218,33.6363186 C34.8248143,33.2380459 34.6378994,32.4024031 35.0336578,31.7742374 C35.4309826,31.1460716 36.2616578,30.9599678 36.8897547,31.3603257 C37.5178516,31.7612049 37.7078992,32.5952838 37.309008,33.2250134 C37.2578414,33.3099852 37.1957104,33.3892227 37.1273142,33.4564703 C36.6918754,33.8933192 35.9974707,33.9819401 35.4555218,33.6363186" id="Fill-45" fill="#FFFFFF"></path>
                <path d="M29.9177747,37.3225826 C29.286023,36.9237886 29.099108,36.0876245 29.4948665,35.4594588 C29.8921913,34.8333783 30.7228664,34.6462318 31.3509633,35.0465897 C31.9801045,35.4464263 32.1706742,36.2815478 31.7707388,36.91232 C31.71905,36.9962492 31.6579633,37.0744441 31.5885228,37.1437769 C31.1541283,37.5795832 30.4581573,37.6687254 29.9177747,37.3225826" id="Fill-47" fill="#FFFFFF"></path>
                <path d="M23.2715905,38.4288319 C22.6419273,38.0295166 22.4539681,37.1933525 22.8497266,36.5662294 C23.2460072,35.9380637 24.0777265,35.7509172 24.7058234,36.1523177 C25.3339203,36.5526756 25.5244901,37.3872759 25.1250768,38.0170055 C25.0739102,38.1019773 25.0117792,38.1806935 24.9439051,38.2484624 C24.5079442,38.6858325 23.8119732,38.7734108 23.2715905,38.4288319" id="Fill-49" fill="#FFFFFF"></path>
                <path d="M16.9963647,37.3225826 C16.3646131,36.9237886 16.1766539,36.0876245 16.5724124,35.4594588 C16.9707814,34.8333783 17.8025008,34.6462318 18.4295534,35.0465897 C19.0576503,35.4464263 19.2492643,36.2815478 18.8488068,36.91232 C18.7965959,36.9962492 18.7355092,37.0744441 18.6671129,37.1437769 C18.2316742,37.5795832 17.5367474,37.6687254 16.9963647,37.3225826" id="Fill-51" fill="#FFFFFF"></path>
                <path d="M63.9695547,16.0628487 C63.2093642,16.7504425 62.262781,17.2983281 60.813929,17.2983281 C57.9882761,17.2983281 56.9268289,14.6725433 56.9268289,12.2015845 C56.9268289,9.75825447 58.131856,7.34307463 60.828548,7.34307463 C62.0617691,7.34307463 62.9227265,7.65220514 63.6970139,8.12971533 L63.0804033,9.05658556 C62.4637928,8.62130061 61.7464153,8.39662059 60.900077,8.39662059 C58.8633305,8.39662059 58.189288,10.5308201 58.189288,12.2015845 C58.189288,13.8582738 58.7918016,16.2593785 60.943412,16.2593785 C61.8325633,16.2593785 62.6355666,15.8798726 63.3096091,15.2626542 L63.9695547,16.0628487 Z" id="Fill-53" fill="#FFFFFF"></path>
                <mask id="mask-2" fill="white">
                    <use xlink:href="#path-1"></use>
                </mask>
                <g id="Clip-56"></g>
                <polygon id="Fill-55" fill="#FFFFFF" mask="url(#mask-2)" points="66.7662305 17.1294793 67.9853546 17.1294793 67.9853546 7.58188186 66.7662305 7.58188186"></polygon>
                <path d="M71.4565428,7.58203825 L72.6615699,7.58203825 L72.6615699,13.9283364 C72.6615699,16.1047612 73.8947909,16.3018123 75.013148,16.3018123 C76.6483928,16.3018123 77.2086156,15.4025709 77.2086156,14.4199217 L77.2086156,7.58203825 L78.4131206,7.58203825 L78.4131206,14.3219174 C78.4131206,16.1469864 77.0076037,17.2985366 74.9703351,17.2985366 C73.1920325,17.2985366 71.4565428,16.8486553 71.4565428,13.8866325 L71.4565428,7.58203825 Z" id="Fill-57" fill="#FFFFFF" mask="url(#mask-2)"></path>
                <path d="M84.2216855,16.1045526 C85.5561956,16.1045526 87.563704,16.0764025 87.563704,12.3558891 C87.563704,8.66352586 85.5561956,8.60670423 84.2216855,8.60670423 L83.0887094,8.60670423 L83.0887094,16.1045526 L84.2216855,16.1045526 Z M81.8836823,7.58182973 L84.7239542,7.58182973 C85.3692807,7.58182973 88.825641,7.58182973 88.825641,12.3558891 C88.825641,17.1299484 85.3692807,17.1299484 84.7239542,17.1299484 L81.8836823,17.1299484 L81.8836823,7.58182973 Z" id="Fill-58" fill="#FFFFFF" mask="url(#mask-2)"></path>
                <path d="M95.5382896,10.9801801 C95.2083168,9.99700957 95.0224461,9.3375659 94.8642471,8.86005571 L94.8355311,8.86005571 C94.6924733,9.3375659 94.4914614,9.99700957 94.1473917,10.9801801 L93.3297693,13.3109095 C93.803322,13.2963131 94.3625005,13.2963131 94.8214342,13.2963131 C95.2803678,13.2963131 95.8682623,13.2963131 96.313099,13.3109095 L95.5382896,10.9801801 Z M97.575036,17.1299484 L96.5856398,14.2930374 L93.0138935,14.2930374 L91.9957813,17.1299484 L90.7338443,17.1299484 C91.8809174,13.9427243 93.1287574,10.4885948 94.2043016,7.56827594 L95.5529086,7.56827594 C96.5856398,10.4885948 97.7901449,13.9427243 98.8949271,17.1299484 L97.575036,17.1299484 Z" id="Fill-59" fill="#FFFFFF" mask="url(#mask-2)"></path>
                <path d="M103.886444,16.1045526 C105.220432,16.1045526 107.22794,16.0764025 107.22794,12.3558891 C107.22794,8.66352586 105.220432,8.60670423 103.886444,8.60670423 L102.752946,8.60670423 L102.752946,16.1045526 L103.886444,16.1045526 Z M101.547919,7.58182973 L104.388191,7.58182973 C105.033517,7.58182973 108.490399,7.58182973 108.490399,12.3558891 C108.490399,17.1299484 105.033517,17.1299484 104.388191,17.1299484 L101.547919,17.1299484 L101.547919,7.58182973 Z" id="Fill-60" fill="#FFFFFF" mask="url(#mask-2)"></path>
                <path d="M115.203048,10.9801801 C114.873075,9.99700957 114.686682,9.3375659 114.529006,8.86005571 L114.499767,8.86005571 C114.35671,9.3375659 114.155698,9.99700957 113.811628,10.9801801 L112.994006,13.3109095 C113.467558,13.2963131 114.026737,13.2963131 114.485671,13.2963131 C114.944604,13.2963131 115.533021,13.2963131 115.977335,13.3109095 L115.203048,10.9801801 Z M117.239272,17.1299484 L116.249876,14.2930374 L112.67813,14.2930374 L111.660018,17.1299484 L110.398081,17.1299484 C111.545154,13.9427243 112.793516,10.4885948 113.868538,7.56827594 L115.217145,7.56827594 C116.249876,10.4885948 117.454381,13.9427243 118.559163,17.1299484 L117.239272,17.1299484 Z" id="Fill-61" fill="#FFFFFF" mask="url(#mask-2)"></path>
                <path d="M121.212364,7.58203825 L122.603784,7.58203825 L126.060666,13.366897 C126.376542,13.8866325 126.748806,14.5883014 127.021869,15.2623414 L127.064681,15.2623414 C127.035965,14.1811666 127.021869,13.2965216 127.021869,12.3701727 L127.021869,7.58203825 L128.211755,7.58203825 L128.211755,17.1296357 L126.86367,17.1296357 L123.406787,11.358852 C123.076814,10.8114877 122.77608,10.1937479 122.388675,9.37895707 L122.345862,9.37895707 C122.388675,10.432503 122.388675,11.358852 122.388675,12.2716471 L122.402772,17.1296357 L121.212364,17.1296357 L121.212364,7.58203825 Z" id="Fill-62" fill="#FFFFFF" mask="url(#mask-2)"></path>
                <path d="M137.965269,12.2157117 C137.965269,10.5308722 137.291227,8.36852256 135.211667,8.36852256 C133.160302,8.36852256 132.472162,10.5308722 132.472162,12.2157117 C132.472162,13.8442508 133.10287,16.3016559 135.211667,16.3016559 C137.348659,16.3016559 137.965269,13.8442508 137.965269,12.2157117 M131.210225,12.2157117 C131.210225,9.74423152 132.443446,7.34312676 135.211667,7.34312676 C137.979888,7.34312676 139.241825,9.74423152 139.241825,12.2157117 C139.241825,14.6725955 138.137565,17.2983802 135.211667,17.2983802 C132.299344,17.2983802 131.210225,14.6725955 131.210225,12.2157117" id="Fill-63" fill="#FFFFFF" mask="url(#mask-2)"></path>
                <polygon id="Fill-64" fill="#FFFFFF" mask="url(#mask-2)" points="58.1817174 31.6841568 59.3961425 31.6841568 59.3961425 21.9859039 58.1817174 21.9859039"></polygon>
                <path d="M62.0524755,21.9860082 L63.4381523,21.9860082 L66.8809378,27.8620943 C67.1952473,28.3896493 67.5664667,29.1027868 67.8379633,29.7877741 L67.8807762,29.7877741 C67.8520602,28.6893964 67.8379633,27.7911976 67.8379633,26.8492097 L67.8379633,21.9860082 L69.0236724,21.9860082 L69.0236724,31.6842611 L67.6808085,31.6842611 L64.238023,25.82225 C63.9096166,25.2665449 63.609404,24.6389005 63.2240877,23.8115985 L63.1812748,23.8115985 C63.2240877,24.8813047 63.2240877,25.82225 63.2240877,26.7496415 L63.2381846,31.6842611 L62.0524755,31.6842611 L62.0524755,21.9860082 Z" id="Fill-65" fill="#FFFFFF" mask="url(#mask-2)"></path>
                <path d="M73.7938151,23.0413266 C72.3371315,23.069998 70.8658289,23.069998 70.7227711,23.069998 L70.7227711,21.9862167 L78.0505682,21.9862167 L78.0505682,23.069998 C77.9080325,23.069998 76.4649238,23.069998 74.9941432,23.0413266 L74.9941432,31.6844696 L73.7938151,31.6844696 L73.7938151,23.0413266 Z" id="Fill-66" fill="#FFFFFF" mask="url(#mask-2)"></path>
                <path d="M79.778644,21.9860082 L85.4492678,21.9860082 L85.4492678,23.0838646 C85.3067321,23.0838646 82.4784686,23.0838646 80.97845,23.0697895 C80.97845,23.2126255 80.97845,25.4088596 80.9643531,26.1225184 C82.3354108,26.1074008 84.792977,26.1074008 84.9355127,26.1074008 L84.9355127,27.1489568 C84.792977,27.1489568 82.3354108,27.1489568 80.9643531,27.1348817 C80.97845,28.6612462 80.97845,30.458165 80.97845,30.6004798 C82.5353785,30.5864047 85.4492678,30.5864047 85.5928477,30.5864047 L85.5928477,31.6842611 L79.778644,31.6842611 L79.778644,21.9860082 Z" id="Fill-67" fill="#FFFFFF" mask="url(#mask-2)"></path>
                <path d="M87.6918817,21.9860082 L88.8916878,21.9860082 C88.8916878,22.1283229 88.8775908,29.2310264 88.8629718,30.6150761 C90.4204224,30.5864047 92.8059375,30.5864047 92.9484732,30.5864047 L92.9484732,31.6842611 L87.6918817,31.6842611 L87.6918817,21.9860082 Z" id="Fill-68" fill="#FFFFFF" mask="url(#mask-2)"></path>
                <polygon id="Fill-69" fill="#FFFFFF" mask="url(#mask-2)" points="94.6766012 31.6841568 95.8905042 31.6841568 95.8905042 21.9859039 94.6766012 21.9859039"></polygon>
                <path d="M102.746889,31.7985299 C99.6189354,31.7985299 97.975859,29.7451318 97.975859,26.6924029 C97.975859,23.8971958 99.3756327,21.7437082 102.332857,21.7437082 C103.24707,21.7437082 104.189998,21.957441 105.018585,22.3849064 L104.518404,23.3696409 C103.932598,23.0271472 103.033005,22.8134145 102.190321,22.8134145 C100.032968,22.8134145 99.233097,24.5675868 99.233097,26.6924029 C99.233097,29.0601445 100.261651,30.7861666 102.818418,30.7861666 C103.275786,30.7861666 103.689818,30.7574951 104.04694,30.5865089 C104.04694,30.4718231 104.04694,29.0601445 104.075656,27.134986 C102.904044,27.1631362 102.604354,27.1631362 102.461296,27.1631362 L102.461296,26.107505 L105.246746,26.107505 L105.246746,31.3986933 C104.66094,31.6416188 103.703915,31.7985299 102.746889,31.7985299" id="Fill-70" fill="#FFFFFF" mask="url(#mask-2)"></path>
                <path d="M107.788998,21.9860082 L113.459622,21.9860082 L113.459622,23.0838646 C113.317087,23.0838646 110.488823,23.0838646 108.988805,23.0697895 C108.988805,23.2126255 108.988805,25.4088596 108.974708,26.1225184 C110.345765,26.1074008 112.802809,26.1074008 112.945345,26.1074008 L112.945345,27.1489568 C112.802809,27.1489568 110.345765,27.1489568 108.974708,27.1348817 C108.988805,28.6612462 108.988805,30.458165 108.988805,30.6004798 C110.545733,30.5864047 113.459622,30.5864047 113.60268,30.5864047 L113.60268,31.6842611 L107.788998,31.6842611 L107.788998,21.9860082 Z" id="Fill-71" fill="#FFFFFF" mask="url(#mask-2)"></path>
                <path d="M115.702184,21.9860082 L117.087339,21.9860082 L120.530124,27.8620943 C120.844434,28.3896493 121.216175,29.1027868 121.48715,29.7877741 L121.529963,29.7877741 C121.501247,28.6893964 121.48715,27.7911976 121.48715,26.8492097 L121.48715,21.9860082 L122.672859,21.9860082 L122.672859,31.6842611 L121.329995,31.6842611 L117.887732,25.82225 C117.559325,25.2665449 117.25859,24.6389005 116.873274,23.8115985 L116.830461,23.8115985 C116.873274,24.8813047 116.873274,25.82225 116.873274,26.7496415 L116.887893,31.6842611 L115.702184,31.6842611 L115.702184,21.9860082 Z" id="Fill-72" fill="#FFFFFF" mask="url(#mask-2)"></path>
                <path d="M127.443524,23.0413266 C125.986318,23.069998 124.515537,23.069998 124.371957,23.069998 L124.371957,21.9862167 L131.700277,21.9862167 L131.700277,23.069998 C131.557219,23.069998 130.114632,23.069998 128.64333,23.0413266 L128.64333,31.6844696 L127.443524,31.6844696 L127.443524,23.0413266 Z" id="Fill-73" fill="#FFFFFF" mask="url(#mask-2)"></path>
                <path d="M133.427883,21.9860082 L139.099029,21.9860082 L139.099029,23.0838646 C138.956493,23.0838646 136.128229,23.0838646 134.628211,23.0697895 C134.628211,23.2126255 134.628211,25.4088596 134.613592,26.1225184 C135.984649,26.1074008 138.442216,26.1074008 138.584751,26.1074008 L138.584751,27.1489568 C138.442216,27.1489568 135.984649,27.1489568 134.613592,27.1348817 C134.628211,28.6612462 134.628211,30.458165 134.628211,30.6004798 C136.185139,30.5864047 139.099029,30.5864047 139.242086,30.5864047 L139.242086,31.6842611 L133.427883,31.6842611 L133.427883,21.9860082 Z" id="Fill-74" fill="#FFFFFF" mask="url(#mask-2)"></path>
                <path d="M18.097179,22.3489889 C18.4067895,22.3489889 18.6976041,22.5382206 18.8098575,22.8447446 C18.9309867,23.1689928 19.0792656,23.4822937 19.2578269,23.7747426 C20.2691516,25.466359 22.0531974,26.4745519 24.0220697,26.4745519 C24.4439337,26.4745519 24.7838265,26.8128751 24.7838265,27.2309572 C24.7827823,27.6495606 24.4439337,27.9884052 24.0220697,27.9884052 C21.551973,27.9884052 19.2254561,26.6726456 17.9541212,24.555649 C17.7311807,24.1823987 17.5374783,23.7825621 17.3891994,23.3681291 C17.2424868,22.9771546 17.4434987,22.5413484 17.8361246,22.3964271 C17.9212283,22.3646279 18.0099868,22.3489889 18.097179,22.3489889" id="Fill-75" fill="#FFFFFF" mask="url(#mask-2)"></path>
                <path d="M18.4260553,20.9215149 C18.4260553,21.3453313 18.0825077,21.6883462 17.6590775,21.6883462 C17.234603,21.6883462 16.8915775,21.3453313 16.8915775,20.9215149 C16.8915775,20.4992625 17.234603,20.1557262 17.6590775,20.1557262 C18.0825077,20.1557262 18.4260553,20.4992625 18.4260553,20.9215149" id="Fill-76" fill="#FFFFFF" mask="url(#mask-2)"></path>
                <path d="M32.3231299,15.5333649 L31.9336368,14.9547227 L31.9221504,14.9547227 C31.5446657,14.4068371 31.1504736,13.9142092 30.7677678,13.4351351 L29.7627083,14.2363722 C30.1751743,14.7524585 30.6043477,15.2883543 30.9927967,15.874816 L31.2402763,16.238683 L31.24863,16.238683 C32.1539667,17.6138706 32.6290857,19.2257282 32.6290857,20.9308983 C32.6269973,25.6444869 28.7889754,29.4802075 24.0675454,29.4911548 C19.348726,29.4802075 15.5112262,25.6444869 15.5133147,20.9308983 C15.5133147,19.2257282 15.9915663,17.6138706 16.8974251,16.238683 L16.9099557,16.238683 L17.1506479,15.874816 C17.5432737,15.2857478 17.9740135,14.7472455 18.3927448,14.2269888 C19.458891,12.8908986 20.4676052,11.6283116 20.4676052,9.93930173 L20.4676052,9.38099014 C20.4879674,8.3050283 20.912964,7.90519171 22.0381085,7.90519171 L24.1824094,7.90519171 L26.1121235,7.90519171 C27.2377901,7.90519171 27.6633088,8.3050283 27.6805384,9.36587246 L27.6805384,9.93721653 C27.6805384,11.6283116 28.6897747,12.8908986 29.7569651,14.2285527 C29.7585315,14.2311592 29.7606199,14.2337657 29.7627083,14.2363722 L30.7588919,13.4231452 C29.7574872,12.1683777 28.9670145,11.1773877 28.9670145,9.93721653 L28.9664924,9.34502048 C28.9382985,7.58876301 27.9243632,6.62123143 26.1121235,6.62123143 L22.0381085,6.62123143 C19.7194233,6.62123143 19.2051461,8.10954105 19.1821733,9.35701037 L19.1816512,9.93930173 C19.1816512,11.1773877 18.3520203,12.2173798 17.3902958,13.4221026 C16.9705204,13.9439233 16.5883367,14.4250825 16.2223384,14.9547227 L16.2035425,14.9547227 L15.8224031,15.5333649 C14.7787076,17.1181149 14.2268386,18.9848879 14.2268386,20.9308983 C14.2247501,26.3461558 18.6381359,30.7626039 24.0644128,30.775115 L24.0675454,30.775115 L24.070156,30.775115 C29.4964328,30.7626039 33.9129513,26.3466771 33.9150397,20.9308983 C33.9150397,18.9812388 33.364737,17.1144658 32.3231299,15.5333649" id="Fill-77" fill="#FFFFFF" mask="url(#mask-2)"></path>
                <path d="M27.4668393,3.08327707 L20.8177836,3.08431967 C20.4977309,3.08431967 20.2366764,3.42003645 20.2366764,3.83238423 C20.2366764,4.2468172 20.4977309,4.58357657 20.8177836,4.58357657 L27.4663172,4.58305527 C27.7874141,4.58305527 28.0489906,4.2457746 28.0489906,3.83238423 C28.0489906,3.41951515 27.7874141,3.08327707 27.4668393,3.08327707" id="Fill-78" fill="#FFFFFF" mask="url(#mask-2)"></path>
                <path d="M27.4668393,-0.000208519736 L20.8177836,0.000834078943 C20.4977309,0.000834078943 20.2366764,0.336550854 20.2366764,0.748898631 C20.2366764,1.16333161 20.4977309,1.50061228 20.8177836,1.50061228 L27.4663172,1.49956968 C27.7874141,1.49956968 28.0489906,1.16281031 28.0489906,0.748898631 C28.0489906,0.336029554 27.7874141,-0.000208519736 27.4668393,-0.000208519736" id="Fill-79" fill="#FFFFFF" mask="url(#mask-2)"></path>
            </g>
        </g>
    </g>
</svg>