<?xml version="1.0" encoding="UTF-8" standalone="no"?>
<svg width="176px" height="75px" viewBox="0 0 176 75" version="1.1" xmlns="http://www.w3.org/2000/svg" xmlns:xlink="http://www.w3.org/1999/xlink">
    <!-- Generator: Sketch 41.2 (35397) - http://www.bohemiancoding.com/sketch -->
    <title>Artboard 3</title>
    <desc>Created with Sketch.</desc>
    <defs></defs>
    <g id="Page-1" stroke="none" stroke-width="1" fill="none" fill-rule="evenodd">
        <g id="Artboard-3" fill="#FFFFFF">
            <g id="Group-2" transform="translate(3.000000, 21.000000)">
                <polygon id="Fill-1-Copy" points="38.8619678 12.4577436 41.7814994 12.4577436 38.0256637 22.8473027 35.1586858 22.8473027 31.4298277 12.4577436 34.4824952 12.4577436 36.6484072 20.1215354"></polygon>
                <path d="M49.8197234,20.07505 C50.2457585,19.5104343 50.458776,18.7077909 50.458776,17.6671198 C50.458776,16.6257486 50.2457585,15.8248554 49.8197234,15.26304 C49.3933379,14.7019247 48.7826643,14.4211921 47.9880528,14.4211921 C47.1927406,14.4211921 46.5806655,14.7019247 46.1511268,15.26304 C45.7219385,15.8248554 45.5068188,16.6257486 45.5068188,17.6671198 C45.5068188,18.7077909 45.7219385,19.5104343 46.1511268,20.07505 C46.5806655,20.6393157 47.1927406,20.9221486 47.9880528,20.9221486 C48.7826643,20.9221486 49.3933379,20.6393157 49.8197234,20.07505 Z M51.9947446,21.5763748 C51.1170983,22.6594008 49.7846876,23.2005638 47.9975125,23.2005638 C46.2099869,23.2005638 44.8775762,22.6594008 43.9995796,21.5763748 C43.1219333,20.4936988 42.6829349,19.1908471 42.6829349,17.6671198 C42.6829349,16.1682454 43.1219333,14.8699443 43.9995796,13.7715164 C44.8775762,12.6730886 46.2099869,12.1238747 47.9975125,12.1238747 C49.7846876,12.1238747 51.1170983,12.6730886 51.9947446,13.7715164 C52.8727413,14.8699443 53.3113893,16.1682454 53.3113893,17.6671198 C53.3113893,19.1908471 52.8727413,20.4936988 51.9947446,21.5763748 Z" id="Fill-2-Copy"></path>
                <path d="M54.189456,14.4877348 L54.189456,12.5530596 L55.6392366,12.5530596 L55.6392366,9.65542242 L58.3303349,9.65542242 L58.3303349,12.5530596 L60.0194098,12.5530596 L60.0194098,14.4877348 L58.3303349,14.4877348 L58.3303349,19.9784738 C58.3303349,20.4044734 58.38429,20.6694542 58.4929009,20.7744664 C58.6004607,20.8798287 58.9318992,20.9316347 59.4847638,20.9316347 C59.5674483,20.9316347 59.6546873,20.9302346 59.7475322,20.9270842 C59.8400266,20.9239338 59.9300686,20.9190333 60.0194098,20.9123825 L60.0194098,22.9429688 L58.7311442,22.9905743 C57.4460318,23.0343294 56.5680351,22.8127536 56.0982053,22.3237467 C55.7923429,22.0122105 55.6392366,21.5319546 55.6392366,20.8840292 L55.6392366,14.4877348 L54.189456,14.4877348 Z" id="Fill-4-Copy"></path>
                <path d="M67.5470224,17.7953397 C67.3728946,17.9035023 67.1973653,17.9910125 67.0200843,18.0575202 C66.8424529,18.124378 66.5993045,18.1863352 66.2895882,18.2433919 L65.6712067,18.3578552 C65.0903135,18.459367 64.6733877,18.5832814 64.4207797,18.7295985 C63.9926425,18.9777773 63.7782235,19.3621221 63.7782235,19.8833327 C63.7782235,20.3467867 63.9092573,20.6824757 64.1709746,20.8886497 C64.4323415,21.0955238 64.7504664,21.1987858 65.1249989,21.1987858 C65.7188554,21.1987858 66.266815,21.0269158 66.7667756,20.6831758 C67.2674369,20.3404859 67.5274024,19.7149631 67.5470224,18.8062574 L67.5470224,17.7953397 Z M65.8838739,16.5274922 C66.3904913,16.4641348 66.7524109,16.3846756 66.9703335,16.2891144 C67.3616831,16.1242453 67.5568324,15.8662652 67.5568324,15.5176247 C67.5568324,15.0916251 67.4068793,14.7975909 67.1066226,14.635872 C66.8074171,14.4738032 66.3670173,14.3925937 65.7871752,14.3925937 C65.1351593,14.3925937 64.6744388,14.5515122 64.4036122,14.8693492 C64.210565,15.1042265 64.081283,15.4224136 64.0168172,15.8221601 L61.3933379,15.8221601 C61.4507966,14.9138044 61.7062075,14.1671675 62.1595705,13.5818994 C62.8816579,12.6672429 64.1208734,12.2093896 65.8779178,12.2093896 C67.0214857,12.2093896 68.0368226,12.4351659 68.9249796,12.8863684 C69.812436,13.3375709 70.2566896,14.18887 70.2566896,15.4409657 L70.2566896,20.2071204 C70.2566896,20.5375589 70.2629961,20.9380055 70.275609,21.4084602 C70.2948786,21.7637516 70.3488337,22.0056297 70.4378246,22.1326945 C70.5271659,22.2597593 70.6606522,22.3651216 70.838634,22.4470311 L70.838634,22.8474777 L67.8812637,22.8474777 C67.7985793,22.6378033 67.7407703,22.4414304 67.7088877,22.2566089 C67.6773555,22.0724875 67.6521297,21.8624631 67.6332104,21.6268856 C67.2558751,22.033983 66.8207307,22.3808734 66.3277772,22.6668567 C65.7395265,23.0039459 65.0738467,23.1716154 64.3314385,23.1716154 C63.3851221,23.1716154 62.6027731,22.9031342 61.9854426,22.3661717 C61.3684625,21.8295592 61.0590966,21.0685707 61.0590966,20.083206 C61.0590966,18.8062574 61.555904,17.8810997 62.548818,17.3091331 C63.093274,16.998647 63.8945423,16.7756711 64.9519222,16.6419555 L65.8838739,16.5274922 Z" id="Fill-6-Copy"></path>
                <path d="M72.6711104,22.8471627 L75.4280759,22.8471627 L75.4280759,12.4576035 L72.6711104,12.4576035 L72.6711104,22.8471627 Z M72.6711104,11.2184593 L75.4280759,11.2184593 L75.4280759,8.71111753 L72.6711104,8.71111753 L72.6711104,11.2184593 Z" id="Fill-8-Copy"></path>
                <path d="M86.4475295,13.0537229 C87.1279244,13.6155383 87.4688225,14.5483969 87.4688225,15.8508984 L87.4688225,22.8475127 L84.6831276,22.8475127 L84.6831276,16.5275272 C84.6831276,15.9814636 84.6106036,15.5617648 84.4648547,15.2694808 C84.1999842,14.7356687 83.6947683,14.4689376 82.9495572,14.4689376 C82.0340723,14.4689376 81.4058808,14.8595831 81.0642819,15.6415741 C80.8880519,16.0542721 80.7994114,16.5814335 80.7994114,17.2237582 L80.7994114,22.8475127 L78.0806348,22.8475127 L78.0806348,12.4768558 L80.7139241,12.4768558 L80.7139241,13.9925322 C81.0621798,13.45837 81.3915161,13.0740253 81.7015827,12.8387979 C82.2586516,12.4194491 82.9653233,12.2094247 83.8201964,12.2094247 C84.8905395,12.2094247 85.7667843,12.4908574 86.4475295,13.0537229" id="Fill-10-Copy"></path>
                <path d="M88.9284131,14.4877348 L88.9284131,12.5530596 L90.3792448,12.5530596 L90.3792448,9.65542242 L93.069292,9.65542242 L93.069292,12.5530596 L94.7580166,12.5530596 L94.7580166,14.4877348 L93.069292,14.4877348 L93.069292,19.9784738 C93.069292,20.4044734 93.1232471,20.6694542 93.2315077,20.7744664 C93.3397682,20.8798287 93.670506,20.9316347 94.223721,20.9316347 C94.3064054,20.9316347 94.3939949,20.9302346 94.486139,20.9270842 C94.5786334,20.9239338 94.6690257,20.9190333 94.7580166,20.9123825 L94.7580166,22.9429688 L93.4701013,22.9905743 C92.1853393,23.0343294 91.3069923,22.8127536 90.8368121,22.3237467 C90.5313001,22.0122105 90.3792448,21.5319546 90.3792448,20.8840292 L90.3792448,14.4877348 L88.9284131,14.4877348 Z" id="Fill-11-Copy"></path>
                <path d="M99.2129913,15.0146861 C98.8286488,15.4102322 98.5872522,15.9468446 98.4888017,16.6231233 L103.173436,16.6231233 C103.123685,15.9020394 102.882639,15.3545757 102.448546,14.9814323 C102.015854,14.6079388 101.477704,14.421017 100.836549,14.421017 C100.138286,14.421017 99.5973338,14.6191401 99.2129913,15.0146861 M103.280996,12.668013 C104.006236,12.9925008 104.605699,13.5049604 105.078331,14.2050419 C105.504016,14.8221637 105.780098,15.5383471 105.906577,16.3528919 C105.979452,16.8303474 106.009582,17.5178274 105.995918,18.4149818 L98.4218833,18.4149818 C98.4642766,19.4570531 98.826897,20.1879382 99.5097443,20.607287 C99.9249183,20.8680673 100.424529,20.9986325 101.008925,20.9986325 C101.628358,20.9986325 102.131472,20.8390139 102.518967,20.521527 C102.730233,20.3503571 102.915923,20.1119793 103.078139,19.8070939 L105.854374,19.8070939 C105.780799,20.4235156 105.445156,21.0493884 104.846044,21.6847124 C103.914443,22.6949299 102.610761,23.2003888 100.933598,23.2003888 C99.5496851,23.2003888 98.3286882,22.7740391 97.2706076,21.92239 C96.2128774,21.0696908 95.6838371,19.6831794 95.6838371,17.7621559 C95.6838371,15.9625964 96.1613748,14.5820358 97.1168005,13.621874 C98.0711752,12.6617123 99.3107411,12.1807563 100.835148,12.1807563 C101.740122,12.1807563 102.555405,12.3431752 103.280996,12.668013" id="Fill-12-Copy"></path>
                <polygon id="Fill-13-Copy" points="107.428707 22.8475127 110.147833 22.8475127 110.147833 8.79722755 107.428707 8.79722755"></polygon>
                <path d="M112.838231,22.8471627 L115.595897,22.8471627 L115.595897,12.4576035 L112.838231,12.4576035 L112.838231,22.8471627 Z M112.838231,11.2184593 L115.595897,11.2184593 L115.595897,8.71111753 L112.838231,8.71111753 L112.838231,11.2184593 Z" id="Fill-14-Copy"></path>
                <path d="M124.300187,19.8972994 C124.737083,19.4177435 124.955706,18.6532546 124.955706,17.6048826 C124.955706,16.6198679 124.747593,15.8700807 124.33312,15.3551707 C123.917596,14.8406109 123.362629,14.5833309 122.665767,14.5833309 C121.715597,14.5833309 121.060078,15.030683 120.699559,15.9271373 C120.508614,16.4038928 120.414018,16.9916112 120.414018,17.6906425 C120.414018,18.2944628 120.515271,18.8314253 120.717778,19.30118 C121.084953,20.1787321 121.743976,20.6176832 122.694497,20.6176832 C123.327944,20.6176832 123.86294,20.3772052 124.300187,19.8972994 M123.373841,12.4477324 C124.033915,12.7211142 124.56821,13.2230726 124.974625,13.9539577 L124.974625,12.4578836 L127.627184,12.4578836 L127.627184,22.3139806 C127.627184,23.6549867 127.401554,24.6645042 126.949592,25.3449833 C126.1739,26.5141194 124.68523,27.0993875 122.484282,27.0993875 C121.155025,27.0993875 120.070667,26.8382571 119.23086,26.3170465 C118.391402,25.7958358 117.927178,25.0180453 117.838538,23.9819247 L120.795557,23.9819247 C120.871935,24.2997617 120.995962,24.5283383 121.167637,24.6683546 C121.460186,24.9161834 121.95349,25.0400979 122.646848,25.0400979 C123.625748,25.0400979 124.280917,24.7128098 124.612005,24.0578836 C124.828176,23.6392348 124.936436,22.9335527 124.936436,21.9418873 L124.936436,21.2750597 C124.67542,21.7196114 124.395834,22.0539003 124.096629,22.2754761 C123.556027,22.6892243 122.853209,22.8950482 121.988175,22.8950482 C120.652611,22.8950482 119.585422,22.4263437 118.787307,21.4896347 C117.989191,20.5518755 117.589784,19.2822778 117.589784,17.6811914 C117.589784,16.1368117 117.974126,14.8392107 118.743161,13.7869882 C119.511146,12.7358159 120.600759,12.2093546 122.010949,12.2093546 C122.531931,12.2093546 122.985994,12.2888139 123.373841,12.4477324" id="Fill-15-Copy"></path>
                <path d="M132.874038,15.0146861 C132.489345,15.4102322 132.248299,15.9468446 132.149147,16.6231233 L136.834482,16.6231233 C136.784381,15.9020394 136.542985,15.3545757 136.109942,14.9814323 C135.676199,14.6079388 135.13875,14.421017 134.497245,14.421017 C133.799333,14.421017 133.25803,14.6191401 132.874038,15.0146861 M136.941341,12.668013 C137.666932,12.9925008 138.266044,13.5049604 138.738677,14.2050419 C139.164712,14.8221637 139.441144,15.5383471 139.567273,16.3528919 C139.640848,16.8303474 139.669928,17.5178274 139.657315,18.4149818 L132.082229,18.4149818 C132.124973,19.4570531 132.487243,20.1879382 133.17044,20.607287 C133.585264,20.8680673 134.084874,20.9986325 134.669621,20.9986325 C135.289054,20.9986325 135.791817,20.8390139 136.179663,20.521527 C136.390229,20.3503571 136.576969,20.1119793 136.738835,19.8070939 L139.51542,19.8070939 C139.441845,20.4235156 139.105852,21.0493884 138.507441,21.6847124 C137.575489,22.6949299 136.271457,23.2003888 134.594645,23.2003888 C133.210381,23.2003888 131.989384,22.7740391 130.931304,21.92239 C129.873573,21.0696908 129.344533,19.6831794 129.344533,17.7621559 C129.344533,15.9625964 129.82172,14.5820358 130.777146,13.621874 C131.731871,12.6617123 132.971787,12.1807563 134.496545,12.1807563 C135.401168,12.1807563 136.216451,12.3431752 136.941341,12.668013" id="Fill-16-Copy"></path>
                <path d="M149.418529,13.0537229 C150.098924,13.6155383 150.439471,14.5483969 150.439471,15.8508984 L150.439471,22.8475127 L147.654127,22.8475127 L147.654127,16.5275272 C147.654127,15.9814636 147.581252,15.5617648 147.435504,15.2694808 C147.170983,14.7356687 146.665767,14.4689376 145.920206,14.4689376 C145.004371,14.4689376 144.37688,14.8595831 144.035631,15.6415741 C143.858701,16.0542721 143.770411,16.5814335 143.770411,17.2237582 L143.770411,22.8475127 L141.050933,22.8475127 L141.050933,12.4768558 L143.684923,12.4768558 L143.684923,13.9925322 C144.033179,13.45837 144.362515,13.0740253 144.672582,12.8387979 C145.230001,12.4194491 145.936322,12.2094247 146.791196,12.2094247 C147.861539,12.2094247 148.737083,12.4908574 149.418529,13.0537229" id="Fill-17-Copy"></path>
                <path d="M151.899412,14.4877348 L151.899412,12.5530596 L153.349543,12.5530596 L153.349543,9.65542242 L156.040291,9.65542242 L156.040291,12.5530596 L157.729016,12.5530596 L157.729016,14.4877348 L156.040291,14.4877348 L156.040291,19.9784738 C156.040291,20.4044734 156.094246,20.6694542 156.202857,20.7744664 C156.310767,20.8798287 156.641855,20.9316347 157.19472,20.9316347 C157.277405,20.9316347 157.364994,20.9302346 157.457488,20.9270842 C157.549282,20.9239338 157.640025,20.9190333 157.729016,20.9123825 L157.729016,22.9429688 L156.4404,22.9905743 C155.155988,23.0343294 154.277991,22.8127536 153.808162,22.3237467 C153.502299,22.0122105 153.349543,21.5319546 153.349543,20.8840292 L153.349543,14.4877348 L151.899412,14.4877348 Z" id="Fill-18-Copy"></path>
                <path d="M162.18399,15.0146861 C161.799298,15.4102322 161.557901,15.9468446 161.459801,16.6231233 L166.144435,16.6231233 C166.094684,15.9020394 165.853288,15.3545757 165.419895,14.9814323 C164.986152,14.6079388 164.449054,14.421017 163.807198,14.421017 C163.109636,14.421017 162.568333,14.6191401 162.18399,15.0146861 M166.251294,12.668013 C166.977236,12.9925008 167.576698,13.5049604 168.04863,14.2050419 C168.475015,14.8221637 168.751097,15.5383471 168.877576,16.3528919 C168.950801,16.8303474 168.980581,17.5178274 168.967268,18.4149818 L161.392882,18.4149818 C161.434925,19.4570531 161.797195,20.1879382 162.480393,20.607287 C162.895217,20.8680673 163.395177,20.9986325 163.979224,20.9986325 C164.599707,20.9986325 165.102471,20.8390139 165.489616,20.521527 C165.700532,20.3503571 165.887272,20.1119793 166.048787,19.8070939 L168.825723,19.8070939 C168.751798,20.4235156 168.415805,21.0493884 167.817394,21.6847124 C166.885442,22.6949299 165.58141,23.2003888 163.904598,23.2003888 C162.521035,23.2003888 161.300038,22.7740391 160.241607,21.92239 C159.183877,21.0696908 158.654836,19.6831794 158.654836,17.7621559 C158.654836,15.9625964 159.132374,14.5820358 160.087449,13.621874 C161.042174,12.6617123 162.28174,12.1807563 163.806497,12.1807563 C164.711472,12.1807563 165.526404,12.3431752 166.251294,12.668013" id="Fill-19-Copy"></path>
                <path d="M14.0488574,32.4437395 L14.0488574,18.4788643 C13.4238191,18.7581968 12.6877173,18.9181654 11.8380997,18.9181654 L10.7369251,18.9181654 L4.43784215,25.2125979 L16.8275451,37.5910885 L16.8275451,33.3342431 L14.9412187,33.3342431 C14.4657832,33.3342431 14.0488574,32.9155944 14.0488574,32.4437395" id="Fill-20-Copy"></path>
                <path d="M19.4439822,28.2070214 C18.4324992,28.2070214 17.6130123,27.3907264 17.6130123,26.3777085 C17.6130123,25.3699412 18.4324992,24.5508459 19.4439822,24.5508459 C20.4551148,24.5508459 21.273901,25.3699412 21.273901,26.3777085 C21.273901,27.3907264 20.4551148,28.2070214 19.4439822,28.2070214 L19.4439822,28.2070214 Z M23.5697957,22.0806084 C21.9255665,23.2864988 19.4856747,23.4436671 17.4585045,21.4228819 L15.8314429,19.7965926 L15.8314429,31.5527108 L17.7181196,31.5527108 C18.1928545,31.5527108 18.6087292,31.9685592 18.6087292,32.4439145 L18.6087292,34.9582571 C19.3725092,34.9715587 20.6036665,34.8906993 21.3516804,34.3449857 C22.4136149,33.573846 23.3827046,34.8878989 22.6133189,35.5984816 C21.4651963,36.6594551 19.6121539,36.7735684 18.6087292,36.7501156 L18.6087292,39.3677203 L20.3559635,41.1133734 L31.4892834,29.9925792 L23.5697957,22.0806084 Z" id="Fill-21-Copy"></path>
                <path d="M17.9811332,5.5934797 C21.9832704,5.60678125 22.1913829,0.124443229 17.9783304,0.118842577 L8.7793359,0.116392292 C9.24285927,0.479384536 9.70603229,0.903283868 10.2021389,1.39544114 L14.3962722,5.58577881 L17.9811332,5.5934797 Z" id="Fill-22-Copy"></path>
                <path d="M22.5942944,16.294015 L8.94050049,2.65432765 C7.22619976,0.938777999 6.10925908,0.276150884 3.77657683,0.156786993 C3.51626098,0.146985852 3.23982868,0.139284956 2.94798063,0.139284956 L7.00715602e-05,0.139284956 L7.00715602e-05,7.04523866 L5.59002882,7.04523866 L8.43108024,9.88826952 L11.8383099,9.8854692 C16.5628848,9.8854692 17.7835314,14.5557127 15.7300843,17.1796181 L18.7175853,20.1651155 C21.5495275,22.9920445 25.5737372,19.2732117 22.5942944,16.294015" id="Fill-23-Copy"></path>
                <path d="M11.8382398,17.1390133 C15.8522892,17.1390133 16.0642556,11.6640262 11.8382398,11.6640262 L0,11.6640262 L0,17.1390133 L11.8382398,17.1390133 Z" id="Fill-24-Copy"></path>
            </g>
        </g>
    </g>
</svg>