<?xml version="1.0" encoding="utf-8"?>
<!-- Generator: Adobe Illustrator 22.0.1, SVG Export Plug-In . SVG Version: 6.00 Build 0)  -->
<svg version="1.1" id="Capa_1" xmlns="http://www.w3.org/2000/svg" xmlns:xlink="http://www.w3.org/1999/xlink" x="0px" y="0px"
	 viewBox="0 0 143 75" style="enable-background:new 0 0 143 75;" xml:space="preserve">
<style type="text/css">
	.st0{fill:#FFFFFF;}
</style>
<title>Artboard 3 Copy 20</title>
<desc>Created with Sketch.</desc>
<g>
	<g id="logo-fci">
		<g id="logo-ci" transform="translate(52.000000, 35.000000)">
			<path id="Ciudadanía-Inteligen" class="st0" d="M4.9-18.4c1.3,0,2.4,0.3,3.3,1c0.9,0.7,1.4,1.6,1.6,2.8H7.2
				c-0.2-0.5-0.5-0.8-0.9-1.2c-0.4-0.3-0.9-0.4-1.4-0.4c-0.7,0-1.3,0.3-1.8,0.8c-0.5,0.5-0.7,1.2-0.7,2.1s0.2,1.6,0.7,2.1
				c0.5,0.5,1,0.8,1.8,0.8c0.5,0,1-0.1,1.4-0.4C6.7-11,7-11.4,7.2-11.9h2.6C9.5-10.7,9-9.8,8.2-9.1c-0.9,0.7-1.9,1-3.3,1
				c-1,0-1.8-0.2-2.6-0.7s-1.4-1-1.8-1.8C0.2-11.4,0-12.3,0-13.3s0.2-1.9,0.6-2.7c0.4-0.8,1-1.4,1.8-1.8S4-18.4,4.9-18.4z
				 M11.1-18.4c0-0.3,0.1-0.7,0.4-0.9c0.3-0.2,0.6-0.3,1.1-0.3c0.5,0,0.8,0.1,1.1,0.3c0.3,0.2,0.4,0.5,0.4,0.9
				c0,0.3-0.1,0.7-0.4,0.9c-0.3,0.2-0.6,0.3-1.1,0.3c-0.5,0-0.8-0.1-1.1-0.3C11.3-17.8,11.1-18,11.1-18.4z M13.9-16.2v8.1h-2.4v-8.1
				H13.9z M23.8-16.2v8.1h-2.4v-1.4c-0.2,0.5-0.5,0.8-1,1.2c-0.5,0.3-1,0.4-1.6,0.4c-0.9,0-1.7-0.3-2.2-0.9
				c-0.5-0.6-0.8-1.5-0.8-2.5v-4.7h2.4v4.4c0,0.5,0.1,0.9,0.4,1.3c0.3,0.3,0.7,0.5,1.2,0.5c0.5,0,0.9-0.1,1.2-0.5
				c0.3-0.3,0.5-0.7,0.5-1.4V-16h2.4V-16.2z M28.7-16.3c0.6,0,1.2,0.1,1.6,0.4c0.5,0.3,0.7,0.7,0.9,1.2v-4.1h2.4v10.6h-2.4v-1.4
				c-0.2,0.5-0.5,0.9-0.9,1.2C29.8-8.1,29.3-8,28.7-8c-0.7,0-1.2-0.1-1.8-0.5c-0.5-0.3-0.9-0.8-1.2-1.4c-0.3-0.6-0.5-1.4-0.5-2.2
				c0-0.8,0.1-1.6,0.5-2.2c0.3-0.6,0.7-1.1,1.2-1.4C27.4-16.1,28-16.3,28.7-16.3z M29.5-14.1c-0.5,0-0.9,0.2-1.3,0.5
				s-0.5,0.8-0.5,1.4c0,0.6,0.1,1.1,0.5,1.4s0.7,0.5,1.3,0.5c0.5,0,0.9-0.2,1.3-0.5s0.5-0.8,0.5-1.4c0-0.6-0.1-1.1-0.5-1.4
				C30.4-14,30-14.1,29.5-14.1z M38.7-16.3c0.6,0,1.2,0.1,1.6,0.4c0.5,0.3,0.7,0.7,1,1.2v-1.5h2.4v8.1h-2.4v-1.4
				c-0.2,0.5-0.5,0.9-1,1.2C39.8-8.1,39.3-8,38.7-8c-0.7,0-1.2-0.1-1.8-0.5c-0.5-0.3-0.9-0.8-1.2-1.4c-0.3-0.6-0.5-1.4-0.5-2.2
				c0-0.8,0.1-1.6,0.5-2.2s0.7-1.1,1.2-1.4C37.4-16.1,38-16.3,38.7-16.3z M39.5-14.1c-0.5,0-0.9,0.2-1.3,0.5s-0.5,0.8-0.5,1.4
				c0,0.6,0.1,1.1,0.5,1.4s0.7,0.5,1.3,0.5s0.9-0.2,1.3-0.5s0.5-0.8,0.5-1.4c0-0.6-0.1-1.1-0.5-1.4C40.4-14,40-14.1,39.5-14.1z
				 M48.6-16.3c0.6,0,1.2,0.1,1.6,0.4c0.5,0.3,0.7,0.7,0.9,1.2v-4.1h2.4v10.6h-2.4v-1.4c-0.2,0.5-0.5,0.9-0.9,1.2
				C49.7-8.1,49.3-8,48.6-8c-0.7,0-1.2-0.1-1.8-0.5c-0.5-0.3-0.9-0.8-1.2-1.4c-0.3-0.6-0.5-1.4-0.5-2.2c0-0.8,0.1-1.6,0.5-2.2
				s0.7-1.1,1.2-1.4C47.4-16.1,48-16.3,48.6-16.3z M49.5-14.1c-0.5,0-0.9,0.2-1.3,0.5c-0.3,0.3-0.5,0.8-0.5,1.4
				c0,0.6,0.1,1.1,0.5,1.4c0.3,0.3,0.7,0.5,1.3,0.5c0.5,0,0.9-0.2,1.3-0.5s0.5-0.8,0.5-1.4c0-0.6-0.1-1.1-0.5-1.4
				C50.3-14,49.9-14.1,49.5-14.1z M58.6-16.3c0.6,0,1.2,0.1,1.6,0.4c0.5,0.3,0.7,0.7,1,1.2v-1.5h2.4v8.1h-2.4v-1.4
				c-0.2,0.5-0.5,0.9-1,1.2C59.7-8.1,59.2-8,58.6-8c-0.7,0-1.2-0.1-1.8-0.5c-0.5-0.3-0.9-0.8-1.2-1.4c-0.3-0.6-0.5-1.4-0.5-2.2
				c0-0.8,0.1-1.6,0.5-2.2c0.3-0.6,0.7-1.1,1.2-1.4C57.3-16.1,57.9-16.3,58.6-16.3z M59.4-14.1c-0.5,0-0.9,0.2-1.3,0.5
				c-0.3,0.3-0.5,0.8-0.5,1.4c0,0.6,0.1,1.1,0.5,1.4c0.3,0.3,0.7,0.5,1.3,0.5c0.5,0,0.9-0.2,1.3-0.5s0.5-0.8,0.5-1.4
				c0-0.6-0.1-1.1-0.5-1.4C60.3-14,59.9-14.1,59.4-14.1z M70.6-16.3c0.9,0,1.7,0.3,2.2,0.9c0.5,0.6,0.8,1.5,0.8,2.5v4.7h-2.4v-4.3
				c0-0.5-0.1-0.9-0.4-1.2c-0.3-0.3-0.7-0.5-1.2-0.5c-0.5,0-0.9,0.1-1.2,0.5c-0.3,0.3-0.5,0.7-0.5,1.4v4.3h-2.4v-8.1h2.4v1.5
				c0.2-0.5,0.5-0.9,1-1.2C69.5-16.1,70-16.3,70.6-16.3z M78.2-16.2v8.1h-2.4v-8.1H78.2z M79-18.2l-3.5,1.5v-1.7l3.5-1.7V-18.2z
				 M83.4-16.3c0.6,0,1.2,0.1,1.6,0.4c0.5,0.3,0.7,0.7,1,1.2v-1.5h2.4v8.1H86v-1.4c-0.2,0.5-0.5,0.9-1,1.2C84.5-8.1,84-8,83.4-8
				c-0.7,0-1.2-0.1-1.8-0.5c-0.5-0.3-0.9-0.8-1.2-1.4c-0.3-0.6-0.5-1.4-0.5-2.2c0-0.8,0.1-1.6,0.5-2.2s0.7-1.1,1.2-1.4
				C82.1-16.1,82.7-16.3,83.4-16.3z M84.2-14.1c-0.5,0-0.9,0.2-1.3,0.5s-0.5,0.8-0.5,1.4c0,0.6,0.1,1.1,0.5,1.4s0.7,0.5,1.3,0.5
				c0.5,0,0.9-0.2,1.3-0.5s0.5-0.8,0.5-1.4c0-0.6-0.1-1.1-0.5-1.4C85.1-14,84.7-14.1,84.2-14.1z M2.7-3.1V7.1H0.3V-3.1
				C0.2-3.1,2.7-3.1,2.7-3.1z M9.7-1c0.9,0,1.7,0.3,2.2,0.9c0.5,0.6,0.8,1.5,0.8,2.5v4.7h-2.4V2.6c0-0.5-0.1-0.9-0.4-1.2
				S9.2,1,8.7,1C8.2,1,7.8,1.1,7.5,1.4C7.2,1.8,7,2.2,7,2.8v4.3H4.6v-8H7v1.5c0.2-0.5,0.5-0.9,1-1.2C8.5-0.9,9.1-1,9.7-1z M19.1,5
				v2.1H18c-0.9,0-1.7-0.2-2.2-0.7C15.3,5.9,15,5.2,15,4.1v-3h-1.1v-2H15v-2h2.4v2h1.6v2.1h-1.6v3c0,0.3,0.1,0.5,0.2,0.7
				C17.8,4.9,18,5,18.3,5L19.1,5L19.1,5z M28.4,2.9c0,0.2,0,0.4-0.1,0.7h-5.6c0,0.6,0.2,1,0.5,1.3c0.3,0.3,0.6,0.4,1.1,0.4
				c0.3,0,0.7-0.1,0.9-0.3c0.2-0.2,0.4-0.4,0.5-0.7h2.6c-0.1,0.5-0.3,1.1-0.7,1.5c-0.3,0.5-0.8,0.8-1.4,1c-0.5,0.3-1.2,0.4-1.8,0.4
				c-0.8,0-1.5-0.1-2.1-0.5c-0.6-0.3-1.1-0.8-1.4-1.4c-0.3-0.6-0.5-1.4-0.5-2.2s0.2-1.6,0.5-2.2c0.3-0.6,0.8-1.1,1.4-1.4
				s1.4-0.5,2.1-0.5c0.8,0,1.5,0.1,2.1,0.5s1.1,0.8,1.4,1.4C28.2,1.4,28.4,2.1,28.4,2.9z M25.9,2.4c0-0.5-0.1-0.9-0.4-1.2
				s-0.7-0.4-1.1-0.4c-0.5,0-0.8,0.1-1.2,0.4S22.7,2,22.7,2.4H25.9L25.9,2.4z M32.3-3.6V7.1h-2.5V-3.6H32.3z M33.9-3.2
				c0-0.3,0.1-0.7,0.4-0.9c0.3-0.2,0.6-0.3,1.1-0.3s0.8,0.1,1.1,0.3c0.3,0.2,0.4,0.5,0.4,0.9c0,0.3-0.1,0.7-0.4,0.9S35.9-2,35.4-2
				s-0.8-0.1-1.1-0.3C34.1-2.6,33.9-2.8,33.9-3.2z M36.6-0.9v8.1h-2.4v-8.1H36.6z M41.6-1c0.6,0,1.2,0.1,1.6,0.4
				c0.5,0.3,0.7,0.7,1,1.2v-1.5h2.4v8c0,0.7-0.1,1.4-0.5,2c-0.3,0.6-0.7,1.1-1.4,1.4c-0.6,0.3-1.4,0.5-2.2,0.5
				c-1.2,0-2.2-0.3-2.9-0.9c-0.7-0.5-1.2-1.4-1.3-2.3h2.4c0.1,0.3,0.3,0.5,0.5,0.7c0.3,0.2,0.6,0.3,1.1,0.3c0.5,0,0.9-0.1,1.2-0.5
				C44,8.1,44.1,7.7,44.1,7V5.6c-0.2,0.5-0.5,0.9-1,1.2c-0.5,0.3-0.9,0.4-1.6,0.4c-0.7,0-1.2-0.1-1.8-0.5c-0.5-0.3-0.9-0.8-1.2-1.4
				c-0.3-0.6-0.5-1.4-0.5-2.2s0.1-1.6,0.5-2.2c0.3-0.6,0.7-1.1,1.2-1.4C40.4-0.9,41-1,41.6-1z M42.4,1.1c-0.5,0-0.9,0.2-1.3,0.5
				c-0.3,0.3-0.5,0.8-0.5,1.4s0.1,1.1,0.5,1.4C41.5,4.8,41.9,5,42.4,5s0.9-0.2,1.3-0.5c0.3-0.3,0.5-0.8,0.5-1.4S44,2,43.7,1.6
				S42.9,1.1,42.4,1.1z M56.2,2.9c0,0.2,0,0.4-0.1,0.7h-5.6c0,0.6,0.2,1,0.5,1.3c0.3,0.3,0.6,0.4,1.1,0.4c0.3,0,0.7-0.1,0.9-0.3
				c0.2-0.2,0.4-0.4,0.5-0.7H56c-0.1,0.5-0.3,1.1-0.7,1.5c-0.3,0.5-0.8,0.8-1.4,1c-0.5,0.3-1.2,0.4-1.8,0.4c-0.8,0-1.5-0.1-2.1-0.5
				c-0.6-0.3-1.1-0.8-1.4-1.4s-0.5-1.4-0.5-2.2s0.2-1.6,0.5-2.2s0.8-1.1,1.4-1.4c0.6-0.3,1.4-0.5,2.1-0.5c0.8,0,1.5,0.1,2.1,0.5
				c0.6,0.3,1.1,0.8,1.4,1.4C56,1.4,56.2,2.1,56.2,2.9z M53.7,2.4c0-0.5-0.1-0.9-0.4-1.2C53,1,52.6,0.8,52.2,0.8
				c-0.5,0-0.8,0.1-1.2,0.4c-0.3,0.3-0.5,0.7-0.5,1.2L53.7,2.4L53.7,2.4z M62.7-1c0.9,0,1.7,0.3,2.2,0.9c0.5,0.6,0.8,1.5,0.8,2.5
				v4.7h-2.4V2.6c0-0.5-0.1-0.9-0.4-1.2C62.6,1.1,62.2,1,61.7,1s-0.9,0.1-1.2,0.5C60.2,1.8,60,2.2,60,2.8v4.3h-2.4v-8H60v1.5
				c0.2-0.5,0.5-0.9,1-1.2C61.6-0.9,62.1-1,62.7-1z M72.2,5v2.1H71c-0.9,0-1.7-0.2-2.2-0.7C68.3,5.9,68,5.2,68,4.1v-3H67v-2H68v-2
				h2.4v2h1.6v2.1h-1.6v3c0,0.3,0.1,0.5,0.2,0.7C70.8,4.9,71,5,71.4,5L72.2,5L72.2,5z M81.4,2.9c0,0.2,0,0.4-0.1,0.7h-5.6
				c0,0.6,0.2,1,0.5,1.3c0.3,0.3,0.6,0.4,1.1,0.4c0.3,0,0.7-0.1,0.9-0.3c0.2-0.2,0.4-0.4,0.5-0.7h2.6c-0.1,0.5-0.3,1.1-0.7,1.5
				c-0.3,0.5-0.8,0.8-1.4,1c-0.5,0.3-1.2,0.4-1.8,0.4c-0.8,0-1.5-0.1-2.1-0.5c-0.6-0.3-1.1-0.8-1.4-1.4s-0.5-1.4-0.5-2.2
				s0.2-1.6,0.5-2.2s0.8-1.1,1.4-1.4c0.6-0.3,1.4-0.5,2.1-0.5c0.8,0,1.5,0.1,2.1,0.5c0.6,0.3,1.1,0.8,1.4,1.4
				C81.2,1.4,81.4,2.1,81.4,2.9z M78.9,2.4c0-0.5-0.1-0.9-0.4-1.2c-0.3-0.3-0.7-0.4-1.1-0.4S76.6,1,76.2,1.2
				c-0.3,0.3-0.5,0.7-0.5,1.2L78.9,2.4L78.9,2.4z"/>
		</g>
	</g>
	<g>
		<path class="st0" d="M13.6,16.6c0.1-0.1,0.3-0.3,0.3-0.4c0.7-1.2,0.4-2.8-0.8-3.5c-0.4-0.3-0.9-0.4-1.4-0.4l0,0
			c-0.9,0-1.7,0.5-2.2,1.2c-0.3,0.6-0.5,1.3-0.3,1.9c0.1,0.6,0.5,1.2,1.2,1.6c0.4,0.3,0.9,0.4,1.4,0.4C12.4,17.3,13,17,13.6,16.6z"
			/>
		<path class="st0" d="M6.9,21.8c-0.4-0.3-0.9-0.4-1.4-0.4c-0.9,0-1.7,0.5-2.2,1.2c-0.3,0.6-0.5,1.3-0.3,1.9C3.2,25,3.6,25.6,4.2,26
			c0.4,0.3,0.9,0.4,1.4,0.4c0.7,0,1.4-0.3,1.8-0.7c0.1-0.1,0.3-0.3,0.3-0.4C8.4,24.1,8.1,22.5,6.9,21.8z"/>
		<path class="st0" d="M18.1,18.5c-0.5-0.3-1-0.4-1.5-0.3c-0.5,0.1-1,0.4-1.2,0.9c-0.3,0.5-0.4,1-0.3,1.5c0.1,0.5,0.4,1,0.9,1.3
			c0.3,0.2,0.7,0.3,1.1,0.3c0.5,0,1-0.2,1.4-0.6c0.1-0.1,0.2-0.2,0.3-0.3C19.3,20.3,19,19.1,18.1,18.5z"/>
		<path class="st0" d="M13.6,25c-0.5-0.3-1-0.4-1.5-0.3c-0.5,0.1-1,0.4-1.2,0.9c-0.3,0.5-0.4,1-0.3,1.5c0.1,0.5,0.4,1,0.9,1.3
			c0.3,0.2,0.7,0.3,1.1,0.3c0.5,0,1-0.2,1.4-0.6c0.1-0.1,0.2-0.2,0.3-0.3C14.7,26.9,14.5,25.6,13.6,25z"/>
		<path class="st0" d="M12.1,33.2c-0.5-0.3-1-0.4-1.5-0.3c-0.5,0.1-1,0.4-1.2,0.9c-0.3,0.5-0.4,1-0.3,1.5c0.1,0.5,0.4,1,0.9,1.2
			c0.3,0.2,0.7,0.3,1.1,0.3c0.5,0,1-0.2,1.4-0.6c0.1-0.1,0.2-0.2,0.3-0.3C13.3,35,13,33.7,12.1,33.2z"/>
		<path class="st0" d="M13.6,40.8c-0.5-0.3-1-0.4-1.5-0.3c-0.5,0.1-1,0.4-1.2,0.9c-0.3,0.5-0.4,1-0.3,1.5c0.1,0.5,0.4,1,0.9,1.2
			c0.3,0.2,0.7,0.3,1.1,0.3c0.5,0,1-0.2,1.4-0.6c0.1-0.1,0.2-0.2,0.3-0.3C14.7,42.7,14.5,41.4,13.6,40.8z"/>
		<path class="st0" d="M6.9,43.3c-0.4-0.3-0.9-0.4-1.4-0.4c-0.9,0-1.7,0.5-2.2,1.2c-0.3,0.6-0.5,1.3-0.3,1.9
			c0.1,0.7,0.5,1.2,1.2,1.6c0.4,0.3,0.9,0.4,1.4,0.4c0.7,0,1.4-0.3,1.8-0.7c0.1-0.1,0.3-0.3,0.3-0.4C8.4,45.7,8.1,44.1,6.9,43.3z"/>
		<path class="st0" d="M5.5,36.6c0.1-0.1,0.3-0.3,0.3-0.4c0.7-1.2,0.4-2.8-0.8-3.5c-0.4-0.3-0.9-0.4-1.4-0.4l0,0
			c-0.9,0-1.7,0.5-2.2,1.2c-0.3,0.6-0.5,1.3-0.3,1.9c0.1,0.7,0.5,1.2,1.2,1.6c0.4,0.3,0.9,0.4,1.4,0.4C4.4,37.4,5.1,37.1,5.5,36.6z"
			/>
		<path class="st0" d="M43.5,58.5c-0.4-0.3-0.9-0.4-1.4-0.4c-0.9,0-1.7,0.5-2.2,1.2l0,0c-0.3,0.6-0.5,1.3-0.3,1.9
			c0.1,0.7,0.5,1.2,1.2,1.6c0.4,0.3,0.9,0.4,1.4,0.4c0.7,0,1.4-0.3,1.8-0.7c0.1-0.1,0.3-0.3,0.3-0.4C45,60.8,44.7,59.2,43.5,58.5z"
			/>
		<path class="st0" d="M21.7,58.5c-0.4-0.3-0.9-0.4-1.4-0.4l0,0c-0.9,0-1.7,0.5-2.2,1.2c-0.3,0.6-0.5,1.3-0.3,1.9
			c0.1,0.7,0.5,1.2,1.2,1.6c0.4,0.3,0.9,0.4,1.4,0.4c0.7,0,1.4-0.3,1.8-0.7c0.1-0.1,0.3-0.3,0.3-0.4C23.2,60.8,22.9,59.2,21.7,58.5z
			"/>
		<g id="_xF672_-copy_2_">
			<path class="st0" d="M31.2,42.9c0.3,0,0.6-0.1,0.8-0.3c0.2-0.2,0.3-0.5,0.3-0.8s-0.1-0.6-0.3-0.8c-0.2-0.2-0.5-0.3-0.8-0.3
				c-1.6,0-2.9-0.5-4-1.7c-1.2-1.2-1.7-2.4-1.7-4c0-0.3-0.1-0.6-0.3-0.8c-0.2-0.2-0.5-0.3-0.8-0.3c-0.3,0-0.6,0.1-0.8,0.3
				c-0.2,0.2-0.3,0.5-0.3,0.8c0,1.4,0.3,2.7,1.1,4c0.7,1.2,1.7,2.2,2.9,2.9C28.4,42.5,29.8,42.9,31.2,42.9z M31.2,47.3
				c2.3,0,4.4-0.5,6.3-1.7c1.9-1.2,3.5-2.6,4.5-4.6c1.2-1.9,1.7-4.1,1.7-6.4c0-1.6-0.3-3.1-0.8-4.5c-0.5-1.4-1.3-2.7-2.3-3.9
				c-0.9-0.9-1.7-2.2-2.4-3.7c-0.7-1.4-1.2-2.3-1.3-2.9H25.5c-0.1,0.6-0.5,1.6-1.2,2.9c-0.8,1.5-1.6,2.7-2.5,3.7
				c-1,1.2-1.8,2.4-2.3,3.9c-0.5,1.4-0.8,2.9-0.8,4.5c0,2.2,0.5,4.3,1.6,6.2c1.1,1.9,2.6,3.5,4.5,4.6C26.7,46.8,28.8,47.3,31.2,47.3
				z M39,27.9c0.9,0.9,1.5,2,1.9,3.2c0.4,1.2,0.7,2.4,0.7,3.6c0,1.8-0.5,3.6-1.4,5.2c-0.9,1.6-2.2,2.8-3.7,3.8
				c-1.6,0.9-3.3,1.4-5.2,1.4s-3.7-0.5-5.2-1.4s-2.8-2.2-3.7-3.8c-0.9-1.6-1.4-3.3-1.4-5.1c0-2.6,0.9-4.8,2.6-6.8
				c0.6-0.6,1.2-1.4,1.8-2.4c0.7-1.2,1.3-2.3,1.8-3.4h8.3c0.5,1.2,1.1,2.2,1.8,3.4C37.9,26.5,38.5,27.3,39,27.9z"/>
		</g>
		<g id="Rectangle-Copy-2_2_">
			<path class="st0" d="M27.5,10.7H35c1,0,1.8,0.8,1.8,1.8v0.7H25.7v-0.7C25.7,11.5,26.5,10.7,27.5,10.7z"/>
		</g>
		<g id="Rectangle-Copy_2_">
			<rect x="25.7" y="15.4" class="st0" width="11.1" height="2.6"/>
		</g>
		<path class="st0" d="M32.6,60.3c-0.4-0.3-0.9-0.4-1.4-0.4l0,0c-0.9,0-1.7,0.5-2.2,1.2c-0.3,0.6-0.5,1.3-0.3,1.9
			c0.1,0.7,0.5,1.2,1.2,1.6c0.4,0.3,0.9,0.4,1.4,0.4c0.7,0,1.4-0.3,1.8-0.7c0.1-0.1,0.3-0.3,0.3-0.4C34.1,62.7,33.8,61,32.6,60.3z"
			/>
		<path class="st0" d="M30.1,56.8c0.3,0.2,0.7,0.3,1.1,0.3c0.5,0,1-0.2,1.4-0.6c0.1-0.1,0.2-0.2,0.3-0.3c0.6-0.9,0.3-2.2-0.6-2.8
			c-0.5-0.3-1-0.4-1.5-0.3c-0.5,0.1-1,0.4-1.2,0.9c-0.3,0.5-0.4,1-0.3,1.5C29.4,56.1,29.7,56.6,30.1,56.8z"/>
		<path class="st0" d="M40.8,54.9c0.6-0.9,0.3-2.2-0.6-2.8c-0.5-0.3-1-0.4-1.5-0.3c-0.5,0.1-1,0.4-1.2,0.9c-0.3,0.5-0.4,1-0.3,1.5
			s0.4,1,0.9,1.2c0.3,0.2,0.7,0.3,1.1,0.3c0.5,0,1-0.2,1.4-0.6C40.7,55.1,40.8,55,40.8,54.9z"/>
		<path class="st0" d="M24.4,52.2c-0.5-0.3-1-0.4-1.5-0.3c-0.5,0.1-1,0.4-1.2,0.9c-0.3,0.5-0.4,1-0.3,1.5s0.4,1,0.9,1.2
			c0.3,0.2,0.7,0.3,1.1,0.3c0.5,0,1-0.2,1.4-0.6c0.1-0.1,0.2-0.2,0.3-0.3c0.3-0.5,0.4-1,0.3-1.5C25.1,52.9,24.8,52.4,24.4,52.2z"/>
		<path class="st0" d="M12.8,52.5c-0.4-0.3-0.9-0.4-1.4-0.4c-0.9,0-1.7,0.5-2.2,1.2C9,53.9,8.8,54.5,9,55.1c0.1,0.7,0.5,1.2,1.2,1.6
			c0.4,0.3,0.9,0.4,1.4,0.4c0.7,0,1.4-0.3,1.8-0.7c0.1-0.1,0.3-0.3,0.3-0.4C14.4,54.9,14.1,53.3,12.8,52.5z"/>
		<path class="st0" d="M52.4,52.5c-0.4-0.3-0.9-0.4-1.4-0.4c-0.9,0-1.7,0.5-2.2,1.2c-0.3,0.6-0.5,1.3-0.3,1.9
			c0.1,0.7,0.5,1.2,1.2,1.6c0.4,0.3,0.9,0.4,1.4,0.4c0.7,0,1.4-0.3,1.8-0.7c0.1-0.1,0.3-0.3,0.3-0.4C53.9,54.9,53.5,53.3,52.4,52.5z
			"/>
		<path class="st0" d="M17.9,47.7c-0.5-0.3-1-0.4-1.5-0.3c-0.5,0.1-1,0.4-1.2,0.9c-0.3,0.5-0.4,1-0.3,1.5c0.1,0.5,0.4,1,0.9,1.2
			c0.3,0.2,0.7,0.3,1.1,0.3c0.5,0,1-0.2,1.4-0.6c0.1-0.1,0.2-0.2,0.3-0.3C19.1,49.5,18.8,48.3,17.9,47.7z"/>
		<path class="st0" d="M46.7,47.7c-0.5-0.3-1-0.4-1.5-0.3c-0.5,0.1-1,0.4-1.2,0.9c-0.3,0.5-0.4,1-0.3,1.5c0.1,0.5,0.4,1,0.9,1.2
			c0.3,0.2,0.7,0.3,1.1,0.3c0.5,0,1-0.2,1.4-0.6c0.1-0.1,0.2-0.2,0.3-0.3C48,49.5,47.7,48.3,46.7,47.7z"/>
	</g>
</g>
</svg>
