<?xml version="1.0" encoding="UTF-8" standalone="no"?>
<svg width="231px" height="245px" viewBox="0 0 231 245" version="1.1" xmlns="http://www.w3.org/2000/svg" xmlns:xlink="http://www.w3.org/1999/xlink">
    <!-- Generator: Sketch 41.2 (35397) - http://www.bohemiancoding.com/sketch -->
    <title>Artboard 8</title>
    <desc>Created with Sketch.</desc>
    <defs>
        <polygon id="path-1" points="159.305096 0.0844604229 0.00027691942 0.0844604229 0.00027691942 120.25295 159.305096 120.25295 159.305096 0.0844604229"></polygon>
        <polygon id="path-3" points="0 195.528327 206.696808 195.528327 206.696808 0.384597097 0 0.384597097"></polygon>
    </defs>
    <g id="Page-1" stroke="none" stroke-width="1" fill="none" fill-rule="evenodd">
        <g id="Artboard-8">
            <g id="Page-1" transform="translate(24.000000, 49.000000)">
                <g id="Group-3" transform="translate(0.000000, 0.300137)">
                    <mask id="mask-2" fill="white">
                        <use xlink:href="#path-1"></use>
                    </mask>
                    <g id="Clip-2"></g>
                    <path d="M0.00027691942,6.14276502 L0.00027691942,114.192569 C0.00027691942,117.53914 2.71270263,120.25295 6.05927381,120.25295 L153.246099,120.25295 C156.59267,120.25295 159.305096,117.53914 159.305096,114.192569 L159.305096,6.14276502 C159.305096,2.79619384 156.59267,0.0837681243 153.246099,0.0837681243 L6.05927381,0.0837681243 C2.71270263,0.0837681243 0.00027691942,2.79619384 0.00027691942,6.14276502" id="Fill-1" fill="#000000" mask="url(#mask-2)"></path>
                </g>
                <path d="M3.51189208,123.061423 L3.51189208,123.061423 C1.4959187,123.061423 0.137628951,125.125857 0.937926073,126.977063 L18.9473805,168.717128 C19.7352163,170.539257 21.5448847,171.705088 23.5303969,171.664935 L204.644005,167.965291 C206.511826,167.926523 207.396584,165.643322 206.041063,164.355647 L200.13991,158.746644 L162.18395,123.406188 C161.945799,123.184652 161.63288,123.061423 161.3075,123.061423 L3.51189208,123.061423 Z" id="Fill-4" fill="#000000"></path>
                <mask id="mask-4" fill="white">
                    <use xlink:href="#path-3"></use>
                </mask>
                <g id="Clip-7"></g>
                <polygon id="Fill-6" fill="#000000" mask="url(#mask-4)" points="115.852008 124.581572 141.588899 124.581572 141.588899 113.938174 115.852008 113.938174"></polygon>
                <polygon id="Fill-8" fill="#000000" mask="url(#mask-4)" points="22.3820121 124.581572 47.7339849 124.581572 47.7339849 113.938174 22.3820121 113.938174"></polygon>
                <path d="M5.51983479,6.10492154 L5.51983479,114.831793 C5.51983479,117.991444 8.0384169,120.552948 11.1468374,120.552948 L153.675878,120.552948 C156.784298,120.552948 159.304265,117.991444 159.304265,114.831793 L159.304265,6.10492154 C159.304265,2.94527097 156.784298,0.383766338 153.675878,0.383766338 L11.1468374,0.383766338 C8.0384169,0.383766338 5.51983479,2.94527097 5.51983479,6.10492154" id="Fill-9" fill="#7AB7FF" mask="url(#mask-4)"></path>
                <path d="M3.3860322,123.064192 L161.813017,123.061423 L205.481824,163.721501 L28.0069378,167.753448 C25.1325142,167.818524 22.4920875,166.175007 21.2833343,163.565042 L3.3860322,123.064192 Z" id="Fill-10" fill="#7AB7FF" mask="url(#mask-4)"></path>
                <polygon id="Fill-11" fill="#FFFFFF" mask="url(#mask-4)" points="15.0284169 110.842215 150.491858 110.842215 150.491858 11.7604468 15.0284169 11.7604468"></polygon>
                <polygon id="Fill-12" fill="#FFFFFF" mask="url(#mask-4)" points="58.12234 143.79798 63.2328879 148.731299 63.291041 150.164357 58.1818777 145.186731"></polygon>
                <polygon id="Fill-13" fill="#B2E1FF" mask="url(#mask-4)" points="50.8478053 135.612103 55.9569686 140.449886 67.1182058 140.449886 61.0093634 135.612103"></polygon>
                <polygon id="Fill-14" fill="#B2E1FF" mask="url(#mask-4)" points="15.1375231 127.290952 20.248071 132.128734 31.4093082 132.128734 25.3004658 127.290952"></polygon>
                <polygon id="Fill-15" fill="#B2E1FF" mask="url(#mask-4)" points="29.9989576 127.290952 35.1095055 132.128734 46.2707427 132.128734 40.1619003 127.290952"></polygon>
                <polygon id="Fill-16" fill="#B2E1FF" mask="url(#mask-4)" points="59.7218266 127.290952 64.8323744 132.128734 75.9936116 132.128734 69.8847693 127.290952"></polygon>
                <polygon id="Fill-17" fill="#B2E1FF" mask="url(#mask-4)" points="44.8603921 127.290952 49.97094 132.128734 61.1321772 132.128734 55.0233348 127.290952"></polygon>
                <polygon id="Fill-18" fill="#B2E1FF" mask="url(#mask-4)" points="20.6814499 135.612103 25.7919978 140.449886 52.4607225 140.449886 46.3518801 135.612103"></polygon>
                <polygon id="Fill-19" fill="#B2E1FF" mask="url(#mask-4)" points="67.4048174 135.031957 72.5153653 139.869739 83.6766025 139.869739 77.5677601 135.031957"></polygon>
                <polygon id="Fill-20" fill="#B2E1FF" mask="url(#mask-4)" points="82.2067142 135.031957 87.3158775 139.869739 98.4784993 139.869739 92.3696569 135.031957"></polygon>
                <polygon id="Fill-21" fill="#B2E1FF" mask="url(#mask-4)" points="83.676464 151.774228 132.533357 151.50977 142.825067 161.156258 92.5725004 161.156258"></polygon>
                <polygon id="Fill-22" fill="#B2E1FF" mask="url(#mask-4)" points="148.890433 127.290952 154.000981 132.128734 165.162218 132.128734 159.053376 127.290952"></polygon>
                <polygon id="Fill-23" fill="#B2E1FF" mask="url(#mask-4)" points="134.028999 127.290952 139.139547 132.128734 150.300784 132.128734 144.191942 127.290952"></polygon>
                <polygon id="Fill-24" fill="#B2E1FF" mask="url(#mask-4)" points="119.167564 127.290952 124.278112 132.128734 135.43935 132.128734 129.330507 127.290952"></polygon>
                <polygon id="Fill-25" fill="#B2E1FF" mask="url(#mask-4)" points="104.30613 127.290952 109.416678 132.128734 120.577915 132.128734 114.469073 127.290952"></polygon>
                <polygon id="Fill-26" fill="#B2E1FF" mask="url(#mask-4)" points="89.4446955 127.290952 94.5552434 132.128734 105.716481 132.128734 99.6076382 127.290952"></polygon>
                <polygon id="Fill-27" fill="#B2E1FF" mask="url(#mask-4)" points="74.583261 127.290952 79.6938089 132.128734 90.8550461 132.128734 84.7462037 127.290952"></polygon>
                <polygon id="Fill-28" fill="#B2E1FF" mask="url(#mask-4)" points="97.2588077 135.418675 102.369356 140.062614 113.530593 140.062614 107.42175 135.418675"></polygon>
                <polygon id="Fill-29" fill="#B2E1FF" mask="url(#mask-4)" points="112.310901 135.418675 117.421449 140.062614 128.582686 140.062614 122.473844 135.418675"></polygon>
                <polygon id="Fill-30" fill="#B2E1FF" mask="url(#mask-4)" points="127.364379 135.031957 132.473543 139.869739 143.63478 139.869739 137.525937 135.031957"></polygon>
                <polygon id="Fill-31" fill="#B2E1FF" mask="url(#mask-4)" points="143.419752 135.418675 148.5303 140.062614 159.691537 140.062614 153.582695 135.418675"></polygon>
                <polygon id="Fill-32" fill="#B2E1FF" mask="url(#mask-4)" points="157.720009 135.031957 162.829172 139.869739 173.99041 139.869739 167.881567 135.031957"></polygon>
                <polygon id="Fill-33" fill="#B2E1FF" mask="url(#mask-4)" points="150.383306 142.966391 155.493854 147.804173 182.161194 147.804173 176.052352 142.966391"></polygon>
                <polygon id="Fill-34" fill="#B2E1FF" mask="url(#mask-4)" points="135.391996 143.546398 140.50116 148.384181 151.662397 148.384181 145.553554 143.546398"></polygon>
                <polygon id="Fill-35" fill="#B2E1FF" mask="url(#mask-4)" points="74.0072686 143.739827 80.2794935 148.577609 137.255664 148.577609 131.146822 143.739827"></polygon>
                <polygon id="Fill-36" fill="#B2E1FF" mask="url(#mask-4)" points="58.12234 143.739827 63.2328879 148.577609 74.3941251 148.577609 68.2852827 143.739827"></polygon>
                <polygon id="Fill-37" fill="#B2E1FF" mask="url(#mask-4)" points="42.568607 143.739827 47.6791549 148.577609 58.8403921 148.577609 52.7315497 143.739827"></polygon>
                <polygon id="Fill-38" fill="#B2E1FF" mask="url(#mask-4)" points="27.014874 143.739827 32.1240372 148.577609 43.2852744 148.577609 37.176432 143.739827"></polygon>
                <polygon id="Fill-39" fill="#FFFFFF" mask="url(#mask-4)" points="15.1375231 127.263952 20.248071 132.197271 20.3062241 133.630329 15.1970608 128.651318"></polygon>
                <polygon id="Fill-40" fill="#FFFFFF" mask="url(#mask-4)" points="20.2487633 132.322301 31.0901586 132.322301 31.0901586 133.460439 20.1476877 133.691667"></polygon>
                <polygon id="Fill-41" fill="#FFFFFF" mask="url(#mask-4)" points="29.9989576 127.263952 35.1095055 132.197271 35.1676586 133.630329 30.0584953 128.651318"></polygon>
                <polygon id="Fill-42" fill="#FFFFFF" mask="url(#mask-4)" points="35.1101978 132.322301 45.7979028 132.322301 45.7979028 133.460439 34.9315848 133.691667"></polygon>
                <polygon id="Fill-43" fill="#FFFFFF" mask="url(#mask-4)" points="148.890433 127.263952 154.000981 132.197271 154.059134 133.630329 148.949971 128.651318"></polygon>
                <polygon id="Fill-44" fill="#FFFFFF" mask="url(#mask-4)" points="154.001535 132.322301 165.198772 132.322301 165.198772 133.460439 154.079073 133.691667"></polygon>
                <polygon id="Fill-45" fill="#FFFFFF" mask="url(#mask-4)" points="134.028999 127.263952 139.139547 132.197271 139.1977 133.630329 134.088537 128.651318"></polygon>
                <polygon id="Fill-46" fill="#FFFFFF" mask="url(#mask-4)" points="139.140101 132.322301 150.298569 132.322301 150.298569 133.460439 139.196869 133.691667"></polygon>
                <polygon id="Fill-47" fill="#FFFFFF" mask="url(#mask-4)" points="119.167564 127.263952 124.278112 132.197271 124.336265 133.630329 119.227102 128.651318"></polygon>
                <polygon id="Fill-48" fill="#FFFFFF" mask="url(#mask-4)" points="124.278666 132.322301 135.590824 132.322301 135.590824 133.460439 124.412972 133.691667"></polygon>
                <polygon id="Fill-49" fill="#FFFFFF" mask="url(#mask-4)" points="104.30613 127.263952 109.416678 132.197271 109.474831 133.630329 104.365668 128.651318"></polygon>
                <polygon id="Fill-50" fill="#FFFFFF" mask="url(#mask-4)" points="109.417232 132.322301 120.10909 132.322301 120.10909 133.460439 109.241388 133.691667"></polygon>
                <polygon id="Fill-51" fill="#FFFFFF" mask="url(#mask-4)" points="89.4446955 127.263952 94.5552434 132.197271 94.6133965 133.630329 89.5042332 128.651318"></polygon>
                <polygon id="Fill-52" fill="#FFFFFF" mask="url(#mask-4)" points="94.5557972 132.322301 105.207503 132.322301 105.207503 133.460439 94.3591845 133.691667"></polygon>
                <polygon id="Fill-53" fill="#FFFFFF" mask="url(#mask-4)" points="74.583261 127.263952 79.6938089 132.197271 79.751962 133.630329 74.6427987 128.651318"></polygon>
                <polygon id="Fill-54" fill="#FFFFFF" mask="url(#mask-4)" points="79.6943628 132.322301 90.5011431 132.322301 90.5011431 133.409209 79.5752874 133.691667"></polygon>
                <polygon id="Fill-55" fill="#FFFFFF" mask="url(#mask-4)" points="59.7218266 127.263952 64.8323744 132.197271 64.8905275 133.630329 59.7813642 128.651318"></polygon>
                <polygon id="Fill-56" fill="#FFFFFF" mask="url(#mask-4)" points="64.8329283 132.322301 75.5995553 132.322301 75.5995553 133.460439 64.6944686 133.691667"></polygon>
                <polygon id="Fill-57" fill="#FFFFFF" mask="url(#mask-4)" points="44.8603921 127.263952 49.97094 132.197271 50.0290931 133.630329 44.9199298 128.651318"></polygon>
                <polygon id="Fill-58" fill="#FFFFFF" mask="url(#mask-4)" points="49.9714938 132.322301 61.132731 132.322301 61.0150403 133.522746 50.0296469 133.723513"></polygon>
                <polygon id="Fill-59" fill="#FFFFFF" mask="url(#mask-4)" points="20.6814499 135.520166 25.7919978 140.453485 25.8501509 141.886543 20.7409876 136.907532"></polygon>
                <polygon id="Fill-60" fill="#FFFFFF" mask="url(#mask-4)" points="25.7925516 140.643452 52.3768159 140.643452 52.3768159 141.716515 25.8105514 141.980973"></polygon>
                <polygon id="Fill-61" fill="#FFFFFF" mask="url(#mask-4)" points="50.8478053 135.520166 55.9569686 140.453485 56.0165063 141.886543 50.9059584 136.907532"></polygon>
                <polygon id="Fill-62" fill="#FFFFFF" mask="url(#mask-4)" points="55.9575224 140.643452 66.8903011 140.643452 66.8903011 141.716515 55.9035232 141.980973"></polygon>
                <polygon id="Fill-63" fill="#FFFFFF" mask="url(#mask-4)" points="67.4048174 135.017142 72.5153653 139.951846 72.5735184 141.384904 67.4643551 136.405893"></polygon>
                <polygon id="Fill-64" fill="#FFFFFF" mask="url(#mask-4)" points="72.5159191 140.063306 83.3393146 140.063306 83.3393146 141.215291 72.4065359 141.439596"></polygon>
                <polygon id="Fill-65" fill="#FFFFFF" mask="url(#mask-4)" points="82.2067142 135.017142 87.3158775 139.951846 87.3754152 141.384904 82.2648673 136.405893"></polygon>
                <polygon id="Fill-66" fill="#FFFFFF" mask="url(#mask-4)" points="87.3164313 140.063306 98.242287 140.063306 98.242287 141.215291 87.2568936 141.439596"></polygon>
                <polygon id="Fill-67" fill="#FFFFFF" mask="url(#mask-4)" points="97.2588077 135.268585 102.369356 140.201904 102.427509 141.634962 97.3183454 136.655951"></polygon>
                <polygon id="Fill-68" fill="#FFFFFF" mask="url(#mask-4)" points="102.111682 140.256734 113.142767 140.256734 113.142767 141.465488 102.111682 141.552717"></polygon>
                <polygon id="Fill-69" fill="#FFFFFF" mask="url(#mask-4)" points="112.310901 135.268585 117.421449 140.201904 117.479602 141.634962 112.370439 136.655951"></polygon>
                <polygon id="Fill-70" fill="#FFFFFF" mask="url(#mask-4)" points="117.422003 140.256734 128.237091 140.256734 128.237091 141.465488 117.307081 141.6621"></polygon>
                <polygon id="Fill-71" fill="#FFFFFF" mask="url(#mask-4)" points="127.364379 135.017142 132.473543 139.951846 132.53308 141.384904 127.422532 136.405893"></polygon>
                <polygon id="Fill-72" fill="#FFFFFF" mask="url(#mask-4)" points="132.474096 140.063306 143.330722 140.063306 143.330722 141.215291 132.381328 141.439596"></polygon>
                <polygon id="Fill-73" fill="#FFFFFF" mask="url(#mask-4)" points="143.419752 135.268585 148.5303 140.201904 148.588453 141.634962 143.47929 136.655951"></polygon>
                <polygon id="Fill-74" fill="#FFFFFF" mask="url(#mask-4)" points="148.530854 140.256734 159.393018 140.256734 159.393018 141.465488 148.440855 141.6621"></polygon>
                <polygon id="Fill-75" fill="#FFFFFF" mask="url(#mask-4)" points="157.720009 135.017142 162.829172 139.951846 162.88871 141.384904 157.778162 136.405893"></polygon>
                <polygon id="Fill-76" fill="#FFFFFF" mask="url(#mask-4)" points="162.829726 140.063306 173.712659 140.063306 173.712659 141.215291 162.74942 141.439596"></polygon>
                <polygon id="Fill-77" fill="#FFFFFF" mask="url(#mask-4)" points="150.383306 143.046144 155.493854 147.979463 155.552007 149.412521 150.441459 144.43351"></polygon>
                <polygon id="Fill-78" fill="#FFFFFF" mask="url(#mask-4)" points="155.494408 147.99774 182.034365 147.99774 182.034365 149.242492 155.488869 149.419721"></polygon>
                <polygon id="Fill-79" fill="#FFFFFF" mask="url(#mask-4)" points="135.391996 143.547783 140.50116 148.481103 140.560697 149.914161 135.450149 144.935149"></polygon>
                <polygon id="Fill-80" fill="#FFFFFF" mask="url(#mask-4)" points="140.501713 148.577747 151.45803 148.577747 151.45803 149.744963 140.458791 149.96096"></polygon>
                <polygon id="Fill-81" fill="#FFFFFF" mask="url(#mask-4)" points="92.5248702 161.350102 142.557286 161.350102 142.557286 162.538086 92.4750247 162.745776"></polygon>
                <polygon id="Fill-82" fill="#FFFFFF" mask="url(#mask-4)" points="83.7278326 151.793197 92.5975616 161.194612 92.6086383 162.667823 83.7278326 153.083642"></polygon>
                <polygon id="Fill-83" fill="#FFFFFF" mask="url(#mask-4)" points="73.8585629 143.884517 80.2041714 148.6503 80.0421736 150.113819 73.8585629 145.305114"></polygon>
                <polygon id="Fill-84" fill="#FFFFFF" mask="url(#mask-4)" points="80.2920933 148.771176 136.945653 148.771176 136.945653 149.654549 79.9985587 150.175157"></polygon>
                <polygon id="Fill-85" fill="#FFFFFF" mask="url(#mask-4)" points="63.2334417 148.771176 74.0512988 148.771176 74.0512988 149.995159 63.1212894 150.184849"></polygon>
                <polygon id="Fill-86" fill="#FFFFFF" mask="url(#mask-4)" points="42.568607 143.79798 47.6791549 148.731299 47.7373079 150.164357 42.6267601 145.186731"></polygon>
                <polygon id="Fill-87" fill="#FFFFFF" mask="url(#mask-4)" points="47.6797087 148.771176 58.5695649 148.771176 58.5695649 149.995159 47.6021713 150.184849"></polygon>
                <polygon id="Fill-88" fill="#FFFFFF" mask="url(#mask-4)" points="27.014874 143.79798 32.1240372 148.731299 32.1835749 150.164357 27.073027 145.186731"></polygon>
                <polygon id="Fill-89" fill="#FFFFFF" mask="url(#mask-4)" points="32.1245911 148.771176 42.8953719 148.771176 42.8953719 149.995159 31.987516 150.184849"></polygon>
                <polyline id="Fill-90" fill="#B2E1FF" mask="url(#mask-4)" points="46.18559 110.842077 46.18559 101.358971 121.657209 102.132961 121.657209 110.842077"></polyline>
                <path d="M61.0090865,103.229562 C59.8224868,103.269715 58.556965,104.236164 58.4628124,105.593069 C58.3658906,107.023358 59.6175664,108.162881 60.9177031,108.320725 C62.1666097,108.473031 63.5041305,107.725349 63.8267416,106.594133 C64.2684281,105.051692 62.7259869,103.171409 61.0090865,103.229562" id="Fill-91" fill="#FF645B" mask="url(#mask-4)"></path>
                <path d="M69.9102458,103.229562 C68.7250307,103.269715 67.4581244,104.236164 67.3653564,105.593069 C67.26705,107.023358 68.5201104,108.162881 69.820247,108.320725 C71.067769,108.473031 72.4052898,107.725349 72.7292855,106.594133 C73.1695874,105.051692 71.6285308,103.171409 69.9102458,103.229562" id="Fill-92" fill="#49B172" mask="url(#mask-4)"></path>
                <path d="M79.2292766,103.229562 C78.0440615,103.269715 76.7771551,104.236164 76.6830025,105.593069 C76.5860807,107.023358 77.8391411,108.162881 79.1392778,108.320725 C80.3867998,108.473031 81.7243206,107.725349 82.0469317,106.594133 C82.4886182,105.051692 80.946177,103.171409 79.2292766,103.229562" id="Fill-93" fill="#FEC70D" mask="url(#mask-4)"></path>
                <path d="M88.6821979,103.61628 C87.4955982,103.656433 86.2300764,104.622882 86.1359238,105.979787 C86.039002,107.410076 87.2906778,108.549599 88.5908145,108.708828 C89.8397211,108.859749 91.1772419,108.112067 91.499853,106.980851 C91.9415395,105.439794 90.3990983,103.558127 88.6821979,103.61628" id="Fill-94" fill="#CB78D3" mask="url(#mask-4)"></path>
                <path d="M97.5833573,103.61628 C96.3981421,103.656433 95.1312358,104.622882 95.0384678,105.979787 C94.9401614,107.410076 96.1932218,108.549599 97.4933584,108.708828 C98.7408804,108.859749 100.078401,108.112067 100.402397,106.980851 C100.842699,105.439794 99.3016422,103.558127 97.5833573,103.61628" id="Fill-95" fill="#FA589A" mask="url(#mask-4)"></path>
                <path d="M105.517652,103.61628 C104.332437,103.656433 103.065531,104.622882 102.971378,105.979787 C102.874457,107.410076 104.127517,108.549599 105.427654,108.708828 C106.675176,108.859749 108.012696,108.112067 108.335308,106.980851 C108.776994,105.439794 107.234553,103.558127 105.517652,103.61628" id="Fill-96" fill="#7AB7FF" mask="url(#mask-4)"></path>
                <path d="M79.392936,3.56833966 C78.2077209,3.60710838 76.9408145,4.57355715 76.8466619,5.9318469 C76.7497401,7.36075111 78.0028005,8.50165912 79.3029372,8.65950318 C80.5504591,8.81180886 81.8879799,8.06412643 82.2105911,6.93152601 C82.6522775,5.39046944 81.1098364,3.50880199 79.392936,3.56833966" id="Fill-97" fill="#000000" mask="url(#mask-4)"></path>
                <polygon id="Fill-98" fill="#FA589A" mask="url(#mask-4)" points="15.0284169 15.7757784 150.491858 15.7757784 150.491858 11.7618314 15.0284169 11.7618314"></polygon>
                <path d="M165.527337,195.528327 C161.725233,195.000796 153.93549,195.508943 150.534919,194.024655 C147.819724,192.840824 142.613639,189.888863 140.330439,188.001657 C136.47849,184.824007 126.505237,173.576925 126.505237,173.576925 C126.505237,173.576925 125.2231,171.988792 125.904322,170.363275 C126.591082,168.730835 129.109664,169.504825 129.995806,170.022664 C133.278686,171.941716 139.588295,178.475629 141.672113,179.767459 C142.065339,180.011148 143.36686,179.030853 143.130094,178.634858 C141.712267,176.260274 128.245675,155.36255 128.245675,155.36255 L123.100513,147.797112 C123.100513,147.797112 120.537623,144.255312 122.700364,142.696256 C124.842336,141.15243 128.145984,146.073288 128.145984,146.073288 C128.145984,146.073288 132.730385,152.662586 134.234058,154.875172 C137.917086,160.282024 139.595218,161.922771 141.245657,163.110755 C141.647191,163.401521 143.253323,163.085833 142.581794,161.643083 C142.018263,160.428791 140.420438,158.436356 139.650602,157.404831 C137.23171,154.167643 127.248765,139.540759 127.248765,139.540759 C127.248765,139.540759 126.053858,137.102484 128.078139,135.841116 C129.648272,134.860821 131.58117,137.141252 131.58117,137.141252 C131.58117,137.141252 145.733137,156.751301 146.7342,157.762057 C147.018043,158.047284 148.062029,157.411754 148.160335,157.021297 C148.536946,155.541163 136.772024,141.043047 134.232673,135.692964 C133.959908,135.119741 133.928062,134.157446 135.080047,133.416686 C136.76787,132.328393 138.069392,134.168522 138.069392,134.168522 C138.069392,134.168522 152.357049,154.108105 153.287498,154.612098 C153.521495,154.739481 154.510098,154.584407 154.530867,154.318564 C154.751018,151.586754 149.605855,143.761011 147.618958,140.346595 C146.964043,139.218148 145.582216,136.828333 145.910365,135.727579 C146.115285,135.036665 147.480498,134.354058 148.170028,134.568671 C150.030926,135.146048 151.943055,139.265224 152.891504,140.966894 C154.204102,143.324863 157.309753,147.608806 158.771888,149.8297 C159.756336,151.32645 170.563116,166.616555 172.558321,170.580657 C173.875073,173.197545 174.966135,179.089006 176.383963,181.65328 C179.406538,187.123823 182.308654,190.384549 186.524752,195.000796" id="Fill-99" fill="#D69C85" mask="url(#mask-4)"></path>
                <path d="M58.1601395,192.914623 C59.7067345,187.236391 61.2062531,184.957344 60.4156482,181.314469 C60.0099612,179.443878 59.5848899,179.909103 58.5796724,176.882374 C57.3972265,173.328113 57.2352286,170.434305 57.055231,167.246962 C56.9070791,164.628689 56.7921576,162.583639 57.168768,159.810291 C57.5799933,156.800177 60.3519567,144.29865 63.0505364,142.783901 C63.835603,142.343599 65.2188155,141.56684 66.210187,142.131756 C67.0395607,142.605288 67.179405,143.778042 67.2832498,144.777721 C67.4618628,146.48216 67.1226365,147.491531 66.4732605,150.281494 C66.21711,151.382249 65.725578,153.574066 65.3725058,155.648192 C64.9862032,157.92447 64.2468283,159.441989 64.8214361,159.847675 C65.0734328,160.026289 65.4597354,159.922444 65.7574238,159.799215 C66.7501799,157.32217 67.1974047,155.246659 67.4217095,153.820524 C67.9617023,150.395031 71.5395012,139.296101 72.7925616,138.634263 C73.1373263,138.452881 75.3152975,137.354896 76.9034304,138.490265 C77.6691126,139.037181 77.9626472,139.862401 78.0761841,140.291626 C78.0997223,141.48238 78.0747995,143.190972 77.8311105,145.229099 C77.4503462,148.419211 73.7562412,159.655216 74.4499243,160.103826 C74.7005364,160.265824 75.0743776,160.094134 75.1948376,160.03875 C76.2914385,159.533372 77.2523489,153.612835 78.1343372,147.868141 C78.6867915,144.254343 78.9180192,139.397176 79.643548,138.354575 C80.5726127,137.014285 82.138592,136.708289 82.4667415,136.65152 C82.7907372,136.596136 84.5450218,136.294294 85.5363933,137.327204 C85.853466,137.653969 85.9850028,138.005656 86.0376174,138.156577 C87.4415989,142.153909 86.936221,146.724464 86.936221,146.724464 C86.3325366,152.167315 84.1947187,160.614742 85.0379383,161.226734 C85.1805518,161.329194 85.5876234,161.531346 85.8590044,161.376271 C86.1331546,161.219811 88.3374332,147.035999 88.2972799,145.224946 C88.2751263,144.309727 88.0480524,143.175742 87.5939046,140.910541 C87.1536027,138.717339 86.9237596,137.602739 86.458535,136.630751 C85.7482366,135.146463 85.2594739,135.009388 84.7748649,133.519562 C84.4813303,132.61542 84.149027,131.540972 84.5810213,130.395911 C84.6364052,130.247759 85.2428587,128.706702 86.3920743,128.572396 C86.630225,128.544704 87.2048328,128.54332 88.8580417,130.150837 C89.795414,131.061902 90.5084815,131.755585 91.3060094,133.029414 C92.0093847,134.149553 92.3735338,135.074464 93.2458299,137.746737 C94.2690472,140.882849 94.7799635,142.451598 95.1468817,143.933116 C95.4238012,145.058794 95.9859476,147.480454 96.3860961,150.641489 C96.5536324,151.954087 96.8720897,154.829896 96.8610129,158.593231 C96.8499362,162.251336 96.8430132,164.218849 96.1396379,166.813583 C95.7464123,168.261872 95.3725711,168.980478 94.1139723,171.745518 C91.513699,177.454212 91.4333923,177.996974 90.2620232,180.480941 C86.3713053,188.719294 84.3968699,188.777447 82.2438214,194.0943" id="Fill-100" fill="#D69C85" mask="url(#mask-4)"></path>
                <polygon id="Fill-101" fill="#FF645B" mask="url(#mask-4)" points="84.6027595 194.208668 58.7467933 186.52 53.6943985 195.528189 84.3950699 195.000657"></polygon>
            </g>
        </g>
    </g>
</svg>