<?xml version="1.0" encoding="UTF-8" standalone="no"?>
<svg width="90px" height="122px" viewBox="0 0 90 122" version="1.1" xmlns="http://www.w3.org/2000/svg" xmlns:xlink="http://www.w3.org/1999/xlink">
    <!-- Generator: Sketch 41.2 (35397) - http://www.bohemiancoding.com/sketch -->
    <title>Group 17</title>
    <desc>Created with Sketch.</desc>
    <defs></defs>
    <g id="Page-1" stroke="none" stroke-width="1" fill="none" fill-rule="evenodd">
        <g id="Paso-1-Copy-62" transform="translate(-875.000000, -156.000000)">
            <g id="Group-17" transform="translate(875.000000, 156.000000)">
                <g id="Group-4" transform="translate(0.036655, 0.000000)">
                    <path d="M89.7149291,119.444437 C62.4960544,120.204905 35.2771798,120.964017 8.05830509,121.725841 C8.23723394,97.998162 8.08406,74.2759055 7.60284981,50.5590712 C7.28701327,35.0447155 6.83020247,19.5344264 6.23377295,4.02684839 C20.731077,1.14357756 40.8537958,-0.938558786 64.1687681,2.65909086 C73.5191565,4.10140406 81.9152575,6.23098491 89.2581183,8.58965499 C86.5050538,33.9263805 85.3176169,62.078599 86.9767754,92.529843 C87.4390082,100.998011 88.0991473,109.228956 88.9219489,117.214545 L89.7149291,119.444437 Z" id="Fill-1" fill="#FF645B"></path>
                    <path d="M83.4814272,117.923502 C56.2625526,118.68397 29.0436779,119.444437 1.82480324,120.204905 C2.00237658,96.4772265 1.85055815,72.75497 1.36934797,49.0394912 C1.05351142,33.5237799 0.596700629,18.0134908 0.00027110433,2.50591286 C35.6518459,3.63644783 39.1382476,-0.240446666 57.9339108,1.13951088 C67.3710525,1.82948966 75.6817557,4.71004938 83.0246165,7.06871946 C80.271552,32.4068005 79.0827595,60.5576634 80.7432735,91.0089075 C81.2055064,99.4770753 81.8656454,107.709376 82.6884471,115.69361 L83.4814272,117.923502 Z" id="Fill-4" fill="#FEC70D"></path>
                    <polygon id="Fill-8" fill="#FFFFFF" points="17.9292137 29.7301167 17.3964937 60.1881385 65.3046953 60.1881385 64.3300752 31.1832743"></polygon>
                    <path d="M25.7446093,70.8085249 L25.5995685,71.9905711 C25.5995685,71.9905711 55.2095834,72.7808611 58.6268534,70.6512803 C58.8396703,70.5184356 58.9806446,70.4045688 59.0511317,70.3083242 C60.1030165,68.8592332 45.3915401,71.3263479 25.7446093,70.8085249" id="Fill-10" fill="#FFFFFF"></path>
                    <path d="M24.9993435,76.8609537 L24.8543027,78.0429998 C24.8543027,78.0429998 54.4656731,78.8346454 57.8815876,76.703709 C58.0944045,76.5708644 58.2353788,76.4583531 58.3058659,76.3621085 C59.3577507,74.911662 44.6462743,77.3801322 24.9993435,76.8609537" id="Fill-12" fill="#FFFFFF"></path>
                    <path d="M23.5199272,83.0774049 C23.5199272,83.0774049 53.1312976,83.8676949 56.5472121,81.7381141 C56.760029,81.6052694 56.9010033,81.4927582 56.9728459,81.3965136 C58.0247307,79.946067 43.3118988,82.4131817 23.664968,81.8953587 L23.5199272,83.0774049 Z" id="Fill-14" fill="#FFFFFF"></path>
                </g>
            </g>
        </g>
    </g>
</svg>