<?xml version="1.0" encoding="UTF-8" standalone="no"?>
<svg width="140px" height="140px" viewBox="0 0 140 140" version="1.1" xmlns="http://www.w3.org/2000/svg" xmlns:xlink="http://www.w3.org/1999/xlink">
    <!-- Generator: Sketch 41.2 (35397) - http://www.bohemiancoding.com/sketch -->
    <title>Artboard 4 Copy 6</title>
    <desc>Created with Sketch.</desc>
    <defs></defs>
    <g id="Page-1" stroke="none" stroke-width="1" fill="none" fill-rule="evenodd">
        <g id="Artboard-4-Copy-6">
            <g id="Group-Copy-2" transform="translate(40.000000, 24.000000)">
                <path d="M57.3682762,50.2842541 C57.2344621,50.7268143 56.8207487,51.7483325 56.718489,52.4057335 C56.6740791,51.8203363 56.6244101,51.2296705 56.5712351,50.637834 C56.8265921,50.338696 56.9048938,49.3903525 57.2011547,49.4436237 C57.5377351,49.5050904 57.4302164,50.0787796 57.3682762,50.2842541 M54.6055121,28.5209423 L54.6055121,28.5256255 C54.7358201,32.7422416 56.714983,47.6441127 56.714983,47.6441127 L57.0591598,47.6804073 L57.0790274,47.915737 C57.0790274,47.915737 56.8090619,48.6328486 56.7056335,48.8078823 C56.6185667,48.9542316 56.5297469,49.1585352 56.4526139,49.3786446 C55.8150979,42.8965414 54.8112001,36.6526948 54.8112001,36.6526948 C54.8112001,36.6526948 54.4319628,30.5329525 54.6055121,28.5209423 M59.3684754,49.9517484 C59.2486855,49.0291625 59.0067683,48.1024787 58.9459969,47.8765154 L59.5911093,47.943836 C59.5911093,47.943836 59.4543735,23.3249568 55.9559241,20.6362274 C54.67388,19.6504186 52.7695127,18.9473565 51.364757,18.5241143 C51.9350738,18.4029371 52.4405287,18.255417 52.8501518,18.0856518 C54.0001348,17.6097239 57.427879,16.6455747 56.685766,13.4416959 C56.540265,12.8135647 57.6195428,10.516466 56.0202016,6.26648237 C55.5176683,4.93060596 53.9013812,3.16856039 53.2603591,2.44969262 C51.2759372,0.226939455 50.3976727,0.490953592 48.6709451,0.438267844 C46.9436331,0.385582096 44.1960618,1.17059974 43.366882,2.8313716 C42.5143285,4.54014603 42.5160815,5.51600316 41.3228572,7.05032922 C39.3577185,9.57573274 40.5719791,12.2018246 40.5240631,14.295205 C40.4942617,15.6176172 40.6789135,17.5868934 42.4564787,18.2027313 C43.5065395,18.5662629 44.7763124,18.7764205 46.0834832,18.8595469 C44.6167873,19.1920526 42.0246507,19.8482828 41.3234416,20.4769994 C36.7673349,24.5613157 36.8392089,47.4035144 36.8392089,47.4035144 L36.8485583,47.4040998 L36.8193413,47.7412886 C36.8193413,47.7412886 36.4582186,48.789735 36.2589583,49.8399376 C36.0176255,51.1061517 35.6237796,52.0995708 35.7774613,52.1616229 C36.0982645,52.2927519 36.7702566,50.4932409 36.7702566,50.4932409 C36.7702566,50.4932409 36.1122887,53.3611017 36.3273262,53.4576923 C36.8614138,53.6965343 37.2096811,50.6694454 37.2096811,50.6694454 C37.2096811,50.6694454 37.1845544,53.5168174 37.432315,53.4998409 C37.9366012,53.464717 37.7788292,50.8005744 37.7788292,50.8005744 L37.8775828,50.7982328 C37.8775828,50.7982328 38.251561,53.0742571 38.5817137,53.0297669 C39.1087893,52.9595193 38.3982306,50.9603878 38.2363682,50.2889372 C38.1866992,50.0805358 38.1124879,49.501578 38.4525743,49.4600148 C38.8131127,49.41611 38.7704558,50.8128677 39.1900126,50.7894518 C39.5528884,50.7689629 39.2753264,49.4172808 38.9843246,48.8535433 C38.8908301,48.673241 38.6629371,47.9414945 38.6629371,47.9414945 L38.7406544,47.5375704 L39.6089851,47.5984517 C39.6089851,47.5984517 41.485304,32.471788 42.2063808,30.0699033 C42.3244177,29.6765164 42.2215737,29.3609873 42.4173279,29.3609873 C42.5347804,29.3609873 42.653986,29.4406013 42.6411305,29.673004 C42.5137441,32.0848405 41.7342333,36.7206009 41.7342333,36.7206009 C41.7342333,36.7206009 36.8678416,59.8935491 39.5563944,62.8369262 C39.9660175,63.2865113 41.3573333,63.604382 43.1758025,63.8016608 C42.9087586,69.1387271 44.0277716,80.5124093 44.6834022,86.5244385 L44.6775588,86.5244385 C44.6775588,86.5244385 44.6687937,89.0059373 44.1230192,89.6604113 C43.5971123,90.2902987 41.8651257,89.6867542 41.3544116,90.1720485 C41.1773563,90.3400575 41.3544116,91.1479056 41.3544116,91.1479056 L46.9670068,91.1479056 L46.9459705,89.6124088 C46.9471392,89.5807973 46.9483078,89.5521129 46.9494765,89.5187452 L47.1650984,86.5244385 L47.0663447,86.5244385 C47.2883943,80.6441237 47.6594508,69.623436 47.5653719,64.0410883 C47.7494393,64.0428445 47.9335067,64.0446006 48.1175742,64.045186 C47.9849287,69.5924099 48.9508444,80.6353427 49.5164865,86.5244385 L49.481426,86.5244385 L49.6380294,89.5790411 L49.5188238,91.1479056 L55.4837766,91.1479056 C55.4837766,91.1479056 55.6602475,90.3400575 55.4837766,90.1720485 C54.9730625,89.6867542 53.2410759,90.2902987 52.715169,89.6604113 C52.2582143,89.113065 52.2640577,87.2877965 52.2780819,86.7059117 C52.279835,86.6467866 52.281588,86.5859052 52.2839253,86.5261947 L52.2839253,86.5244385 C52.4714988,80.6599294 52.7584102,69.663243 52.5001315,63.8853726 C54.5844758,63.7115096 56.1359011,63.3977367 56.3456795,62.9581034 C57.0942203,61.3915805 57.0755214,57.3669748 56.7570555,52.9243954 C56.7839352,52.9618609 56.8166583,52.9911307 56.8645743,53.0004971 C57.1912209,53.06372 57.6972602,50.8134531 57.6972602,50.8134531 L57.7954295,50.8210633 C57.7954295,50.8210633 57.482807,53.4717418 57.9835873,53.5367209 C58.2301792,53.567747 58.3710053,50.7238874 58.3710053,50.7238874 C58.3710053,50.7238874 58.5428016,53.7661966 59.0897447,53.558966 C59.3100413,53.4752542 58.8197792,50.5740257 58.8197792,50.5740257 C58.8197792,50.5740257 59.3860056,52.4092459 59.7144053,52.297435 C59.871593,52.2441639 59.5350126,51.2296705 59.3684754,49.9517484" id="Fill-1" fill="#000000"></path>
                <path d="M55.7790279,43.2968504 C55.7790279,43.2968504 55.6720936,42.479636 55.530683,41.4306042 C52.2466867,38.666944 43.0386415,24.2761246 40.8269109,20.7830595 C40.4862401,21.150689 40.2279614,21.603201 40.1584249,22.1575721 C40.1584249,22.1575721 50.9149736,40.4910417 55.7790279,43.2968504" id="Fill-3" fill="#FF645B"></path>
                <path d="M41.9853669,19.926682 C41.5868464,20.1356688 41.1661209,20.4166594 40.8266188,20.7831181 C43.0389337,24.2761832 52.2469789,38.6670025 55.5303909,41.4300773 C55.4287155,40.6772565 55.3100943,39.8050147 55.2002382,39.0299488 C51.5370046,35.2418435 44.0469219,23.2657876 41.9853669,19.926682" id="Fill-5" fill="#FFFFFF"></path>
                <path d="M54.9330191,37.256488 L43.3058022,19.4141667 C43.3058022,19.4141667 42.6799731,19.5616868 41.9851916,19.9263893 C44.0473309,23.2660803 51.5368293,35.2421362 55.2000629,39.0296561 C55.0942972,38.2838601 54.9972966,37.6276298 54.9330191,37.256488" id="Fill-7" fill="#7AB7FF"></path>
                <path d="M28.4403007,52.592885 C28.4403007,52.592885 31.189625,27.4916384 26.2081181,21.8858749 C23.5493667,18.8944952 17.2875687,17.7289693 17.2875687,17.7289693 C17.0322117,16.998979 16.6629082,16.127908 16.6436249,15.9060424 C16.6436249,15.9060424 18.6514206,13.6440677 19.2199843,9.77868995 C19.2620569,9.49243072 19.3041294,9.22139182 19.346202,8.95796308 L19.2538761,10.5098511 C20.4424257,9.57087395 20.4021061,7.594573 20.4511908,7.39026938 C20.4599559,7.35280396 20.7293371,5.21200639 20.5359202,4.23146608 C20.4915103,4.03067484 20.4809922,3.98267227 20.4809922,3.96511036 C20.3980158,3.61621363 20.2899127,3.27492706 20.1566829,2.94417764 C19.9217779,2.60874504 17.2080983,1.10017646 16.9574161,1.14876443 C16.7511437,0.888848069 14.68842,0.38891886 14.4242979,0.321598182 C13.8650836,0.178175868 11.8181371,0.532341174 11.451171,0.713228909 C11.1759464,0.939192228 10.9176677,1.18622985 10.6775035,1.45258557 C10.6687384,1.4683913 10.5442738,1.60947202 10.5016169,1.66040158 C9.86176353,2.42668651 9.07115018,4.43459891 9.06180073,4.47147894 C8.68431645,5.94960687 8.3640976,5.94024051 8.80585938,7.06888631 C8.75385303,7.45993164 8.71879257,7.86970968 8.70593707,8.29587885 C8.70593707,8.29587885 8.32027202,12.287117 11.2484047,16.2110344 C11.2484047,16.2110344 10.4028633,17.417538 9.99908366,18.1920185 C9.3095613,18.3617837 5.43421192,19.33647 4.62139361,20.0020667 C-2.62151284,25.9338965 0.814412125,50.9783595 0.814412125,50.9783595 L1.17962524,50.918649 C1.02769658,51.4501897 0.777598643,52.3926792 0.622163943,53.3375102 C0.339927249,55.0568218 -0.159684289,56.4114309 0.0500941226,56.491045 C0.488349858,56.6567124 1.33564428,54.2033127 1.33564428,54.2033127 C1.33564428,54.2033127 0.54327791,58.1003019 0.837201423,58.2232353 C1.56704331,58.5282272 1.93576247,54.426349 1.93576247,54.426349 C1.93576247,54.426349 1.99828695,58.2753356 2.33252999,58.2431388 C3.01211855,58.1787451 2.70942993,54.5832355 2.70942993,54.5832355 L2.84207533,54.5767961 C2.84207533,54.5767961 3.42407894,57.6401797 3.86876243,57.5693466 C4.57932106,57.4563649 3.55088094,54.7787581 3.31013245,53.8766611 C3.23592115,53.5968412 3.11671559,52.8165067 3.57425458,52.7486007 C4.05984193,52.6771822 4.04990814,54.5668444 4.6155502,54.5211834 C5.10522795,54.480791 4.68450244,52.6637181 4.27195771,51.9114827 C4.14048099,51.6708844 3.80740663,50.6903441 3.80740663,50.6903441 L4.55711611,50.368961 L6.18567442,32.5219566 C6.18567442,32.5219566 5.23845769,49.0149373 5.71761729,49.6547764 C5.74683434,49.6939981 5.77955744,49.7320489 5.81111185,49.7706851 L5.28169892,87.3163053 L7.18139145,87.3163053 L7.18139145,89.4916413 C7.18139145,89.4916413 2.3512289,88.2705028 1.7552011,89.4916413 C0.949979233,91.1424614 3.08048645,91.6259995 3.08048645,91.6259995 L11.5125268,91.6259995 L10.9392883,87.3163053 L11.3389775,87.3163053 L14.6171304,57.90595 L15.8512586,87.3163053 L16.7546497,87.3163053 L16.2077066,91.4246229 L24.6403313,91.4246229 C24.6403313,91.4246229 26.7708385,90.9410848 25.9650323,89.2896793 C25.3695888,88.0691261 20.5388419,89.2896793 20.5388419,89.2896793 L20.5388419,87.3163053 L21.6245475,87.3163053 L23.8093984,48.8574655 C24.1652621,45.4604055 23.5213183,34.7546615 24.036707,34.7546615 C24.8407602,34.7546615 24.8956883,52.1292504 24.8956883,52.1292504 C25.003207,52.3130651 25.2521363,52.4365839 25.5700178,52.5185396 C25.5799516,52.6566933 25.157473,53.6021098 25.0043757,53.8292439 C24.5234631,54.5399161 23.935616,56.3101572 24.4194504,56.3950398 C24.9786647,56.4939719 25.1446175,54.6119199 25.6214398,54.728414 C26.070798,54.8384687 25.8797185,55.6041682 25.7792118,55.8757925 C25.4560713,56.7509613 24.1833766,59.3214404 24.8804954,59.4999866 C25.3164138,59.6123828 26.1806541,56.6169054 26.1806541,56.6169054 L26.3121308,56.6350527 C26.3121308,56.6350527 25.6763678,60.1860721 26.3477756,60.3142741 C26.6773439,60.377497 27.0969008,56.5501701 27.0969008,56.5501701 C27.0969008,56.5501701 27.0834609,60.6701956 27.8378451,60.4336951 C28.1422868,60.3388608 27.7151335,56.3839173 27.7151335,56.3839173 C27.7151335,56.3839173 28.3310289,58.9063938 28.7827245,58.7822896 C28.9989306,58.7225791 28.6272898,57.3275776 28.5057469,55.5889479 C28.4046559,54.1471146 28.0867744,52.6824508 28.0867744,52.6824508 C28.3053179,52.6075199 28.4403007,52.592885 28.4403007,52.592885 Z" id="Fill-9" fill="#000000"></path>
                <path d="M3.05534369,21.6320025 C3.05534369,21.6320025 19.0569371,41.8890873 23.9215758,44.694896 L23.9215758,42.7941113 C19.610308,39.6429182 7.15683303,24.3131217 3.9680843,20.3511535 C3.59176871,20.6965378 3.25927869,21.1191946 3.05534369,21.6320025" id="Fill-12" fill="#FF645B"></path>
                <path d="M5.24890129,19.4899171 C4.84044695,19.6942207 4.37881757,19.9757968 3.9686102,20.3516218 C7.15677459,24.3130046 19.6102496,39.6428011 23.9215173,42.7945796 L23.9215173,40.6303662 C19.9404022,37.4340975 8.52530117,23.5197914 5.24890129,19.4899171" id="Fill-14" fill="#FFFFFF"></path>
                <path d="M23.9212836,40.6305418 L23.9212836,38.658924 L6.35248767,19.052801 C6.35248767,19.052801 5.86222559,19.1833446 5.24866756,19.4900927 C8.52506743,23.519967 19.9401685,37.4342731 23.9212836,40.6305418" id="Fill-16" fill="#7AB7FF"></path>
            </g>
        </g>
    </g>
</svg>