<?xml version="1.0" encoding="UTF-8" standalone="no"?>
<svg width="140px" height="140px" viewBox="0 0 140 140" version="1.1" xmlns="http://www.w3.org/2000/svg" xmlns:xlink="http://www.w3.org/1999/xlink">
    <!-- Generator: Sketch 41.2 (35397) - http://www.bohemiancoding.com/sketch -->
    <title>Artboard 4 Copy 8</title>
    <desc>Created with Sketch.</desc>
    <defs>
        <polygon id="path-1" points="24.9155593 0.621944005 0.720836445 0.621944005 0.720836445 52.1896287 24.9155593 52.1896287 24.9155593 0.621944005"></polygon>
    </defs>
    <g id="Page-1" stroke="none" stroke-width="1" fill="none" fill-rule="evenodd">
        <g id="Artboard-4-Copy-8">
            <g id="Group-8" transform="translate(33.000000, 37.000000)">
                <polygon id="Fill-1" fill="#000000" points="63.3811199 43.3654986 59.8684738 56.049311 65.6130964 63.6815002 73.2118478 43.3654986"></polygon>
                <path d="M32.1831046,53.8272823 C32.1831046,53.8272823 32.0618924,57.9142235 32.7431886,59.9472447 C33.5130951,62.2494407 34.9994075,64.6059731 36.6637764,65.6174681 C38.9676443,67.0151702 45.207983,67.6479815 47.4491549,66.0479804 C49.8433049,64.3393063 51.7342153,55.5008467 51.7342153,55.5008467 L48.0761146,55.2082655 C48.0761146,55.2082655 46.7695306,61.5806837 45.2514522,62.4743102 C44.135464,63.130528 40.5049494,63.1681456 39.546955,62.2277061 C38.241207,60.9470364 36.6637764,54.2109816 36.6637764,54.2109816 L32.1831046,53.8272823 Z" id="Fill-2" fill="#000000"></path>
                <path d="M18.7589782,4.64764526 C4.12991898,15.3218428 0.250292469,33.3381563 0.764399409,45.0748415 C0.822079699,46.4140274 3.11257241,52.3057765 3.11257241,52.3057765 L4.55708751,50.0863393 L25.3821803,2.35548067 L26.6837486,0.737924685 C26.6837486,0.737924685 20.0237649,3.72476061 18.7589782,4.64764526" id="Fill-4" fill="#FF645B"></path>
                <path d="M21.7337765,4.57416559 C7.10388134,15.2483632 1.25727331,35.4021911 1.76970836,47.1397123 C1.8282246,48.4788982 3.11307397,52.355181 3.11307397,52.355181 L8.50158346,52.355181 L29.3266763,4.59840803 L26.6842502,0.750547473 C26.6842502,0.750547473 22.9985632,3.65128094 21.7337765,4.57416559" id="Fill-6" fill="#FEC70D"></path>
                <path d="M9.05581582,37.4536032 C8.80921167,28.5850495 12.7297996,19.433946 18.7586439,17.0556789 C21.2581231,16.0692624 21.8232228,16.5181655 21.8232228,16.5181655 C21.8232228,16.5181655 22.1818437,22.9098105 19.0386859,29.3190103 C15.8604182,35.8017734 9.65268143,41.7779531 9.65268143,41.7779531 C9.65268143,41.7779531 9.0808942,38.3580971 9.05581582,37.4536032" id="Fill-8" fill="#FFFFFF"></path>
                <polygon id="Fill-10" fill="#FEC70D" points="26.6841666 0.738091874 63.3805348 43.2752165 59.8678887 56.4313384 3.11299038 52.3059437 18.3614858 27.7567104"></polygon>
                <g id="Group-14" transform="translate(2.391903, 0.115897)">
                    <mask id="mask-2" fill="white">
                        <use xlink:href="#path-1"></use>
                    </mask>
                    <g id="Clip-13"></g>
                    <path d="M0.720836445,52.1896287 C0.720836445,52.1896287 9.6320234,45.6542009 11.9434148,42.822851 C14.6284741,39.5325666 19.4418526,32.7522066 21.3929511,28.9804172 C26.9177198,18.299532 24.2920127,0.621776816 24.2920127,0.621776816 L19.014684,17.7570029 L14.6552244,29.7578472 L0.720836445,52.1896287 Z" id="Fill-12" fill="#FF645B" mask="url(#mask-2)"></path>
                </g>
            </g>
        </g>
    </g>
</svg>