<?xml version="1.0" encoding="UTF-8" standalone="no"?>
<svg width="141px" height="36px" viewBox="0 0 141 36" version="1.1" xmlns="http://www.w3.org/2000/svg" xmlns:xlink="http://www.w3.org/1999/xlink">
    <!-- Generator: Sketch 39.1 (31720) - http://www.bohemiancoding.com/sketch -->
    <title>logo</title>
    <desc>Created with Sketch.</desc>
    <defs>
        <polygon id="path-1" points="0 35.56296 140.616977 35.56296 140.616977 0.553790769 0 0.553790769"></polygon>
    </defs>
    <g id="Page-1" stroke="none" stroke-width="1" fill="none" fill-rule="evenodd">
        <g id="Desktop-registro" transform="translate(-27.000000, -19.000000)">
            <g id="header-copy">
                <g id="logo" transform="translate(27.000000, 19.000000)">
                    <polygon id="Fill-1" fill="#9BA9C1" points="32.3409701 11.0925969 34.7709241 11.0925969 31.645154 19.9652123 29.2589586 19.9652123 26.1558782 11.0925969 28.6960391 11.0925969 30.4987862 17.6368431"></polygon>
                    <path d="M41.4599966,17.5972985 C41.8143874,17.1148985 41.9915828,16.4297908 41.9915828,15.5414215 C41.9915828,14.6519446 41.8143874,13.9679446 41.4599966,13.4883138 C41.1050655,13.0092369 40.5967092,12.7694215 39.9354678,12.7694215 C39.2736862,12.7694215 38.7642494,13.0092369 38.4071575,13.4883138 C38.0500655,13.9679446 37.8707092,14.6519446 37.8707092,15.5414215 C37.8707092,16.4297908 38.0500655,17.1148985 38.4071575,17.5972985 C38.7642494,18.0796985 39.2736862,18.3206215 39.9354678,18.3206215 C40.5967092,18.3206215 41.1050655,18.0796985 41.4599966,17.5972985 L41.4599966,17.5972985 Z M43.2703069,18.8794523 C42.5399161,19.8043754 41.4308241,20.2662831 39.9435713,20.2662831 C38.4557782,20.2662831 37.3472264,19.8043754 36.6162954,18.8794523 C35.8864448,17.9550831 35.5207092,16.8424062 35.5207092,15.5414215 C35.5207092,14.2614831 35.8864448,13.1526831 36.6162954,12.2144677 C37.3472264,11.2762523 38.4557782,10.8076985 39.9435713,10.8076985 C41.4308241,10.8076985 42.5399161,11.2762523 43.2703069,12.2144677 C44.0006977,13.1526831 44.3658931,14.2614831 44.3658931,15.5414215 C44.3658931,16.8424062 44.0006977,17.9550831 43.2703069,18.8794523 L43.2703069,18.8794523 Z" id="Fill-2" fill="#9BA9C1"></path>
                    <path d="M45.096554,12.82608 L45.096554,11.1739569 L46.3028874,11.1739569 L46.3028874,8.69937231 L48.5426805,8.69937231 L48.5426805,11.1739569 L49.9478184,11.1739569 L49.9478184,12.82608 L48.5426805,12.82608 L48.5426805,17.5149415 C48.5426805,17.8788185 48.5875195,18.1047877 48.6777379,18.1945108 C48.7674161,18.2842338 49.0429333,18.3290954 49.5032092,18.3290954 C49.5718184,18.3290954 49.6447494,18.3279877 49.7220023,18.3252185 C49.7987149,18.3224492 49.8738069,18.3180185 49.9478184,18.31248 L49.9478184,20.0465723 L48.8760023,20.0870031 C47.8068874,20.1246646 47.0759563,19.9352492 46.6848299,19.5176492 C46.4303816,19.2518031 46.3028874,18.8414031 46.3028874,18.2881108 L46.3028874,12.82608 L45.096554,12.82608 Z" id="Fill-4" fill="#9BA9C1"></path>
                    <path d="M56.2126483,15.6507508 C56.0678667,15.7432431 55.9214644,15.8174585 55.7739816,15.8745046 C55.6264989,15.9315508 55.4239126,15.98472 55.166223,16.0334585 L54.6513839,16.1314892 C54.1678782,16.2178892 53.8210506,16.3236738 53.6109011,16.4482892 C53.2548897,16.6604123 53.0760736,16.9888431 53.0760736,17.4335815 C53.0760736,17.8295815 53.1852,18.1164738 53.4029126,18.2920431 C53.6206253,18.46872 53.8853379,18.5573354 54.1970506,18.5573354 C54.6913609,18.5573354 55.1473149,18.4105662 55.563292,18.1170277 C55.9798092,17.8240431 56.1964414,17.2901354 56.2126483,16.5136431 L56.2126483,15.6507508 Z M54.8285793,14.5679815 C55.2499586,14.5142585 55.5514069,14.4461354 55.7329241,14.36472 C56.0581425,14.2234892 56.2207517,14.0036123 56.2207517,13.7056431 C56.2207517,13.3417662 56.0959586,13.0908738 55.8458322,12.9524123 C55.5967862,12.8139508 55.2305103,12.74472 54.7480851,12.74472 C54.2056943,12.74472 53.822131,12.8809662 53.5968552,13.1517969 C53.4358667,13.3528431 53.3283609,13.6242277 53.2748782,13.9659508 L51.0918092,13.9659508 C51.1393494,13.1900123 51.3516598,12.5525354 51.7292805,12.0524123 C52.3300161,11.2714892 53.3613149,10.8804738 54.8237172,10.8804738 C55.7750621,10.8804738 56.6199816,11.0732123 57.3595563,11.4586892 C58.0980506,11.8436123 58.4675678,12.5708123 58.4675678,13.6402892 L58.4675678,17.7099508 C58.4675678,17.9924123 58.4729701,18.3341354 58.4832345,18.7362277 C58.4994414,19.0397354 58.5442805,19.24632 58.618292,19.35432 C58.6928437,19.4628738 58.8035908,19.5525969 58.9516138,19.6229354 L58.9516138,19.9652123 L56.4908667,19.9652123 C56.4217172,19.7857662 56.3736368,19.6185046 56.3477057,19.4601046 C56.3212345,19.3028123 56.3001655,19.12392 56.2839586,18.9228738 C55.9700851,19.2706892 55.608131,19.5664431 55.1980966,19.8106892 C54.708108,20.0986892 54.1543724,20.2421354 53.5363494,20.2421354 C52.7486943,20.2421354 52.0977172,20.0122892 51.5844989,19.5537046 C51.0707402,19.0956738 50.8130506,18.4454585 50.8130506,17.6041662 C50.8130506,16.5136431 51.2268667,15.7238585 52.0528782,15.2353662 C52.506131,14.9700738 53.1733149,14.7801046 54.0528092,14.6660123 L54.8285793,14.5679815 Z" id="Fill-6" fill="#9BA9C1"></path>
                    <mask id="mask-2" fill="white">
                        <use xlink:href="#path-1"></use>
                    </mask>
                    <g id="Clip-9"></g>
                    <path d="M60.4765747,19.9649908 L62.770931,19.9649908 L62.770931,11.0923754 L60.4765747,11.0923754 L60.4765747,19.9649908 Z M60.4765747,10.0345292 L62.770931,10.0345292 L62.770931,7.89336 L60.4765747,7.89336 L60.4765747,10.0345292 Z" id="Fill-8" fill="#9BA9C1" mask="url(#mask-2)"></path>
                    <path d="M71.9416034,11.6015262 C72.5077644,12.0811569 72.7913851,12.8781415 72.7913851,13.9902646 L72.7913851,19.9651569 L70.4732586,19.9651569 L70.4732586,14.5679262 C70.4732586,14.1015877 70.4127529,13.7432492 70.2917414,13.4940185 C70.0713276,13.0376492 69.6504885,12.8100185 69.0303046,12.8100185 C68.2685805,12.8100185 67.7456379,13.1434338 67.4620172,13.8113723 C67.3150747,14.1636185 67.2410632,14.6138954 67.2410632,15.1627569 L67.2410632,19.9651569 L64.9785805,19.9651569 L64.9785805,11.1086031 L67.1697529,11.1086031 L67.1697529,12.4029415 C67.4598563,11.9471262 67.7337529,11.6186954 67.9919828,11.4176492 C68.4555,11.0598646 69.0438103,10.8804185 69.7552931,10.8804185 C70.645592,10.8804185 71.3749023,11.1207877 71.9416034,11.6015262" id="Fill-10" fill="#9BA9C1" mask="url(#mask-2)"></path>
                    <path d="M74.0062,12.82608 L74.0062,11.1739569 L75.2130736,11.1739569 L75.2130736,8.69937231 L77.4523264,8.69937231 L77.4523264,11.1739569 L78.8574644,11.1739569 L78.8574644,12.82608 L77.4523264,12.82608 L77.4523264,17.5149415 C77.4523264,17.8788185 77.4971655,18.1047877 77.5873839,18.1945108 C77.6770621,18.2842338 77.9525793,18.3290954 78.4128552,18.3290954 C78.4814644,18.3290954 78.5543954,18.3279877 78.6316483,18.3252185 C78.7083609,18.3224492 78.7834529,18.3180185 78.8574644,18.31248 L78.8574644,20.0465723 L77.7856483,20.0870031 C76.7165333,20.1246646 75.9856023,19.9352492 75.5944759,19.5176492 C75.3400276,19.2518031 75.2130736,18.8414031 75.2130736,18.2881108 L75.2130736,12.82608 L74.0062,12.82608 Z" id="Fill-11" fill="#9BA9C1" mask="url(#mask-2)"></path>
                    <path d="M82.564954,13.27608 C82.2451379,13.6139262 82.0441724,14.0719569 81.9620575,14.6496185 L85.8608966,14.6496185 C85.8192989,14.0337415 85.6188736,13.5662954 85.2574598,13.2478338 C84.8971264,12.9288185 84.4498161,12.7693108 83.916069,12.7693108 C83.3347816,12.7693108 82.8847701,12.9382338 82.564954,13.27608 M85.9505747,11.2722646 C86.5540115,11.5491877 87.0526437,11.9867262 87.445931,12.5843262 C87.8003218,13.1115877 88.0299195,13.7230338 88.1358046,14.4186646 C88.1963103,14.8268492 88.2211609,15.4133723 88.2098161,16.1798954 L81.9064138,16.1798954 C81.942069,17.0699262 82.2435172,17.6941108 82.8118391,18.0518954 C83.1575862,18.2745415 83.573023,18.3864185 84.0597701,18.3864185 C84.5751494,18.3864185 84.9938276,18.2496185 85.3158046,17.9787877 C85.4919195,17.8325723 85.6464253,17.6287569 85.7814828,17.3684492 L88.0915057,17.3684492 C88.0304598,17.8946031 87.7517011,18.4296185 87.253069,18.9718338 C86.4772989,19.8347262 85.3925172,20.2661723 83.9965632,20.2661723 C82.8453333,20.2661723 81.8291609,19.9022954 80.9485862,19.1745415 C80.0685517,18.4467877 79.6277241,17.2626646 79.6277241,15.6221723 C79.6277241,14.0852492 80.0253333,12.9066646 80.8205517,12.0869723 C81.6146897,11.2667262 82.6465287,10.8563262 83.9149885,10.8563262 C84.668069,10.8563262 85.3465977,10.9947877 85.9505747,11.2722646" id="Fill-12" fill="#9BA9C1" mask="url(#mask-2)"></path>
                    <polygon id="Fill-13" fill="#9BA9C1" mask="url(#mask-2)" points="89.4026437 19.9649908 91.6651264 19.9649908 91.6651264 7.96646769 89.4026437 7.96646769"></polygon>
                    <path d="M93.9038391,19.9649908 L96.1987356,19.9649908 L96.1987356,11.0923754 L93.9038391,11.0923754 L93.9038391,19.9649908 Z M93.9038391,10.0345292 L96.1987356,10.0345292 L96.1987356,7.89336 L93.9038391,7.89336 L93.9038391,10.0345292 Z" id="Fill-14" fill="#9BA9C1" mask="url(#mask-2)"></path>
                    <path d="M103.442408,17.4456 C103.805983,17.0363077 103.98804,16.3833231 103.98804,15.4877538 C103.98804,14.6470154 103.814626,14.0067692 103.46996,13.5670154 C103.124213,13.1272615 102.662316,12.9079385 102.082109,12.9079385 C101.291753,12.9079385 100.746121,13.2900923 100.445753,14.0555077 C100.286925,14.4620308 100.208592,14.9643692 100.208592,15.5614154 C100.208592,16.0770462 100.292868,16.5356308 100.46142,16.9366154 C100.766649,17.6859692 101.314983,18.0603692 102.105879,18.0603692 C102.633144,18.0603692 103.078833,17.8554462 103.442408,17.4456 M102.6715,11.0841231 C103.220914,11.3178462 103.665523,11.7459692 104.003707,12.3701538 L104.003707,11.0924308 L106.211086,11.0924308 L106.211086,19.5097846 C106.211086,20.6545846 106.023086,21.5169231 105.647086,22.0973538 C105.001511,23.0959385 103.762764,23.5955077 101.931385,23.5955077 C100.824994,23.5955077 99.9222701,23.3728615 99.2237529,22.9275692 C98.5252356,22.4828308 98.1389713,21.8187692 98.0649598,20.9337231 L100.526247,20.9337231 C100.589454,21.2051077 100.692638,21.4006154 100.835259,21.5196923 C101.078902,21.7312615 101.489477,21.8376 102.066443,21.8376 C102.881109,21.8376 103.426741,21.5579077 103.701718,20.9985231 C103.881615,20.6412923 103.971833,20.0387077 103.971833,19.1913231 L103.971833,18.6219692 C103.754661,19.0019077 103.521822,19.2871385 103.273316,19.4765538 C102.823305,19.8299077 102.238236,20.0054769 101.518649,20.0054769 C100.406856,20.0054769 99.5187184,19.6050462 98.8547759,18.8052923 C98.1902931,18.0044308 97.8580517,16.9205538 97.8580517,15.5531077 C97.8580517,14.2344 98.1778678,13.1261538 98.8175,12.2278154 C99.4571322,11.3300308 100.363638,10.8803077 101.537557,10.8803077 C101.970822,10.8803077 102.348983,10.9484308 102.6715,11.0841231" id="Fill-15" fill="#9BA9C1" mask="url(#mask-2)"></path>
                    <path d="M110.577494,13.27608 C110.257678,13.6139262 110.056713,14.0719569 109.974057,14.6496185 L113.873437,14.6496185 C113.831839,14.0337415 113.630874,13.5662954 113.27054,13.2478338 C112.909667,12.9288185 112.462356,12.7693108 111.928069,12.7693108 C111.347322,12.7693108 110.89677,12.9382338 110.577494,13.27608 M113.962575,11.2722646 C114.566011,11.5491877 115.064644,11.9867262 115.458471,12.5843262 C115.812862,13.1115877 116.043,13.7230338 116.147805,14.4186646 C116.208851,14.8268492 116.233161,15.4133723 116.222897,16.1798954 L109.918954,16.1798954 C109.954069,17.0699262 110.256057,17.6941108 110.824379,18.0518954 C111.169586,18.2745415 111.585563,18.3864185 112.07177,18.3864185 C112.587149,18.3864185 113.005828,18.2496185 113.328345,17.9787877 C113.50392,17.8325723 113.659506,17.6287569 113.794023,17.3684492 L116.104586,17.3684492 C116.04354,17.8946031 115.763701,18.4296185 115.265609,18.9718338 C114.490379,19.8347262 113.405057,20.2661723 112.009644,20.2661723 C110.857333,20.2661723 109.841161,19.9022954 108.960586,19.1745415 C108.080552,18.4467877 107.640264,17.2626646 107.640264,15.6221723 C107.640264,14.0852492 108.037333,12.9066646 108.832552,12.0869723 C109.62723,11.2667262 110.659069,10.8563262 111.928069,10.8563262 C112.680609,10.8563262 113.359138,10.9947877 113.962575,11.2722646" id="Fill-16" fill="#9BA9C1" mask="url(#mask-2)"></path>
                    <path d="M124.345739,11.6015262 C124.91244,12.0811569 125.195521,12.8781415 125.195521,13.9902646 L125.195521,19.9651569 L122.877394,19.9651569 L122.877394,14.5679262 C122.877394,14.1015877 122.816889,13.7432492 122.695337,13.4940185 C122.475463,13.0376492 122.055164,12.8100185 121.43444,12.8100185 C120.672716,12.8100185 120.150314,13.1434338 119.866153,13.8113723 C119.71921,14.1636185 119.645739,14.6138954 119.645739,15.1627569 L119.645739,19.9651569 L117.382176,19.9651569 L117.382176,11.1086031 L119.574429,11.1086031 L119.574429,12.4029415 C119.864532,11.9471262 120.138429,11.6186954 120.396118,11.4176492 C120.860176,11.0598646 121.447946,10.8804185 122.159429,10.8804185 C123.050268,10.8804185 123.779038,11.1207877 124.345739,11.6015262" id="Fill-17" fill="#9BA9C1" mask="url(#mask-2)"></path>
                    <path d="M126.410606,12.82608 L126.410606,11.1739569 L127.616939,11.1739569 L127.616939,8.69937231 L129.856732,8.69937231 L129.856732,11.1739569 L131.26187,11.1739569 L131.26187,12.82608 L129.856732,12.82608 L129.856732,17.5149415 C129.856732,17.8788185 129.901031,18.1047877 129.99179,18.1945108 C130.081468,18.2842338 130.356985,18.3290954 130.817261,18.3290954 C130.88587,18.3290954 130.958801,18.3279877 131.036054,18.3252185 C131.112226,18.3224492 131.187859,18.3180185 131.26187,18.31248 L131.26187,20.0465723 L130.189514,20.0870031 C129.120399,20.1246646 128.390008,19.9352492 127.998882,19.5176492 C127.744433,19.2518031 127.616939,18.8414031 127.616939,18.2881108 L127.616939,12.82608 L126.410606,12.82608 Z" id="Fill-18" fill="#9BA9C1" mask="url(#mask-2)"></path>
                    <path d="M134.96936,13.27608 C134.649544,13.6139262 134.448578,14.0719569 134.366463,14.6496185 L138.265302,14.6496185 C138.223705,14.0337415 138.022739,13.5662954 137.662406,13.2478338 C137.300992,12.9288185 136.854222,12.7693108 136.319934,12.7693108 C135.739187,12.7693108 135.289176,12.9382338 134.96936,13.27608 M138.35444,11.2722646 C138.957877,11.5491877 139.457049,11.9867262 139.849797,12.5843262 C140.204728,13.1115877 140.434325,13.7230338 140.54021,14.4186646 C140.600716,14.8268492 140.625567,15.4133723 140.614222,16.1798954 L134.31082,16.1798954 C134.345934,17.0699262 134.647383,17.6941108 135.216245,18.0518954 C135.561452,18.2745415 135.977429,18.3864185 136.463636,18.3864185 C136.979555,18.3864185 137.398233,18.2496185 137.72021,17.9787877 C137.895785,17.8325723 138.051371,17.6287569 138.185889,17.3684492 L140.496452,17.3684492 C140.434866,17.8946031 140.155567,18.4296185 139.657475,18.9718338 C138.881705,19.8347262 137.796383,20.2661723 136.400969,20.2661723 C135.249739,20.2661723 134.233567,19.9022954 133.352992,19.1745415 C132.472417,18.4467877 132.03213,17.2626646 132.03213,15.6221723 C132.03213,14.0852492 132.429739,12.9066646 133.224417,12.0869723 C134.019095,11.2667262 135.050394,10.8563262 136.319394,10.8563262 C137.072475,10.8563262 137.751003,10.9947877 138.35444,11.2722646" id="Fill-19" fill="#9BA9C1" mask="url(#mask-2)"></path>
                    <path d="M11.6914391,28.1595877 L11.6914391,16.2347262 C11.1711977,16.47288 10.558577,16.60968 9.85195632,16.60968 L8.93518621,16.60968 L3.69333563,21.9847569 L14.003623,32.5554646 L14.003623,28.9200185 L12.4342552,28.9200185 C12.0388069,28.9200185 11.6914391,28.5627877 11.6914391,28.1595877" id="Fill-20" fill="#9BA9C1" mask="url(#mask-2)"></path>
                    <path d="M16.1812897,24.5417538 C15.3396115,24.5417538 14.6578414,23.8444615 14.6578414,22.9799077 C14.6578414,22.1186769 15.3396115,21.4191692 16.1812897,21.4191692 C17.0229678,21.4191692 17.7041977,22.1186769 17.7041977,22.9799077 C17.7041977,23.8444615 17.0229678,24.5417538 16.1812897,24.5417538 L16.1812897,24.5417538 Z M19.6149908,19.3101231 C18.2465885,20.3397231 16.2158644,20.4737538 14.5287264,18.7485231 L13.1749103,17.3594769 L13.1749103,27.3984923 L14.7448184,27.3984923 C15.1402667,27.3984923 15.4860138,27.7540615 15.4860138,28.1594769 L15.4860138,30.3067385 C16.1218644,30.3183692 17.1461402,30.2491385 17.7690253,29.7833538 C18.6528414,29.1242769 19.4588644,30.2469231 18.818692,30.8533846 C17.8630253,31.7594769 16.3212092,31.8569538 15.4860138,31.8370154 L15.4860138,34.0723385 L16.9403126,35.5627385 L26.2052552,26.0664923 L19.6149908,19.3101231 Z" id="Fill-21" fill="#9BA9C1" mask="url(#mask-2)"></path>
                    <path d="M14.9639356,5.23096615 C18.2944529,5.24259692 18.4678667,0.560381538 14.9617747,0.555950769 L7.30617701,0.553735385 C7.69190115,0.863889231 8.07762529,1.22610462 8.49036092,1.64592 L11.9807862,5.22432 L14.9639356,5.23096615 Z" id="Fill-22" fill="#9BA9C1" mask="url(#mask-2)"></path>
                    <path d="M18.8030793,14.3685969 L7.44042414,2.72121231 C6.01367701,1.25628923 5.08394138,0.690258462 3.1428954,0.588350769 C2.92626322,0.580043077 2.69666552,0.573396923 2.45356207,0.573396923 L-0.000162068965,0.573396923 L-0.000162068965,6.47075077 L4.6522977,6.47075077 L7.01634368,8.89825846 L9.85201034,8.89604308 C13.7838034,8.89604308 14.7994356,12.8842892 13.0906885,15.1251508 L15.5768264,17.6739508 C17.9338494,20.0881662 21.2827345,16.9124123 18.8030793,14.3685969" id="Fill-23" fill="#9BA9C1" mask="url(#mask-2)"></path>
                    <path d="M9.85179425,15.0901477 C13.1925759,15.0901477 13.3686908,10.4151323 9.85179425,10.4151323 L0.000162068965,10.4151323 L0.000162068965,15.0901477 L9.85179425,15.0901477 Z" id="Fill-24" fill="#9BA9C1" mask="url(#mask-2)"></path>
                </g>
            </g>
        </g>
    </g>
</svg>