<?xml version="1.0" encoding="UTF-8" standalone="no"?>
<svg width="275px" height="365px" viewBox="0 0 275 365" version="1.1" xmlns="http://www.w3.org/2000/svg" xmlns:xlink="http://www.w3.org/1999/xlink">
    <!-- Generator: Sketch 41.2 (35397) - http://www.bohemiancoding.com/sketch -->
    <title>Group 3</title>
    <desc>Created with Sketch.</desc>
    <defs>
        <polygon id="path-1" points="0 364.480774 275.206574 364.480774 275.206574 0.201042939 0 0.201042939"></polygon>
        <polygon id="path-3" points="24.7373391 0.0918925135 4.57198944 0.406177613 0.276411044 0.252406908 0.276411044 20.9912492 8.21970472 21.3719932 24.7373391 20.9920666 24.7373391 0.0918925135"></polygon>
    </defs>
    <g id="Page-1" stroke="none" stroke-width="1" fill="none" fill-rule="evenodd">
        <g id="Paso-1-Copy-47" transform="translate(-733.000000, -91.000000)">
            <g id="Group-3" transform="translate(733.000000, 91.000000)">
                <g id="Page-1" transform="translate(0.000000, 0.010973)">
                    <g id="Group-33" transform="translate(0.000000, 0.269421)">
                        <path d="M102.940524,281.952728 C102.940524,281.952728 59.5098317,201.432109 56.4906701,197.852772 C45.1188454,184.384891 23.9741945,135.991518 23.9741945,135.991518 L15.4216566,120.027832 L96.0974417,121.718879 L147.659883,161.583383 C146.881423,167.629596 150.263515,184.305993 151.975601,192.15108 C155.547048,208.535554 176.775857,241.756852 176.775857,241.756852 L225.240238,324.144722 L140.572217,361.776415 L102.940524,281.952728 Z" id="Fill-1" fill="#F6C9BB"></path>
                        <path d="M95.2227264,184.306256 L45.4512688,184.306256 C32.2358619,184.306256 21.5215202,173.591915 21.5215202,160.373878 L21.5215202,37.9084778 C21.5215202,24.690441 32.2358619,13.9760992 45.4512688,13.9760992 L95.2227264,13.9760992 C108.438133,13.9760992 119.155105,24.690441 119.155105,37.9084778 L119.155105,160.373878 C119.155105,173.591915 108.438133,184.306256 95.2227264,184.306256" id="Fill-3" fill="#732625"></path>
                        <path d="M91.6399704,184.306256 L40.2011361,184.306256 C27.4459673,184.306256 17.1050758,173.962735 17.1050758,161.207566 L17.1050758,37.0747895 C17.1050758,24.3169907 27.4459673,13.9760992 40.2011361,13.9760992 L91.6399704,13.9760992 C104.397769,13.9760992 114.738661,24.3169907 114.738661,37.0747895 L114.738661,161.207566 C114.738661,173.962735 104.397769,184.306256 91.6399704,184.306256" id="Fill-5" fill="#FFFFFF"></path>
                        <mask id="mask-2" fill="white">
                            <use xlink:href="#path-1"></use>
                        </mask>
                        <g id="Clip-8"></g>
                        <polygon id="Fill-7" fill="#B2E1FF" mask="url(#mask-2)" points="22.0256781 160.277096 109.815428 160.277096 109.815428 33.3118832 22.0256781 33.3118832"></polygon>
                        <path d="M68.3482432,167.093616 C64.776796,165.841769 60.4032195,167.517035 58.962017,171.340956 C57.5024049,175.212215 59.7588863,179.393807 63.2093567,180.729812 C67.4803658,182.381409 72.6350319,179.307019 73.2662155,174.917663 C73.7396032,171.640768 71.6040987,168.235007 68.3482432,167.093616" id="Fill-9" fill="#2E4358" mask="url(#mask-2)"></path>
                        <path d="M78.4390282,24.0345361 L53.4020783,24.0345361 C52.2948771,24.0345361 51.3928105,23.1324695 51.3928105,22.0226383 C51.3928105,20.9128071 52.2948771,20.0133705 53.4020783,20.0133705 L78.4390282,20.0133705 C79.5514893,20.0133705 80.450926,20.9128071 80.450926,22.0226383 C80.450926,23.1324695 79.5514893,24.0345361 78.4390282,24.0345361" id="Fill-10" fill="#2E4358" mask="url(#mask-2)"></path>
                        <path d="M10.3614049,37.4229924 C9.82752881,37.4598115 3.86021376,37.9358291 1.38018816,42.3409647 C-0.408165401,45.5205521 0.675366463,48.8684552 2.23491597,53.6733404 C3.88914301,58.772778 5.49077142,63.7091598 10.3614049,66.0760984 C15.210999,68.4298873 20.0369237,66.6467936 20.410374,66.5021473 C21.5991031,66.0419093 25.2336688,64.6348958 26.3987285,61.3685206 C27.2245271,59.0462909 26.0962864,57.7418448 22.5485085,49.3970715 C19.4504489,42.1121606 19.0743687,40.1975704 16.560154,38.7063991 C13.9986005,37.1862986 11.3265899,37.362504 10.3614049,37.4229924" id="Fill-11" fill="#F6C9BB" mask="url(#mask-2)"></path>
                        <path d="M18.484738,73.7720675 C16.0362716,71.7233507 13.324812,69.519468 9.50615116,69.7088231 C6.45017051,69.863989 3.38104021,71.5129562 1.59531657,74.1981165 C-1.29497837,78.5427637 0.540713959,83.5501536 0.953613238,84.6757644 C2.54472192,89.0283014 6.02938144,91.3452712 10.7869279,94.511709 C14.442533,96.9443958 16.1309491,98.4171576 18.2717135,98.5749535 C22.1219336,98.8537263 26.4902501,96.4894176 28.1076581,93.0126479 C31.7790428,85.1281127 19.7444753,74.8266702 18.484738,73.7720675" id="Fill-12" fill="#F6C9BB" mask="url(#mask-2)"></path>
                        <path d="M28.1081841,108.194981 C26.1015462,103.860853 21.798978,102.277634 18.7009184,101.138874 C14.8769977,99.7344904 10.5297206,98.1381218 6.93986379,100.497171 C3.46835394,102.777321 2.63203565,107.490159 3.08964377,110.761794 C4.00223008,117.236686 10.2877669,120.108571 11.4291572,120.597739 C16.0078683,122.554408 20.1894597,121.447207 21.6937807,121.023788 C23.8713641,120.413643 26.5381149,119.661483 28.1081841,117.176197 C30.4514533,113.460104 28.4264059,108.886653 28.1081841,108.194981" id="Fill-13" fill="#F6C9BB" mask="url(#mask-2)"></path>
                        <path d="M116.339237,56.1691456 C114.987452,50.60947 112.233914,41.8702069 118.619388,38.4434059 C123.040303,36.0685776 131.492904,45.3127875 133.56003,49.4680796 C142.567546,67.5725295 144.847697,74.4129819 147.698543,95.2262614 C151.443566,122.561772 148.747886,122.069974 147.643314,166.16078 L119.413627,145.999723 L119.413627,111.189947 C119.413627,111.189947 125.420391,101.906288 125.593967,96.6516844 C125.920078,86.5816759 117.977685,62.9044007 116.339237,56.1691456" id="Fill-14" fill="#F6C9BB" mask="url(#mask-2)"></path>
                        <path d="M15.633892,83.036002 C15.1289452,83.3673734 13.5062773,84.5140236 12.7830461,86.6731975 C11.6732149,89.9842816 13.6062147,92.8903561 14.0664527,93.5846581 C14.6397779,94.4472757 16.2492961,96.8694428 18.984425,97.2218536 C22.4348954,97.6636822 26.0037128,94.5945519 26.8242515,90.9494665 C27.3686473,88.5246695 26.8321413,85.2398848 24.2574381,83.2516564 C21.5722778,81.1766403 17.9745313,81.5185314 15.633892,83.036002" id="Fill-15" fill="#E48374" mask="url(#mask-2)"></path>
                        <path d="M15.633892,83.036002 C15.1289452,83.3673734 13.5062773,84.5140236 12.7830461,86.6731975 C11.6732149,89.9842816 13.6062147,92.8903561 14.0664527,93.5846581 C14.6397779,94.4472757 16.2492961,96.8694428 18.984425,97.2218536 C22.4348954,97.6636822 26.0037128,94.5945519 26.8242515,90.9494665 C27.3686473,88.5246695 26.8321413,85.2398848 24.2574381,83.2516564 C21.5722778,81.1766403 17.9745313,81.5185314 15.633892,83.036002 Z" id="Stroke-16" stroke="#F6C9BB" stroke-width="0.738" mask="url(#mask-2)"></path>
                        <path d="M13.1401908,51.8928767 C10.4103217,52.5319501 7.53054646,54.8515498 7.29648253,57.7365849 C6.93881182,62.1154212 12.7562208,66.7125419 17.7004924,65.4317651 C20.8248512,64.627006 23.6520278,61.4631982 23.4021843,58.1652638 C23.0734429,53.8179867 17.5321767,50.8619434 13.1401908,51.8928767" id="Fill-17" fill="#E48374" mask="url(#mask-2)"></path>
                        <path d="M13.1401908,51.8928767 C10.4103217,52.5319501 7.53054646,54.8515498 7.29648253,57.7365849 C6.93881182,62.1154212 12.7562208,66.7125419 17.7004924,65.4317651 C20.8248512,64.627006 23.6520278,61.4631982 23.4021843,58.1652638 C23.0734429,53.8179867 17.5321767,50.8619434 13.1401908,51.8928767 Z" id="Stroke-18" stroke="#F6C9BB" stroke-width="0.738" mask="url(#mask-2)"></path>
                        <path d="M16.561206,110.619515 C17.4290834,107.542495 20.6980885,105.485888 23.1176257,106.059213 C26.765341,106.919201 28.7377898,113.817512 25.9684717,116.891902 C24.6876949,118.314695 22.4364734,118.866981 20.5534423,118.317325 C17.5448004,117.441558 15.6591394,113.817512 16.561206,110.619515" id="Fill-19" fill="#E48374" mask="url(#mask-2)"></path>
                        <path d="M16.561206,110.619515 C17.4290834,107.542495 20.6980885,105.485888 23.1176257,106.059213 C26.765341,106.919201 28.7377898,113.817512 25.9684717,116.891902 C24.6876949,118.314695 22.4364734,118.866981 20.5534423,118.317325 C17.5448004,117.441558 15.6591394,113.817512 16.561206,110.619515 Z" id="Stroke-20" stroke="#F6C9BB" stroke-width="0.738" mask="url(#mask-2)"></path>
                        <polygon id="Fill-21" fill="#99CCF9" mask="url(#mask-2)" points="79.0991411 240.901072 84.7850534 275.174342 124.891512 364.286948 274.852848 363.603166 178.999727 214.851598 167.367539 207.587727"></polygon>
                        <polygon id="Stroke-22" stroke="#99CCF9" stroke-width="0.148" mask="url(#mask-2)" points="79.0991411 240.901072 84.7850534 275.174342 124.891512 364.286948 274.852848 363.603166 178.999727 214.851598 167.367539 207.587727"></polygon>
                        <polygon id="Fill-23" fill="#FFC200" mask="url(#mask-2)" points="79.9209947 243.079181 78.2772874 238.724014 166.545685 205.410669 168.192023 209.768466"></polygon>
                        <polygon id="Fill-24" fill="#FFC200" mask="url(#mask-2)" points="85.7328808 281.981131 83.83933 277.305112 191.67968 233.658766 193.573231 238.334784"></polygon>
                        <polygon id="Fill-25" fill="#FFC200" mask="url(#mask-2)" points="106.898308 324.645461 105.086285 319.937883 219.033336 276.028544 220.845359 280.738751"></polygon>
                        <polygon id="Fill-26" fill="#FFC200" mask="url(#mask-2)" points="122.084586 358.647059 120.472438 353.868473 242.748483 312.641664 244.360631 317.42025"></polygon>
                        <polygon id="Fill-27" fill="#FFC200" mask="url(#mask-2)" points="220.42457 364.251181 219.454126 359.299019 267.153197 349.933833 268.126272 354.883364"></polygon>
                        <path d="M18.9136799,0.434580875 C15.9523768,1.11310326 13.3092954,3.22493842 12.0705976,5.99425651 C10.6215052,9.23959224 11.6103595,12.253494 13.1409798,16.6849289 C15.2081061,22.6680235 17.099027,28.1461713 22.1221966,29.7267603 C25.1650275,30.6866853 29.3597686,30.5104799 31.9555112,28.0146747 C34.8747354,25.2137974 34.4039776,20.8691503 33.8779913,16.0432256 C33.4309029,11.8800437 32.9548853,7.50383731 29.3886979,4.0691465 C28.5497497,3.25912753 24.3339691,-0.806746892 18.9136799,0.434580875" id="Fill-28" fill="#F6C9BB" mask="url(#mask-2)"></path>
                        <path d="M24.068346,17.7834514 C22.8217584,18.0043656 19.67899,18.5592812 18.7637738,20.8894007 C17.7433603,23.4904032 20.0208811,26.9698028 22.9059162,28.2610993 C24.9861922,29.1947251 27.9764245,29.2525836 30.1513781,27.3564028 C32.2421738,25.5259703 33.2283982,22.1859571 31.8292745,19.8532076 C29.9646529,16.7419984 25.149248,17.5914664 24.068346,17.7834514" id="Fill-29" fill="#E48374" mask="url(#mask-2)"></path>
                        <path d="M122.824386,38.7071881 C120.420628,38.2995486 119.295017,41.8815156 118.713802,44.2852732 C117.743358,48.2827694 120.052438,52.0462017 122.792826,53.9765716 C125.541105,55.9095714 134.919442,54.8707483 134.97467,52.3354942 C135.061458,48.5405027 127.563523,39.517207 122.824386,38.7071881" id="Fill-30" fill="#DB6B56" mask="url(#mask-2)"></path>
                        <polygon id="Fill-31" fill="#FFFFFF" mask="url(#mask-2)" points="38.0051431 119.129185 93.8385933 119.129185 93.8385933 68.710764 38.0051431 68.710764"></polygon>
                        <path d="M83.9248028,109.101518 C82.5756478,107.689245 75.9692593,104.467578 71.4904856,102.376783 L71.4904856,101.253802 L71.4904856,99.6390239 L71.4904856,99.1104076 C74.7936799,97.1616282 77.0501613,93.279849 77.0501613,88.8037052 C77.0501613,82.3735222 72.4057019,77.1583676 66.6750807,77.1583676 C60.9497193,77.1583676 56.3052599,82.3735222 56.3052599,88.8037052 C56.3052599,93.4481646 58.7326869,97.4456608 62.2383859,99.3129123 L62.2383859,99.6390239 L62.2383859,101.253802 L62.2383859,101.777158 C59.4033195,102.723934 50.7718836,105.677347 49.3543504,106.958124 C47.1609874,108.935832 45.5540991,113.535583 44.3785196,119.129448 L87.4646908,119.129448 C86.880846,114.682233 85.7867944,111.045038 83.9248028,109.101518" id="Fill-32" fill="#7AB7FF" mask="url(#mask-2)"></path>
                    </g>
                    <path d="M42.762128,124.224002 C42.587648,123.927126 42.3565305,123.694055 42.0687686,123.524784 C41.7810068,123.355512 41.4600464,123.270877 41.105878,123.270877 C40.8037932,123.270877 40.5277543,123.334679 40.277753,123.462284 C40.0277518,123.589888 39.8135612,123.761111 39.6351749,123.975955 C39.4567886,124.1908 39.3181181,124.439496 39.2191593,124.722049 C39.1202004,125.004603 39.0707218,125.302126 39.0707218,125.614627 C39.0707218,125.984421 39.1254087,126.311891 39.2347843,126.597049 C39.3441598,126.882207 39.4867365,127.119184 39.6625186,127.307987 C39.8383008,127.49679 40.047283,127.65434 40.2894718,127.780643 C40.5316605,127.906946 40.8037932,127.970096 41.105878,127.970096 C41.5173384,127.970096 41.8754077,127.870488 42.1800968,127.671268 C42.4847858,127.472048 42.7451998,127.144577 42.9613468,126.688846 L43.6488468,127.013065 C43.5498879,127.294316 43.3819209,127.565798 43.1449405,127.827518 C42.9079602,128.089238 42.6156454,128.300173 42.2679874,128.46033 C41.9203294,128.620487 41.5355676,128.700565 41.1136905,128.700565 C40.7100427,128.700565 40.3389526,128.624394 40.0004093,128.472049 C39.6618659,128.319705 39.3604366,128.10291 39.0961124,127.821659 C38.8317881,127.540407 38.6299672,127.207077 38.4906436,126.821659 C38.35132,126.43624 38.2816593,126.0339 38.2816593,125.614627 C38.2816593,125.19275 38.35132,124.794317 38.4906436,124.419315 C38.6299672,124.044313 38.8252778,123.718144 39.0765811,123.440799 C39.3278845,123.163454 39.6273606,122.944706 39.9750186,122.784549 C40.3226766,122.624392 40.699626,122.544315 41.105878,122.544315 C41.467859,122.544315 41.7803559,122.595747 42.043378,122.698612 C42.3064002,122.801477 42.5297052,122.923871 42.7132999,123.065799 C42.8968945,123.207727 43.0550961,123.362022 43.1879093,123.52869 L43.6019718,123.52869 L43.6019718,124.224002 L42.762128,124.224002 Z M46.6644718,128.208377 C46.5108252,128.351607 46.340905,128.468793 46.1547061,128.55994 C45.9685073,128.651086 45.7569209,128.696659 45.5199405,128.696659 C45.3220228,128.696659 45.140384,128.665409 44.9750186,128.602909 C44.8096532,128.540408 44.6670765,128.455123 44.5472843,128.347049 C44.427492,128.238976 44.334394,128.113326 44.2679874,127.970096 C44.2015808,127.826866 44.168378,127.674524 44.168378,127.513065 C44.168378,127.341189 44.1937684,127.188847 44.2445499,127.056034 C44.2953314,126.92322 44.363039,126.807987 44.4476749,126.71033 C44.5323107,126.612674 44.6312681,126.530643 44.7445499,126.464237 C44.8578317,126.39783 44.9763201,126.344445 45.1000186,126.30408 C45.2237172,126.263716 45.350018,126.23507 45.4789249,126.218143 C45.6078318,126.201216 45.7308774,126.192752 45.8480655,126.192752 C46.0355664,126.192752 46.193117,126.198612 46.3207218,126.21033 C46.4483266,126.222049 46.5642108,126.238325 46.668378,126.259159 L46.6722843,125.927127 C46.6722843,125.783897 46.6514511,125.65955 46.6097843,125.55408 C46.5681174,125.448611 46.5095242,125.361372 46.434003,125.292362 C46.3584818,125.223351 46.2679879,125.171919 46.1625186,125.138065 C46.0570494,125.10421 45.939212,125.087284 45.809003,125.087284 C45.6866066,125.087284 45.5694202,125.095747 45.4574405,125.112674 C45.3454608,125.129601 45.2406441,125.151737 45.1429874,125.17908 C45.0453306,125.206424 44.9554878,125.237674 44.8734561,125.27283 C44.7914245,125.307987 44.7217637,125.345096 44.6644718,125.384159 L44.4261905,124.880252 C44.5225452,124.817752 44.6280128,124.75981 44.7425968,124.706424 C44.8571807,124.653038 44.9776222,124.607466 45.1039249,124.569705 C45.2302276,124.531945 45.3591326,124.501997 45.4906436,124.479862 C45.6221547,124.457726 45.7517107,124.446659 45.8793155,124.446659 C46.1136917,124.446659 46.3246271,124.474653 46.512128,124.530643 C46.6996289,124.586633 46.8584815,124.67322 46.9886905,124.790409 C47.1188995,124.907597 47.2191589,125.056684 47.2894718,125.237674 C47.3597846,125.418665 47.3949405,125.635459 47.3949405,125.888065 L47.3910343,127.911502 L47.840253,127.911502 L47.840253,128.583377 L46.6644718,128.583377 L46.6644718,128.208377 Z M45.6800968,128.087284 C45.7764514,128.087284 45.8728046,128.075565 45.9691593,128.052127 C46.0655139,128.02869 46.1566588,127.996789 46.2425968,127.956424 C46.3285347,127.916059 46.407961,127.869185 46.480878,127.815799 C46.553795,127.762413 46.6149923,127.707075 46.6644718,127.649784 L46.668378,126.735721 L45.824628,126.735721 C45.6840023,126.735721 45.5557484,126.751346 45.4398624,126.782596 C45.3239764,126.813846 45.223717,126.859419 45.1390811,126.919315 C45.0544453,126.979211 44.9886907,127.053429 44.9418155,127.141971 C44.8949403,127.230513 44.871503,127.332075 44.871503,127.446659 C44.871503,127.55343 44.8910341,127.646528 44.9300968,127.725955 C44.9691595,127.805383 45.0244974,127.871788 45.0961124,127.925174 C45.1677273,127.97856 45.2530129,128.018924 45.3519718,128.046268 C45.4509306,128.073612 45.5603045,128.087284 45.6800968,128.087284 Z M51.324628,127.911502 L51.8949405,127.911502 L51.8949405,126.063846 C51.8949405,125.753949 51.8161653,125.518925 51.6586124,125.358768 C51.5010595,125.198611 51.2751503,125.118534 50.980878,125.118534 C50.8116063,125.118534 50.6410351,125.158898 50.4691593,125.239627 C50.2972834,125.320357 50.1345246,125.420616 49.980878,125.540409 L49.980878,127.911502 L50.5511905,127.911502 L50.5511905,128.583377 L48.6605655,128.583377 L48.6605655,127.911502 L49.2230655,127.911502 L49.2230655,125.208377 L48.6605655,125.208377 L48.6605655,124.536502 L49.949628,124.536502 L49.949628,125.013065 L49.9574405,125.013065 C50.0433784,124.937544 50.1351744,124.86593 50.2328311,124.798221 C50.3304879,124.730512 50.4327004,124.671919 50.5394718,124.62244 C50.6462431,124.57296 50.7575701,124.533898 50.8734561,124.505252 C50.9893421,124.476606 51.1110857,124.462284 51.2386905,124.462284 C51.4548374,124.462284 51.650148,124.492231 51.824628,124.552127 C51.999108,124.612023 52.1475441,124.703168 52.2699405,124.825565 C52.392337,124.947961 52.486737,125.104861 52.5531436,125.296268 C52.6195502,125.487675 52.652753,125.713584 52.652753,125.974002 L52.652753,127.911502 L53.215253,127.911502 L53.215253,128.583377 L51.324628,128.583377 L51.324628,127.911502 Z M56.3832218,122.505252 L57.6605655,122.505252 L57.6605655,127.911502 L58.2543155,127.911502 L58.2543155,128.583377 L56.934003,128.583377 L56.934003,128.251346 C56.803794,128.384159 56.6527539,128.487674 56.480878,128.561893 C56.3090021,128.636112 56.1136916,128.673221 55.8949405,128.673221 C55.6215016,128.673221 55.3669469,128.625695 55.1312686,128.530643 C54.8955904,128.43559 54.6911653,128.296269 54.5179874,128.112674 C54.3448094,127.929079 54.2093941,127.703821 54.1117374,127.436893 C54.0140806,127.169964 53.965253,126.864629 53.965253,126.520877 C53.965253,126.208376 54.0121275,125.923873 54.105878,125.667362 C54.1996285,125.41085 54.3324396,125.192102 54.5043155,125.011112 C54.6761914,124.830121 54.8832205,124.689498 55.1254093,124.589237 C55.367598,124.488976 55.6371265,124.438846 55.934003,124.438846 C56.1293165,124.438846 56.3077001,124.46033 56.4691593,124.503299 C56.6306184,124.546268 56.7855648,124.621137 56.934003,124.727909 L56.934003,123.177127 L56.3832218,123.177127 L56.3832218,122.505252 Z M55.9886905,128.040409 C56.2048374,128.040409 56.3858252,128.008508 56.5316593,127.944705 C56.6774933,127.880903 56.8116066,127.785201 56.934003,127.657596 L56.934003,125.391971 C56.803794,125.282595 56.6540559,125.203169 56.4847843,125.15369 C56.3155126,125.10421 56.1423372,125.079471 55.965253,125.079471 C55.7933771,125.079471 55.6319204,125.111372 55.480878,125.175174 C55.3298356,125.238977 55.1976754,125.332075 55.0843936,125.454471 C54.9711118,125.576867 54.88192,125.726606 54.8168155,125.90369 C54.751711,126.080774 54.7191593,126.283897 54.7191593,126.513065 C54.7191593,126.763066 54.7504089,126.983116 54.8129093,127.173221 C54.8754096,127.363326 54.9626483,127.52283 55.074628,127.651737 C55.1866077,127.780644 55.320721,127.877648 55.4769718,127.942752 C55.6332225,128.007857 55.8037937,128.040409 55.9886905,128.040409 Z M58.918378,124.536502 L60.2386905,124.536502 L60.2386905,127.911502 L60.8480655,127.911502 L60.8480655,128.583377 L58.9261905,128.583377 L58.9261905,127.911502 L59.5043155,127.911502 L59.5043155,125.208377 L58.918378,125.208377 L58.918378,124.536502 Z M59.3675968,123.102909 C59.3675968,123.0352 59.3812685,122.970747 59.4086124,122.909549 C59.4359563,122.848351 59.4724142,122.794966 59.5179874,122.749393 C59.5635605,122.70382 59.6175964,122.667362 59.6800968,122.640018 C59.7425971,122.612674 59.8090027,122.599002 59.8793155,122.599002 C59.9470242,122.599002 60.0114767,122.612674 60.0726749,122.640018 C60.1338731,122.667362 60.187258,122.70382 60.2328311,122.749393 C60.2784043,122.794966 60.3148622,122.848351 60.3422061,122.909549 C60.36955,122.970747 60.3832218,123.0352 60.3832218,123.102909 C60.3832218,123.173221 60.36955,123.239627 60.3422061,123.302127 C60.3148622,123.364628 60.2784043,123.419966 60.2328311,123.468143 C60.187258,123.51632 60.1338731,123.55408 60.0726749,123.581424 C60.0114767,123.608768 59.9470242,123.62244 59.8793155,123.62244 C59.8090027,123.62244 59.7425971,123.608768 59.6800968,123.581424 C59.6175964,123.55408 59.5635605,123.51632 59.5179874,123.468143 C59.4724142,123.419966 59.4359563,123.364628 59.4086124,123.302127 C59.3812685,123.239627 59.3675968,123.173221 59.3675968,123.102909 Z M63.902753,122.505252 L65.1800968,122.505252 L65.1800968,127.911502 L65.7738468,127.911502 L65.7738468,128.583377 L64.4535343,128.583377 L64.4535343,128.251346 C64.3233253,128.384159 64.1722851,128.487674 64.0004093,128.561893 C63.8285334,128.636112 63.6332228,128.673221 63.4144718,128.673221 C63.1410329,128.673221 62.8864781,128.625695 62.6507999,128.530643 C62.4151216,128.43559 62.2106966,128.296269 62.0375186,128.112674 C61.8643407,127.929079 61.7289254,127.703821 61.6312686,127.436893 C61.5336119,127.169964 61.4847843,126.864629 61.4847843,126.520877 C61.4847843,126.208376 61.5316588,125.923873 61.6254093,125.667362 C61.7191597,125.41085 61.8519709,125.192102 62.0238468,125.011112 C62.1957226,124.830121 62.4027518,124.689498 62.6449405,124.589237 C62.8871292,124.488976 63.1566578,124.438846 63.4535343,124.438846 C63.6488477,124.438846 63.8272314,124.46033 63.9886905,124.503299 C64.1501496,124.546268 64.305096,124.621137 64.4535343,124.727909 L64.4535343,123.177127 L63.902753,123.177127 L63.902753,122.505252 Z M63.5082218,128.040409 C63.7243687,128.040409 63.9053564,128.008508 64.0511905,127.944705 C64.1970246,127.880903 64.3311378,127.785201 64.4535343,127.657596 L64.4535343,125.391971 C64.3233253,125.282595 64.1735872,125.203169 64.0043155,125.15369 C63.8350438,125.10421 63.6618685,125.079471 63.4847843,125.079471 C63.3129084,125.079471 63.1514517,125.111372 63.0004093,125.175174 C62.8493668,125.238977 62.7172067,125.332075 62.6039249,125.454471 C62.4906431,125.576867 62.4014512,125.726606 62.3363468,125.90369 C62.2712423,126.080774 62.2386905,126.283897 62.2386905,126.513065 C62.2386905,126.763066 62.2699402,126.983116 62.3324405,127.173221 C62.3949408,127.363326 62.4821795,127.52283 62.5941593,127.651737 C62.706139,127.780644 62.8402522,127.877648 62.996503,127.942752 C63.1527538,128.007857 63.323325,128.040409 63.5082218,128.040409 Z M68.8480655,128.208377 C68.6944189,128.351607 68.5244987,128.468793 68.3382999,128.55994 C68.152101,128.651086 67.9405146,128.696659 67.7035343,128.696659 C67.5056166,128.696659 67.3239778,128.665409 67.1586124,128.602909 C66.993247,128.540408 66.8506703,128.455123 66.730878,128.347049 C66.6110857,128.238976 66.5179877,128.113326 66.4515811,127.970096 C66.3851745,127.826866 66.3519718,127.674524 66.3519718,127.513065 C66.3519718,127.341189 66.3773621,127.188847 66.4281436,127.056034 C66.4789251,126.92322 66.5466328,126.807987 66.6312686,126.71033 C66.7159045,126.612674 66.8148618,126.530643 66.9281436,126.464237 C67.0414254,126.39783 67.1599138,126.344445 67.2836124,126.30408 C67.4073109,126.263716 67.5336117,126.23507 67.6625186,126.218143 C67.7914255,126.201216 67.9144712,126.192752 68.0316593,126.192752 C68.2191602,126.192752 68.3767107,126.198612 68.5043155,126.21033 C68.6319203,126.222049 68.7478046,126.238325 68.8519718,126.259159 L68.855878,125.927127 C68.855878,125.783897 68.8350449,125.65955 68.793378,125.55408 C68.7517111,125.448611 68.693118,125.361372 68.6175968,125.292362 C68.5420755,125.223351 68.4515817,125.171919 68.3461124,125.138065 C68.2406431,125.10421 68.1228057,125.087284 67.9925968,125.087284 C67.8702003,125.087284 67.753014,125.095747 67.6410343,125.112674 C67.5290545,125.129601 67.4242379,125.151737 67.3265811,125.17908 C67.2289244,125.206424 67.1390815,125.237674 67.0570499,125.27283 C66.9750182,125.307987 66.9053575,125.345096 66.8480655,125.384159 L66.6097843,124.880252 C66.7061389,124.817752 66.8116066,124.75981 66.9261905,124.706424 C67.0407744,124.653038 67.1612159,124.607466 67.2875186,124.569705 C67.4138213,124.531945 67.5427263,124.501997 67.6742374,124.479862 C67.8057485,124.457726 67.9353045,124.446659 68.0629093,124.446659 C68.2972854,124.446659 68.5082208,124.474653 68.6957218,124.530643 C68.8832227,124.586633 69.0420753,124.67322 69.1722843,124.790409 C69.3024932,124.907597 69.4027527,125.056684 69.4730655,125.237674 C69.5433784,125.418665 69.5785343,125.635459 69.5785343,125.888065 L69.574628,127.911502 L70.0238468,127.911502 L70.0238468,128.583377 L68.8480655,128.583377 L68.8480655,128.208377 Z M67.8636905,128.087284 C67.9600452,128.087284 68.0563984,128.075565 68.152753,128.052127 C68.2491077,128.02869 68.3402526,127.996789 68.4261905,127.956424 C68.5121284,127.916059 68.5915547,127.869185 68.6644718,127.815799 C68.7373888,127.762413 68.7985861,127.707075 68.8480655,127.649784 L68.8519718,126.735721 L68.0082218,126.735721 C67.8675961,126.735721 67.7393421,126.751346 67.6234561,126.782596 C67.5075701,126.813846 67.4073107,126.859419 67.3226749,126.919315 C67.238039,126.979211 67.1722845,127.053429 67.1254093,127.141971 C67.078534,127.230513 67.0550968,127.332075 67.0550968,127.446659 C67.0550968,127.55343 67.0746278,127.646528 67.1136905,127.725955 C67.1527532,127.805383 67.2080912,127.871788 67.2797061,127.925174 C67.3513211,127.97856 67.4366067,128.018924 67.5355655,128.046268 C67.6345243,128.073612 67.7438982,128.087284 67.8636905,128.087284 Z M72.0160343,124.536502 L72.965253,124.536502 L72.965253,125.126346 L72.0082218,125.126346 L71.996503,127.462284 C71.996503,127.621138 72.014732,127.750043 72.0511905,127.849002 C72.087649,127.947961 72.1462422,128.01632 72.2269718,128.05408 C72.3077013,128.091841 72.3988462,128.110721 72.5004093,128.110721 C72.6097848,128.110721 72.706138,128.100955 72.7894718,128.081424 C72.8728055,128.061893 72.9639504,128.02869 73.0629093,127.981815 L73.230878,128.470096 C73.1058774,128.535201 72.9743683,128.586632 72.8363468,128.624393 C72.6983252,128.662154 72.5355664,128.681034 72.3480655,128.681034 C72.1709813,128.681034 72.016686,128.659549 71.8851749,128.61658 C71.7536638,128.573611 71.6429878,128.501347 71.5531436,128.399784 C71.4632994,128.298221 71.3962428,128.162154 71.3519718,127.99158 C71.3077007,127.821007 71.2855655,127.608118 71.2855655,127.352909 L71.2972843,125.126346 L70.652753,125.126346 L70.652753,124.536502 L71.3050968,124.536502 L71.3050968,123.567752 L72.0160343,123.231815 L72.0160343,124.536502 Z M73.7660343,126.55994 C73.7686384,126.239626 73.8200702,125.947962 73.9203311,125.68494 C74.020592,125.421918 74.1605646,125.196008 74.340253,125.007205 C74.5199414,124.818402 74.7334809,124.673222 74.980878,124.571659 C75.2282751,124.470096 75.5004078,124.419315 75.7972843,124.419315 C76.0967649,124.419315 76.3708507,124.470096 76.6195499,124.571659 C76.868249,124.673222 77.0811375,124.8171 77.2582218,125.003299 C77.435306,125.189498 77.5733254,125.414105 77.6722843,125.677127 C77.7712431,125.940149 77.8207218,126.231813 77.8207218,126.552127 C77.8207218,126.867233 77.7712431,127.156944 77.6722843,127.421268 C77.5733254,127.685592 77.435306,127.912803 77.2582218,128.102909 C77.0811375,128.293014 76.868249,128.440799 76.6195499,128.546268 C76.3708507,128.651737 76.0967649,128.704471 75.7972843,128.704471 C75.4925952,128.704471 75.2165563,128.652388 74.9691593,128.548221 C74.7217622,128.444054 74.5095247,128.297571 74.3324405,128.108768 C74.1553563,127.919965 74.0173368,127.694056 73.918378,127.431034 C73.8194192,127.168011 73.7686384,126.87765 73.7660343,126.55994 Z M74.5355655,126.55994 C74.5355655,126.791712 74.5687683,127.001345 74.6351749,127.188846 C74.7015815,127.376347 74.7927264,127.535851 74.9086124,127.667362 C75.0244984,127.798873 75.1586116,127.900434 75.3109561,127.972049 C75.4633006,128.043664 75.6254084,128.079471 75.7972843,128.079471 C75.9769727,128.079471 76.1442887,128.044315 76.2992374,127.974002 C76.4541861,127.903689 76.5889503,127.802779 76.7035343,127.671268 C76.8181182,127.539757 76.907961,127.380253 76.9730655,127.192752 C77.03817,127.005251 77.0707218,126.794316 77.0707218,126.55994 C77.0707218,126.315147 77.03817,126.097701 76.9730655,125.907596 C76.907961,125.717491 76.8187692,125.558638 76.7054874,125.431034 C76.5922056,125.303429 76.4574413,125.207076 76.3011905,125.141971 C76.1449397,125.076867 75.9769727,125.044315 75.7972843,125.044315 C75.6254084,125.044315 75.4633006,125.076867 75.3109561,125.141971 C75.1586116,125.207076 75.0244984,125.303429 74.9086124,125.431034 C74.7927264,125.558638 74.7015815,125.717491 74.6351749,125.907596 C74.5687683,126.097701 74.5355655,126.315147 74.5355655,126.55994 Z M83.012128,124.208377 C83.012128,124.106814 82.9906438,123.998091 82.9476749,123.882205 C82.9047059,123.766319 82.8383003,123.65955 82.7484561,123.561893 C82.6586119,123.464236 82.5453318,123.383508 82.4086124,123.319705 C82.2718929,123.255903 82.1110873,123.224002 81.9261905,123.224002 C81.7725439,123.224002 81.6325713,123.250695 81.5062686,123.30408 C81.3799659,123.357466 81.2543161,123.457074 81.1293155,123.602909 C81.0043149,123.748743 80.9366072,123.910199 80.9261905,124.087284 L80.184003,124.087284 C80.1970239,123.86072 80.253664,123.656295 80.3539249,123.474002 C80.4541858,123.29171 80.5811377,123.131555 80.7347843,122.993534 C80.8884309,122.855512 81.0681166,122.746138 81.2738468,122.665409 C81.479577,122.584679 81.6944186,122.544315 81.918378,122.544315 C82.1970252,122.544315 82.4496269,122.590538 82.6761905,122.682987 C82.9027541,122.775435 83.0961116,122.89783 83.2562686,123.050174 C83.4164257,123.202519 83.5401224,123.376345 83.6273624,123.571659 C83.7146024,123.766972 83.7582218,123.966189 83.7582218,124.169315 C83.7582218,124.294315 83.7425969,124.419314 83.7113468,124.544315 C83.6800966,124.669315 83.631269,124.788455 83.5648624,124.901737 C83.4984558,125.015018 83.4131702,125.119835 83.309003,125.21619 C83.2048358,125.312544 83.078535,125.397179 82.9300968,125.470096 C83.0524932,125.516971 83.1677264,125.582726 83.2757999,125.667362 C83.3838733,125.751997 83.4782734,125.852908 83.559003,125.970096 C83.6397326,126.087284 83.703534,126.220095 83.7504093,126.368534 C83.7972845,126.516972 83.8207218,126.679731 83.8207218,126.856815 C83.8207218,127.112024 83.7712431,127.34835 83.6722843,127.565799 C83.5733254,127.783248 83.4392122,127.971397 83.2699405,128.130252 C83.1006688,128.289107 82.9021031,128.413455 82.6742374,128.503299 C82.4463717,128.593143 82.2022335,128.638065 81.9418155,128.638065 C81.702231,128.638065 81.4646031,128.595747 81.2289249,128.511112 C80.9932466,128.426476 80.7933788,128.306034 80.6293155,128.149784 C80.4652522,127.993533 80.3441596,127.830774 80.2660343,127.661502 C80.1879089,127.492231 80.1410343,127.324264 80.1254093,127.157596 L80.8754093,127.157596 C80.9509305,127.399785 81.0856947,127.589887 81.2797061,127.727909 C81.4737175,127.86593 81.7204598,127.93494 82.0199405,127.93494 C82.1553578,127.93494 82.287518,127.907596 82.4164249,127.852909 C82.5453318,127.798221 82.6592629,127.72205 82.7582218,127.624393 C82.8571806,127.526736 82.9366069,127.412154 82.996503,127.280643 C83.0563991,127.149132 83.0863468,127.005253 83.0863468,126.849002 C83.0863468,126.684939 83.0563991,126.536503 82.996503,126.40369 C82.9366069,126.270877 82.8558785,126.158248 82.7543155,126.065799 C82.6527525,125.973351 82.5349151,125.901737 82.4007999,125.850955 C82.2666846,125.800174 82.1241079,125.774784 81.9730655,125.774784 L81.637128,125.774784 L81.637128,125.18494 L81.9105655,125.18494 C82.0824414,125.18494 82.2367367,125.159549 82.3734561,125.108768 C82.5101756,125.057986 82.6254088,124.988326 82.7191593,124.899784 C82.8129097,124.811241 82.8851746,124.707727 82.9359561,124.589237 C82.9867376,124.470746 83.012128,124.343795 83.012128,124.208377 Z" id="Candidato-3" fill="#000000"></path>
                    <polygon id="Fill-34" fill="#FFC200" points="30.8022862 42.4310245 39.8361016 42.7545061 60.578373 42.4310245 85.7152603 41.8471797 100.658532 42.3021579 100.658532 63.8386686 88.4845783 63.8386686 60.0497567 63.3389816 43.478557 63.7203217 31.9094874 63.1680361"></polygon>
                    <g id="Group-38" transform="translate(35.268846, 42.348329)">
                        <mask id="mask-4" fill="white">
                            <use xlink:href="#path-3"></use>
                        </mask>
                        <g id="Clip-37"></g>
                        <path d="M12.2300876,7.56669268 C12.2300876,7.56669268 9.68431369,-0.238944636 5.15820122,0.686791326 C1.70510088,1.39161302 -0.220009127,6.34640436 0.387505098,8.56606673 C2.81230213,17.3868577 17.1927687,23.5829768 17.1927687,23.5829768 C17.1927687,23.5829768 25.7058577,8.91847758 24.6459952,3.72173252 C23.3152497,-2.7820886 17.6977156,-3.07401102 15.0598941,-2.11671588 C11.6804319,-0.885907836 12.2300876,7.56669268 12.2300876,7.56669268" id="Fill-36" fill="#E2A700" mask="url(#mask-4)"></path>
                    </g>
                    <g id="Group-129" transform="translate(33.718648, 38.638663)">
                        <path d="M12.1852319,11.1325009 C12.1852319,11.1325009 9.63945801,3.32686361 5.11334554,4.25259957 C1.66024521,4.95479134 -0.264864803,9.90958268 0.345279354,12.131875 C2.77007639,20.950036 17.147913,27.1461551 17.147913,27.1461551 C17.147913,27.1461551 25.661002,12.4842858 24.6011395,7.28754077 C23.273024,0.781089718 17.6528599,0.489167298 15.0176684,1.44909237 C11.6355762,2.67990041 12.1852319,11.1325009 12.1852319,11.1325009" id="Fill-39" fill="#FFFFFF"></path>
                        <path d="M13.1406861,9.82516187 C13.1406861,9.82516187 10.9920319,3.23718294 7.16811119,4.01827266 C4.25414685,4.61526716 2.63147899,8.79422864 3.14431567,10.66674 C5.19303247,18.1120767 17.3275374,23.3430109 17.3275374,23.3430109 C17.3275374,23.3430109 24.5125108,10.9665522 23.618334,6.58245608 C22.4979831,1.09115867 17.7562162,0.843945086 15.5286641,1.65396405 C12.6751882,2.69278708 13.1406861,9.82516187 13.1406861,9.82516187" id="Fill-41" fill="#FFCF01"></path>
                        <path d="M16.2918703,1.44225455 C16.0157274,1.49748312 15.7606241,1.5711212 15.5291901,1.65264909 C12.6757142,2.69410204 13.1412121,9.82647684 13.1412121,9.82647684 C13.1412121,9.82647684 10.9899279,3.23849791 7.16863717,4.01695769 C4.25467284,4.61395219 2.63200498,8.79554361 3.14484166,10.668055 C5.19092853,18.1133917 17.3280634,23.3416959 17.3280634,23.3416959 C17.3280634,23.3416959 24.5130368,10.9652373 23.61886,6.58114111 C22.6115962,1.65790895 18.6929979,0.95045732 16.2918703,1.44225455" id="Fill-43" fill="#FFD379"></path>
                        <path d="M20.5347391,3.28373273 C21.615641,4.03326327 22.3362423,5.25092165 22.6728736,6.91040856 C22.8595987,7.81247514 13.7284758,12.4464148 13.8205234,11.2945047 C16.5451327,8.5725254 18.8568427,5.89262499 20.5347391,3.28373273" id="Fill-45" fill="#FFA800"></path>
                        <path d="M13.9188829,11.8157572 C15.8150637,11.8315368 20.4332237,9.80648936 22.11901,8.50467316 C23.1788724,7.6867644 21.6219529,13.8697338 20.422704,15.0532031 C19.2260851,16.2393023 13.8189455,12.2707354 13.9188829,11.8157572" id="Fill-47" fill="#FFA800"></path>
                        <path d="M9.65287067,17.6534166 C8.09069123,17.214218 3.75393384,12.6249872 5.01893099,12.8143423 C7.03871855,13.1167844 12.2749126,12.7012552 13.066522,12.0621818 C13.6661465,11.5756444 11.2150501,18.0899853 9.65287067,17.6534166" id="Fill-49" fill="#FFA800"></path>
                        <path d="M16.4896411,2.41322534 C17.0392969,2.30013827 17.6336614,2.27120902 18.2069865,2.33169745 C18.8644695,2.39744575 19.4772436,2.5762811 20.0216394,2.86031373 C19.729717,4.23313808 13.6493149,11.0367714 13.6493149,11.0367714 C13.7729217,9.49563143 14.1200727,7.25755955 14.2489393,6.22662632 C14.5119325,4.1936891 15.1010372,2.86557359 15.8689773,2.5841709 C16.0583323,2.51579267 16.2660969,2.45793418 16.4896411,2.41322534" id="Fill-51" fill="#FFA800"></path>
                        <path d="M12.991569,11.6153564 C13.4465472,12.4332651 4.57841743,12.6015808 4.24441611,11.7284435 C3.47910598,10.3924381 3.57378352,8.15436626 4.70728409,7.2707092 C6.905907,8.63827369 9.91454887,10.5081551 12.991569,11.6153564" id="Fill-53" fill="#FFA800"></path>
                        <path d="M7.66516828,5.30772818 C7.8571533,5.2682792 8.04650838,5.24460981 8.22008387,5.23146016 C8.9275355,5.18412139 9.83486194,5.9652111 10.7079993,7.3748545 C11.1524577,8.09019592 13.451018,10.8831834 13.2669228,11.2645235 C13.0828276,11.6458636 5.66116032,7.70622589 4.98000801,6.79100966 C5.32189913,6.40703963 5.75320793,6.07566824 6.26078475,5.81004513 C6.70261328,5.58124107 7.18652071,5.40503565 7.66516828,5.30772818" id="Fill-55" fill="#FFA800"></path>
                        <path d="M19.6794853,16.3718509 C20.3921968,15.9931407 18.4776065,20.7690967 17.2178692,21.9104871 C15.3848068,20.0011566 13.7121703,12.2744173 13.7121703,12.2744173 C13.7121703,12.2744173 18.9641439,16.753191 19.6794853,16.3718509" id="Fill-57" fill="#FFA800"></path>
                        <path d="M10.6288383,17.9411311 C9.82144929,17.8727529 14.9077372,21.5441376 16.5119956,22.1016831 C14.8340991,20.7209689 13.5243931,12.3130773 13.5243931,12.3130773 C13.5243931,12.3130773 11.4362274,18.0095094 10.6288383,17.9411311" id="Fill-59" fill="#FFA800"></path>
                        <path d="M17.6170929,0.980175548 C17.1410752,0.980175548 16.6755773,1.02751432 16.225859,1.11956193 C15.9391964,1.17479049 15.6683135,1.25368845 15.41584,1.34310612 C13.2803355,2.12156591 12.8490267,5.83765942 12.7859083,8.09677075 C11.9259206,6.28737774 10.2401344,3.62588685 7.79429793,3.62325692 C7.5681238,3.62325692 7.33405988,3.64955623 7.10262589,3.69426507 C5.85077839,3.94936845 4.69886831,4.85143502 3.84940036,6.23214917 C2.92629433,7.73384018 2.50813519,9.5932019 2.82635693,10.7582616 C4.89085332,18.2667167 16.6939868,23.4292726 17.1963038,23.647557 L17.4645568,23.7632739 L17.6144629,23.5081706 C17.9090153,23.0005938 24.852035,10.973916 23.9420786,6.51355186 C22.8927359,1.37729524 18.8373812,0.980175548 17.6170929,0.980175548 M17.6170929,1.30891701 C19.9340627,1.30891701 22.7822787,2.48975635 23.618597,6.58193009 C24.5127738,10.9660262 17.3278004,23.3424849 17.3278004,23.3424849 C17.3278004,23.3424849 5.19066554,18.1141806 3.14457867,10.668844 C2.63174198,8.79633259 4.25440985,4.61474117 7.16837418,4.01774667 C7.38139865,3.97566777 7.58916325,3.95462831 7.79429793,3.95462831 C11.2237289,3.95462831 13.1409491,9.82463589 13.1409491,9.82463589 C13.1409491,9.82463589 12.6754512,2.68963116 15.5289271,1.65343807 C15.7603611,1.57191018 16.0154645,1.49827209 16.2916073,1.44304353 C16.6966168,1.35888571 17.1463351,1.30891701 17.6170929,1.30891701" id="Fill-61" fill="#FFB100"></path>
                        <polygon id="Fill-63" fill="#FFFFFF" points="28.1113094 10.4673912 28.626776 10.4673912 28.626776 7.90057785 27.8693556 8.3529261 27.8693556 7.2246854 29.2264004 6.42518616 29.6997881 6.43307595 29.6997881 10.4673912 30.2178847 10.4673912 30.2178847 11.3563081 28.1113094 11.3563081"></polygon>
                        <polygon id="Fill-65" fill="#FFFFFF" points="32.7676035 6.30920617 33.5986619 6.30920617 31.7235206 11.3560451 30.8714227 11.3560451"></polygon>
                        <path d="M34.0773094,10.513678 L35.7762453,8.70691491 C35.9235215,8.5648986 36.0366086,8.42025235 36.1155065,8.27560611 C36.1996643,8.13621973 36.2364834,7.98894355 36.2364834,7.84166738 C36.2364834,7.78117895 36.2233337,7.72069052 36.1996643,7.65757216 C36.173365,7.59708373 36.133916,7.53922523 36.0865773,7.49188646 C36.0366086,7.44191776 35.9787501,7.40246878 35.9077419,7.37616947 C35.8393637,7.34461028 35.7604657,7.33146063 35.6684181,7.33146063 C35.5632209,7.33146063 35.4711733,7.34724022 35.3922753,7.38142933 C35.3133773,7.41298851 35.2476291,7.46032728 35.1950304,7.51818578 C35.1398019,7.57867421 35.1029828,7.6444225 35.0740536,7.72069052 C35.0451243,7.8022184 35.0293447,7.88374629 35.0267148,7.9679041 L34.0510101,7.9679041 C34.0510101,7.71543066 34.093089,7.4866266 34.1772468,7.28675179 C34.2614047,7.08687698 34.3771217,6.91856135 34.5270278,6.77917497 C34.6743039,6.64241852 34.8478794,6.53722125 35.0477542,6.46884303 C35.2449991,6.39783487 35.4580236,6.36101583 35.6841977,6.36101583 C35.8998521,6.36101583 36.1049868,6.39257501 36.2996017,6.4583233 C36.4915868,6.52144166 36.6599024,6.61874913 36.8098085,6.74235592 C36.9597146,6.86859265 37.0754316,7.02375862 37.1622193,7.20785384 C37.2490071,7.39194906 37.2937159,7.60497352 37.2937159,7.84166738 C37.2937159,8.03628232 37.251637,8.21248775 37.175369,8.37817345 C37.0938411,8.54122921 36.9860139,8.69639518 36.8545173,8.84630129 L35.4501338,10.361142 L37.2858261,10.361142 L37.2858261,11.3552561 L34.0773094,11.3552561 L34.0773094,10.513678 Z" id="Fill-67" fill="#FFFFFF"></path>
                        <polygon id="Fill-69" fill="#FFFFFF" points="31.2138398 12.0595519 33.0810913 12.0595519 33.0810913 12.9537286 32.6839716 12.9537286 32.6839716 16.9801541 31.6030697 16.9801541 29.5569828 13.8005666 29.5569828 16.0886072 29.9698821 16.0886072 29.9698821 16.9801541 28.1026306 16.9801541 28.1026306 16.0886072 28.51027 16.0886072 28.51027 12.9537286 28.1105204 12.9537286 28.1105204 12.0595519 29.5964318 12.0595519 31.6319989 15.2838481 31.6319989 12.9537286 31.2138398 12.9537286"></polygon>
                        <path d="M35.4898458,14.5535161 L36.48396,14.5535161 L35.981643,12.9545176 L35.4898458,14.5535161 Z M36.4760702,16.0893962 L36.9678674,16.0893962 L36.7469531,15.3819446 L35.2321125,15.3819446 L35.0111982,16.0893962 L35.5345546,16.0893962 L35.5345546,16.9809431 L33.6673031,16.9809431 L33.6673031,16.0893962 L34.0328636,16.0893962 L35.3741288,12.0603408 L36.673315,12.0603408 L37.985651,16.0893962 L38.3433217,16.0893962 L38.3433217,16.9809431 L36.4760702,16.9809431 L36.4760702,16.0893962 Z" id="Fill-71" fill="#FFFFFF"></path>
                        <path d="M40.7036854,12.9534656 L40.7036854,14.1421948 L41.3480186,14.1421948 C41.4716254,14.1421948 41.5820826,14.131675 41.67939,14.1080057 C41.7793274,14.0869662 41.8634853,14.0501472 41.9344934,14.0001785 C42.0028716,13.9554696 42.0581002,13.8923513 42.0949193,13.8187132 C42.1343682,13.7450751 42.1527778,13.6582873 42.1527778,13.55572 C42.1527778,13.3663649 42.0843995,13.2190887 41.950273,13.1138915 C41.8135166,13.0060643 41.6136418,12.9534656 41.3480186,12.9534656 L40.7036854,12.9534656 Z M39.1152066,12.0592889 L41.718839,12.0592889 C41.9686825,12.0592889 42.1948567,12.0987378 42.3973614,12.1750059 C42.5946063,12.2486439 42.7629219,12.3512113 42.8996784,12.477448 C43.0364348,12.6036847 43.1390021,12.7509609 43.2126402,12.9192765 C43.2836484,13.0875922 43.3204674,13.2611677 43.3204674,13.4452629 C43.3204674,13.6083186 43.3020579,13.7555948 43.2678688,13.8818315 C43.2310498,14.0054383 43.1784511,14.1158955 43.1127028,14.2132029 C43.0443246,14.3131403 42.9575369,14.3999281 42.8602294,14.4735662 C42.760292,14.5472043 42.6472049,14.6155825 42.5183383,14.6760709 C42.6287954,14.7339294 42.7287328,14.8180872 42.8128906,14.9338042 C42.8944185,15.0495212 42.9575369,15.1994273 43.0022457,15.3835225 L43.1679314,16.0225959 L43.5755708,16.0225959 L43.5808307,16.9798911 L42.1527778,16.9798911 L41.9581628,15.8122014 C41.9397533,15.672815 41.9081941,15.5518382 41.8687451,15.4519008 C41.8292962,15.3519634 41.7740676,15.2704355 41.7083193,15.2046872 C41.6399411,15.1415688 41.5584132,15.0942301 41.4637356,15.0653008 C41.3664282,15.0337416 41.2533411,15.020592 41.1192146,15.020592 L40.7036854,15.020592 L40.7036854,16.0883442 L41.1534037,16.0883442 L41.1534037,16.9798911 L39.1152066,16.9798911 L39.1152066,16.0883442 L39.6254134,16.0883442 L39.6254134,12.9534656 L39.1152066,12.9534656 L39.1152066,12.0592889 Z" id="Fill-73" fill="#FFFFFF"></path>
                        <path d="M45.955659,14.5535161 L46.9497732,14.5535161 L46.4474562,12.9545176 L45.955659,14.5535161 Z M46.9418834,16.0893962 L47.4336806,16.0893962 L47.2127664,15.3819446 L45.7005556,15.3819446 L45.4796414,16.0893962 L46.0003678,16.0893962 L46.0003678,16.9809431 L44.1331163,16.9809431 L44.1331163,16.0893962 L44.4986768,16.0893962 L45.839942,12.0603408 L47.1391283,12.0603408 L48.4514642,16.0893962 L48.8091349,16.0893962 L48.8091349,16.9809431 L46.9418834,16.9809431 L46.9418834,16.0893962 Z" id="Fill-75" fill="#FFFFFF"></path>
                        <polygon id="Fill-77" fill="#FFFFFF" points="52.6898621 12.0595519 54.5597436 12.0595519 54.5597436 12.9537286 54.159994 12.9537286 54.159994 16.9801541 53.081722 16.9801541 51.0356351 13.8005666 51.0356351 16.0886072 51.4459044 16.0886072 51.4459044 16.9801541 49.5812829 16.9801541 49.5812829 16.0886072 49.9889223 16.0886072 49.9889223 12.9537286 49.5865427 12.9537286 49.5865427 12.0595519 51.0750841 12.0595519 53.1080213 15.2838481 53.1080213 12.9537286 52.6898621 12.9537286"></polygon>
                        <path d="M55.3224238,12.0595519 L57.1817855,12.0595519 L57.1817855,13.0457762 L56.8372644,13.0457762 L56.8372644,16.4199786 C56.7925556,16.598814 56.7215474,16.7566099 56.6294998,16.9038861 C56.5400822,17.0485323 56.4506645,17.1800289 56.3638767,17.3010058 C56.2744591,17.4193527 56.1508523,17.5718887 55.9956863,17.7507241 L55.0883599,17.7033853 C55.2172265,17.5087704 55.3171639,17.3483445 55.3881721,17.2221078 C55.4618102,17.0932411 55.5354482,16.9538548 55.6064564,16.8039487 C55.6827244,16.6487827 55.737953,16.4883569 55.7800319,16.3147814 L55.7800319,13.0457762 L55.3224238,13.0457762 L55.3224238,12.0595519 Z" id="Fill-79" fill="#FFFFFF"></path>
                        <path d="M59.5266326,14.5535161 L60.5181169,14.5535161 L60.0184298,12.9545176 L59.5266326,14.5535161 Z M60.512857,16.0893962 L61.0046542,16.0893962 L60.78374,15.3819446 L59.2688993,15.3819446 L59.047985,16.0893962 L59.5687115,16.0893962 L59.5687115,16.9809431 L57.7040899,16.9809431 L57.7040899,16.0893962 L58.0696504,16.0893962 L59.4082857,12.0603408 L60.7101019,12.0603408 L62.0198079,16.0893962 L62.3774786,16.0893962 L62.3774786,16.9809431 L60.512857,16.9809431 L60.512857,16.0893962 Z" id="Fill-81" fill="#FFFFFF"></path>
                        <path d="M29.3055614,18.2440993 L29.3055614,19.793129 L30.1918483,19.793129 C30.3154551,19.793129 30.4285422,19.7747195 30.5311095,19.7405304 C30.6336769,19.7089712 30.7204646,19.6590025 30.7941027,19.5958842 C30.8703707,19.5275059 30.9282292,19.448608 30.9703081,19.3513005 C31.012387,19.253993 31.0334265,19.140906 31.0334265,19.0146693 C31.0334265,18.7700856 30.9597884,18.5833605 30.8125122,18.446604 C30.667866,18.3124775 30.4311721,18.2440993 30.1103205,18.2440993 L29.3055614,18.2440993 Z M28.20099,17.6839238 L30.1918483,17.6839238 C30.4101327,17.6839238 30.6126374,17.7128531 30.7967326,17.7680816 C30.9834578,17.8259401 31.1438836,17.9100979 31.2780101,18.023185 C31.4147666,18.1336421 31.5199639,18.2730285 31.5936019,18.4387142 C31.66724,18.6070298 31.706689,18.7963849 31.706689,19.0146693 C31.706689,19.1935046 31.66724,19.3618202 31.5962319,19.5196161 C31.5225938,19.680042 31.4200264,19.8194284 31.28327,19.9404052 C31.1491435,20.0561222 30.9913476,20.1534297 30.8019925,20.2218079 C30.6152673,20.2901861 30.4075027,20.3243752 30.1786987,20.3243752 L29.3055614,20.3243752 L29.3055614,22.0443506 L29.7973586,22.0443506 L29.7973586,22.6018961 L28.20099,22.6018961 L28.20099,22.0443506 L28.6691179,22.0443506 L28.6691179,18.2440993 L28.20099,18.2440993 L28.20099,17.6839238 Z" id="Fill-83" fill="#FFFFFF"></path>
                        <path d="M34.788706,22.0964232 C35.0464393,22.0964232 35.2805032,22.0411947 35.4882678,21.9359974 C35.6986623,21.8308001 35.8748678,21.6887838 36.0221439,21.5099485 C36.1694201,21.3311131 36.2825072,21.1259784 36.3640351,20.8892846 C36.442933,20.6525907 36.4850119,20.4027472 36.4850119,20.142384 C36.4850119,19.8741309 36.4403031,19.6163976 36.3508854,19.3665541 C36.2640977,19.1140807 36.1431208,18.9036861 35.9853249,18.7327406 C35.8301589,18.5565351 35.6460637,18.4250386 35.4382991,18.330361 C35.2305345,18.2356835 35.0148801,18.1909746 34.788706,18.1909746 C34.5309727,18.1909746 34.2969087,18.2409433 34.0865142,18.3487705 C33.8787496,18.4539678 33.6999142,18.5959841 33.5526381,18.7748195 C33.4079918,18.9536548 33.2922748,19.1614194 33.2107469,19.3981133 C33.131849,19.6348071 33.0897701,19.8820207 33.0897701,20.142384 C33.0897701,20.4448261 33.1371089,20.7157091 33.2238966,20.949773 C33.3133143,21.1890968 33.4316612,21.3837117 33.5763075,21.5415076 C33.7235836,21.6993035 33.8971591,21.8308001 34.0996639,21.9359974 C34.2995387,22.0411947 34.5309727,22.0964232 34.788706,22.0964232 M34.788706,22.6986776 C34.4494448,22.6986776 34.1391128,22.6355592 33.8577101,22.5093225 C33.5763075,22.3830858 33.323834,22.2016205 33.1055497,21.9701865 C32.8846354,21.7361226 32.7163198,21.4599798 32.6032327,21.1391281 C32.4875157,20.8182764 32.4322872,20.486905 32.4322872,20.142384 C32.4322872,19.7873432 32.4875157,19.4533419 32.6032327,19.1430099 C32.7189497,18.832678 32.8820055,18.5591651 33.0897701,18.330361 C33.3001646,18.098927 33.5473782,17.9174617 33.8366707,17.7833352 C34.1259632,17.6544686 34.441555,17.5860903 34.788706,17.5860903 C35.1384869,17.5860903 35.4567086,17.6544686 35.7460011,17.7833352 C36.0379235,17.9174617 36.2851371,18.098927 36.4902718,18.330361 C36.7006663,18.5591651 36.8610922,18.832678 36.9768092,19.1430099 C37.0898962,19.4533419 37.1477547,19.7873432 37.1477547,20.142384 C37.1477547,20.4974247 37.0898962,20.8314261 36.9741792,21.141758 C36.8584622,21.45209 36.6980364,21.720343 36.4876419,21.951777 C36.2772473,22.183211 36.0300337,22.3673062 35.7407413,22.4988028 C35.4540787,22.6329293 35.135857,22.6986776 34.788706,22.6986776" id="Fill-85" fill="#FFFFFF"></path>
                        <path d="M38.1736911,17.6841868 L39.7700596,17.6841868 L39.7700596,18.2443623 L39.2782624,18.2443623 L39.2782624,22.0446136 L40.9745683,22.0446136 C41.0087575,22.0446136 41.0455765,22.0340938 41.0771357,22.0183143 C41.1113248,22.0051646 41.1455139,21.9841251 41.1744432,21.9551959 C41.2007425,21.9288966 41.2217819,21.9025973 41.2401914,21.8684081 C41.258601,21.834219 41.2664908,21.7974 41.2664908,21.7658408 L41.2664908,21.1451769 L41.8818948,21.1451769 L41.8818948,22.6021591 L38.1736911,22.6021591 L38.1736911,22.0446136 L38.6418189,22.0446136 L38.6418189,18.2443623 L38.1736911,18.2443623 L38.1736911,17.6841868 Z" id="Fill-87" fill="#FFFFFF"></path>
                        <polygon id="Fill-89" fill="#FFFFFF" points="42.7119012 17.6841868 44.2819705 17.6841868 44.2819705 18.2443623 43.8164726 18.2443623 43.8164726 22.0446136 44.2819705 22.0446136 44.2819705 22.6021591 42.7119012 22.6021591 42.7119012 22.0446136 43.1800291 22.0446136 43.1800291 18.2443623 42.7119012 18.2443623"></polygon>
                        <polygon id="Fill-91" fill="#FFFFFF" points="46.5489716 22.0451396 46.9986899 22.0451396 46.9986899 18.215959 45.8757091 18.215959 45.8757091 18.9812691 45.2103364 18.9812691 45.2103364 17.6847128 49.5970624 17.6847128 49.5970624 18.9812691 48.9316897 18.9812691 48.9316897 18.215959 47.6351334 18.215959 47.6351334 22.0451396 48.1400803 22.0451396 48.1400803 22.6026851 46.5489716 22.6026851"></polygon>
                        <polygon id="Fill-93" fill="#FFFFFF" points="50.5272693 17.6841868 52.0999685 17.6841868 52.0999685 18.2443623 51.6318406 18.2443623 51.6318406 22.0446136 52.0999685 22.0446136 52.0999685 22.6021591 50.5272693 22.6021591 50.5272693 22.0446136 50.9953971 22.0446136 50.9953971 18.2443623 50.5272693 18.2443623"></polygon>
                        <path d="M56.8504141,18.9812691 C56.7031379,18.7340555 56.5111529,18.5420705 56.2718291,18.4000542 C56.0325053,18.2606678 55.7668822,18.1896597 55.4749598,18.1896597 C55.2224864,18.1896597 54.9936823,18.2422583 54.7859177,18.3500855 C54.5781531,18.4552828 54.3993177,18.5972991 54.2520416,18.7761344 C54.1047654,18.9523399 53.9890484,19.1601045 53.9075205,19.3941684 C53.8259926,19.6282323 53.7839137,19.8780758 53.7839137,20.1358091 C53.7839137,20.4435111 53.8286226,20.7143941 53.9206702,20.951088 C54.0100879,21.1904118 54.1284348,21.3850267 54.275711,21.5428226 C54.4203572,21.6979886 54.5965626,21.8294852 54.7964374,21.9346824 C54.9963122,22.0398797 55.2224864,22.0951083 55.4749598,22.0951083 C55.814221,22.0951083 56.1140332,22.0083205 56.3638767,21.8452648 C56.6189801,21.6769491 56.8346345,21.4086961 57.0134699,21.027356 L57.584165,21.298239 C57.5026372,21.5323029 57.3632508,21.758477 57.1660059,21.9741314 C56.971391,22.1924157 56.7268073,22.3659912 56.4401448,22.5001177 C56.1482223,22.6342443 55.8300006,22.6999926 55.4802197,22.6999926 C55.1462184,22.6999926 54.8358864,22.6368742 54.5544837,22.5106375 C54.275711,22.3844008 54.0232375,22.2029355 53.8049532,21.9715015 C53.5840389,21.7374376 53.4157233,21.4586648 53.3000063,21.1378131 C53.1842893,20.8169615 53.1290607,20.4829601 53.1290607,20.1358091 C53.1290607,19.7860282 53.1842893,19.4546568 53.3000063,19.1443249 C53.4157233,18.831363 53.5787791,18.56048 53.7891736,18.331676 C53.9969382,18.100242 54.2467817,17.9187767 54.5334443,17.7846502 C54.8227368,17.6531536 55.1383286,17.5874053 55.4749598,17.5874053 C55.774772,17.5874053 56.0325053,17.6268543 56.2507897,17.716272 C56.469074,17.8004298 56.6557992,17.9029971 56.8083352,18.0187141 C56.9608712,18.137061 57.0923678,18.2659277 57.202825,18.4026841 L57.547346,18.4026841 L57.547346,18.9812691 L56.8504141,18.9812691 Z" id="Fill-95" fill="#FFFFFF"></path>
                        <path d="M59.8090873,20.3885456 L61.3265579,20.3885456 L60.5612477,18.1899227 L59.8090873,20.3885456 Z M61.4975034,22.0454026 L61.9051428,22.0454026 L61.515913,20.9276816 L59.6249921,20.9276816 L59.243652,22.0454026 L59.7512288,22.0454026 L59.7512288,22.6029481 L58.1548602,22.6029481 L58.1548602,22.0454026 L58.5835391,22.0454026 L60.1141594,17.6849758 L61.0714545,17.6849758 L62.6020748,22.0454026 L63.093872,22.0454026 L63.093872,22.6029481 L61.4975034,22.6029481 L61.4975034,22.0454026 Z" id="Fill-97" fill="#FFFFFF"></path>
                        <path d="M28.665962,105.578871 C28.665962,110.210181 24.9104195,113.963094 20.2817397,113.963094 C15.6504299,113.963094 11.8975174,110.210181 11.8975174,105.578871 C11.8975174,100.947562 15.6504299,97.1946492 20.2817397,97.1946492 C24.9104195,97.1946492 28.665962,100.947562 28.665962,105.578871" id="Fill-99" fill="#FFFFFF"></path>
                        <path d="M52.96469,105.578871 C52.96469,110.210181 49.2091475,113.963094 44.5804677,113.963094 C39.949158,113.963094 36.1962454,110.210181 36.1962454,105.578871 C36.1962454,100.947562 39.949158,97.1946492 44.5804677,97.1946492 C49.2091475,97.1946492 52.96469,100.947562 52.96469,105.578871" id="Fill-101" fill="#FFFFFF"></path>
                        <path d="M23.0671003,109.02303 C22.8987847,109.02303 22.7304691,108.959912 22.6016024,108.831045 L17.0287771,103.25822 C16.7710438,103.000486 16.7710438,102.584957 17.0287771,102.327224 C17.2865104,102.069491 17.7020397,102.069491 17.959773,102.327224 L23.5325983,107.900049 C23.7877016,108.157783 23.7877016,108.573312 23.5325983,108.831045 C23.4037316,108.959912 23.235416,109.02303 23.0671003,109.02303" id="Fill-103" fill="#DB6B56"></path>
                        <path d="M17.4940121,109.02303 C17.3256964,109.02303 17.1573808,108.959912 17.0285141,108.831045 C16.7734108,108.573312 16.7734108,108.157783 17.0285141,107.900049 L22.6013394,102.327224 C22.8590727,102.069491 23.274602,102.069491 23.5323353,102.327224 C23.7900686,102.584957 23.7900686,103.000486 23.5323353,103.25822 L17.95951,108.831045 C17.8306433,108.959912 17.6623277,109.02303 17.4940121,109.02303" id="Fill-105" fill="#DB6B56"></path>
                        <path d="M44.4095222,104.325446 C44.4095222,104.325446 44.1360093,101.408852 42.4870421,101.374663 C41.2273048,101.348363 40.1700722,102.923692 40.2068913,103.744231 C40.3620573,107.007976 44.8855398,110.290131 44.8855398,110.290131 C44.8855398,110.290131 48.9961231,105.850806 49.035572,103.957256 C49.0802809,101.587687 47.1472811,101.045921 46.1531669,101.174788 C44.8829099,101.337844 44.4095222,104.325446 44.4095222,104.325446" id="Fill-107" fill="#FFCF01"></path>
                        <path d="M46.4900611,101.156378 C46.3690843,101.153748 46.2559972,101.161638 46.1534299,101.174788 C44.8831729,101.337844 44.4097851,104.325446 44.4097851,104.325446 C44.4097851,104.325446 44.1336423,101.408852 42.4873051,101.374663 C41.2275678,101.348363 40.1703352,102.923692 40.2071543,103.744231 C40.3623202,107.007976 44.8858028,110.290131 44.8858028,110.290131 C44.8858028,110.290131 48.996386,105.850806 49.035835,103.957256 C49.075284,101.832271 47.5262542,101.177418 46.4900611,101.156378" id="Fill-109" fill="#FFD379"></path>
                        <path d="M48.0693351,102.30934 C48.4454154,102.71961 48.6295106,103.290305 48.613731,104.005646 C48.6058412,104.394876 44.4084702,105.459999 44.5557464,104.994501 C45.9338306,104.121363 47.1357094,103.232446 48.0693351,102.30934" id="Fill-111" fill="#FFA800"></path>
                        <path d="M44.5483825,105.21673 C45.3294723,105.398195 47.420268,104.993186 48.2381767,104.611846 C48.7510134,104.372522 47.535985,106.781539 46.9284707,107.157619 C46.3262164,107.53633 44.4642247,105.395565 44.5483825,105.21673" id="Fill-113" fill="#FFA800"></path>
                        <path d="M42.2445624,107.230206 C41.642308,106.904094 40.2773734,104.608164 40.7823203,104.802779 C41.5870794,105.11574 43.7883323,105.428702 44.1723023,105.239347 C44.4668547,105.094701 42.8468167,107.556317 42.2445624,107.230206" id="Fill-115" fill="#FFA800"></path>
                        <path d="M46.4795414,101.57743 C46.7188652,101.58006 46.9660788,101.624769 47.1948828,101.701037 C47.4631359,101.790455 47.6971998,101.921951 47.8970746,102.087637 C47.6472311,102.626773 44.5070926,104.872735 44.5070926,104.872735 C44.7017076,104.246811 45.0541184,103.355264 45.2040245,102.944995 C45.4985769,102.127086 45.8667673,101.632659 46.2060285,101.59058 C46.2928162,101.58006 46.3848639,101.5748 46.4795414,101.57743" id="Fill-117" fill="#FFA800"></path>
                        <path d="M44.183611,105.049729 C44.2940681,105.428439 40.6226835,104.673649 40.5621951,104.284419 C40.37284,103.661125 40.6200536,102.745909 41.1697093,102.485546 C41.9455391,103.253486 43.0159213,104.308088 44.183611,105.049729" id="Fill-119" fill="#FFA800"></path>
                        <path d="M42.5706739,101.952459 C42.6548317,101.952459 42.7337297,101.960348 42.8073678,101.973498 C43.1019201,102.018207 43.4043623,102.425846 43.6331663,103.088589 C43.7515132,103.42522 44.4405553,104.790155 44.3300982,104.929541 C44.2170112,105.071558 41.5213311,102.757218 41.3240863,102.315389 C41.5029216,102.189152 41.7106862,102.091845 41.9447502,102.028727 C42.1472549,101.976128 42.3655392,101.947199 42.5706739,101.952459" id="Fill-121" fill="#FFA800"></path>
                        <path d="M46.5003179,107.633637 C46.8316893,107.54159 45.5982513,109.332573 44.9723275,109.687614 C44.3911126,108.730319 44.4200419,105.387675 44.4200419,105.387675 C44.4200419,105.387675 46.1715764,107.723055 46.5003179,107.633637" id="Fill-123" fill="#FFA800"></path>
                        <path d="M42.6219576,107.440863 C42.295846,107.335666 44.0526404,109.323894 44.6627846,109.702604 C44.0999792,108.976743 44.336673,105.386886 44.336673,105.386886 C44.336673,105.386886 42.9480691,107.54343 42.6219576,107.440863" id="Fill-125" fill="#FFA800"></path>
                        <path d="M46.4411444,101.017518 C46.3333172,101.017518 46.2307499,101.022778 46.1360723,101.035927 C45.1814071,101.159534 44.6580507,102.650706 44.4239868,103.576441 C44.2188521,102.674375 43.7060154,101.259472 42.488357,101.235802 L42.4857271,101.235802 C41.9150319,101.235802 41.3601163,101.509315 40.8867286,102.003742 C40.3817817,102.532359 40.0451505,103.25296 40.0688199,103.752647 C40.2239858,107.042691 44.6159718,110.269618 44.8026969,110.403744 L44.9026343,110.477382 L44.9867922,110.387965 C45.1577377,110.201239 49.1368244,105.885522 49.1736434,103.960411 C49.2209822,101.680261 47.5088967,101.038557 46.493743,101.017518 L46.4411444,101.017518 Z M46.4411444,101.156904 L46.4911131,101.156904 C47.5246763,101.177944 49.076336,101.832797 49.0342571,103.957782 C48.997438,105.851332 44.8842248,110.290657 44.8842248,110.290657 C44.8842248,110.290657 40.3607423,107.005872 40.2082062,103.744757 C40.1687573,102.932108 41.2128402,101.375189 42.4541679,101.375189 L42.4857271,101.375189 C44.1346943,101.406748 44.4108371,104.325972 44.4108371,104.325972 C44.4108371,104.325972 44.878965,101.33837 46.1544818,101.175314 C46.2438995,101.164794 46.3385771,101.156904 46.4411444,101.156904 L46.4411444,101.156904 Z" id="Fill-127" fill="#FFB100"></path>
                    </g>
                </g>
                <path d="M173.53868,92.2783814 C173.53868,92.2783814 176.055666,80.3724789 169.557494,78.2033901 C164.604013,76.5499264 158.460289,81.4819253 157.5983,84.78377 C154.172992,97.9034339 168.039016,116.512796 168.039016,116.512796 C168.039016,116.512796 189.83497,103.9995 192.32371,96.5437939 C195.439345,87.2097985 188.443881,82.6696781 184.348822,81.947248 C179.097625,81.0208361 173.53868,92.2783814 173.53868,92.2783814" id="Fill-1" fill="#B2E1FF"></path>
                <path d="M175.828447,142.360975 C175.828447,142.360975 175.661036,133.338999 170.604229,132.855736 C166.749485,132.487355 163.133263,137.075574 163.061231,139.604973 C162.774831,149.655416 175.897297,160.787947 175.897297,160.787947 C175.897297,160.787947 189.557813,148.111303 190.112307,142.30935 C190.806431,135.045744 184.994826,132.932338 181.915602,133.093449 C177.96703,133.300031 175.828447,142.360975 175.828447,142.360975" id="Fill-1-Copy" fill="#B2E1FF"></path>
                <path d="M208.541251,118.226413 C208.541251,118.226413 205.575566,107.926632 199.625135,108.92677 C195.089194,109.68917 192.350716,116.065131 193.045679,118.989349 C195.80687,130.608642 214.285212,139.347194 214.285212,139.347194 C214.285212,139.347194 226.061273,120.603185 224.913781,113.775922 C223.477139,105.228725 216.15955,104.590586 212.676171,105.722075 C208.209338,107.172995 208.541251,118.226413 208.541251,118.226413" id="Fill-1-Copy-2" fill="#B2E1FF"></path>
                <path d="M200.897032,161.15029 C200.897032,161.15029 199.319969,155.673173 196.155707,156.205016 C193.743628,156.610438 192.287387,160.000984 192.656948,161.555996 C194.125267,167.734791 203.9515,172.381693 203.9515,172.381693 C203.9515,172.381693 210.213659,162.414186 209.603457,158.783651 C208.839493,154.238506 204.948217,153.899162 203.09586,154.500854 C200.720531,155.272411 200.897032,161.15029 200.897032,161.15029" id="Fill-1-Copy-3" fill="#B2E1FF"></path>
                <path d="M175.491824,182.807648 C175.491824,182.807648 174.899065,176.117185 171.119103,176.02091 C168.237684,175.947524 165.790739,179.542215 165.868587,181.424128 C166.177776,188.90183 176.499736,196.48679 176.499736,196.48679 C176.499736,196.48679 185.984969,186.364608 186.095445,182.027649 C186.233708,176.598108 181.808639,175.330582 179.530564,175.610097 C176.609329,175.968515 175.491824,182.807648 175.491824,182.807648" id="Fill-1-Copy-4" fill="#B2E1FF"></path>
            </g>
        </g>
    </g>
</svg>