<?xml version="1.0" encoding="UTF-8" standalone="no"?>
<svg width="460px" height="337px" viewBox="0 0 460 337" version="1.1" xmlns="http://www.w3.org/2000/svg" xmlns:xlink="http://www.w3.org/1999/xlink">
    <!-- Generator: Sketch 41.2 (35397) - http://www.bohemiancoding.com/sketch -->
    <title>Group 9</title>
    <desc>Created with Sketch.</desc>
    <defs>
        <rect id="path-1" x="0" y="0" width="464" height="337"></rect>
        <polygon id="path-3" points="250.660345 789.070114 0 789.070114 0 0.116558985 250.660345 0.116558985"></polygon>
        <polygon id="path-5" points="206.925462 784.138021 206.925462 0.594393523 0.776704855 0.594393523 0.776704855 784.138021 206.925462 784.138021"></polygon>
    </defs>
    <g id="Page-1" stroke="none" stroke-width="1" fill="none" fill-rule="evenodd">
        <g id="Group-9">
            <g id="Page-1-Copy">
                <mask id="mask-2" fill="white">
                    <use xlink:href="#path-1"></use>
                </mask>
                <g id="Mask"></g>
                <g id="Page-1" mask="url(#mask-2)">
                    <g transform="translate(0.012876, -0.028213)">
                        <g id="Group-3" stroke-width="1" fill="none" transform="translate(0.000000, 0.681129)">
                            <mask id="mask-4" fill="white">
                                <use xlink:href="#path-3"></use>
                            </mask>
                            <g id="Clip-2"></g>
                            <path d="M244.16506,451.913394 C244.16506,451.913394 267.763571,235.090536 224.998862,186.672983 C202.176717,160.834089 148.413795,150.768304 148.411897,150.768304 C146.221366,144.458295 143.055156,136.935264 142.888114,135.018154 C142.888114,135.018154 160.418057,121.795452 165.29645,88.4067407 C175.50311,80.298245 175.155738,63.226016 175.575242,61.4619686 C175.65117,61.1424502 177.965085,42.6467383 176.302255,34.1823719 C175.922614,32.4431971 175.833398,32.0299279 175.833398,31.8787785 C175.12157,28.8615304 174.18955,25.9150737 173.048728,23.0604547 C171.029036,20.1637434 147.736135,7.12854264 145.583568,7.54946502 C143.808745,5.30709671 126.098472,0.98881576 123.835809,0.405264281 C119.033345,-0.834543452 101.459743,2.22479693 98.310617,3.78794958 C95.9473491,5.73949879 93.7283449,7.8766365 91.6668919,10.1764033 C91.5947601,10.3084199 90.522273,11.5290948 90.1578172,11.96915 C84.6644057,18.5910243 77.8783151,35.931113 77.7985904,36.2506314 C74.5583507,49.0198857 71.8059503,48.9376145 75.6023647,58.6877074 C75.1524896,62.0665662 74.8506746,65.6042274 74.7386804,69.2834717 C74.7386804,69.2834717 71.4320035,103.758928 96.5680629,137.658486 C96.5680629,137.658486 89.3093186,148.074401 85.8450906,154.76898 C79.920786,156.234555 46.6528071,164.649176 39.6749975,170.398593 C-22.5083712,221.636327 6.99166647,437.965557 6.99166647,437.965557 L10.1256065,437.450883 C8.82343639,442.038937 6.67466587,450.181872 5.34212444,458.343939 C2.91811388,473.194846 -1.37183432,484.898402 0.429564283,485.581444 C4.1918109,487.01258 11.467639,465.817225 11.467639,465.817225 C11.467639,465.817225 4.66446448,499.483362 7.18908002,500.547148 C13.4531637,503.183653 16.617475,467.743902 16.617475,467.743902 C16.617475,467.743902 17.1527695,500.99103 20.0228587,500.715517 C25.861744,500.156838 23.2593019,469.102333 23.2593019,469.102333 L24.4001244,469.050674 C24.4001244,469.050674 29.3981039,495.509472 33.2153985,494.895308 C39.3162364,493.921447 30.4857766,470.793675 28.418629,463.002785 C27.7789332,460.586308 26.7520031,453.843897 30.6831902,453.260345 C34.8516531,452.642355 34.768132,468.96075 39.6275424,468.5647 C43.830173,468.220309 40.2178848,452.521818 36.6758302,446.02622 C35.5426005,443.950307 32.6857987,435.478288 32.6857987,435.478288 L39.1245175,432.704027 L53.1067115,278.541206 C53.1067115,278.541206 44.9728938,421.004298 49.0863087,426.533687 C49.336872,426.872339 49.6140103,427.203337 49.8911485,427.534335 L45.3430442,751.843548 L61.6543384,751.843548 L61.6543384,770.631992 C61.6543384,770.631992 20.1861045,760.085973 15.0704362,770.631992 C8.15526747,784.895521 26.4463918,789.070305 26.4463918,789.070305 L98.8364204,789.070305 L93.9143692,751.843548 L97.3463278,751.843548 L125.487249,497.803499 L136.081143,751.843548 L143.839116,751.843548 L139.146748,787.331131 L211.538675,787.331131 C211.538675,787.331131 229.831697,783.156346 222.91463,768.892817 C217.80086,758.346798 176.330728,768.892817 176.330728,768.892817 L176.330728,751.843548 L185.649027,751.843548 L204.405212,419.645867 C207.461326,390.30375 201.933746,297.827104 206.362264,297.827104 C213.264145,297.827104 213.731104,447.905064 213.731104,447.905064 C214.657429,449.496916 216.796709,450.562615 219.522534,451.266704 C219.607953,452.464419 215.982378,460.630313 214.665022,462.593342 C210.53832,468.727329 205.494783,484.020205 209.646162,484.754905 C214.446728,485.604403 215.868485,469.349146 219.962918,470.355534 C223.821973,471.304522 222.180024,477.920657 221.318238,480.268256 C218.543059,487.831465 207.618877,510.031294 213.600128,511.575314 C217.345291,512.541522 224.763484,486.668189 224.763484,486.668189 L225.894816,486.826992 C225.894816,486.826992 220.439368,517.502667 226.200427,518.606631 C229.030654,519.14809 232.631553,486.096117 232.631553,486.096117 C232.631553,486.096117 232.513864,521.677451 238.992445,519.639804 C241.606276,518.817092 237.935144,484.661155 237.935144,484.661155 C237.935144,484.661155 243.225447,506.447714 247.103484,505.374362 C248.959931,504.861602 245.769045,492.807916 244.725031,477.792467 C243.85755,465.333164 241.129826,452.684447 241.129826,452.684447 C243.001459,452.035844 244.16506,451.913394 244.16506,451.913394 Z" id="Fill-1" fill="#2E4358" mask="url(#mask-4)"></path>
                        </g>
                        <g id="Group-6" stroke-width="1" fill="none" transform="translate(256.257968, 1.478425)">
                            <mask id="mask-6" fill="white">
                                <use xlink:href="#path-5"></use>
                            </mask>
                            <g id="Clip-5"></g>
                            <path d="M186.436024,431.171647 C185.28571,434.996301 181.734165,443.816538 180.857193,449.497077 C180.471857,444.444095 180.048557,439.343281 179.591089,434.229074 C181.785416,431.640402 182.455483,423.447722 184.999081,423.912649 C187.891949,424.442629 186.967522,429.40186 186.436024,431.171647 M162.719823,243.191539 C162.719823,243.204932 162.717925,243.210672 162.719823,243.225979 C163.837868,279.651071 180.82872,408.369134 180.82872,408.369134 L183.780432,408.679086 L183.953169,410.716733 C183.953169,410.716733 181.635458,416.908118 180.747097,418.415786 C179.997305,419.684293 179.236124,421.44834 178.571752,423.350144 C173.103017,367.357901 164.48136,313.426265 164.48136,313.426265 C164.48136,313.426265 161.229731,260.564154 162.719823,243.191539 M203.611002,428.301722 C202.578378,420.332896 200.501739,412.327718 199.979732,410.376168 L205.520599,410.957807 C205.520599,410.957807 204.34371,198.309734 174.308378,175.076732 C163.300675,166.564534 146.953315,160.493685 134.892106,156.839313 C139.791379,155.788921 144.132579,154.516587 147.64616,153.051012 C157.520634,148.935539 186.946642,140.612756 180.57436,112.939023 C179.32534,107.511037 188.590489,87.6722003 174.862655,50.9582024 C170.54803,39.4211027 156.670237,24.1990189 151.165436,17.9923271 C134.130925,-1.20747324 126.595043,1.07124745 111.76435,0.615885971 C96.937454,0.160524489 73.3522299,6.93737478 66.2320548,21.2908279 C58.9087715,36.0498971 58.9277536,44.4798244 48.6812313,57.7293129 C31.8118642,79.5445718 42.2368179,102.228461 41.8268052,120.308991 C41.568649,131.73512 43.1555502,148.740384 58.4190341,154.063139 C67.4336199,157.204751 78.3312273,159.014717 89.5515299,159.736025 C76.9626199,162.60595 54.7061408,168.275009 48.6869259,173.704908 C9.57436715,208.985856 10.1893863,406.291308 10.1893863,406.291308 L10.269111,406.297048 L10.0204458,409.209065 C10.0204458,409.209065 6.92257173,418.262723 5.20659245,427.337427 C3.13944484,438.275669 -0.246956753,446.849092 1.07419544,447.392465 C3.82849404,448.519389 9.59904384,432.9797 9.59904384,432.9797 C9.59904384,432.9797 3.94808109,457.750982 5.79693488,458.58326 C10.379207,460.649607 13.3707815,434.500761 13.3707815,434.500761 C13.3707815,434.500761 13.1581823,459.097934 15.2841743,458.948698 C19.6120867,458.644485 18.2567667,435.629598 18.2567667,435.629598 L19.1033671,435.612378 C19.1033671,435.612378 22.3132355,455.27328 25.1472588,454.890623 C29.6763811,454.282199 23.5717468,437.014815 22.1860556,431.213739 C21.7570608,429.415253 21.1230596,424.412016 24.0387058,424.052319 C27.1346817,423.671576 26.7721241,435.738655 30.3730231,435.535847 C33.4860829,435.359825 31.1057311,423.683055 28.6057922,418.813749 C27.8047488,417.258249 25.8476972,410.938674 25.8476972,410.938674 L26.5158661,407.448845 L33.9682275,407.974998 C33.9682275,407.974998 50.0764136,277.316865 56.2702635,256.563478 C57.2839062,253.1674 56.3993416,250.444797 58.079255,250.444797 C59.087203,250.444797 60.1084384,251.129753 60.0040371,253.136787 C58.9049751,273.970532 52.2137948,314.013643 52.2137948,314.013643 C52.2137948,314.013643 10.4380514,514.173714 33.514556,539.605078 C37.0338321,543.481391 48.981148,546.230779 64.5901056,547.929775 C62.3008677,594.036082 71.905796,692.275538 77.5301839,744.207794 L77.4827287,744.207794 C77.4827287,744.207794 77.4086986,765.642309 72.7239233,771.292235 C68.2061902,776.735527 53.3375335,771.521829 48.9526749,775.713834 C47.4360074,777.164102 48.9526749,784.138021 48.9526749,784.138021 L97.1367657,784.138021 L96.956436,770.878966 C96.9678253,770.605367 96.9773163,770.360466 96.9906038,770.075387 L98.8394576,744.207794 L97.9928572,744.207794 C99.8948607,693.412029 103.085747,598.222346 102.275213,549.998035 C103.854521,550.017167 105.437626,550.028647 107.018832,550.034387 C105.879908,597.952573 114.169379,693.335498 119.028789,744.207794 L118.728872,744.207794 L120.072803,770.593887 L119.043975,784.138021 L170.257604,784.138021 C170.257604,784.138021 171.772373,777.164102 170.257604,775.713834 C165.872746,771.521829 151.004089,776.735527 146.486356,771.292235 C142.566558,766.566425 142.614013,750.800969 142.735498,745.770946 C142.750684,745.265839 142.767768,744.737773 142.784852,744.2231 L142.784852,744.207794 C144.394531,693.551699 146.858404,598.562911 144.6394,548.65491 C162.535697,547.152982 175.855417,544.447599 177.658714,540.647818 C184.082247,527.115164 183.922798,492.352715 181.185583,453.976074 C181.415266,454.301332 181.699997,454.555799 182.11001,454.634243 C184.91556,455.181442 189.258658,435.744395 189.258658,435.744395 L190.101462,435.81136 C190.101462,435.81136 187.419295,458.707624 191.720633,459.266303 C193.833337,459.539902 195.044393,434.971428 195.044393,434.971428 C195.044393,434.971428 196.5193,461.252291 201.211668,459.457631 C203.106079,458.73441 198.897754,433.676135 198.897754,433.676135 C198.897754,433.676135 203.759063,449.527689 206.576002,448.563395 C207.923729,448.102293 205.040352,439.343281 203.611002,428.301722" id="Fill-4" fill="#2E4358" mask="url(#mask-6)"></path>
                        </g>
                        <path d="M429.050628,373.831527 C429.050628,373.831527 428.131896,366.767684 426.917043,357.7102 C398.72487,333.836248 319.672134,209.530216 300.680572,179.359648 C297.759231,182.537612 295.538328,186.448364 294.946088,191.231573 C294.946088,191.231573 387.29007,349.595964 429.050628,373.831527" id="Fill-7" fill="#893732"></path>
                        <path d="M310.629455,171.966147 C307.208886,173.7742 303.594699,176.194503 300.680951,179.360988 C319.672514,209.531556 398.72525,333.835674 426.917423,357.709626 C426.046146,351.202549 425.023012,343.668038 424.079603,336.975372 C392.628208,304.254397 328.328339,200.806983 310.629455,171.966147" id="Fill-9" fill="#FEFEFE"></path>
                        <path d="M421.785809,321.656285 L321.964789,167.537469 C321.964789,167.537469 316.594761,168.813629 310.628696,171.966721 C328.329478,200.807557 392.629347,304.253058 424.078844,336.975946 C423.169602,330.528181 422.336289,324.859122 421.785809,321.656285" id="Fill-11" fill="#6F9AB6"></path>
                        <path d="M26.230186,186.695943 C26.230186,186.695943 163.607235,361.671462 205.367793,385.907025 L205.367793,369.491052 C168.35655,342.268854 61.4400308,209.852413 34.0678834,175.63525 C30.8352366,178.614233 27.9822312,182.264778 26.230186,186.695943" id="Fill-13" fill="#893732"></path>
                        <path d="M45.0640077,168.192769 C41.5580191,169.956816 37.5888679,172.3886 34.0676936,175.635442 C61.439841,209.852605 168.35636,342.269045 205.367603,369.48933 L205.367603,350.800376 C171.190383,323.193608 73.1897433,202.999223 45.0640077,168.192769" id="Fill-15" fill="#FEFEFE"></path>
                        <path d="M205.367983,350.801142 L205.367983,333.771005 L54.5364411,164.416712 C54.5364411,164.416712 50.3281158,165.543636 45.0643873,168.193534 C73.190123,202.999988 171.190763,323.19246 205.367983,350.801142" id="Fill-17" fill="#6F9AB6"></path>
                    </g>
                </g>
            </g>
            <path d="M1.03094298,335.940146 L458.009772,336" id="Line" stroke="#233346" stroke-width="2" stroke-linecap="square"></path>
        </g>
    </g>
</svg>