<?xml version="1.0" encoding="UTF-8" standalone="no"?>
<svg width="484px" height="43px" viewBox="0 0 484 43" version="1.1" xmlns="http://www.w3.org/2000/svg" xmlns:xlink="http://www.w3.org/1999/xlink">
    <!-- Generator: Sketch 41.2 (35397) - http://www.bohemiancoding.com/sketch -->
    <title>Group 13</title>
    <desc>Created with Sketch.</desc>
    <defs></defs>
    <g id="Page-1" stroke="none" stroke-width="1" fill="none" fill-rule="evenodd">
        <g id="Group-13">
            <g id="Group-12">
                <g id="Group-11">
                    <g id="Group-Copy">
                        <path d="M13.2664613,11.3749426 L23.2780118,11.3749426 L23.2780118,15.6204762 L21.1954859,15.6204762 L14.9479082,34.7794118 L8.62319986,34.7794118 L2.56073556,15.6204762 L0.308522356,15.6204762 L0.308522356,11.3749426 L10.3354989,11.3749426 L10.3354989,15.6204762 L7.83646785,15.6204762 L11.908963,28.8974179 L15.9660319,15.6204762 L13.2664613,15.6204762 L13.2664613,11.3749426 Z M39.0866973,35.196246 C38.0274319,35.196246 37.0144603,35.0521566 36.0477521,34.7639735 C35.0810439,34.4757903 34.178625,34.0692524 33.3404684,33.5443474 C32.5023119,33.0194425 31.7412976,32.3890513 31.057403,31.6531552 C30.3735084,30.917259 29.7898927,30.099037 29.3065386,29.1984648 C28.8231845,28.2978925 28.4478194,27.3330082 28.180432,26.3037827 C27.9130447,25.2745573 27.779353,24.1990329 27.779353,23.0771772 C27.779353,21.9553214 27.9130447,20.877224 28.180432,19.8428524 C28.4478194,18.8084809 28.8231845,17.8410235 29.3065386,16.9404512 C29.7898927,16.039879 30.3735084,15.221657 31.057403,14.4857609 C31.7412976,13.7498647 32.5023119,13.1194736 33.3404684,12.5945686 C34.178625,12.0696636 35.0810439,11.6631257 36.0477521,11.3749426 C37.0144603,11.0867594 38.0274319,10.94267 39.0866973,10.94267 C40.1459627,10.94267 41.1615053,11.0867594 42.1333556,11.3749426 C43.1052059,11.6631257 44.0101957,12.0696636 44.8483523,12.5945686 C45.6865089,13.1194736 46.4475231,13.7498647 47.1314178,14.4857609 C47.8153124,15.221657 48.401499,16.039879 48.8899952,16.9404512 C49.3784914,17.8410235 49.7564275,18.8084809 50.0238149,19.8428524 C50.2912022,20.877224 50.4248939,21.9553214 50.4248939,23.0771772 C50.4248939,24.1887406 50.2912022,25.261692 50.0238149,26.2960636 C49.7564275,27.3304351 49.3784914,28.2978925 48.8899952,29.1984648 C48.401499,30.099037 47.8153124,30.917259 47.1314178,31.6531552 C46.4475231,32.3890513 45.6865089,33.0194425 44.8483523,33.5443474 C44.0101957,34.0692524 43.1052059,34.4757903 42.1333556,34.7639735 C41.1615053,35.0521566 40.1459627,35.196246 39.0866973,35.196246 Z M39.0866973,30.3486185 C39.9814166,30.3486185 40.8015637,30.1556416 41.5471631,29.769682 C42.2927625,29.3837225 42.93294,28.8588254 43.4677148,28.194975 C44.0024896,27.5311246 44.4164196,26.7592171 44.7095173,25.8792294 C45.002615,24.9992416 45.1491616,24.0652336 45.1491616,23.0771772 C45.1491616,22.0788285 45.000044,21.1371014 44.7018042,20.2519675 C44.4035644,19.3668336 43.9844924,18.5923531 43.4445756,17.9285027 C42.9046588,17.2646523 42.2644813,16.7397552 41.5240239,16.3537957 C40.7835666,15.9678361 39.9711325,15.7748593 39.0866973,15.7748593 C38.2022622,15.7748593 37.3898281,15.9678361 36.6493707,16.3537957 C35.9089134,16.7397552 35.2713069,17.2646523 34.7365321,17.9285027 C34.2017573,18.5923531 33.7826853,19.3668336 33.4793035,20.2519675 C33.1759217,21.1371014 33.024233,22.0788285 33.024233,23.0771772 C33.024233,24.0652336 33.1759217,24.9992416 33.4793035,25.8792294 C33.7826853,26.7592171 34.2017573,27.5311246 34.7365321,28.194975 C35.2713069,28.8588254 35.9089134,29.3837225 36.6493707,29.769682 C37.3898281,30.1556416 38.2022622,30.3486185 39.0866973,30.3486185 Z M60.6647509,30.5493164 L63.0866514,30.5493164 L63.0866514,15.4660932 L60.2482458,15.4660932 L60.2482458,18.4920008 L55.2193313,18.4920008 L55.2193313,11.3749426 L76.4919478,11.3749426 L76.4919478,18.4920008 L71.4321812,18.4920008 L71.4321812,15.4660932 L68.2081226,15.4660932 L68.2081226,30.5493164 L70.6763014,30.5493164 L70.6763014,34.7794118 L60.6647509,34.7794118 L60.6647509,30.5493164 Z M92.3623378,30.5493164 L94.6916816,30.5493164 L93.6427056,27.1837661 L86.4541347,27.1837661 L85.4051587,30.5493164 L87.8733375,30.5493164 L87.8733375,34.7794118 L79.0033198,34.7794118 L79.0033198,30.5493164 L80.7464711,30.5493164 L87.1174578,11.3749426 L93.303331,11.3749426 L99.5354826,30.5493164 L101.232356,30.5493164 L101.232356,34.7794118 L92.3623378,34.7794118 L92.3623378,30.5493164 Z M87.672798,23.2315602 L92.3931901,23.2315602 L90.0175679,15.6204762 L87.672798,23.2315602 Z M115.973554,11.3749426 L125.985104,11.3749426 L125.985104,15.6050379 L123.516925,15.6050379 L123.516925,30.5493164 L125.985104,30.5493164 L125.985104,34.7794118 L115.973554,34.7794118 L115.973554,30.5493164 L118.395454,30.5493164 L118.395454,15.6050379 L115.973554,15.6050379 L115.973554,11.3749426 Z M146.406199,11.3749426 L155.291643,11.3749426 L155.291643,15.6204762 L153.39423,15.6204762 L153.39423,34.7794118 L148.272759,34.7794118 L138.538879,19.6498736 L138.538879,30.5493164 L140.497996,30.5493164 L140.497996,34.7794118 L131.627978,34.7794118 L131.627978,30.5493164 L133.556243,30.5493164 L133.556243,15.6204762 L131.65883,15.6204762 L131.65883,11.3749426 L138.723992,11.3749426 L148.396168,26.7051787 L148.396168,15.6204762 L146.406199,15.6204762 L146.406199,11.3749426 Z M164.991586,30.5493164 L167.413486,30.5493164 L167.413486,15.4660932 L164.575081,15.4660932 L164.575081,18.4920008 L159.546166,18.4920008 L159.546166,11.3749426 L180.818783,11.3749426 L180.818783,18.4920008 L175.759016,18.4920008 L175.759016,15.4660932 L172.534957,15.4660932 L172.534957,30.5493164 L175.003136,30.5493164 L175.003136,34.7794118 L164.991586,34.7794118 L164.991586,30.5493164 Z M186.199413,11.3749426 L204.803311,11.3749426 L204.803311,19.3565458 L199.774396,19.3565458 L199.774396,16.0373104 L193.773636,16.0373104 L193.773636,20.6533634 L198.416898,20.6533634 L198.416898,25.1304716 L193.773636,25.1304716 L193.773636,30.5493164 L199.774396,30.5493164 L199.774396,26.3964126 L204.803311,26.3964126 L204.803311,34.7794118 L186.199413,34.7794118 L186.199413,30.5493164 L188.652165,30.5493164 L188.652165,16.0373104 L186.199413,16.0373104 L186.199413,11.3749426 Z M210.646724,11.3749426 L220.658275,11.3749426 L220.658275,15.6204762 L218.190096,15.6204762 L218.190096,30.5493164 L223.280715,30.5493164 C223.414408,30.5493164 223.545529,30.510721 223.674081,30.4335291 C223.802632,30.3563372 223.915756,30.2559892 224.013455,30.1324822 C224.111154,30.0089751 224.190855,29.8751778 224.25256,29.7310863 C224.314265,29.5869947 224.345117,29.4480514 224.345117,29.3142521 L224.345117,26.1802763 L229.343179,26.1802763 L229.343179,34.7794118 L210.646724,34.7794118 L210.646724,30.5493164 L213.068625,30.5493164 L213.068625,15.6204762 L210.646724,15.6204762 L210.646724,11.3749426 Z M234.569548,11.3749426 L244.581098,11.3749426 L244.581098,15.6050379 L242.112919,15.6050379 L242.112919,30.5493164 L244.581098,30.5493164 L244.581098,34.7794118 L234.569548,34.7794118 L234.569548,30.5493164 L236.991448,30.5493164 L236.991448,15.6050379 L234.569548,15.6050379 L234.569548,11.3749426 Z M267.177275,34.7794118 L267.177275,30.7654527 C266.539659,31.8873084 265.917479,32.7106764 265.310715,33.2355813 C264.703951,33.7604863 264.017496,34.1824624 263.251328,34.5015223 C262.485161,34.8205822 261.459334,34.9749637 260.173818,34.9646714 C259.536202,34.9543792 258.898595,34.8797614 258.260979,34.740816 C257.623363,34.6018706 257.006325,34.4063207 256.409845,34.1541604 C255.813366,33.9020002 255.22975,33.5983833 254.658981,33.2433005 C254.088212,32.8882177 253.571442,32.4791068 253.108656,32.0159553 C251.967118,30.8632228 251.080125,29.5278229 250.447651,28.0097154 C249.815177,26.4916079 249.498944,24.8371528 249.498944,23.0463006 C249.498944,21.9450293 249.632636,20.879797 249.900023,19.8505716 C250.167411,18.8213461 250.542776,17.8590348 251.02613,16.9636087 C251.509484,16.0681826 252.0931,15.2525336 252.776994,14.5166375 C253.460889,13.7807413 254.221903,13.1503502 255.06006,12.6254452 C255.898216,12.1005402 256.800635,11.6940023 257.767344,11.4058192 C258.734052,11.117636 259.747023,10.9735466 260.806289,10.9735466 C262.019816,10.9735466 263.073924,11.1356472 263.968643,11.4598532 C264.863362,11.7840592 265.824914,12.3887201 266.853327,13.273854 L270.308777,13.273854 L270.308777,18.4920008 L265.542107,18.4920008 C265.069037,17.7612508 264.624255,17.2312076 264.207748,16.9018555 C263.79124,16.5725033 263.338746,16.2997627 262.850249,16.0836253 C262.361753,15.867488 261.68044,15.759421 260.806289,15.759421 C259.942422,15.759421 259.140272,15.9549709 258.399814,16.3460765 C257.659357,16.7371822 257.01918,17.2646523 256.479263,17.9285027 C255.939346,18.5923531 255.515132,19.3745527 255.206608,20.2751249 C254.898084,21.1756972 254.743824,22.0994132 254.743824,23.0463006 C254.743824,23.9828957 254.882658,24.8731623 255.16033,25.7171272 C255.438001,26.561092 255.859644,27.3201344 256.425271,27.9942771 C256.990898,28.6684197 257.649073,29.1855977 258.399814,29.5458266 C259.150556,29.9060555 259.952706,30.0861673 260.806289,30.0861673 C261.896407,30.0861673 262.847674,29.7671122 263.660121,29.1289924 C264.472567,28.4908727 265.058753,27.6211902 265.418698,26.519919 L260.96055,26.519919 L260.96055,22.2898236 L271.789685,22.2898236 L271.789685,34.7794118 L267.177275,34.7794118 Z M278.62037,11.3749426 L297.224268,11.3749426 L297.224268,19.3565458 L292.195353,19.3565458 L292.195353,16.0373104 L286.194593,16.0373104 L286.194593,20.6533634 L290.837855,20.6533634 L290.837855,25.1304716 L286.194593,25.1304716 L286.194593,30.5493164 L292.195353,30.5493164 L292.195353,26.3964126 L297.224268,26.3964126 L297.224268,34.7794118 L278.62037,34.7794118 L278.62037,30.5493164 L281.073122,30.5493164 L281.073122,16.0373104 L278.62037,16.0373104 L278.62037,11.3749426 Z M317.845902,11.3749426 L326.731346,11.3749426 L326.731346,15.6204762 L324.833933,15.6204762 L324.833933,34.7794118 L319.712462,34.7794118 L309.978582,19.6498736 L309.978582,30.5493164 L311.937699,30.5493164 L311.937699,34.7794118 L303.067681,34.7794118 L303.067681,30.5493164 L304.995946,30.5493164 L304.995946,15.6204762 L303.098533,15.6204762 L303.098533,11.3749426 L310.163695,11.3749426 L319.835871,26.7051787 L319.835871,15.6204762 L317.845902,15.6204762 L317.845902,11.3749426 Z M336.431289,30.5493164 L338.853189,30.5493164 L338.853189,15.4660932 L336.014784,15.4660932 L336.014784,18.4920008 L330.985869,18.4920008 L330.985869,11.3749426 L352.258486,11.3749426 L352.258486,18.4920008 L347.198719,18.4920008 L347.198719,15.4660932 L343.97466,15.4660932 L343.97466,30.5493164 L346.442839,30.5493164 L346.442839,34.7794118 L336.431289,34.7794118 L336.431289,30.5493164 Z M357.639116,11.3749426 L376.243014,11.3749426 L376.243014,19.3565458 L371.214099,19.3565458 L371.214099,16.0373104 L365.213339,16.0373104 L365.213339,20.6533634 L369.856601,20.6533634 L369.856601,25.1304716 L365.213339,25.1304716 L365.213339,30.5493164 L371.214099,30.5493164 L371.214099,26.3964126 L376.243014,26.3964126 L376.243014,34.7794118 L357.639116,34.7794118 L357.639116,30.5493164 L360.091868,30.5493164 L360.091868,16.0373104 L357.639116,16.0373104 L357.639116,11.3749426 Z" id="VOTA-INTELIGENTE" fill="#042637"></path>
                        <polygon id="Path-20" fill="#042637" points="391.091799 7.24479135 478.659464 0 483.736642 42.4240994 386.062663 40.1140709"></polygon>
                        <path d="M404.222289,29.0388327 L410.688918,22.1595244 C411.248374,21.6160933 411.680301,21.0726705 411.984712,20.5292394 C412.289122,19.9858084 412.441325,19.4341518 412.441325,18.8742532 C412.441325,18.6354729 412.391962,18.3987546 412.293234,18.1640912 C412.194506,17.9294278 412.052587,17.719469 411.867473,17.5342084 C411.682359,17.3489478 411.456111,17.2007416 411.188724,17.0895852 C410.921337,16.9784289 410.618988,16.9228516 410.281668,16.9228516 C409.87853,16.9228516 409.526818,16.9866626 409.226522,17.1142865 C408.926225,17.2419105 408.675296,17.4168762 408.473727,17.6391889 C408.272158,17.8615016 408.117899,18.1208625 408.010944,18.4172794 C407.903989,18.7136963 407.846398,19.0265762 407.838171,19.3559283 L404.123562,19.3559283 C404.123562,18.3843395 404.283992,17.5177447 404.604857,16.7561179 C404.925722,15.9944911 405.367933,15.352264 405.931503,14.8294175 C406.495073,14.306571 407.155304,13.9092959 407.912216,13.6375804 C408.669128,13.3658649 409.479506,13.2300092 410.343373,13.2300092 C411.157876,13.2300092 411.933287,13.3535144 412.669631,13.6005285 C413.405975,13.8475426 414.055922,14.2098245 414.619492,14.6873851 C415.183063,15.1649457 415.629387,15.7536538 415.95848,16.4535271 C416.287572,17.1534004 416.452115,17.960301 416.452115,18.8742532 C416.452115,19.6070617 416.301969,20.2842819 416.001673,20.9059341 C415.701376,21.5275862 415.296187,22.1224696 414.786095,22.690602 L409.454828,28.4583525 L416.427434,28.4583525 L416.427434,32.25 L404.222289,32.25 L404.222289,29.0388327 Z M428.013065,32.422909 C426.696696,32.422909 425.5778,32.1800154 424.656342,31.694221 C423.734884,31.2084266 422.984154,30.5394402 422.404129,29.6872415 C421.824104,28.8350428 421.400404,27.8305339 421.133016,26.6736845 C420.865629,25.5168351 420.731937,24.271491 420.731937,22.9376149 C420.731937,21.6202063 420.859459,20.3789791 421.114505,19.2138959 C421.369552,18.0488127 421.785024,17.0278364 422.360935,16.1509364 C422.936847,15.2740363 423.689634,14.5803488 424.619319,14.0698529 C425.549004,13.5593571 426.688469,13.3041131 428.037747,13.3041131 C429.37057,13.3041131 430.499751,13.5552403 431.425322,14.0575023 C432.350894,14.5597643 433.101624,15.2431597 433.677535,16.1077091 C434.253447,16.9722585 434.670976,17.9829427 434.930136,19.139792 C435.189296,20.2966414 435.318874,21.529635 435.318874,22.8388097 C435.318874,24.1644521 435.185183,25.4097962 434.917795,26.5748794 C434.650408,27.7399626 434.226708,28.7547636 433.646683,29.619313 C433.066658,30.4838623 432.311815,31.1672578 431.382129,31.6695198 C430.452444,32.1717818 429.329434,32.422909 428.013065,32.422909 Z M428.013065,28.6312615 C428.745295,28.6312615 429.327368,28.4851137 429.759302,28.1928136 C430.191235,27.9005136 430.522379,27.4970633 430.752744,26.9824506 C430.983108,26.4678379 431.131197,25.8564871 431.197016,25.1483801 C431.262834,24.440273 431.295743,23.6704239 431.295743,22.8388097 C431.295743,22.0236632 431.262834,21.2641062 431.197016,20.560116 C431.131197,19.8561258 430.985165,19.2427167 430.758914,18.7198702 C430.532663,18.1970237 430.203576,17.7873981 429.771642,17.4909812 C429.339709,17.1945642 428.76175,17.046358 428.037747,17.046358 C427.305517,17.046358 426.721387,17.1945642 426.28534,17.4909812 C425.849293,17.7873981 425.516092,18.1970237 425.285727,18.7198702 C425.055363,19.2427167 424.905217,19.8561258 424.835285,20.560116 C424.765353,21.2641062 424.730387,22.0236632 424.730387,22.8388097 C424.730387,23.6704239 424.765353,24.440273 424.835285,25.1483801 C424.905217,25.8564871 425.053306,26.4678379 425.279557,26.9824506 C425.505808,27.4970633 425.834895,27.9005136 426.266828,28.1928136 C426.698762,28.4851137 427.280835,28.6312615 428.013065,28.6312615 Z M439.660401,28.8659237 L441.622603,28.8659237 L441.622603,19.0965648 L438.747175,20.8133042 L438.747175,16.5152803 L443.905669,13.4770221 L445.695098,13.5017233 L445.695098,28.8659237 L447.669641,28.8659237 L447.669641,32.25 L439.660401,32.25 L439.660401,28.8659237 Z M453.652507,28.8659237 L454.960642,28.8659237 C455.380234,27.8943349 455.812161,26.9062933 456.256436,25.9017693 C456.70071,24.8972453 457.142921,23.9050869 457.583082,22.9252642 C458.023243,21.9454416 458.455169,20.9882763 458.878876,20.0537397 C459.302582,19.119203 459.70777,18.2279071 460.094454,17.3798254 L454.874255,17.3798254 L454.874255,19.504136 L451.332419,19.504136 L451.332419,13.5264246 L465.00613,13.5264246 L465.00613,16.31767 C464.035308,18.3102505 463.045989,20.366612 462.038145,22.4868164 C461.0303,24.6070208 460.053322,26.7333686 459.107182,28.8659237 L460.328931,28.8659237 L460.328931,32.25 L453.652507,32.25 L453.652507,28.8659237 Z" id="2017" fill="#FFFFFF"></path>
                    </g>
                </g>
            </g>
        </g>
    </g>
</svg>