<?xml version="1.0" encoding="UTF-8" standalone="no"?>
<svg width="1327px" height="399px" viewBox="0 0 1327 399" version="1.1" xmlns="http://www.w3.org/2000/svg" xmlns:xlink="http://www.w3.org/1999/xlink">
    <!-- Generator: Sketch 41.2 (35397) - http://www.bohemiancoding.com/sketch -->
    <title>Group 8</title>
    <desc>Created with Sketch.</desc>
    <defs></defs>
    <g id="Page-1" stroke="none" stroke-width="1" fill="none" fill-rule="evenodd">
        <g id="Group-8" transform="translate(0.000000, -1.000000)">
            <g id="Group-7-Copy">
                <path d="M1222.5628,85.2602 C1205.2788,70.8182 1187.2538,56.9342 1166.9128,47.2642 C1146.5718,37.5932 1123.5928,32.3162 1101.3498,35.8572 C1070.2558,40.8052 1044.4298,61.9552 1021.5098,83.5442 C1013.3438,91.2362 1005.3338,99.0962 997.4768,107.1042 C983.5968,121.2512 970.2008,135.8742 957.3308,150.9462 C947.9298,137.1102 938.1548,123.5262 927.4848,110.7672 C918.3038,99.7892 908.4638,89.4212 897.6018,80.0542 C867.1458,53.7882 827.1538,35.8812 787.2268,40.7092 C753.4068,44.7992 723.1028,64.7332 699.9888,89.7592 C693.1568,97.1562 686.8758,104.9962 680.9798,113.1302 C672.0448,125.4552 663.9978,138.4632 656.3118,151.6872 C642.4918,138.5552 629.8048,124.1782 616.4148,110.5442 C611.8328,105.8792 607.1688,101.3002 602.3478,96.8892 C578.4238,74.9982 548.5038,56.6862 516.0808,57.3032 C480.4178,57.9812 448.9458,81.4892 426.3768,109.1782 C413.8588,124.6942 403.8118,140.6422 393.7548,156.5862 C371.5848,135.4192 352.4758,110.9562 332.5568,87.5262 C331.6538,86.4632 330.7448,85.4012 329.8348,84.3412 C304.9158,55.3082 277.4208,27.3672 242.8548,11.1272 C227.4688,3.8992 210.2978,-0.8988 193.5028,1.7262 C175.1958,4.5862 159.3398,15.8902 145.6038,28.3272 C127.2108,44.9832 111.4218,64.0552 96.5288,83.9582 C65.5888,125.3062 38.5368,170.2572 0.1748,204.6902 L0.1748,397.05371 C-5.6932,404.43271 1321.7078,389.66571 1326.9638,397.05371 L1326.9638,188.6612 C1297.0138,153.5122 1264.2598,120.7562 1229.1188,90.7972 C1226.9418,88.9422 1224.7578,87.0942 1222.5628,85.2602 Z" id="Fill-1" fill="#B4DFF8"></path>
                <path d="M112.4322,84.3978 C115.7172,83.7738 120.0122,85.2208 120.2682,88.5548 C121.8612,82.6748 130.3022,81.2528 135.4482,84.5118 C140.5942,87.7718 143.1622,93.7878 145.4362,99.4398 C146.9792,95.1098 148.6252,90.6188 151.9232,87.4178 C155.2222,84.2168 160.6942,82.7538 164.4782,85.3618 C164.0152,81.6308 168.5832,78.7528 172.2032,79.7628 C175.8242,80.7728 178.1852,84.3468 179.2002,87.9658 C180.2132,91.5858 180.2042,95.4098 180.9072,99.1018 C181.6092,102.7938 183.2442,106.6048 186.4922,108.4968 C189.4712,102.0008 192.4502,95.5058 195.4302,89.0108 C196.0792,87.5938 196.8822,86.0348 198.3642,85.5488 C200.9382,84.7068 203.0982,87.6008 204.1512,90.0958 C205.2052,92.5908 206.8542,95.6348 209.5512,95.3818 C209.5852,91.5418 209.6712,87.5018 211.6042,84.1838 C213.5372,80.8658 217.9952,78.6858 221.3422,80.5698 C224.3482,82.2618 225.0872,86.1458 226.5592,89.2658 C228.0312,92.3848 232.1412,95.1648 234.6762,92.8248 C234.5562,87.7208 237.4282,82.6558 241.8692,80.1378 C247.2612,88.9428 252.6522,97.7468 258.0432,106.5518 C259.8462,109.4948 263.1502,112.8748 266.1262,111.1258 C268.1262,109.9508 268.3492,107.1968 268.3392,104.8768 C268.3062,97.0518 268.2722,89.2268 268.2392,81.4028 C274.6432,86.3848 281.0472,91.3668 287.4512,96.3488 C289.0822,93.3508 287.8782,89.6928 287.5922,86.2918 C287.3062,82.8898 289.0732,78.5168 292.4782,78.7448 C294.2892,78.8658 295.6992,80.2988 296.9232,81.6388 C301.1022,86.2128 305.2812,90.7878 309.4602,95.3618 C311.0512,88.8978 312.6412,82.4348 314.2312,75.9718 C318.4242,79.9788 322.6152,83.9868 326.8072,87.9938 C328.1132,86.9808 329.0992,85.7388 329.8352,84.3408 C304.9152,55.3088 277.4212,27.3668 242.8542,11.1268 C227.4692,3.8988 210.2982,-0.8992 193.5032,1.7258 C175.1962,4.5858 159.3402,15.8898 145.6032,28.3278 C127.2102,44.9828 111.4212,64.0548 96.5292,83.9588 C97.0072,84.3718 97.5412,84.7638 98.1652,85.1368 C103.2942,88.1978 107.2032,85.3908 112.4322,84.3978" id="Fill-4" fill="#FEFEFE"></path>
                <path d="M442.295,113.1556 C448.431,111.2176 453.568,104.6916 459.817,106.2246 C459.585,110.1206 461.802,114.0566 465.253,115.8796 C464.293,112.3326 467.878,108.6666 471.551,108.7786 C475.224,108.8906 478.338,111.9266 479.488,115.4176 C480.392,118.1636 480.298,121.1296 480.828,123.9706 C481.358,126.8126 482.785,129.7956 485.48,130.8406 C489.772,132.5046 494.2,128.2566 495.654,123.8896 C497.108,119.5226 497.041,114.6196 499.373,110.6516 C501.705,106.6836 508.205,104.6736 510.692,108.5456 C511.838,110.3296 511.657,112.6576 512.45,114.6236 C513.244,116.5906 516.171,118.0056 517.365,116.2536 C518.168,115.0766 517.465,113.4806 517.636,112.0666 C518.001,109.0296 522.404,108.0816 524.941,109.7906 C527.478,111.4996 528.566,114.6256 529.613,117.4996 C530.661,120.3736 532.055,123.4606 534.829,124.7476 C540.342,122.7826 537.296,112.6266 542.43,109.8176 C545.176,108.3146 548.685,110.0556 550.631,112.5076 C552.577,114.9596 553.587,118.0346 555.438,120.5596 C557.288,123.0846 560.58,125.0766 563.481,123.9006 C562.877,121.6336 562.269,119.2656 562.742,116.9686 C563.216,114.6706 565.129,112.4856 567.475,112.5396 C569.112,112.5776 570.523,113.6426 571.806,114.6596 C578.425,119.9056 585.044,125.1506 591.662,130.3966 C592.459,123.3296 591.719,116.0936 589.509,109.3346 C594.179,108.4096 597.027,114.6696 601.545,116.1696 C606.644,117.8616 611.522,113.1246 616.415,110.5446 C611.833,105.8796 607.169,101.3006 602.348,96.8886 C578.424,74.9986 548.504,56.6866 516.081,57.3026 C480.418,57.9806 448.945,81.4896 426.377,109.1776 C426.595,109.3496 426.812,109.5256 427.03,109.6906 C431.362,112.9496 437.126,114.7876 442.295,113.1556" id="Fill-7" fill="#FEFEFE"></path>
                <path d="M704.1226,110.6634 C709.7096,106.3824 713.5826,99.2594 720.4496,97.7104 C725.8126,96.5014 731.4426,99.3184 735.0846,103.4374 C738.7266,107.5564 740.7756,112.8064 742.7526,117.9364 C744.4176,110.6944 749.2386,104.2364 755.7086,100.5804 C759.5766,111.8814 768.9756,121.1404 780.3326,124.8364 C779.5746,119.7524 778.8576,114.3314 780.9966,109.6564 C783.1336,104.9814 789.3236,101.8024 793.5966,104.6604 C798.5886,107.9994 797.0016,115.4794 796.8856,121.4854 C796.7246,129.8304 800.8896,138.1424 807.6706,143.0094 C811.8496,131.4654 816.0286,119.9204 820.2066,108.3764 C821.5406,104.6914 824.0136,100.2594 827.9006,100.7534 C834.8866,101.6404 833.2626,116.2414 840.3016,116.0224 C848.1536,115.7784 844.1886,98.1044 852.0436,98.0814 C854.3806,98.0744 856.2096,99.9994 857.7296,101.7744 C865.5336,110.8884 873.3356,120.0014 881.1396,129.1144 C884.5686,125.1944 882.4856,119.2234 881.4686,114.1144 C880.4506,109.0064 882.7786,101.7544 887.9326,102.5084 C894.2966,103.4394 893.6066,114.9804 899.8316,116.6024 C901.6396,113.4854 903.4476,110.3694 905.2556,107.2534 C908.0786,115.6444 920.7206,116.4844 927.4846,110.7674 C918.3046,99.7894 908.4636,89.4214 897.6016,80.0544 C867.1456,53.7884 827.1536,35.8814 787.2266,40.7094 C753.4066,44.7994 723.1026,64.7334 699.9886,89.7594 C693.1566,97.1564 686.8756,104.9964 680.9796,113.1304 C688.5036,116.0924 698.0906,115.2854 704.1226,110.6634" id="Fill-9" fill="#FEFEFE"></path>
                <path d="M1014.3195,107.6615 C1019.2035,105.1405 1023.4825,100.2715 1028.9535,100.7905 C1032.9145,101.1665 1036.0015,104.3615 1038.2325,107.6565 C1040.4625,110.9505 1042.3165,114.6465 1045.4835,117.0555 C1048.6495,119.4645 1053.7445,120.0085 1056.2745,116.9385 C1055.1925,112.9235 1057.2865,108.2865 1061.0145,106.4435 C1064.7425,104.6015 1069.6975,105.7545 1072.2295,109.0535 C1073.5855,110.8205 1074.5285,113.2665 1076.6875,113.8155 C1081.0955,114.9345 1082.2755,107.7245 1085.8295,104.8875 C1089.4175,102.0215 1095.0005,104.4985 1097.6275,108.2655 C1100.2555,112.0305 1101.1465,116.7445 1103.4235,120.7315 C1105.7005,124.7195 1110.4765,128.0925 1114.7005,126.2915 C1119.0175,124.4505 1119.7785,118.8195 1120.5055,114.1825 C1121.2325,109.5465 1123.9755,103.9365 1128.6445,104.4145 C1131.9615,104.7535 1134.0015,108.0545 1135.9095,110.7875 C1137.8185,113.5205 1141.0745,116.2655 1144.1295,114.9275 C1147.6205,113.3985 1147.2935,108.2215 1149.6985,105.2645 C1152.6485,101.6385 1158.7775,102.7305 1162.1385,105.9795 C1165.5005,109.2285 1167.0345,113.8645 1169.2205,117.9965 C1171.4065,122.1295 1174.9295,126.2035 1179.5955,126.4805 C1181.0245,118.2085 1182.4535,109.9365 1183.8825,101.6645 C1184.2155,99.7325 1184.6815,97.5875 1186.3055,96.4885 C1188.7495,94.8345 1192.0735,96.6215 1194.0815,98.7845 C1196.0885,100.9465 1197.8865,103.6815 1200.7575,104.3605 C1203.6295,105.0395 1207.0525,101.3895 1204.9455,99.3245 C1209.0065,103.2275 1215.8335,102.8775 1220.6285,99.9225 C1224.2065,97.7175 1226.8745,94.3955 1229.1185,90.7975 C1226.9425,88.9415 1224.7575,87.0945 1222.5635,85.2605 C1205.2785,70.8185 1187.2545,56.9335 1166.9135,47.2645 C1146.5715,37.5935 1123.5925,32.3165 1101.3495,35.8575 C1070.2565,40.8055 1044.4295,61.9555 1021.5095,83.5445 C1013.3435,91.2365 1005.3345,99.0965 997.4765,107.1045 C1002.6095,109.8515 1009.1495,110.3295 1014.3195,107.6615" id="Fill-11" fill="#FEFEFE"></path>
            </g>
        </g>
    </g>
</svg>